<?xml version="1.0" encoding="UTF-8" standalone="no"?>
<!-- Created with Inkscape (http://www.inkscape.org/) -->

<svg
   width="210mm"
   height="297mm"
   viewBox="0 0 210 297"
   version="1.1"
   id="svg2208"
   xml:space="preserve"
   inkscape:version="1.2.1 (9c6d41e, 2022-07-14)"
   sodipodi:docname="fatalien.svg"
   xmlns:inkscape="http://www.inkscape.org/namespaces/inkscape"
   xmlns:sodipodi="http://sodipodi.sourceforge.net/DTD/sodipodi-0.dtd"
   xmlns="http://www.w3.org/2000/svg"
   xmlns:svg="http://www.w3.org/2000/svg"><sodipodi:namedview
     id="namedview2210"
     pagecolor="#ffffff"
     bordercolor="#666666"
     borderopacity="1.0"
     inkscape:showpageshadow="2"
     inkscape:pageopacity="0.0"
     inkscape:pagecheckerboard="0"
     inkscape:deskcolor="#d1d1d1"
     inkscape:document-units="mm"
     showgrid="false"
     inkscape:zoom="0.11436325"
     inkscape:cx="187.99745"
     inkscape:cy="1534.5839"
     inkscape:window-width="1637"
     inkscape:window-height="1387"
     inkscape:window-x="4"
     inkscape:window-y="25"
     inkscape:window-maximized="0"
     inkscape:current-layer="layer1" /><defs
     id="defs2205" /><g
     inkscape:label="Layer 1"
     inkscape:groupmode="layer"
     id="layer1"><path
       id="path2347"
       style="fill:#000000;stroke-width:0.352778"
       d="m 301.09318,834.02604 c -17.53759,-10.86835 -25.91092,-14.58745 -33.98329,-28.30103 -7.00403,-5.12522 -9.50026,-27.63321 -15.78557,-25.49723 -1.65376,4.91796 4.49362,15.04376 2.89197,18.32307 -4.27257,-2.42736 -5.29454,-7.80296 -6.26776,-14.97158 2.75909,-2.32195 2.77652,-18.85708 11.21527,-17.06269 1.19302,-8.907 20.68314,-11.76042 3.16725,-17.81111 -20.11898,-12.60592 -44.05768,-13.94098 -67.93881,-11.02488 -25.07511,3.90808 -50.5932,-5.31472 -73.98034,-0.0901 -17.54614,13.85222 -3.44993,41.26125 11.13773,53.55614 15.52514,7.01949 -13.30166,16.07907 -25.36271,10.93683 C 91.42469,799.86336 80.144083,784.28191 66.186608,795.0028 47.091752,810.20248 20.72995,794.80197 0.60962861,789.07085 -13.773846,779.19128 -29.323586,760.26703 -11.99364,745.17757 4.6141553,728.53044 29.370075,714.94518 50.620896,714.51003 c 25.650191,-4.46171 14.643785,14.35021 -11.26811,7.87417 -10.579205,-1.76054 -30.9916495,15.48864 -29.280768,13.94626 -3.9373377,0.63713 -23.227035,11.60439 -22.555058,22.73145 -1.831452,5.14647 3.8706051,17.65609 13.7696544,21.91032 13.7895976,10.41002 33.0581016,12.11515 49.9068376,14.25779 12.016662,-2.04582 26.987662,-17.17421 36.281254,-7.97768 10.300942,8.00674 26.691374,11.42646 38.684024,7.63473 -11.078,-2.10576 -15.89059,-8.64128 -15.34584,-15.25151 -1.67212,-0.91461 -0.63863,-6.69599 -3.03252,-12.27081 -6.70956,-14.69237 0.6254,-41.02774 20.60088,-36.98993 31.88594,0.94827 63.34288,2.92096 95.14448,0.30953 22.99933,1.93779 49.0773,11.09716 60.12184,33.01256 15.3733,20.51087 -0.94755,10.80457 -10.69506,0.85852 -12.88453,-1.65196 -15.54545,21.69177 -6.1879,29.77444 9.36647,14.87954 23.36806,33.94448 43.26223,32.39336 17.53002,-14.62907 40.92641,-9.43416 61.66556,-16.33579 15.41534,1.61392 32.09318,-3.39465 9.525,-8.905 -15.98144,-8.07671 -39.13676,-22.05698 -27.94829,-43.60636 14.89548,-9.25199 0.88893,-15.91595 -4.40856,-21.96042 -2.88989,-16.97655 -20.93992,-36.53003 -13.51066,-57.06181 -2.94043,-11.38892 -4.15041,-13.82805 2.61603,-9.63193 2.78415,-8.82244 7.99689,-56.67397 -0.44288,-37.5526 -3.31287,-0.0348 3.64459,-17.47297 3.83035,-15.53206 8.32159,-29.82532 22.12901,-59.92121 30.69167,-88.80235 12.11562,-30.94186 21.21877,-64.87609 19.82123,-98.37054 -9.22732,-15.7328 -14.40841,-35.54799 -18.03598,-51.57156 1.2063,-5.336 1.57815,-17.73406 4.94183,-24.84442 3.19051,-7.48887 -0.10387,-13.9458 2.55257,-11.93426 7.73032,3.55911 4.30725,-15.3404 3.77306,-16.30302 -1.05493,2.89054 -3.48907,-13.06906 -1.08292,-4.76234 2.78574,-4.40292 0.96922,-25.34822 3.6615,-36.12554 1.09594,-9.81683 7.3175,-23.79527 9.07842,-31.06908 9.25533,-15.91005 15.07437,-36.14683 22.0139,-51.33873 19.03848,-12.30874 25.37293,-34.70114 34.76785,-53.09305 15.43528,-19.65913 21.56118,-48.335354 28.25575,-73.554169 -5.97805,-17.297525 -5.04621,-39.222152 13.20981,-48.932324 9.04646,-7.258859 40.75795,-23.7529307 16.56627,-32.185857 -14.28098,1.0583081 -13.69594,45.781331 -30.84163,26.614014 -5.61859,-16.138036 8.02249,-26.2191675 7.18989,-41.627778 3.61632,-18.629264 9.38203,-35.68238 23.47529,-49.708188 5.72533,-7.908717 19.03635,-24.195002 1.63399,-29.796918 -26.65898,9.000379 -33.71901,40.986586 -37.10495,65.645808 8.28927,17.299908 -10.21002,45.1948925 -18.69314,23.43718 9.29727,-13.60591 -9.90879,-31.121547 -16.39147,-9.225104 -16.93324,34.225718 16.26289,66.109374 8.73722,101.070833 -1.65937,19.53504 -10.45786,38.422113 -13.36635,57.844233 -10.71577,21.00485 -13.87164,45.64648 -30.29592,63.09254 -10.54606,18.47736 -22.68242,36.85492 -28.22222,57.61852 -0.75981,19.75964 -4.52562,37.80823 -5.06706,57.06047 -3.98708,14.94245 4.96233,44.15129 -22.44278,32.66767 -18.18091,-4.62926 -30.78673,-18.50475 -32.30252,-38.05252 -3.56057,-27.02024 -18.78071,-54.61867 -11.16319,-82.06423 6.67211,-21.40831 32.42235,-37.28893 24.24426,-62.24474 6.23137,-37.61545 23.20112,-74.786646 38.96954,-109.558034 12.65895,-21.245002 22.22544,-45.656161 26.66068,-70.555555 6.66579,-27.387641 9.10204,-54.837986 17.95074,-81.555343 -3.75151,-29.798598 11.99071,-55.322388 13.6945,-84.250208 -4.25348,-25.11664 6.2865,-49.80445 -0.43486,-74.5949 -5.01259,-31.25749 -5.93188,-63.7159 -1.7326,-95.79677 -2.50054,-22.31206 -13.59706,-40.76448 -22.44482,-58.91389 -10.41835,-16.31582 -26.59659,-29.9457 -47.80139,-26.62657 -28.00156,-0.19943 -49.38613,22.2253 -76.89779,28.55751 -20.37569,4.75235 -40.41078,13.30596 -52.75577,28.40795 -20.77505,12.48108 -32.66206,34.33807 -52.66083,48.68945 -18.966,19.95609 -40.86954,37.67231 -49.61354,65.11347 -12.55876,21.71783 17.43614,33.85721 24.28431,51.90994 7.7949,7.43808 17.56752,13.43449 26.62865,17.48057 -16.69989,-1.2633 -17.6969,9.47554 -12.67623,23.58654 2.40311,5.83809 -3.11164,13.7086 -0.91404,12.45539 -2.51305,7.03358 -5.00177,4.7479 0.0981,5.90292 -9.41731,11.896 -5.65074,16.42548 -21.38939,24.37183 6.11151,15.71382 -19.99734,-11.89762 -17.91184,15.6906 -6.96804,24.826142 -11.2943,49.695461 -22.906386,72.76042 -7.926072,19.61272 -4.996132,41.51134631 -12.885067,61.240423 -3.931108,27.821851 3.175637,61.876777 -12.975237,86.516917 -16.149673,14.12501 -7.080984,14.1556 7.231944,7.26648 31.561996,-8.53327 66.332576,-8.01201 96.808396,2.66367 18.11271,7.01978 37.49373,2.55652 55.60035,3.88491 15.13122,-8.47275 9.52469,-43.980617 32.1909,-38.149881 12.65714,17.930641 -9.03358,31.755791 -10.10189,48.845751 -2.37246,13.25062 -6.97177,26.90422 -18.06835,37.30696 -16.40352,20.87081 -43.81672,32.12876 -70.32558,25.06065 -13.73808,-2.45372 -39.90467,-14.00062 -58.81695,-7.88763 -15.021765,2.15947 -12.589735,18.1085 -13.892139,24.95903 16.373969,22.21407 29.959419,46.10303 43.707829,69.84199 12.40052,19.27237 35.6747,-3.4493 44.15134,-15.62964 20.46701,-17.82171 39.61123,-40.96632 69.20797,-42.50224 10.89672,4.45701 14.25199,34.78491 8.74226,47.66832 -8.7118,19.24569 -19.42886,38.83983 -39.60746,48.35003 -29.49961,19.00954 -57.92773,40.30907 -80.44106,67.42571 -18.29753,16.76882 -34.12036,35.74479 -48.748983,55.51399 -16.908945,42.88623 -36.106972,82.69878 -50.494883,126.55109 -4.244193,38.17188 -8.258201,79.70175 17.069197,110.24065 10.962683,11.4524 20.872741,25.94937 37.839614,27.88918 4.621842,1.76043 23.482435,10.6867 8.594765,11.22723 C 94.005001,707.34322 73.11943,707.805 65.130277,692.64368 50.34788,685.28463 52.438857,676.7144 42.231507,663.87586 24.600475,625.19882 29.909294,577.97778 44.663731,539.15191 c 6.485153,-15.65145 14.714465,-33.93746 18.830255,-48.68334 6.555673,-11.65732 14.7966,-30.55782 16.855616,-43.59479 3.457764,-9.97455 -8.285485,-21.57255 -9.222069,-29.20686 -8.794607,0.7687 -12.758757,-8.09825 -4.586111,-1.43725 0.767224,-7.72316 -41.074562,-28.31348 -26.921995,-18.65503 7.339622,5.06069 27.264158,18.52729 8.401156,8.75645 C 40.393841,399.11942 27.942484,395.166 24.74547,386.58884 7.2152709,382.31429 -5.4811764,365.07974 -21.163975,356.47122 -37.94612,343.5587 -60.167972,332.39628 -76.342159,322.37003 c -8.165144,-3.00801 -26.643781,-9.85243 -39.855311,-9.10214 -20.86927,1.4735 -35.85054,25.73265 -22.07655,43.4981 8.25945,16.6235 8.14599,41.32118 -8.22237,51.70815 -15.03134,2.21315 -31.73725,6.93394 -46.39683,-3.24792 -13.7299,-8.93924 -26.94958,21.27652 -43.71009,15.34302 -11.02695,2.79593 -22.42605,-20.47889 -21.81201,-15.33077 7.42701,8.72462 -4.94286,-11.48841 4.81087,-16.11757 0.77918,-15.15872 59.4237,-39.14226 26.38707,-36.35146 -13.36029,2.91127 -20.28888,2.60407 -33.26623,-0.59193 -25.23622,0.92107 -27.53659,-35.31755 -3.83443,-40.59979 15.64399,-10.25853 43.75431,4.74817 52.10326,-4.19678 -0.22403,6.16215 34.8835,17.72201 12.00384,-1.3267 -16.39447,-20.51993 -1.75044,-58.02627 24.74671,-57.704 24.82249,-4.72773 21.41107,35.14378 38.19101,30.75972 26.35923,-20.10429 57.55594,-0.42643 85.044316,2.95109 0.464391,9.03012 18.225425,12.27102 23.730761,21.27197 13.59107,6.98592 25.1159461,27.13705 39.112543,26.25584 0.690723,8.21762 14.517808,14.49943 22.139905,21.97354 19.272822,16.8125 44.620173,19.38125 67.559655,27.42849 12.13463,1.98028 19.62226,17.05826 2.21068,7.90821 -16.959697,-9.63976 1.20209,6.87323 -2.822323,3.90268 16.010653,0.49118 8.455843,12.85994 1.194863,4.48794 -7.680436,-4.39019 -9.574349,-5.70701 -18.595768,-11.11985 -22.610854,-8.66176 -42.82447,-22.2611 -63.985034,-33.07604 -20.3493822,-19.52067 -46.926955,-39.71816 -70.920748,-58.00445 -16.112511,-9.68032 -37.49216,-14.32069 -53.98643,-13.75833 27.727041,-1.96839 -16.35969,-6.53278 -14.10252,2.02156 -12.33974,-0.96099 -30.24933,22.02205 -31.21959,-1.16742 -0.19989,-22.84035 -33.52364,-35.58206 -44.4797,-12.02213 -10.49236,19.35931 1.40862,41.50684 18.94948,52.76746 -10.37936,9.48271 -33.71461,-6.39725 -21.30094,15.4914 4.42572,10.55649 34.41418,4.618 4.90051,15.40512 -1.67709,6.63404 -19.4852,3.83692 -27.20926,15.28124 -11.87952,9.54547 -45.92417,32.88427 -20.80784,44.60325 18.41985,5.74046 34.50458,-10.96628 47.47199,-21.45094 -0.75625,-15.40641 6.99446,-7.24117 1.12167,-22.38217 7.09742,-1.42485 9.09329,27.10137 15.98338,2.12344 8.93558,-25.71638 16.96198,-5.05124 6.20553,11.83482 -5.43313,17.52049 16.58761,26.73699 18.75921,11.44693 4.00125,-8.57094 7.25099,-6.35556 2.58419,1.40561 -8.33945,8.91317 -3.75524,15.30633 5.88726,0.81831 13.69549,-18.83944 -6.60528,-39.5025 -6.21448,-57.56064 -0.61783,-11.8249 2.28498,-22.03875 16.98036,-25.64571 21.83201,-10.08125 48.145427,-1.62725 68.849772,7.95035 22.354006,16.64159 47.812491,29.5982 69.1918577,48.77315 17.8176173,11.41285 38.2944103,18.73241 55.0549943,32.72013 14.806414,5.43308 22.289411,25.28951 27.541325,33.81898 5.37877,-10.31141 18.586251,-28.7034 17.127431,-26.03518 31.07577,-23.47119 54.68488,-59.83519 89.2695,-80.94222 29.1408,-14.5527 54.37807,-39.71573 62.83329,-70.48986 3.06789,-21.84078 -16.36515,-36.75544 -31.49512,-21.02635 -18.99096,8.28025 -31.73268,26.72448 -46.56667,40.83737 -11.90898,12.20004 -32.71107,23.60447 -46.34227,7.95178 -2.03148,-1.69986 -6.47347,-14.1241 -10.84618,-20.32511 -8.48334,-17.44398 -20.43097,-33.39267 -31.897282,-48.07628 -2.782195,-10.84006 -9.305397,-25.26781 -19.757887,-27.01417 -13.670597,-10.64894 3.383017,-24.71184 3.803968,-32.39653 -3.14662,-6.97856 -30.865313,-6.35737 -15.483769,-28.78924 -2.641742,-8.16653 1.083613,-21.41168 10.868271,-28.4352 15.135773,-19.85879 5.038909,-49.616044 10.68701,-72.669466 3.494158,-22.7606163 7.740658,-45.036271 11.827087,-68.174305 16.875742,-32.067074 20.048642,-69.343269 33.125422,-102.570139 -0.53596,-12.27117 13.74761,-19.28024 12.38811,-35.36816 -1.547,-12.44405 -5.98779,-24.99539 -13.64534,-36.99249 15.9627,-7.95297 -12.79646,-7.40047 -9.63679,-23.33688 -5.04683,-17.35141 8.34124,-33.31215 14.81547,-49.10011 19.55344,-29.93358 50.7831,-48.55639 72.31729,-76.45936 24.01596,-18.48372 44.7422,-45.46042 77.50108,-48.84345 26.57407,-8.08595 50.59539,-28.25064 80.8603,-29.11279 20.34078,-0.42053 42.82573,12.04537 48.82618,29.76403 16.56259,27.73886 29.56415,61.23824 18.76662,93.40216 2.27945,28.87666 3.81464,56.51906 8.6622,84.83664 -2.27056,24.32467 -3.45828,47.18913 -4.642,71.65432 -13.41635,31.66453 -8.00428,70.630627 -21.41934,102.674596 -5.25165,42.986071 -16.33816,86.705477 -38.60427,124.5755 -14.0711,35.991284 -35.1292,70.946664 -34.32858,111.110324 2.15998,27.72949 -34.96862,43.93674 -25.75074,72.85196 3.94364,26.28687 10.35281,52.15067 18.56275,77.32106 7.61282,8.80282 31.58696,25.17601 38.60239,10.93492 -4.06139,-15.60844 -0.15784,-23.40099 1.0416,-37.91171 -0.0667,-12.76259 3.24631,-28.14737 1.66729,-40.8921 1.43781,-13.40717 15.1256,-29.79916 19.48073,-44.94473 12.32769,-17.02598 28.37799,-35.62381 31.89058,-58.69446 10.43445,-21.52705 14.46084,-44.54709 20.78007,-67.537433 6.25685,-26.520968 -6.8919,-56.313715 -14.00242,-77.8844742 4.24391,-11.2268293 -1.07411,-24.2804588 8.07152,-34.6473998 0.0882,-19.48569 28.67314,-16.147391 27.52521,-2.084494 -2.14116,27.93633331 10.74716,11.732093 6.38324,-5.247392 2.34879,-21.185864 5.33839,-44.854943 20.63762,-60.866688 7.09502,-14.350749 33.90027,-19.984159 35.4754,0.71689 -1.24421,24.280259 -31.02596,36.76954 -30.71601,62.086949 -2.10173,16.906753 -11.11329,31.9699111 -10.01578,48.793894 13.76703,-3.736403 8.99051,-40.936545 30.30883,-30.117027 24.06342,8.459617 2.67193,30.721339 -12.52879,37.785569 -12.76997,6.875521 -23.90518,20.989891 -18.05932,36.465722 5.23872,19.387294 -4.68068,35.036304 -9.99423,53.123784 -6.99452,24.07321 -24.94024,42.72968 -31.28004,67.16229 -22.88874,18.86604 -29.44323,47.41444 -42.26637,72.94365 -12.72568,27.27282 -9.16228,59.05546 -11.57172,88.42199 -11.52388,14.42093 -13.31821,38.9398 -4.56783,53.02056 2.12301,15.47048 18.34984,35.56177 11.31267,55.42661 -5.4556,36.98155 -17.54063,72.72563 -31.59751,106.49596 -4.96755,25.97202 -22.00886,47.78008 -18.51395,75.64144 3.84261,17.80062 -11.37337,41.06386 -2.69156,54.46402 5.37564,4.73592 0.25984,8.78667 3.51036,14.04698 -3.2316,3.1763 -3.74166,-8.24983 -6.95258,-13.47769 -6.21072,6.35886 5.43135,18.94449 5.68808,21.81098 3.1453,9.85009 12.73731,23.37175 24.99332,27.41193 5.12662,13.53026 -8.789,12.12782 -15.0154,23.44984 -7.00436,26.82896 26.97976,23.57865 39.87055,37.39635 27.82019,16.56749 -27.04285,16.86614 -20.87721,17.21299 -23.45924,3.43212 -48.42745,4.08531 -68.7518,17.3593 l -4.82346,0.13578 -1.30196,-0.3665 z m 27.38293,-16.35277 c -0.90133,-1.26558 -0.90133,1.26558 0,0 z m 54.50417,-20.80147 c -3.01354,-4.11426 -2.21214,2.33512 0,0 z m -263.4124,-9.44961 c -8.57558,-9.16067 -1.24426,4.06156 0,0 z m 131.73075,1.81571 c -1.39698,-0.74139 -0.3296,0.79491 0,0 z m -1.22738,-2.84272 c -1.9427,-0.57259 -0.35258,0.61745 0,0 z m -135.20208,-3.29413 c -2.10757,-2.84364 -2.95804,1.68524 0,0 z m 138.41645,-5.82083 c -0.83731,-1.85103 -0.3053,1.86339 0,0 z M 112.7525,776.2427 c -0.82326,-1.21171 -1.0161,0.67225 0,0 z m 140.55309,-0.76412 c 1.1895,-2.44581 -4.19112,1.56909 0,0 z m -0.25863,-2.38869 c 1.67858,-2.69392 -2.56008,0.41058 0,0 z m 3.63887,-3.3944 c -1.35618,-1.26476 -0.9042,1.30664 0,0 z m 1.24316,-1.08493 c -0.14742,-2.24814 -2.20977,1.133 0,0 z m 19.21795,-5.42484 c -2.60178,-11.14862 -9.24729,2.21443 0,0 z m -2.82222,-13.24578 c -0.87005,-1.2567 -0.42665,1.28982 0,0 z m -159.80833,-4.74169 c -0.82332,-1.21172 -1.01605,0.67228 0,0 z m 248.16308,-1.34666 c -3.43705,-2.64241 -1.03549,1.58665 0,0 z m -0.94777,-2.80042 c -15.3995,-20.64559 -17.65982,-2.58646 0,0 z m -12.97087,-11.92512 c -0.42664,-1.28981 -0.87004,1.2567 0,0 z M 88.76361,703.92325 c -0.823309,-1.21172 -1.01605,0.67228 0,0 z m 250.39147,-80.56464 c -0.59594,-0.95175 -1.91031,1.65795 0,0 z m -578.4748,-202.73673 c -0.47401,-1.77624 -1.18693,0.84504 0,0 z m 62.32599,-11.4174 c 10.77255,2.15825 -0.22487,-34.578 -6.17192,-20.86178 -14.11698,8.85223 -7.99424,20.92813 6.17192,20.86178 z m 283.20478,-10.95961 c 0.3964,-1.36187 -1.3678,0.22168 0,0 z M 32.495554,393.2816 c -0.426675,-1.28979 -0.870021,1.2567 0,0 z m 64.558334,-1.41111 c -1.265857,-1.34305 -0.438113,1.39076 0,0 z M 30.027627,389.7563 c -1.620759,-1.57211 -1.40658,2.01882 0,0 z m -2.141044,0.0346 c 0.106144,-1.39664 -2.098289,0.52617 0,0 z m 61.248431,-6.82795 c -4.249015,-7.0829 -12.730433,-1.55108 0,0 z m -11.501543,-4.45237 c -5.885901,-2.32226 -0.339307,1.3666 0,0 z M -245.14056,348.00653 c 15.37121,0.14812 61.85229,1.40402 36.63067,-19.13149 -8.83518,-6.48652 -26.25296,-5.81997 -32.84867,-10.85012 12.42279,2.50506 24.47884,4.2184 36.29279,9.79713 -4.66986,-17.91181 -34.33684,-12.81036 -48.54139,-13.21031 -7.34766,5.26296 20.21084,2.9492 -3.27484,5.50427 -29.11408,-2.44335 -17.00513,34.75689 8.03734,28.12345 l 3.70416,-0.23336 z m -10.75972,-27.04437 c 0.87006,-1.2567 0.42664,1.28982 0,0 z m 4.11574,-0.2352 c -0.16935,-1.7063 1.96817,0.82185 0,0 z m 13.69954,-2.9398 c 0.87006,-1.2567 0.42664,1.28982 0,0 z m 255.763888,21.87222 c -0.426652,-1.28981 -0.870041,1.2567 0,0 z M -225.20861,321.66772 c -0.90131,-1.26557 -0.90136,1.26556 0,0 z m 103.99349,-42.64354 c -2.90871,-1.09954 -0.0744,2.23848 0,0 z m 2.19262,-0.35817 c -1.74583,-3.16117 -3.41272,2.41925 0,0 z M 91.180067,188.80473 c 20.771513,-23.46457 53.649113,-5.42221 79.251603,-2.94638 18.9606,6.41198 39.28497,-0.0899 51.06458,-13.31525 -12.04214,-0.0408 -31.53179,-1.37412 -47.3604,-2.10368 -1.81165,4.83538 -7.15126,-2.73474 -12.85577,0.23776 -8.82024,-4.63789 -27.95542,-1.54294 -41.31557,-4.92228 -15.27113,5.84967 -30.867713,-9.92499 -44.187607,3.42196 1.062033,6.24132 15.691913,7.29216 -3.711213,8.76052 0.828706,6.48509 12.292922,15.68082 19.114377,10.86735 z m -1.321329,-9.62904 c -1.166418,-3.20198 3.197341,1.25438 0,0 z m 2.612602,-1.09428 c 1.089868,-1.03909 0.276116,1.25931 0,0 z m 101.42005,-0.84681 c -0.79397,-4.69044 3.62704,0.94778 0,0 z m 12.43541,-0.7922 c 1.20882,-3.37925 7.83881,1.49871 0,0 z m 6.79098,-0.11913 c 0.90132,-1.26559 0.90132,1.26559 0,0 z m -30.86806,-0.37359 c -6.482,-2.23358 2.01955,-2.27902 0,0 z m 7.76397,-0.25869 c -1.99034,-2.97377 4.81977,1.03147 0,0 z m -12.79105,-1.44674 c -1.78102,-3.83551 4.55512,1.6932 0,0 z m 5.20347,-0.0376 c 1.26586,-1.34304 0.43812,1.39076 0,0 z m 26.64495,0.0138 c -1.4854,-1.18091 1.81599,-0.0136 0,0 z m -33.52412,-1.42487 c 0.90136,-1.26556 0.90131,1.26557 0,0 z m -22.04861,-3.88055 c 0.42667,-1.28981 0.87004,1.2567 0,0 z m -40.86648,-1.64934 c -1.34401,-1.12333 3.28818,-1.18212 0,0 z m -22.781508,-1.57752 c -1.756391,-2.36704 3.030603,0.96707 0,0 z m 82.257018,4.40432 c -1.94267,-0.57262 -0.35257,0.61748 0,0 z m -63.33832,-5.14621 c -2.87352,-2.84253 -3.21628,1.68474 0,0 z m 99.05707,0.052 c 15.29505,-3.52218 37.81327,-2.21127 35.84342,-23.15447 -24.01923,3.20791 -52.27923,1.03364 -74.00526,0.73488 -5.13355,-1.27337 -22.56351,-5.16878 -32.30312,-9.79544 -20.65627,-8.28427 -47.140278,0.42063 -55.609986,20.44632 -6.888477,10.01701 39.580786,0.48906 54.990226,7.85241 23.89983,-1.31345 47.20912,5.00271 71.08472,3.9163 z m -20.6375,-20.36089 c 1.53745,-2.13683 0.8728,0.45047 0,0 z m -0.80109,-0.27718 c -1.17425,-1.7956 1.57631,-0.50526 0,0 z m -11.52415,-0.64234 c -0.60553,-2.12956 2.0256,0.86909 0,0 z m -102.153124,3.10424 c 18.252582,-10.96308 35.111794,-33.27073 59.732684,-22.28109 34.05975,12.37082 70.83169,14.99671 106.49201,9.46111 10.47246,-11.39415 27.75193,-30.39135 20.1,-45.679638 -12.96838,11.177277 -9.36417,39.708238 -31.10903,40.728368 -20.87487,-6.15846 -44.88114,0.22578 -65.36447,-10.19452 -28.6618,-4.40036 -61.41911,-9.13228 -87.196162,8.38361 -11.468233,-6.12968 -24.071527,27.2121 -2.655032,19.58216 z M 430.78167,11.39966 c -1.03863,-3.9717097 -1.03863,3.97171 0,0 z M 130.62429,-135.1104 c 25.34887,-1.08687 25.64681,-36.59568 21.55451,-53.19324 1.25399,-5.83746 -4.54675,-10.95236 -6.6579,-16.52478 -9.51668,-13.33511 -16.22479,1.46918 -0.6656,5.61975 5.70755,11.80692 -10.975,-4.86483 -3.02822,8.2255 10.51017,10.78993 16.11302,32.87644 -4.8423,36.41708 2.48271,5.61119 -16.99812,18.97207 -6.36049,19.45569 z m 2.9421,-9.24133 c 0.90132,-1.26557 0.90132,1.26557 0,0 z m 12.51708,-4.94944 c -0.73359,-2.28569 4.71161,0.86232 0,0 z m -7.55036,-3.723 c 0.50925,-0.93959 0.1572,1.52104 0,0 z m 7.53787,-35.80829 c -0.60246,-1.76022 1.30592,-0.0264 0,0 z m 1.67415,-6.64922 c 1.73061,-2.15941 -0.37063,2.31931 0,0 z m -6.0857,32.65138 c 9.78201,-13.19129 -3.1291,-12.44557 -2.4486,0.33394 l 0.944,0.79375 z m 1.43196,-5.15754 c 0.90132,-1.26557 0.90132,1.26557 0,0 z m 18.20481,-2.37391 c -1.53919,0.83197 1.01537,1.01662 0,0 z m -8.93769,-24.66859 c -2.35112,-0.64348 -0.42408,0.64136 0,0 z m -11.58699,-4.7395 c -2.19963,-1.96469 -2.82534,1.22791 0,0 z m -7.62106,-16.92021 c -2.58716,-5.43664 -3.57049,7.06391 0,0 z m 5.7917,-1.67746 c -4.67282,-16.99665 -25.88392,-21.02749 -13.07194,-10.52039 3.73212,2.67487 5.50648,12.11843 13.07194,10.52039 z m -14.87294,-13.67888 c 0.50925,-0.93959 0.1572,1.52104 0,0 z m 1.37799,7.60423 c -1.00945,-1.99165 -1.07938,1.37098 0,0 z m 2.82751,-0.30177 c -0.27433,-2.64325 -2.37082,1.38597 0,0 z m -6.35,-13.60226 c -0.62686,-2.39431 -1.09062,1.90706 0,0 z m -2.3277,-0.9941 c -0.56785,-10.6094 -2.41837,1.51093 0,0 z m 306.42215,-43.80868 c -0.82329,-1.2117 -1.01607,0.67225 0,0 z m -187.42054,-109.0659 c -1.39698,-0.74126 -0.32961,0.79501 0,0 z m 8.20942,-4.37297 c -1.35615,-1.26479 -0.90423,1.30666 0,0 z m 166.51112,-1.9611 c -0.40792,-1.24127 -0.94211,1.15607 0,0 z m -8.81945,-11.40671 c -0.11019,-1.5084 -1.87107,0.633 0,0 z m -100.15227,-9.66724 c -1.82208,0.26172 0.85682,1.23754 0,0 z m 8.94828,-3.75836 c 0.19536,-1.53795 -3.21368,-0.22249 0,0 z m 12.00538,-7.42603 c -0.42663,-1.28981 -0.87007,1.25667 0,0 z m 2.99861,0 c -0.87003,-1.2567 -0.42667,1.2898 0,0 z m -3.88055,1260.63057 c 1.09576,-1.27939 0.66943,1.77637 0,0 z m -1.18551,-1.10592 c 1.19873,-2.41614 2.87432,-0.49079 0,0 z m -52.24234,-10.94804 c -6.12561,-0.34645 1.40689,-4.95524 0,0 z m -5.32133,-2.23163 c 0.47247,-6.30995 5.8107,-2.25817 0,0 z m -1.05244,-1.04878 c -6.94189,-1.31596 -13.85863,-20.39444 -5.42936,-9.01273 0.64573,3.15185 9.45227,5.1843 5.42936,9.01273 z m -4.92376,-6.27253 c -1.47102,-0.36382 -0.051,1.2437 0,0 z m 1.22538,-2.55838 c -1.88562,-1.49346 1.3819,0.39605 0,0 z m -6.54089,-0.7082 c -0.76085,-1.2502 0.99378,0.0106 0,0 z m 4.77036,-0.33341 c 0.46544,-1.58226 1.60632,1.26193 0,0 z m -5.28503,-3.87646 c -0.22215,-1.08091 1.77764,0.7149 0,0 z m -1.41111,-1.23472 c 0.87462,-1.85878 0.87466,1.85876 0,0 z m 2.90273,0.11578 c -0.37379,-2.21281 3.10422,0.81689 0,0 z M 69.360832,797.91772 c 0.901303,-1.26557 0.901354,1.26556 0,0 z m 185.913888,-1.42219 c 1.3773,-1.15024 1.41391,0.6262 0,0 z m -5.48351,-1.07224 c -0.81323,-1.51583 2.03411,-0.26832 0,0 z M 21.383054,786.62883 c 0.904207,-1.30664 1.356188,1.26476 0,0 z m 1.763889,-2.82223 c -4.294682,-2.49041 2.646671,0.46719 0,0 z m -13.140972,-1.29783 c -2.7584157,-1.17086 4.900935,0.0446 0,0 z m -3.5571641,-0.70125 c -1.5758713,-2.37671 4.8566941,1.12204 0,0 z M 15.73861,780.6316 c 0.901354,-1.26556 0.901303,1.26557 0,0 z m 0.75692,-3.07064 c -12.4027622,-4.59327 3.937469,-7.12793 1.034803,0.16008 l -1.034803,-0.16023 z m 274.52821,-4.53778 c -0.69922,-2.27667 1.63136,0.0722 0,0 z M -11.323009,761.44589 c 2.5134702,-1.79869 1.6866549,1.43076 0,0 z m 2.1717709,-0.24779 c -0.6525668,-1.80116 1.5616958,0.0227 0,0 z M 258.09694,759.87434 c 3.30962,-4.05019 2.06323,1.8504 0,0 z m -2.13356,-0.76218 c -7.59793,-5.70164 4.25392,-0.4309 0,0 z m -267.882548,-1.27 c -0.514694,-2.49765 1.270521,1.66914 0,0 z m 262.096498,-0.11218 c -2.02517,-4.71847 5.85719,-1.61678 0,0 z m -261.187495,-0.57672 c 1.988433,-1.2725 0.219454,1.78182 0,0 z m 0.995997,-1.02729 c 3.0090162,-3.39736 1.3386416,0.5914 0,0 z m 256.308118,-0.16443 c -0.39639,-1.36187 1.36777,0.22168 0,0 z m 0.59175,-1.08543 c -6.86963,-6.58582 4.23549,2.48252 0,0 z m -10.22336,-2.10915 c -5.23769,-6.63918 5.80131,-0.63592 0,0 z m 2.90135,0.1252 c -0.54241,-1.12222 0.33762,-2.91652 0,0 z m -6.33758,-1.18833 c 0.9042,-1.30664 1.35618,1.26476 0,0 z m 1.46992,0.11758 c -0.47477,-2.11131 2.11131,0.47477 0,0 z m 30.63286,-0.82314 c 0.42664,-1.28981 0.87004,1.2567 0,0 z m -32.63195,-0.52917 c 0.83881,-1.90489 1.23655,1.86707 0,0 z M -0.93828917,750.4316 c -0.61833773,-2.72401 3.20927567,-0.0768 0,0 z M 228.84422,748.61702 c 2.16953,-1.57222 3.1505,1.95469 0,0 z m -5.67228,-0.77294 c 0.66945,-1.77637 1.09576,1.27942 0,0 z m 2.36725,-0.37359 c 2.36257,-1.63121 1.82245,2.63642 0,0 z m 2.21886,0.35278 c 0.90133,-1.26558 0.90133,1.26558 0,0 z m -6.35,-0.35278 c 0.90136,-1.26556 0.90131,1.26557 0,0 z m -8.99583,-4.23329 c 0.42667,-1.28981 0.87004,1.2567 0,0 z m -1.41111,-0.35278 c 0.43814,-1.39078 1.26585,1.34308 0,0 z M 5.5080544,742.17883 c 0.9042068,-1.30664 1.3561873,1.26476 0,0 z M 208.57971,741.29889 c 1.25622,-1.47391 -0.15496,1.74796 0,0 z m 3.5329,0.009 c -0.52311,-1.81214 1.2962,0.21362 0,0 z m -6.38288,-0.27588 c 0.4082,-8.7648 1.12565,2.48515 0,0 z m -2.21605,-0.73332 c 2.67813,-1.67297 0.71765,1.02647 0,0 z M 9.5649989,739.00383 c 0.4266331,-1.2898 0.8700561,1.25667 0,0 z M 202.00528,738.82744 c 0.87463,-1.85879 0.87467,1.85877 0,0 z M 13.269166,734.97627 c 0.167573,-1.69959 2.178372,0.88572 0,0 z m 58.561111,-12.8511 c 1.020869,-2.28688 2.110054,-0.98039 0,0 z m -1.411111,-0.76023 c -1.303147,-1.60592 2.128757,0.76435 0,0 z m -0.352778,-2.64584 c 0.874671,-1.85876 0.874629,1.85878 0,0 z m 1.879176,-0.99927 c 2.886498,-6.01443 -0.797811,4.60997 0,0 z m 29.874386,0.12689 c -2.681295,-2.70068 4.42997,-0.79981 0,0 z m -5.037983,-0.22271 c 0.114923,-3.87022 2.475197,-1.46142 0,0 z m 2.432156,-0.68245 c -0.974156,-3.14862 1.284787,1.80265 0,0 z m -9.480374,-0.58899 c 0.471526,-1.262 1.418229,1.55678 0,0 z m 4.674305,-0.80847 c 0.837334,-1.851 0.30527,1.86341 0,0 z m -9.086215,-0.76355 c -0.224187,-2.22087 2.350566,0.67212 0,0 z m -2.673032,-0.35359 c -0.961813,-3.46298 1.43469,-0.4315 0,0 z m -30.261348,-1.25423 c -0.168115,-1.27875 2.744307,0.99399 0,0 z m 2.509484,0.49513 c 1.537448,-2.13683 0.8728,0.45048 0,0 z m 12.347223,-0.0265 c 2.261948,-2 0.91465,1.12151 0,0 z m -8.819445,-0.56692 c 0.874673,-1.85876 0.874631,1.85878 0,0 z m 3.086806,-0.76281 c 1.942684,-0.57259 0.352573,0.61745 0,0 z m 18.079861,-0.47173 c -6.029297,-4.20338 6.198568,-0.64445 0,0 z m -3.175,-2.05786 c -6.669732,-2.04393 0.798873,-2.45907 0,0 z M 347.7025,706.52746 c 1.01606,-0.67227 0.82327,1.21169 0,0 z m -94.29782,-7.16824 c -25.9322,-0.33229 -49.87542,-5.78928 -75.95295,-10.71474 -4.81849,-2.36109 -11.43456,-2.38902 -19.54283,-4.67271 -11.98103,-2.65112 -16.4374,-5.80071 -24.74528,-7.77703 -12.9042,-3.56009 -28.22826,-5.20594 -40.396975,-10.73224 -7.694748,-16.13741 -20.270013,-29.7386 -19.530518,-48.8781 -7.923145,-27.44527 -11.814932,-56.91498 1.813638,-83.4215 8.92449,-15.06246 14.450183,-32.39878 25.179095,-45.87152 19.26014,-30.69683 42.91049,-60.81807 68.64755,-85.8962 17.23321,-20.74011 45.05045,-39.50919 61.52748,-60.325 13.93937,-7.08045 19.12537,-36.19116 38.23215,-23.50682 29.50184,7.26292 46.22363,41.62917 31.23773,69.0826 0.5979,11.07052 -9.31769,24.23929 -12.02913,37.40817 -6.27464,27.03145 -2.56694,55.53801 -5.90116,84.09496 2.39702,28.06629 6.45749,53.27584 10.58824,80.37897 0.64617,23.96889 2.74954,7.96515 -2.71725,15.92318 -4.67659,24.74211 10.60148,49.29158 -3.81515,71.86901 -4.99315,8.13954 -13.42804,12.92239 -19.70119,19.84062 -4.60091,0.35416 -8.19793,4.269 -12.89345,3.19835 z m 0.62026,-5.53533 c -1.71718,-0.32363 0.44921,1.33387 0,0 z m -1.2766,-1.09788 c 18.48495,0.52488 33.20779,-21.0012 33.4984,-37.9695 -14.89361,8.27082 -34.5323,-0.41112 -50.27898,2.79218 -18.3756,2.21666 -38.64934,0.98589 -54.63519,-0.52965 -8.07264,0.0694 -30.09316,-4.59774 -39.81322,-5.93134 -17.32689,2.65934 -40.83967,-14.47888 -45.959008,-18.83456 -7.982578,-1.00224 -9.663115,-13.31103 -15.939805,-14.58764 -1.720527,23.21352 16.324197,45.43199 39.976993,48.91405 18.19312,2.63725 32.08837,9.6526 50.82813,13.15756 20.59463,8.26976 44.90351,10.44069 65.61938,11.51955 6.37119,-2.48071 11.75383,2.4821 16.7033,1.46935 z m -66.44167,-33.09718 c 0.42662,-1.2898 0.87005,1.25667 0,0 z m 46.74305,-1.07915 c 1.01605,-0.67228 0.82332,1.21172 0,0 z m -42.88539,-0.25026 c 4.23743,-1.17931 0.94301,0.82008 0,0 z m 53.11595,-0.80807 c 1.01607,-0.67229 0.82327,1.21171 0,0 z m -75.84723,-1.3903 c 0.87004,-1.2567 0.42666,1.28981 0,0 z m -80.672794,-17.4497 c 2.669025,-0.99929 0.359811,1.35575 0,0 z m 11.410773,-3.24661 c -1.086574,-1.59761 1.552141,0.30166 0,0 z m 45.273141,42.56853 c -1.84957,-1.29991 -1.84957,1.29991 0,0 z m -12.91806,-2.86769 c -5.88258,-4.40612 -1.42105,2.07284 0,0 z m -16.81081,-4.75379 c -1.397,-0.74139 -0.32957,0.79492 0,0 z m 101.90328,-17.29486 c 17.3212,-3.59698 32.52596,-2.29069 50.35967,-1.45985 14.19802,2.85571 29.15051,-0.6588 17.78538,-22.23047 6.16989,-48.4458 -11.02309,-95.96498 -6.71304,-144.45064 2.91881,-25.94372 -2.18927,-54.02733 10.86354,-78.49556 9.96716,-17.91257 -13.8513,-12.05126 -23.46737,-19.66503 -15.21282,-6.19581 -24.67215,-14.80704 -35.29457,-26.89931 -2.37255,-14.07712 19.38489,12.31693 29.19836,16.95711 11.18801,3.85029 38.18018,21.59173 38.81635,-0.50889 5.26352,-11.37825 -3.15445,-16.5513 -9.4359,-27.21211 -6.39057,-20.04226 9.9862,16.64864 10.92121,5.41087 -3.04308,-15.47424 -16.55397,-27.10453 -30.92097,-30.62605 8.45626,8.80895 -11.7864,-12.10414 -16.69828,2.79192 -6.77171,12.19648 -22.32723,21.83581 -27.94903,31.75261 -7.17414,6.01303 -21.84138,20.79674 -33.1089,29.28406 -18.31835,18.10726 -36.4338,36.69295 -52.52791,56.87296 8.6834,6.63045 15.17188,24.16046 28.36411,30.26879 21.1381,17.46995 46.63368,21.23849 72.17759,26.20808 10.2542,4.93192 28.36549,-7.40896 32.52032,2.92715 -27.9647,11.00709 -60.80837,-3.50981 -88.87287,-12.08621 -6.59957,-0.0982 -10.44682,-4.15374 -17.25196,-10.23909 -13.58191,-7.43616 -18.93674,-21.05641 -31.05584,-32.04791 -14.1175,18.20547 -27.70434,37.62109 -39.272989,57.79671 4.14422,9.81105 16.010859,15.48016 23.829259,23.169 19.89839,5.30553 29.97825,24.80425 49.87752,28.86574 21.64621,13.07505 48.61398,15.97343 73.44844,15.10924 7.47448,-1.60652 42.93703,-3.78428 22.53449,4.47434 -16.46725,0.82395 -31.02677,4.46017 -43.04248,0.52495 -7.70977,1.6456 -22.5619,-1.20561 -28.43781,-3.8267 -16.15239,-4.45737 -29.90735,-10.63153 -43.73665,-18.75106 -16.93618,-16.09917 -38.83777,-24.03886 -55.690099,-39.65752 -5.577461,-4.18678 -13.703818,16.035 -10.071558,17.41172 6.742895,13.64643 12.39145,25.60044 24.165267,35.19323 13.5629,14.38355 28.51092,27.35053 42.81632,40.97179 11.12147,6.84204 18.66818,12.45714 30.2575,12.93208 15.35,3.66186 30.14699,1.99605 47.39979,4.54846 18.21199,3.13257 38.37215,-12.09006 54.37936,0.21117 -10.86865,4.1707 -30.79436,1.53425 -45.31713,5.23935 -26.06798,-1.58714 -53.00557,0.5268 -76.76169,-9.6392 -8.71701,-9.0841 -21.7002,-8.08354 -25.25745,-20.04907 -19.89615,-20.30514 -42.570592,-34.84634 -53.556032,-61.82494 -7.305971,-3.92851 -8.225736,19.49147 -9.063141,27.69715 1.997022,12.89845 0.67427,29.72736 5.820834,37.76959 8.631699,3.04604 12.899715,15.75064 22.499249,19.87106 18.71677,19.60074 47.33686,17.22817 71.81871,22.8769 14.08744,-2.04607 28.87266,3.84203 43.6504,2.53358 z m -83.99053,-46.6954 c -1.06865,-1.79489 1.97411,0.44277 0,0 z m -2.11861,-2.47159 c 0.42667,-1.28981 0.87004,1.2567 0,0 z m -3.47207,-1.92232 c 0.28749,-1.15315 1.25547,1.17258 0,0 z m -1.99598,-1.95824 c 0.90132,-1.26557 0.90132,1.26557 0,0 z m -3.175,-3.01942 c 1.09574,-1.27941 0.66943,1.77636 0,0 z m -3.35139,-2.27224 c -1.94045,-1.26093 3.23263,0.0822 0,0 z m -8.63283,-9.51121 c -1.37984,-1.33724 1.94838,-0.0252 0,0 z m 101.87641,-4.48811 c 1.54644,-0.5053 0.15284,0.67926 0,0 z m -106.11997,-0.81735 c 0.90133,-1.26558 0.90133,1.26558 0,0 z m 94.74563,-1.01822 c 0.17789,-1.41454 2.82776,0.71972 0,0 z m -5.96321,-0.98087 c -1.08658,-1.5976 1.55214,0.30166 0,0 z M 72.05549,574.43299 c 0.3053,-1.86339 0.837309,1.85103 0,0 z m 113.00936,-0.008 c -1.52431,-2.08137 2.80007,1.28207 0,0 z M 99.156055,572.8221 c 0.730613,-0.86912 0.842407,1.48565 0,0 z m 110.705235,-0.22101 c 2.32513,-0.52208 0.45146,0.58506 0,0 z M 105.34417,519.90801 c 1.01607,-0.67225 0.82328,1.21171 0,0 z m 88.19444,-19.20557 c 0.39498,-2.97581 1.89053,3.12655 0,0 z m -93.48611,-3.35139 c 0.90132,-1.26557 0.90132,1.26557 0,0 z m 84.31389,-1.05833 c 0.90129,-1.26556 0.90134,1.26555 0,0 z m -1.76389,-0.88195 c 0.87464,-1.85878 0.87464,1.85878 0,0 z m -72.99717,-10.9655 c 0.50925,-0.93956 0.15719,1.52103 0,0 z m 159.32062,-23.30224 c -17.80774,-2.8477 -36.55085,-15.65877 -50.51319,-19.04903 -14.15669,-10.72408 -34.20558,-19.88396 -44.63366,-35.56545 11.75211,-4.6704 18.41735,18.4135 31.87566,19.56156 19.10885,11.77396 39.94467,22.8457 61.79912,28.20877 6.97868,-3.45638 11.89592,9.49229 1.47207,6.84415 z m -130.42067,-0.48087 c 1.35615,-1.26479 0.90423,1.30666 0,0 z m -3.11242,-2.31292 c 1.82693,-1.47165 0.45875,1.27234 0,0 z m -2.51457,-3.39404 c -2.82095,-2.56 6.29581,1.9403 0,0 z M 263.565,386.9316 c 0.87007,-1.25667 0.42663,1.28981 0,0 z m -24.51806,-14.11111 c 0.90427,-1.30663 1.35614,1.26478 0,0 z m 58.20834,-1.07914 c 1.01607,-0.67229 0.82327,1.21171 0,0 z m -62.74527,-2.21298 c -0.61155,-3.6751 4.45382,2.36641 0,0 z m -8.16977,-5.35901 c -0.002,-1.1442 1.64652,1.26744 0,0 z m -2.63913,-1.9322 c 1.35615,-1.26479 0.90423,1.30666 0,0 z m 67.91681,-14.27896 c -0.66079,-1.79629 1.66005,1.61764 0,0 z m -5.29875,-4.16349 c 1.82171,-2.2696 1.94696,0.70009 0,0 z m -3.175,-2.00444 c -7.86579,-6.9398 -3.1846,-11.30855 0,0 z m 1.94027,-1.77811 c -0.91837,-1.99361 3.36868,0.89218 0,0 z m -1.05833,-1.41111 c 0.42665,-1.28982 0.87005,1.2567 0,0 z m -8.42892,-5.49691 c -0.0588,-2.99845 3.08406,2.15755 0,0 z m -1.40003,-2.08781 c -8.76604,-6.03502 5.28626,-2.45819 0,0 z M 79.414999,615.88438 c -0.426652,-1.28981 -0.870041,1.2567 0,0 z M 159.31917,477.59549 c -0.42668,-1.28979 -0.87002,1.2567 0,0 z M 298.79554,362.56157 c -4.48255,2.34117 -1.48023,1.06972 0,0 z m -7.71387,-11.6133 c -1.35616,-1.26478 -0.90424,1.30665 0,0 z m -2.29306,-4.40972 c -0.52734,-1.92853 -1.57143,1.70164 0,0 z m 58.20833,348.36805 c 0.90427,-1.30663 1.35614,1.26478 0,0 z M 73.594166,686.4501 c 1.90577,-2.91766 1.199639,1.06544 0,0 z m -0.705556,-1.42127 c 0.901303,-1.26557 0.901354,1.26556 0,0 z m 60.67069,-7.24049 c 0.9996,-1.20456 1.67969,2.21194 0,0 z m 199.79463,-12.09103 c -1.10539,-1.52766 2.78037,-1.18515 0,0 z M 51.778635,664.04793 c -2.51983,-6.91538 6.489784,3.17309 0,0 z m 280.025865,1.22534 c 0.89354,-10.1888 6.01886,-4.21556 0,0 z m 1.78689,-3.175 c -0.42667,-1.28981 -0.87004,1.2567 0,0 z m -1.23472,-3.52778 c 0.87005,-1.25667 0.42662,1.2898 0,0 z m 0.35277,-1.76389 c 0.87006,-1.25667 0.42664,1.28979 0,0 z m 1.5875,-0.29397 c -4.05552,-1.65761 1.18093,-5.80235 0,0 z m -2.98354,-1.44554 c 0.97449,-1.92857 0.85319,1.50007 0,0 z m 0.89471,-1.28848 c 0.50925,-0.93959 0.1572,1.52104 0,0 z m -0.49812,-1.81561 c 0.3457,-14.64934 5.57593,-3.64305 0,0 z m 3.69147,-0.85803 c -1.23224,-2.7566 2.31615,2.03591 0,0 z m -1.28447,-7.00412 c -1.68078,-8.97031 4.40037,-7.63995 0,0 z m -41.22977,-2.04353 c 1.95454,-3.69861 3.08587,-1.33957 0,0 z m 0.84307,-2.8896 c -0.67161,-7.9927 0.55376,-11.98718 2.25198,-4.23315 -0.82898,1.41025 -2.21501,3.27352 -2.25198,4.23315 z m 1.05554,-0.70556 c 0.87004,-1.2567 0.42667,1.28981 0,0 z m 41.275,0.15321 c 0.51257,-2.79985 2.92294,0.39426 0,0 z m 0.44097,-2.32248 c -1.52827,-4.3724 2.11658,-0.0628 0,0 z m -1.66475,-1.3408 c -0.11636,-1.93924 2.15038,0.42376 0,0 z m -376.601218,-1.09686 c 1.016098,-0.67225 0.823248,1.21171 0,0 z m 335.581518,-5.57639 c -3.16647,-23.822 0.0271,-21.73102 1.95446,-2.64202 -0.13679,0.11162 -1.82284,4.49859 -1.95446,2.64202 z M 43.078888,595.07049 c 0.426675,-1.28979 0.870021,1.2567 0,0 z m 249.970892,-7.26133 c 0.50925,-0.93959 0.15719,1.52105 0,0 z M 44.31361,586.93579 c 1.01607,-0.67225 0.823285,1.2117 0,0 z m 248.70833,-2.09585 c 0.90133,-1.26558 0.90133,1.26558 0,0 z M 51.20784,564.75598 c -0.396405,-1.36187 1.367785,0.22168 0,0 z m -1.316708,-12.19489 c 0.106661,-3.53427 1.012753,4.28677 0,0 z m 1.125256,-2.09617 c 0.669433,-1.77636 1.095758,1.27938 0,0 z m 0.352778,-1.96109 c 0.870021,-1.2567 0.426675,1.28979 0,0 z m 236.036164,-1.26411 c 0.50925,-0.93959 0.1572,1.52104 0,0 z M 69.032855,473.82395 c -0.02292,-2.86641 1.072982,0.67627 0,0 z m 5.13401,-14.41027 c 1.848253,-8.74674 2.373652,1.91546 0,0 z M -153.24195,423.26772 c 2.2431,-1.14604 2.03129,1.40697 0,0 z M 57.612556,413.16571 c 1.076591,-6.11375 3.562379,1.34271 0,0 z m 49.395234,-8.235 c 0.42559,-2.40275 1.37857,1.64592 0,0 z m -365.19863,-0.70894 c 0.53071,-0.75473 0.90716,1.37242 0,0 z m 647.33718,-0.36516 c -1.93957,-5.56222 3.90185,0.54496 0,0 z M 93.426344,402.72642 c -12.359941,-2.20629 -12.062124,-6.60112 0.24504,-0.8678 1.079592,0.0469 0.835593,3.2613 -0.24504,0.8678 z m 304.576446,-0.14669 c -1.11385,-2.0048 2.37525,1.03732 0,0 z m -289.13085,0.024 c 2.60652,-4.71813 1.87764,0.8711 0,0 z m -22.048608,-1.561 c 0.870023,-1.2567 0.426675,1.28979 0,0 z m -7.9375,-2.82223 c -0.874689,-1.38946 2.585296,1.4792 0,0 z m 3.175,0.004 c -13.266792,-6.07027 -3.872982,-4.52926 0,0 z m 30.890738,-0.81312 c 0.76051,-1.57486 0.38423,0.88803 0,0 z m -268.13379,-0.60223 c 1.37695,-1.28876 1.37695,1.28876 0,0 z m 270.53991,-0.26998 c -2.53406,-3.72822 2.40015,0.68203 0,0 z m 0.56981,-0.78835 c 1.35615,-1.26479 0.90423,1.30666 0,0 z m -3.52778,-0.70556 c 0.87005,-1.25666 0.42665,1.2898 0,0 z m -39.310027,-0.3128 c 0.0051,-2.42247 2.612462,1.30835 0,0 z m 44.801507,-0.004 c -1.61172,-1.24883 4.72415,0.28031 0,0 z m -6.96874,-0.62981 c 1.54646,-0.5053 0.15284,0.67926 0,0 z m 4.87747,-0.28818 c 1.23653,-1.86707 0.83882,1.90487 0,0 z M 69.049718,393.6638 c 0.819961,-2.63644 3.117741,-0.97987 0,0 z m 44.503232,0.0789 c 2.3253,-0.52205 0.45125,0.5848 0,0 z m 3.96205,-0.81389 c 0.87003,-1.2567 0.42667,1.2898 0,0 z m -52.076492,-2.36044 c -2.072021,-4.29028 -1.082049,-2.08418 0,0 z m 54.722322,-0.74715 c 2.3738,-6.93687 1.22403,3.84715 0,0 z m -59.766586,-1.0784 c -0.829521,-1.75294 1.28992,0.50714 0,0 z m -207.286194,-2.31959 c 0.66946,-1.77637 1.09575,1.27941 0,0 z m 201.965282,-0.54998 c 0.901328,-1.26558 0.901328,1.26558 0,0 z m -201.520492,-0.90001 c -3.07297,1.14523 0.68023,-4.99689 0,0 z m -3.26701,-0.15832 c 0.90133,-1.26558 0.90133,1.26558 0,0 z m 204.258336,-0.0219 c -4.340036,-0.74804 8.320465,-1.25946 0,0 z m 4.748,0 c 0.513443,-1.96675 2.147838,1.3843 0,0 z m -1.286369,-0.21753 c 1.546463,-0.50532 0.152826,0.67929 0,0 z m 67.446703,-0.0756 c 2.88414,-1.76781 0.78133,1.51211 0,0 z M 48.026561,382.0069 c 0.332657,-2.02098 1.141474,0.63624 0,0 z m 80.600939,-0.36696 c 0.90132,-1.26557 0.90132,1.26557 0,0 z m 2.59701,-0.52917 c -0.87246,-3.50399 1.61752,-4.39233 0,0 z m -279.34119,-0.86579 c -0.39686,-17.38953 6.32742,1.44363 0,0 z m 192.47982,-1.04387 c -0.952237,-2.5582 5.716197,-1.30938 0,0 z m 6.476859,-0.0306 c 1.312548,-1.32472 1.928092,1.29149 0,0 z m -3.351389,-0.29397 c 1.309111,-1.06264 0.883058,1.09507 0,0 z m -0.352778,-1.09936 c -1.12685,-2.62403 1.889493,0.56918 0,0 z m 319.192738,-0.82024 c -0.98509,-3.89772 2.80909,0.60676 0,0 z M 39.021943,375.79829 c 1.09576,-1.27938 0.669435,1.77636 0,0 z m -187.148613,-0.86113 c 0.42667,-1.28981 0.87004,1.2567 0,0 z m 192.249392,-0.0233 c -0.760887,-1.25018 0.993739,0.0105 0,0 z m -272.506332,-1.03505 c 0.87002,-1.2567 0.42665,1.28979 0,0 z m 364.97277,0.0829 c 0.6917,-5.61461 4.00634,2.08625 0,0 z M 36.238562,373.39647 c -0.904996,-2.50553 3.646527,1.01241 0,0 z m 4.194492,-0.15938 c -62.968561,-81.16169 -7.08898,-7.60902 0,-1e-5 z m -189.212184,-0.83026 c -1.72995,-4.55906 3.08117,1.43844 0,0 z m 1.53441,-0.75393 c -0.0963,-1.96471 2.40298,0.54505 0,0 z m 181.392439,0.0328 c -1.028083,-2.94273 1.65197,1.51743 0,0 z m 105.298311,-0.8643 c -0.56524,-2.10622 2.47688,0.54223 0,0 z m -289.41377,-0.92559 c -2.95037,-6.56751 5.48432,-2.92465 0,0 z m 291.50938,-0.1028 c 10.23984,-8.69367 0.0981,-0.32001 0,0 z M 35.297386,369.13347 c 1.455561,-4.31191 1.979155,2.68207 0,0 z m 322.282894,-1.60464 c 1.09978,-2.17584 1.09978,2.17584 0,0 z m -325.671078,0.17801 c -0.586577,-2.81283 4.274723,-1.3101 0,0 z m -1.883092,-0.53079 c 1.265845,-1.34309 0.438133,1.39077 0,0 z m -182.03333,-1.05833 c 0.42662,-1.2898 0.87005,1.25667 0,0 z m 179.818909,-1.03844 c -5.91536,-12.71289 -2.262433,-2.70476 0,0 z m -241.378639,0.40001 c -0.005,-1.4167 2.4079,0.30194 0,0 z m 62.26528,-0.0671 c 0.42667,-1.28981 0.87004,1.2567 0,0 z m -1.01399,-1.36832 c -1.54424,-4.40665 -22.44051,-20.50509 -9.44597,-12.90867 4.79694,3.15281 12.83518,12.47716 9.44597,12.90867 z m -5.5124,-8.50946 c -0.87004,-1.2567 -0.42664,1.28981 0,0 z m 8.11389,8.81945 c 0.90131,-1.26557 0.90136,1.26556 0,0 z m 500.65633,-3.60423 c -1.89759,-1.61667 1.13259,-0.8772 0,0 z M 21.758763,358.63597 c -2.850596,-4.18829 5.757756,-3.70534 0,0 z m 132.974287,-0.98492 c 0.87004,-1.2567 0.42666,1.28981 0,0 z m -397.75694,-0.70556 c 0.43813,-1.39077 1.26586,1.3431 0,0 z m 42.15694,0.21414 c 2.61293,-1.27104 0.63602,0.81823 0,0 z m 546.49797,-0.88431 c -1.66493,-1.3397 1.50873,-0.45946 0,0 z m -585.50156,-0.76486 c 0.56458,-3.4119 3.68544,1.71226 0,0 z m 396.19109,0.3767 c 1.92812,-1.2915 1.31254,1.32475 0,0 z m -399.16805,-0.66393 c 0.58212,-1.64699 1.22432,0.60817 0,0 z m 261.627901,-2.20694 c 1.287494,-5.56007 1.601802,3.3878 0,0 z M 340.85258,349.5845 c -0.82956,-1.75291 1.28982,0.50713 0,0 z m 38.59992,-5.69178 c 0.87003,-1.2567 0.42667,1.2898 0,0 z m -17.86417,-2.46945 c -0.17312,-3.7159 1.74589,0.21622 0,0 z m 17.51139,-2.28064 c 1.7951,-3.29988 0.7416,1.93264 0,0 z m 2.82222,-1.5791 c 0.0412,-1.52636 1.07599,0.32088 0,0 z m 0.95614,-3.19581 c -3.87684,-2.97933 2.71491,0.31167 0,0 z m -19.65336,-1.19698 c 2.5408,-3.64642 1.77708,1.9678 0,0 z m -516.81944,-0.4995 c 2.36951,-4.18661 0.92628,1.14641 0,0 z m 536.27404,-2.44866 c -3.50991,-13.12901 5.75818,-0.16194 0,0 z m -19.4546,-0.44098 c 0.90136,-1.26556 0.90131,1.26557 0,0 z m 17.87021,-0.19233 c 0.93024,-1.37099 0.40908,1.21682 0,0 z m -533.63132,-0.18126 c 1.01607,-0.67225 0.82329,1.2117 0,0 z M 7.6247211,326.25383 c -2.5549503,-1.65755 2.3967079,0.51925 0,0 z M 6.21361,324.48994 c 0.9013272,-1.26558 0.9013272,1.26558 0,0 z m 1.4993056,-1.13531 c -7.53646181,-3.05352 4.6779554,-1.20262 0,0 z m -2.7731509,-3.10914 c -6.2924865,-5.85844 4.5418511,-2.49091 0,0 z m -2.0775436,-5.28055 c 0.4266519,-1.28981 0.87004,1.2567 0,0 z m -1.040765,-1.73546 c -5.6437979,-8.92977 -1.71004245,-1.63709 0,0 z M 384.03861,312.29829 c 1.09576,-1.27938 0.66944,1.77636 0,0 z m -0.90653,-0.97444 c 0.48935,-2.3696 1.17857,1.01544 0,0 z m -686.61434,-1.06959 c 1.08135,-4.78417 2.25177,1.68227 0,0 z m 686.68697,-1.10814 c 1.25622,-1.47393 -0.15495,1.74794 0,0 z M -3.8893811,304.55799 c -25.9045579,-13.6632 11.3056614,1.64404 0,0 z M -213.62885,303.43792 c -1.70148,-4.23412 5.23839,-0.17746 0,0 z m 209.9646822,-0.8202 c 1.3769305,-1.28874 1.3769821,1.28873 0,0 z m -5.7891539,-2.99802 c -0.3381996,-6.11473 5.1841661,-0.59951 0,0 z M -158.71,299.44272 c 0.87003,-1.2567 0.42667,1.2898 0,0 z m -52.3875,-0.25714 c -2.24679,-5.22995 4.97458,-0.29026 0,0 z m 51.70085,-0.78606 c -0.3872,-1.26205 2.81603,0.11599 0,0 z m 147.85379,0.10244 c -3.171581,-1.59555 -1.369795,-5.4136 0,0 z m -147.8727,-2.9398 c 0.87004,-1.2567 0.42666,1.28981 0,0 z m 143.051392,-0.35278 c -13.931578,-3.80512 -12.623032,-11.91813 -2.298452,-3.53652 1.945811,1.53258 9.370058,4.02503 2.298452,3.53652 z m 4.321528,0.004 c -2.982714,-3.76853 3.2490333,1.62487 0,0 z m -196.85,0.11526 c -0.99905,-4.29173 4.36495,1.50311 0,0 z m 47.17694,-0.30406 c -0.56334,-1.94688 5.38926,-0.10043 0,0 z m -45.00987,-1.74516 c 1.25419,-1.30627 0.0642,1.70635 0,0 z m 43.34126,-0.57316 c -5.26688,-7.89413 -17.54567,-14.04591 -3.46336,-7.02166 1.95899,1.07901 6.69592,5.30996 3.46336,7.02166 z m 28.83959,-3.42685 c -0.005,-1.4167 2.40792,0.30195 0,0 z M 166.7275,288.5066 c 2.25472,-0.82972 -0.25748,1.16604 0,0 z m -299.68472,-0.35277 c 1.35613,-1.26478 0.90425,1.30663 0,0 z m 100.718052,0.051 c -24.545292,-2.62503 -20.454254,-9.66703 0.432506,-2.44064 1.973661,-0.23615 0.846018,3.7668 -0.432506,2.44064 z m 203.267628,-1.84132 c 1.19133,-1.37363 1.19133,1.37363 0,0 z m -300.55344,-0.74524 c 2.08529,-1.3618 0.2979,1.44693 0,0 z m -58.28919,-1.34497 c 0.87006,-1.2567 0.42664,1.28982 0,0 z m 315.41981,-0.67391 c -1.76412,-3.32678 4.30721,1.53045 0,0 z m -327.06147,-0.17865 c 0.91233,-2.10389 0.68888,1.69432 0,0 z m 156.986107,-0.22659 c 1.016097,-0.67225 0.823247,1.21171 0,0 z M -178.76952,282.6858 c 0.30528,-1.86342 0.83734,1.85103 0,0 z m -9.7502,-0.1972 c 1.01605,-0.67229 0.8233,1.21173 0,0 z m 7.05555,-0.15558 c 3.03817,-3.86426 9.84017,0.35228 1.4111,0.10584 h -0.42333 l -0.98778,-0.10584 z m 3.88056,-0.52916 c 0.90129,-1.26556 0.90134,1.26555 0,0 z m 63.85278,-1.76389 c 0.90132,-1.26559 0.90132,1.26559 0,0 z m 4.10499,-0.52716 c 1.06401,-1.5035 0.28315,1.81814 0,0 z m 7.53667,0.1633 c 1.37731,-1.15024 1.41393,0.62621 0,0 z m 224.36667,-0.49727 c 0.66943,-1.77636 1.09575,1.27938 0,0 z m 2.35186,0.27315 c 3.81799,-0.0598 1.94135,-0.154 0,0 z m -1.33762,-2.05786 c -4.08223,-3.35298 1.6928,-2.82711 0,0 z m -4.01285,-1.5875 c 0.90134,-1.26555 0.90129,1.26556 0,0 z m -0.42235,-2.74873 c -0.54689,-2.45361 1.37523,-0.54747 0,0 z m 250.62999,-0.30159 c 0.68259,-2.19632 1.48847,0.12814 0,0 z m -252.27548,-1.3594 c -0.45231,-4.80202 5.23049,2.18065 0,0 z m -4.58612,-0.70555 c 0.30529,-1.8634 0.83733,1.851 0,0 z m 0.1977,-1.78178 c -3.48208,-4.32988 3.73947,0.74415 0,0 z m 2.28173,-0.3937 c -0.47477,-2.11129 2.11131,0.47477 0,0 z m 254.33094,-0.32484 c -1.33668,-5.19262 2.6412,1.61755 0,0 z m 21.30609,-0.45667 c 0.58212,-1.64699 1.22432,0.60817 0,0 z m -89.60556,-1.29716 c 1.09576,-1.27938 0.66944,1.77636 0,0 z M 112.61019,264.9256 c -0.3401,-1.66942 1.5067,0.70497 0,0 z m -1.17352,-2.89998 c 0.59095,-2.24354 0.9439,2.64874 0,0 z m -4.68139,-1.74124 c 1.64815,-2.27639 0.49166,2.50245 0,0 z m -0.45636,-4.94943 c -0.064,-3.05264 2.35016,1.94832 0,0 z m -6.746342,-3.82267 c -0.829522,-1.75294 1.289922,0.50714 0,0 z m 4.733252,-0.40012 c -0.95061,-2.35982 2.84932,2.11417 0,0 z m 105.65695,-1.41111 c 1.26584,-1.34308 0.43813,1.39077 0,0 z m 187.67777,-1.76389 c 0.87004,-1.2567 0.42666,1.28981 0,0 z m -184.67916,-0.50835 c 0.66943,-1.77636 1.09575,1.27938 0,0 z m 36.92419,-2.37222 c 0.99994,-3.1426 1.08008,2.63093 0,0 z m 147.79907,0.48249 c -0.76852,-1.59855 1.74862,-0.1174 0,0 z m -180.61749,-2.01164 c 0.30526,-1.86341 0.83733,1.851 0,0 z m 34.17418,-3.70992 c 1.08987,-1.03906 0.27611,1.2593 0,0 z m 125.9381,-1.40536 c 0.42666,-1.28981 0.87004,1.2567 0,0 z M 90.880277,234.17883 c 0.13824,-2.42522 1.739895,2.21886 0,0 z m 287.393203,-0.19435 c 1.74029,-1.30036 0.29014,1.15179 0,0 z m 2.14327,-3.72999 c 1.30885,-1.18085 0.2659,0.80305 0,0 z m 22.67726,-2.33747 c 0.78305,-3.82472 1.12898,2.37318 0,0 z m -20.26543,-1.81211 c -0.44495,-1.72572 2.53788,0.25533 0,0 z m 22.76316,-3.19416 c 3.13982,-2.67005 2.0917,0.82352 0,0 z m -19.23093,-2.7959 c 1.68723,-4.25557 1.9239,0.75531 0,0 z m 21.66669,-3.02493 c 1.41594,-4.94806 0.7999,4.04371 0,0 z m 4.91705,-8.54491 c -1.37674,-3.72241 3.35362,2.26961 0,0 z m 0.72739,-2.23563 c 0.87004,-1.2567 0.42666,1.28981 0,0 z m 4.95011,-8.70239 c 2.4721,-4.83411 3.76488,-0.0593 0,0 z m -345.281884,-0.064 c -3.553741,-4.26931 4.486729,0.22895 0,0 z m -3.626556,-4.2618 c 1.941354,-3.82403 2.428168,2.46648 0,0 z m 91.89861,-1.08289 c 0.43813,-1.39078 1.26586,1.34309 0,0 z M 475.187,190.26886 c -1.04792,-2.34452 4.15929,1.2988 0,0 z m 40.7959,-2.56851 c 0.06,-3.58291 3.754,1.64577 0,0 z m -42.16235,-1.4993 c 0.42666,-1.28981 0.87004,1.2567 0,0 z m -42.68611,-2.11667 c 0.42666,-1.28981 0.87004,1.2567 0,0 z M 324.24278,183.7316 c 0.87005,-1.25667 0.42662,1.2898 0,0 z m 113.06527,-4.58611 c 0.90136,-1.26556 0.90131,1.26557 0,0 z m -3.1696,-0.99599 c 0.79243,-2.33425 1.283,1.56331 0,0 z m -26.81651,-2.0458 c 1.6572,-0.56021 1.39749,1.64549 0,0 z m 28.60284,-1.04454 c 0.50925,-0.93959 0.15719,1.52105 0,0 z m 0.67772,-0.52059 c 1.01604,-0.67228 0.8233,1.2117 0,0 z m -110.06667,-1.13228 c -2.64448,-1.18402 1.7781,-0.46032 0,0 z m 171.57573,-11.27612 c -2.26702,-4.88997 4.8174,1.27178 0,0 z M 244.515,159.74272 c 0.87003,-1.2567 0.42667,1.2898 0,0 z m 201.43611,0 c 0.42663,-1.28981 0.87007,1.25667 0,0 z m -30.86806,-1.41112 c 0.90136,-1.26556 0.90131,1.26557 0,0 z m 8.6722,-14.06398 c 2.3653,-4.67801 1.33335,1.73663 0,0 z M 254.04,141.19027 c -1.52736,-2.10668 3.32387,0.3562 0,0 z m 171.85082,-0.67193 c 1.25622,-1.4739 -0.15495,1.74793 0,0 z m -169.67535,-2.17749 c -0.0601,-1.87116 2.81442,0.8344 0,0 z m 309.22147,-10.41869 c -1.90841,-5.33432 4.32248,0.0451 0,0 z m -133.42055,-6.94337 c 0.5821,-1.64701 1.22433,0.60817 0,0 z m -164.74722,-3.59022 c 1.01607,-0.67229 0.82327,1.21171 0,0 z m -2.46945,-0.33197 c 0.90136,-1.26556 0.90131,1.26557 0,0 z M 69.233268,90.77466 c 0.305284,-1.863407 0.837321,1.851021 0,0 z m 4.537286,-16.756944 c 1.732685,-1.333354 2.469985,1.306478 0,0 z m 1.058334,-10.936112 c 0.87004,-1.256689 0.42665,1.289804 0,0 z M 166.46292,-0.673595 c -11.08007,-11.127726 -11.1814,-19.379535 -12.71133,-33.72968 -17.48251,-18.361921 28.54226,-41.335215 17.03287,-15.987571 -13.17561,15.980399 5.62356,40.7807356 -4.32148,49.717254 z m -6.3196,-33.482174 c 2.12344,-11.742189 -4.2811,-1.462728 0,0 z m 2.70362,-15.114764 c 2.75084,-6.553691 -7.03442,1.626842 0,0 z m -45.89071,40.4570494 c 11.82436,-14.7866294 4.48144,-52.4093314 17.90586,-61.5892854 25.23903,-0.266164 4.34878,34.137113 -3.61798,42.766765 -3.23328,5.83717 -7.0753,18.6158781 -14.28788,18.8225204 z m 17.24936,-33.2184024 c 4.20589,-6.291748 8.89573,-23.913829 3.03251,-20.298941 -7.68558,-3.875835 -5.29792,22.800988 -3.03251,20.298941 z m 317.56635,33.5412293 c 0.58213,-1.6470133 1.22434,0.6081799 0,0 z m 4.58611,-6.0388503 c 0.90134,-1.265572 0.90133,1.265574 0,0 z m 1.23473,-1.411111 c 0.42664,-1.289806 0.87004,1.256693 0,0 z m -26.81111,-3.527778 c 0.60144,-2.89605 1.1798,1.711911 0,0 z m 3.35138,-6.173611 c -1.45077,-2.566742 1.61911,1.394362 0,0 z m 28.75139,-8.643055 c 0.87004,-1.256693 0.42666,1.289799 0,0 z m -1.20688,-2.67522 c 0.50924,-0.939584 0.15717,1.521049 0,0 z m 43.36383,-9.692816 c 1.01606,-0.672259 0.82327,1.21169 0,0 z M 359.5583,-65.887531 c -1.52677,-6.116395 4.62574,2.083315 0,0 z m -147.86553,-1.888913 c -13.55521,-15.138196 -2.28331,-39.602126 8.44345,-51.766466 5.8224,-5.64596 17.05918,-21.75695 17.49964,-12.49942 8.07812,-9.54715 10.24312,-33.10369 8.46667,-48.91649 3.00276,-29.13138 42.78052,-20.05797 62.9612,-20.41898 26.42406,-2.28671 50.81983,-12.05867 70.1469,-30.26273 18.66301,3.21531 -20.94601,24.109 -15.28027,19.79446 -15.64681,12.13297 -37.16186,13.18923 -55.52888,18.20425 12.38944,19.51417 -3.61419,42.65462 -12.95933,60.40624 -11.78645,11.37594 -16.76118,4.31118 -31.69546,15.52501 -16.40722,5.48456 -35.74626,16.46084 -48.38911,30.074826 -0.64058,4.073611 1.50282,16.875425 -3.66481,19.8593 z m 4.66499,-29.310718 c 20.59983,-22.506068 53.26469,-27.569398 77.00521,-44.993738 7.0529,-13.93903 21.87888,-35.50479 6.30464,-48.16112 -24.5985,-3.05291 -18.54604,6.02197 -13.17206,6.73192 -11.52048,-2.32256 -30.50592,-0.7664 -33.41176,16.85224 0.58262,17.1915 -2.51273,41.96684 -24.18789,47.64348 -3.23396,4.22229 -19.22238,18.73823 -12.53814,21.927218 z m 48.10463,-39.058528 c -11.69725,-3.32993 -6.37305,-24.21302 -5.97139,-32.90048 9.56209,-10.25357 27.7664,-10.0751 31.32102,4.37285 -2.60714,13.29974 -15.00954,21.88633 -25.34963,28.52763 z m 4.0415,-10.67548 c 12.90327,-4.70334 18.40335,-28.72829 -0.98767,-20.21008 -8.18514,0.79668 -4.31689,23.11807 0.98767,20.21008 z m -13.74327,10.25493 c 0.97449,-1.92857 0.85319,1.50007 0,0 z m 0.5141,-2.86741 c 1.01607,-0.67228 0.82329,1.2117 0,0 z m -3.175,-7.7403 c 0.90133,-1.26558 0.90133,1.26558 0,0 z m 46.79227,-30.2309 c -0.56122,-1.89891 2.2769,0.11583 0,0 z m -2.82473,-2.85461 c 1.28925,-1.04678 1.85236,1.02484 0,0 z m -0.42467,-1.56231 c 2.00841,-5.04718 2.05222,0.59868 0,0 z m -4.44871,-1.08363 c -1.6204,-4.58097 9.3808,2.14566 0,0 z m -6.35197,-4.02064 c 1.54646,-0.50532 0.15283,0.67929 0,0 z m -31.18827,2.84709 c 19.50789,-3.26478 27.6377,-19.80122 2.78154,-4.79679 -2.19952,0.37054 -3.7579,5.79711 -2.78154,4.79679 z m 20.54352,-9.83806 c 1.22919,-1.91317 0.2215,1.94348 0,0 z m 4.02297,-1.04044 c 4.99503,-2.88738 -5.73614,-0.4333 0,0 z m 82.53515,125.912699 c -10.13639,-20.857793 4.81622,-15.00127 0,0 z m -1.41111,-15.158367 c 1.35199,-1.898369 1.35199,1.898371 0,0 z m -0.71586,-2.83464 c -1.48791,-1.962209 3.11602,0.651539 0,0 z m 4.33758,-0.285291 c -13.19718,-4.398632 7.88309,-10.084274 -1.15227,-4.221801 -2.30306,-1.483805 6.68863,3.956858 1.15227,4.221801 z m -571.94672,-6.581458 c 1.84956,-1.299901 1.84955,1.299903 0,0 z m 50.44722,-7.750033 c 1.41393,-0.62621 1.37729,1.15025 0,0 z m 360.89166,-2.12774 c 0.90131,-1.26557 0.90136,1.26556 0,0 z m 82.90278,-19.4236 c 1.0161,-0.67225 0.82326,1.21171 0,0 z m 1.05834,-1.36652 c 2.26407,-3.17704 2.17294,2.08323 0,0 z m 4.58611,-2.62847 c 4.32293,-1.1824 0.88535,0.75356 0,0 z m -131.58611,-20.12866 c 1.23074,-2.8409 2.37194,1.89379 0,0 z m 160.3375,-3.01942 c 0.87004,-1.2567 0.42664,1.28981 0,0 z m -157.86806,-2.25143 c 0.42306,-2.28948 1.29748,1.28577 0,0 z m 1.05833,-3.39302 c 0.90136,-1.26556 0.90131,1.26557 0,0 z m 79.90417,-24.34166 c 0.90423,-1.30666 1.35615,1.26479 0,0 z m -301.773555,-3.38078 c 0.509214,-0.93959 0.15729,1.52101 0,0 z m 299.198275,-1.98144 c -0.44725,-3.92168 3.14935,1.89063 0,0 z m -9.77194,-16.86278 c 0.42664,-1.28981 0.87004,1.2567 0,0 z m -93.78008,-52.44631 c -1.16086,-2.17929 2.37179,0.45811 0,0 z m -1.29353,-4.50649 c 1.07997,-1.13683 0.12783,2.21629 0,0 z m -16.66875,-17.72648 c -2.01078,-1.87762 2.79056,0.23686 0,0 z m -2.89754,-1.99845 c -2.57226,-2.33839 3.95023,1.64652 0,0 z m -2.07074,-0.8158 c -4.14208,-2.69777 0.49108,-4.53638 0,0 z m 1.17592,-0.82314 c 0.39407,-1.14529 2.74696,0.99218 0,0 z m 116.99465,-109.5375 c 0.83733,-1.85103 0.30529,1.86342 0,0 z" /></g></svg>
