<?xml version="1.0" encoding="UTF-8" standalone="no"?>
<!-- Created with Inkscape (http://www.inkscape.org/) -->

<svg
   width="80.30291mm"
   height="322.71393mm"
   viewBox="0 0 80.30291 322.71393"
   version="1.1"
   id="svg5"
   xml:space="preserve"
   xmlns:inkscape="http://www.inkscape.org/namespaces/inkscape"
   xmlns:sodipodi="http://sodipodi.sourceforge.net/DTD/sodipodi-0.dtd"
   xmlns="http://www.w3.org/2000/svg"
   xmlns:svg="http://www.w3.org/2000/svg"><sodipodi:namedview
     id="namedview7"
     pagecolor="#ffffff"
     bordercolor="#666666"
     borderopacity="1.0"
     inkscape:showpageshadow="2"
     inkscape:pageopacity="0.0"
     inkscape:pagecheckerboard="0"
     inkscape:deskcolor="#d1d1d1"
     inkscape:document-units="mm"
     showgrid="false" /><defs
     id="defs2" /><g
     inkscape:label="Layer 1"
     inkscape:groupmode="layer"
     id="layer1"
     transform="translate(201.50205,-0.17169134)"><path
       id="path1859"
       style="fill:#000000;stroke-width:0.210896"
       d="m -144.4412,311.97281 c 0.0792,-0.20799 0.19712,-0.32503 0.26205,-0.26012 0.0649,0.0649 1.4e-4,0.23511 -0.14399,0.37818 -0.20829,0.20672 -0.23251,0.18251 -0.11806,-0.11806 z m -38.69627,-58.69021 c 0.0101,-0.24569 0.0601,-0.29565 0.12741,-0.12742 0.0609,0.15224 0.0534,0.33414 -0.0166,0.40422 -0.0701,0.0701 -0.11992,-0.0545 -0.11076,-0.2768 z m 7.01959,-173.912491 c -0.0656,-0.1062 -0.25897,-0.13952 -0.42963,-0.074 -0.17066,0.0655 -0.50468,0.0151 -0.74226,-0.11211 -0.33624,-0.17996 -0.39574,-0.17257 -0.26848,0.0334 0.20313,0.32867 -0.13907,0.13452 -1.16706,-0.66214 -0.40598,-0.31461 -0.95177,-0.63552 -1.21288,-0.71313 -0.2611,-0.0776 -0.57288,-0.32449 -0.69283,-0.54862 -0.11995,-0.22413 -0.3571,-0.40751 -0.52701,-0.40751 -0.16991,0 -0.30892,-0.0949 -0.30892,-0.21089 0,-0.116 -0.1207,-0.2109 -0.26822,-0.2109 -0.32758,0 -1.65627,-1.24474 -3.68316,-3.45047 -1.70566,-1.85616 -2.606,-3.52148 -2.75232,-5.09081 -0.0541,-0.57996 -0.20494,-1.18772 -0.33526,-1.35057 -0.13032,-0.16286 -0.25203,-1.11189 -0.27047,-2.10896 -0.0349,-1.88383 -0.10716,-2.67259 -0.38375,-4.18544 -0.11835,-0.64731 -0.0936,-0.8963 0.089,-0.8963 0.1627,0 0.13401,-0.11891 -0.0804,-0.33335 -0.18334,-0.18334 -0.28269,-0.41532 -0.22077,-0.51551 0.0619,-0.10019 0.16236,-0.92293 0.22319,-1.82833 0.0608,-0.9054 0.14129,-1.83598 0.17879,-2.06797 0.0375,-0.23198 0.0803,-0.59347 0.0951,-0.8033 0.0148,-0.20984 0.10971,-0.33035 0.2109,-0.26781 0.19891,0.12294 0.44264,-1.04387 0.44638,-2.13701 0.001,-0.37256 0.2295,-1.39276 0.50716,-2.26713 0.27767,-0.87437 0.42002,-1.58975 0.31635,-1.58975 -0.27848,0 -0.22736,-0.44774 0.12914,-1.13131 0.17328,-0.33224 0.31504,-0.97283 0.31504,-1.42355 0,-0.63351 0.0838,-0.82325 0.36908,-0.83612 0.20298,-0.009 0.26348,-0.0602 0.13445,-0.11336 -0.16312,-0.0672 -0.1099,-0.52813 0.17462,-1.51235 0.22509,-0.77859 0.46201,-1.70034 0.52649,-2.04832 0.0645,-0.34798 0.30323,-0.89709 0.53055,-1.22026 0.37395,-0.53159 0.51545,-0.9081 0.57176,-1.52138 0.0106,-0.11599 0.10244,-0.0797 0.20398,0.0806 0.14264,0.22521 0.2205,0.17726 0.34244,-0.21089 0.0868,-0.27631 0.47679,-1.00247 0.86664,-1.61368 0.38984,-0.61121 0.70881,-1.19645 0.70881,-1.30052 0,-0.10407 0.11863,-0.22915 0.26362,-0.27795 0.20552,-0.0692 0.19982,-0.16601 -0.0258,-0.43937 -0.22291,-0.27004 -0.22826,-0.35064 -0.0233,-0.35064 0.32951,0 0.7527,-0.52431 1.14901,-1.42354 0.16615,-0.37698 0.40708,-0.68542 0.53541,-0.68542 0.12833,0 0.4752,-0.52833 0.77083,-1.17407 0.3526,-0.77016 0.63509,-1.13662 0.82118,-1.06522 0.19189,0.0736 0.24143,-10e-4 0.15311,-0.23134 -0.087,-0.2266 -0.0481,-0.28928 0.1162,-0.18771 0.15309,0.0946 0.24926,0.008 0.25339,-0.22902 0.008,-0.47935 0.9258,-1.54144 1.33148,-1.54144 0.16715,0 0.36368,-0.15578 0.43674,-0.34618 0.11107,-0.28945 0.0802,-0.3025 -0.18834,-0.0796 -0.52804,0.43824 -0.3629,-0.0942 0.19046,-0.61402 0.31377,-0.29477 0.61962,-0.41825 0.79086,-0.31929 0.15358,0.0887 0.21257,0.0874 0.1311,-0.003 -0.0815,-0.0904 -0.006,-0.30644 0.16759,-0.48009 0.17364,-0.17364 0.28182,-0.41739 0.2404,-0.54167 -0.10188,-0.30564 0.65304,-1.03768 0.90776,-0.88025 0.11176,0.0691 0.2032,-0.0722 0.2032,-0.31388 0,-0.27907 0.19988,-0.51545 0.54765,-0.64767 0.30121,-0.11452 0.59908,-0.4049 0.66195,-0.6453 0.087,-0.33264 0.15692,-0.36982 0.2927,-0.15563 0.13806,0.21779 0.17914,0.20079 0.18164,-0.0752 0.002,-0.19614 0.11279,-0.42434 0.24671,-0.5071 0.14532,-0.0898 0.18645,-0.0582 0.10201,0.0784 -0.0778,0.1259 -0.045,0.28853 0.0729,0.36138 0.11789,0.0729 0.21434,0.0468 0.21434,-0.058 0,-0.1048 0.24444,-0.46629 0.54321,-0.80331 0.29876,-0.33703 0.68764,-0.82378 0.86416,-1.08168 0.17653,-0.2579 0.83366,-0.72852 1.4603,-1.04581 0.62664,-0.3173 1.13935,-0.65758 1.13935,-0.75619 0,-0.0986 0.0949,-0.12063 0.21089,-0.049 0.11599,0.0717 0.2109,-0.007 0.2109,-0.17588 0,-0.29245 0.56259,-0.66638 0.8963,-0.59573 0.087,0.0184 0.14694,-0.0377 0.1332,-0.12469 -0.0654,-0.4141 0.053,-0.5029 0.34614,-0.25962 0.26855,0.22287 0.29941,0.20982 0.18834,-0.0796 -0.0904,-0.23559 -0.0206,-0.34616 0.21851,-0.34616 0.22495,0 0.29438,0.0948 0.19298,0.26362 -0.13476,0.2243 0.39619,-0.10454 0.76617,-0.47452 0.23667,-0.23667 1.7471,-0.85394 1.84645,-0.75459 0.0589,0.0589 0.30813,-0.003 0.55386,-0.13726 0.24573,-0.13437 0.69537,-0.22009 0.99919,-0.19047 0.3232,0.0315 0.60006,-0.0703 0.66723,-0.24537 0.0719,-0.18747 0.47605,-0.31666 1.08204,-0.34591 0.53196,-0.0257 1.32309,-0.063 1.75807,-0.0829 0.43497,-0.0199 0.85025,-0.11761 0.92285,-0.21715 0.0726,-0.0995 1.49614,-0.19444 3.16344,-0.2109 2.52527,-0.0249 3.22511,0.039 4.19136,0.38268 0.63796,0.22692 1.2939,0.51163 1.45763,0.63269 0.16374,0.12106 0.44845,0.22368 0.63269,0.22805 0.18424,0.004 0.76204,0.21006 1.28401,0.45709 0.52197,0.24703 1.39378,0.60488 1.93738,0.79523 1.15711,0.40519 2.40027,1.43558 3.2511,2.69466 0.33288,0.49263 0.94091,1.32273 1.35117,1.8447 0.84104,1.07004 1.57106,2.31986 1.35503,2.31986 -0.0788,0 -0.0331,0.13267 0.1015,0.29482 0.13458,0.16216 0.28296,0.47059 0.32974,0.68542 0.0468,0.21481 0.18306,0.67529 0.30283,1.02326 0.26296,0.76396 0.86077,2.8293 0.94618,3.26889 0.0338,0.17399 0.17094,0.5835 0.30476,0.91003 0.13382,0.32654 0.2433,0.84103 0.2433,1.14332 0,0.3023 0.14314,0.70779 0.31807,0.9011 0.33994,0.37562 0.53992,1.66822 0.65227,4.216 0.0384,0.86995 0.0796,1.58172 0.0916,1.58172 0.012,0 0.059,0.61687 0.10444,1.37082 0.0454,0.75395 0.11526,1.6762 0.15516,2.04945 0.0429,0.40173 -0.0331,0.71915 -0.18632,0.77796 -0.14375,0.0552 -0.20914,0.28947 -0.14705,0.52692 0.0615,0.23517 0.008,0.88158 -0.11992,1.43644 -0.12746,0.55488 -0.25018,1.43593 -0.27273,1.95789 -0.0225,0.52197 -0.11511,1.00012 -0.20571,1.06256 -0.0906,0.0624 -0.31561,0.70243 -0.50001,1.42221 -0.46883,1.83004 -0.50779,2.06065 -0.64914,3.84211 -0.069,0.86994 -0.30602,2.14308 -0.52665,2.8292 -0.22063,0.68611 -0.40115,1.37416 -0.40115,1.52899 0,0.15483 -0.0866,0.28151 -0.19236,0.28151 -0.10579,0 -0.25649,0.37962 -0.33488,0.84359 -0.0784,0.46397 -0.21326,0.84358 -0.29973,0.84358 -0.0865,0 -0.17101,0.11863 -0.18788,0.26362 -0.10343,0.8889 -0.18187,1.16599 -0.68947,2.43522 -0.10656,0.26644 -0.19374,0.66978 -0.19374,0.89631 0,0.22653 -0.0864,0.41187 -0.19208,0.41187 -0.10565,0 -0.40916,0.45079 -0.67447,1.00175 -0.26532,0.55096 -0.60594,1.12716 -0.75695,1.28044 -0.151,0.15327 -0.27455,0.45699 -0.27455,0.67493 0,0.21794 -0.16608,0.49299 -0.36907,0.61121 -0.20482,0.1193 -0.25175,0.21782 -0.10545,0.22138 0.14499,0.004 0.26362,0.11146 0.26362,0.23987 0,0.1284 -0.14728,0.17694 -0.3273,0.10786 -0.2012,-0.0772 -0.27358,-0.0387 -0.18787,0.1 0.0767,0.12408 -0.70133,1.05523 -1.72893,2.06923 -1.0276,1.01399 -2.19013,2.19258 -2.58339,2.61908 -0.39327,0.42649 -0.79661,0.77545 -0.89631,0.77545 -0.0997,0 -0.18128,0.10775 -0.18128,0.23944 0,0.30531 -0.98924,1.23176 -1.14691,1.0741 -0.11079,-0.11079 -0.19939,0.28285 -0.14344,0.63724 0.0138,0.087 -0.12645,0.15817 -0.31154,0.15817 -0.39789,0 -1.46703,0.73035 -2.15852,1.47453 -0.27034,0.29095 -0.43082,0.41036 -0.35662,0.26537 0.0742,-0.14499 0.0344,-0.26362 -0.0884,-0.26362 -0.12284,0 -0.22335,0.0838 -0.22335,0.18629 0,0.10247 -0.16608,0.22973 -0.36906,0.28282 -0.20299,0.0531 -0.46397,0.12284 -0.57997,0.15501 -0.11599,0.0322 -0.39809,0.18962 -0.62689,0.34988 -0.22879,0.16025 -0.72703,0.29137 -1.1072,0.29137 -0.38016,0 -0.69121,0.10051 -0.69121,0.22334 0,0.12284 -0.0949,0.16469 -0.21089,0.093 -0.116,-0.0717 -0.2109,-0.0387 -0.2109,0.0733 0,0.11198 -0.17909,0.15676 -0.39799,0.0995 -0.21889,-0.0573 -0.46175,-5.9e-4 -0.53969,0.12519 -0.081,0.13103 0.0218,0.23828 0.23982,0.25029 0.26109,0.0144 0.21508,0.069 -0.14572,0.1729 -0.28998,0.0835 -0.58655,0.0639 -0.65905,-0.0435 -0.0772,-0.11446 -0.19102,-0.0996 -0.27474,0.0359 -0.22817,0.36918 -0.91765,-0.41465 -0.99863,-1.13527 -0.0974,-0.86666 0.45173,-1.37082 1.49305,-1.37082 0.45431,0 0.86039,-0.10314 0.90241,-0.22921 0.0837,-0.25103 2.15072,-1.03617 2.72793,-1.03617 0.59964,0 1.71895,-0.68961 2.56724,-1.58171 0.44119,-0.46397 0.73494,-0.66569 0.65278,-0.44827 -0.14249,0.37706 -0.12461,0.37907 0.38753,0.0435 0.29531,-0.1935 0.76078,-0.61829 1.03439,-0.94399 0.27361,-0.3257 0.71239,-0.70525 0.97506,-0.84343 0.53145,-0.27959 1.52592,-1.73451 1.52592,-2.23244 0,-0.17629 0.0849,-0.32053 0.18859,-0.32053 0.34413,0 1.49857,-1.21766 1.49857,-1.58063 0,-0.19631 0.18096,-0.40424 0.40213,-0.46208 0.42682,-0.11162 1.70683,-1.57544 1.70683,-1.95194 0,-0.1228 0.0885,-0.22327 0.19668,-0.22327 0.16076,0 0.45893,-0.5838 0.53856,-1.05447 0.01,-0.058 0.13974,-0.32514 0.28873,-0.59366 0.149,-0.26851 0.30948,-0.6886 0.35666,-0.93353 0.0472,-0.24493 0.19667,-0.51387 0.33223,-0.59765 0.15222,-0.0941 0.19645,-0.40242 0.11566,-0.80636 -0.0747,-0.37368 -0.0427,-0.65403 0.0748,-0.65403 0.1131,0 0.20563,-0.0833 0.20563,-0.18514 0,-0.10183 0.1598,-0.55262 0.35513,-1.00176 0.19533,-0.44913 0.33405,-0.93293 0.30828,-1.0751 -0.0258,-0.14218 0.10494,-0.55208 0.2905,-0.9109 0.18556,-0.35882 0.38088,-1.23898 0.43406,-1.95591 0.0532,-0.71693 0.28653,-1.85515 0.51856,-2.52937 0.23203,-0.67423 0.36689,-1.31482 0.2997,-1.42355 -0.0672,-0.10872 -0.034,-0.19768 0.0739,-0.19768 0.17723,0 0.53364,-1.93599 0.5712,-3.10279 0.008,-0.25662 0.0818,-0.53342 0.16354,-0.61511 0.0817,-0.0817 0.14853,-0.44905 0.14853,-0.81636 0,-0.36731 0.057,-0.7248 0.12658,-0.79442 0.12499,-0.12498 0.29357,-1.67226 0.33855,-3.10715 0.0127,-0.40598 -0.034,-2.25658 -0.10384,-4.11247 -0.12722,-3.38052 -0.48176,-5.40358 -1.10224,-6.28944 -0.17244,-0.24619 -0.31353,-0.65699 -0.31353,-0.91287 0,-0.25589 -0.14424,-0.60949 -0.32052,-0.78578 -0.17629,-0.17628 -0.30627,-0.5864 -0.28884,-0.91137 0.0367,-0.68441 -0.43134,-2.56747 -0.74184,-2.9847 -0.11662,-0.15669 -0.23018,-0.40855 -0.25236,-0.55968 -0.0222,-0.15113 -0.4534,-0.81519 -0.95827,-1.47569 -0.50487,-0.6605 -1.10793,-1.51195 -1.34014,-1.89211 -0.61371,-1.00474 -1.38656,-1.86714 -2.10855,-2.35287 -0.69918,-0.47039 -3.00882,-1.34334 -3.55416,-1.34334 -0.19108,0 -0.34741,-0.0949 -0.34741,-0.2109 0,-0.11599 -0.18421,-0.21089 -0.40935,-0.21089 -0.22514,0 -0.46211,-0.0854 -0.52659,-0.18971 -0.20183,-0.32657 -2.25037,-0.71653 -3.69275,-0.70294 -1.6645,0.0157 -3.76997,0.21209 -4.036,0.37651 -0.10612,0.0656 -0.19304,0.0424 -0.19317,-0.0514 -1.3e-4,-0.0938 -0.54582,-0.16156 -1.21265,-0.15049 -0.71223,0.0118 -1.19418,0.11003 -1.16822,0.23804 0.0243,0.11984 -0.31925,0.27601 -0.76347,0.34705 -0.44421,0.071 -0.92651,0.27235 -1.07177,0.44738 -0.15361,0.18509 -0.61145,0.31823 -1.09432,0.31823 -0.49976,0 -0.77832,0.0839 -0.69986,0.21089 0.0717,0.116 -0.0472,0.2109 -0.26413,0.2109 -0.21696,0 -0.5982,0.18981 -0.84721,0.42179 -0.24901,0.23199 -0.65036,0.42179 -0.89189,0.42179 -0.41355,0 -1.5301,0.6619 -2.00139,1.18644 -0.11731,0.13056 -0.37204,0.32037 -0.56605,0.42178 -0.99667,0.52098 -9.0321,8.83337 -9.0321,9.34342 0,0.12421 -0.0949,0.22583 -0.2109,0.22583 -0.37286,0 -1.00722,0.78137 -1.45359,1.79045 -0.27621,0.62442 -0.52311,0.92749 -0.67774,0.83193 -0.1514,-0.0936 -0.20304,-0.0397 -0.13674,0.14263 0.0586,0.16115 -0.12128,0.53789 -0.39967,0.83722 -0.27838,0.29933 -0.54618,0.75207 -0.5951,1.00609 -0.11038,0.57319 -0.90875,1.71856 -1.1979,1.71856 -0.11777,0 -0.17087,0.11863 -0.11801,0.26362 0.0529,0.14498 -0.13469,0.57314 -0.41679,0.95144 -0.28209,0.3783 -0.54962,0.8785 -0.59449,1.11154 -0.0449,0.23304 -0.26606,0.68274 -0.49149,0.99934 -0.22544,0.3166 -0.41861,0.64723 -0.42929,0.73475 -0.10102,0.82854 -0.8799,3.36879 -1.11192,3.62646 -0.0992,0.11018 -0.18041,0.84569 -0.18041,1.63444 0,0.79094 -0.0922,1.43409 -0.20563,1.43409 -0.11581,0 -0.15056,0.27526 -0.0796,0.63022 0.0819,0.40949 0.006,0.81316 -0.21617,1.15251 -0.18822,0.28725 -0.34831,0.78661 -0.35576,1.10966 -0.0174,0.7567 -0.46504,2.82923 -0.68463,3.17007 -0.0931,0.14455 -0.21889,0.47671 -0.27947,0.73813 -0.19348,0.83495 -0.23639,9.65611 -0.0475,9.77283 0.0999,0.0617 0.18159,0.62136 0.18159,1.24362 0,1.44607 0.38486,3.11989 0.9949,4.327 0.26378,0.52197 0.4842,0.85413 0.48981,0.73814 0.005,-0.11599 0.19058,0.12126 0.41104,0.52724 0.40619,0.74801 4.57292,5.22249 4.3206,4.63971 -0.0753,-0.17399 0.0374,-0.12043 0.25039,0.11903 0.4469,0.50228 1.5473,1.22409 1.5473,1.01496 0,-0.0776 0.217,0.093 0.48222,0.37921 0.26521,0.28618 0.58845,0.48491 0.7183,0.44163 0.12985,-0.0433 0.56352,0.20878 0.96371,0.56015 0.40019,0.35137 0.7897,0.57676 0.86559,0.50088 0.16943,-0.16944 0.77523,0.59688 0.69222,0.87564 -0.0781,0.26228 -1.17089,0.31914 -1.32551,0.069 z m 2.34862,-56.05171 c 0.0717,-0.11599 0.0298,-0.21089 -0.093,-0.21089 -0.12284,0 -0.22334,0.0949 -0.22334,0.21089 0,0.116 0.0418,0.2109 0.093,0.2109 0.0512,0 0.15165,-0.0949 0.22334,-0.2109 z m 41.86279,46.60796 c 0,-0.116 0.0949,-0.2109 0.2109,-0.2109 0.11599,0 0.21089,0.0949 0.21089,0.2109 0,0.11599 -0.0949,0.21089 -0.21089,0.21089 -0.11599,0 -0.2109,-0.0949 -0.2109,-0.21089 z m -8.22493,-14.34091 c 0,-0.116 0.1005,-0.2109 0.22334,-0.2109 0.12284,0 0.16469,0.0949 0.093,0.2109 -0.0717,0.11599 -0.17219,0.21089 -0.22334,0.21089 -0.0512,0 -0.093,-0.0949 -0.093,-0.21089 z m -61.37065,-12.1265 c 0,-0.174 0.0791,-0.31635 0.17575,-0.31635 0.0967,0 0.17575,0.14235 0.17575,0.31635 0,0.17398 -0.0791,0.31633 -0.17575,0.31633 -0.0967,0 -0.17575,-0.14235 -0.17575,-0.31633 z m 30.15809,-23.09309 c 0,-0.11599 0.1005,-0.21089 0.22334,-0.21089 0.12284,0 0.16469,0.0949 0.093,0.21089 -0.0717,0.116 -0.17219,0.2109 -0.22334,0.2109 -0.0512,0 -0.093,-0.0949 -0.093,-0.2109 z m 6.92001,-17.8593 c 0.15224,-0.0609 0.33415,-0.0534 0.40422,0.0167 0.0701,0.0701 -0.0545,0.11992 -0.2768,0.11076 -0.24568,-0.0101 -0.29565,-0.0601 -0.12742,-0.12741 z m 2.78119,320.338581 c -0.40597,-0.0473 -1.40055,-0.26889 -2.21017,-0.49228 -0.80961,-0.22338 -1.80639,-0.40613 -2.21507,-0.40613 -0.78087,0 -3.4558,-0.69584 -3.87252,-1.00737 -0.13393,-0.10012 -0.64685,-0.30922 -1.13982,-0.46467 -0.49297,-0.15545 -0.89631,-0.36236 -0.89631,-0.45979 0,-0.0974 -0.14235,-0.17713 -0.31634,-0.17713 -0.17399,0 -0.31635,-0.0763 -0.31635,-0.16957 0,-0.0932 -0.66432,-0.67459 -1.47626,-1.29186 -0.81195,-0.61727 -1.47627,-1.18179 -1.47627,-1.25449 0,-0.0727 -0.79626,-0.95576 -1.76945,-1.96236 -1.03039,-1.06578 -1.97731,-2.27312 -2.26713,-2.89069 -0.27372,-0.58325 -0.59611,-1.06437 -0.71642,-1.06911 -0.12031,-0.005 -0.23288,-0.19626 -0.25015,-0.42559 -0.0173,-0.22931 -0.34591,-0.86031 -0.73029,-1.4022 -0.38439,-0.5419 -0.95987,-1.35412 -1.27885,-1.80495 -0.31898,-0.45082 -0.57996,-1.00138 -0.57996,-1.2235 0,-0.22211 -0.13354,-0.47974 -0.29675,-0.57249 -0.16321,-0.0927 -0.32295,-0.54827 -0.35498,-1.01224 -0.032,-0.46397 -0.18173,-1.09701 -0.33269,-1.40678 -0.15095,-0.30976 -0.33012,-1.06899 -0.39815,-1.68716 -0.068,-0.61818 -0.2522,-1.55104 -0.40925,-2.073 -0.26965,-0.89618 -0.46249,-2.56473 -0.65812,-5.69419 -0.0471,-0.75395 -0.1388,-2.03514 -0.20371,-2.84709 -0.11652,-1.45727 -0.13678,-3.92262 -0.0763,-9.27941 0.017,-1.5079 0.0101,-2.83654 -0.0154,-2.95254 -0.0255,-0.11599 -0.0219,-0.3058 0.008,-0.42179 0.0298,-0.116 0.0798,-3.53251 0.11103,-7.59225 0.0312,-4.05974 0.11713,-8.33038 0.19095,-9.4903 0.0738,-1.15993 0.17311,-3.29525 0.22066,-4.74516 0.21359,-6.51258 0.78259,-10.00653 1.86186,-11.43272 0.28877,-0.38157 0.55337,-0.97849 0.588,-1.32647 0.0346,-0.34798 0.27455,-0.86994 0.53315,-1.15992 0.25861,-0.28998 0.56878,-0.78823 0.68928,-1.10721 0.12051,-0.31897 0.34605,-0.57996 0.50121,-0.57996 0.15515,0 0.53254,-0.2614 0.83863,-0.58089 0.3061,-0.3195 0.98728,-0.7703 1.51374,-1.00175 0.52645,-0.23148 0.95809,-0.54511 0.95919,-0.69693 0.001,-0.15185 0.10105,-0.21484 0.22213,-0.14001 0.12108,0.0748 0.37259,0.01 0.55893,-0.14512 0.32999,-0.27389 2.49263,-0.36669 4.3361,-0.1861 0.43549,0.0427 0.85084,0.0186 0.92299,-0.0536 0.21388,-0.21389 0.37115,-1.42203 0.38303,-2.94251 0.006,-0.78295 0.0681,-1.42354 0.13781,-1.42354 0.0697,0 0.0507,-0.48078 -0.0422,-1.0684 -0.0929,-0.58762 -0.0968,-1.27566 -0.009,-1.52899 0.0882,-0.25333 0.12844,-1.45708 0.0895,-2.675 -0.12248,-3.83261 -0.1446,-8.05645 -0.0514,-9.80665 0.0494,-0.92794 0.0103,-1.81286 -0.0869,-1.96648 -0.21207,-0.33499 -0.30461,-4.65462 -0.421,-19.65034 -0.0567,-7.30343 -0.16962,-11.58045 -0.3202,-12.1265 -0.12795,-0.46397 -0.22553,-1.69771 -0.21687,-2.74164 0.0187,-2.25048 -0.23864,-9.01302 -0.34994,-9.19666 -0.0428,-0.0705 0.01,-0.43227 0.11614,-0.80397 0.1199,-0.41803 0.11415,-1.37471 -0.0151,-2.50805 -0.11489,-1.00772 -0.22859,-3.49303 -0.25265,-5.5229 -0.0311,-2.62582 -0.12039,-3.77165 -0.30933,-3.9713 -0.14605,-0.15434 -0.21572,-0.36126 -0.1548,-0.45983 0.22116,-0.35785 0.38234,-2.49985 0.46005,-6.11366 0.0436,-2.02987 0.088,-3.83303 0.0985,-4.00702 0.0105,-0.17399 -0.0434,-1.59753 -0.1198,-3.16343 -0.16903,-3.46406 -0.33099,-8.3145 -0.33313,-9.97728 -10e-4,-0.83679 -0.0751,-1.17966 -0.23352,-1.08175 -0.13582,0.0839 -0.11625,-0.0638 0.0472,-0.35662 0.31802,-0.56952 0.36567,-5.39954 0.0829,-8.40855 -0.0926,-0.98594 -0.19108,-2.07732 -0.21878,-2.4253 -0.0277,-0.34798 -0.16784,-1.81897 -0.31144,-3.26888 -0.41483,-4.18844 -0.64843,-7.80191 -0.74988,-11.59927 -0.0707,-2.6456 -0.20243,-4.47895 -0.39405,-5.48329 -0.0775,-0.40597 -0.17302,-1.38665 -0.21236,-2.17927 -0.0393,-0.79262 -0.16812,-1.53772 -0.28617,-1.65578 -0.12808,-0.128071 -0.14698,-0.450541 -0.0469,-0.799581 0.0923,-0.32172 0.0732,-1.04762 -0.0424,-1.61311 -0.11559,-0.56548 -0.24,-1.21796 -0.27648,-1.44995 -0.0365,-0.23198 -0.0861,-0.42179 -0.11041,-0.42179 -0.0243,0 -0.0736,-0.77151 -0.10957,-1.71446 -0.036,-0.94296 -0.21576,-2.07418 -0.39947,-2.51384 -0.30699,-0.73474 -1.02565,-1.46062 -1.44979,-1.46435 -0.0964,-5.9e-4 -0.28936,-0.15769 -0.42893,-0.34856 -0.19497,-0.26664 -0.54521,-0.33505 -1.51199,-0.29532 -0.69204,0.0284 -1.43862,-0.0399 -1.65908,-0.15191 -0.22046,-0.11199 -0.76615,-0.19857 -1.21265,-0.19242 -0.4465,0.006 -0.81181,-0.0778 -0.81181,-0.18647 0,-0.10872 -0.11863,-0.19826 -0.26362,-0.19897 -0.145,-6e-4 -0.53716,-0.14396 -0.87149,-0.31832 -0.33433,-0.17436 -0.96906,-0.37477 -1.41053,-0.44536 -0.44146,-0.0706 -0.85098,-0.25428 -0.91004,-0.40819 -0.0591,-0.15391 -0.44558,-0.34328 -0.85893,-0.42083 -0.41335,-0.0775 -0.80099,-0.22099 -0.86142,-0.31876 -0.0604,-0.0978 -0.23379,-0.13023 -0.38524,-0.0721 -0.3074,0.11797 -2.71499,-2.14335 -3.50017,-3.28752 -0.2786,-0.40597 -0.80978,-1.08162 -1.18039,-1.50143 -0.37061,-0.41981 -0.79363,-1.13158 -0.94002,-1.58171 -0.1464,-0.45014 -0.39511,-0.89432 -0.55269,-0.98708 -0.15757,-0.0928 -0.2865,-0.39763 -0.2865,-0.6775 0,-0.44633 -0.43691,-1.80447 -1.11862,-3.47721 -0.11817,-0.28998 -0.19954,-0.59842 -0.18081,-0.68541 0.0187,-0.087 -0.0767,-0.15818 -0.21199,-0.15818 -0.13532,0 -0.1836,-0.0624 -0.10727,-0.13876 0.0763,-0.0763 0.0466,-0.24985 -0.0661,-0.38562 -0.11268,-0.13577 -0.2397,-0.42921 -0.28228,-0.65209 -0.0426,-0.22288 -0.20056,-0.68995 -0.35108,-1.03793 -0.15052,-0.34798 -0.28365,-0.97616 -0.29585,-1.39596 -0.0151,-0.51731 -0.10714,-0.73092 -0.28581,-0.66285 -0.14945,0.0569 -0.27123,-0.0692 -0.28119,-0.2912 -0.0204,-0.45464 -0.105,-0.99194 -0.28942,-1.83821 -0.0723,-0.33164 -0.16591,-0.99596 -0.20808,-1.47627 -0.0421,-0.4803 -0.2453,-1.25289 -0.45138,-1.71686 -0.78401,-1.76509 -1.06298,-2.84652 -1.05023,-4.07124 0.007,-0.69647 -0.058,-1.22233 -0.145,-1.16856 -0.087,0.0537 -0.15817,-0.003 -0.15817,-0.12559 0,-0.12284 0.0834,-0.22335 0.18525,-0.22335 0.10189,0 0.14514,-0.86232 0.0961,-1.91627 -0.0516,-1.11042 -0.009,-1.8668 0.10124,-1.79862 0.20087,0.12415 0.17457,-0.67819 -0.0769,-2.3453 -0.0834,-0.55265 -0.17893,-1.76403 -0.21238,-2.69198 -0.0335,-0.92794 -0.11408,-2.71891 -0.17915,-3.97994 -0.0651,-1.26103 -0.0489,-2.39987 0.0359,-2.53075 0.0848,-0.13089 0.16206,-1.00179 0.17166,-1.93535 0.0165,-1.60262 0.43606,-3.68046 0.74321,-3.68046 0.0771,0 0.14637,-0.26098 0.1539,-0.57996 0.0313,-1.32916 0.0983,-1.72605 0.27284,-1.61815 0.1015,0.0627 0.20206,-0.29489 0.22347,-0.79471 0.0734,-1.71279 0.29288,-2.70136 0.59981,-2.70136 0.0923,0 0.23321,-0.38738 0.3132,-0.86082 0.08,-0.47346 0.27328,-1.10724 0.42953,-1.40843 0.15626,-0.30118 0.23551,-0.62623 0.17611,-0.72234 -0.0594,-0.0961 0.0878,-0.44972 0.32715,-0.78581 0.23931,-0.33609 0.43512,-0.75573 0.43512,-0.93253 0,-0.17679 0.14308,-0.46452 0.31796,-0.6394 0.17488,-0.17488 0.23778,-0.36753 0.13976,-0.4281 -0.17339,-0.10716 1.32968,-3.50239 1.6437,-3.71288 0.0865,-0.058 0.27332,-0.46133 0.41512,-0.89631 0.1418,-0.43497 0.34536,-0.79085 0.45235,-0.79085 0.10701,0 0.20204,-0.16609 0.2112,-0.36907 0.01,-0.22048 0.0595,-0.26294 0.12302,-0.10545 0.17541,0.43473 0.55098,0.29719 0.43191,-0.15818 -0.0607,-0.23198 -0.0243,-0.42178 0.0808,-0.42178 0.10513,0 0.19115,-0.1322 0.19115,-0.29378 0,-0.16159 0.14235,-0.34841 0.31634,-0.41518 0.17399,-0.0668 0.31635,-0.30879 0.31635,-0.53784 0,-0.22905 0.17471,-0.54047 0.38825,-0.69203 0.21354,-0.15157 0.65157,-0.6944 0.97339,-1.2063 0.32184,-0.51189 1.0487,-1.39427 1.61526,-1.96083 0.56656,-0.56656 1.03012,-1.10096 1.03012,-1.18757 0,-0.0866 0.37961,-0.56455 0.84358,-1.06212 0.86254,-0.92499 1.04816,-1.22798 0.57996,-0.9467 -0.17913,0.10762 -0.17085,0.044 0.0258,-0.19845 0.1592,-0.19625 0.41002,-0.35683 0.5574,-0.35683 0.14737,0 0.32489,-0.14837 0.39448,-0.3297 0.0696,-0.18134 0.2344,-0.26304 0.36626,-0.18155 0.14756,0.0912 0.19882,0.0355 0.1333,-0.1448 -0.0585,-0.16113 -0.21321,-0.26925 -0.3437,-0.24025 -0.13049,0.029 -0.23726,-0.0422 -0.23726,-0.15817 0,-0.116 0.0838,-0.2109 0.1863,-0.2109 0.10246,0 0.23188,-0.16608 0.28759,-0.36907 0.0557,-0.20299 0.47012,-0.5587 0.92091,-0.79049 0.45078,-0.23179 0.92215,-0.55241 1.04748,-0.71249 0.12532,-0.16008 0.45749,-0.31422 0.73813,-0.34252 0.28064,-0.0283 0.61482,-0.0636 0.74261,-0.0784 0.12778,-0.0148 0.51208,-0.29424 0.85398,-0.62098 0.3419,-0.32674 0.73559,-0.55609 0.87486,-0.50967 0.13927,0.0465 0.25322,-0.0184 0.25322,-0.14406 0,-0.12566 0.11985,-0.22847 0.26633,-0.22847 0.14649,0 0.36002,-0.21185 0.47452,-0.47077 0.1145,-0.25893 0.44544,-0.5874 0.73543,-0.72995 0.28997,-0.14255 1.01454,-0.73738 1.61014,-1.32185 0.59561,-0.58446 1.24528,-1.06266 1.44372,-1.06266 0.19844,0 0.62067,-0.18504 0.93829,-0.41121 0.35681,-0.25407 0.75549,-0.36466 1.04329,-0.28939 0.30215,0.079 0.44412,0.0335 0.4041,-0.12962 -0.0399,-0.16258 0.33444,-0.28472 1.05941,-0.34566 0.67174,-0.0564 1.07189,-0.0146 0.99832,0.10446 -0.0675,0.10928 -0.0264,0.2583 0.0915,0.33116 0.32917,0.20344 0.25418,0.95116 -0.0954,0.95116 -0.17035,0 -0.26443,0.11863 -0.20907,0.26361 0.0673,0.17634 -0.15833,0.28214 -0.68155,0.31954 -0.43022,0.0308 -0.85666,0.17312 -0.94764,0.31635 -0.091,0.14324 -0.16832,0.16552 -0.17187,0.0496 -0.004,-0.11623 -0.076,-0.1032 -0.1614,0.029 -0.0852,0.13195 -0.51083,0.3881 -0.9458,0.5692 -0.43497,0.18111 -0.79086,0.43543 -0.79086,0.56516 0,0.14452 -0.17357,0.18077 -0.4482,0.0936 -0.24651,-0.0782 -0.39883,-0.0609 -0.33848,0.0385 0.17293,0.2849 -0.36519,0.708 -0.90048,0.708 -0.116,0 -0.2109,0.19541 -0.2109,0.43423 0,0.23884 -0.0891,0.3792 -0.19794,0.31191 -0.10886,-0.0673 -0.27494,0.008 -0.36906,0.16805 -0.0941,0.1597 -0.51762,0.45275 -0.94109,0.65123 -0.42347,0.19847 -0.81733,0.54203 -0.87523,0.76346 -0.0579,0.22143 -0.37575,0.52133 -0.70632,0.66643 -0.33057,0.14511 -0.75452,0.4321 -0.94212,0.63777 -0.18759,0.20567 -0.40888,0.37394 -0.49174,0.37394 -0.17343,0 -1.63032,1.17403 -2.92149,2.35427 -0.48686,0.44504 -0.95642,0.80916 -1.04347,0.80916 -0.0871,0 -0.15826,0.15613 -0.15826,0.34696 0,0.19083 -0.72263,1.06868 -1.60584,1.95078 -0.88321,0.88211 -1.69396,1.79364 -1.80167,2.02563 -0.35129,0.75661 -0.74392,1.37793 -1.17112,1.85324 -0.60459,0.67268 -1.84272,2.62375 -2.40396,3.78821 -0.26555,0.55097 -0.5588,1.00176 -0.65169,1.00176 -0.0929,0 -0.16887,0.17505 -0.16887,0.38899 0,0.21394 -0.23447,0.66186 -0.52104,0.99536 -0.28657,0.33351 -0.51059,0.79906 -0.49782,1.03456 0.0128,0.2355 -0.28453,1.0925 -0.66067,1.90445 -0.71198,1.53692 -1.44278,3.49183 -1.57677,4.21792 -0.0428,0.23198 -0.22126,0.8963 -0.39654,1.47626 -0.17527,0.57997 -0.38514,1.48155 -0.46637,2.00351 -0.0812,0.52197 -0.22286,1.09261 -0.31474,1.26808 -0.0919,0.17547 -0.21829,0.74489 -0.28094,1.26537 -0.0626,0.52048 -0.19901,1.23105 -0.30305,1.57902 -0.10404,0.34798 -0.17047,0.86995 -0.14763,1.15993 0.0228,0.28998 -0.0471,0.66959 -0.15538,0.84358 -0.12277,0.19721 -0.10729,1.82531 0.0411,4.32336 0.23845,4.0143 0.25768,4.51656 0.24432,6.3796 -0.0227,3.16237 0.12914,9.06198 0.24016,9.33213 0.0715,0.17399 0.41034,1.17047 0.75296,2.2144 0.57034,1.73776 0.71024,2.35493 1.02783,4.53427 0.0592,0.40597 0.19223,0.89797 0.2957,1.09333 0.10348,0.19536 0.18814,0.55125 0.18814,0.79087 0,0.23961 0.0949,0.43565 0.2109,0.43565 0.11599,0 0.21089,0.14025 0.21089,0.31167 0,0.17142 0.25054,0.85946 0.55676,1.52899 0.30621,0.66953 0.73328,1.60733 0.94903,2.08401 0.21575,0.47667 0.39227,1.06982 0.39227,1.31809 0,0.24828 0.12592,0.45142 0.27982,0.45142 0.19476,0 0.25069,0.20837 0.18399,0.68541 -0.0527,0.37698 -0.0234,0.61725 0.065,0.53393 0.0884,-0.0833 0.43355,0.39119 0.76689,1.05447 0.33334,0.66328 0.82458,1.50185 1.09164,1.86347 1.68901,2.2871 2.18123,2.75157 3.10438,2.92935 0.22156,0.0427 0.61291,0.27329 0.86966,0.51249 0.25676,0.23921 0.58044,0.43492 0.7193,0.43492 0.13886,0 0.5243,0.14177 0.85654,0.31504 0.33224,0.17328 0.76455,0.31563 0.96069,0.31635 0.19614,6e-4 0.40749,0.0836 0.46965,0.18418 0.0622,0.10059 0.78173,0.3979 1.59903,0.6607 0.8173,0.2628 1.53136,0.5512 1.58679,0.6409 0.12825,0.2075 0.94396,0.002 0.94396,-0.23709 0,-0.0988 0.13012,-0.12974 0.28915,-0.0687 0.15903,0.061 0.45235,-0.0523 0.65183,-0.25172 0.26966,-0.26966 0.4031,-0.29725 0.52032,-0.10759 0.19284,0.31202 0.69748,-0.2017 0.60233,-0.61316 -0.0331,-0.14303 0.19694,-0.29806 0.51129,-0.34461 0.45987,-0.0681 0.63318,0.0349 0.8879,0.52739 0.17406,0.33661 0.25481,0.67369 0.17944,0.74906 -0.0754,0.0754 0.31893,0.6 0.87625,1.16582 0.93634,0.95064 1.05146,1.18651 1.51586,3.10585 0.27642,1.1424 0.50276,2.38552 0.50299,2.76249 2.1e-4,0.37698 0.0783,0.68542 0.1735,0.68542 0.0952,0 0.13095,0.80267 0.0795,1.78371 -0.0515,0.98104 -0.0267,1.9538 0.055,2.16168 0.0817,0.20788 0.18302,1.22204 0.22507,2.253671 0.042,1.03164 0.16728,1.96655 0.27831,2.07757 0.12246,0.12246 0.1295,0.45419 0.0179,0.84324 -0.10116,0.35276 -0.13239,0.72479 -0.0694,0.82673 0.063,0.10194 0.15203,1.6306 0.19783,3.39702 0.0957,3.69024 0.23385,5.96896 0.44402,7.32415 0.081,0.52197 0.1356,1.0062 0.12145,1.07606 -0.10102,0.49866 -0.0469,2.24718 0.15909,5.14537 0.41077,5.77802 0.73486,19.04678 0.53957,22.09132 -0.0279,0.43498 0.0359,0.79086 0.14174,0.79086 0.10586,0 0.13799,0.0882 0.0714,0.1959 -0.12143,0.19648 -0.18263,6.2914 -0.10743,10.69971 0.0221,1.29488 -0.0326,2.47211 -0.1216,2.61606 -0.11105,0.17969 -0.0752,0.20825 0.11432,0.0911 0.19539,-0.12076 0.22557,-0.0889 0.10326,0.10898 -0.095,0.15378 -0.15179,0.71413 -0.12611,1.24524 0.0257,0.5311 0.0723,2.48409 0.10364,4.33997 0.0313,1.85588 0.12092,4.181 0.19911,5.16694 0.16402,2.06821 0.29494,5.36438 0.47325,11.91561 0.0695,2.55184 0.17165,5.25657 0.2271,6.01053 0.0554,0.75395 0.12318,3.07908 0.15052,5.16694 0.0273,2.08787 0.136,4.55535 0.24148,5.48329 0.10548,0.92794 0.17553,1.87697 0.15567,2.10896 -0.23481,2.7428 -0.27564,3.6602 -0.23937,5.37784 0.0232,1.10193 0.045,2.739 0.0482,3.63795 0.003,0.89894 0.0936,1.63444 0.20072,1.63444 0.10715,0 0.12389,0.16608 0.0372,0.36907 -0.21574,0.50516 -0.14043,3.17893 0.14669,5.20748 0.182,1.28593 0.17386,2.29488 -0.0351,4.34397 -0.15178,1.48856 -0.20399,3.12627 -0.11804,3.70288 0.0848,0.56862 0.16639,1.67445 0.18141,2.4574 0.015,0.78295 0.0898,1.42354 0.16607,1.42354 0.0763,0 0.0573,0.43567 -0.0421,0.96815 -0.11418,0.61117 -0.10141,1.11658 0.0347,1.37081 0.11854,0.22149 0.1311,0.40269 0.0279,0.40269 -0.10318,0 -0.14516,0.68805 -0.0933,1.52899 0.12,1.94518 0.1206,1.98537 0.0648,4.37609 -0.0475,2.03607 0.0947,3.87498 0.32891,4.25391 0.0716,0.11583 -0.0457,0.18228 -0.26283,0.14885 -0.21567,-0.0332 -0.60565,0.0573 -0.86663,0.20116 -0.26098,0.14383 -0.47452,0.17926 -0.47452,0.0788 0,-0.59302 -4.27702,-1.07129 -5.71388,-0.63894 -1.78514,0.53714 -3.94263,2.14614 -4.07351,3.03791 -0.0245,0.16721 -0.15754,0.4169 -0.29556,0.55491 -0.13801,0.13804 -0.25094,0.46385 -0.25094,0.72405 0,0.26021 -0.21092,0.62084 -0.46871,0.8014 -0.2578,0.18057 -0.4101,0.3283 -0.33846,0.3283 0.0716,0 -0.0581,0.59315 -0.28833,1.3181 -0.23022,0.72496 -0.46693,1.60281 -0.52602,1.95079 -0.0591,0.34798 -0.18746,0.78229 -0.28528,0.96517 -0.0978,0.18286 -0.14036,0.79237 -0.0946,1.35445 0.0458,0.56206 0.0166,1.12422 -0.0649,1.24922 -0.0815,0.125 -0.15935,0.60689 -0.17303,1.07086 -0.10962,3.71688 -0.14795,4.1889 -0.29971,3.69068 l -0.16061,-0.52724 -0.021,0.57997 c -0.0115,0.31897 0.0502,0.58017 0.13715,0.58044 0.087,0 0.16828,0.28496 0.18063,0.63269 0.0124,0.3477 -0.0351,0.6322 -0.10545,0.6322 -0.0703,0 -0.138,0.26098 -0.15033,0.57996 -0.0716,1.85008 -0.16838,3.13227 -0.24806,3.28519 -0.0969,0.18603 -0.0582,5.05597 0.0493,6.20512 0.0353,0.37698 0.005,0.68552 -0.0682,0.68565 -0.0728,1.4e-4 -0.14998,3.34547 -0.17151,7.43407 -0.0215,4.08861 -0.0536,8.62013 -0.0712,10.07004 -0.0176,1.4499 -0.0164,2.68364 0.002,2.74164 0.0191,0.058 0.0605,0.39016 0.092,0.73814 0.0315,0.34797 0.16305,1.67661 0.29232,2.95254 0.12928,1.27591 0.28798,3.02481 0.35268,3.88642 0.0647,0.86162 0.24871,1.95301 0.40892,2.4253 0.1602,0.47231 0.35741,1.3807 0.43825,2.01866 0.0808,0.63795 0.25577,1.34973 0.38875,1.58171 0.13299,0.23199 0.24563,0.5167 0.25032,0.63269 0.008,0.19105 0.8758,1.62767 2.06991,3.42562 0.24984,0.37618 0.52544,0.68461 0.61243,0.68542 0.087,0 0.15817,0.14882 0.15817,0.32897 0,0.18012 0.23306,0.6705 0.51791,1.0897 0.28486,0.41919 0.46906,0.84122 0.40935,0.93785 -0.0597,0.0966 -0.008,0.17566 0.11478,0.17566 0.12284,0 0.22334,0.14145 0.22334,0.31433 0,0.22901 3.69757,4.11447 3.9155,4.11447 0.11024,0 2.12148,2.11765 2.06495,2.17419 -0.0386,0.0386 0.47429,0.2411 1.13984,0.44993 0.66555,0.2088 1.44813,0.54807 1.73907,0.75391 0.29095,0.20581 1.38233,0.5191 2.42531,0.69614 1.04297,0.17707 2.43928,0.45855 3.1029,0.62554 0.66363,0.16699 1.24865,0.26155 1.30004,0.21016 0.0514,-0.0514 0.29497,0.0143 0.54128,0.14623 0.58594,0.31358 6.87941,-0.28443 7.7451,-0.73596 0.32744,-0.17078 0.71902,-0.31111 0.87017,-0.31181 0.15114,0 0.62396,-0.23857 1.05071,-0.52855 0.42675,-0.28997 0.94903,-0.52724 1.16062,-0.52724 0.43142,0 1.62633,-1.20581 1.62633,-1.64116 0,-0.16199 -0.11207,-0.22029 -0.26363,-0.13709 -0.14499,0.0796 0.0211,-0.13448 0.36907,-0.47567 0.34798,-0.34121 0.72759,-0.5753 0.84359,-0.52024 0.11599,0.0551 0.1457,0.0277 0.066,-0.061 -0.0797,-0.0886 0.22875,-0.70848 0.68541,-1.37751 0.45666,-0.669 0.8324,-1.3472 0.83498,-1.50712 0.002,-0.15992 0.19028,-0.52802 0.4171,-0.818 0.22683,-0.28998 0.41453,-0.81669 0.4171,-1.17047 0.002,-0.35378 0.0862,-0.73339 0.1857,-0.84359 0.0995,-0.11019 0.29807,-0.81722 0.44117,-1.57117 0.14309,-0.75395 0.34056,-1.60808 0.43882,-1.89806 0.61085,-1.80271 0.89376,-14.97842 0.41888,-19.50785 -0.10945,-1.04394 -0.253,-3.36906 -0.319,-5.16695 -0.10145,-2.76362 -0.43215,-5.58382 -1.08813,-9.27941 -0.0721,-0.40597 -0.11337,-1.73461 -0.0918,-2.95254 0.031,-1.74712 -0.0523,-2.49047 -0.39447,-3.52265 -0.24996,-0.75402 -0.461,-2.02551 -0.49814,-3.00122 -0.0354,-0.93114 -0.12953,-1.75807 -0.20909,-1.83761 -0.0795,-0.0796 -0.14464,-0.49652 -0.14464,-0.92656 0,-0.43005 -0.13598,-1.16734 -0.30218,-1.6384 -0.16621,-0.47108 -0.35616,-1.74046 -0.42213,-2.8209 -0.17624,-2.88657 -0.32629,-3.73621 -0.88151,-4.99165 -0.27499,-0.62183 -0.44764,-1.21527 -0.38367,-1.3188 0.064,-0.1035 -0.0316,-0.18819 -0.21246,-0.18819 -0.18084,0 -0.3311,-0.0712 -0.33391,-0.15818 -0.0481,-1.48778 -0.36074,-2.57137 -1.1276,-3.90885 -1.71945,-2.99889 -3.13485,-4.94704 -3.83764,-5.2822 -0.9233,-0.44028 -2.3858,-0.72149 -3.93265,-0.7562 -0.55356,-0.0124 -0.9952,-0.20343 -1.50477,-0.65083 -0.88493,-0.77698 -1.03599,-1.6321 -1.09893,-6.22085 -0.0238,-1.73989 -0.14185,-4.25482 -0.26218,-5.58874 -0.26603,-2.94883 -0.1698,-11.91059 0.15286,-14.23546 0.12878,-0.92794 0.2853,-3.91739 0.34782,-6.64321 0.0625,-2.72583 0.15417,-5.14586 0.20368,-5.37784 0.0495,-0.23199 0.12328,-2.94366 0.16392,-6.02594 0.0407,-3.08227 0.13352,-5.7006 0.20639,-5.81851 0.0729,-0.11791 0.18388,-2.38866 0.24669,-5.0461 0.0628,-2.65744 0.17935,-5.78074 0.25899,-6.94067 0.0797,-1.15992 0.11127,-3.39014 0.0703,-4.95605 -0.10885,-4.15765 -0.10302,-6.12054 0.0332,-11.17747 0.0672,-2.49384 0.0433,-4.74168 -0.053,-4.99521 -0.0963,-0.25353 -0.22452,-2.10413 -0.28486,-4.11246 -0.10645,-3.54302 -0.24533,-6.71351 -0.44634,-10.18929 -0.0537,-0.92794 -0.1527,-2.68365 -0.22008,-3.90157 -0.0674,-1.21792 -0.24596,-2.46758 -0.39687,-2.77701 -0.15092,-0.30943 -0.20058,-0.6416 -0.11037,-0.73813 0.0902,-0.0965 0.2217,-1.07711 0.29219,-2.17904 0.0705,-1.10193 0.22057,-2.85764 0.33349,-3.90157 0.11292,-1.04394 0.2563,-3.46396 0.31861,-5.37784 0.0623,-1.91388 0.16437,-4.71352 0.2268,-6.22143 0.0624,-1.5079 0.15859,-5.341 0.2137,-8.51799 0.0551,-3.17699 0.15525,-5.8654 0.22252,-5.97424 0.0673,-0.10884 0.0608,-1.40052 -0.0144,-2.870381 -0.0752,-1.46986 -0.0595,-2.93961 0.0349,-3.26611 0.0943,-0.32649 0.0911,-1.56023 -0.007,-2.74164 -0.0983,-1.18141 -0.18434,-2.24292 -0.19126,-2.35891 -0.007,-0.116 0.0471,-0.56678 0.12009,-1.00175 0.0756,-0.45079 0.0467,-0.79086 -0.0672,-0.79086 -0.10991,0 -0.29677,-0.3511 -0.41526,-0.78021 -0.17333,-0.62777 -0.15142,-0.85092 0.11216,-1.14217 0.37236,-0.41146 0.54018,-1.40547 0.2659,-1.57498 -0.33522,-0.20718 -0.18747,-0.56017 0.19284,-0.46072 0.20641,0.054 0.49486,-0.0298 0.641,-0.18629 0.30573,-0.32728 0.97215,-0.39042 0.77632,-0.0736 -0.0717,0.11599 -0.0113,0.2109 0.13418,0.2109 0.14549,0 0.52771,0.25214 0.84937,0.56031 l 0.58483,0.56031 1.64111,-0.36957 c 2.39397,-0.53911 2.40084,-0.54174 2.93941,-1.12285 0.27187,-0.29336 0.49431,-0.4335 0.49431,-0.31143 0,0.12207 0.18981,0.17232 0.42179,0.11165 0.23199,-0.0607 0.4218,-0.223 0.4218,-0.36074 0,-0.15068 0.35703,-0.25897 0.8963,-0.27185 0.49297,-0.0118 1.08612,-0.0304 1.3181,-0.0415 0.48323,-0.023 2.13833,-1.42852 2.05094,-1.74168 -0.0322,-0.11542 0.12406,-0.15011 0.35132,-0.078 0.22513,0.0714 0.47066,0.0307 0.54561,-0.0906 0.075,-0.12128 0.72353,-0.61596 1.44129,-1.09931 0.71776,-0.48334 1.38092,-1.00485 1.47368,-1.1589 0.0927,-0.15405 0.30629,-0.2801 0.47451,-0.2801 0.16823,0 0.30587,-0.0949 0.30587,-0.21089 0,-0.11599 0.14235,-0.21089 0.31634,-0.21089 0.17399,0 0.29262,-0.0732 0.26362,-0.16257 -0.0591,-0.18227 0.93814,-1.17495 2.55686,-2.54515 0.59459,-0.50331 1.08108,-1.00133 1.08108,-1.10672 0,-0.10538 0.33217,-0.54376 0.73814,-0.97417 0.40597,-0.43041 0.73814,-0.91074 0.73814,-1.06741 0,-0.15667 0.0969,-0.22497 0.21531,-0.15178 0.11842,0.0732 0.34785,-0.18412 0.50983,-0.5718 0.16198,-0.38768 0.48992,-0.88171 0.72874,-1.09784 0.23883,-0.21614 0.38815,-0.46754 0.33182,-0.55868 -0.0563,-0.0911 0.026,-0.2941 0.1829,-0.45103 0.15693,-0.15692 0.52903,-0.67138 0.8269,-1.14325 0.29788,-0.47186 0.69911,-1.01544 0.89162,-1.20795 0.19251,-0.19252 0.28782,-0.35002 0.21179,-0.35002 -0.076,0 0.15445,-0.36955 0.51217,-0.82121 0.35773,-0.45166 0.65041,-0.93032 0.65041,-1.06368 0,-0.13336 0.23749,-0.4986 0.52776,-0.81164 0.29027,-0.31304 0.63479,-0.90205 0.76562,-1.3089 0.13082,-0.40685 0.3397,-0.86761 0.46416,-1.02391 0.12448,-0.15631 0.25635,-0.48102 0.29306,-0.72159 0.0367,-0.24057 0.16794,-0.55932 0.29161,-0.70833 0.12367,-0.14901 0.16363,-0.36999 0.0888,-0.49107 -0.0748,-0.12107 -0.0356,-0.22013 0.0873,-0.22013 0.12284,0 0.22334,-0.13444 0.22334,-0.29877 0,-0.16432 0.10937,-0.33522 0.24305,-0.37978 0.13368,-0.0445 0.25784,-0.28181 0.27591,-0.52722 0.018,-0.24541 0.13124,-0.57275 0.25146,-0.72742 0.37822,-0.48659 0.48096,-0.98887 0.22005,-1.07583 -0.14363,-0.0479 -0.0482,-0.19237 0.22274,-0.3374 0.26068,-0.1395 0.47396,-0.43333 0.47396,-0.65295 0,-0.21962 0.11863,-0.52472 0.26362,-0.67799 0.14499,-0.15328 0.26856,-0.37359 0.27461,-0.48958 0.0249,-0.47774 0.37347,-1.92252 0.54337,-2.25208 0.10038,-0.19471 0.22528,-0.6881 0.27756,-1.09642 0.0523,-0.40833 0.19583,-1.11672 0.31902,-1.57419 0.12319,-0.45747 0.15947,-0.99986 0.0806,-1.2053 -0.0905,-0.23571 -0.0618,-0.32312 0.0777,-0.23691 0.23545,0.14552 0.48331,-0.76011 0.48331,-1.76589 0,-0.32519 0.14959,-0.74084 0.33241,-0.92367 0.19197,-0.19197 0.31329,-0.62158 0.28715,-1.01682 -0.0249,-0.37642 0.0121,-0.82676 0.0822,-1.00075 0.0701,-0.17399 0.17513,-0.69595 0.23341,-1.15993 0.14219,-1.13201 0.20981,-1.43335 0.38416,-1.71209 0.15793,-0.25248 0.0487,-6.20726 -0.12778,-6.96884 -0.0581,-0.25081 -0.13022,-1.0569 -0.16019,-1.79133 -0.0299,-0.73442 -0.2385,-2.09511 -0.46338,-3.02377 -0.22488,-0.92865 -0.40311,-1.85454 -0.39607,-2.05752 0.007,-0.20299 -0.0637,-0.36907 -0.1572,-0.36907 -0.0935,0 -0.33584,-0.59315 -0.53856,-1.3181 -0.2027,-0.72495 -0.42874,-1.36555 -0.5023,-1.42354 -0.32492,-0.25617 -1.08278,-1.48682 -1.08278,-1.75825 0,-0.16449 -0.14235,-0.41721 -0.31634,-0.56161 -0.17399,-0.1444 -0.31634,-0.44073 -0.31634,-0.6585 0,-0.21779 -0.10051,-0.39597 -0.22335,-0.39597 -0.12284,0 -0.16468,-0.0949 -0.093,-0.2109 0.0717,-0.11599 0.0275,-0.2109 -0.0982,-0.2109 -0.12571,0 -0.3109,-0.21657 -0.41154,-0.48127 -0.35142,-0.9243 -1.77505,-2.43718 -5.10386,-5.42381 -3.11614,-2.79582 -3.48284,-3.09377 -4.19614,-3.40951 -0.34626,-0.15327 -0.62957,-0.34914 -0.62957,-0.43526 0,-0.15347 -1.31476,-0.80103 -1.85634,-0.9143 -0.15104,-0.0316 -0.53065,-0.22827 -0.84358,-0.43708 -0.31292,-0.2088 -0.68414,-0.35546 -0.82491,-0.3259 -0.14077,0.0295 -0.61529,-0.17171 -1.05448,-0.44725 -0.43919,-0.27554 -1.04464,-0.5617 -1.34546,-0.6359 -0.30081,-0.0742 -0.77533,-0.35239 -1.05448,-0.61819 -0.45715,-0.43528 -0.93662,-0.71343 -1.87836,-1.08967 -0.17399,-0.0695 -0.62497,-0.31356 -1.00218,-0.54232 -0.37721,-0.22876 -0.89918,-0.4577 -1.15993,-0.50874 -0.59673,-0.11681 -2.23518,-0.69136 -2.79978,-0.98179 -0.26467,-0.13613 -0.61873,-0.14927 -0.92906,-0.0345 -0.32052,0.11856 -0.77495,0.0926 -1.25953,-0.0719 -0.41696,-0.14157 -1.40629,-0.31592 -2.1985,-0.38743 -0.79222,-0.0715 -1.61638,-0.22422 -1.83147,-0.33933 -0.2151,-0.11512 -0.66305,-0.20931 -0.99546,-0.20931 -0.3324,0 -0.69453,-0.0852 -0.80473,-0.18928 -0.11018,-0.10412 -0.95957,-0.24118 -1.88751,-0.30458 -0.92794,-0.0634 -2.24222,-0.18221 -2.92064,-0.26399 -0.94982,-0.1145 -1.2781,-0.0808 -1.42755,0.14641 -0.16117,0.24506 -0.24388,0.23002 -0.48771,-0.0887 -0.23515,-0.30737 -0.32884,-0.32748 -0.4705,-0.10101 -0.35151,0.56194 -1.33564,0.83424 -2.10152,0.58147 -0.39136,-0.12916 -0.71156,-0.2897 -0.71156,-0.35675 0,-0.30388 1.10317,-1.52733997 1.27912,-1.41859997 0.10843,0.067 0.19714,0.0213 0.19714,-0.1015 0,-0.12283 0.18421,-0.22333 0.40935,-0.22333 0.22514,0 0.45793,-0.0786 0.51731,-0.1747 0.16105,-0.26058 2.28333,-0.26011 2.59743,5.7e-4 0.14962,0.12417 0.272,0.14297 0.27195,0.0418 -1.9e-4,-0.3788 3.74846,-0.001 4.77697,0.48151 0.36543,0.17140997 0.79249,0.28919997 0.94903,0.26174997 0.15654,-0.0274 0.75913,0.0186 1.3391,0.10235 0.57996,0.0837 1.95605,0.28378 3.05798,0.44455 1.10193,0.16077 2.33567,0.3369 2.74165,0.39141 0.90909,0.12205 3.06944,0.92068 3.42719,1.26696 0.14492,0.14027 0.54254,0.27622 0.8836,0.3021 0.34106,0.0259 0.81558,0.22554 1.05447,0.44367 0.2389,0.21812 0.67163,0.4664 0.96161,0.55174 0.28998,0.0853 1.3191,0.61821 2.28695,1.18417 0.96784,0.56595 1.86942,1.02964 2.00351,1.0304 0.13409,6e-4 0.5285,0.19445 0.87648,0.43041 0.68801,0.46653 2.30149,1.25536 2.56774,1.25536 0.18272,0 2.64189,1.4747 2.81009,1.68514 0.058,0.0726 0.30507,0.26878 0.54906,0.43605 0.58682,0.40228 4.66227,4.16786 5.22849,4.83093 0.24413,0.28589 0.94179,1.05335 1.55035,1.70547 0.60856,0.65212 1.05079,1.24135 0.98274,1.3094 -0.068,0.0681 0.2763,0.65358 0.76522,1.30115 0.48893,0.64759 0.88897,1.41234 0.88897,1.69946 0,0.28712 0.083,0.47071 0.18453,0.40799 0.10149,-0.0627 0.18453,0.0192 0.18453,0.18205 0,0.16286 0.19125,0.46918 0.42499,0.68072 0.23374,0.21153 0.48314,0.74821 0.5542,1.19261 0.0711,0.4444 0.21198,0.808 0.31314,0.808 0.10117,0 0.18395,0.42147 0.18395,0.93659 0,0.51512 0.0994,0.99804 0.22098,1.07316 0.12155,0.0751 0.20647,0.29425 0.18872,0.48696 -0.0457,0.49681 0.23743,1.29941 0.45847,1.29941 0.10247,0 0.1863,0.30907 0.1863,0.68681 0,0.37774 0.095,1.01792 0.21103,1.42262 0.11607,0.4047 0.21581,1.30566 0.22166,2.00212 0.006,0.69646 0.11506,2.39065 0.24269,3.76487 0.15394,1.65754 0.16121,2.5449 0.0216,2.6362 -0.11575,0.0757 -0.21929,0.56469 -0.23009,1.08665 -0.0178,0.86149 -0.16831,2.5893 -0.32258,3.70363 -0.0331,0.23911 -0.16797,0.71363 -0.2997,1.05448 -0.31346,0.81107 -0.72454,2.86808 -0.59838,2.99424 0.0958,0.0958 -0.33449,1.38758 -0.76266,2.28974 -0.23496,0.49506 -0.29462,1.28318 -0.13385,1.76807 0.0577,0.17399 0.0638,0.24121 0.0135,0.14937 -0.0503,-0.0918 -0.22347,-0.0573 -0.38491,0.0766 -0.16142,0.13397 -0.25152,0.31154 -0.20019,0.39459 0.0513,0.0831 -0.0446,0.60934 -0.21321,1.16955 -0.1686,0.5602 -0.30655,1.29378 -0.30655,1.63017 0,0.33639 -0.0841,0.55963 -0.18691,0.49609 -0.18022,-0.11138 -0.52315,0.63947 -0.46106,1.0095 0.0167,0.0994 -0.16286,0.50816 -0.39898,0.90836 -0.23612,0.40019 -0.42931,0.9041 -0.42931,1.11979 0,0.21569 -0.097,0.4245 -0.21559,0.46402 -0.11857,0.0395 -0.25874,0.30842 -0.31149,0.59754 -0.10466,0.57368 -0.76316,1.94546 -1.1681,2.43339 -0.13999,0.16868 -0.19008,0.30669 -0.1113,0.30669 0.0788,0 -0.005,0.21093 -0.18508,0.46872 -0.18056,0.25779 -0.3283,0.61458 -0.3283,0.79285 0,0.17828 -0.1898,0.44267 -0.42179,0.58755 -0.23198,0.14488 -0.42179,0.39481 -0.42179,0.55541 0,0.16059 -0.13698,0.34455 -0.30441,0.4088 -0.19372,0.0743 -0.26949,0.30939 -0.20836,0.64648 0.0709,0.3908 -0.0267,0.59536 -0.37227,0.7803 -0.52971,0.28349 -1.20635,1.03236 -1.2169,1.3468 -0.008,0.22957 -1.47908,2.45723 -1.75519,2.65735 -0.0947,0.0686 -0.14342,0.21178 -0.1083,0.31812 0.0653,0.19771 -1.09604,1.68876 -2.28951,2.93951 -0.66536,0.69729 -0.72639,1.15811 -0.0913,0.6896 0.18466,-0.13623 0.0985,-0.004 -0.19149,0.2935 -0.28998,0.29764 -0.57781,0.52856 -0.63963,0.51314 -0.0618,-0.0154 -0.41769,0.28366 -0.79085,0.66464 -0.37316,0.38097 -0.68184,0.61823 -0.68595,0.52724 -0.004,-0.091 -0.1431,0.0718 -0.30887,0.36179 -0.16577,0.28999 -0.30477,0.43495 -0.30887,0.32215 -0.004,-0.1128 -0.15521,0.006 -0.33578,0.26362 -0.18057,0.25779 -0.47088,0.46871 -0.64513,0.46871 -0.17426,0 -0.25818,0.0949 -0.18649,0.2109 0.0717,0.11599 -0.0176,0.2109 -0.19845,0.2109 -0.18084,0 -0.32879,0.0949 -0.32879,0.21089 0,0.11599 -0.14729,0.21089 -0.32731,0.21089 -0.18003,0 -0.42079,0.26815 -0.53504,0.59588 -0.14677,0.42104 -0.34465,0.5912 -0.67443,0.57996 -0.31162,-0.0106 -0.45791,0.1012 -0.44021,0.33648 0.0177,0.23534 -0.0814,0.311 -0.29822,0.22778 -0.19838,-0.0761 -0.27071,-0.0372 -0.1859,0.10003 0.0764,0.12355 0.002,0.2772 -0.16556,0.34144 -0.21415,0.0822 -0.26874,0.0106 -0.18413,-0.24152 0.0661,-0.19708 -0.212,-0.0262 -0.61809,0.37981 -0.40609,0.40597 -0.70175,0.80112 -0.65704,0.8781 0.0447,0.077 -0.20394,0.26623 -0.55257,0.42055 -0.34864,0.15432 -0.63389,0.35792 -0.63389,0.45244 0,0.0945 -0.0803,0.1222 -0.17857,0.0615 -0.0982,-0.0607 -0.45409,0.15441 -0.79085,0.47801 -0.60251,0.57898 -1.14888,0.88996 -1.77222,1.00873 -2.49268,0.47494 -3.433,0.83135 -4.27064,1.61868 -0.38509,0.36197 -0.57997,0.44462 -0.57997,0.24599 0,-0.21633 -0.3305,-0.11776 -1.19386,0.35606 -0.73299,0.40227 -1.52422,0.66411 -2.04967,0.67828 -0.67356,0.0182 -0.90827,0.12816 -1.10213,0.51648 -0.16446,0.32944 -0.2781,0.39951 -0.34197,0.21089 -0.0526,-0.15538 -0.0972,0.57163 -0.0991,1.61557 -0.002,1.04393 0.0861,2.01253 0.1954,2.15244 0.10933,0.13991 0.15248,0.32971 0.0959,0.42179 -0.0566,0.0921 -0.16328,1.36783 -0.23705,2.83501 -0.0738,1.46718 -0.17576,2.8837 -0.22662,3.14781 -0.0509,0.26411 -0.004,0.58716 0.10477,0.71788 0.21951,0.2645 0.34318,3.105601 0.14887,3.420011 -0.14494,0.23451 -0.17119,0.93289 -0.16888,4.49306 6e-4,1.4499 -0.043,3.06325 -0.0977,3.58522 -0.14092,1.34531 -0.51399,12.26865 -0.52907,15.49112 -10e-4,0.22663 -0.0814,0.51134 -0.17863,0.63268 -0.0972,0.12134 -0.17803,0.69513 -0.17966,1.2751 -0.002,0.57996 -0.06,1.22056 -0.12978,1.42354 -0.29332,0.85366 -0.3248,1.01874 -0.17712,0.9287 0.0857,-0.0522 0.17643,1.62737 0.2017,3.73245 0.0449,3.74116 0.18701,7.30071 0.38433,9.62703 0.0541,0.63796 0.14851,2.44112 0.20978,4.00702 0.0613,1.56591 0.16377,3.74868 0.22779,4.85061 0.15492,2.66678 0.15965,12.56706 0.006,12.81548 -0.0666,0.10779 -0.0713,1.04081 -0.0103,2.07336 0.12938,2.19253 0.12424,4.98218 -0.0136,7.36066 -0.0537,0.92793 -0.089,2.73109 -0.0784,4.00701 0.0107,1.27592 0.0133,2.50966 0.006,2.74164 -0.007,0.23199 -0.072,1.9877 -0.14334,3.90157 -0.0713,1.91388 -0.16612,5.75746 -0.21063,8.54128 -0.0694,4.34166 -0.25681,9.27737 -0.62456,16.44987 -0.0476,0.92794 -0.17161,1.97187 -0.27561,2.31985 -0.17782,0.59489 -0.31536,4.28443 -0.33808,9.06851 -0.0111,2.34607 0.22288,5.80714 0.49152,7.26945 0.0965,0.52551 0.10149,1.76216 0.011,2.7481 -0.0905,0.98594 -0.10471,1.84006 -0.0316,1.89806 0.0731,0.058 0.14584,0.56387 0.1616,1.12418 0.0157,0.56029 0.19572,1.32894 0.39992,1.70811 0.34704,0.64444 0.47937,0.70595 2.02807,0.94304 1.5566,0.23829 2.86419,0.6492 3.4173,1.07392 0.87901,0.67497 2.2368,1.97846 2.15064,2.06461 -0.057,0.057 0.0835,0.36616 0.31203,0.68714 0.22856,0.32099 0.41556,0.64013 0.41556,0.70922 0,0.0691 0.1898,0.31542 0.42179,0.5474 0.23198,0.23199 0.42179,0.69636 0.42179,1.03192 0,0.35571 0.13588,0.66227 0.32587,0.73518 0.37017,0.14204 0.93951,1.37369 0.93951,2.03244 0,0.24131 0.18138,0.81418 0.40307,1.27303 0.2217,0.45885 0.29287,0.77011 0.15817,0.6917 -0.13469,-0.0784 -0.0972,0.0398 0.0834,0.26273 0.28246,0.34874 0.86058,1.45343 0.92951,1.77614 0.0124,0.058 0.15382,0.34271 0.31431,0.63269 0.16047,0.28998 0.27005,0.55181 0.2435,0.58186 -0.0265,0.03 0.002,0.4571 0.0643,0.94903 0.0619,0.49191 0.30919,2.98228 0.54952,5.53412 0.24033,2.55183 0.54976,5.11422 0.68763,5.69418 0.13786,0.57996 0.2597,1.14938 0.27075,1.26538 0.0111,0.11599 0.12458,0.5905 0.2523,1.05447 0.12771,0.46397 0.2279,1.89596 0.22263,3.18219 -0.005,1.28623 0.0579,2.64604 0.14047,3.02177 0.0825,0.37576 0.17625,0.88927 0.20827,1.14118 0.032,0.2519 0.2079,1.35958 0.39085,2.46152 0.18294,1.10192 0.38898,3.42705 0.45786,5.16694 0.0689,1.73989 0.16393,3.44815 0.21123,3.79612 0.0874,0.64279 0.43547,8.92901 0.40753,9.7012 -0.008,0.23199 -0.0843,1.08611 -0.16862,1.89807 -0.0843,0.81194 -0.18452,2.85236 -0.2226,4.53425 -0.078,3.44595 -0.17778,4.19527 -1.0948,8.22494 -0.29391,1.29154 -0.45605,1.84632 -0.83206,2.84709 -0.0872,0.23198 -0.13717,0.54995 -0.11112,0.70658 0.0261,0.15662 -0.0461,0.22697 -0.16047,0.15632 -0.11431,-0.0707 -0.27305,0.18082 -0.35276,0.55881 -0.17779,0.8431 -1.19946,2.68586 -1.78077,3.21194 -0.52387,0.4741 -0.572,0.90061 -0.0594,0.52642 0.20299,-0.14818 -0.29525,0.37706 -1.1072,1.1672 -0.81195,0.79014 -1.45254,1.51664 -1.42355,1.61443 0.029,0.0978 -0.11925,0.17778 -0.32945,0.17778 -0.2102,0 -0.75589,0.18013 -1.21265,0.4003 -0.45676,0.22016 -1.23381,0.50852 -1.72678,0.64081 -0.49297,0.13229 -0.89631,0.33737 -0.89631,0.45575 0,0.11835 -0.0886,0.16042 -0.19699,0.0934 -0.10835,-0.067 -0.55914,0.0141 -1.00175,0.18045 -0.44262,0.1662 -1.76966,0.35772 -2.94897,0.42556 -1.17932,0.0679 -2.2707,0.15512 -2.4253,0.19392 -0.1546,0.0388 -0.61326,0.0318 -1.01923,-0.0156 z"
       inkscape:label="spoon" /></g></svg>
