<?xml version="1.0" encoding="UTF-8" standalone="no"?>
<!-- Created with Inkscape (http://www.inkscape.org/) -->

<svg
   width="48.378468mm"
   height="317.83707mm"
   viewBox="0 0 48.378468 317.83707"
   version="1.1"
   id="svg5"
   xml:space="preserve"
   xmlns:inkscape="http://www.inkscape.org/namespaces/inkscape"
   xmlns:sodipodi="http://sodipodi.sourceforge.net/DTD/sodipodi-0.dtd"
   xmlns="http://www.w3.org/2000/svg"
   xmlns:svg="http://www.w3.org/2000/svg"><sodipodi:namedview
     id="namedview7"
     pagecolor="#ffffff"
     bordercolor="#666666"
     borderopacity="1.0"
     inkscape:showpageshadow="2"
     inkscape:pageopacity="0.0"
     inkscape:pagecheckerboard="0"
     inkscape:deskcolor="#d1d1d1"
     inkscape:document-units="mm"
     showgrid="false" /><defs
     id="defs2" /><g
     inkscape:label="Layer 1"
     inkscape:groupmode="layer"
     id="layer1"
     transform="translate(88.865293)"><path
       id="path1843"
       style="fill:#000000;stroke-width:0.210896"
       d="m -57.460282,2.439729 c 0,-0.116 -0.04185,-0.2109 -0.09301,-0.2109 -0.05117,0 -0.151654,0.0949 -0.223338,0.2109 -0.07168,0.11599 -0.02983,0.21089 0.093,0.21089 0.122827,0 0.223344,-0.0949 0.223344,-0.21089 z m 6.243862,315.165641 c -1.04174,-0.38986 -2.585775,-0.42827 -3.527489,-0.0877 -1.316029,0.47589 -4.531978,-0.46787 -7.995477,-2.34632 -0.993741,-0.53899 -1.86594,-1.38318 -3.388837,-3.28015 -0.410173,-0.51091 -1.720977,-3.21244 -1.772287,-3.65267 -0.02027,-0.17399 -0.117465,-0.6485 -0.215955,-1.05448 -0.09849,-0.40597 -0.15701,-0.85676 -0.130036,-1.00175 0.02696,-0.14499 -0.05004,-0.26362 -0.171125,-0.26362 -0.121075,0 -0.220133,-0.42089 -0.220133,-0.9353 0,-0.51442 -0.08683,-1.16368 -0.192969,-1.44285 -0.201386,-0.5297 -0.279627,-0.90537 -0.624734,-2.99969 -0.114667,-0.69596 -0.271719,-1.64499 -0.348968,-2.10896 -0.07727,-0.46397 -0.21501,-2.40948 -0.306093,-4.32336 -0.1068,-2.24433 -0.322402,-4.15366 -0.607236,-5.37784 -0.242886,-1.04394 -0.44368,-2.20779 -0.446191,-2.58634 -0.0024,-0.37854 -0.09391,-0.85305 -0.203138,-1.05448 -0.258955,-0.47753 -1.080735,-5.65956 -1.04657,-6.59945 0.01453,-0.39948 -0.03539,-1.34318 -0.110906,-2.09713 -0.356794,-3.56186 -0.543097,-6.82944 -0.499002,-8.75218 0.0266,-1.15992 0.0532,-3.05798 0.05912,-4.21791 0.02343,-4.58016 0.428436,-8.84298 1.282456,-13.49732 0.695874,-3.79241 0.656035,-3.63852 1.135865,-4.38804 1.376283,-2.14996 3.054044,-3.00154 6.597619,-3.34871 l 2.428736,-0.23796 0.118271,-1.39048 c 0.06504,-0.76476 -0.06194,-3.71562 -0.28218,-6.55744 -0.220235,-2.84182 -0.415924,-5.73636 -0.434844,-6.43232 -0.01895,-0.69595 -0.115193,-2.59401 -0.213892,-4.21791 -0.227851,-3.74836 -0.401564,-11.78513 -0.512644,-23.71798 -0.048,-5.15739 -0.18063,-9.85509 -0.294747,-10.43933 -0.262273,-1.34299 -0.456862,-8.50542 -0.535929,-19.72655 -0.0339,-4.81369 -0.136134,-9.22414 -0.227115,-9.801 -0.247083,-1.56626 -0.674234,-1.87849 -3.178341,-2.32327 -1.645688,-0.29231 -2.283939,-0.32684 -2.788722,-0.15086 -0.36004,0.12551 -0.918153,0.16681 -1.240232,0.0918 -0.905336,-0.21089 -4.691206,-0.10594 -4.985385,0.1382 -0.182549,0.15149 -0.424849,0.13316 -0.797903,-0.0604 -0.294663,-0.15287 -0.906538,-0.34528 -1.359705,-0.42756 -1.938091,-0.3519 -3.454472,-1.35675 -6.096364,-4.03983 -0.695958,-0.7068 -1.573813,-1.46324 -1.950789,-1.68097 -0.376976,-0.21772 -0.685406,-0.47591 -0.685406,-0.57374 0,-0.0978 -0.07118,-0.13387 -0.158176,-0.0801 -0.08699,0.0538 -0.178077,-0.58122 -0.202414,-1.4111 -0.02433,-0.82989 -0.07179,-2.17321 -0.105448,-2.98516 -0.08084,-1.95 0.303373,-3.06757 1.3414,-3.90176 0.744249,-0.59809 2.202935,-2.39046 2.574363,-3.16325 0.08362,-0.17399 0.282832,-0.54418 0.442688,-0.82266 0.319615,-0.55677 0.252911,-2.18922 -0.0942,-2.30492 -0.11713,-0.039 -0.212983,-0.18683 -0.212983,-0.3284 0,-0.14157 -0.343044,-0.58445 -0.762328,-0.98418 -0.419277,-0.39973 -1.357009,-1.45777 -2.083838,-2.35119 -0.726829,-0.89343 -1.394271,-1.55775 -1.483208,-1.47627 -0.08895,0.0815 -0.110045,-0.0619 -0.04693,-0.31862 0.06966,-0.28314 -0.01393,-0.57352 -0.212416,-0.73813 -1.451212,-1.20346 -1.017127,-4.56265 0.695091,-5.37915 0.401588,-0.19151 0.730165,-0.43191 0.730165,-0.53424 0,-0.10233 0.169732,-0.13218 0.377185,-0.0663 0.287519,0.0913 0.545231,-0.15751 1.083838,-1.04621 0.388639,-0.64125 0.841496,-1.24139 1.006331,-1.33364 0.507921,-0.28425 0.385662,-1.77421 -0.238773,-2.91015 -0.715106,-1.30083 -0.947285,-1.58258 -1.624914,-1.97174 -1.173504,-0.67395 -2.28887,-1.87742 -2.378058,-2.5659 -0.0099,-0.0773 -0.07833,-0.20071 -0.151803,-0.27418 -0.07348,-0.0735 -0.0608,-0.45624 0.02816,-0.8506 0.08894,-0.39436 0.119581,-0.75916 0.06808,-0.81066 -0.158786,-0.15878 1.049182,-1.2698 1.867393,-1.71751 0.426559,-0.2334 1.043432,-0.66216 1.370825,-0.95278 0.327393,-0.29063 1.035732,-0.88674 1.574064,-1.32469 0.598544,-0.48692 1.019471,-1.01901 1.083497,-1.36964 0.05757,-0.31536 0.258937,-1.12826 0.447392,-1.80643 0.280471,-1.00918 0.298166,-1.39209 0.0975,-2.10896 -0.134867,-0.48175 -0.270434,-1.07535 -0.301263,-1.31911 -0.0538,-0.42513 -1.080502,-2.062731 -1.811725,-2.889641 -0.292995,-0.33136 -1.203054,-2.08253 -2.633391,-5.06735 -0.157345,-0.32838 -0.286012,-0.80289 -0.285929,-1.05448 0,-0.7721 0.762495,-2.51615 1.465704,-3.35374 0.367124,-0.43731 0.617818,-0.87553 0.557062,-0.97384 -0.06076,-0.0983 0.09982,-0.29465 0.356835,-0.43631 0.257037,-0.14167 0.775754,-0.67395 1.15273,-1.18285 0.577812,-0.78001 0.683219,-1.10049 0.671472,-2.04134 -0.0156,-1.24823 -0.559776,-3.12477 -1.083498,-3.73644 -0.189297,-0.22109 -0.303899,-0.44224 -0.254675,-0.49147 0.128961,-0.12898 -1.368289,-1.63331 -1.625649,-1.63331 -0.264969,0 -0.599404,-0.34147 -1.100116,-1.12328 -0.368499,-0.5754 -0.368415,-0.63314 0.003,-1.66661 0.399645,-1.11285 1.49624,-2.42424 2.873539,-3.43638 0.586606,-0.4311 0.728156,-0.63607 0.527237,-0.76352 -0.20676,-0.13114 -0.185801,-0.17501 0.0848,-0.17744 0.320034,-0.003 0.921722,-0.51501 1.540449,-1.31117 1.706838,-2.19629 1.930307,-2.60542 1.51528,-2.77425 -0.138472,-0.0563 -0.08568,-0.10991 0.117303,-0.11907 0.272436,-0.0123 0.368984,-0.19611 0.368774,-0.70206 0,-0.60546 -0.371936,-2.86864 -0.770637,-4.69243 -0.0871,-0.39839 -0.750956,-1.24828 -1.792654,-2.29499 -0.909886,-0.91428 -1.654327,-1.82376 -1.654327,-2.02109 0,-0.19733 -0.06996,-0.42872 -0.155431,-0.51422 -0.0855,-0.0855 -0.267457,-0.82025 -0.404374,-1.63281 -0.208153,-1.23539 -0.197817,-1.59968 0.0631,-2.22418 0.171627,-0.41075 0.257611,-0.88865 0.191092,-1.06201 -0.08659,-0.22561 -0.02314,-0.27767 0.223194,-0.18315 0.269674,0.10349 0.318725,0.0349 0.226673,-0.31716 -0.110512,-0.42256 0.179153,-1.199 0.549362,-1.47262 0.09151,-0.0676 0.18641,-0.39515 0.210891,-0.72784 0.02451,-0.33268 0.208452,-0.77344 0.408803,-0.97945 0.200352,-0.20602 0.3124,-0.50982 0.24896,-0.6751 -0.16074,-0.41894 0.611074,-2.03095 1.266704,-2.64563 0.299959,-0.2812 0.545356,-0.63709 0.545356,-0.79086 0,-0.15377 0.0949,-0.27958 0.210897,-0.27958 0.115994,0 0.210897,-0.1819 0.210897,-0.40422 0,-0.22231 0.08592,-0.43585 0.190942,-0.47451 0.105006,-0.0387 0.299069,-0.9673 0.431264,-2.06363 0.132188,-1.09632 0.329079,-2.10026 0.437564,-2.23095 0.108461,-0.1307 0.225573,-0.41999 0.260223,-0.64287 0.03467,-0.22288 0.140964,-0.53018 0.236226,-0.68289 0.09524,-0.15271 0.12966,-0.32118 0.07645,-0.37439 -0.05321,-0.0532 0.245737,-0.4671 0.664297,-0.91977 1.119372,-1.21062 1.276406,-1.42773 1.134981,-1.56915 -0.07036,-0.0704 -0.02027,-0.12792 0.111498,-0.12792 0.229454,0 0.210431,-0.19164 -0.09935,-1.00176 -0.383409,-1.00263 -0.632201,-2.23561 -0.554742,-2.74918 l 0.08632,-0.57242 -0.325115,0.52723 c -0.303858,0.49273 -0.319024,0.39607 -0.231689,-1.47639 0.05141,-1.10199 0.232723,-2.39833 0.402939,-2.88075 0.170209,-0.48241 0.245522,-0.94836 0.167364,-1.03544 -0.07813,-0.0871 -0.03503,-0.0972 0.09581,-0.0225 0.257079,0.14676 1.177683,-1.10541 1.447632,-1.96901 0.09018,-0.28846 0.222322,-0.57192 0.293689,-0.62992 0.437654,-0.35568 1.772096,-3.13038 1.751788,-3.64251 -0.0082,-0.20549 0.07504,-0.31811 0.184826,-0.25025 0.109795,0.0679 0.261849,-0.0487 0.337897,-0.25906 0.07605,-0.21034 0.319042,-0.64335 0.54,-0.96225 0.23909,-0.34508 0.349034,-0.74589 0.271551,-0.99002 -0.09322,-0.29368 0.02254,-0.5103 0.40753,-0.76254 0.295745,-0.19378 0.537723,-0.51757 0.537723,-0.71954 0,-0.29641 1.19365,-2.10391 1.675291,-2.53682 0.52087,-0.46816 1.488146,-1.95335 1.488146,-2.28493 0,-0.22637 0.152204,-0.46999 0.338232,-0.54138 0.1931,-0.0741 0.286419,-0.26475 0.217497,-0.44435 -0.06639,-0.17302 -0.02983,-0.31457 0.08118,-0.31457 0.292277,0 1.050258,-0.68696 1.050258,-0.95185 0,-0.12398 0.40334,-0.59703 0.89631,-1.05121 0.492964,-0.45419 0.872582,-0.90107 0.843582,-0.99308 -0.02899,-0.092 0.05434,-0.16729 0.185167,-0.16729 0.13082,0 1.033723,-0.80668 2.006439,-1.79262 0.972716,-0.98594 1.809675,-1.79261 1.859909,-1.79261 0.05022,0 0.727845,-0.48177 1.505775,-1.07059 0.902802,-0.68332997 1.555293,-1.03375997 1.803792,-0.96877997 0.214119,0.056 0.389333,-0.006 0.389333,-0.13762 0,-0.13169 0.225029,-0.004 0.500078,0.28336 0.275048,0.28755 0.46321,0.58758 0.418141,0.66675997 -0.125738,0.22086 0.692521,1.54892 0.924628,1.50073 0.114332,-0.0237 0.315437,1.18608 0.45575,2.74165 0.138113,1.53127 0.335595,3.11628 0.438832,3.52226 0.103254,0.40597 0.230254,1.02284 0.282198,1.37082 0.371578,2.48845 0.668751,3.86271 0.81564,3.77192 0.09446,-0.0583 0.171753,0.0474 0.171753,0.2351 0,0.20423 -0.09775,0.28082 -0.243478,0.19075 -0.141449,-0.0874 -0.186578,-0.0584 -0.107709,0.0692 0.220325,0.35646 0.586546,5.17156 0.669977,8.80852 0.04256,1.85588 0.188838,4.32336 0.32505,5.48329 0.1362,1.15993 0.279042,4.18017 0.317445,6.71165 0.03838,2.53149 0.165571,5.09387 0.282641,5.69419 0.117046,0.60032 0.266404,3.62694 0.331907,6.72584 0.0655,3.09889 0.159419,5.75617 0.208679,5.90508 0.36441,1.10143 0.558054,7.79677 0.337203,11.6591 -0.08622,1.5079 -0.07925,2.95517 0.01542,3.21616 0.103996,0.28648 0.09033,0.47451 -0.03449,0.47451 -0.250921,0 -0.236962,2.29704 0.02128,3.50615 0.227624,1.06561 0.249558,3.14432 0.06981,6.61684 -0.07506,1.44991 -0.135309,2.87346 -0.13394,3.16344 0.0024,0.44559 0.20025,4.94209 0.246221,5.58874 0.0083,0.11599 -0.01919,0.65894 -0.06105,1.20655 -0.04376,0.57295 0.0065,0.94467 0.118271,0.87555 0.116771,-0.0722 0.126073,0.2039 0.02332,0.6915 -0.09406,0.44639 -0.155007,1.66575 -0.135441,2.70968 0.01961,1.04394 0.06757,4.413 0.106674,7.486801 0.04227,3.32315 0.1773,6.11211 0.333133,6.87979 0.144127,0.71008 0.302948,3.22501 0.352955,5.58873 0.04998,2.36373 0.187296,4.96201 0.305125,5.77396 0.321636,2.21634 0.657171,4.36398 0.774319,4.95605 0.101826,0.51464 0.152503,1.86741 0.418716,11.17747 0.117279,4.1019 0.337813,6.74682 0.923193,11.07203 0.443919,3.28002 0.482556,3.65955 0.880174,8.64672 0.261873,3.28449 0.335159,3.94077 0.624124,5.58874 0.288273,1.64403 0.282456,2.01538 -0.0751,4.78407 -0.152544,1.18134 -0.245821,2.46253 -0.207268,2.84709 0.28667,2.85919 0.357445,13.17178 0.137252,19.99617 -0.138687,4.29763 -0.146512,3.58368 0.08889,8.11949 0.102352,1.97187 0.164501,4.01229 0.138138,4.53425 -0.02636,0.52197 -0.112766,2.89455 -0.191977,5.2724 -0.07922,2.37785 -0.213174,4.60807 -0.297682,4.95605 -0.08451,0.34797 -0.07202,1.86642 0.02774,3.37433 0.398342,6.02065 0.445773,10.52664 0.133182,12.65374 -0.1193,0.81195 -0.254574,1.82427 -0.30057,2.2496 -0.04597,0.42532 -0.101586,0.85238 -0.123538,0.94903 -0.02194,0.0966 0.07561,0.4567 0.216756,0.80016 0.141508,0.34433 0.191217,0.86465 0.110805,1.15993 -0.253773,0.93185 -0.273746,2.62217 -0.03826,3.24263 0.179135,0.47207 0.330938,0.57836 0.719768,0.50402 0.27102,-0.0518 0.599889,0.0349 0.730817,0.19265 0.130921,0.15775 0.345064,0.29055 0.475842,0.29506 0.321469,0.0112 1.557211,1.71695 2.030418,2.80277 0.981785,2.2528 1.112921,2.60711 1.184163,3.19954 0.172362,1.43365 0.50431,4.31205 0.656639,5.69418 0.161255,1.46305 0.218639,10.75467 0.08271,13.39188 -0.03886,0.75395 -0.06207,2.22495 -0.05159,3.26888 0.01752,1.74411 -0.03366,3.12069 -0.313643,8.43583 -0.055,1.04394 -0.139889,6.54831 -0.188628,12.23195 -0.04878,5.68364 -0.100194,10.47624 -0.114326,10.65023 -0.01411,0.17399 -0.01327,1.36028 0.0024,2.6362 0.01518,1.27592 -0.08235,3.31634 -0.216989,4.53426 -0.334818,3.02926 -0.366538,3.46459 -0.506845,6.95956 -0.06753,1.68189 -0.222854,3.36724 -0.345155,3.74523 -0.122318,0.37799 -0.179368,0.80505 -0.126808,0.94903 0.05255,0.14398 -0.105891,0.49617 -0.352113,0.78263 -0.372295,0.43319 -0.37972,0.46868 -0.04406,0.2109 0.377628,-0.29 0.388107,-0.28087 0.162934,0.14181 -0.13238,0.24847 -0.541386,0.70479 -0.908893,1.01405 -0.576526,0.4851 -0.844915,0.55824 -1.955553,0.53287 -0.708022,-0.0163 -2.093983,0.0196 -3.079923,0.0797 -1.283508,0.0781 -2.02582,0.0218 -2.613753,-0.19826 z m 3.376714,-1.02789 c 0.375117,-0.18712 1.03248,-0.27945 1.677378,-0.23558 0.584077,0.0398 1.197889,-0.0352 1.366311,-0.16678 0.547718,-0.42791 1.493921,-1.82065 1.236921,-1.82065 -0.17852,0 -0.208387,-0.28732 -0.104199,-1.00175 0.194146,-1.33109 0.287931,-2.22548 0.536239,-5.11422 0.114667,-1.33391 0.302512,-3.23198 0.417406,-4.21791 0.174706,-1.49899 0.267923,-11.62978 0.247424,-26.8892 -0.0024,-1.73989 0.06483,-3.99302 0.149274,-5.00696 0.08444,-1.01393 0.07974,-1.86812 -0.01052,-1.89817 -0.0902,-0.0301 -0.07984,-0.3481 0.02302,-0.70673 0.210048,-0.73243 0.189489,-16.96194 -0.02565,-20.22638 -0.07643,-1.15992 -0.232071,-2.39366 -0.345889,-2.74164 -0.1138,-0.34798 -0.267606,-1.26413 -0.341777,-2.03591 -0.07418,-0.77177 -0.267648,-1.57845 -0.429912,-1.79261 -0.162265,-0.21417 -0.298041,-0.55548 -0.301729,-0.75846 -0.0036,-0.20299 -0.09863,-0.36907 -0.210981,-0.36907 -0.112365,0 -0.151044,-0.13873 -0.08598,-0.30829 0.173187,-0.45134 -0.743382,-2.20757 -1.578195,-3.02391 -0.372271,-0.36405 -0.691043,-0.47048 -1.265376,-0.42255 -0.564755,0.0471 -0.915433,-0.0656 -1.326341,-0.42626 -0.478921,-0.4204 -0.534345,-0.58584 -0.388556,-1.15993 0.09353,-0.36829 0.221377,-2.37785 0.2841,-4.46571 0.06357,-2.11585 0.261783,-4.54291 0.447834,-5.48329 0.245714,-1.24205 0.304049,-2.38264 0.221126,-4.32337 -0.198851,-4.65311 -0.169582,-11.15581 0.07164,-15.92262 0.271235,-5.36002 0.309614,-10.2284 0.08063,-10.22853 -0.128757,-8e-5 -0.356608,-6.80731 -0.342368,-10.22835 0.0024,-0.46398 0.02068,-3.50087 0.04155,-6.74866 0.02086,-3.2478 -0.01309,-6.61686 -0.07561,-7.48681 -0.06249,-0.86994 -0.02415,-3.31201 0.08516,-5.42683 0.154015,-2.97889 0.134084,-4.33295 -0.08847,-6.01053 -0.158003,-1.19097 -0.347516,-3.39914 -0.421137,-4.90705 -0.07363,-1.50791 -0.276907,-3.83303 -0.451762,-5.16694 -0.174831,-1.33392 -0.387964,-3.14482 -0.473607,-4.02422 -0.08564,-0.87941 -0.215703,-1.69597 -0.288989,-1.81458 -0.158134,-0.25586 -0.5818,-8.41699 -0.654835,-12.61458 -0.07373,-4.23588 -0.311048,-7.28504 -0.755045,-9.7012 -0.508722,-2.76839 -0.648169,-4.56472 -0.671137,-8.64672 -0.01052,-1.85589 -0.104707,-3.6028 -0.209504,-3.88202 -0.104791,-0.27923 -0.237697,-0.991 -0.295314,-1.58172 -0.09145,-0.93728 -0.388388,-21.465141 -0.3557,-24.588901 0.02553,-2.43733 0.04436,-10.9499 0.02846,-12.86464 -0.0091,-1.10193 0.02846,-3.90157 0.08352,-6.22142 0.05506,-2.31985 0.02355,-4.88224 -0.07,-5.69419 -0.09355,-0.81194 -0.235067,-2.99471 -0.314469,-4.8506 -0.0794,-1.85588 -0.183391,-3.44049 -0.231097,-3.52135 -0.04771,-0.0809 -0.13244,-1.78911 -0.188288,-3.79612 -0.05584,-2.00701 -0.159861,-4.07617 -0.231121,-4.59813 -0.07126,-0.52197 -0.155916,-2.79965 -0.188096,-5.0615 -0.03216,-2.26186 -0.160495,-4.72934 -0.285134,-5.48329 -0.124656,-0.75395 -0.276142,-3.07908 -0.336653,-5.16695 -0.192652,-6.64687 -0.338339,-9.0333 -0.637264,-10.43933 -0.160298,-0.75396 -0.353901,-1.93407 -0.430248,-2.62248 -0.07634,-0.68841 -0.222261,-1.47119 -0.324272,-1.73951 -0.102029,-0.26832 -0.234391,-1.17607 -0.294179,-2.01723 -0.09545,-1.34307 -0.538182,-4.25315 -0.846786,-5.56583 -0.07896,-0.33586 -0.303499,-0.47428 -0.878232,-0.54138 -0.630246,-0.0736 -0.892238,0.0216 -1.425381,0.51775 -3.045232,2.83401 -4.62733,4.16553 -4.949409,4.16553 -0.130879,0 -0.237972,0.0974 -0.237972,0.21652 0,0.11908 -0.308436,0.55457 -0.685412,0.96776 -0.376976,0.41319 -0.76433,0.89056 -0.860769,1.06083 -0.368164,0.65003 -2.870335,4.00285 -3.402026,4.55862 -0.306409,0.32027 -0.508638,0.66069 -0.449437,0.75649 0.05924,0.0958 -0.04501,0.39211 -0.231545,0.65846 -0.619988,0.88515 -1.330371,2.34324 -1.330371,2.73062 0,0.2102 -0.20166,0.63857 -0.448151,0.95192 -0.246473,0.31336 -0.448158,0.80311 -0.448158,1.08836 0,0.28523 -0.201655,0.68455 -0.448152,0.88737 -0.246473,0.20281 -0.47757,0.50214 -0.513511,0.66517 -0.03593,0.16303 -0.258788,0.56804 -0.495157,0.90002 -0.294813,0.41402 -0.387546,0.77197 -0.295255,1.13968 0.09222,0.36748 0.06048,0.4903 -0.100959,0.39053 -0.311916,-0.19277 -0.940572,0.50193 -1.127233,1.24563 -0.082,0.32673 -0.3278,0.84552 -0.546223,1.15287 -0.370352,0.52113 -0.378788,0.68695 -0.125165,2.4601 0.222854,1.55787 0.410549,2.11791 1.039145,3.10058 0.421938,0.6596 0.767176,1.33051 0.767176,1.4909 0,0.16038 -0.260982,0.53181 -0.579964,0.82538 -1.067828,0.98277 -2.721587,3.00786 -3.088609,3.78213 -0.208936,0.44076 -0.380413,1.35843 -0.403591,2.15972 -0.02218,0.76632 -0.104121,1.3942 -0.182112,1.39528 -0.07801,10e-4 -0.257562,0.35785 -0.399011,0.79282 -0.353906,1.08829 -1.238146,2.80642 -1.726268,3.35426 -0.222703,0.24995 -0.494004,0.86681 -0.602866,1.37083 -0.177192,0.82035 -0.464119,1.55962 -1.084065,2.79315 -0.110721,0.22029 -0.46452,1.21946 -0.786222,2.22039 -0.457686,1.42405 -0.553175,2.025 -0.438957,2.76292 0.192885,1.24611 0.483668,1.71524 2.168471,3.4984 1.455816,1.54084 1.781123,2.09715 2.081985,3.56063 0.09539,0.46397 0.317673,1.46045 0.493962,2.2144 0.534135,2.28429 0.459857,2.77587 -0.6197,4.10128 -0.521964,0.64084 -0.949031,1.25382 -0.949031,1.36218 0,0.10837 -0.425501,0.60795 -0.945551,1.11019 -0.520045,0.50223 -0.947112,1.02844 -0.949031,1.16935 -0.0024,0.14091 -0.217007,0.36947 -0.477995,0.50792 -0.540442,0.2867 -1.997011,1.72117 -2.537472,2.49896 -0.57444,0.82667 -0.437696,1.26983 0.744859,2.41417 0.608964,0.58928 1.243126,1.27986 1.409247,1.53463 0.166102,0.25477 0.394312,0.40619 0.507102,0.33648 0.116012,-0.0717 0.137228,-0.017 0.04884,0.12602 -0.08592,0.13902 -0.01202,0.47278 0.16416,0.7417 0.490208,0.74816 1.051126,2.8668 1.024577,3.86991 -0.01626,0.61029 -0.195629,1.12297 -0.560732,1.60162 -0.295315,0.38721 -0.537741,0.78995 -0.538691,0.895 0,0.10504 -0.475484,0.69664 -1.054479,1.31466 -0.579014,0.61802 -1.052746,1.20388 -1.052746,1.30192 0,0.098 -0.251602,0.47723 -0.559088,0.84268 -0.738893,0.87811 -0.761753,2.50375 -0.05398,3.83684 0.813889,1.53301 2.144367,3.60776 2.871178,4.47741 0.380097,0.45477 0.875996,1.321151 1.102036,1.925301 0.438473,1.1719 0.708966,2.83659 0.460933,2.83659 -0.08237,0 -0.156718,0.68805 -0.165236,1.529 -0.01477,1.44745 -0.10127,1.75415 -0.98273,3.47978 -0.133312,0.26098 -0.407494,0.47451 -0.609298,0.47451 -0.201811,0 -0.524314,0.24022 -0.71669,0.53382 -0.192377,0.2936 -0.386063,0.49753 -0.430415,0.45317 -0.109143,-0.10912 -2.392974,2.20454 -2.392974,2.42421 0,0.0957 -0.07118,0.16279 -0.15817,0.14906 -0.580173,-0.0916 -1.129517,0.06 -1.045685,0.28858 0.05315,0.145 0.21058,0.23752 0.349811,0.2056 0.161213,-0.0369 0.2063,0.0896 0.124178,0.3483 -0.133056,0.41924 -0.05859,0.50522 2.027405,2.34157 0.896793,0.78944 2.287693,3.07018 2.287693,3.75122 0,0.14308 0.07394,0.26015 0.164303,0.26015 0.09037,0 0.146172,0.49536 0.123969,1.10081 -0.02917,0.79599 -0.152144,1.19133 -0.444105,1.42775 -0.222052,0.17982 -0.364828,0.44375 -0.31723,0.58651 0.05225,0.15674 -0.03629,0.21242 -0.223553,0.14057 -0.19267,-0.0739 -0.489485,0.13298 -0.78392,0.54646 -0.468167,0.65748 -0.468442,0.66208 -0.02391,0.38445 0.247466,-0.15455 0.449951,-0.40612 0.449951,-0.55905 0,-0.15293 0.102029,-0.215 0.226751,-0.13792 0.260713,0.16112 -0.572515,1.15013 -0.968955,1.15013 -0.1358,0 -0.415278,0.18604 -0.621046,0.41341 -0.205774,0.22739 -0.434025,0.39839 -0.50721,0.38001 -0.253007,-0.0635 -1.08208,0.2901 -1.08208,0.46156 0,0.0947 -0.189806,0.22173 -0.421794,0.28239 -1.516148,0.39648 0.970671,5.579 3.512597,7.32024 0.42333,0.28998 0.873592,0.71705 1.000592,0.94903 0.127,0.23199 0.441468,0.71969 0.698827,1.08378 0.257336,0.36409 0.522006,0.96911 0.588142,1.34447 0.126582,0.71854 -0.222662,2.10601 -0.530106,2.10601 -0.09929,0 -0.210556,0.26099 -0.247274,0.57997 -0.03671,0.31897 -0.172684,0.56046 -0.302195,0.53662 -0.129511,-0.0239 -0.41422,0.30832 -0.632685,0.73813 -0.459164,0.90333 -1.456318,1.97194 -1.654835,1.77342 -0.07453,-0.0745 -0.07242,0.0289 0.0048,0.22982 0.154589,0.40285 -0.267122,1.05566 -0.563578,0.87243 -0.102854,-0.0636 -0.187002,-0.0151 -0.187002,0.10777 0,0.12283 -0.131573,0.22334 -0.292403,0.22334 -0.451153,0 -0.665948,1.52326 -0.446107,3.16343 0.03886,0.28999 0.08638,0.52725 0.105592,0.52725 0.01919,0 0.07706,0.25536 0.128566,0.56747 0.124321,0.75336 0.680892,2.06833 0.876246,2.07023 0.08543,6e-4 0.622564,0.56861 1.193627,1.26173 1.266936,1.53774 3.383971,3.27102 3.995254,3.27102 0.247358,0 0.469476,0.087 0.493556,0.19327 0.07734,0.34114 3.062311,0.99504 3.857769,0.84509 0.405976,-0.0765 2.019328,-0.17559 3.585226,-0.22014 1.565904,-0.0445 3.369062,-0.10453 4.00702,-0.13327 0.740094,-0.0334 1.23625,0.0444 1.370824,0.21464 0.13421,0.16985 0.862479,0.28488 2.002727,0.31634 1.399269,0.0386 1.875303,0.13273 2.172751,0.42959 0.438999,0.4381 0.598885,1.62976 0.33984,2.53301 -0.09815,0.34222 -0.241541,2.29423 -0.318641,4.33782 -0.162791,4.31484 -0.160537,4.48054 0.06339,4.64565 0.09282,0.0684 0.185358,0.40914 0.20569,0.75711 0.02027,0.34798 0.06801,1.0834 0.105975,1.63427 0.03796,0.55086 0.0024,1.02538 -0.08151,1.05448 -0.0828,0.0291 -0.148516,0.43251 -0.146005,0.89648 0.0024,0.46397 -0.02248,1.36555 -0.05548,2.00351 -0.03306,0.63796 -0.05135,2.58347 -0.04077,4.32336 0.01052,1.73989 0.02702,4.49208 0.03647,6.11598 0.0097,1.65942 0.163466,3.79572 0.351204,4.87774 0.220659,1.27176 0.275174,2.20232 0.160639,2.74165 -0.09537,0.44904 -0.146764,1.05369 -0.114201,1.34368 0.03258,0.28998 0.0686,0.8594 0.08008,1.26537 0.05488,1.94154 0.441068,4.74311 0.674234,4.89124 0.179135,0.11382 0.145179,0.16477 -0.111272,0.16703 -0.302314,0.003 -0.371745,0.20349 -0.383892,1.11043 -0.01094,0.81315 -0.06295,0.99518 -0.196065,0.68541 -0.166002,-0.38627 -0.182214,-0.3774 -0.192784,0.10545 -0.0063,0.28998 0.116186,1.06987 0.272245,1.73308 0.15826,0.67244 0.240064,1.7793 0.184958,2.50228 -0.06424,0.84259 -0.0024,1.47734 0.1777,1.81315 0.228676,0.42728 0.228102,0.5466 -0.003,0.68961 -0.200961,0.1242 -0.236435,0.40253 -0.125947,0.98802 0.195772,1.03738 0.240016,2.3111 0.399728,11.50409 0.07662,4.41082 0.222495,7.76685 0.35243,8.10858 0.121918,0.32069 0.226398,1.44211 0.232173,2.49203 0.006,1.04992 0.142651,2.39575 0.304156,2.99073 0.161524,0.59498 0.285469,1.84715 0.275449,2.78262 -0.0099,0.93547 0.0318,1.78174 0.09288,1.88056 0.102137,0.16528 -0.146871,3.18676 -0.343445,4.16715 -0.09853,0.49141 -0.192675,0.50803 -3.6714,0.64806 -1.663019,0.0669 -2.781291,0.21254 -3.163438,0.41186 -0.325091,0.16956 -0.699497,0.3089 -0.832002,0.3096 -0.13253,0 -0.602806,0.47582 -1.045094,1.05578 -0.442293,0.57996 -0.895376,1.05448 -1.006881,1.05448 -0.11148,0 -0.150577,0.0521 -0.08684,0.11584 0.06371,0.0637 0.02439,0.51451 -0.08734,1.00176 -0.404368,1.76326 -0.605921,3.02252 -0.714388,4.46346 -0.0608,0.80773 -0.222728,1.60376 -0.359849,1.76899 -0.137103,0.16522 -0.263642,0.833 -0.281146,1.48395 -0.01752,0.65095 -0.08854,2.13258 -0.157811,3.29251 -0.164477,2.75412 -0.418082,8.52963 -0.398175,9.06851 0.0087,0.23199 0.07091,1.98151 0.138562,3.88782 0.06765,1.90633 0.216104,3.9942 0.32988,4.63971 0.113782,0.64553 0.171543,1.60073 0.128375,2.1227 -0.04316,0.52197 0.01184,1.42355 0.12236,2.00351 0.11047,0.57997 0.241727,1.29174 0.291734,1.58172 0.04998,0.28998 0.181957,0.90685 0.293311,1.37082 0.111331,0.46397 0.311492,1.46037 0.444798,2.21422 0.133289,0.75384 0.375314,1.68878 0.537788,2.07768 0.18949,0.45353 0.327435,1.81484 0.38467,3.79631 0.04908,1.6991 0.137593,3.23162 0.196687,3.40561 0.05912,0.17399 0.162134,1.01593 0.228969,1.87098 0.143344,1.83426 0.453592,3.84701 0.751632,4.87629 0.11734,0.40521 0.213343,0.99836 0.213343,1.3181 0,0.31973 0.07391,0.58135 0.164261,0.58135 0.09035,0 0.28334,0.87423 0.42886,1.94271 0.145514,1.06848 0.344389,1.99378 0.441929,2.05623 0.09752,0.0625 0.243083,0.41667 0.323453,0.78717 0.08035,0.37051 0.465614,1.07739 0.856113,1.57088 0.390492,0.49347 0.692556,0.95527 0.671238,1.02622 -0.08543,0.28433 1.458805,2.09729 1.75385,2.05905 0.173988,-0.0225 0.695952,0.1954 1.159928,0.48433 0.46397,0.28892 0.996354,0.61739 1.183057,0.72993 0.186728,0.11253 0.573047,0.37046 0.858474,0.57315 0.285444,0.2027 1.081703,0.47749 1.769477,0.61069 0.687774,0.13318 1.426523,0.3944 1.641695,0.58049 0.215159,0.1861 0.426582,0.30658 0.469816,0.26777 0.214478,-0.19258 2.393369,-0.66155 3.040545,-0.65442 0.405976,0.004 1.402455,0.23112 2.214407,0.50368 1.813847,0.6089 1.798644,0.60752 2.555567,0.22991 z"
       inkscape:label="knife" /></g></svg>
