<?xml version="1.0" encoding="UTF-8" standalone="no"?>
<!-- Created with Inkscape (http://www.inkscape.org/) -->

<svg
   width="248.74965mm"
   height="108.93456mm"
   viewBox="0 0 248.74965 108.93456"
   version="1.1"
   id="svg5"
   xml:space="preserve"
   xmlns:inkscape="http://www.inkscape.org/namespaces/inkscape"
   xmlns:sodipodi="http://sodipodi.sourceforge.net/DTD/sodipodi-0.dtd"
   xmlns="http://www.w3.org/2000/svg"
   xmlns:svg="http://www.w3.org/2000/svg"><sodipodi:namedview
     id="namedview7"
     pagecolor="#ffffff"
     bordercolor="#666666"
     borderopacity="1.0"
     inkscape:showpageshadow="2"
     inkscape:pageopacity="0.0"
     inkscape:pagecheckerboard="0"
     inkscape:deskcolor="#d1d1d1"
     inkscape:document-units="mm"
     showgrid="false" /><defs
     id="defs2" /><g
     inkscape:label="Layer 1"
     inkscape:groupmode="layer"
     id="layer1"
     transform="translate(212.46313,-452.05341)"><path
       style="fill:#000000;stroke-width:0.352778"
       d="m -52.13875,560.80334 c -0.0685,-0.18765 -0.680166,-0.43228 -1.359263,-0.54362 -2.106648,-0.34542 -2.754232,-0.50709 -3.416688,-0.85297 -0.352143,-0.18386 -1.895666,-0.44898 -3.430052,-0.58915 -1.534389,-0.14018 -3.399701,-0.47006 -4.145138,-0.73306 -0.745441,-0.26301 -1.355344,-0.39291 -1.355344,-0.28868 0,0.10423 -0.556133,-0.1542 -1.235855,-0.57429 -0.679718,-0.42009 -2.844634,-1.21222 -4.810922,-1.76029 -4.081296,-1.1376 -5.358761,-2.07506 -4.818355,-3.53592 0.48787,-1.31884 0.985435,-1.41593 2.466125,-0.48121 0.750108,0.47352 1.875179,0.9491 2.500167,1.05683 1.484129,0.25585 4.487531,1.27815 4.488434,1.52778 3.53e-4,0.10719 0.58782,0.23699 1.305401,0.28844 0.717582,0.0515 1.429209,0.28957 1.581394,0.52916 0.211091,0.33235 0.277978,0.32084 0.282099,-0.0485 0.0046,-0.41038 0.09612,-0.41038 0.600618,0 0.529174,0.43044 0.564988,0.40587 0.322763,-0.22139 -0.149846,-0.38806 -0.365206,-1.26118 -0.478571,-1.94028 -0.184425,-1.10478 -0.663427,-2.14825 -2.597591,-5.65863 -0.313873,-0.56966 -0.763552,-1.26815 -0.999285,-1.55219 -0.23573,-0.28404 -0.336413,-0.8069 -0.223735,-1.16192 0.272058,-0.85718 1.858994,-0.9885 2.131179,-0.17635 0.112734,0.33637 0.995733,1.48101 1.962221,2.54363 0.966484,1.06262 1.757246,2.11499 1.757246,2.33862 0,0.58976 1.750081,4.32222 2.139438,4.56286 0.181505,0.11217 0.330006,0.57202 0.330006,1.02188 0,1.15378 0.614483,1.50513 2.691007,1.53869 1.161834,0.0188 2.234642,0.28869 2.998611,0.75445 0.688075,0.41948 1.799487,0.72577 2.636393,0.72653 1.279108,10e-4 1.694673,-0.23384 3.584606,-2.02716 2.70455,-2.56627 2.926429,-3.01929 2.526711,-5.15888 -0.52258,-2.79723 -1.038595,-4.45431 -1.387076,-4.45431 -0.18046,0 -0.236732,-0.23812 -0.125049,-0.52917 0.111777,-0.29128 0.01055,-0.52916 -0.225203,-0.52916 -0.237236,0 -0.336974,-0.23791 -0.223601,-0.53335 0.299681,-0.78096 -0.430294,-2.22063 -2.189082,-4.31735 -0.854466,-1.01864 -1.422703,-1.85208 -1.262743,-1.85208 0.159964,0 -0.329223,-0.635 -1.087074,-1.41111 -0.757851,-0.77611 -1.555189,-1.41111 -1.771858,-1.41111 -0.522153,0 -4.93092,-3.42208 -4.93092,-3.82737 0,-0.61862 -3.566636,-3.49973 -5.948919,-4.80552 -2.57816,-1.41314 -5.501153,-2.27012 -7.813019,-2.29066 -1.038221,-0.009 -1.672343,0.22632 -2.382781,0.88508 -0.800216,0.742 -1.181886,0.85753 -2.201259,0.6663 -1.550733,-0.29093 -1.604793,-1.04271 -0.191385,-2.66156 0.572988,-0.65627 0.930176,-1.29221 0.79375,-1.41318 -0.43905,-0.38933 -3.599441,-0.66774 -3.599441,-0.31709 0,0.18349 -0.317909,0.50376 -0.706462,0.71171 -0.563965,0.30182 -0.862013,0.23317 -1.477631,-0.34037 -0.424145,-0.39515 -0.862986,-0.71845 -0.975205,-0.71845 -0.112222,0 -0.221128,-0.65185 -0.24202,-1.44855 -0.02177,-0.83034 0.08003,-1.25759 0.238542,-1.00112 0.215215,0.34823 0.406534,0.31742 0.862905,-0.13895 0.32501,-0.32501 1.141052,-0.58638 1.830782,-0.58638 1.287427,0 3.371261,-0.79541 4.423731,-1.68855 0.415667,-0.35275 0.988526,-0.43966 1.842255,-0.2795 1.320902,0.24781 2.621491,-0.25179 4.630811,-1.77884 0.970679,-0.7377 1.523813,-0.83254 5.505277,-0.94386 3.703461,-0.10356 4.666686,-0.24913 5.899125,-0.89151 0.810123,-0.42226 1.875194,-0.76774 2.366825,-0.76774 1.408938,0 4.370687,-1.3802 6.551133,-3.05287 1.099273,-0.84329 2.202797,-1.53324 2.452278,-1.53324 0.544272,0 3.561976,-3.12021 3.349917,-3.46371 -0.08165,-0.13225 0.209748,-0.26189 0.647542,-0.28809 1.097876,-0.0657 2.027939,1.55265 1.73476,3.01855 -0.223213,1.11606 -3.324116,4.1878 -5.359993,5.30959 -0.518446,0.28567 -1.657004,0.94266 -2.530129,1.45998 -1.374905,0.81462 -3.905098,1.65162 -7.055555,2.334 -0.48507,0.10506 -1.040695,0.31228 -1.234722,0.46047 -0.194028,0.14819 -1.212611,0.52304 -2.263514,0.833 -1.050904,0.30996 -2.20919,0.83367 -2.573966,1.16379 -1.056633,0.95623 -3.037028,0.7222 -4.021814,-0.47528 -0.52995,-0.64441 -0.923114,-0.8682 -1.098339,-0.62518 -0.150107,0.20818 -0.511048,0.49222 -0.802089,0.63119 -1.144725,0.54663 -2.178107,1.21712 -2.923642,1.89694 -0.429289,0.39145 -1.256775,0.97596 -1.838858,1.29891 l -1.058333,0.58718 1.125114,-0.12726 c 0.642934,-0.0727 1.096493,0.028 1.058333,0.23517 -0.03673,0.19934 0.250719,0.39729 0.638775,0.43989 1.915805,0.2103 3.704166,0.7943 3.704166,1.20963 0,0.18095 0.456812,0.329 1.015139,0.329 0.558324,0 1.209097,0.23371 1.44616,0.51936 0.237063,0.28564 1.267742,0.90241 2.290395,1.37059 1.022654,0.46819 2.494559,1.42511 3.270899,2.12649 0.776344,0.70137 1.569138,1.27523 1.761769,1.27523 0.192631,0 0.781696,0.6226 1.309035,1.38355 0.527339,0.76094 2.033157,2.10436 3.346263,2.98536 2.244651,1.50599 4.963117,3.96504 4.963117,4.48949 0,0.12975 0.559382,0.84876 1.243073,1.59779 0.683687,0.74902 1.341261,1.81207 1.461272,2.36233 0.120008,0.55025 0.426135,1.08025 0.680276,1.17777 0.254141,0.0975 0.56685,0.87601 0.694908,1.72996 0.128059,0.85396 0.356398,1.47629 0.507415,1.38296 0.325268,-0.20103 0.568071,1.02196 1.036045,5.21854 0.393971,3.53292 0.164747,4.39098 -1.423681,5.32929 -0.567729,0.33536 -1.943262,1.45087 -3.056742,2.47891 -1.794167,1.65649 -2.251166,1.89715 -4.016636,2.11523 -1.197274,0.14788 -2.041817,0.10994 -2.116666,-0.0951 z m 14.692125,-3.48202 c -0.813308,-0.19814 -1.940278,-1.11828 -1.940278,-1.5842 0,-0.77206 2.902719,-4.48988 4.020372,-5.14931 1.546532,-0.91247 2.850286,-2.95539 3.166826,-4.96226 0.239116,-1.51599 0.227563,-1.53954 -0.670983,-1.36777 -1.269792,0.24274 -2.096781,-1.04117 -1.809789,-2.8097 0.315775,-1.94589 -0.367778,-6.02925 -1.182726,-7.06529 -0.385812,-0.49048 -0.701478,-1.1085 -0.701478,-1.37337 0,-0.26488 -0.124604,-0.48159 -0.276899,-0.48159 -0.152297,0 -1.06511,-0.79591 -2.028472,-1.76868 -0.963365,-0.97277 -2.545323,-2.25893 -3.515462,-2.85814 -0.970139,-0.5992 -2.319514,-1.61685 -2.998611,-2.26144 -2.06037,-1.95569 -5.101907,-3.30246 -8.819444,-3.90522 -1.843264,-0.29886 -3.698314,-0.47719 -4.122332,-0.39629 -1.562847,0.29819 -2.341566,-1.33132 -1.151082,-2.4087 0.924768,-0.8369 3.041414,-0.78361 6.869222,0.17294 1.519117,0.37962 2.892767,0.60942 3.052554,0.51066 0.159791,-0.0987 0.290527,0.0679 0.290527,0.37043 0,0.3025 0.119062,0.51179 0.264583,0.46509 0.454642,-0.14588 3.757168,1.40614 4.662022,2.19091 0.474436,0.41148 1.41956,1.09236 2.100273,1.51306 0.680716,0.42071 1.481578,0.97507 1.7797,1.23192 0.298118,0.25685 1.395469,1.2128 2.438559,2.12433 1.043089,0.91154 2.107339,1.65968 2.365001,1.66254 0.651615,0.007 3.712862,4.58511 4.013834,6.00242 0.0412,0.19403 0.211173,0.51696 0.377709,0.71762 0.168642,0.2032 0.167121,0.96642 -0.0035,1.72262 -0.178759,0.79259 -0.172138,1.71043 0.01591,2.20502 0.177172,0.466 0.284278,0.96083 0.238015,1.09962 -0.192976,0.57893 0.625327,0.47135 0.961408,-0.12639 0.201073,-0.35763 1.381855,-2.08559 2.623957,-3.83992 2.987471,-4.21944 3.33332,-5.10102 3.068934,-7.82275 -0.266425,-2.74273 -0.464333,-3.26653 -1.648375,-4.36276 -0.523925,-0.48507 -1.399396,-1.6757 -1.945496,-2.64584 -2.670182,-4.74356 -7.170208,-9.34861 -9.135402,-9.34861 -0.395224,0 -0.904445,0.2976 -1.131605,0.66134 -0.524397,0.8397 -2.241074,0.59251 -2.489768,-0.3585 -0.0942,-0.36059 -0.277809,-0.65562 -0.407917,-0.65562 -0.130108,0 -0.258914,-0.29678 -0.28624,-0.65953 -0.07542,-1.00117 1.17851,-1.42601 4.529913,-1.53477 2.580245,-0.0837 3.01419,-0.0183 2.854208,0.43041 -0.103769,0.29105 -0.06387,0.41644 0.08865,0.27866 0.15253,-0.13778 0.716142,-0.0236 1.252473,0.25375 1.107546,0.57274 5.189954,4.93098 6.605976,7.05232 0.518065,0.77611 1.799558,2.48182 2.847763,3.79046 1.160074,1.44831 1.826084,2.58716 1.702036,2.91042 -0.112084,0.29208 -0.05002,0.53106 0.137915,0.53106 0.187939,0 0.341708,0.22326 0.341708,0.49614 0,0.6878 1.180052,0.33075 2.041059,-0.61756 0.379779,-0.41829 1.206842,-2.14591 1.837919,-3.83916 0.631074,-1.69325 1.663139,-3.67526 2.293479,-4.40445 1.109342,-1.28332 1.131041,-1.36839 0.677196,-2.65473 -0.668098,-1.89359 -1.176168,-5.00094 -1.269732,-7.76566 -0.04432,-1.30968 -0.206689,-2.38125 -0.360811,-2.38125 -0.154121,0 -0.281107,-0.43656 -0.28219,-0.97013 -0.0045,-2.21399 -0.75504,-3.78032 -2.676003,-5.58458 -1.049475,-0.98572 -1.908139,-1.9533 -1.908139,-2.15019 0,-0.52621 1.204288,-1.52565 1.838356,-1.52565 0.301445,0 1.195748,0.64766 1.987335,1.43926 l 1.439256,1.43925 1.336276,-0.98262 c 0.734952,-0.54044 2.130026,-1.62792 3.100165,-2.41663 2.3803716,-1.93521 4.5287952,-3.35982 5.066866,-3.35982 0.2435542,0 0.3572369,-0.13849 0.2526242,-0.30775 -0.197478,-0.31953 1.7234358,-0.73994 3.4117596,-0.74669 1.1573086,-0.005 1.190184,-0.13662 0.2645833,-1.06222 -0.9843276,-0.98433 -0.8835884,-1.90717 0.4140764,-3.79326 1.39551478,-2.02831 2.15154928,-4.96414 1.57499399,-6.116 -0.50480028,-1.0085 -4.57486089,-3.81943 -5.91979429,-4.08841 -0.5544926,-0.1109 -1.0081648,-0.3207 -1.0081648,-0.46622 0,-0.21778 -1.0110187,-0.52626 -2.3829468,-0.72708 -0.1445859,-0.0212 -0.4338037,-0.18032 -0.6427011,-0.35369 -0.5373865,-0.44599 -2.5764875,0.39171 -2.8198375,1.15844 -0.109604,0.34534 -0.36432,0.62789 -0.566032,0.62789 -0.201711,0 -0.286431,-0.2093 -0.18827,-0.46511 0.09816,-0.25581 0.05966,-1.11489 -0.08557,-1.90907 -0.229761,-1.25647 -0.167502,-1.49563 0.479485,-1.84189 1.021362,-0.54662 3.7474982,-0.59623 4.6833753,-0.0852 0.423806,0.2314 0.9947275,0.42073 1.2687158,0.42073 0.6138757,0 2.8213049,1.06258 3.1135672,1.49876 0.1176725,0.17562 0.4351725,0.27966 0.7055555,0.23119 0.9819322,-0.17602 2.65757369,0.9175 4.9895194,3.25615 2.1292537,2.13537 2.3812499,2.53454 2.3812499,3.77192 0,2.44815 -1.4934988,5.67005 -3.82181086,8.24474 l -0.86033325,0.95136 0.87128347,0.21868 c 0.90987384,0.22836 4.78438264,-0.89704 6.17969984,-1.79498 0.4297362,-0.27655 1.0950539,-0.50282 1.4784845,-0.50282 0.3834307,0 0.7825881,-0.13825 0.8870139,-0.30721 0.1044292,-0.16897 0.7091115,-0.42927 1.3437373,-0.57845 1.400927,-0.32932 1.234013,-0.27249 2.747229,-0.93546 0.682321,-0.29893 2.031696,-0.66194 2.998611,-0.80666 0.966918,-0.14473 1.916779,-0.36398 2.110807,-0.48721 0.557219,-0.35393 2.151309,-0.48401 6.748878,-0.55072 l 4.279434,-0.0621 1.687718,-1.66388 c 0.928242,-0.91513 1.837898,-1.66388 2.021451,-1.66388 0.183558,0 -0.04104,-0.30364 -0.499096,-0.67476 -0.791739,-0.64147 -0.833723,-0.8895 -0.850924,-5.02708 -0.02113,-5.08255 -0.441935,-6.75578 -2.359988,-9.38389 -1.899924,-2.60327 -4.396528,-5.36234 -4.635754,-5.12312 -0.110582,0.11059 -0.403331,0.0348 -0.650554,-0.16839 -0.559523,-0.45989 -2.691687,-0.80863 -5.130966,-0.83924 -1.458891,-0.0183 -1.937476,-0.1695 -2.222559,-0.70219 -0.199824,-0.37337 -0.486174,-0.60294 -0.636327,-0.51014 -0.483976,0.29912 -0.23792,-1.36565 0.282723,-1.91285 0.348608,-0.36639 1.162484,-0.51808 2.645834,-0.49313 5.260336,0.0885 5.076334,0.0233 9.120271,3.23006 2.306595,1.82908 3.271538,3.00149 5.223207,6.34621 0.501731,0.85985 1.057356,1.66822 1.234722,1.79637 0.480571,0.34721 0.575585,0.9801 0.670616,4.46704 0.0476,1.74664 0.196815,3.73102 0.331587,4.40972 0.156231,0.78678 0.127469,1.06388 -0.07936,0.76458 -0.23895,-0.34578 -0.379479,-0.19401 -0.533523,0.5762 -0.115016,0.5751 -0.313383,1.46103 -0.44081,1.96874 -0.211339,0.84203 -0.138702,0.9231 0.827151,0.9231 1.305863,0 1.826165,0.95724 0.680896,1.2527 -0.429711,0.11086 -1.019422,0.70706 -1.310463,1.3249 -0.291042,0.61784 -0.892306,1.30043 -1.336142,1.51685 -1.166231,0.5687 -2.544414,1.94266 -2.544414,2.53662 0,0.42509 -0.09337,0.43338 -0.556055,0.0494 -0.460837,-0.38246 -0.610475,-0.37476 -0.87389,0.045 -0.174809,0.27856 -0.236453,0.76834 -0.136981,1.08839 0.110557,0.35572 -0.176163,0.86274 -0.737647,1.3044 -1.184356,0.93162 -2.467511,0.44701 -2.765827,-1.04456 -0.171306,-0.85653 -0.375218,-1.01814 -1.284683,-1.01814 -2.031929,0 -7.833734,0.75252 -8.765772,1.13695 -2.547945,1.05094 -4.559512,1.66336 -5.497682,1.67376 -0.5716552,0.006 -1.6035302,0.39823 -2.2930555,0.87088 -1.5857501,1.08699 -8.07739368,3.02119 -10.1398242,3.02119 -0.9517979,0 -1.4772322,0.13787 -1.3444149,0.35278 0.1199162,0.19402 0.026035,0.35277 -0.208601,0.35277 -1.2585171,0 -4.3325449,2.05687 -6.8328994,4.57198 l -2.782722,2.79914 0.388116,1.34152 c 0.213462,0.73784 0.313845,1.96306 0.223075,2.72272 -0.107876,0.90279 -0.0072,1.47866 0.290661,1.66259 0.250638,0.15478 0.48388,0.80324 0.518319,1.44104 0.08981,1.6633 0.451065,4.13704 0.813318,5.56935 0.680692,2.69136 0.716531,3.82519 0.139153,4.40257 -0.645668,0.64567 -2.742166,5.46531 -3.11423,7.15932 -0.256113,1.16606 -2.566236,3.96033 -3.274159,3.96033 -1.228492,0 -3.980684,3.7212 -3.42144,4.62608 0.108025,0.17478 -0.03745,0.40753 -0.323282,0.51721 -0.285827,0.10969 -0.617421,0.58882 -0.736868,1.06474 -0.11945,0.47592 -0.737912,1.45662 -1.374365,2.17933 -2.324337,2.63937 -6.233241,9.96269 -6.233241,11.67797 0,1.40296 -2.94319,5.00863 -5.555432,6.8059 -0.833053,0.57315 -1.422632,1.19097 -1.310174,1.37293 0.112459,0.18196 0.155413,0.31242 0.09546,0.28991 -0.05996,-0.0225 -0.426516,-0.11827 -0.814571,-0.2128 z m -49.388887,-5.7301 c -2.191858,-1.88947 -5.820833,-5.66224 -5.820833,-6.05147 0,-0.27419 -0.826396,-1.51985 -1.836438,-2.76815 l -1.836437,-2.26962 -0.04241,-3.01694 c -0.02332,-1.65931 -0.161752,-3.73297 -0.307612,-4.60812 -0.184107,-1.10464 -0.103864,-2.05943 0.262421,-3.12259 l 0.527618,-1.53143 -1.117596,0.21497 c -0.614677,0.11823 -1.792284,0.31373 -2.616902,0.43445 -0.824609,0.12072 -1.499299,0.35759 -1.499299,0.52638 0,0.1688 -0.46836,0.3069 -1.04081,0.3069 -0.57244,0 -1.16888,0.22887 -1.32542,0.5086 -0.1713,0.30608 -1.1195,0.59874 -2.38143,0.73501 -1.33211,0.14385 -2.25987,0.44083 -2.54391,0.81433 -0.24591,0.32334 -0.45208,0.42915 -0.45815,0.23512 -0.0105,-0.33626 -7.54534,-0.3847 -10.1031,-0.0649 -0.60273,0.0753 -2.02757,0.0105 -3.16632,-0.14397 -1.13874,-0.15453 -2.15372,-0.16297 -2.25551,-0.0187 -0.33272,0.47142 -4.27973,1.81516 -5.33174,1.81516 -0.56482,0 -1.02694,0.14614 -1.02694,0.32475 0,0.17861 -0.51594,0.42703 -1.14653,0.55204 -2.81414,0.5579 -6.10057,1.37956 -6.26181,1.56557 -0.56194,0.64824 -2.46944,1.75058 -2.46944,1.42708 0,-0.21176 -1.86531,1.50169 -4.14514,3.80767 -4.22781,4.2763 -5.43573,4.98951 -5.66898,3.34719 -0.062,-0.43656 0.0571,-0.79375 0.26458,-0.79375 0.20752,0 0.37732,-0.18822 0.37732,-0.41826 0,-0.45728 2.77529,-3.90485 3.3266,-4.13244 0.18783,-0.0775 1.39555,-1.13093 2.68382,-2.34087 3.85705,-3.6225 4.78682,-4.07993 11.0993,-5.46064 1.16417,-0.25464 2.72821,-0.74799 3.47565,-1.09634 2.45843,-1.14579 7.09309,-1.79256 12.22296,-1.70572 7.40038,0.12527 8.84639,0.0507 10.30158,-0.53159 0.7449,-0.29805 1.75361,-0.54191 2.24158,-0.54191 0.48797,0 1.23882,-0.22587 1.66855,-0.50193 0.42974,-0.27606 1.33697,-0.55387 2.01607,-0.61736 0.67909,-0.0635 1.536568,-0.38776 1.905499,-0.7206 0.368935,-0.33284 0.794526,-0.52868 0.945766,-0.43522 0.151235,0.0935 0.36153,0.0299 0.467317,-0.14127 0.105791,-0.17117 0.553325,-0.2497 0.994516,-0.1745 1.087914,0.18543 3.519371,-1.26912 4.082143,-2.44202 0.992826,-2.06919 4.657527,-3.64652 4.657527,-2.00465 0,0.39361 -0.323504,1.34977 -0.718897,2.12481 -0.723798,1.41877 -0.649884,2.42 0.132944,1.80084 0.665064,-0.52601 3.174365,-1.26905 3.937342,-1.1659 0.388056,0.0525 1.149456,0.55942 1.691996,1.12657 1.405615,1.46937 1.067792,3.18513 -0.881059,4.47481 -1.166614,0.77203 -1.449923,0.84021 -1.732925,0.41703 -0.186073,-0.27824 -0.263165,-1.02183 -0.171316,-1.65242 0.09185,-0.63059 0.04651,-1.14653 -0.100753,-1.14653 -0.715949,0 -3.574415,1.16963 -3.942563,1.61322 -0.229803,0.2769 -0.755576,0.50684 -1.168379,0.51098 -0.465244,0.005 -1.118726,0.52813 -1.719076,1.37704 -0.916442,1.29585 -0.957065,1.51833 -0.755445,4.1376 0.367291,4.77155 1.026541,6.4318 3.75207,9.44921 0.33975,0.37614 0.617728,0.86577 0.617728,1.08808 0,0.47859 3.01606,3.39762 4.121947,3.98935 1.160135,0.62075 2.981734,0.4926 4.168331,-0.29325 1.276134,-0.84515 2.621392,-0.90211 3.548545,-0.15023 0.376633,0.30543 0.497156,0.46148 0.267826,0.34679 -0.259334,-0.1297 -0.459381,0.1531 -0.529167,0.74806 -0.166906,1.42294 -3.103887,2.55068 -6.638593,2.54907 -1.455208,-7e-4 -2.804583,-0.13804 -2.998611,-0.3053 z m -88.170838,-6.62889 c -0.99045,-0.0747 -2.16734,-0.43532 -2.73147,-0.83701 -0.91593,-0.6522 -0.97598,-0.65723 -0.79072,-0.0662 0.18076,0.5767 0.16297,0.58159 -0.18104,0.0498 -0.20984,-0.32439 -0.89651,-0.69976 -1.52595,-0.83415 -0.62943,-0.1344 -1.89885,-0.7818 -2.82093,-1.43868 -1.18538,-0.84445 -2.06382,-1.19496 -2.99861,-1.1965 -0.72716,-10e-4 -1.77681,-0.23932 -2.33257,-0.52917 -1.13978,-0.59443 -1.98815,-0.68324 -1.98815,-0.20812 0,0.40229 -3.96602,-0.99204 -4.31612,-1.51742 -0.14255,-0.21393 -0.26161,-0.24528 -0.26458,-0.0697 -0.003,0.17559 -0.29995,0.0527 -0.65994,-0.27309 -0.36,-0.32579 -0.89049,-0.50181 -1.17887,-0.39114 -0.87273,0.3349 -4.83692,-4.9352 -4.9103,-6.52789 -0.0268,-0.58271 -0.0958,-0.67888 -0.20058,-0.27958 -0.12699,0.48413 -0.25394,0.5206 -0.62043,0.17825 -0.25342,-0.23674 -0.3861,-0.62503 -0.29483,-0.86287 0.0926,-0.24121 -0.39499,-0.69993 -1.10253,-1.03733 -0.69767,-0.3327 -1.26848,-0.72062 -1.26848,-0.86205 0,-0.14143 -0.55282,-0.82641 -1.22849,-1.52216 -0.67567,-0.69576 -1.15914,-1.26501 -1.07437,-1.26501 0.0848,0 -0.27523,-0.43398 -0.79998,-0.96441 -0.52476,-0.53043 -1.06746,-0.92921 -1.20599,-0.88618 -0.13854,0.043 -0.16176,-0.15664 -0.0516,-0.44372 0.11349,-0.29574 -0.0449,-0.61606 -0.36547,-0.73907 -0.31117,-0.11941 -0.56577,-0.36904 -0.56577,-0.55475 0,-0.1857 -0.41609,-1.24028 -0.92465,-2.3435 -0.81054,-1.75835 -0.93892,-2.54821 -1.04037,-6.40091 -0.16405,-6.23035 1.11187,-10.84855 3.98637,-14.42873 1.55639,-1.93848 4.498,-4.70179 4.74366,-4.45613 0.0936,0.0936 0.54243,-0.22607 0.99741,-0.71038 0.59211,-0.63027 1.19715,-0.88055 2.12869,-0.88055 1.12632,0 1.29606,0.10681 1.26142,0.79375 -0.0272,0.53898 -0.2948,0.82993 -0.83378,0.90648 -0.43656,0.062 -0.79375,0.26981 -0.79375,0.46179 0,0.19198 -0.15479,0.2534 -0.34397,0.13647 -0.7161,-0.44257 -5.24233,4.62952 -5.50435,6.16818 -0.16137,0.94757 -0.61373,2.4198 -0.90931,2.95934 -0.99629,1.8186 -1.39328,4.22468 -1.21058,7.33703 0.10979,1.87028 0.0391,3.46952 -0.17074,3.86157 -0.26869,0.50205 -0.23205,0.71757 0.14671,0.86292 0.27767,0.10655 0.70202,0.89795 0.94301,1.75865 0.24098,0.86071 0.57929,1.56493 0.7518,1.56493 0.17251,0 0.22976,0.35719 0.12722,0.79375 -0.14074,0.59926 0.11742,1.05308 1.05357,1.85208 0.68199,0.58209 1.63949,1.41181 2.12778,1.84384 1.23299,1.09095 2.28331,1.62785 2.28331,1.16718 0,-0.20085 -0.15698,-0.36518 -0.34883,-0.36518 -0.19186,0 -0.32991,-0.35719 -0.30678,-0.79375 0.0231,-0.43657 -0.13431,-1.8215 -0.34985,-3.07762 -0.55771,-3.25015 0.14797,-5.34445 2.68256,-7.96126 1.04758,-1.08157 2.07677,-1.90914 2.28708,-1.83903 0.21032,0.0701 0.79348,-0.2575 1.29591,-0.72801 2.00003,-1.87295 2.16813,-1.91478 5.9188,-1.47278 1.90376,0.22435 4.09638,0.67875 4.87249,1.00979 0.77611,0.33104 1.63869,0.59587 1.91683,0.58852 0.27815,-0.007 0.91315,0.35851 1.41111,0.81302 1.54766,1.41262 6.01936,4.64721 6.04547,4.37297 0.0136,-0.14326 0.1327,0.008 0.26458,0.33719 0.13189,0.32871 1.39073,1.78717 2.79743,3.24102 1.4067,1.45385 2.55764,2.81209 2.55764,3.01832 0,0.20622 0.12412,0.37495 0.27583,0.37495 0.15171,0 0.31064,0.42051 0.35318,0.93447 0.0425,0.51396 0.2756,1.17335 0.51791,1.46533 0.61617,0.74244 0.58313,5.43388 -0.0436,6.18904 -0.26629,0.32086 -0.35768,0.58338 -0.20309,0.58338 0.1546,0 -0.0379,0.35719 -0.42785,0.79375 -0.38991,0.43656 -0.9718,1.3704 -1.29308,2.07519 -0.32129,0.70479 -1.4587,2.15598 -2.52757,3.22485 -1.06888,1.06888 -1.94341,2.12878 -1.94341,2.35535 0,0.22657 -0.15875,0.31383 -0.35278,0.19392 -0.19402,-0.11992 -0.35277,-0.046 -0.35277,0.16429 0,0.66107 1.84242,1.12646 4.5907,1.15959 2.19205,0.0264 2.9666,-0.12686 4.47869,-0.88634 2.40992,-1.21043 3.75345,-1.40538 4.5721,-0.66343 0.62009,0.56199 2.58628,0.89441 2.58628,0.43725 0,-0.29384 2.78348,-0.20717 3.80929,0.11863 0.47334,0.15033 1.01359,0.0891 1.2983,-0.14722 0.26819,-0.22258 1.09269,-0.35476 1.83222,-0.29373 1.61376,0.13317 1.87067,0.81344 0.81436,2.15632 -0.73288,0.93171 -0.77064,0.93839 -4.32457,0.76489 -3.50824,-0.17127 -5.89904,-0.70577 -5.89904,-1.31882 0,-0.16891 -0.2374,-0.0697 -0.52755,0.22044 -0.29015,0.29015 -1.43461,1.04652 -2.54324,1.68081 -1.75531,1.00428 -2.35934,1.15858 -4.67592,1.1944 -1.46313,0.0226 -3.44336,-0.0179 -4.40052,-0.0901 z m -2.73411,-8.55395 c 3.59428,-3.70785 5.01685,-5.39815 5.21816,-6.20024 0.29665,-1.18197 -0.0248,-4.39769 -0.46832,-4.68528 -0.19253,-0.12484 -0.45953,-0.82229 -0.59332,-1.54989 -0.1338,-0.72761 -0.39482,-1.32292 -0.58005,-1.32292 -0.18524,0 -0.33725,-0.27781 -0.33781,-0.61736 -7.1e-4,-0.33955 -0.44577,-0.91529 -0.98935,-1.27943 -0.54358,-0.36413 -1.24413,-1.10776 -1.55677,-1.65251 -0.54989,-0.95813 -3.35319,-3.03046 -3.89106,-2.87646 -0.14552,0.0417 -0.24578,-0.0433 -0.22281,-0.18882 0.11687,-0.74015 -0.0887,-1.18934 -0.48275,-1.055 -0.24253,0.0827 -1.07597,-0.24867 -1.85208,-0.73635 -0.77754,-0.48857 -2.14691,-0.95741 -3.04991,-1.04422 -1.43296,-0.13774 -1.66865,-0.0635 -1.87647,0.59129 -0.19983,0.6296 -0.48901,0.73931 -1.8163,0.68911 -0.86825,-0.0328 -1.41267,-0.16228 -1.20983,-0.28764 0.23112,-0.14284 0.1046,-0.51151 -0.33887,-0.98753 l -0.70767,-0.75959 -1.65317,1.11571 c -0.90924,0.61364 -2.31384,1.75872 -3.12133,2.54461 -1.41765,1.37974 -1.46513,1.49827 -1.37981,3.44424 0.10683,2.43635 0.8262,5.54053 1.46062,6.30273 0.25497,0.30632 0.46357,0.85171 0.46357,1.21198 0,0.36027 0.35346,1.03128 0.78545,1.49112 0.72489,0.7716 0.73169,0.8167 0.0882,0.58495 -1.04862,-0.37767 0.69145,0.95645 2.69256,2.0644 l 1.62594,0.90023 -0.122,-1.43889 c -0.0682,-0.80433 -0.52339,-2.0181 -1.03218,-2.75229 -0.50061,-0.72238 -1.13771,-2.4008 -1.41577,-3.72982 -0.27807,-1.32902 -0.67458,-2.47274 -0.88113,-2.5416 -0.41106,-0.13703 -0.97482,-1.39177 -1.37543,-3.06125 -0.29287,-1.22047 0.11587,-1.77062 1.59049,-2.14072 0.52701,-0.13227 1.03249,-0.5246 1.1233,-0.87185 0.0908,-0.34724 0.37021,-0.71005 0.6209,-0.80625 0.53398,-0.20491 1.44191,2.61511 1.11568,3.46528 -0.11426,0.29775 -0.054,0.54137 0.13395,0.54137 0.18794,0 0.34171,0.23813 0.34171,0.52917 0,0.29104 0.11906,0.5317 0.26458,0.5348 0.32022,0.007 3.42322,2.65743 7.53042,6.43256 0.36942,0.33955 0.83042,0.61736 1.02444,0.61736 0.19403,0 0.35278,0.21672 0.35278,0.48159 0,0.26488 0.33823,0.91158 0.75162,1.43712 1.50566,1.91414 0.012,6.35964 -2.45159,7.29627 l -0.92507,0.35172 1.10347,0.69867 c 0.60692,0.38427 1.46371,0.76805 1.90399,0.85284 0.44028,0.0848 0.96081,0.31446 1.15673,0.51038 0.38862,0.38862 0.95084,-0.008 2.98229,-2.10359 z m -7.34366,-4.40972 c 0,-0.29104 0.15377,-0.52917 0.34171,-0.52917 0.80628,0 -0.92031,-3.34061 -2.03491,-3.93712 -0.46884,-0.25091 -1.32992,-1.15022 -1.91352,-1.99845 -0.95819,-1.39269 -1.1141,-1.48925 -1.60764,-0.9957 -0.49355,0.49355 -0.46393,0.71074 0.30543,2.2396 0.84466,1.6785 3.05756,4.75886 3.58217,4.98639 0.15005,0.0651 0.18309,0.26351 0.0734,0.44097 -0.10968,0.17745 0.12746,0.32265 0.52696,0.32265 0.41049,0 0.72638,-0.23014 0.72638,-0.52917 z m 123.460964,9.49539 c -0.190616,-0.50135 -0.262586,-1.04743 -0.159939,-1.21352 0.191421,-0.30972 -2.016745,-2.24947 -2.65099,-2.32875 -0.194049,-0.0243 -0.511567,-0.0639 -0.705595,-0.0882 -0.546996,-0.0684 -0.415988,-1.3416 0.201588,-1.95918 0.766883,-0.76688 3.620668,-0.71931 4.656085,0.0776 1.539913,1.18522 1.378066,6.50855 -0.179709,5.91077 -0.264703,-0.10157 -0.384288,-0.0278 -0.265744,0.16405 0.11854,0.19181 0.04348,0.34874 -0.166797,0.34874 -0.210284,0 -0.538286,-0.41019 -0.728899,-0.91155 z m -27.855374,-3.16394 c 0.131522,-0.86664 0.344974,-1.68155 0.474334,-1.81091 0.12936,-0.12936 1.384607,-0.60481 2.789442,-1.05656 2.054211,-0.66056 3.221112,-0.8072 5.96072,-0.74908 2.512586,0.0533 3.565141,-0.0594 4.011108,-0.42953 0.771716,-0.64046 3.171825,-0.80064 3.62948,-0.24222 0.344406,0.42024 0.538233,1.39307 0.458833,2.30291 -0.02409,0.276 -0.363756,0.41621 -0.834372,0.34441 -0.436562,-0.0666 -0.755967,-0.31006 -0.709789,-0.54101 0.1002,-0.5011 -0.877767,-0.21162 -1.720077,0.50913 -0.391231,0.33477 -1.644163,0.51679 -3.880556,0.56374 -1.816523,0.0381 -3.382147,0.15709 -3.479161,0.26435 -0.750538,0.82977 -3.073449,1.80312 -4.546226,1.90496 -0.965302,0.0667 -1.89859,0.21004 -2.07398,0.31844 -0.184983,0.11433 -0.218476,-0.46458 -0.07976,-1.37863 z m -65.2667,0.54772 c -0.49497,-0.31988 -0.23482,-0.51454 0.50069,-0.37465 0.17836,0.0339 0.11923,-0.1854 -0.13139,-0.4874 -0.25154,-0.30308 -0.2963,-0.54907 -0.0999,-0.54907 0.19568,0 0.61782,-0.5522 0.93809,-1.22712 0.32027,-0.67492 1.0291,-1.71629 1.57517,-2.31417 0.54608,-0.59788 1.36352,-2.22848 1.81654,-3.62357 0.45303,-1.39509 0.9926,-2.75981 1.19906,-3.03271 0.48125,-0.63614 0.38744,-9.6454 -0.1137,-10.9188 -0.20178,-0.51273 -0.43071,-1.40849 -0.50875,-1.99057 -0.30165,-2.25012 -0.67832,-3.3383 -1.0736,-3.10155 -0.23274,0.13939 -0.2131,0.01 0.0473,-0.3117 0.36301,-0.4484 0.3467,-0.63193 -0.0882,-0.99286 -0.29343,-0.24353 -0.53351,-0.67146 -0.53351,-0.95096 0,-0.71828 -1.74012,-4.18576 -2.52145,-5.02442 -0.35945,-0.38583 -0.65355,-0.83263 -0.65355,-0.99289 0,-0.4427 -3.66889,-3.97145 -4.12917,-3.97145 -0.22155,0 -0.85156,-0.36941 -1.40002,-0.82092 -0.54846,-0.4515 -1.76987,-1.18905 -2.71425,-1.63899 -1.52317,-0.7257 -1.93325,-0.77888 -3.63177,-0.47102 -1.47343,0.26707 -1.87677,0.24819 -1.75009,-0.0819 0.0905,-0.23593 -0.0214,-0.6184 -0.2488,-0.84993 -0.22737,-0.23153 -0.25465,-0.39082 -0.0606,-0.35399 0.71948,0.13659 1.04403,-0.0365 0.59844,-0.31908 -0.25295,-0.16043 -1.28482,-0.15022 -2.29306,0.0227 -1.00823,0.17291 -3.29222,0.3211 -5.07552,0.32932 -3.37183,0.0155 -6.09599,0.49656 -6.54182,1.15513 -0.16597,0.24518 -0.26306,0.19256 -0.26998,-0.1463 -0.006,-0.31147 -0.11744,-0.38404 -0.26998,-0.17639 -0.14255,0.19402 -2.23182,0.39183 -4.64282,0.43956 -4.58533,0.0908 -6.5744,0.64069 -8.20098,2.26727 -0.3545,0.35451 -0.64455,0.54693 -0.64455,0.4276 0,-0.11933 -0.40627,0.0492 -0.90281,0.37458 -1.05087,0.68855 -2.39742,0.60503 -2.54098,-0.15762 -0.24747,-1.31467 4.31759,-5.21558 5.82504,-4.97758 0.24253,0.0383 0.44097,-0.0961 0.44097,-0.29862 0,-0.20254 0.46592,-0.36825 1.03537,-0.36825 0.56945,0 1.48226,-0.17215 2.02847,-0.38257 0.88577,-0.34122 1.49981,-0.44428 3.72713,-0.62552 0.33955,-0.0276 0.61736,-0.19919 0.61736,-0.38124 0,-0.57651 2.1157,-2.69318 2.12789,-2.12887 0.008,0.38625 0.14414,0.34386 0.52916,-0.16519 0.28488,-0.37664 0.51795,-0.55564 0.51795,-0.39778 0,0.15786 0.21305,0.1102 0.47343,-0.1059 0.26039,-0.2161 0.57119,-0.29516 0.69066,-0.17569 0.11947,0.11947 0.71236,-0.1994 1.31752,-0.70862 0.60517,-0.50921 1.28656,-0.92792 1.51421,-0.93045 0.22765,-0.002 1.59356,-0.79448 3.03537,-1.75988 1.4418,-0.96539 3.18805,-1.84019 3.88055,-1.944 0.6925,-0.1038 1.69497,-0.32969 2.22771,-0.50196 0.53274,-0.17227 1.04143,-0.1954 1.13042,-0.0514 0.089,0.144 1.08187,0.46564 2.20639,0.71476 1.12452,0.24913 2.31989,0.59776 2.65638,0.77474 0.3365,0.17698 3.59087,0.33661 7.23195,0.35472 6.05633,0.0301 6.83044,0.10615 9.08958,0.8926 1.35819,0.47281 3.00479,0.99702 3.6591,1.16492 0.65432,0.16789 1.36075,0.47636 1.56986,0.68547 0.21376,0.21375 1.73017,0.3802 3.46383,0.3802 1.69599,0 3.16414,0.13028 3.26255,0.2895 0.35673,0.57721 -1.12872,2.43768 -2.09357,2.62212 -1.69527,0.32407 -5.6439,-0.37819 -9.54731,-1.698 -3.76095,-1.27163 -3.82018,-1.27944 -8.15545,-1.07506 -4.12117,0.19428 -4.45427,0.26593 -5.91791,1.27294 -0.85302,0.58689 -1.64778,1.22377 -1.76615,1.41528 -0.11836,0.19152 -0.48365,0.35327 -0.81174,0.35944 -1.12568,0.0212 -2.67019,1.82662 -1.65488,1.93445 0.19403,0.0206 0.9084,0.28073 1.5875,0.57804 0.6791,0.29731 1.8336,0.65272 2.56556,0.78979 0.73197,0.13707 1.52421,0.55885 1.76056,0.9373 0.23634,0.37845 0.66934,0.69177 0.96221,0.69627 0.29288,0.005 1.14535,0.56013 1.89438,1.23472 0.74902,0.6746 1.46853,1.22654 1.59889,1.22654 0.13037,0 0.95637,0.7092 1.83556,1.576 1.50779,1.48654 1.81895,1.95774 2.86138,4.33303 0.23416,0.53357 0.65564,1.24795 0.93662,1.5875 0.28097,0.33955 0.38228,0.61736 0.22512,0.61736 -0.15716,0 -0.0488,0.27781 0.24083,0.61736 0.28961,0.33955 0.81337,1.72861 1.16391,3.08681 0.35053,1.35819 0.85296,2.8989 1.1165,3.42379 0.97493,1.94178 1.18061,12.27704 0.28289,14.21509 -0.26962,0.58209 -0.86989,2.19116 -1.33393,3.57572 -0.83894,2.50312 -1.87413,4.19938 -3.89988,6.39026 -1.09767,1.18714 -2.63188,1.51241 -3.74393,0.79375 z m -17.10972,-47.80943 c 2.28977,-0.15021 4.42316,-0.7649 5.23704,-1.50896 0.4181,-0.38223 1.12896,-0.80696 1.57969,-0.94385 0.78255,-0.23766 0.79202,-0.27926 0.20991,-0.92249 -0.33529,-0.37048 -0.89313,-0.67361 -1.23967,-0.67361 -0.34653,0 -0.73738,-0.17365 -0.86855,-0.38589 -0.2248,-0.36373 -0.95855,-0.33059 -3.96907,0.17926 -1.30959,0.22179 -6.0601,3.33214 -6.06286,3.9696 -0.001,0.22636 -0.20021,0.50464 -0.44274,0.61838 -0.24254,0.11374 0.5909,0.1063 1.85208,-0.0165 1.26118,-0.12283 2.92806,-0.26499 3.70417,-0.3159 z m 53.75679,28.25471 c -0.11102,-0.10486 -0.72817,-0.21412 -3.05171,-0.54029 -0.0522,-0.007 0.005,-0.41226 0.12759,-0.89985 0.12237,-0.48759 0.0683,-1.0829 -0.12024,-1.32292 -0.18851,-0.24001 -0.35895,-2.10326 -0.37877,-4.14056 -0.0376,-3.86771 -0.3704,-6.2633 -1.32316,-9.525 -0.31172,-1.06715 -0.59223,-2.29746 -0.62336,-2.73402 -0.0311,-0.43657 -0.25005,-0.79375 -0.48649,-0.79375 -0.23644,0 -0.34828,-0.21269 -0.24853,-0.47265 0.0998,-0.25996 -0.064,-0.67627 -0.36385,-0.92514 -0.29987,-0.24887 -0.54522,-0.64658 -0.54522,-0.88379 0,-0.23721 -0.31345,-0.71496 -0.69655,-1.06166 -0.3831,-0.34671 -0.80181,-0.96662 -0.93047,-1.37759 -0.33933,-1.08392 -1.40805,-2.35263 -1.73374,-2.05818 -0.15369,0.13894 -0.17975,-0.0252 -0.0579,-0.36474 0.1465,-0.40828 0.0461,-0.61736 -0.29657,-0.61736 -0.6373,0 -0.65278,-0.36529 -0.0636,-1.50092 0.42029,-0.81011 0.54446,-0.84632 1.65067,-0.4813 2.03225,0.67059 6.19616,6.75081 7.39729,10.80166 1.72919,5.8318 2.26904,8.60778 2.22963,11.46528 -0.0214,1.55222 0.18762,3.6051 0.46451,4.56194 0.27688,0.95685 0.50342,1.86408 0.50342,2.01606 0,0.31453 -1.24773,1.04859 -1.45293,0.85478 z m 51.086261,-8.52206 c -0.5196,-0.44694 -0.826852,-0.88554 -0.682781,-0.97466 0.820625,-0.50762 0.19182,-15.426 -0.672722,-15.96031 -0.16503,-0.102 -0.300055,-0.42529 -0.300055,-0.71843 0,-0.29314 -0.493861,-1.25078 -1.097467,-2.12809 -0.603607,-0.87731 -1.208236,-2.00929 -1.343618,-2.51551 -0.272658,-1.0195 -1.724642,-1.90548 -6.025582,-3.67671 -1.455208,-0.59929 -2.815134,-1.2196 -3.02206,-1.37847 -0.206925,-0.15887 -0.9213,-0.3239 -1.5875,-0.36673 -0.666199,-0.0428 -1.62325,-0.41351 -2.126777,-0.82373 -1.224015,-0.99721 -3.479331,-1.07746 -6.327736,-0.22516 -3.563225,1.06618 -5.768082,1.51052 -8.174584,1.6474 -2.804789,0.15953 -3.103009,0.21483 -3.103009,0.57542 0,0.16169 0.19844,0.30003 0.44097,0.30743 0.24254,0.007 1.266507,0.78369 2.27549,1.72511 1.789899,1.67003 1.818005,1.72661 1.155534,2.32614 -0.864535,0.78239 -2.682534,0.53241 -5.119554,-0.70396 -0.96308,-0.48859 -1.96133,-0.88901 -2.21835,-0.88982 -0.25702,-7e-4 -1.68577,-0.64568 -3.175,-1.43303 -2.56853,-1.35797 -2.8165,-1.41925 -4.82437,-1.19229 -1.16416,0.13159 -2.22303,0.40743 -2.35304,0.61298 -0.13001,0.20555 -0.52688,0.40835 -0.88194,0.45067 -0.35507,0.0423 -1.43817,0.23863 -2.4069,0.43624 -1.29845,0.26488 -1.83012,0.25118 -2.02307,-0.0521 -0.44559,-0.70042 -0.29921,-2.24319 0.25662,-2.70448 0.48421,-0.40185 0.68083,-0.24835 0.56968,0.44475 -0.0237,0.14759 0.23535,0.13028 0.57559,-0.0385 0.97328,-0.48275 4.00837,-1.3904 5.55751,-1.66199 0.77611,-0.13606 1.60259,-0.39911 1.83663,-0.58454 0.23403,-0.18543 0.58625,-0.23781 0.7827,-0.1164 0.19644,0.12141 1.49377,0.51915 2.88295,0.88387 2.47329,0.64934 2.54061,0.6493 3.23948,-0.002 0.39254,-0.3657 0.86616,-0.57069 1.0525,-0.45553 0.18633,0.11517 0.44063,0.0446 0.56509,-0.15678 0.22484,-0.36381 2.03507,-0.74927 7.103147,-1.5125 1.455208,-0.21915 2.963333,-0.53943 3.351389,-0.71173 1.109437,-0.49263 4.821629,-1.38058 5.771557,-1.38058 0.473449,0 2.1154,0.25421 3.64878,0.56492 3.102106,0.62856 4.703738,0.47184 6.057092,-0.59271 0.499798,-0.39314 1.24296,-0.77917 1.651469,-0.85785 0.40851,-0.0787 1.0342,-0.23554 1.390428,-0.3486 0.622367,-0.19753 1.148472,0.25877 1.277733,1.1082 0.03373,0.22172 -0.55711,0.98917 -1.312997,1.70544 -0.755886,0.71628 -1.374341,1.44006 -1.374341,1.6084 0,0.16835 0.754063,0.81297 1.675695,1.43251 0.921632,0.61953 2.191632,1.6108 2.822222,2.20281 0.63059,0.59202 1.146528,0.93474 1.146528,0.7616 0,-0.17313 0.571605,0.23229 1.270236,0.90094 1.215838,1.16367 3.668652,5.72547 3.668652,6.82304 0,0.28857 0.143129,0.61312 0.318065,0.72124 0.333671,0.20622 0.752958,3.14285 0.96007,6.72423 0.06732,1.16417 0.138589,2.27541 0.158366,2.46944 0.10208,1.00143 -0.515528,7.13476 -0.768202,7.62885 -0.478501,0.93569 -1.52212,0.97731 -2.540518,0.10132 z m -27.616799,-11.80566 c -0.59939,-0.2243 -2.565308,-3.55902 -2.751931,-4.66801 -0.03968,-0.2358 -0.26295,-0.77547 -0.496153,-1.19928 -0.613326,-1.11461 -0.52451,-1.76487 0.322047,-2.35782 0.832139,-0.58286 1.72339,-0.40655 1.72339,0.34091 0,0.26864 0.30166,0.67683 0.670355,0.90708 0.368695,0.23026 0.602227,0.59619 0.518957,0.81319 -0.08327,0.217 0.271671,1.18089 0.788755,2.14198 0.517088,0.96109 1.057279,2.2487 1.200429,2.86135 0.226892,0.97108 0.16008,1.13307 -0.521053,1.26327 -0.429722,0.0822 -1.084382,0.036 -1.454796,-0.10267 z m 49.070562,-2.79618 c -0.260625,-0.82115 0.126517,-3.1115 0.572534,-3.38715 0.1752,-0.10828 0.243956,-0.31755 0.152798,-0.46505 -0.09116,-0.1475 0.065,-1.03488 0.347024,-1.97197 0.648808,-2.15583 0.654752,-4.88829 0.01527,-7.01317 -0.273628,-0.9092 -0.509195,-1.72986 -0.523476,-1.82369 -0.139382,-0.91562 -2.850624,-3.51732 -3.923693,-3.76516 -0.860118,-0.19866 -2.110895,-1.60454 -2.110895,-2.37265 0,-0.42817 0.215565,-0.99406 0.479037,-1.25753 0.403528,-0.40353 0.680028,-0.31336 1.754191,0.57206 0.701336,0.5781 1.477959,1.00831 1.725824,0.95603 0.928045,-0.19575 4.860392,3.10807 4.860392,4.08354 0,0.25991 0.326852,1.21146 0.726341,2.11457 0.559414,1.26465 0.734127,2.43027 0.760226,5.07193 0.04263,4.31498 -0.194307,5.34221 -1.798878,7.7991 -1.383901,2.11901 -2.636273,2.72077 -3.0367,1.45914 z M -138.5684,483.32318 c -0.0893,-0.0893 -0.65904,-0.20025 -1.26605,-0.2465 -0.607,-0.0463 -1.02518,-0.21104 -0.92929,-0.36619 0.0959,-0.15515 -0.0503,-0.36831 -0.32498,-0.4737 -0.36351,-0.13949 -0.49005,-0.80214 -0.46525,-2.43637 0.0187,-1.23462 0.15156,-2.06009 0.29516,-1.83437 0.16173,0.25419 0.26316,0.13394 0.26651,-0.31593 0.003,-0.39948 0.23848,-1.03448 0.52335,-1.41112 0.28487,-0.37663 0.52299,-0.88502 0.52917,-1.12974 0.0159,-0.63095 2.71475,-4.59725 4.19808,-6.16963 0.6864,-0.7276 1.50152,-1.32291 1.8114,-1.32291 0.30987,0 0.75455,-0.19116 0.98818,-0.42479 0.23363,-0.23363 0.99464,-0.3864 1.69113,-0.33949 1.97169,0.13278 2.61131,-0.19872 2.61131,-1.35338 0,-0.80262 0.47542,-1.43177 2.29981,-3.04345 1.86997,-1.65195 4.53957,-3.40135 5.4613,-3.57883 0.56376,-0.10855 1.72429,-0.5438 2.64768,-0.99298 1.09544,-0.53289 5.11343,-0.58718 5.11343,-0.0691 0,0.15236 0.37744,0.27702 0.83875,0.27702 0.46131,0 1.03638,0.23812 1.27792,0.52916 0.53428,0.64377 1.28853,0.68724 1.53025,0.0882 0.11123,-0.27566 0.18838,-0.22115 0.20579,0.14538 0.0357,0.75122 2.23983,1.14575 3.81546,0.68294 0.72277,-0.2123 1.218,-0.21201 1.34951,7.1e-4 0.11426,0.18488 0.39422,0.31313 0.62212,0.28499 2.01058,-0.24821 4.147874,0.11917 5.319696,0.91439 0.714791,0.48507 1.517463,0.88194 1.783722,0.88194 0.266256,0 0.537016,0.11906 0.601694,0.26459 0.228681,0.51453 4.116769,3.61597 4.533128,3.61597 0.238636,0 0.330133,0.24057 0.210283,0.5529 -0.127564,0.33243 0.279407,1.1967 1.02059,2.1674 1.382261,1.81029 1.390198,1.83984 0.826417,3.07721 -0.329819,0.72387 -0.578951,0.85204 -1.322917,0.68056 -1.107958,-0.25536 -2.972025,-2.15988 -3.906138,-3.99089 -0.667971,-1.30926 -2.562222,-3.19267 -3.211118,-3.19267 -0.17914,0 -0.325709,-0.2475 -0.325709,-0.54999 0,-0.30249 -0.155469,-0.4539 -0.345486,-0.33646 -0.19002,0.11743 -0.705957,0.0146 -1.146527,-0.22851 -0.511532,-0.28227 -2.331045,-0.44754 -5.034375,-0.45728 -2.69391,-0.01 -4.48991,-0.17231 -4.93889,-0.44712 -0.81538,-0.49908 -5.83893,-2.21398 -6.48554,-2.21398 -0.23939,0 -0.3463,0.14395 -0.23757,0.31988 0.10873,0.17593 -0.11944,0.23694 -0.50706,0.13558 -0.63635,-0.16641 -2.5016,0.46525 -3.88233,1.31474 -0.29104,0.17906 -1.28054,0.75091 -2.1989,1.27078 -0.91835,0.51987 -1.90874,1.31001 -2.20088,1.75586 -0.60556,0.92421 -0.37555,1.95641 0.37203,1.66953 0.27499,-0.10552 0.49997,-0.0436 0.49997,0.13769 0,0.18125 1.07157,0.5264 2.38125,0.76701 1.30969,0.24061 2.69875,0.73241 3.08681,1.0929 0.38805,0.36048 0.93625,0.707 1.21821,0.77003 0.28197,0.063 0.91697,0.69025 1.41111,1.3938 0.49415,0.70356 1.53346,2.02559 2.30957,2.93785 1.74894,2.05576 2.49321,4.17351 1.69853,4.83304 -0.45542,0.37797 -0.80388,0.15162 -2.26491,-1.47123 -0.94967,-1.05486 -1.72668,-2.0164 -1.72668,-2.13677 0,-0.29087 -1.11156,-1.61148 -2.72352,-3.23571 -0.8587,-0.86524 -1.74146,-1.38425 -2.55714,-1.50344 -0.68515,-0.10011 -1.88073,-0.34376 -2.65684,-0.54145 -2.36693,-0.60287 -5.63972,-0.76661 -7.15699,-0.35805 -2.23933,0.60299 -5.43295,4.67516 -6.45134,8.22607 l -0.28118,0.98044 1.2925,-1.06539 c 1.91649,-1.57973 3.96969,-1.34595 3.29348,0.375 -0.46965,1.19525 -5.00155,5.48 -5.38769,5.09386 z M 19.146841,472.37786 c -0.982659,-1.59495 -8.537031,-8.28892 -9.3543258,-8.28892 -0.4345375,0 -0.8429836,-0.11906 -0.9076619,-0.26458 -0.2871258,-0.64604 -2.8477632,-2.24799 -3.3098527,-2.07067 -0.3096824,0.11884 -0.5119052,-0.0164 -0.5119052,-0.34247 0,-0.3292 -0.1646696,-0.43715 -0.4231569,-0.27739 -0.8170333,0.50495 -2.0014177,0.34256 -2.1687613,-0.29735 -0.2388517,-0.91338 -1.98292503,-0.80181 -3.9683442,0.25385 -0.9122903,0.48507 -2.0375279,0.88194 -2.500524,0.88194 -0.4629997,0 -1.2179829,0.24648 -1.6777405,0.54772 -0.4597577,0.30125 -1.2198562,0.57906 -1.6891035,0.61736 -0.4692438,0.0383 -1.1304693,0.34722 -1.4693864,0.68648 -0.3389136,0.33925 -1.0416716,0.70796 -1.5616806,0.81933 -0.520008,0.11138 -1.501094,0.4066 -2.180191,0.65606 -3.139948,1.15341 -3.860136,1.36809 -6.173611,1.84028 -1.358194,0.27721 -2.741418,0.43501 -3.073833,0.35065 -0.332416,-0.0844 -0.775491,0.0528 -0.98461,0.30476 -0.20912,0.25198 -0.810271,0.55857 -1.335889,0.68132 -0.525617,0.12275 -1.431917,0.43806 -2.014001,0.7007 -1.824887,0.82337 -3.49523,1.25284 -6.212843,1.5974 -2.861945,0.36286 -3.841323,0.64035 -3.841323,1.08839 0,0.15947 -0.543952,0.26155 -1.208782,0.22684 -0.90835,-0.0474 -1.352328,-0.30529 -1.786326,-1.03747 -0.317645,-0.5359 -0.488308,-1.25027 -0.379247,-1.5875 0.255165,-0.789 1.756707,-1.48305 2.683927,-1.24058 1.256672,0.32863 6.530685,-0.90359 7.693377,-1.79748 0.26211,-0.20151 0.658985,-0.39342 0.881944,-0.42646 0.222963,-0.0331 1.437259,-0.33478 2.69844,-0.67056 1.26118,-0.33577 2.491493,-0.61996 2.734028,-0.63155 0.242534,-0.0116 0.440972,-0.15335 0.440972,-0.31504 0,-0.16169 0.863755,-0.29398 1.919457,-0.29398 1.055701,0 2.017571,-0.15875 2.137487,-0.35278 0.119916,-0.19403 0.596166,-0.35278 1.058333,-0.35278 0.462167,0 0.93575,-0.15443 1.052411,-0.34319 0.116656,-0.18875 0.880085,-0.51388 1.696511,-0.72251 2.103124,-0.53743 5.2395297,-1.72432 8.8045501,-3.33184 0.6305903,-0.28434 1.5830903,-0.61905 2.1166666,-0.7438 0.5335764,-0.12474 0.9701389,-0.35773 0.9701389,-0.51775 0,-0.16001 0.4836689,-0.27719 1.0748186,-0.26038 0.5911497,0.0168 1.50396213,-0.2865 2.02847211,-0.67401 0.52450998,-0.38751 1.68723019,-1.0289 2.58382199,-1.42529 0.8965917,-0.3964 1.7454526,-0.90725 1.8863521,-1.13523 0.1408994,-0.22799 0.6773262,-0.58319 1.1920537,-0.78935 4.3074239,-1.72521 5.2300719,-1.7986 5.7018799,-0.45358 0.281386,0.80216 -0.584951,1.56943 -3.994298,3.53753 l -2.4032879,1.38734 0.9921769,0.81511 c 1.4037309,1.15322 3.6000759,2.25259 4.002888,2.00364 0.187371,-0.1158 0.340678,-0.0331 0.340678,0.18387 0,0.21693 0.154798,0.29875 0.343997,0.18181 0.189198,-0.11692 0.78451,0.27357 1.322916,0.86778 1.351414,1.49147 2.980934,1.91984 3.932128,1.03366 0.892906,-0.83187 1.286394,-0.84226 2.073875,-0.0548 0.623909,0.62391 0.669555,2.20486 0.06366,2.20486 -0.663455,0 -0.30081,1.15431 0.648225,2.06333 1.426309,1.36616 2.199266,2.71718 2.193132,3.83329 -0.01012,1.84362 -1.32091,2.66122 -2.138631,1.33397 z m -75.166842,-0.58407 c -1.410271,-0.29654 -3.878858,-1.47332 -5.198504,-2.47813 -0.462728,-0.35234 -1.080227,-0.64061 -1.372221,-0.64061 -1.32171,0 -1.989984,-2.55568 -0.880424,-3.36702 0.506289,-0.3702 0.770876,-0.33177 1.553764,0.2257 0.518964,0.36953 1.096091,0.67188 1.282506,0.67188 0.186418,0 0.744346,0.31889 1.239844,0.70865 0.495498,0.38976 1.385658,0.8056 1.978134,0.9241 0.647951,0.12959 1.441722,0.69331 1.991886,1.41462 0.503061,0.65955 1.06306,1.10746 1.244441,0.99536 0.493236,-0.30484 0.397912,0.87938 -0.111188,1.38134 -0.298948,0.29476 -0.855561,0.34761 -1.728238,0.16411 z m -21.25511,-8.40813 c -1.024456,-0.96888 -1.967452,-1.6568 -2.09555,-1.5287 -0.1281,0.1281 -0.232907,0.0477 -0.232907,-0.17867 0,-0.22636 -0.24765,-0.41157 -0.55033,-0.41157 -0.302683,0 -1.278011,-0.55563 -2.167396,-1.23472 -0.957926,-0.73143 -2.019296,-1.23473 -2.603852,-1.23473 -0.542728,0 -1.094324,-0.174 -1.225766,-0.38668 -0.143005,-0.23139 -0.682681,-0.29577 -1.343737,-0.16032 -0.607614,0.12451 -2.409748,0.43021 -4.004744,0.67934 -3.16998,0.49513 -3.630118,0.34607 -3.620996,-1.17303 0.0114,-1.89928 0.184503,-1.95091 6.860717,-2.04645 3.402661,-0.0487 6.18666,0.0448 6.18666,0.20782 0,0.16301 0.633179,0.59972 1.407064,0.97049 0.773885,0.37076 1.408885,0.78819 1.411111,0.92762 0.0021,0.13943 0.216899,0.17184 0.477051,0.072 0.260153,-0.0998 1.25234,0.51895 2.204861,1.37507 1.003755,0.90217 2.250955,1.66162 2.966579,1.80642 2.600942,0.52627 2.495889,0.39122 2.15689,2.7728 -0.05527,0.38828 -2.32066,1.30491 -3.225009,1.30491 -0.405903,0 -1.576194,-0.79272 -2.600646,-1.76161 z"
       id="path1908"
       inkscape:label="ginger" /></g></svg>
