<?xml version="1.0" encoding="UTF-8" standalone="no"?>
<!-- Created with Inkscape (http://www.inkscape.org/) -->

<svg
   width="210mm"
   height="297mm"
   viewBox="0 0 210 297"
   version="1.1"
   id="svg10929"
   xml:space="preserve"
   inkscape:version="1.2.1 (9c6d41e, 2022-07-14)"
   sodipodi:docname="simpletree.svg"
   xmlns:inkscape="http://www.inkscape.org/namespaces/inkscape"
   xmlns:sodipodi="http://sodipodi.sourceforge.net/DTD/sodipodi-0.dtd"
   xmlns="http://www.w3.org/2000/svg"
   xmlns:svg="http://www.w3.org/2000/svg"><sodipodi:namedview
     id="namedview10931"
     pagecolor="#ffffff"
     bordercolor="#666666"
     borderopacity="1.0"
     inkscape:showpageshadow="2"
     inkscape:pageopacity="0.0"
     inkscape:pagecheckerboard="0"
     inkscape:deskcolor="#d1d1d1"
     inkscape:document-units="mm"
     showgrid="false"
     inkscape:zoom="0.64693624"
     inkscape:cx="248.09245"
     inkscape:cy="561.87917"
     inkscape:window-width="1637"
     inkscape:window-height="1387"
     inkscape:window-x="4"
     inkscape:window-y="25"
     inkscape:window-maximized="0"
     inkscape:current-layer="layer1" /><defs
     id="defs10926" /><g
     inkscape:label="Layer 1"
     inkscape:groupmode="layer"
     id="layer1"><path
       id="path11096"
       style="fill:#000000;stroke-width:0.0595655"
       d="m 194.37311,191.56539 c -0.87784,5.77663 -0.73951,11.70177 -2.42831,17.28491 -2.94199,5.04681 -7.87723,8.70187 -13.02932,11.24699 -7.62056,1.71512 -15.907,-0.60048 -21.59432,-6.00149 -6.6413,-4.00715 -13.86982,-1.09377 -20.89375,0.6554 -1.82925,1.23281 -6.04566,2.73519 -7.7123,5.74482 -2.29859,4.04344 -0.12016,-4.36764 3.06414,-4.27412 5.03818,-4.04519 11.7213,-4.20164 17.78425,-5.53931 5.8455,-0.42651 9.85412,3.94512 14.42514,6.699 5.31213,2.08816 11.95524,3.56853 17.24922,0.51116 5.25532,-3.6729 11.76246,-8.5329 10.97882,-15.6684 1.12679,-7.30232 2.09811,-15.0973 -1.3781,-21.85275 -3.2627,-9.95901 -10.81463,-17.63613 -18.73426,-24.12744 -2.31192,-3.03247 -7.64186,-5.75567 -8.30582,-8.94508 8.64105,-4.52948 18.04678,-8.49171 23.14117,-17.35949 4.59939,-6.5859 1.40052,-15.64749 -1.97217,-22.38878 -3.68938,-5.6365 -4.64115,-12.989194 -2.1754,-19.481116 1.72921,-6.235949 3.54197,-14.444705 -2.30944,-19.031511 -3.59913,-3.50436 -9.44233,-3.287088 -11.96914,-7.920719 1.9152,-3.508358 5.02756,-8.985513 0.37224,-11.735613 -4.61504,-3.485212 -10.69914,-5.590311 -16.74837,-6.752359 -7.02983,-0.680291 -14.07285,-1.46609 -20.57274,0.708794 -7.67189,2.555049 -15.89292,5.402205 -23.10138,9.023417 -5.65425,2.218922 -11.106646,4.943206 -16.686149,7.343807 -5.890447,2.08645 -11.773673,4.857043 -17.25941,6.938242 -5.573966,2.692076 -10.708441,6.082117 -16.138669,9.103142 -5.552212,3.458898 -10.441474,8.171213 -15.364606,11.816173 -9.952859,7.061911 -18.456275,16.425883 -23.976908,27.283163 -3.315245,8.04035 -3.835659,17.82126 1.416131,25.13318 3.518741,6.65574 12.123513,7.20465 18.803215,7.37576 3.386883,2.24631 0.06774,6.75355 -0.898364,9.57196 -1.915378,3.21465 -0.857554,7.80405 3.389532,8.24827 6.089744,0.66559 12.444916,4.87533 12.571309,11.5159 -0.309525,9.04051 -3.33496,18.16371 -9.901301,24.65464 -4.488836,5.74961 -8.312849,12.36127 -10.290294,19.48057 0.104813,3.82502 4.233993,5.88498 6.835034,8.22814 6.218804,3.20662 13.538484,3.416 20.114281,3.64491 9.137314,-1.01218 18.749135,-0.8219 27.12114,-5.26696 3.900074,-1.27256 7.615333,-2.93958 10.867883,-5.44923 7.856406,-1.25876 -3.2306,1.94901 -4.53377,4.01008 -2.073765,1.39939 -3.113736,0.64192 -5.369083,2.30103 -4.225904,1.12879 -8.608359,4.05065 -13.641484,3.89637 -8.781036,1.06701 -17.661533,2.35223 -26.283268,0.41309 -6.40701,-0.55503 -12.506941,-4.41996 -15.814868,-9.85099 0.205456,-6.90493 4.485994,-13.0009 7.932996,-18.79931 3.861713,-5.59433 9.409743,-10.29728 10.575497,-17.48536 1.73841,-6.08271 3.101487,-14.14187 -3.333891,-18.08904 -4.286294,-1.94449 -13.830058,-2.165 -11.791328,-9.12485 0.267534,-3.74287 4.026486,-7.11538 2.446299,-10.72895 -6.63592,-0.60183 -15.302311,-0.7011 -18.987782,-7.41083 -5.542456,-7.17538 -5.596828,-17.1483 -2.351624,-25.19084 4.332735,-10.24355 12.548822,-19.211527 21.268765,-26.425466 8.465512,-6.14161 15.905369,-13.684528 25.506487,-18.361052 7.966279,-5.193456 16.852064,-8.120759 25.524661,-11.840311 9.828529,-4.086802 19.475639,-8.708173 29.267549,-12.739232 1.74651,-0.189209 3.68104,-1.670477 6.18944,-2.172472 12.6746,-5.356402 27.77645,-4.29748 39.94383,1.823295 3.86288,1.947975 8.71368,5.970836 5.9344,10.639494 -0.91691,2.187469 -3.39561,4.752818 0.0551,6.143154 5.24099,2.959575 11.02859,4.516885 13.16285,10.599086 2.82058,10.191111 -6.21621,20.884441 -0.44613,30.621034 1.00347,2.49086 2.91815,4.88911 3.33911,6.97142 2.61989,6.76744 3.96674,14.88891 -1.10767,20.87467 -4.62886,7.22542 -12.65839,10.99649 -19.9803,14.95378 -2.79632,2.77151 5.94549,6.45748 7.38216,9.38668 8.42064,6.50116 15.31412,15.27895 18.52483,25.42664 1.22674,3.08651 1.9806,6.39779 1.89421,9.7409 z M 178.12828,67.073201 c -0.29973,0.113023 0.21584,0.18496 0,0 z m -5.73472,-2.631808 c -0.0963,0.232509 0.27404,-0.201046 0,0 z m -8.8388,83.418947 c -0.12534,0.23627 0.1339,0.055 0,0 z M 160.19552,44.140435 c -0.21379,0.152149 0.21379,0.152149 0,0 z m -1.61466,-0.05955 c -0.27932,0.303357 0.40949,0.250331 0,0 z m -6.6203,-1.666929 c -0.52197,0.05742 0.31324,0.221669 0,0 z m -38.7735,7.165841 c 0.0259,0.114792 0.26126,-0.08553 0,0 z m -20.836819,9.24358 c -0.217879,0.07208 0.212294,0.14685 0,0 z m -20.887414,8.890156 c -0.09675,0.328025 0.104347,0.05951 0,0 z m -6.611786,3.573934 c -0.09665,0.328032 0.104214,0.05953 0,0 z m -33.539436,26.18779 c 0.139929,0.25983 0.1724,-0.171388 0,0 z M 16.523192,121.27793 c -0.213642,0.15228 0.213642,0.15228 0,0 z m 175.834228,86.78684 c -0.11362,-0.17165 0.20467,-0.1391 0,0 z m -1.7239,-0.1787 c -0.22074,-0.15256 0.21367,-0.22877 0,0 z m -0.0528,-0.62126 c -0.65522,0.18705 -0.33085,-2.70456 0,0 z m -0.78373,-2.86172 c -0.64586,-0.20736 0.21909,-0.74905 0,0 z m -0.0964,-0.58238 c -0.64269,-0.48222 -0.11529,-1.18431 0,0 z m -0.31792,9.96236 c -0.21381,-0.15227 0.21381,-0.15227 0,0 z m -0.29782,-11.13876 c -0.21367,-0.22877 0.22074,-0.15256 0,0 z m 0.0189,-79.50897 c -0.0849,-0.26157 0.11527,-0.025 0,0 z m -0.22723,78.63696 c -0.44107,0.0197 0.17067,-0.22771 0,0 z m -0.19596,-0.65729 c -0.86726,0.51763 0.0707,-0.94599 0,0 z m -0.13917,0.29431 c -0.19927,-0.2212 0.13544,-0.0446 0,0 z m -0.1459,-0.67112 c -0.60879,-0.3288 -0.007,-1.36544 0,0 z m -0.20508,0.14832 c -0.1753,-0.18428 0.21265,-0.0459 0,0 z m -0.11817,-1.16093 c -0.21367,-0.22877 0.22074,-0.15256 0,0 z m -0.29783,-8.36897 c -0.2179,-0.0721 0.2123,-0.14696 0,0 z m 0.002,-0.77529 c -0.33136,-0.24987 0.19199,-0.16539 0,0 z m 0.003,-0.29943 c -0.2301,0.0666 0.0381,-0.23087 0,0 z m -0.004,-1.63552 c -0.21381,-0.15227 0.21381,-0.15227 0,0 z m -0.0604,10.15533 c -0.1753,-0.18428 0.21265,-0.0459 0,0 z m -0.0911,-6.46226 c -0.38591,-0.096 0.32762,-0.24274 0,0 z m 0.092,-0.50631 c -0.23511,-0.0741 0.22713,-0.21342 0,0 z m -0.0894,-5.33113 c -0.32316,-0.17052 0.31575,-0.13795 0,0 z m -0.01,2.90383 c -0.34977,-0.007 0.29444,-0.43098 0,0 z m -0.0832,2.69535 c -0.11341,-0.17204 0.20423,-0.13862 0,0 z m -0.056,-6.67136 c -0.21381,-0.15227 0.21381,-0.15227 0,0 z m -0.0894,8.39876 c -0.31403,-0.14777 0.31403,-0.14777 0,0 z m -0.0298,-7.26701 c -0.2123,-0.14696 0.2179,-0.0721 0,0 z m -0.57674,-4.09886 c -0.0849,-0.26154 0.11529,-0.0251 0,0 z m -0.19403,-0.90466 c -0.48052,-0.2872 0.36213,-0.42299 0,0 z m -1.43314,-2.74001 c -0.21367,-0.22877 0.22074,-0.15256 0,0 z m -0.1573,-0.59566 c -0.59625,-0.36719 0.24446,-0.38533 0,0 z m -0.31926,-0.38717 c -0.22686,-0.21378 0.23492,-0.0741 0,0 z m -0.53962,-23.26038 c -0.11323,-0.17224 0.20393,-0.1384 0,0 z m -1.12903,-3.93102 c -0.2123,-0.14696 0.2179,-0.0721 0,0 z M 182.8303,99.804535 c -0.21788,-0.07205 0.2123,-0.146849 0,0 z m -0.39804,69.971015 c -0.0849,-0.26152 0.11524,-0.0251 0,0 z m 8.4e-4,-0.2941 c -0.0965,-0.32828 0.10409,-0.0592 0,0 z m -0.13926,-19.99916 c -0.22074,-0.15256 0.21367,-0.22877 0,0 z m -0.19059,0.0179 c -0.40794,0.15061 0.0409,-0.30431 0,0 z m -0.1073,-0.25613 c -0.22675,-0.2139 0.23485,-0.074 0,0 z m -4.64612,-87.442225 c -0.21796,-0.153201 0.20321,-0.300375 0,0 z m -0.11566,0.923259 c -0.28219,-0.09069 0.2131,-0.15488 0,0 z m -0.26518,2.14437 c -0.19423,-0.232558 0.10571,-0.238742 0,0 z m -0.43416,79.293026 c -0.0849,-0.26157 0.11527,-0.025 0,0 z m -0.17097,72.84024 c -0.38314,0.22786 0.0685,-0.52415 0,0 z m -1.84832,-0.54342 c -0.15873,-0.0864 0.257,-0.0258 0,0 z m -0.68004,0.2727 c -0.2123,-0.14696 0.2179,-0.0721 0,0 z m -0.11913,-75.11226 c -0.25495,0.42789 0.0744,-0.49146 0,0 z m -2.08833,74.60596 c -0.29125,-0.0463 0.19282,-0.16707 0,0 z m -0.23474,-0.11913 c -0.12653,0.5532 -0.39311,-0.62623 0,0 z m -0.26805,-0.3574 c -0.31403,-0.14777 0.31403,-0.14777 0,0 z m -0.20144,-0.11913 c -0.27821,-0.0984 0.10287,-0.20681 0,0 z m -0.19563,-0.17869 c -0.42457,-0.0302 0.10043,-0.23826 0,0 z m -0.28783,-0.1787 c -0.2123,-0.14696 0.2179,-0.0721 0,0 z m -0.5677,0.59565 c -0.53901,-0.4704 0.37055,-0.0568 0,0 z m -1.73572,-0.78471 c -0.98999,-0.50174 -0.0547,-0.28167 0,0 z m -0.0637,-0.4986 c -2.153,-0.63833 -0.13598,-0.3893 0,0 z m -0.877,-139.738333 c -2.5658,3.965535 -4.80331,7.889667 -4.11373,12.780356 -1.58484,11.081442 -6.40411,21.704847 -14.25957,29.775757 -8.24324,9.79869 -16.59329,19.4138 -23.73795,29.9055 -4.23891,4.99646 -7.86247,11.1939 -6.48422,18.0332 -1.13761,10.34306 -5.41353,20.97498 -1.72482,31.32952 1.00402,4.11422 4.92641,4.51071 8.19638,5.49725 4.59122,4.60141 -1.80408,10.69818 0.12505,16.10313 1.58238,6.13488 5.74926,11.47228 9.88068,16.29792 3.21239,2.64258 6.96762,5.50565 10.86636,6.25617 -5.34163,0.76652 -9.70677,-3.97458 -13.44693,-7.19185 -4.42392,-6.34039 -10.66225,-13.65651 -8.08368,-22.07506 0.68677,-2.98778 3.13309,-7.8451 -1.5661,-9.06145 -6.76647,-0.49818 -8.39721,-8.53443 -8.39316,-14.08851 -0.65209,-9.83518 4.16264,-19.02634 2.96298,-28.85283 1.56596,-8.32993 8.51293,-14.21161 12.85398,-21.01206 8.25254,-11.55834 19.20715,-21.19349 26.46801,-33.45025 2.87008,-6.833491 5.9121,-14.020432 5.52446,-21.554337 -7.03628,9.979533 -12.88753,21.071277 -21.04259,30.263487 -5.23665,4.25439 -11.44896,7.27126 -16.0315,12.36695 -11.87566,12.73673 -19.65278,29.05206 -23.78134,45.84104 -0.78287,8.64115 -2.462216,3.12354 -0.42318,-2.1903 4.34975,-15.74309 11.75878,-31.07316 22.69478,-43.30451 4.56889,-5.29328 10.59293,-8.78586 16.21148,-12.63812 7.69756,-8.35505 13.34299,-18.30297 19.64719,-27.616216 2.52845,-1.363076 1.16209,-7.316959 3.38325,-5.785908 1.29597,-1.001935 3.27355,-6.701489 4.27417,-5.628879 z m -0.0128,140.198893 c -0.0847,-0.26207 0.11253,-0.0241 0,0 z m -0.0189,-0.33878 c -0.2123,-0.14696 0.2179,-0.0721 0,0 z m -0.41697,0.14892 c -0.2196,-0.3123 0.2196,-0.3123 0,0 z m -0.52413,-0.7148 c -0.60741,0.0278 0.31914,-0.22387 0,0 z m -0.39413,0.0298 c -0.56314,-0.0201 0.33501,-0.24457 0,0 z m -0.53404,0.0894 c -0.48844,-0.35933 0.35768,-0.16551 0,0 z m -0.57411,-0.43133 c -1.06519,-0.0409 0.38352,-0.28415 0,0 z m -0.83228,0.25263 c -0.41462,-0.0424 0.41478,-0.13592 0,0 z m -0.2234,-0.95396 c -0.37488,-0.0665 0.18629,-0.27233 0,0 z m -0.31269,-0.148 c -0.2179,-0.0721 0.2123,-0.14696 0,0 z m -0.11276,0.98283 c -0.26794,-0.0592 0.22194,-0.60523 0,0 z m 8.3e-4,-131.188878 c -0.30031,-0.07514 0.17228,-0.453626 0,0 z m -0.8163,130.950618 c -0.28599,-0.11643 0.35539,-0.15368 0,0 z m -0.62029,-0.62554 c -0.21381,-0.15227 0.21381,-0.15227 0,0 z m -0.53555,0.0472 c -0.34588,-0.17755 0.4087,-0.05 0,0 z m -0.71491,-0.22608 c -0.46248,0.21981 0.11653,-0.5149 0,0 z m -0.77489,0.26822 c -0.21773,-0.23263 0.21773,-0.23263 0,0 z m -0.0411,-0.3583 c -0.52314,-0.0266 0.22034,-0.1706 0,0 z m -1.18121,8.3e-4 c -0.77414,-0.69276 0.41917,-0.15277 0,0 z m -0.62929,-0.21182 c -0.7004,0.1128 -0.46683,-0.85398 0,0 z m -0.41184,-0.50314 c -0.51593,-0.14088 0.51593,-0.14088 0,0 z M 148.66494,53.844681 c -0.1587,-0.08631 0.25706,-0.02565 0,0 z m -4.07551,190.972069 c -0.21381,-0.15227 0.21381,-0.15227 0,0 z m -0.17956,-2.59111 c -0.51267,2.25151 -1.23537,-0.19428 0,0 z m -0.14455,-0.0298 c -0.20468,0.1397 0.11402,0.17113 0,0 z m -1.34369,2.88894 c -0.21367,-0.22877 0.22074,-0.15256 0,0 z m -0.18221,1.16152 c -0.11341,-0.17204 0.20423,-0.13862 0,0 z m 0.004,-0.62544 c -0.22675,-0.2139 0.23485,-0.074 0,0 z m -0.50631,0.59927 c -0.52276,0.38112 0.19758,-0.30082 0,0 z m -0.62895,1.99184 c -0.11362,-0.17165 0.20467,-0.1391 0,0 z m 0.004,-1.2211 c -0.23492,-0.0741 0.22686,-0.21378 0,0 z m -0.18221,0.26804 c -0.11328,-0.17185 0.20448,-0.13885 0,0 z m -0.67624,0.53539 c -0.12822,-0.28116 0.21448,-0.0246 0,0 z m -0.63069,2.35356 c -0.22686,-0.21378 0.23492,-0.0741 0,0 z m -0.19781,-1.34024 c -0.51814,0.43135 0.17473,-0.5768 0,0 z m -0.16309,-7.98178 c -0.11359,-0.17172 0.20464,-0.13901 0,0 z m -0.23475,8.51788 c -0.21228,-0.14675 0.21786,-0.0721 0,0 z m -0.11913,1.31045 c -0.22074,-0.15256 0.21367,-0.22877 0,0 z m -0.44675,-10.36443 c -0.31265,-0.1415 0.31476,-0.0514 0,0 z m -0.40852,11.21664 c -0.35795,0.0841 0.10558,-0.24628 0,0 z m -0.008,-1.44787 c -0.31403,-0.14777 0.31403,-0.14777 0,0 z m -0.18365,-10.42399 c -0.286,-0.11643 0.35542,-0.15368 0,0 z m -0.0248,10.66225 c -0.22074,-0.15256 0.21367,-0.22877 0,0 z m -0.75548,-10.82978 c -0.0849,-0.26158 0.11527,-0.0251 0,0 z m -0.0933,-20.99941 c -1.20873,0.2883 0.46472,-0.91962 0,0 z m -0.22133,-0.63409 c -1.09158,-0.78938 -0.88622,-1.58141 0,0 z m -0.12123,21.29473 c -0.21224,-0.14714 0.21778,-0.0722 0,0 z m 0.007,-20.34167 c -0.27814,-0.0984 0.10252,-0.2068 0,0 z m -0.18572,0.41696 c -0.22074,-0.15256 0.21367,-0.22877 0,0 z m -0.042,32.62707 c -0.83644,1.16009 -0.3014,-0.8004 7.5e-4,-2e-5 z m -0.0458,-32.82789 c -0.84668,-0.4169 0.34664,-0.0538 0,0 z m -0.1188,19.55964 c -0.21897,-0.0891 0.23778,-0.27738 0,0 z m -0.56476,13.6316 c -0.25135,-0.11014 0.19443,-0.0792 0,0 z m -0.0626,-32.84151 c -0.2179,-0.0721 0.2123,-0.14696 0,0 z m -0.0894,-2.88894 c -0.27684,-0.16141 0.27666,-0.16189 0,0 z m -0.0894,-0.38716 c -0.2123,-0.14696 0.2179,-0.0721 0,0 z m -0.30441,36.56074 c -2.11312,1.94637 0.70141,-1.5936 0,0 z m 0.091,-15.18302 c -0.27342,-0.0405 0.35597,-0.19106 0,0 z m -0.019,-17.42387 c -0.48807,0.0622 0.10869,-0.41853 0,0 z m -2.02457,12.27772 c -1.06208,-0.82473 -0.1989,-1.09309 0,0 z m -13.56381,-95.66708 c -0.15872,-0.0864 0.25692,-0.0259 0,0 z m -2.50688,51.96593 c -0.2698,0.18315 0.0512,-0.26182 0,0 z m -0.32127,5.51974 c -0.11328,-0.17185 0.20448,-0.13885 0,0 z M 111.34969,65.575451 c -4.77711,8.286875 -7.09703,17.743346 -10.66286,26.613008 -1.007806,9.637201 -3.620476,19.107621 -4.474226,28.734411 -0.004,4.51318 0.87544,8.83355 2.81105,12.86354 0.51948,6.81151 5.613946,12.04722 7.102716,18.57466 -2.88918,-2.86158 -3.61858,-7.59336 -6.153406,-10.95784 -1.94058,-4.23893 -2.17032,-8.88111 -4.28879,-13.0473 -1.96034,-10.79642 2.08121,-21.30026 3.3654,-31.925768 -1.26737,0.216584 -2.74196,4.581738 -4.43759,5.999558 -3.136782,6.33685 -11.289246,9.14414 -17.512181,5.57374 -3.319954,-2.25068 -9.029513,-5.69963 -3.663266,-0.23599 7.777724,9.80332 14.00093,20.85885 19.750957,32.06483 2.68372,4.90888 6.947976,9.75601 7.026006,15.48575 -3.185466,5.80216 -6.933306,11.41965 -8.224166,18.04222 -2.110835,6.93399 -1.753541,14.68129 2.65426,20.64447 3.13074,7.2985 9.542676,12.89543 11.684006,20.61228 0.6348,4.27043 0.54657,9.01842 -0.0947,12.49577 0.97045,0.63215 -0.80276,-0.022 -0.72052,1.57966 0.47203,0.86881 -0.70576,2.87701 -1.19193,4.07726 -1.55757,4.15343 -4.12272,8.84789 -4.731466,12.76504 -1.53986,2.2352 -2.05001,5.57234 -2.93977,8.3537 -1.20684,4.60742 -0.766,8.80889 -1.73358,13.54836 0.59444,0.54209 -0.93414,2.32937 -0.93129,3.90979 0.62441,2.22134 -2.999528,6.76357 -1.78095,2.87186 1.38229,-5.637 2.69318,-11.57139 2.68143,-17.57777 0.14979,-1.57399 0.66356,-2.58695 1.15506,-4.67603 2.50636,-10.62928 9.140846,-19.82658 9.575996,-30.99695 0.37936,-2.89009 -1.25298,-4.58164 -1.48202,-6.66176 1.73035,-1.55548 -1.86276,-5.17904 -2.8815,-7.37844 -4.556936,-6.90714 -9.707809,-13.97204 -11.530649,-22.18271 -0.339774,-9.74389 2.924453,-19.48923 8.403063,-27.58024 2.954096,-4.21179 -1.52661,-8.65475 -3.12455,-12.51023 -5.587019,-8.21461 -9.338425,-18.99483 -15.336262,-26.10843 -3.715901,-6.94587 -8.893517,-13.27677 -14.561612,-18.599943 2.856394,0.670323 5.287032,3.736703 8.378769,4.772383 4.495945,3.27415 10.457881,5.657 15.737962,2.38259 4.299983,-3.97649 7.699443,-9.014918 10.157643,-14.340392 0.56254,-5.296037 2.348816,-11.852476 5.240836,-16.997244 2.7886,-3.433755 3.53605,-8.226775 6.32294,-11.45274 0.45513,0.19005 0.84749,0.709211 0.40915,1.264897 z m -3.8343,5.250161 c -0.19418,0.232582 0.1054,0.238739 0,0 z m -1.22396,153.679338 c -0.41306,0.30623 0.24433,0.0937 0,0 z m -0.32761,2.68046 c -0.20441,0.13919 0.1136,0.17157 0,0 z m -0.56938,-10.66526 c -0.61786,0.0231 0.24745,0.75542 0,0 z m -0.0333,-0.99645 c -1.02316,-2.44074 -0.2671,2.74879 0,0 z m 0.007,-138.384126 c -0.20466,0.139527 0.114,0.171029 0,0 z m -0.54105,137.251136 c -1.0612,-0.0246 0.66599,0.56346 0,0 z m -0.0607,1.21841 c -0.2282,0.0876 0.14266,0.0965 0,0 z m -5.090296,28.93967 c -0.22672,0.21406 0.23483,0.0735 0,0 z M 109.26589,66.596517 c -0.21229,-0.14685 0.21788,-0.07208 0,0 z m -0.063,87.501933 c -0.1136,-0.17157 0.20441,-0.13919 0,0 z m -0.15027,0.44036 c -0.3171,-0.0739 0.3584,-0.16761 0,0 z m -0.86235,2.18053 c -0.11362,-0.17165 0.20467,-0.1391 0,0 z m -1.42613,70.7044 c -0.21367,-0.22877 0.22074,-0.15256 0,0 z m -0.14892,-0.89348 c -0.27666,-0.16189 0.27684,-0.16141 0,0 z m -0.0873,0.41696 c -0.40152,-0.0829 0.11323,-0.30313 0,0 z M 106.40775,71.421487 c -0.2138,-0.152139 0.2138,-0.152139 0,0 z m -0.19813,157.502003 c -0.35962,0.0125 0.24614,-0.14648 0,0 z m -0.0139,-0.9635 c -0.20967,-0.0689 0.19529,-0.15896 0,0 z m -0.056,-78.81695 c -0.28311,-0.0649 0.35888,-0.0354 0,0 z m -0.0312,82.77933 c -0.39977,0.15363 0.3772,-0.43511 0,0 z m -0.17679,-0.71606 c -0.2179,-0.0721 0.2123,-0.14696 0,0 z m -0.0515,-69.69673 c -0.29596,0.14009 0.0857,-0.21794 0,0 z m -0.45826,69.60739 c -0.20966,-0.0689 0.19519,-0.15901 0,0 z m -0.23476,-67.96439 c -0.51881,-0.0389 0.51977,-0.13024 0,0 z m -0.26798,70.48339 c -0.48755,0.0858 0.3878,-0.38652 0,0 z m 0.0595,-1.47661 c -0.21222,-0.14686 0.21781,-0.072 0,0 z m -0.19359,-79.4143 c -3.29562,-0.95546 0.0532,-0.36873 0,0 z m 0.0735,81.49851 c -0.1753,-0.1841 0.21242,-0.0462 0,0 z m -0.0545,-0.95501 c -0.32558,-0.16467 0.25335,-0.14384 0,0 z m -0.1539,-68.3867 c -0.61634,0.12482 0.25685,-0.28041 0,0 z m -0.32678,69.72947 c -0.21228,-0.14675 0.21786,-0.0721 0,0 z m -0.7148,-68.38134 c -0.2123,-0.14696 0.2179,-0.0721 0,0 z m -0.74334,2.08479 c -0.21089,-0.24929 0.29476,-0.21387 0,0 z m -0.50818,71.71703 c -0.21381,-0.15227 0.21381,-0.15227 0,0 z m -0.59513,2.11458 c -0.21221,-0.14693 0.21774,-0.0721 0,0 z m -0.23826,-0.59567 c -0.2179,-0.0721 0.2123,-0.14696 0,0 z m -0.32759,-97.24088 c -0.31403,-0.14777 0.31403,-0.14777 0,0 z m -0.0891,97.06219 c -0.2179,-0.0721 0.2123,-0.14696 0,0 z m -0.45668,-6.26432 c -0.26978,0.18314 0.0512,-0.26181 0,0 z m -0.13486,9.41876 c -0.23,0.0667 0.0379,-0.23085 0,0 z m -0.1069,-101.05056 c -0.34807,0.10399 -0.0624,-0.48528 0,0 z m -0.520126,90.83759 c -0.57872,-0.85195 0.10245,-0.54581 0,0 z m -0.51238,12.86618 c -0.11362,-0.17165 0.20467,-0.1391 0,0 z m 0.004,-1.13175 c -0.21381,-0.15227 0.21381,-0.15227 0,0 z m -0.34807,-70.22879 c -0.53336,-0.0844 0.21716,-0.58392 0,0 z m -0.18802,1.37091 c -0.74739,-0.4467 0.13113,-0.98633 0,0 z m -0.50273,21.92017 c -0.40423,-0.1059 0.3219,-0.18428 0,0 z m -0.15249,52.3582 c -0.21381,-0.15227 0.21381,-0.15227 0,0 z M 95.567954,135.9906 c -0.2123,-0.14696 0.2179,-0.0721 0,0 z m -0.51264,24.47678 c -0.15872,-0.0858 0.25735,-0.028 0,0 z m -0.20314,-6.19013 c -0.21381,-0.15227 0.21381,-0.15227 0,0 z m -1.55377,6.67136 c -0.16708,-0.37591 0.36786,-0.0122 0,0 z m 0.008,-30.19978 c -0.2579,-0.007 0.0543,-0.18164 0,0 z m -0.11562,-0.47652 c -0.27821,-0.0984 0.10287,-0.20681 0,0 z m 8.3e-4,-11.41177 c -0.29599,0.1401 0.0857,-0.21795 0,0 z m -1.971413,-4.61139 c -0.105709,-0.23887 0.19423,-0.2327 0,0 z m -0.65711,6.87983 c -0.212279,-0.14675 0.217857,-0.0721 0,0 z m -3.134955,13.03337 c -0.407367,-0.0284 0.186318,-0.5913 0,0 z m -4.797125,-9.29669 c -0.204573,-0.27756 0.133043,-0.0855 0,0 z m -6.30748,-15.67954 c -0.113671,-0.17161 0.204553,-0.13914 0,0 z M 55.985426,48.429158 c -0.332249,0.09597 0.347867,-0.372106 0,0 z m -0.264231,0.297825 c -0.299975,-0.113026 0.216089,-0.184968 0,0 z m -4.14829,134.916167 c -0.286194,-0.11636 0.355312,-0.15373 0,0 z m -2.407437,5.0333 c -0.220562,-0.15255 0.213494,-0.2288 0,0 z M 48.387465,82.381567 c -0.113534,-0.171504 0.204512,-0.138979 0,0 z M 47.326792,192.60284 c -0.295971,0.14005 0.0856,-0.21771 0,0 z m -0.243271,0.50231 c -0.165086,-0.2441 0.167214,-0.0358 0,0 z m -0.221129,0.61948 c -0.09673,-0.32827 0.104457,-0.0591 0,0 z m -5.32007,16.84169 c -0.335763,0.20913 0.111736,-0.50973 0,0 z m -0.04358,0.49191 c -0.08947,-0.59422 0.09111,-0.11624 0,0 z m -0.355066,1.07715 c -0.378413,0.19239 0.11094,-0.45368 0,0 z m -0.04957,-48.38715 c -0.313864,-0.14778 0.313864,-0.14778 0,0 z m -1.03889,51.52429 c -0.299954,-0.11318 0.216085,-0.18506 0,0 z m -0.241773,0.47651 c -0.42376,-0.19892 0.428776,-0.15081 0,0 z m -0.999848,1.42958 c -0.42433,-0.28816 0.368564,-0.12763 0,0 z m -0.131899,-0.32762 c -0.217727,-0.0721 0.212132,-0.14695 0,0 z m -0.178702,0.7148 c -0.220573,-0.15258 0.213521,-0.22878 0,0 z m -0.134219,0.34427 c -0.538687,-0.0454 0.515927,-0.25055 0,0 z m -0.441577,0.71798 c -0.709317,0.23283 0.257832,-0.5473 0,0 z m -0.258824,0.33754 c -0.588061,0.30249 0.175915,-0.62505 0,0 z m -0.386519,0.41696 c -0.290149,-0.33546 0.417601,-0.23071 0,0 z m -0.446742,1.2211 c -0.212042,-0.14692 0.217572,-0.0721 0,0 z m -2.561312,0.32761 c -0.213642,-0.15228 0.213642,-0.15228 0,0 z M 29.15114,99.059942 c -0.213644,-0.152164 0.213644,-0.152164 0,0 z M 15.687357,127.29406 c -0.194309,-0.2327 0.105632,-0.23887 0,0 z" /></g></svg>
