<?xml version="1.0" encoding="UTF-8" standalone="no"?>
<!-- Created with Inkscape (http://www.inkscape.org/) -->

<svg
   width="210mm"
   height="297mm"
   viewBox="0 0 210 297"
   version="1.1"
   id="svg5"
   xml:space="preserve"
   sodipodi:docname="wigglytree.svg"
   inkscape:version="1.2.1 (9c6d41e, 2022-07-14)"
   xmlns:inkscape="http://www.inkscape.org/namespaces/inkscape"
   xmlns:sodipodi="http://sodipodi.sourceforge.net/DTD/sodipodi-0.dtd"
   xmlns="http://www.w3.org/2000/svg"
   xmlns:svg="http://www.w3.org/2000/svg"><sodipodi:namedview
     id="namedview7"
     pagecolor="#ffffff"
     bordercolor="#666666"
     borderopacity="1.0"
     inkscape:showpageshadow="2"
     inkscape:pageopacity="0.0"
     inkscape:pagecheckerboard="0"
     inkscape:deskcolor="#d1d1d1"
     inkscape:document-units="mm"
     showgrid="false"
     inkscape:zoom="0.64693624"
     inkscape:cx="85.78898"
     inkscape:cy="735.00288"
     inkscape:window-width="1637"
     inkscape:window-height="1387"
     inkscape:window-x="4"
     inkscape:window-y="25"
     inkscape:window-maximized="0"
     inkscape:current-layer="layer1" /><defs
     id="defs2"><filter
       x="-0.0073818899"
       width="1.0147638"
       y="-0.0098425201"
       height="1.019685"
       inkscape:menu="Non-Realistic 3D Shaders"
       inkscape:menu-tooltip="Comics cartoon drawing effect"
       inkscape:label="Comics"
       style="color-interpolation-filters:sRGB"
       id="filter320"><feGaussianBlur
         in="SourceGraphic"
         stdDeviation="5"
         result="result8"
         id="feGaussianBlur302" /><feComposite
         in2="result8"
         operator="xor"
         result="result19"
         id="feComposite304" /><feComposite
         k2="1"
         operator="arithmetic"
         result="result17"
         in2="result8"
         id="feComposite306" /><feOffset
         result="result18"
         in="SourceGraphic"
         id="feOffset308" /><feDisplacementMap
         in2="result17"
         in="result18"
         xChannelSelector="A"
         yChannelSelector="A"
         scale="100"
         result="result4"
         id="feDisplacementMap310" /><feComposite
         in2="result4"
         result="result2"
         operator="arithmetic"
         in="SourceGraphic"
         k3="1"
         id="feComposite312" /><feComposite
         in2="SourceGraphic"
         result="fbSourceGraphic"
         in="result2"
         operator="in"
         id="feComposite314" /><feComposite
         in2="SourceGraphic"
         operator="in"
         result="result15"
         id="feComposite316" /><feComposite
         result="result16"
         in2="SourceGraphic"
         operator="in"
         in="result15"
         id="feComposite318" /></filter></defs><g
     inkscape:label="Layer 1"
     inkscape:groupmode="layer"
     id="layer1"><path
       style="fill:#000000;stroke-width:0.352778"
       d="m -11.712041,-529.19785 c 0,-0.19403 0.168134,-0.35278 0.373592,-0.35278 0.205493,0 0.275484,0.15875 0.155575,0.35278 -0.11991,0.19402 -0.288044,0.35277 -0.373592,0.35277 -0.08558,0 -0.155575,-0.15875 -0.155575,-0.35277 z"
       id="path8728" /><path
       style="fill:#000000;stroke-width:0.352778"
       d="m -32.944854,-513.30081 c 0.08819,-0.26459 -0.0441,-0.39688 -0.30868,-0.30869 -0.25467,0.0849 -0.532483,0.3627 -0.617361,0.61737 -0.0882,0.26458 0.0441,0.39687 0.30868,0.30868 0.254671,-0.0849 0.532483,-0.36271 0.617361,-0.61736 z"
       id="path7976" /><path
       id="path7442"
       style="fill:#000000;stroke-width:0.0599279"
       d="m 203.94639,69.750769 c -2.49146,2.325926 -6.60681,1.439493 -9.83106,2.085795 0.0227,-1.080297 -2.83442,0.526403 -4.88195,0.153126 -4.26141,0.370204 -8.18592,0.799269 -11.79838,1.460878 -3.24905,0.148594 -2.22252,1.547057 0.587,0.956271 2.91252,1.489358 -1.2313,2.299163 -2.38982,2.881031 -1.98861,2.007128 -6.62776,2.394886 -5.58058,6.045047 -0.90083,3.4292 -4.9934,4.277722 -7.76267,6.017129 -4.27186,1.305942 -8.62462,1.950678 -12.87955,4.141608 -9.64023,4.520841 -16.13638,15.986726 -13.44804,26.567196 1.81111,3.74424 5.89155,4.01862 9.55714,3.79689 4.21382,0.17377 8.83872,1.15279 10.75703,5.38339 1.21741,1.39173 1.7708,4.61492 2.07587,6.12312 -0.27018,-0.33008 -0.0148,3.90455 0.2757,3.05009 -0.11343,4.19776 -2.09256,8.6531 -3.28462,13.12785 -2.40442,5.2432 -1.06529,11.93873 4.31641,14.79767 5.2803,3.14389 9.97862,9.68967 6.51964,15.85923 -0.99106,1.67065 -0.72982,2.39375 -2.01278,3.86452 -2.21135,1.92562 0.53682,4.72992 -1.23833,6.85614 -3.11633,6.14342 -10.06793,8.82176 -13.71784,14.4372 1.20712,3.90656 -1.34688,7.60621 -5.45904,7.91087 -8.82089,2.47127 -18.0199,3.39226 -26.85959,5.82491 -9.94574,4.05153 -20.411716,7.09253 -29.520534,13.03196 -1.76563,0.73878 -8.24796,7.7325 -5.28553,2.57589 4.45633,-4.06041 10.63178,-6.84368 16.105568,-9.51715 1.47273,-0.64159 4.885646,-1.97817 6.688176,-2.6387 4.1026,-1.2167 7.99003,-3.34578 11.88152,-4.52982 5.44829,-1.95298 11.32859,-1.93942 16.84808,-3.70467 4.62056,-1.05588 9.9217,-1.28036 13.82668,-4.01925 1.7216,-1.99518 -0.70763,-4.87223 1.49321,-6.72588 4.12844,-5.09438 10.9776,-7.75483 13.39291,-14.11087 -0.5942,-2.24668 -0.85127,-4.63258 0.97158,-6.68821 2.01236,-3.04609 3.7657,-6.6238 2.54892,-10.3776 -0.62094,-0.71264 -1.76133,-3.12379 -3.19767,-4.34795 -3.81869,-3.40288 -9.68034,-6.10044 -9.61872,-11.99118 0.13859,-7.70047 5.47541,-14.52802 4.11945,-22.35423 0.0925,-5.3727 -4.1323,-11.1321 -9.98374,-10.58399 -3.72778,-0.70368 -8.39819,0.70786 -10.78087,-2.95149 -3.39776,-3.18553 -1.45435,-8.68671 -1.55839,-12.76375 2.69423,-9.25506 10.49669,-16.620257 19.77617,-18.927961 5.07776,-1.209707 10.59342,-2.779374 14.20288,-6.722593 -1.40021,-3.986483 2.50836,-4.928127 5.13472,-6.754768 4.77266,-1.006369 -3.92192,-2.684094 0.54343,-4.082325 8.52643,-1.736774 17.46935,-1.467373 26.08633,-2.971453 2.57979,-0.875311 -4.85982,-2.293741 -3.88881,-1.734123 -4.6453,-1.279222 -9.26573,-2.93558 -14.16235,-2.980409 -5.46703,-1.273814 -11.2754,-0.807866 -16.82365,-1.385866 -3.37121,-0.132181 -7.28336,0.386737 -10.24048,0.400819 -1.96492,0.0018 -6.71189,-0.0416 -9.2176,0.164032 -5.49351,0.812986 -10.97283,1.004565 -16.34961,1.825971 -0.7244,0.04356 -3.79729,1.989637 -3.04995,1.232577 0.78189,-0.665314 -3.03999,0.03648 -2.46392,-0.02216 -3.34682,0.37802 -5.75395,-0.37372 -8.55117,1.518382 -0.79991,-1.339201 -3.21933,0.333279 -3.16927,-0.112456 -2.03258,1.043283 -5.13257,0.03977 -5.21621,3.019545 -0.20523,3.349086 -3.67794,2.356275 -1.15707,0.09015 0.0451,-2.135384 1.01019,-4.484892 3.30692,-3.339449 1.94766,-0.616332 2.31436,-0.359315 4.21379,-0.718772 3.22909,-0.687936 5.41428,-1.827364 8.86049,-1.399979 2.99599,-0.0018 6.77093,-1.051721 9.05769,-1.940168 -1.68447,1.005845 7.38329,-0.318748 5.41487,-0.125144 7.42028,-0.992742 14.90973,-1.190033 22.35305,-1.31231 6.57544,-0.939096 14.11776,0.454395 21.03556,0.656937 4.34713,0.914517 8.92999,0.330035 12.88352,2.254417 2.79289,0.554366 6.01864,1.974172 9.10821,2.368483 0.62003,0.413455 1.9134,0.173816 1.43728,1.355542 z m -73.36296,63.244321 c -3.96945,5.73766 -7.90667,11.64583 -12.12233,17.48209 -6.41917,9.74658 -13.00374,19.43839 -20.853586,28.15269 -2.85453,4.91545 -9.161058,9.00498 -8.040868,15.34086 5.394098,7.50631 2.04538,17.97361 -3.64705,24.3475 -5.65372,7.16997 -8.07906,16.30681 -10.0971,25.04824 -0.96072,4.18386 -0.73871,8.83734 -0.28466,12.91787 -2.766519,-2.84799 -1.486459,-8.73531 -0.78238,-12.69492 1.88954,-8.96662 4.64284,-18.41497 10.01242,-25.69166 5.10635,-5.4968 7.99748,-13.97945 5.14807,-21.14152 -3.97661,-3.99734 -0.68797,-9.89416 2.59644,-13.194 6.812108,-9.19663 14.677094,-17.38101 20.646374,-27.23127 4.27292,-6.64854 9.48889,-13.20093 13.69912,-19.35666 -6.34618,6.21464 -11.34813,13.63951 -17.56572,19.98796 -5.97881,6.53371 -11.893596,13.25692 -18.619314,19.01869 -3.18215,2.53682 -7.6057,0.17656 -8.10848,-3.56208 -1.18327,-2.31476 -1.61298,-4.60124 -2.00111,-6.42674 -1.78592,-8.39969 -2.90019,-17.39297 -0.24045,-25.77251 3.24303,-13.07101 9.38166,-24.99752 15.575488,-36.85662 5.191466,-8.085127 10.347056,-16.252856 16.932706,-23.302835 -0.61889,-0.741614 -2.10196,1.790188 -2.95941,2.618626 -2.06021,1.942327 -3.5801,3.841973 -5.4228,6.05365 -1.27896,1.332339 -1.69497,2.464717 -2.98121,3.568267 -0.13728,0.06552 -2.031486,2.253464 -1.30938,1.791173 -1.190176,1.868444 -2.712826,3.752025 -3.769006,5.400604 -1.93826,2.986365 -4.272588,6.607895 -6.213938,9.936065 -5.99857,9.92101 -11.82373,20.83063 -12.89211,32.6753 -1.38015,11.08573 -2.11857,22.25924 -1.33721,33.41345 -0.0596,4.36561 -0.0909,9.28156 3.72828,12.10661 2.69091,5.99435 2.10766,13.22285 0.91261,19.55256 -2.29378,5.24229 -5.4266,9.87829 -7.769732,15.13516 -4.267296,7.77703 -6.241542,16.69003 -8.55503,24.701 -0.99192,4.38204 -1.45496,9.08949 -2.482212,13.27655 -2.287178,-0.83983 -0.04546,-4.06767 0.08631,-6.39914 1.869368,-9.49925 4.414428,-18.80157 7.959146,-27.79924 1.134541,-1.45526 2.556614,-6.51055 2.28775,-5.34704 0.869407,-1.12981 2.362658,-4.66782 3.677388,-6.91189 1.38513,-2.8985 4.30066,-5.76414 3.04587,-9.18393 3.23881,4.98049 0.0963,-19.73471 0.95315,-11.8429 0.55941,-2.68687 -1.3667,-4.52657 -2.80309,-5.8507 -2.568184,-4.07816 -1.97505,-8.91124 -2.20517,-13.61613 -0.736903,-12.26925 0.72827,-24.55783 2.36503,-36.78312 1.36948,-6.47713 3.99934,-12.91945 7.18891,-18.38373 1.70341,-3.9498 4.7614,-8.18573 6.85858,-12.30277 2.14083,-2.62876 3.500868,-5.919625 5.813978,-8.475684 1.78852,-3.176154 4.557186,-6.026129 6.809266,-8.876054 1.5859,-1.811296 3.10764,-3.563547 4.84782,-5.417265 0.0598,0.796132 1.90953,-2.335357 3.2166,-3.338432 1.07351,-1.11716 2.83016,-2.683766 3.39648,-2.726562 1.41406,-2.302862 1.79213,2.043568 -0.41369,2.364463 -1.85793,2.182761 -3.75943,4.590808 -5.58439,6.219456 -2.63145,3.033816 -4.75103,6.750317 -7.33583,10.080814 -2.092946,3.248139 -4.405336,6.510704 -6.493766,10.532294 -6.242648,11.40693 -11.756558,23.72859 -14.742328,36.70418 -1.66363,9.47635 0.0667,19.44876 3.02486,28.5101 0.58401,2.72438 2.94402,5.15895 5.77649,3.46293 9.903328,-7.88928 17.985114,-18.0351 26.644424,-27.32705 4.03727,-5.63942 9.36863,-10.99868 14.3527,-15.12442 l 0.0861,0.0826 -0.009,0.45535 z M 105.0364,71.743013 c -1.37372,1.295034 -3.50872,2.145374 -4.91257,2.456277 0.28623,0.228568 -3.335376,1.139417 -1.990146,0.882034 -0.87655,0.584336 -3.49534,0.84307 -3.91328,1.777803 -1.750148,0.370002 -2.028468,0.917678 -3.253108,1.212781 -1.14593,0.857216 -2.24965,1.189237 -3.42887,1.883847 -0.78875,0.279834 -1.9663,1.170029 -2.81658,1.27671 -1.42229,0.96074 -2.71958,1.425733 -3.72653,1.972253 -4.68062,2.613816 -8.947323,4.569727 -13.560576,6.966804 -4.695299,3.662872 -10.507536,6.365241 -15.053279,9.884748 -3.722958,2.23322 -7.176474,5.29534 -10.369137,7.53082 -4.615407,3.06957 -8.597213,7.2199 -13.119326,9.76807 -4.529936,4.31249 -8.830079,8.38272 -12.555865,13.38737 -3.71568,4.97558 -5.042054,11.09282 -7.5071051,16.43024 -2.415142,6.23409 -2.890601,13.33129 -0.249252,19.25247 1.284404,2.61299 2.8563631,5.49694 5.5752811,7.14066 3.507558,2.79284 7.614519,4.89642 11.823143,6.71634 1.364108,1.28209 4.90933,1.61302 3.195494,4.21245 0.09046,2.09137 -1.874245,5.43264 -2.091483,7.4828 -0.95918,2.01203 -1.486284,5.59051 -0.816621,8.19493 2.156699,1.5104 5.583721,2.06249 7.598599,-0.0909 4.009048,-0.97669 7.666873,0.92325 10.472039,3.5687 1.419317,2.46986 4.69411,4.94054 2.952726,8.12266 -2.445972,5.67824 -1.705119,12.68426 1.082203,17.73061 2.340571,2.89576 5.514894,5.21946 8.91649,6.15066 3.531486,-0.75679 1.60215,3.38258 2.696509,5.46075 -2.320156,3.95781 -0.164421,-5.53067 -3.680719,-4.41347 -5.130286,-2.49673 -10.25684,-6.4163 -10.834707,-12.59145 -1.627592,-4.75679 -0.426941,-9.86685 1.032947,-14.43498 -1.687541,-4.80255 -5.953876,-9.63703 -11.592254,-8.80504 -2.631451,1.4557 -4.988844,2.49409 -8.268339,0.68075 -1.643866,0.1857 -1.984777,-3.92141 -1.238301,-5.63261 -0.119356,-3.65332 1.936666,-7.03411 2.537116,-10.32001 1.836297,-2.82714 -1.826324,-3.56557 -3.902512,-4.87582 -5.700071,-3.07472 -12.427469,-6.06879 -15.4241951,-12.07247 -3.389238,-6.2169 -3.501594,-14.82203 -0.579698,-21.41957 1.69634,-4.76903 3.7886681,-9.6637 5.8898521,-14.21045 0.982491,-3.23751 5.01449,-6.64802 7.685,-9.54358 5.631371,-6.49707 13.115564,-10.80404 19.453745,-16.34456 6.977472,-4.58065 13.725056,-10.056292 21.105996,-14.278714 7.489314,-5.173612 15.970949,-8.673053 23.839589,-13.025662 4.44814,-2.533387 9.177998,-4.756816 13.915088,-6.322438 1.425496,-0.505391 3.905026,-1.430303 5.112636,-1.761833 z" /></g></svg>
