<?xml version="1.0" encoding="UTF-8" standalone="no"?>
<!-- Created with Inkscape (http://www.inkscape.org/) -->

<svg
   width="50.863861mm"
   height="137.40027mm"
   viewBox="0 0 50.863861 137.40027"
   version="1.1"
   id="svg12677"
   xml:space="preserve"
   xmlns:inkscape="http://www.inkscape.org/namespaces/inkscape"
   xmlns:sodipodi="http://sodipodi.sourceforge.net/DTD/sodipodi-0.dtd"
   xmlns="http://www.w3.org/2000/svg"
   xmlns:svg="http://www.w3.org/2000/svg"><sodipodi:namedview
     id="namedview12679"
     pagecolor="#ffffff"
     bordercolor="#666666"
     borderopacity="1.0"
     inkscape:showpageshadow="2"
     inkscape:pageopacity="0.0"
     inkscape:pagecheckerboard="0"
     inkscape:deskcolor="#d1d1d1"
     inkscape:document-units="mm"
     showgrid="false" /><defs
     id="defs12674" /><g
     inkscape:label="Layer 1"
     inkscape:groupmode="layer"
     id="layer1"
     transform="translate(123.56684,-40.776645)"><path
       id="path15768"
       style="fill:#000000;stroke-width:0.115807"
       d="m -72.876685,155.35769 c -0.14141,0.11736 -0.17371,0.11154 -0.17371,-0.0313 0,-0.0965 0.0782,-0.20548 0.17371,-0.24215 0.0955,-0.0367 0.17371,-0.0226 0.17371,0.0313 0,0.0539 -0.0782,0.16287 -0.17371,0.24216 z m -3.96169,-41.34307 c -0.0351,0.0955 -0.13094,0.25188 -0.2129,0.34742 -0.2621,0.30551 -1.09463,1.83951 -1.09463,2.01694 0,0.0941 -0.13028,0.41616 -0.28951,0.71564 -0.15924,0.29948 -0.28952,0.62071 -0.28952,0.71386 0,0.0931 -0.20143,0.41108 -0.44763,0.70653 -0.24619,0.29546 -0.48669,0.66749 -0.53444,0.82673 -0.0477,0.15923 -0.19808,0.41518 -0.33407,0.56876 -0.13599,0.15357 -0.17786,0.23907 -0.093,0.18998 0.0848,-0.0491 0.0197,0.12387 -0.14476,0.38434 -0.16443,0.26048 -0.29897,0.52676 -0.29897,0.59172 0,0.065 -0.0514,0.11811 -0.11426,0.11811 -0.0628,0 -0.19478,0.16936 -0.2932,0.37637 -0.27925,0.58732 -0.75328,1.40015 -0.93395,1.60146 -0.0902,0.10056 -0.16408,0.24354 -0.16408,0.31774 0,0.0742 -0.36479,0.54888 -0.81065,1.05485 -0.44586,0.50597 -0.81065,0.95813 -0.81065,1.00478 0,0.0467 -0.34375,0.45379 -0.7639,0.90474 -0.97293,1.04428 -1.17236,1.27697 -1.66805,1.94619 -0.22292,0.30097 -0.48349,0.5768 -0.57903,0.61295 -0.29101,0.11009 -1.49984,1.89733 -1.29596,1.91604 0.044,0.004 -0.0416,0.0561 -0.19028,0.11566 -0.14864,0.0596 -0.25017,0.1686 -0.22562,0.24227 0.0246,0.0737 -0.10435,0.2952 -0.28646,0.49232 -0.18211,0.19711 -0.44538,0.50655 -0.58503,0.68763 -0.95358,1.2365 -1.26074,1.5621 -1.53969,1.63211 -0.38249,0.096 -0.49779,-0.0111 -0.63128,-0.58646 -0.15989,-0.68913 -0.13896,-0.7787 0.29601,-1.267 0.22307,-0.25043 0.46556,-0.63771 0.53887,-0.86064 0.0733,-0.22293 0.45101,-0.7333 0.83934,-1.13414 0.38833,-0.40086 0.79553,-0.89593 0.90489,-1.10017 0.10935,-0.20425 0.42203,-0.53154 0.69484,-0.72733 0.27281,-0.19579 0.80117,-0.71692 1.17414,-1.15807 0.37297,-0.44115 0.73113,-0.78693 0.7959,-0.7684 0.0648,0.0185 0.0902,-0.0381 0.0566,-0.12584 -0.0819,-0.21337 0.50065,-0.94773 1.76417,-2.22398 0.32295,-0.32622 0.81639,-0.9703 0.81639,-1.06566 0,-0.0598 0.18057,-0.31959 0.40128,-0.57744 0.22071,-0.25784 0.36553,-0.50457 0.32183,-0.54827 -0.0437,-0.0437 -0.0244,-0.11572 0.043,-0.16002 0.15128,-0.0996 0.97104,-1.37956 0.97104,-1.51622 0,-0.0546 0.0727,-0.15972 0.1616,-0.23349 0.0889,-0.0738 0.19515,-0.31298 0.23616,-0.53159 0.041,-0.2186 0.13766,-0.46558 0.21478,-0.54881 0.37204,-0.40158 0.89295,-1.13082 0.89295,-1.25007 0,-0.0735 0.10778,-0.28503 0.2395,-0.47002 0.13173,-0.18499 0.20694,-0.33635 0.16714,-0.33635 -0.0398,0 0.009,-0.11582 0.10793,-0.25738 0.0992,-0.14156 0.18027,-0.32856 0.18027,-0.41555 0,-0.2894 0.69456,-1.66375 0.94213,-1.86422 0.4082,-0.33055 0.20785,-1.04727 -0.51627,-1.84687 -0.32553,-0.35946 -0.59361,-0.63291 -0.59572,-0.60764 -0.008,0.0982 -0.52498,-0.12569 -0.52498,-0.22746 0,-0.0594 -0.0651,-0.10879 -0.14476,-0.10973 -0.14597,-0.002 -1.13957,-0.90948 -1.74692,-1.59594 -0.18055,-0.20408 -0.40204,-0.37104 -0.49218,-0.37104 -0.0901,0 -0.16389,-0.0829 -0.16389,-0.18419 0,-0.16204 -0.37206,-0.64981 -1.38968,-1.82187 -0.15924,-0.1834 -0.52403,-0.46751 -0.81065,-0.63138 -0.62618,-0.35797 -1.37548,-1.02583 -2.47162,-2.20299 -0.24476,-0.26284 -0.54441,-0.50944 -0.66589,-0.548 -0.12149,-0.0386 -0.22192,-0.13174 -0.22319,-0.20707 -0.003,-0.15175 -1.49312,-0.88969 -1.7971,-0.88969 -0.10571,0 -0.34093,-0.15922 -0.52271,-0.35382 -0.2113,-0.22619 -0.48913,-0.37876 -0.77026,-0.42296 -0.26357,-0.0414 -0.56522,-0.19863 -0.75294,-0.39236 -0.27893,-0.28785 -0.35495,-0.31105 -0.69484,-0.2121 -0.20991,0.0611 -0.74644,0.16577 -1.1923,0.23259 -0.44585,0.0668 -0.97941,0.19842 -1.18567,0.29244 -0.25197,0.11486 -0.44197,0.13582 -0.57904,0.0639 -0.1122,-0.0589 -0.64417,-0.22042 -1.18214,-0.35891 -0.69346,-0.17852 -1.02842,-0.32571 -1.15088,-0.5057 -0.095,-0.13962 -0.34533,-0.41974 -0.5563,-0.62246 -0.21096,-0.20273 -0.38357,-0.47632 -0.38357,-0.60798 0,-0.13168 -0.0521,-0.2394 -0.1158,-0.2394 -0.0637,0 -0.11581,-0.228136 -0.11581,-0.506986 0,-0.62135 0.29708,-1.3907 0.49078,-1.27098 0.075,0.0463 0.2609,0.0975 0.41311,0.11378 0.31677,0.0338 0.49286,0.23416 0.85177,0.96935 0.13993,0.28662 0.33631,0.57292 0.4364,0.63621 0.61483,0.388786 2.47461,0.458056 3.13463,0.116746 0.18499,-0.0956 0.61822,-0.173926 0.96273,-0.173926 0.47411,0 0.78467,-0.0845 1.27744,-0.34742 0.35808,-0.19108 0.70626,-0.34742 0.77374,-0.34742 0.31171,0 1.38718,-0.89957 1.38718,-1.1603 0,-0.10642 0.10423,-0.28781 0.23161,-0.40309 0.12739,-0.11529 0.23162,-0.2797 0.23162,-0.36537 0,-0.0857 0.0458,-0.15576 0.10186,-0.15576 0.056,0 0.3027,-0.24511 0.54818,-0.54469 0.24548,-0.29958 0.38204,-0.50495 0.30347,-0.45639 -0.18894,0.11676 -0.18225,0.0673 0.0814,-0.60148 0.27301,-0.69264 0.45469,-2.06286 0.25735,-1.94091 -0.0818,0.0506 -0.20209,-0.0958 -0.31901,-0.38803 -0.10324,-0.25804 -0.22458,-0.46917 -0.26963,-0.46917 -0.0451,0 -0.19287,-0.19542 -0.32849,-0.43427 -0.24819,-0.43712 -0.47911,-0.71227 -1.5793,-1.88187 -0.82254,-0.87441 -1.07815,-1.2603 -1.16206,-1.75431 -0.0395,-0.23239 -0.16655,-0.54507 -0.28239,-0.69484 -0.11583,-0.14976 -0.24984,-0.4547 -0.29779,-0.67763 -0.15097,-0.70187 -0.17891,-4.98795 -0.0365,-5.5965 0.0951,-0.40649 0.096,-0.5804 0.003,-0.63778 -0.0702,-0.0434 -0.13717,-0.36513 -0.14882,-0.71498 -0.0386,-1.15971 0.20679,-1.69322 0.81077,-1.76254 0.22891,-0.0263 0.29209,0.037 0.37338,0.3737 0.14421,0.59734 0.24015,1.69217 0.22326,2.54775 -0.0399,2.01935 0.0132,5.90582 0.0855,6.25918 0.0544,0.26585 0.15697,0.41261 0.30848,0.44127 0.12485,0.0236 0.44732,0.24542 0.7166,0.49289 0.26927,0.24745 0.53403,0.44992 0.58835,0.44992 0.12122,0 0.83287,0.97586 0.83287,1.14209 0,0.0659 0.13641,0.26584 0.30313,0.44429 0.16672,0.17844 0.45832,0.59803 0.64799,0.93242 0.18968,0.33439 0.39201,0.60798 0.44962,0.60798 0.0576,0 0.10475,0.0926 0.10475,0.20585 0,0.11321 0.0751,0.31305 0.16686,0.44406 0.301,0.42975 0.10955,3.04274 -0.26524,3.62005 -0.0981,0.15103 -0.18552,0.37294 -0.19437,0.49314 -0.009,0.12019 -0.12901,0.33871 -0.267,0.4856 -0.13799,0.14688 -0.2509,0.31512 -0.2509,0.37387 0,0.0587 -0.23581,0.44881 -0.52402,0.86682 -0.50616,0.73411 -1.57364,1.778636 -2.11059,2.065216 -0.37675,0.20107 -0.36005,0.70995 0.0233,0.70995 0.35266,0 1.46063,0.28386 1.82137,0.46664 0.14785,0.0749 0.51018,0.38888 0.8052,0.69772 0.29502,0.30883 0.56149,0.53643 0.59216,0.50576 0.0307,-0.0307 0.33648,0.27515 0.67958,0.6796 0.3431,0.40446 0.81649,0.85773 1.05198,1.00726 0.48702,0.30925 3.18784,2.90913 3.51315,3.38184 0.11791,0.17135 0.25684,0.2853 0.30873,0.25322 0.0519,-0.0321 0.1279,0.0362 0.16889,0.1517 0.12861,0.36229 1.22274,1.31605 1.91297,1.66754 0.27538,0.14025 0.56901,0.35201 0.65249,0.4706 0.0835,0.11859 0.30489,0.29479 0.49202,0.39155 0.18712,0.0968 0.62692,0.52351 0.97732,0.94833 0.54916,0.66576 0.63585,0.83722 0.62796,1.24203 -0.005,0.25831 -0.0379,0.54782 -0.073,0.64336 z m -11.55966,16.86716 c -0.0973,0.0374 -0.23466,0.17903 -0.30523,0.31484 -0.11803,0.22716 -0.10386,0.22445 0.17693,-0.0338 0.3511,-0.32294 0.37522,-0.37577 0.1283,-0.28103 z m 5.96959,-15.63823 c -0.0543,0.13451 -0.22583,0.34447 -0.38106,0.46657 -0.21251,0.16717 -0.26039,0.28109 -0.1938,0.4611 0.10654,0.288 -0.24094,1.13367 -0.50792,1.23612 -0.0996,0.0382 -0.50335,0.47606 -0.89723,0.97299 -0.39387,0.49693 -0.74841,0.92956 -0.78785,0.96141 -0.0851,0.0687 -0.33052,0.45215 -0.44141,0.68971 -0.092,0.19707 -0.25374,0.40268 -0.96209,1.22307 -0.80414,0.93131 -1.42546,1.69024 -1.7998,2.19836 -0.18769,0.25478 -0.40454,0.5037 -0.48189,0.55314 -0.0774,0.0495 -0.11117,0.16672 -0.0752,0.26057 0.0403,0.10505 -0.003,0.17065 -0.11382,0.17065 -0.0986,0 -0.40384,0.2921 -0.67828,0.6491 -0.27444,0.35701 -0.74652,0.88677 -1.04906,1.17726 -0.30255,0.29049 -0.5522,0.61072 -0.55479,0.71163 -0.003,0.10092 -0.15893,0.3639 -0.34742,0.58442 -0.18849,0.22052 -0.34271,0.47364 -0.34271,0.56248 0,0.096 -0.0705,0.13448 -0.17372,0.0949 -0.11801,-0.0453 -0.17371,0.006 -0.17371,0.16043 0,0.20665 -0.2167,0.52457 -0.70011,1.02714 -0.58704,0.6103 -0.59694,1.3823 -0.0267,2.07826 0.36507,0.44552 1.18593,1.60921 1.43665,2.03669 0.0401,0.0684 0.16609,0.411 0.27992,0.76131 0.11383,0.35032 0.31096,0.87145 0.43808,1.15807 0.28156,0.63485 0.60204,1.73478 0.84208,2.89011 0.0987,0.47493 0.23302,0.96368 0.29854,1.08611 0.0655,0.12243 0.11509,0.64584 0.11015,1.16313 -0.005,0.51729 0.0461,1.25147 0.11342,1.63153 0.12519,0.70677 0.13402,1.44994 0.0606,5.09933 -0.0437,2.17066 -0.13459,2.73799 -0.59388,3.70582 -0.15113,0.31847 -0.35937,1.022 -0.46276,1.5634 -0.27741,1.4527 -0.37552,1.93921 -0.5722,2.83727 -0.0976,0.44585 -0.17844,0.95704 -0.17955,1.13595 -10e-4,0.17892 -0.0471,0.29747 -0.1021,0.26345 -0.055,-0.034 -0.13626,0.34071 -0.18045,0.83275 -0.0442,0.49206 -0.13264,1.12914 -0.19653,1.41577 -0.0639,0.28662 -0.1385,1.04226 -0.16578,1.6792 -0.0527,1.23145 -0.35067,3.43598 -0.51646,3.82162 -0.1765,0.41056 -0.25067,1.75275 -0.12305,2.22673 0.0871,0.32345 0.0865,0.87701 -0.002,1.89449 -0.15099,1.73411 -0.144,2.74748 0.0211,3.05882 0.0675,0.12738 0.3814,0.35846 0.69744,0.51351 0.69079,0.33888 2.30305,1.48456 2.30305,1.63655 0,0.15632 0.3364,0.13289 0.52539,-0.0366 0.50055,-0.44889 0.51351,-0.45335 0.92374,-0.31796 0.44202,0.14588 0.92487,0.72393 0.82409,0.98657 -0.0355,0.0925 -0.005,0.15581 0.0677,0.14065 0.14771,-0.0308 0.35787,0.79182 0.36552,1.43073 0.004,0.29824 -0.11168,0.57693 -0.40708,0.98435 -0.39357,0.54283 -0.43487,0.56723 -0.91986,0.54369 -0.27928,-0.0136 -0.56061,-0.0964 -0.62518,-0.18404 -0.0646,-0.0877 -0.27375,-0.18988 -0.46483,-0.22714 -0.30162,-0.0588 -0.40987,0 -0.82118,0.44461 -0.63522,0.68696 -0.97739,0.68934 -1.67464,0.0116 -0.53048,-0.5156 -0.57306,-0.57335 -0.57306,-0.77703 0,-0.0658 -0.18496,0.0653 -0.41103,0.29134 -0.22606,0.22607 -0.38428,0.45429 -0.3516,0.50717 0.0327,0.0529 -0.18625,0.0733 -0.48649,0.0453 -0.56021,-0.0522 -1.06702,-0.29003 -1.06702,-0.50074 0,-0.0653 -0.12607,-0.23344 -0.28016,-0.37371 -0.30044,-0.27346 -0.50502,-0.77613 -0.31588,-0.77613 0.0629,0 -0.1811,-0.30924 -0.54228,-0.6872 -0.36118,-0.37796 -0.67467,-0.78184 -0.69665,-0.89751 -0.068,-0.35768 -0.13375,-0.32486 -0.13375,0.0668 0,0.21666 -0.0481,0.34384 -0.11448,0.3028 -0.063,-0.0389 -0.0869,0.001 -0.0532,0.0889 0.0337,0.0878 -0.0705,0.39016 -0.23155,0.67191 -0.16105,0.28174 -0.29344,0.57988 -0.2942,0.66253 -6.6e-4,0.0827 -0.13134,0.27071 -0.29015,0.4179 -0.23019,0.21333 -0.38871,0.25861 -0.7817,0.22326 -0.7719,-0.0694 -0.78246,-0.0718 -0.78246,-0.17381 0,-0.17065 -0.44823,-0.10273 -0.55259,0.0837 -0.14649,0.26177 -0.960845,0.51849 -1.214355,0.38283 -0.11277,-0.0604 -0.34168,-0.31622 -0.50868,-0.56859 -0.25444,-0.38448 -0.32457,-0.43072 -0.43265,-0.28531 -0.28794,0.38739 -2.17471,0.36062 -2.32008,-0.0329 -0.0401,-0.10856 -0.1563,-0.34835 -0.25821,-0.53287 -0.1134,-0.20529 -0.18495,-0.60975 -0.18439,-1.04227 6.6e-4,-0.61207 0.0608,-0.80762 0.44772,-1.45951 0.52456,-0.88377 0.75877,-1.13513 1.34637,-1.44497 0.23885,-0.12595 0.43427,-0.27371 0.43427,-0.32835 0,-0.0546 0.33885,-0.0819 0.75299,-0.0605 l 0.75299,0.0388 0.002,-0.63694 c 0.001,-0.47015 0.0325,-0.59145 0.11986,-0.46322 0.0841,0.1234 0.0935,0.0396 0.0327,-0.28952 -0.0471,-0.25478 -0.0719,-0.59351 -0.055,-0.75275 0.0611,-0.57641 -0.13468,-2.81443 -0.38498,-4.40066 -0.0955,-0.60509 -0.22613,-2.24977 -0.29033,-3.65483 -0.0642,-1.40507 -0.16768,-2.82336 -0.22996,-3.15177 -0.33985,-1.79202 -0.39384,-2.91915 -0.43668,-9.11685 -0.0246,-3.56686 -0.0708,-7.11693 -0.10263,-7.88905 -0.0736,-1.78823 -0.14905,-1.89664 -1.31912,-1.89664 -1.00061,0 -1.48814,-0.21738 -2.19151,-0.97714 -0.29115,-0.31451 -0.62057,-0.66628 -0.73203,-0.7817 -0.11147,-0.11544 -0.20266,-0.28167 -0.20266,-0.36941 0,-0.0877 -0.0776,-0.22393 -0.17244,-0.30264 -0.0948,-0.0787 -0.14752,-0.18341 -0.11708,-0.23267 0.0304,-0.0493 -0.0158,-0.14857 -0.10263,-0.22068 -0.0869,-0.0721 -0.19725,-0.35162 -0.24523,-0.62111 -0.10225,-0.57419 -0.10949,-0.6075 -0.3459,-1.59015 -0.1967,-0.81758 -0.29341,-1.94487 -0.17117,-1.99522 0.0419,-0.0173 0.14994,-0.18774 0.24005,-0.37883 0.20642,-0.43775 0.58974,-0.51225 0.77122,-0.14989 0.0732,0.14614 0.18912,0.6826 0.25761,1.19215 0.16241,1.20817 0.22209,1.4678 0.32324,1.40641 0.0459,-0.0279 0.0893,0.1665 0.0964,0.43188 0.0188,0.70118 0.5355,1.69518 1.20812,2.32435 l 0.58088,0.54334 0.66241,-0.0756 c 0.49652,-0.0566 0.72766,-0.14723 0.92297,-0.36177 0.3092,-0.33965 0.3352,-0.81008 0.066,-1.1944 -0.1766,-0.25212 -0.17714,-0.27108 -0.006,-0.20537 0.12949,0.0497 0.16954,0.0225 0.1277,-0.0865 -0.0335,-0.0874 -0.13251,-0.18632 -0.21997,-0.21988 -0.0874,-0.0335 -0.22413,-0.37632 -0.30373,-0.7617 -0.0796,-0.38537 -0.18072,-0.70068 -0.2247,-0.70068 -0.044,0 -0.11777,-0.57842 -0.16395,-1.28539 -0.0827,-1.26585 -0.0676,-1.37039 0.30378,-2.10039 0.0563,-0.1106 0.10229,-0.60681 0.10229,-1.10269 v -0.9016 l -0.50271,-0.54756 c -0.38502,-0.41936 -0.58401,-0.54756 -0.84996,-0.54756 -0.44016,0 -0.61171,0.34179 -0.62759,1.25038 -0.0148,0.84898 -0.0858,1.06463 -0.51401,1.5628 -0.22396,0.26054 -0.4765,0.42348 -0.69484,0.4483 -0.29746,0.0338 -0.37584,-0.0221 -0.5904,-0.42154 -0.13608,-0.25332 -0.34233,-0.51389 -0.45834,-0.57904 -0.11601,-0.0652 -0.28734,-0.18896 -0.38074,-0.27511 -0.10536,-0.0972 -0.31336,-0.13334 -0.54811,-0.0953 -0.28382,0.0461 -0.36359,0.023 -0.31938,-0.0922 0.0324,-0.0845 0.006,-0.1864 -0.0589,-0.22648 -0.15492,-0.0957 -0.33573,0.25514 -0.42762,0.82978 -0.0615,0.3845 -0.0126,0.57207 0.29174,1.11904 0.30994,0.55706 0.36182,0.76199 0.34076,1.34589 -0.0247,0.68529 -0.0269,0.68916 -0.4189,0.7627 -0.32788,0.0615 -0.4493,0.021 -0.72305,-0.24128 -0.18095,-0.17336 -0.36226,-0.49249 -0.40291,-0.70917 -0.0407,-0.21667 -0.13718,-0.39396 -0.21452,-0.39396 -0.0773,0 -0.20569,-0.10423 -0.28524,-0.23161 -0.095,-0.15204 -0.10199,-0.23162 -0.0205,-0.23162 0.0683,0 -0.3091,-0.37242 -0.83862,-0.82761 -0.52952,-0.45519 -1.38797,-1.24746 -1.90768,-1.76059 -0.74395,-0.73454 -1.20394,-1.06973 -2.1628,-1.57598 -0.66983,-0.35365 -1.34147,-0.75048 -1.49254,-0.88184 -0.15107,-0.13135 -0.33142,-0.21991 -0.40078,-0.19678 -0.14555,0.0485 -1.09053,-0.72994 -1.59996,-1.31802 -0.19108,-0.22059 -0.43336,-0.41334 -0.5384,-0.42836 -0.10503,-0.015 -0.26137,-0.0843 -0.34742,-0.15388 -0.086,-0.0696 -0.39095,-0.16233 -0.67757,-0.20602 -1.08443,-0.16531 -1.6213,-0.59803 -1.6213,-1.30678 0,-0.29497 0.0659,-0.41207 0.28905,-0.51374 0.23977,-0.10926 0.3296,-0.095 0.52693,0.0836 0.19985,0.18085 0.29252,0.19466 0.57951,0.0863 0.18789,-0.0709 0.34162,-0.0918 0.34162,-0.0465 0,0.11494 0.71165,0.36062 1.04459,0.36062 0.15148,0 0.4344,0.15077 0.62872,0.33504 0.99543,0.94396 1.66101,1.51787 1.76032,1.51787 0.0609,0 0.33096,0.16195 0.60011,0.35989 0.26915,0.19792 0.61811,0.36729 0.77548,0.37637 0.15736,0.009 0.28615,0.0549 0.2862,0.10179 4e-5,0.0469 0.18246,0.16151 0.40536,0.25464 0.2229,0.0931 0.58716,0.30807 0.80947,0.47762 0.2223,0.16956 0.48122,0.27874 0.57537,0.2426 0.0942,-0.0361 0.20542,-0.0103 0.24727,0.0574 0.0507,0.082 0.10825,0.0711 0.17229,-0.0325 0.0682,-0.11034 0.0908,-0.0839 0.0777,0.0907 -0.0113,0.14976 -0.0774,0.22381 -0.16859,0.18881 -0.0825,-0.0317 -0.15002,0 -0.15002,0.0706 0,0.0705 0.0957,0.1282 0.21262,0.1282 0.11694,0 0.39403,0.19542 0.61577,0.43428 0.69206,0.74547 0.89876,0.87566 1.11374,0.70149 0.14093,-0.1142 0.16532,-0.11558 0.0993,-0.006 -0.13961,0.23234 0.022,0.56015 0.34985,0.70952 0.42239,0.19245 0.44492,0.1072 0.10434,-0.39467 -0.16238,-0.23928 -0.29524,-0.50596 -0.29524,-0.59261 0,-0.0867 -0.0521,-0.15755 -0.11581,-0.15755 -0.0637,0 -0.1158,0.0521 -0.1158,0.11581 0,0.0637 -0.0782,0.1158 -0.17371,0.1158 -0.0955,0 -0.16068,-0.0456 -0.14476,-0.10146 0.0367,-0.12853 -0.6443,-0.85968 -1.36165,-1.46193 -0.30346,-0.25478 -0.9925,-0.89434 -1.53119,-1.42128 -0.53869,-0.52692 -1.11787,-1.03204 -1.28706,-1.1225 -0.16919,-0.0905 -0.49002,-0.3279 -0.71294,-0.52763 -0.22293,-0.19974 -0.68348,-0.5772 -1.02344,-0.83882 -0.58927,-0.45346 -1.25777,-1.48187 -1.11423,-1.71412 0.0313,-0.0507 0.003,-0.12562 -0.0636,-0.1666 -0.0663,-0.041 -0.1131,-0.0316 -0.10398,0.0209 0.0533,0.30705 -0.0258,0.36998 -0.22054,0.17529 -0.11533,-0.11534 -0.32085,-0.28756 -0.45672,-0.38272 -0.1806,-0.12651 -0.25429,-0.31329 -0.27403,-0.69466 -0.0422,-0.81574 0.12688,-0.93913 0.90262,-0.65863 0.33952,0.12278 0.40293,0.11288 0.54803,-0.0856 0.0903,-0.12342 0.13879,-0.26537 0.10786,-0.31541 -0.0309,-0.05 -0.004,-0.0767 0.0601,-0.0592 0.11015,0.0301 1.2906,-1.33378 1.2906,-1.49118 0,-0.0737 0.67661,-0.85639 1.46148,-1.69064 0.22471,-0.23885 0.4599,-0.43427 0.52264,-0.43427 0.0627,0 0.0819,-0.0521 0.0425,-0.11581 -0.0394,-0.0637 0.01,-0.1158 0.10897,-0.1158 0.0993,0 0.18054,-0.0423 0.18054,-0.094 0,-0.15243 2.02992,-2.22211 2.17943,-2.22211 0.0752,0 0.13671,-0.0666 0.13671,-0.14798 0,-0.0814 0.0912,-0.22922 0.20266,-0.32852 0.11147,-0.0993 0.41027,-0.42357 0.66402,-0.72058 0.25374,-0.29702 0.51204,-0.54003 0.574,-0.54003 0.062,0 0.40649,-0.20611 0.76561,-0.45802 0.45295,-0.31772 0.68994,-0.42106 0.77366,-0.33734 0.0837,0.0837 0.14453,0.0821 0.19851,-0.005 0.0428,-0.0692 0.0357,-0.12622 -0.0159,-0.12661 -0.0515,0 0.0366,-0.0707 0.19583,-0.15614 1.20972,-0.64946 1.28991,-0.67695 1.97475,-0.67695 0.56359,0 0.72829,-0.0432 0.83872,-0.22003 0.0756,-0.12102 0.19927,-0.22004 0.27486,-0.22004 0.0756,0 0.23993,-0.13028 0.36518,-0.28951 0.13591,-0.17278 0.3461,-0.28952 0.52127,-0.28952 0.16144,0 0.36433,-0.0708 0.45085,-0.15732 0.0865,-0.0865 0.4524,-0.1818 0.81305,-0.21171 0.55971,-0.0464 0.70319,-0.0155 0.98006,0.21107 0.17839,0.14598 0.40252,0.26869 0.49806,0.27266 0.23677,0.01 1.62296,1.34674 1.95241,1.88297 0.26581,0.43265 0.479525,0.56268 0.479525,0.29175 0,-0.13539 0.36435,-1.13636 0.60763,-1.66934 0.19906,-0.43611 0.88382,-1.05155 1.2519,-1.12516 0.19589,-0.0392 0.32828,-0.11634 0.29421,-0.17147 -0.0887,-0.14357 0.45481,-0.36572 0.89483,-0.36572 0.20576,0 0.48993,-0.0811 0.63149,-0.18027 0.14156,-0.0992 0.25738,-0.14084 0.25738,-0.0927 0,0.0482 0.0625,0.0251 0.13897,-0.0513 0.18931,-0.18931 0.86328,-0.16632 1.42442,0.0486 0.25478,0.0976 0.69092,0.22517 0.9692,0.28351 0.68218,0.14303 1.63646,0.72828 1.63646,1.00362 0,0.0559 0.13028,0.27816 0.28952,0.494 0.15923,0.21583 0.28951,0.50659 0.28951,0.64613 0,0.13955 0.0884,0.52744 0.19645,0.86197 0.1861,0.57625 0.18547,0.64855 -0.0121,1.37404 -0.1147,0.42118 -0.21178,0.83091 -0.21574,0.91053 -0.004,0.0796 -0.0505,0.14476 -0.10334,0.14476 -0.0529,0 -0.34728,0.26057 -0.65425,0.57904 -0.30696,0.31847 -0.64495,0.57903 -0.75108,0.57903 -0.10613,0 -0.43771,0.23451 -0.73685,0.52113 -0.29913,0.28662 -0.5813,0.52113 -0.62704,0.52113 -0.12133,0 -1.39344,1.47067 -1.8349,2.12132 -0.20821,0.30685 -0.45335,0.58662 -0.54476,0.6217 -0.10158,0.039 -0.13947,0.14803 -0.0974,0.28046 0.0378,0.11918 -0.0127,0.33306 -0.11236,0.47528 -0.0996,0.14224 -0.18113,0.35621 -0.18113,0.47552 0,0.11931 -0.11292,0.37551 -0.25094,0.56934 -0.22561,0.31684 -0.23553,0.38877 -0.0983,0.71271 0.17718,0.41835 0.3003,1.47957 0.47174,4.06613 0.1585,2.39138 0.17829,2.50672 0.50939,2.96908 0.15333,0.21413 0.51642,0.87137 0.80687,1.46054 0.29045,0.58917 0.55675,1.07121 0.59179,1.07121 0.035,0 0.17557,-0.10423 0.31231,-0.23161 0.13673,-0.12739 0.20733,-0.23162 0.15687,-0.23162 -0.0845,0 0.20991,-0.37899 0.92313,-1.18838 0.155,-0.17591 0.41803,-0.54071 0.5845,-0.81065 0.16647,-0.26995 0.36609,-0.54293 0.44359,-0.60662 0.0775,-0.0637 0.29523,-0.32975 0.48383,-0.59122 0.48429,-0.67142 1.61631,-2.03926 2.33037,-2.81586 0.33342,-0.36261 0.92378,-1.11444 1.31192,-1.67073 0.38814,-0.5563 0.80584,-1.07398 0.92823,-1.15042 0.12239,-0.0764 0.22253,-0.19551 0.22253,-0.26463 0,-0.0691 0.12235,-0.24062 0.2719,-0.38112 0.14955,-0.1405 0.47526,-0.53967 0.7238,-0.88706 0.24853,-0.34738 0.54308,-0.66194 0.65454,-0.699 0.11147,-0.037 0.20267,-0.12062 0.20267,-0.18569 0,-0.21464 0.85389,-1.02415 1.0803,-1.02415 0.18381,0 0.19725,-0.0297 0.0782,-0.17313 -0.11586,-0.13962 -0.10621,-0.23032 0.0499,-0.46851 0.10875,-0.16598 0.16246,-0.39327 0.12261,-0.51883 -0.039,-0.12291 -0.54987,-0.66456 -1.13524,-1.20368 -0.58538,-0.53913 -1.27278,-1.27632 -1.52755,-1.63821 -0.25478,-0.36189 -0.60654,-0.8098 -0.7817,-0.99537 -0.17516,-0.18556 -0.31847,-0.37774 -0.31847,-0.42708 0,-0.19393 -1.43028,-1.07164 -1.69068,-1.03751 -0.25963,0.034 -0.84099,-0.48222 -1.15423,-1.02496 -0.16616,-0.28787 -0.20405,-1.1611 -0.0544,-1.25359 0.066,-0.0408 0.11994,-0.20485 0.11994,-0.36461 0,-0.2481 0.038,-0.27865 0.26057,-0.20932 0.58652,0.18272 0.763,0.2987 1.64873,1.08356 0.50871,0.45077 0.97095,0.81959 1.0272,0.81959 0.18759,0 1.12153,1.06067 1.36206,1.54688 0.27497,0.55583 2.89652,3.15081 3.28041,3.24716 0.44142,0.11079 0.66046,0.92046 0.41402,1.5304 z m -8.75546,32.4309 c 0.16012,-2.49159 0.0496,-7.72739 -0.16902,-8.0086 -0.0875,-0.11257 -0.20456,-0.62744 -0.27638,-1.21597 -0.0194,-0.15923 -0.20278,-0.75853 -0.40743,-1.33178 -0.20466,-0.57324 -0.37558,-1.12043 -0.37982,-1.21597 -0.004,-0.0955 -0.0743,-0.2709 -0.15563,-0.38967 -0.0813,-0.11877 -0.11947,-0.29008 -0.0847,-0.38068 0.0348,-0.0906 -0.0125,-0.25399 -0.1051,-0.36308 -0.0926,-0.1091 -0.311,-0.48497 -0.48538,-0.83529 -0.17438,-0.35031 -0.45672,-0.7629 -0.62743,-0.91685 -0.1707,-0.15396 -0.29876,-0.29671 -0.28458,-0.31726 0.10126,-0.14664 -0.83927,-1.46644 -1.20847,-1.69577 -0.082,-0.0509 -0.14909,-0.17219 -0.14909,-0.26947 0,-0.0973 -0.15634,-0.3332 -0.34742,-0.52428 -0.22756,-0.22756 -0.34742,-0.46423 -0.34742,-0.68594 0,-0.18618 -0.0521,-0.33851 -0.11581,-0.33851 -0.0637,0 -0.11581,-0.0972 -0.11581,-0.21599 0,-0.11881 -0.0945,-0.34029 -0.21002,-0.49218 -0.89112,-1.17187 -1.34304,-2.65226 -1.28629,-4.21363 0.0162,-0.44586 0.0208,-1.0619 0.0101,-1.369 -0.0171,-0.49302 -0.0394,-0.53829 -0.19076,-0.38692 -0.29351,0.29351 -0.77292,1.93228 -0.93716,3.20351 -0.0864,0.66878 -0.23415,1.60682 -0.32832,2.08452 -0.16588,0.84143 -0.28191,5.65465 -0.14179,5.88137 0.0328,0.0531 0.11682,1.10963 0.18668,2.34785 0.0699,1.23822 0.17772,2.48582 0.23968,2.77244 0.0619,0.28662 0.13381,0.78607 0.15967,1.10986 0.0259,0.32381 0.1195,0.76677 0.20809,0.98436 0.0886,0.2176 0.17161,0.81471 0.18448,1.32693 0.0129,0.51221 0.10371,1.37208 0.20184,1.91081 0.21525,1.18177 0.25687,1.73882 0.33707,4.51163 0.0388,1.34128 0.12627,2.38061 0.23392,2.77937 0.0946,0.35031 0.17257,0.97711 0.17333,1.39287 6.5e-4,0.44452 0.066,0.85002 0.15839,0.98435 0.1357,0.19742 0.24781,0.8416 0.35622,2.04679 0.0155,0.17209 0.0822,0.38054 0.14834,0.46323 0.0661,0.0827 0.15493,0.87994 0.19738,1.77166 0.0424,0.89171 0.15103,1.98609 0.2413,2.43194 0.10822,0.53452 0.18219,1.91519 0.21717,4.05324 0.0581,3.54855 0.22179,5.82548 0.47305,6.57836 0.13703,0.41058 0.52566,2.13609 0.52566,2.33389 0,0.0345 0.0782,0.0628 0.17371,0.0628 0.10062,0 0.17371,0.10491 0.17371,0.24934 v 0.24933 l 0.22354,-0.25774 c 0.12295,-0.14177 0.38203,-0.26984 0.57573,-0.28463 0.45655,-0.0348 0.6115,-0.18791 0.19021,-0.18791 -0.26727,0 -0.29923,-0.0286 -0.18527,-0.16595 0.11078,-0.13348 0.0852,-0.19581 -0.13058,-0.31847 -0.14756,-0.0839 -0.28065,-0.25675 -0.29574,-0.38413 -0.0151,-0.12739 -0.0603,-0.43033 -0.10038,-0.6732 -0.0623,-0.37714 -0.0393,-0.45039 0.15772,-0.5019 0.14259,-0.0373 0.23066,-0.15806 0.23066,-0.31632 0,-0.14081 0.063,-0.62958 0.14002,-1.08616 0.0903,-0.53534 0.1091,-1.17093 0.053,-1.78984 -0.0479,-0.52784 -0.0831,-1.32449 -0.0783,-1.77035 0.009,-0.83166 0.32202,-2.72266 0.46906,-2.83332 0.0966,-0.0727 0.1087,-0.17626 0.19026,-1.62525 0.0781,-1.38809 0.28127,-3.26905 0.42137,-3.90186 0.0591,-0.26706 0.1075,-0.63446 0.1075,-0.81644 0,-0.18199 0.0469,-0.38039 0.10429,-0.4409 0.0574,-0.0605 0.13228,-0.37058 0.16648,-0.68905 0.0342,-0.31847 0.0654,-0.59514 0.0694,-0.61482 0.004,-0.0197 0.0518,-0.008 0.10631,0.0254 0.0545,0.0337 0.0736,-0.0718 0.0425,-0.23444 -0.0311,-0.16261 -0.001,-0.48675 0.0662,-0.72028 0.20383,-0.70519 0.38874,-1.73429 0.4284,-2.38422 0.0206,-0.33762 0.14644,-0.82747 0.27964,-1.08856 0.1332,-0.2611 0.24219,-0.57669 0.24219,-0.7013 0,-0.12462 0.0586,-0.24612 0.13028,-0.27 0.0717,-0.0239 0.13029,-0.18552 0.13029,-0.35919 0,-0.17366 0.0457,-0.34402 0.10164,-0.37857 0.056,-0.0346 0.045,-0.16858 -0.0245,-0.29845 -0.0801,-0.1497 -0.10125,-0.6222 -0.058,-1.2958 z m -1.10936,-3.55003 c -0.0461,0.60509 -0.13509,1.38679 -0.19772,1.7371 -0.0626,0.35032 -0.11767,0.72613 -0.12233,0.83514 -0.005,0.10899 -0.22103,0.40864 -0.48085,0.66589 -0.38797,0.38409 -0.55234,0.46769 -0.91962,0.46769 -0.24597,0 -0.48074,-0.0542 -0.5217,-0.12052 -0.041,-0.0663 -0.17433,-0.0888 -0.29636,-0.0501 -0.12809,0.0407 -0.22186,0.0158 -0.22186,-0.0588 0,-0.071 -0.12995,-0.24391 -0.28877,-0.38417 -0.17626,-0.15564 -0.29842,-0.39853 -0.31354,-0.62337 -0.0136,-0.2026 -0.0582,-0.34769 -0.0991,-0.32241 -0.12316,0.0761 -0.33889,-0.43706 -0.39119,-0.93053 -0.099,-0.93442 -0.21359,-1.44128 -0.31201,-1.38045 -0.0555,0.0343 -0.10088,-0.0444 -0.10088,-0.17487 0,-0.13045 -0.0993,-0.49852 -0.22065,-0.81792 -0.12136,-0.31939 -0.19132,-0.6929 -0.15547,-0.83 0.0446,-0.17073 0.0229,-0.22317 -0.0689,-0.16644 -0.0967,0.0598 -0.13405,-0.14331 -0.13405,-0.7278 0,-0.45601 -0.0548,-0.84449 -0.12519,-0.88802 -0.0689,-0.0425 -0.0939,-0.20196 -0.0557,-0.35425 0.0392,-0.15629 0.0181,-0.27688 -0.0485,-0.27688 -0.0649,0 -0.11841,-0.19543 -0.11889,-0.43428 -3.2e-4,-0.23885 -0.0539,-0.76079 -0.11862,-1.15988 -0.1072,-0.66055 -0.0968,-0.74815 0.1165,-0.97706 0.18456,-0.19809 0.347,-0.24561 0.7656,-0.22394 0.29223,0.0151 0.59743,-0.0274 0.67822,-0.0944 0.26997,-0.22405 1.20091,-0.68355 1.61848,-0.79883 0.37772,-0.1043 0.43137,-0.0877 0.63077,0.19485 0.11987,0.16987 0.24802,0.49124 0.28479,0.71417 0.0368,0.22293 0.12249,0.74314 0.19049,1.15602 0.068,0.41289 0.0983,0.81676 0.0673,0.89751 -0.031,0.0807 -0.0141,0.1468 0.0375,0.1468 0.12926,0 0.32936,0.72992 0.42858,1.5634 0.0455,0.38216 0.14826,0.79907 0.22837,0.92645 0.13665,0.21729 0.24802,0.62211 0.31861,1.15807 0.0168,0.12739 -0.007,0.72669 -0.0533,1.33178 z m -1.59721,-1.56339 c -0.0553,-0.25478 -0.22567,-0.9132 -0.37859,-1.46314 -0.15292,-0.54996 -0.26431,-1.20137 -0.24753,-1.44759 0.0287,-0.42052 0.0247,-0.4266 -0.0659,-0.10025 -0.0922,0.33232 -0.0975,0.33483 -0.12241,0.0579 -0.0143,-0.15923 -0.0376,-0.36769 -0.0518,-0.46323 -0.0142,-0.0955 -0.0347,-0.27173 -0.0456,-0.39152 -0.0167,-0.18319 -0.0859,-0.20709 -0.43547,-0.15036 -0.64543,0.10474 -0.74685,0.24803 -0.71369,1.00839 0.0161,0.36816 0.0612,0.64961 0.10032,0.62544 0.0391,-0.0242 0.1075,0.35719 0.15192,0.84746 0.0444,0.49026 0.12676,0.94678 0.18295,1.01449 0.0809,0.0975 0.50074,1.47838 0.63241,2.08001 0.0144,0.0657 0.0863,0.26621 0.15976,0.44551 0.0735,0.1793 0.1336,0.44652 0.1336,0.59381 0,0.31372 0.28461,0.60729 0.40302,0.41569 0.0419,-0.0678 0.13358,-0.0879 0.2037,-0.0445 0.0794,0.0491 0.10219,0.0129 0.0604,-0.0961 -0.0369,-0.0962 -0.0262,-0.45649 0.0238,-0.80069 0.12512,-0.86156 0.12821,-1.58278 0.009,-2.13131 z m -4.40583,-19.10815 c -0.0637,0.0394 -0.11581,0.0195 -0.11581,-0.0442 0,-0.0637 0.0521,-0.14801 0.11581,-0.18737 0.0637,-0.0394 0.11581,-0.0195 0.11581,0.0442 0,0.0637 -0.0521,0.14801 -0.11581,0.18737 z m 5.88616,-13.97581 c -0.143,-0.47727 -0.77657,-1.13008 -1.11316,-1.14694 -0.69821,-0.035 -0.95322,-0.0783 -1.08822,-0.18495 -0.24447,-0.1931 -0.78961,-0.29136 -0.78961,-0.14234 0,0.0717 -0.0678,0.1044 -0.15059,0.0726 -0.0828,-0.0318 -0.27825,0.0129 -0.43428,0.0993 -0.15602,0.0864 -0.37835,0.15896 -0.49407,0.16122 -0.4312,0.008 -1.59825,1.08122 -1.66712,1.53249 -0.0186,0.12158 -0.11286,0.37406 -0.20957,0.56109 -0.0967,0.18702 -0.17733,0.37967 -0.17914,0.42811 -0.01,0.26182 -0.48316,0.8434 -0.73865,0.90753 -0.22785,0.0572 -0.29563,0.14765 -0.29563,0.39458 0,0.17622 -0.0306,0.47355 -0.0681,0.66074 -0.059,0.29519 -0.11104,0.33405 -0.391825,0.29283 -0.38555,-0.0566 -0.58237,-0.41919 -0.58237,-1.0729 0,-0.25178 -0.0437,-0.45778 -0.0972,-0.45778 -0.15508,0 -0.40481,-0.60966 -0.37949,-0.92645 0.0191,-0.23953 -0.1379,-0.40569 -0.90955,-0.9623 -0.90122,-0.65007 -0.9512,-0.67029 -1.48137,-0.59934 -0.30177,0.0404 -0.62684,0.10308 -0.72238,0.13932 -0.0955,0.0362 -0.31683,0.0545 -0.49175,0.0406 -0.24125,-0.0192 -0.3434,0.0414 -0.42312,0.25111 -0.0578,0.15203 -0.29251,0.44097 -0.52157,0.64208 -0.22906,0.20112 -0.41647,0.41964 -0.41647,0.48559 0,0.0659 -0.13562,0.39325 -0.30137,0.72733 -0.26999,0.54419 -0.30023,0.73399 -0.29044,1.82339 0.0123,1.36771 0.10453,2.1913 0.26856,2.39744 0.0609,0.0765 0.0897,0.23288 0.064,0.34742 -0.0257,0.11452 0.0742,0.45402 0.22206,0.75446 0.14782,0.30042 0.26877,0.61805 0.26877,0.70584 0,0.0878 0.0982,0.24848 0.21822,0.3571 0.12002,0.10862 0.32916,0.50172 0.46473,0.87357 0.13559,0.37184 0.32401,0.74038 0.41872,0.819 0.0947,0.0786 0.17221,0.20541 0.17221,0.28181 0,0.0764 0.15489,0.34361 0.3442,0.59381 0.1893,0.25019 0.34564,0.57216 0.34742,0.71547 0.002,0.14331 0.0553,0.26056 0.11902,0.26056 0.0637,0 0.11581,0.0732 0.11581,0.16259 0,0.0894 0.18747,0.4933 0.4166,0.8975 0.22914,0.40421 0.43379,0.81309 0.45479,0.90863 0.0658,0.2996 0.50404,1.61227 0.66818,2.00163 0.20989,0.49788 0.54885,1.4681 0.62573,1.79105 0.0478,0.20062 0.1455,0.26127 0.42491,0.26365 l 0.36287,0.003 -0.31847,0.19745 c -0.37883,0.23488 -0.41658,0.45975 -0.0729,0.43444 0.3309,-0.0244 0.56523,-0.4779 0.54266,-1.05022 -0.0102,-0.25855 0.0254,-0.54117 0.0791,-0.62803 0.0537,-0.0869 0.11625,-0.55282 0.13901,-1.03542 0.0515,-1.09304 0.0872,-1.37264 0.18802,-1.47344 0.0438,-0.0438 0.0796,-0.2322 0.0796,-0.41877 0,-0.18655 0.07279,-0.47752 0.161725,-0.64658 0.16333,-0.31042 0.84571,-2.41344 0.93155,-2.87097 0.0255,-0.1361 0.0985,-0.34455 0.1621,-0.46323 0.36037,-0.67229 0.59753,-1.23175 0.59753,-1.40955 0,-0.11126 0.0714,-0.30507 0.15867,-0.43071 0.0873,-0.12564 0.30041,-0.68461 0.47364,-1.24215 0.17323,-0.55754 0.36239,-0.98439 0.42036,-0.94856 0.058,0.0358 0.10564,0.023 0.10593,-0.0286 3.3e-4,-0.0515 0.15954,-0.26334 0.35387,-0.47069 0.19434,-0.20734 0.32497,-0.4229 0.29029,-0.47901 -0.0347,-0.0561 0.0444,-0.13013 0.17585,-0.16449 0.1314,-0.0344 0.26717,-0.17058 0.30172,-0.30269 0.0346,-0.13211 0.12678,-0.24021 0.20496,-0.24021 0.22781,0 1.6026,-1.52831 1.45619,-1.61879 -0.0705,-0.0436 0.0757,-0.14023 0.32538,-0.21504 0.52991,-0.15876 1.63929,-1.28372 1.63929,-1.66231 0,-0.13239 -0.0611,-0.44468 -0.1358,-0.69398 z m -1.02096,63.65764 c -0.0657,-0.0406 -0.0851,0.006 -0.0455,0.10897 0.077,0.20063 0.15999,0.23733 0.15999,0.0708 0,-0.0599 -0.0515,-0.14081 -0.11448,-0.17972 z m -0.46456,2.14161 c -0.28276,0 -0.30229,0.26172 -0.0357,0.478 0.11163,0.0905 0.16065,0.10008 0.11392,0.0222 -0.0451,-0.0752 -0.029,-0.1695 0.0357,-0.2095 0.19747,-0.12203 0.13137,-0.29068 -0.11392,-0.29068 z m -3.12678,-3.3005 c -0.0637,-0.0394 -0.11581,0.007 -0.11581,0.10214 0,0.0955 0.0521,0.20592 0.11581,0.24528 0.0637,0.0394 0.1158,-0.007 0.1158,-0.10214 0,-0.0955 -0.0521,-0.20592 -0.1158,-0.24528 z m -0.41294,-2.25824 c -0.0193,-0.4777 -0.0606,-1.93687 -0.0917,-3.24259 -0.051,-2.13703 -0.13697,-3.34382 -0.24592,-3.45276 -0.0214,-0.0214 0.005,-0.1913 0.0583,-0.37759 0.0613,-0.2137 0.0543,-0.3387 -0.0189,-0.3387 -0.0731,0 -0.0866,-0.23589 -0.0364,-0.63782 0.053,-0.4239 0.0346,-0.69214 -0.0548,-0.79981 -0.074,-0.0891 -0.14098,-0.49258 -0.14897,-0.89663 -0.008,-0.40404 -0.0518,-0.78674 -0.0973,-0.85043 -0.0455,-0.0637 -0.10742,-0.60372 -0.13755,-1.20005 -0.0542,-1.07192 -0.0596,-1.08863 -0.47656,-1.47063 -0.47183,-0.43225 -0.46131,-0.36768 -0.42415,-2.60434 0.0154,-0.92611 -0.032,-1.51391 -0.1542,-1.91081 -0.13156,-0.42742 -0.19271,-1.38332 -0.24038,-3.75793 -0.0352,-1.75157 -0.11512,-3.44525 -0.17768,-3.76372 -0.16316,-0.83067 -0.21662,-1.25994 -0.29934,-2.40339 -0.04031,-0.55753 -0.116555,-0.98699 -0.169375,-0.95433 -0.0528,0.0326 -0.12884,-0.29289 -0.16893,-0.72341 -0.0401,-0.43053 -0.15152,-0.96022 -0.24764,-1.17711 -0.12883,-0.29069 -0.13966,-0.41605 -0.0412,-0.47689 0.0896,-0.0554 0.0156,-0.20325 -0.22491,-0.44924 l -0.35847,-0.36672 v 0.38616 c 0,0.21239 0.0464,0.43567 0.10317,0.49618 0.0567,0.0605 0.13641,0.68326 0.17706,1.38389 0.0406,0.70063 0.11474,1.45627 0.16467,1.6792 0.0499,0.22293 0.0726,1.73421 0.0504,3.3584 -0.038,2.77786 -0.0547,2.97288 -0.28259,3.2868 -0.22516,0.31024 -0.23506,0.41216 -0.14061,1.44759 0.0559,0.61263 0.0895,1.71273 0.0746,2.44468 -0.0148,0.73196 0.054,1.95662 0.15299,2.72147 0.099,0.76485 0.23049,1.78149 0.29224,2.25919 0.19972,1.54524 0.32957,2.91438 0.45578,4.80599 0.068,1.0191 0.177035,1.99131 0.242305,2.16046 0.14644,0.3795 0.1655,0.65374 0.38494,5.5407 0.0656,1.46148 0.30855,2.70745 0.58809,3.01634 0.27658,0.30562 0.38211,0.28499 0.47172,-0.0922 0.10855,-0.45686 0.38074,-0.7238 0.73805,-0.7238 0.44133,0 0.48297,-0.0847 0.3959,-0.80545 -0.0427,-0.35317 -0.0934,-1.03298 -0.11265,-1.51069 z m -1.05001,3.83128 c -0.0234,-0.0265 -0.0465,0.0516 -0.0514,0.17371 -0.005,0.12208 -0.0264,0.31341 -0.0477,0.42518 -0.0214,0.11177 0.004,0.17659 0.0569,0.14403 0.0527,-0.0325 0.12456,0.006 0.15977,0.0863 0.0352,0.08 0.0327,-0.063 -0.005,-0.31775 -0.0382,-0.25477 -0.0886,-0.48494 -0.11202,-0.51148 z m -0.0425,1.20632 c -0.0637,-0.0394 -0.11581,-0.0164 -0.11581,0.0511 0,0.0674 0.0521,0.12264 0.11581,0.12264 0.0637,0 0.1158,-0.023 0.1158,-0.0511 0,-0.0281 -0.0521,-0.0833 -0.1158,-0.12264 z m -2.650145,-40.70613 c -0.0655,-0.28662 -0.1214,-0.79473 -0.12418,-1.12912 -0.003,-0.33439 -0.0572,-0.60799 -0.12085,-0.60799 -0.0637,0 -0.1158,-0.14765 -0.1158,-0.32811 0,-0.18048 -0.033,-0.3611 -0.0733,-0.4014 -0.11784,-0.11784 -0.46327,0.40612 -0.54481,0.82639 -0.0942,0.48527 0.22543,1.94019 0.51686,2.35295 0.11937,0.16907 0.21703,0.38417 0.21703,0.47799 0,0.0938 0.0738,0.23187 0.16404,0.30675 0.30757,0.25525 0.34088,-0.36061 0.081,-1.49746 z m -2.69328,-9.74913 c -0.0547,-0.10727 -0.0995,-0.32237 -0.0995,-0.47799 0,-0.15562 -0.0782,-0.34783 -0.17371,-0.42712 -0.0955,-0.0793 -0.17371,-0.20893 -0.17371,-0.28808 0,-0.0792 -0.10989,-0.28361 -0.2442,-0.45436 -0.1343,-0.17074 -0.25156,-0.43334 -0.26056,-0.58354 -0.009,-0.1502 -0.0527,-0.25068 -0.097,-0.22331 -0.11231,0.0693 -0.6721,-0.77726 -0.6721,-1.01646 0,-0.10771 -0.12883,-0.34895 -0.28628,-0.53608 -0.15746,-0.18714 -0.2528,-0.37373 -0.21186,-0.41467 0.0409,-0.0409 -0.0351,-0.19148 -0.16905,-0.33453 -0.13392,-0.14307 -0.41127,-0.59885 -0.61634,-1.01286 -0.20508,-0.41401 -0.43695,-0.80486 -0.51528,-0.86856 -0.0783,-0.0637 -0.17602,-0.50441 -0.2171,-0.9794 -0.0411,-0.47498 -0.13505,-0.90089 -0.20882,-0.94649 -0.13044,-0.0806 -0.16031,-0.47083 -0.24707,-3.22751 -0.036,-1.14353 -0.0532,-1.21818 -0.28852,-1.25295 -0.13764,-0.0204 -0.4017,0.0708 -0.5868,0.20266 -0.1851,0.1318 -0.41133,0.23964 -0.50273,0.23964 -0.0914,0 -0.33131,0.18147 -0.53314,0.40327 -0.20183,0.2218 -0.49683,0.48836 -0.65555,0.59236 -0.15871,0.10399 -0.28858,0.26126 -0.28858,0.34947 0,0.0882 -0.0762,0.16039 -0.16943,0.16039 -0.20391,0 -2.68982,2.5333 -3.52287,3.59001 -0.57143,0.72487 -1.4756,1.78465 -1.89328,2.21913 -0.11031,0.11474 -0.30398,0.50922 -0.43037,0.87661 l -0.22981,0.66799 0.25666,0.21264 c 0.14116,0.11696 0.39434,0.33383 0.56262,0.48193 0.16828,0.14811 0.44454,0.34189 0.61392,0.43064 0.40453,0.21196 1.01349,0.7366 2.28968,1.97262 0.57543,0.55733 1.06928,1.01332 1.09744,1.01332 0.10545,0 0.9256,0.65485 1.52159,1.21493 0.848,0.79689 0.84148,0.79398 1.93048,0.86329 0.0637,0.004 0.28235,0.16347 0.4859,0.35426 0.20355,0.19079 0.44066,0.34688 0.52692,0.34688 0.0863,0 0.20633,0.0476 0.26684,0.10579 0.10682,0.10272 0.43135,0.16631 0.7102,0.13917 0.14756,-0.0144 0.33078,-0.44536 0.28697,-0.67503 -0.0351,-0.18405 0.44207,-0.93036 0.86099,-1.34655 0.31912,-0.31704 0.36153,-0.32648 1.16324,-0.25905 0.61666,0.0519 0.84608,0.0321 0.88628,-0.0763 0.0656,-0.17702 -0.029,-0.76743 -0.16605,-1.03616 z m -0.40108,49.38646 c -0.0385,0.0385 -0.0426,0.13837 -0.009,0.22197 0.037,0.0924 0.0644,0.0649 0.07,-0.07 0.005,-0.12208 -0.0224,-0.19048 -0.0608,-0.152 z M -87.526235,57.499864 c -0.0559,0.5414 -0.12524,2.15691 -0.15407,3.59002 -0.0549,2.73163 -0.27897,5.21224 -0.59215,6.55665 -0.35104,1.50695 -0.77868,3.11385 -0.93637,3.51855 -0.0869,0.22293 -0.19281,0.58772 -0.23542,0.81065 -0.0426,0.22293 -0.1142,0.45744 -0.15906,0.52113 -0.0449,0.0637 -0.14922,0.35032 -0.2319,0.63694 -0.0827,0.28662 -0.2484,0.8309 -0.36827,1.20951 -0.11989,0.37861 -0.21797,0.7899 -0.21797,0.91397 0,0.4968 -0.47236,1.78217 -0.7512,2.04412 l -0.29106,0.27343 -0.28952,-0.27198 c -0.37839,-0.35548 -0.37832,-0.88232 3.3e-4,-2.29555 0.15907,-0.59377 0.28923,-1.17195 0.28923,-1.28488 0,-0.11291 0.10299,-0.29851 0.22888,-0.41244 0.12588,-0.11392 0.20319,-0.2487 0.17179,-0.29951 -0.0314,-0.0508 0.0291,-0.29137 0.13459,-0.5346 0.35516,-0.81941 0.38276,-0.90437 0.42569,-1.31079 0.0235,-0.22293 0.108,-0.56166 0.18765,-0.75274 0.0797,-0.19108 0.15346,-0.49134 0.164,-0.66723 0.0105,-0.17591 0.0713,-0.30619 0.13498,-0.28952 0.14766,0.0386 0.27002,-0.94843 0.14953,-1.20625 -0.11591,-0.248 9.9e-4,-0.55847 0.21028,-0.55847 0.0887,0 0.16503,-0.013 0.16956,-0.029 0.0251,-0.0883 0.23702,-1.998 0.29659,-2.67311 0.0457,-0.51762 0.025,-0.836 -0.0596,-0.92067 -0.0953,-0.0953 -0.12942,0.028 -0.12942,0.46874 0,0.32897 -0.0745,0.82144 -0.16565,1.09438 -0.0911,0.27292 -0.20213,0.70467 -0.24672,0.95944 -0.0446,0.25478 -0.1322,0.52771 -0.19472,0.60652 -0.0625,0.0788 -0.0869,0.21294 -0.0543,0.29805 0.063,0.16419 -0.40154,1.88592 -0.61796,2.29029 -0.0705,0.13176 -0.0977,0.3191 -0.0604,0.41633 0.0815,0.21233 -0.15144,1.08981 -0.33253,1.25271 -0.0708,0.0637 -0.1274,0.28019 -0.12576,0.48112 0.002,0.20092 -0.0346,0.3421 -0.0805,0.31373 -0.0459,-0.0284 -0.11669,0.0808 -0.15731,0.24267 -0.0406,0.16184 -0.11079,0.29426 -0.15593,0.29426 -0.0451,0 -0.1752,0.40387 -0.28902,0.8975 -0.11382,0.49363 -0.3318,1.12555 -0.4844,1.40428 -0.19192,0.35052 -0.27746,0.69189 -0.27746,1.10727 0,0.44427 -0.0614,0.66646 -0.23613,0.85396 -0.29125,0.31262 -0.35087,0.31372 -0.73262,0.0134 -0.21478,-0.16895 -0.30536,-0.34897 -0.3059,-0.60799 -0.002,-0.71595 0.27195,-2.22357 0.43877,-2.41923 0.093,-0.10909 0.14068,-0.27247 0.10591,-0.36308 -0.0348,-0.0906 0.004,-0.2619 0.0852,-0.38068 0.0817,-0.11877 0.26674,-0.6068 0.4113,-1.0845 0.14457,-0.47771 0.32861,-0.94673 0.40897,-1.04227 0.13542,-0.16099 0.33272,-0.80432 0.34378,-1.12094 0.003,-0.0751 0.0432,-0.17501 0.0902,-0.22197 0.047,-0.047 0.0857,-0.16788 0.0861,-0.26874 3.3e-4,-0.10084 0.0753,-0.32639 0.16652,-0.50121 0.0912,-0.17481 0.20102,-0.55263 0.24405,-0.8396 0.043,-0.28696 0.11962,-0.52175 0.17018,-0.52175 0.0506,0 0.1181,-0.27359 0.15006,-0.60798 0.0837,-0.87528 0.17068,-1.49227 0.25722,-1.82396 0.15039,-0.57643 0.28915,-2.18307 0.35744,-4.13884 0.0401,-1.14967 0.11436,-1.96881 0.17498,-1.93133 0.12366,0.0764 0.0111,-2.36396 -0.13568,-2.94246 -0.0537,-0.21175 -0.0689,-0.45996 -0.0338,-0.55155 0.0351,-0.0916 0.006,-0.23582 -0.0638,-0.32049 -0.0703,-0.0847 -0.0891,-0.19659 -0.0419,-0.2487 0.0472,-0.0521 0.0266,-0.0609 -0.0458,-0.0196 -0.0724,0.0414 -0.20268,-0.0124 -0.28951,-0.11948 -0.13365,-0.16478 -0.13336,-0.17988 0.002,-0.0984 0.10975,0.0661 0.14332,0.0468 0.1072,-0.0615 -0.0289,-0.0868 -0.21119,-0.16575 -0.40502,-0.1755 -0.29202,-0.0147 -0.44883,0.0916 -0.91492,0.62036 -0.68014,0.77153 -0.99386,1.53994 -1.16982,2.86538 -0.0338,0.25478 -0.10167,0.51534 -0.15076,0.57904 -0.25611,0.3323 -0.53833,2.92767 -0.50233,4.61962 0.008,0.37521 -0.0224,0.6224 -0.0676,0.54931 -0.0452,-0.0731 -0.14905,0.48959 -0.23085,1.25038 -0.0818,0.76079 -0.11721,1.43425 -0.0787,1.49656 0.0385,0.0623 -0.0378,1.06053 -0.16968,2.21825 -0.20172,1.77139 -0.21988,2.26799 -0.1146,3.13383 0.17056,1.4028 0.28856,4.17067 0.19388,4.5479 -0.0425,0.16935 -0.14906,0.30793 -0.23679,0.30793 -0.23137,0 -0.90452,-0.80701 -0.83162,-0.99698 0.034,-0.0886 0.0179,-0.16109 -0.0359,-0.16109 -0.0537,0 -0.1812,-0.16937 -0.28325,-0.37637 -0.14137,-0.28679 -0.18617,-0.32049 -0.18818,-0.14158 -0.001,0.12914 0.0825,0.3563 0.18647,0.50478 0.12755,0.18211 0.14854,0.29507 0.0645,0.34702 -0.0686,0.0424 -0.14063,0.38846 -0.16015,0.7691 -0.0302,0.58857 -0.0745,0.70915 -0.29608,0.80637 -0.14332,0.0629 -0.26057,0.14917 -0.26057,0.19177 0,0.0426 -0.12636,0.0178 -0.28079,-0.0551 -0.20802,-0.0982 -0.24937,-0.17037 -0.15953,-0.27862 0.0769,-0.0926 0.0791,-0.14611 0.006,-0.14611 -0.27755,0 -0.4975,-5.86749 -0.33861,-9.03294 0.0304,-0.60509 0.0603,-2.13248 0.0666,-3.39419 0.007,-1.38351 0.0541,-2.26758 0.11914,-2.22738 0.0623,0.0385 0.12906,-0.38615 0.15817,-1.00648 0.0502,-1.06974 0.1269,-1.56035 0.31263,-1.99957 0.0539,-0.12739 0.12861,-0.54429 0.1661,-0.92645 0.0375,-0.38217 0.0967,-0.85119 0.13157,-1.04227 0.16191,-0.88692 0.28427,-2.23137 0.22975,-2.52455 -0.0331,-0.17834 -0.0139,-0.29557 0.0428,-0.26054 0.0568,0.0351 0.0931,-0.25229 0.0809,-0.63963 -0.0122,-0.38684 0.0143,-0.72587 0.0588,-0.7534 0.0955,-0.059 0.27266,-0.96536 0.23168,-1.18548 -0.0156,-0.0838 0.0472,-0.39644 0.13947,-0.69484 0.0923,-0.29841 0.25476,-0.85523 0.36102,-1.23739 0.10626,-0.38217 0.24225,-0.78534 0.30221,-0.89593 0.06,-0.11061 0.10902,-0.32964 0.10902,-0.48674 0,-0.15711 0.0479,-0.40535 0.10639,-0.55165 0.19656,-0.49149 0.27558,-0.72794 0.3191,-0.9548 0.0238,-0.12405 0.11498,-0.30645 0.20262,-0.40533 0.25152,-0.28373 0.87738,-1.39071 0.87738,-1.55182 0,-0.0802 0.18037,-0.32072 0.40082,-0.53439 0.22045,-0.21367 0.36874,-0.44039 0.32953,-0.50384 -0.0392,-0.0634 -0.0147,-0.0804 0.0544,-0.0377 0.0691,0.0427 0.15844,0.0247 0.19844,-0.04 0.04,-0.0647 0.0171,-0.1177 -0.0509,-0.1177 -0.20399,0 0.12811,-0.43967 0.39373,-0.52127 0.13055,-0.0401 0.56034,-0.0979 0.95509,-0.12852 0.62374,-0.0483 0.77847,-0.0173 1.18144,0.23711 0.41665,0.26302 1.0539,1.01982 1.0539,1.25161 0,0.0497 0.18109,0.46752 0.40242,0.92853 0.42245,0.87993 0.52819,1.43248 0.74766,3.90708 0.16965,1.91293 0.24303,6.37338 0.12384,7.52745 z m -1.28048,-5.96405 c -0.0621,-0.63694 -0.19541,-1.66945 -0.29635,-2.29447 -0.10093,-0.62502 -0.15709,-1.23743 -0.1248,-1.3609 0.0323,-0.12347 0.0114,-0.19528 -0.0463,-0.15959 -0.0962,0.0594 -0.14939,-0.13478 -0.13632,-0.4976 0.003,-0.0789 -0.0335,-0.11965 -0.0806,-0.0905 -0.0923,0.0571 -0.35128,-0.43793 -0.35128,-0.67152 0,-0.078 -0.16313,-0.33978 -0.36251,-0.58166 -0.25743,-0.3123 -0.39842,-0.40388 -0.48639,-0.3159 -0.19928,0.19928 -0.33081,0.14288 -0.25127,-0.10774 0.22999,-0.72464 -0.96014,0.50134 -1.4225,1.46534 -0.18798,0.39194 -0.37693,0.85267 -0.4199,1.02385 -0.051,0.20334 -0.13461,0.28955 -0.24108,0.2487 -0.0957,-0.0367 -0.14141,-0.005 -0.11072,0.0763 0.0287,0.0764 -0.0607,0.32126 -0.19867,0.54419 -0.138,0.22292 -0.26467,0.50955 -0.2815,0.63693 -0.0655,0.49556 -0.20274,0.92992 -0.31747,1.00449 -0.0794,0.0516 -0.067,0.14198 0.0369,0.26709 0.1317,0.1587 0.13175,0.18337 2.3e-4,0.15359 -0.22444,-0.0508 -0.44552,0.46093 -0.51372,1.18926 -0.0324,0.34549 -0.13341,0.99296 -0.22455,1.43882 -0.1751,0.85652 -0.34862,3.79795 -0.19449,3.29684 0.0496,-0.16125 0.14651,-0.39575 0.21538,-0.52113 0.0689,-0.12538 0.26385,-0.52541 0.4333,-0.88897 0.16946,-0.36355 0.38123,-0.72169 0.47061,-0.79588 0.0894,-0.0742 0.16251,-0.23508 0.16251,-0.35756 0,-0.26073 0.60316,-0.86229 1.47108,-1.46716 0.4825,-0.33627 1.0998,-0.3053 1.73544,0.087 0.39015,0.24082 0.53507,0.43115 0.74071,0.97276 0.37837,0.99657 0.47999,1.52149 0.53478,2.76237 0.0367,0.83179 0.0922,1.136 0.21566,1.18339 0.12187,0.0468 0.16622,-0.0298 0.16622,-0.28683 0,-0.20426 -0.0483,-0.32074 -0.1158,-0.27905 -0.17652,0.10909 -0.13102,-0.75702 0.0608,-1.15807 0.18086,-0.37808 0.15284,-2.25614 -0.0674,-4.51647 z m -0.0694,9.98614 c -0.0317,0.0784 -0.0337,0.23474 -0.004,0.34743 0.0294,0.11266 0.0553,0.0485 0.0577,-0.14256 0.002,-0.19109 -0.0217,-0.28328 -0.0534,-0.20487 z m -0.1846,-1.15458 c -0.0853,0.26593 -0.0841,0.45438 0.004,0.63694 0.10554,0.21875 0.12447,0.15972 0.12111,-0.37766 -0.004,-0.60891 -0.009,-0.62032 -0.12509,-0.25928 z m -0.16005,0.73216 c -0.0868,-0.0982 -0.023,2.14115 0.0674,2.36439 0.0515,0.12739 0.067,-0.34163 0.0345,-1.04226 -0.0326,-0.70063 -0.0784,-1.29559 -0.10185,-1.32213 z m -0.11258,2.33785 c -0.0385,0.0385 -0.0426,0.13837 -0.009,0.22197 0.037,0.0924 0.0644,0.0649 0.07,-0.07 0.005,-0.12208 -0.0224,-0.19048 -0.0608,-0.152 z m -5.72038,-4.72154 c -0.0637,0.0394 -0.11581,0.17579 -0.11581,0.30318 0,0.12739 0.0521,0.19941 0.11581,0.16005 0.0637,-0.0394 0.1158,-0.1758 0.1158,-0.30319 0,-0.12738 -0.0521,-0.1994 -0.1158,-0.16004 z m -0.3343,2.07641 c -0.0565,0.0349 -0.137,0.24643 -0.17896,0.47007 -0.0419,0.22362 -0.11831,0.40659 -0.16969,0.40659 -0.17212,0 -0.21366,2.0141 -0.0657,3.1847 l 0.1464,1.15807 -0.009,-0.98437 c -0.005,-0.54139 0.0255,-1.16675 0.0681,-1.38968 0.0427,-0.22293 0.0478,-0.34018 0.0114,-0.26056 -0.0911,0.19912 -0.27851,0.18237 -0.27851,-0.0249 0,-0.0933 0.10196,-0.2242 0.22657,-0.29089 0.18622,-0.0997 0.23368,-0.27054 0.26651,-0.95948 0.022,-0.46102 0.0503,-0.95856 0.063,-1.10563 0.0127,-0.14707 -0.0232,-0.23884 -0.0797,-0.20394 z m -0.20804,1.47741 c -0.0335,-0.0836 -0.0293,-0.18348 0.009,-0.22197 0.0385,-0.0385 0.0659,0.0299 0.0608,0.152 -0.006,0.13492 -0.033,0.16235 -0.07,0.07 z m -0.2292,12.22487 c -0.0321,0.0796 -0.0321,0.2099 0,0.28952 0.0321,0.0796 0.0584,0.0145 0.0584,-0.14476 0,-0.15923 -0.0263,-0.22438 -0.0584,-0.14476 z m 0.007,-8.16198 c -0.0385,0.0385 -0.0426,0.13837 -0.009,0.22197 0.037,0.0924 0.0644,0.0649 0.07,-0.07 0.005,-0.12207 -0.0224,-0.19048 -0.0608,-0.152 z m -0.27082,6.62754 c -0.0866,-0.41849 -0.0971,-0.3828 -0.10913,0.36954 -0.007,0.45802 0.0388,0.86497 0.10249,0.90434 0.1396,0.0863 0.14326,-0.61343 0.007,-1.27388 z m 0.0294,-1.30283 c -0.0291,0.11147 -0.0291,0.29386 0,0.40532 0.0291,0.11147 0.053,0.0203 0.053,-0.20266 0,-0.22292 -0.0238,-0.31412 -0.053,-0.20266 z m 0.004,-6.08206 c -0.0317,0.0784 -0.0337,0.23474 -0.004,0.34742 0.0293,0.11267 0.0553,0.0485 0.0577,-0.14256 0.002,-0.19108 -0.0217,-0.28328 -0.0534,-0.20486 z m 3.11334,26.5791 c -0.0917,0.36583 -0.2055,0.64122 -0.2528,0.61198 -0.0473,-0.0292 -0.0902,0.0964 -0.0954,0.27909 -0.0213,0.75058 -0.85233,1.81135 -1.87326,2.39125 -0.37967,0.21566 -0.59112,0.25047 -1.32233,0.21772 -1.00265,-0.0449 -1.29061,-0.16315 -1.39324,-0.57209 -0.0404,-0.16091 -0.15404,-0.29257 -0.25255,-0.29257 -0.25268,0 -0.62712,0.21649 -0.62712,0.36257 0,0.0675 -0.10777,0.27416 -0.2395,0.45915 -0.20851,0.29283 -0.31285,0.33635 -0.8063,0.33635 -0.659975,0 -1.726575,-0.36722 -2.025275,-0.69728 -0.11408,-0.12604 -0.29103,-0.22918 -0.39322,-0.22918 -0.1022,0 -0.2509,-0.10423 -0.33045,-0.23161 -0.0796,-0.12739 -0.25712,-0.23162 -0.39458,-0.23162 -0.13747,0 -0.21565,-0.0343 -0.17374,-0.0762 0.0419,-0.0419 0.0228,-0.14056 -0.0425,-0.21924 -0.34256,-0.41276 -0.13786,-2.26237 0.30123,-2.72187 0.1555,-0.16272 0.28272,-0.35815 0.28272,-0.43428 0,-0.0761 0.13157,-0.13842 0.29239,-0.13842 0.34072,0 0.51826,0.35168 0.51826,1.02664 0,0.23789 0.0651,0.5027 0.14476,0.58848 0.11587,0.12484 0.11571,0.13955 -6.6e-4,0.0737 -0.25565,-0.14441 -0.29863,0.27515 -0.0719,0.70195 0.24017,0.4521 0.68032,0.73321 1.20546,0.76991 0.18884,0.0132 0.34345,0.0631 0.34358,0.11083 1.1e-4,0.0478 0.0768,0.0869 0.170295,0.0869 0.0966,0 0.14372,-0.0687 0.10909,-0.15893 -0.044,-0.11469 0.0152,-0.14439 0.21249,-0.10666 0.20961,0.0401 0.30584,-0.0187 0.41204,-0.25184 0.19477,-0.42748 0.18232,-2.20165 -0.0168,-2.40081 -0.0855,-0.0855 -0.21976,-0.27565 -0.2984,-0.42258 -0.082,-0.15324 -0.21149,-0.24087 -0.30364,-0.2055 -0.214575,0.0823 -0.629295,-0.51497 -0.712175,-1.02573 -0.056,-0.3453 -0.003,-0.48127 0.3559,-0.91977 0.336695,-0.41091 0.492135,-0.51257 0.771515,-0.50463 0.21868,0.006 0.43698,-0.0835 0.58217,-0.2394 0.30382,-0.32609 0.8113,-0.32101 1.11933,0.0112 0.35388,0.38169 0.44424,1.36051 0.2093,2.2672 -0.14607,0.56367 -0.17074,0.98717 -0.10941,1.87766 l 0.0792,1.14982 0.39181,0.23118 c 0.28221,0.16651 0.54486,0.21989 0.93897,0.19085 0.74052,-0.0546 0.85268,-0.1177 1.15861,-0.65215 0.14521,-0.25367 0.31458,-0.46123 0.37637,-0.46123 0.0618,0 0.11235,-0.14688 0.11235,-0.32641 0,-0.17952 0.0878,-0.60945 0.19507,-0.9554 0.10728,-0.34595 0.20104,-0.65506 0.20835,-0.68691 0.11318,-0.49305 0.2086,-0.57903 0.64258,-0.57903 0.31297,0 0.48328,0.0621 0.5555,0.20266 0.19434,0.37813 0.21362,1.12672 0.0462,1.79424 z m -1.35559,-5.74653 c -0.0839,0.19883 -0.27378,0.44636 -0.42185,0.55008 -0.29514,0.20673 -1.37575,0.26388 -1.37575,0.0728 0,-0.0637 -0.16771,-0.11581 -0.37269,-0.11581 -0.47221,0 -0.85413,-0.42102 -0.96221,-1.0607 -0.0898,-0.5318 0.026,-1.66711 0.20421,-2.00088 0.18668,-0.34968 0.54106,-0.69344 0.62663,-0.60786 0.0426,0.0426 0.14736,0.0194 0.23284,-0.0516 0.1064,-0.0883 0.15541,-0.0901 0.15541,-0.006 0,0.0678 0.10562,0.103 0.23471,0.0782 0.12909,-0.0249 0.20971,-0.005 0.17916,0.0447 -0.0306,0.0494 0.13743,0.17783 0.37328,0.28533 0.4809,0.2192 1.04713,0.95872 1.12812,1.4734 0.0294,0.18679 0.0754,0.48293 0.10211,0.65809 0.0268,0.17516 -0.02,0.48115 -0.10397,0.67998 z m -1.25546,89.678366 c -0.2162,0 -0.35756,-0.18888 -0.20973,-0.28024 0.0575,-0.0355 0.16897,0.013 0.24768,0.10781 0.11636,0.14021 0.10927,0.17243 -0.038,0.17243 z m -3.66451,-102.013436 c -0.0474,0.35716 -0.1178,0.70057 -0.15646,0.76313 -0.0387,0.0625 -0.0776,0.79724 -0.0864,1.63262 -0.016,1.50977 -0.0181,1.52102 -0.35306,1.87148 -0.338475,0.35419 -0.566545,0.45039 -0.566545,0.23899 0,-0.0625 -0.13028,-0.14631 -0.28952,-0.18628 -0.16608,-0.0417 -0.28951,-0.15618 -0.28951,-0.26855 0,-0.10775 -0.0596,-0.25554 -0.13254,-0.32843 -0.26988,-0.26989 -0.24104,-1.04405 0.0613,-1.64605 0.15833,-0.31525 0.39705,-1.07704 0.53047,-1.69286 0.20546,-0.94828 0.23197,-1.35244 0.17321,-2.63997 -0.0382,-0.83615 -0.15294,-1.81696 -0.25506,-2.17956 -0.16436,-0.5836 -0.21031,-0.64611 -0.40019,-0.54449 -0.1955,0.10462 -0.21201,0.26054 -0.18634,1.75946 0.0155,0.90455 -0.008,1.95733 -0.0512,2.33949 -0.0436,0.38217 -0.0811,0.90835 -0.0832,1.16931 -0.005,0.58462 -0.28251,0.9215 -0.75665,0.91787 -0.30665,-0.002 -0.35168,-0.0468 -0.38371,-0.37902 -0.02,-0.20701 -0.0816,-0.37638 -0.13706,-0.37638 -0.0554,0 -0.0812,-0.42601 -0.0573,-0.94672 0.0239,-0.52069 -0.003,-1.03297 -0.0592,-1.13842 -0.0664,-0.12409 -0.0436,-0.30538 0.0647,-0.5141 0.18225,-0.35129 0.22485,-0.87496 0.0712,-0.87496 -0.0528,0 -0.0451,-0.28107 0.0171,-0.6246 0.13272,-0.73221 0.0597,-1.02025 -0.23513,-0.9281 -0.19021,0.0594 -0.19108,0.0544 -0.0106,-0.0621 0.17307,-0.11175 0.19534,-0.37057 0.18757,-2.18013 -0.005,-1.12933 -0.0581,-2.11551 -0.11827,-2.19153 -0.0602,-0.076 -0.18103,-0.92128 -0.2685,-1.87837 -0.0875,-0.9571 -0.21381,-1.84255 -0.28077,-1.96767 -0.067,-0.12512 -0.1251,-0.47844 -0.12919,-0.78518 -0.009,-0.6901 -0.23703,-1.79873 -0.41441,-2.01651 -0.0728,-0.0894 -0.15939,-0.39699 -0.19246,-0.68361 -0.10815,-0.9374 -0.328,-1.79108 -0.51485,-1.99916 -0.11719,-0.13052 -0.17925,-0.40205 -0.17204,-0.75275 0.0153,-0.74423 -0.21257,-1.53353 -0.49381,-1.7105 -0.5698,-0.35856 -0.67715,-0.31772 -1.00649,0.383 -0.79246,1.68608 -0.83134,2.07866 -0.45477,4.59165 0.14348,0.95751 0.21114,1.80416 0.1666,2.08452 -0.0633,0.39838 -0.0494,0.45105 0.0887,0.33721 0.13741,-0.11323 0.1665,-0.0295 0.18108,0.52113 0.01,0.36083 0.0685,0.94267 0.13092,1.29298 0.0625,0.35032 0.19491,1.13202 0.29435,1.73711 0.17316,1.05368 0.41469,2.27435 0.65911,3.33111 0.0628,0.27161 0.11422,0.65127 0.11422,0.84367 0,0.19241 0.0795,0.47111 0.17658,0.61933 0.0971,0.14821 0.20888,0.6154 0.24836,1.03819 0.0395,0.42278 0.11636,0.76869 0.17084,0.76869 0.0545,0 0.0991,0.12392 0.0991,0.27538 0,0.15145 0.0782,0.46246 0.17372,0.69112 0.0955,0.22867 0.1737,0.59981 0.1737,0.82479 0,0.22497 0.0521,0.40904 0.11581,0.40904 0.0637,0 0.11581,0.1063 0.11581,0.23623 0,0.12992 0.0974,0.42957 0.2164,0.66589 0.11901,0.23631 0.25417,0.69023 0.30035,1.0087 0.0462,0.31847 0.12478,0.63114 0.17468,0.69484 0.11252,0.14363 0.35083,1.50951 0.35083,2.01079 0,0.22252 -0.0694,0.39715 -0.17371,0.43718 -0.26422,0.10139 -0.21509,0.23378 0.29016,0.7819 0.33174,0.3599 0.49286,0.65846 0.56568,1.04825 0.0951,0.50892 0.0835,0.55333 -0.17435,0.67083 -0.26819,0.1222 -0.35271,0.4708 -0.2818,1.16233 0.0348,0.33976 -0.23449,1.47408 -0.35,1.47408 -0.0592,0 -0.10759,0.23374 -0.10759,0.51942 v 0.51943 l 0.37637,-0.22948 c 0.20701,-0.12621 0.46757,-0.22967 0.57904,-0.22991 0.11146,0 0.20266,-0.0556 0.20266,-0.12307 0,-0.0675 0.0521,-0.0904 0.1158,-0.0511 0.0637,0.0394 0.17685,0.0339 0.25145,-0.0122 0.24494,-0.15138 1.13134,-0.0768 1.432485,0.12051 0.37453,0.24541 0.5164,0.62088 0.5164,1.36671 0,0.38772 -0.066,0.66425 -0.19166,0.80311 -0.11468,0.12671 -0.13793,0.21178 -0.0579,0.21178 0.0736,0 0.13376,0.0505 0.13376,0.11217 0,0.0617 -0.0867,0.0789 -0.19271,0.0382 -0.11388,-0.0437 -0.1636,-0.0268 -0.12156,0.0412 0.0391,0.0633 -0.240075,0.4109 -0.620455,0.77242 -0.74245,0.70562 -1.18925,0.8487 -1.32404,0.42401 -0.0407,-0.12831 -0.1224,-0.2034 -0.18151,-0.16688 -0.0591,0.0365 -0.10747,-0.0185 -0.10747,-0.12239 0,-0.10386 -0.0795,-0.26828 -0.17659,-0.36541 -0.0971,-0.0971 -0.16866,-0.34093 -0.15897,-0.54181 0.0176,-0.36461 -0.22415,-1.44346 -0.36136,-1.61268 -0.0399,-0.0492 -0.0489,0.36083 -0.02,0.9111 0.0543,1.03553 -0.13325,2.14123 -0.63803,3.76041 -0.15508,0.49745 -1.5681,2.19258 -1.82768,2.19258 -0.56329,0 -0.85637,1.56548 -0.56371,3.01098 0.0967,0.47771 0.24962,0.95082 0.33978,1.05138 0.0902,0.10056 0.16393,0.32705 0.16393,0.50331 0,0.99466 0.70223,2.18472 1.30661,2.21427 0.14123,0.007 0.51735,0.17691 0.83581,0.37779 0.48897,0.30841 0.68372,0.36319 1.25195,0.35218 0.37011,-0.007 0.7349,-0.0748 0.81065,-0.15031 0.0758,-0.0755 0.305,-0.19545 0.50944,-0.26657 0.35241,-0.12259 0.38097,-0.11074 0.55009,0.22825 0.240395,0.48191 0.222375,0.75947 -0.0841,1.295446 -0.39846,0.69683 -0.7133,0.86616 -1.65933,0.89247 -0.45189,0.0126 -0.88183,-0.0144 -0.9554,-0.0598 -0.0872,-0.0539 -0.13378,0.0155 -0.13378,0.19926 0,0.15507 -0.12419,0.56201 -0.27599,0.90434 -0.42319,0.95435 -0.9285,1.2915 -1.43664,0.95855 l -0.29031,-0.19021 0.0642,0.47881 c 0.0544,0.40587 0.0269,0.49878 -0.18064,0.60986 -0.13468,0.0721 -0.40341,0.12646 -0.5972,0.12085 -0.20184,-0.006 -0.57491,0.13002 -0.87346,0.31808 -0.28662,0.18056 -0.65142,0.3659 -0.81065,0.41189 -0.15924,0.046 -0.39374,0.17575 -0.52113,0.28837 -0.12739,0.11261 -0.39467,0.28709 -0.59395,0.38772 -0.19929,0.10064 -0.39308,0.26308 -0.43065,0.36097 -0.0445,0.11608 -0.22063,0.17877 -0.50621,0.1802 -0.28967,0.002 -0.63393,0.12628 -1.01694,0.36873 -0.31847,0.20159 -0.86566,0.52001 -1.21598,0.70759 -0.35031,0.18758 -0.99033,0.56886 -1.42224,0.84724 -0.43192,0.2784 -0.83003,0.50618 -0.88469,0.50618 -0.0547,0 -0.24845,0.18709 -0.43066,0.41576 -0.18221,0.22866 -0.49619,0.4847 -0.69773,0.56897 -0.20153,0.0843 -0.6752,0.43134 -1.05258,0.77127 -0.37738,0.33992 -0.92817,0.8265 -1.22398,1.08128 -0.63235,0.54463 -1.73733,2.12317 -1.9925,2.8464 -0.0984,0.27898 -0.28128,0.68064 -0.40634,0.89261 -0.12506,0.21195 -0.22738,0.43966 -0.22738,0.506 0,0.0664 -0.0749,0.28486 -0.16647,0.48557 -0.43161,0.9461 -0.5119,1.21958 -0.37488,1.27684 0.0748,0.0312 0.0188,0.0925 -0.12454,0.13605 -0.1925,0.0585 -0.26056,0.16738 -0.26056,0.41676 0,0.18565 -0.0743,0.36605 -0.16507,0.40088 -0.0908,0.0348 -0.19947,0.26702 -0.24153,0.51596 -0.0421,0.24894 -0.20229,0.63801 -0.35607,0.86463 -0.15377,0.2266 -0.28144,0.50088 -0.2837,0.60952 -0.002,0.10864 -0.0786,0.32781 -0.16961,0.48704 -0.091,0.15923 -0.16764,0.44586 -0.17026,0.63694 -0.004,0.32048 -0.0384,0.34862 -0.43838,0.36295 -0.33742,0.0121 -0.48187,-0.0485 -0.65113,-0.27309 -0.30198,-0.4007 -0.27811,-1.3685 0.0422,-1.70941 0.12829,-0.13656 0.23325,-0.30175 0.23325,-0.36708 0,-0.17175 0.69123,-1.52958 0.81879,-1.60841 0.0592,-0.0366 0.10767,-0.20064 0.10767,-0.36452 0,-0.16388 0.10848,-0.47347 0.24106,-0.688 0.13258,-0.21453 0.21115,-0.39004 0.1746,-0.39004 -0.16207,0 0.68045,-1.3905 0.84696,-1.39783 0.16066,-0.007 0.16189,-0.0185 0.009,-0.0868 -0.19225,-0.0862 -0.21311,-0.58091 -0.0295,-0.69943 0.18655,-0.12041 0.49458,-0.7939 0.49473,-1.08168 8e-5,-0.14649 0.13036,-0.41774 0.28952,-0.6028 0.15916,-0.18507 0.29115,-0.36747 0.29332,-0.40533 0.002,-0.0379 0.26406,-0.35547 0.582,-0.70578 0.31793,-0.35032 0.60729,-0.74968 0.64303,-0.88747 0.0357,-0.13779 0.18118,-0.27969 0.32322,-0.31535 0.14203,-0.0356 0.32871,-0.1965 0.41485,-0.35745 0.0861,-0.16096 0.21713,-0.29264 0.29107,-0.29264 0.0739,0 0.39778,-0.26057 0.71961,-0.57904 0.32183,-0.31847 0.64644,-0.57903 0.72136,-0.57903 0.0749,0 0.10754,-0.0464 0.0725,-0.10309 -0.0351,-0.0567 0.10681,-0.18403 0.31524,-0.28293 0.20842,-0.0989 0.69001,-0.39113 1.07019,-0.64938 0.38018,-0.25825 0.73535,-0.46966 0.78927,-0.46981 0.0539,0 0.33893,-0.21232 0.63334,-0.47148 0.29442,-0.25915 0.68465,-0.50106 0.86719,-0.53756 0.18755,-0.0375 0.37478,-0.17255 0.43053,-0.3105 0.0543,-0.13428 0.10196,-0.19905 0.106,-0.14396 0.004,0.0551 0.13909,0.0139 0.30013,-0.0917 0.16103,-0.10552 0.33752,-0.1642 0.3922,-0.1304 0.0547,0.0338 0.16381,-0.0162 0.24252,-0.11099 0.0787,-0.0949 0.23669,-0.17244 0.35107,-0.17244 0.33186,0 0.57433,-0.12746 0.57433,-0.30191 0,-0.0887 0.10264,-0.16132 0.22809,-0.16132 0.12545,0 0.41365,-0.10422 0.64046,-0.23161 0.2268,-0.12739 0.47734,-0.23161 0.55675,-0.23161 0.0794,0 0.31555,-0.15634 0.52475,-0.34743 0.20921,-0.19108 0.40239,-0.34742 0.42929,-0.34742 0.0269,0 0.36242,-0.15187 0.7456,-0.33748 0.38318,-0.18561 0.69669,-0.31406 0.69669,-0.28544 0,0.0286 0.11725,-0.0126 0.26056,-0.0916 0.32642,-0.17991 0.68012,-0.13589 0.86855,0.10809 0.12188,0.15781 0.14476,0.10155 0.14476,-0.35582 0,-0.35646 -0.0498,-0.54388 -0.14476,-0.54504 -0.10813,-0.001 -0.10559,-0.0266 0.0101,-0.0999 0.20791,-0.13178 -0.21468,-1.12785 -0.81667,-1.924936 -0.46689,-0.61819 -0.56674,-0.88182 -0.23565,-0.62216 0.18367,0.14404 0.18777,0.13995 0.0437,-0.0437 -0.0874,-0.11146 -0.22465,-0.20266 -0.30496,-0.20266 -0.17545,0 -0.28511,-0.36471 -0.28726,-0.95541 -9.9e-4,-0.23885 -0.0505,-0.43427 -0.1103,-0.43427 -0.0598,0 -0.14397,-0.23515 -0.18707,-0.52256 -0.0431,-0.28741 -0.12446,-0.55104 -0.18081,-0.58587 -0.0563,-0.0348 -0.10244,-0.2085 -0.10244,-0.38595 0,-0.17745 -0.1045,-0.4172 -0.23222,-0.53279 -0.21147,-0.19138 -0.22787,-0.32135 -0.18355,-1.45477 0.0267,-0.68453 0.11017,-1.35951 0.18534,-1.49996 0.0752,-0.14045 0.11318,-0.37824 0.0845,-0.52841 -0.0287,-0.15016 -0.0172,-0.25139 0.0256,-0.22494 0.0735,0.0454 0.33525,-1.69934 0.32972,-2.19753 -0.007,-0.65891 0.31419,-3.36858 0.40723,-3.43231 0.0593,-0.0407 0.0728,-0.13077 0.0298,-0.20027 -0.10068,-0.16291 0.1574,-1.07803 0.34926,-1.23847 0.0809,-0.0676 0.18233,-0.26354 0.22545,-0.43536 0.0431,-0.17182 0.12475,-0.34105 0.18139,-0.37606 0.0566,-0.035 0.10298,-0.24296 0.10298,-0.46213 0,-0.21918 0.0452,-0.39849 0.10054,-0.39849 0.0553,0 0.18914,-0.32571 0.29742,-0.72379 0.21709,-0.79817 0.61177,-1.72857 0.77773,-1.8334 0.14209,-0.0897 0.20976,-1.65092 0.0916,-2.11387 -0.16486,-0.64609 -0.42891,-1.28374 -0.54803,-1.32344 -0.0636,-0.0212 -0.0904,-0.13513 -0.0596,-0.25313 0.0309,-0.11802 -0.0528,-0.46088 -0.186,-0.76192 -0.13317,-0.30104 -0.24212,-0.64187 -0.24212,-0.7574 0,-0.11553 -0.0507,-0.2414 -0.11271,-0.27972 -0.18256,-0.11283 -0.43292,-0.75166 -0.65882,-1.68111 -0.11611,-0.47771 -0.24579,-0.89473 -0.28819,-0.92673 -0.0424,-0.032 -0.11373,-0.25347 -0.15851,-0.49217 -0.0448,-0.23871 -0.12774,-0.43401 -0.18434,-0.43401 -0.0566,0 -0.10292,-0.12017 -0.10292,-0.26702 0,-0.14687 -0.13028,-0.44361 -0.28952,-0.65944 -0.15923,-0.21583 -0.28951,-0.47492 -0.28951,-0.57577 0,-0.10083 -0.0814,-0.29957 -0.18091,-0.44163 -0.0995,-0.14206 -0.20028,-0.49591 -0.22394,-0.78635 -0.0237,-0.29043 -0.0995,-0.59611 -0.16851,-0.67925 -0.069,-0.0832 -0.095,-0.2307 -0.0577,-0.32788 0.0373,-0.0972 0.0121,-0.21108 -0.0559,-0.25313 -0.068,-0.0421 -0.12904,-0.008 -0.13555,0.0752 -0.007,0.0834 -0.0552,-0.005 -0.10819,-0.19583 -0.053,-0.19108 -0.20831,-0.73827 -0.34518,-1.21597 -0.71041,-2.47944 -1.05447,-4.55452 -1.10412,-6.6589 -0.0387,-1.63864 -0.24146,-4.34754 -0.35317,-4.71735 -0.0334,-0.11048 -0.0607,-0.91489 -0.0607,-1.78757 0,-1.73454 0.20766,-3.6063 0.42411,-3.82276 0.15879,-0.15879 0.32244,-1.04116 0.22295,-1.20214 -0.037,-0.0598 -0.014,-0.10878 0.051,-0.10878 0.12958,0 0.41674,-0.88775 0.37032,-1.14484 -0.0186,-0.10305 0.0363,-0.13543 0.15342,-0.0905 0.21817,0.0837 0.2389,-0.0515 0.0386,-0.25181 -0.11451,-0.11452 -0.11348,-0.16252 0.005,-0.2358 0.0819,-0.0506 0.27394,-0.46168 0.4268,-0.91348 0.15286,-0.45183 0.39281,-1.04663 0.53321,-1.32181 0.14041,-0.27518 0.2606,-0.58948 0.26708,-0.69846 0.0148,-0.24806 1.21458,-1.6084 1.38887,-1.57466 0.22671,0.0439 0.86235,-0.35956 0.93698,-0.5947 0.0579,-0.18236 0.12283,-0.20702 0.32667,-0.12408 0.13994,0.057 0.49962,0.13559 0.79929,0.17475 0.48222,0.063 0.59044,0.13373 0.94139,0.61499 0.47541,0.65193 0.92393,1.60759 0.82763,1.76341 -0.0381,0.0617 -0.0141,0.11214 0.0533,0.11214 0.0675,0 0.12265,0.12049 0.12265,0.26776 0,0.14728 0.098,0.47298 0.21788,0.7238 0.23938,0.50102 0.46211,1.38335 0.59746,2.36684 0.0482,0.35031 0.16935,1.13295 0.26918,1.73918 0.0998,0.60624 0.16067,1.42608 0.13518,1.82186 -0.0255,0.39577 -0.008,0.74301 0.0379,0.77165 0.0463,0.0287 0.0507,0.38135 0.01,0.78381 -0.0781,0.76652 0.12629,2.67815 0.32701,3.05817 0.3955,0.74876 0.60855,3.37168 0.6578,8.09841 l 0.0386,3.70805 0.316005,0.75052 c 0.56213,1.33507 0.66278,1.90449 0.69559,3.93522 0.017,1.05095 -0.008,2.20304 -0.0553,2.56022 z m -2.043095,-9.9405 c -0.0385,0.0385 -0.0426,0.13837 -0.009,0.22197 0.037,0.0924 0.0644,0.0649 0.07,-0.07 0.005,-0.12208 -0.0224,-0.19048 -0.0608,-0.152 z m -0.20569,-2.83968 c -0.36611,-0.83381 -0.49604,-0.35533 -0.17765,0.65422 0.0582,0.18466 0.10588,0.6146 0.10588,0.95541 0,0.43147 0.0458,0.61965 0.15067,0.61965 0.22385,0 0.16458,-1.67475 -0.0789,-2.22928 z m 0.19896,-0.34742 c -0.0321,0.0796 -0.0321,0.2099 0,0.28952 0.0321,0.0796 0.0584,0.0145 0.0584,-0.14476 0,-0.15924 -0.0263,-0.22438 -0.0584,-0.14476 z m -0.19894,-2.4609 c -0.11818,-1.32407 -0.19618,-1.79501 -0.29735,-1.79501 -0.0941,0 -0.19028,-0.36055 -0.30898,-1.15806 -0.0332,-0.22293 -0.0907,-0.4835 -0.12781,-0.57904 -0.11729,-0.30196 -0.13013,-0.44953 -0.20013,-2.30024 -0.10836,-2.86469 -0.18245,-3.98091 -0.29314,-4.41656 -0.0566,-0.22293 -0.13342,-0.60845 -0.17061,-0.85672 -0.0372,-0.24826 -0.0927,-0.57397 -0.12344,-0.72379 -0.0307,-0.14982 -0.0824,-0.40084 -0.1149,-0.55783 -0.043,-0.20767 -0.11398,-0.26779 -0.26056,-0.22069 -0.16601,0.0533 -0.17161,0.0436 -0.0318,-0.0553 0.14653,-0.10364 0.13245,-0.21974 -0.1031,-0.85053 -0.15004,-0.40177 -0.26913,-0.90069 -0.26466,-1.1087 0.005,-0.208 -0.0403,-0.34825 -0.0996,-0.31163 -0.0592,0.0366 -0.1077,-0.007 -0.1077,-0.0971 0,-0.25561 -0.5451,-0.78224 -0.73447,-0.70957 -0.0927,0.0356 -0.20296,0.009 -0.24501,-0.059 -0.1057,-0.17103 -0.32449,-0.15609 -0.2664,0.0182 0.0261,0.0783 -0.21596,0.28072 -0.54043,0.45182 -0.44503,0.23467 -0.59663,0.383 -0.62438,0.61089 -0.0202,0.16554 -0.13741,0.3549 -0.26057,0.42081 -0.12315,0.0659 -0.22391,0.18979 -0.22391,0.27529 0,0.0855 -0.0786,0.22073 -0.17475,0.30048 -0.0961,0.0798 -0.20685,0.34577 -0.24608,0.59112 -0.0392,0.24534 -0.11318,0.42021 -0.16433,0.3886 -0.1017,-0.0629 -0.20604,0.20119 -0.28273,0.71551 -0.0271,0.1818 -0.13441,0.56505 -0.23843,0.85167 -0.10403,0.28662 -0.31357,0.96409 -0.46563,1.50549 -0.15207,0.54139 -0.32457,1.1407 -0.38333,1.33178 -0.25622,0.83319 -0.39172,2.34357 -0.32385,3.61 0.0891,1.66225 0.16747,1.8287 0.57278,1.21624 0.35979,-0.54369 0.881,-1.74769 0.89106,-2.05836 0.0184,-0.56919 0.0656,-0.74126 0.20317,-0.74126 0.0819,0 0.14889,-0.0486 0.14889,-0.10808 0,-0.0595 0.26057,-0.37561 0.57903,-0.70257 0.31847,-0.32696 0.57904,-0.63741 0.57904,-0.68988 0,-0.0525 0.17874,-0.1163 0.3972,-0.1418 0.21846,-0.0255 0.37172,-0.005 0.34059,0.0452 -0.0312,0.0504 -0.006,0.0916 0.0551,0.0916 0.13744,0 1.12264,0.81299 1.10583,0.91253 -0.007,0.0395 0.10088,0.25422 0.23901,0.47715 0.31951,0.51564 0.70747,1.76397 0.91779,2.95308 0.0901,0.50955 0.24694,1.08279 0.34848,1.27387 0.10154,0.19109 0.18494,0.45426 0.18533,0.58483 3.3e-4,0.13057 0.058,0.29468 0.128,0.3647 0.07,0.07 0.16907,0.65893 0.22013,1.30871 0.0511,0.64978 0.15013,1.23871 0.22013,1.30871 0.07,0.07 0.1273,0.21738 0.1273,0.32748 0,0.25299 0.32827,0.58964 0.4822,0.49451 0.1116,-0.069 0.10467,-0.30988 -0.063,-2.1886 z m -2.80564,26.52926 c -0.0966,-0.25184 -0.23798,-0.2296 -0.31081,0.0489 -0.0432,0.16523 -0.11929,0.20961 -0.26411,0.15404 -0.1221,-0.0469 -0.17506,-0.0321 -0.13246,0.0368 0.039,0.0631 0.006,0.24137 -0.0742,0.39604 -0.22827,0.44207 -0.41159,1.25418 -0.47609,2.10917 -0.0326,0.43213 -0.0903,0.90933 -0.12824,1.06044 -0.0379,0.1511 -0.009,0.38717 0.0648,0.5246 0.10821,0.20219 0.16584,0.22323 0.30198,0.11025 0.10073,-0.0836 0.13899,-0.23184 0.0953,-0.3694 -0.0444,-0.1399 -0.0275,-0.20172 0.0432,-0.15803 0.0959,0.0593 0.241,-0.12405 0.30881,-0.39016 0.008,-0.0318 0.10965,-0.33649 0.22565,-0.67698 0.116,-0.3405 0.21641,-0.94889 0.22313,-1.35198 0.007,-0.4031 0.053,-0.7077 0.10282,-0.67691 0.10669,0.0659 0.12203,-0.55163 0.0203,-0.81677 z m -0.009,-0.96623 c -0.029,0.11072 -0.03,0.31918 -0.002,0.46323 0.0277,0.14406 0.0514,0.0535 0.0527,-0.20131 0.001,-0.25478 -0.0214,-0.37263 -0.0504,-0.26192 z m -2.39835,-17.14394 c -0.089,-0.17207 -0.19973,-0.62547 -0.24612,-1.00756 -0.0464,-0.38211 -0.13423,-0.79051 -0.19518,-0.90758 -0.0609,-0.11707 -0.15938,-0.89876 -0.21873,-1.7371 -0.0593,-0.83834 -0.15929,-1.54162 -0.22209,-1.56285 -0.0628,-0.0212 -0.11417,-0.24435 -0.11417,-0.49582 0,-0.31034 -0.0589,-0.47982 -0.18342,-0.52759 -0.12223,-0.0469 -0.14042,-0.097 -0.0545,-0.15004 0.17614,-0.10887 0.0232,-1.3602 -0.1926,-1.57602 -0.0919,-0.0919 -0.11002,-0.16501 -0.0409,-0.16501 0.0682,0 0.12408,-0.15634 0.12408,-0.34742 0,-0.25299 -0.0551,-0.34791 -0.20266,-0.34919 -0.15789,-0.001 -0.16795,-0.0238 -0.0455,-0.10135 0.2751,-0.17431 -0.14038,-1.40237 -0.47445,-1.40237 -0.15878,0 -0.009,0.71573 0.1743,0.83207 0.0789,0.0501 0.0886,0.0916 0.0216,0.0926 -0.0811,10e-4 -0.11559,0.7609 -0.10388,2.28896 0.0139,1.81232 0.0591,2.41678 0.21754,2.91133 0.11001,0.34327 0.17467,0.7211 0.14368,0.8396 -0.031,0.1185 -0.0161,0.21546 0.033,0.21546 0.0491,0 0.18077,0.37782 0.29255,0.8396 0.11178,0.46178 0.24053,0.86566 0.2861,0.8975 0.0456,0.0319 0.14088,0.26636 0.2118,0.52114 0.22806,0.81929 0.42685,1.33177 0.51658,1.33177 0.0481,0 0.0875,0.15471 0.0875,0.34379 0,0.258 0.0433,0.32715 0.17371,0.27712 0.2197,-0.0843 0.22603,-0.64703 0.012,-1.06105 z m -1.76783,-10.82208 c -0.0321,0.0796 -0.0321,0.2099 0,0.28952 0.0321,0.0796 0.0584,0.0145 0.0584,-0.14476 0,-0.15924 -0.0263,-0.22438 -0.0584,-0.14476 z m -0.27072,-0.20266 c -0.0637,0 -0.11581,0.13336 -0.11581,0.29635 0,0.16808 0.0501,0.26537 0.11581,0.22478 0.0637,-0.0394 0.11581,-0.17273 0.11581,-0.29635 0,-0.12364 -0.0521,-0.22478 -0.11581,-0.22478 z m 8.60366,46.489026 c -0.16505,0.0629 -0.17835,0.0495 -0.0648,-0.0648 0.0786,-0.0791 0.172,-0.11473 0.207655,-0.0791 0.0356,0.0357 -0.0286,0.10042 -0.142825,0.1439 z m -1.31466,-0.97691 c -0.0675,0 -0.0904,-0.0521 -0.0511,-0.1158 0.0394,-0.0637 0.0946,-0.11581 0.12265,-0.11581 0.0281,0 0.0511,0.0521 0.0511,0.11581 0,0.0637 -0.0552,0.1158 -0.12265,0.1158 z m -1.34729,-35.583876 c -0.0294,-0.11268 -0.0275,-0.26902 0.004,-0.34742 0.0317,-0.0784 0.0557,0.0138 0.0534,0.20486 -0.002,0.19109 -0.0283,0.25523 -0.0577,0.14256 z"
       inkscape:label="yogabunny" /></g></svg>
