<?xml version="1.0" encoding="UTF-8" standalone="no"?>
<!-- Created with Inkscape (http://www.inkscape.org/) -->

<svg
   width="57.436275mm"
   height="297.2778mm"
   viewBox="0 0 57.436275 297.2778"
   version="1.1"
   id="svg5"
   xml:space="preserve"
   xmlns:inkscape="http://www.inkscape.org/namespaces/inkscape"
   xmlns:sodipodi="http://sodipodi.sourceforge.net/DTD/sodipodi-0.dtd"
   xmlns="http://www.w3.org/2000/svg"
   xmlns:svg="http://www.w3.org/2000/svg"><sodipodi:namedview
     id="namedview7"
     pagecolor="#ffffff"
     bordercolor="#666666"
     borderopacity="1.0"
     inkscape:showpageshadow="2"
     inkscape:pageopacity="0.0"
     inkscape:pagecheckerboard="0"
     inkscape:deskcolor="#d1d1d1"
     inkscape:document-units="mm"
     showgrid="false" /><defs
     id="defs2" /><g
     inkscape:label="Layer 1"
     inkscape:groupmode="layer"
     id="layer1"
     transform="translate(293.24389,-16.226136)"><path
       id="path1845"
       style="fill:#000000;stroke-width:0.210896"
       d="m -258.8855,313.13468 c -0.80899,-0.38628 -2.80498,-2.05288 -4.39059,-3.666 -1.23269,-1.2541 -1.31392,-1.36479 -1.7936,-2.44405 -0.2194,-0.49362 -0.53209,-1.00804 -0.69486,-1.14312 -0.16277,-0.1351 -0.43786,-0.58534 -0.6113,-1.00055 -0.17344,-0.41521 -0.5369,-0.99218 -0.8077,-1.28216 -0.2708,-0.28998 -0.56346,-0.7645 -0.65036,-1.05448 -0.0869,-0.28998 -0.3837,-0.81195 -0.65956,-1.15993 -0.75844,-0.95673 -0.77674,-0.98518 -1.28824,-2.00351 -0.79004,-1.57284 -1.31872,-2.4056 -1.77401,-2.79436 -0.23772,-0.20299 -0.36264,-0.36908 -0.27759,-0.36908 0.0851,0 0.0244,-0.16057 -0.1348,-0.35683 -0.19668,-0.24245 -0.20495,-0.30605 -0.0258,-0.19843 0.41774,0.25096 0.37838,0.11415 -0.4347,-1.51086 -0.19134,-0.38242 -0.25485,-0.63781 -0.14112,-0.56752 0.11371,0.0703 0.20676,0.0273 0.20676,-0.0956 0,-0.12283 -0.0949,-0.22334 -0.2109,-0.22334 -0.11599,0 -0.21322,-0.30844 -0.21608,-0.68541 -0.003,-0.37698 -0.19185,-1.24338 -0.41999,-1.92536 -0.22814,-0.68195 -0.36632,-1.51516 -0.30706,-1.85153 0.0592,-0.33638 0.0176,-0.7801 -0.0926,-0.98605 -0.4822,-0.901 -0.63408,-6.02368 -0.31055,-10.47428 0.18576,-2.55534 0.24219,-5.63912 0.22962,-12.5483 -0.0144,-7.92436 0.0719,-11.53837 0.28729,-12.02105 0.0259,-0.058 0.0641,-0.43761 0.085,-0.84358 0.11085,-2.15386 0.38556,-5.05764 0.54865,-5.79963 0.10199,-0.46397 0.18775,-1.24131 0.19059,-1.72745 0.003,-0.48612 0.10005,-0.94251 0.21605,-1.0142 0.11599,-0.0717 0.21089,-0.55739 0.21089,-1.07936 0,-0.52197 0.0864,-0.89561 0.19209,-0.83032 0.10842,0.067 0.1818,-0.4418 0.16845,-1.16806 -0.0183,-0.99687 0.0553,-1.33097 0.32667,-1.48284 0.19267,-0.10783 0.41395,-0.54934 0.49174,-0.98117 0.0778,-0.43181 0.23558,-0.90375 0.35064,-1.04874 0.11507,-0.14499 0.13889,-0.26362 0.0529,-0.26362 -0.086,0 0.0922,-0.32583 0.39597,-0.72407 0.30375,-0.39823 0.55227,-0.90415 0.55227,-1.12428 0,-0.43073 0.40895,-0.69246 1.89806,-1.21472 1.1251,-0.39461 2.70511,-0.54099 2.87484,-0.26636 0.0662,0.10711 0.25805,0.14191 0.42633,0.0773 0.17086,-0.0656 0.24907,-0.0254 0.17712,0.0911 -0.0709,0.11467 -0.0375,0.20847 0.0741,0.20847 0.26869,0 0.4308,-2.14262 0.18679,-2.46879 -0.10467,-0.13991 -0.12137,-0.3659 -0.0371,-0.50222 0.18125,-0.29327 0.17418,-3.61615 -0.0249,-11.68624 -0.0801,-3.24779 -0.12313,-6.33215 -0.0956,-6.85411 0.0917,-1.73844 0.0499,-6.60587 -0.0832,-9.7012 -0.0723,-1.68189 -0.1193,-3.4376 -0.10438,-3.90157 0.0357,-1.10997 0.0394,-1.06215 -0.20151,-2.5865 -0.11485,-0.72662 -0.1341,-1.58163 -0.0428,-1.90001 0.0913,-0.31839 0.0982,-0.76781 0.0154,-0.99872 -0.0828,-0.23092 -0.21244,-1.53517 -0.28802,-2.89834 -0.12563,-2.26608 -0.26445,-3.25437 -0.98496,-7.01182 -0.26229,-1.36783 -0.33152,-2.02052 -0.49811,-4.69628 -0.0597,-0.95906 -0.15241,-1.8147 -0.206,-1.90142 -0.0536,-0.0867 -0.16208,-2.10164 -0.24106,-4.47759 -0.079,-2.37596 -0.18707,-4.39028 -0.24022,-4.47626 -0.0531,-0.086 -0.13342,-1.58077 -0.17839,-3.32175 -0.045,-1.74098 -0.12543,-3.23657 -0.17879,-3.32353 -0.22207,-0.36197 -0.3315,-1.75202 -0.1719,-2.18347 0.19961,-0.5396 -0.18031,-1.82579 -0.62189,-2.10541 -0.23289,-0.14748 -0.2147,-0.18681 0.0876,-0.18937 0.22415,-0.002 0.32216,-0.0993 0.23762,-0.23606 -0.0791,-0.12806 -0.16936,-0.875 -0.20047,-1.65988 -0.0311,-0.78487 -0.11129,-1.6054 -0.17816,-1.82339 -0.11366,-0.37049 -0.35042,-4.35167 -0.44373,-7.46137 -0.0226,-0.75395 -0.13274,-1.65553 -0.24469,-2.00351 -0.11195,-0.34798 -0.149,-0.96485 -0.0823,-1.37082 0.0667,-0.40597 0.0315,-1.04567 -0.0781,-1.42154 -0.13571,-0.46526 -0.12236,-0.85234 0.0418,-1.21265 0.19427,-0.42638 0.18437,-0.52925 -0.0509,-0.52925 -0.18824,0 -0.25287,-0.14994 -0.18178,-0.42179 0.0609,-0.23302 0.006,-0.42179 -0.12169,-0.42179 -0.15621,0 -0.20679,-0.5683 -0.15482,-1.73989 0.0475,-1.07159 -0.0124,-1.85104 -0.15614,-2.02926 -0.25661,-0.31826 -0.34308,-4.66599 -0.0928,-4.66642 0.0833,-1.4e-4 0.10814,-0.11889 0.0551,-0.26388 -0.0531,-0.14499 -0.1332,-1.60598 -0.17809,-3.24665 -0.0449,-1.64067 -0.15552,-3.1026 -0.24584,-3.24874 -0.11649,-0.1885 -0.0781,-0.21383 0.13198,-0.0872 0.25095,0.15124 0.25262,0.12476 0.0109,-0.17327 -0.18483,-0.22793 -0.25363,-0.70622 -0.19545,-1.35857 0.0929,-1.04104 -0.36844,-4.32768 -0.69237,-4.93295 -0.10113,-0.18896 -0.13191,-0.56915 -0.0684,-0.8449 0.0635,-0.27574 0.12364,-0.61998 0.13366,-0.76497 0.01,-0.14499 0.0803,-0.26362 0.15616,-0.26362 0.21115,0 0.0308,-2.35079 -0.22961,-2.99253 -0.12659,-0.31198 -0.16752,-0.66859 -0.0909,-0.79248 0.0766,-0.12388 -0.009,-0.37365 -0.19058,-0.55503 -0.36419,-0.36419 -0.4432,-0.93235 -0.12966,-0.93235 0.11007,0 0.0614,-0.33216 -0.10828,-0.73813 -0.16962,-0.40598 -0.23596,-0.7396 -0.14741,-0.74137 0.0885,-0.002 0.037,-0.0819 -0.11458,-0.17801 -0.18566,-0.11775 -0.30459,-0.85652 -0.36446,-2.2639 -0.0489,-1.14901 -0.14511,-2.37383 -0.21384,-2.7218 -0.11603,-0.58738 -0.14136,-2.879251 -0.0361,-3.266731 0.0255,-0.094 -0.0247,-0.18036 -0.11176,-0.19197 -0.45988,-0.0613 -0.5897,0.004 -0.45237,0.22565 0.0996,0.16121 0.0414,0.2041 -0.16802,0.12374 -0.17629,-0.0676 -0.84694,0.0507 -1.49033,0.26293 -0.87131,0.28744 -1.37388,0.33989 -1.96956,0.20555 -0.43987,-0.0992 -0.87618,-0.13315 -0.96958,-0.0754 -0.0934,0.0577 -0.16981,-0.006 -0.16981,-0.14095 0,-0.13698 -0.1469,-0.18954 -0.33162,-0.11866 -0.18239,0.07 -0.53828,0.0126 -0.79086,-0.12768 -0.25258,-0.14022 -0.53041,-0.23479 -0.61741,-0.21014 -0.087,0.0246 -0.15817,-0.0412 -0.15817,-0.14635 0,-0.10513 -0.17566,-0.14522 -0.39035,-0.0891 -0.21469,0.0561 -0.54613,-0.0537 -0.73652,-0.24409 -0.19039,-0.19039 -0.4418,-0.28706 -0.55868,-0.21482 -0.11688,0.0722 -0.21251,0.0336 -0.21251,-0.0858 0,-0.11945 -0.54569,-0.47242 -1.21265,-0.78438 -1.96695,-0.92004 -2.89055,-1.95 -2.28851,-2.55205 0.10759,-0.1076 -0.34189,-1.05682 -0.81079,-1.71225 -0.1121,-0.15669 -0.22575,-0.43429 -0.25255,-0.61689 -0.0268,-0.1826 -0.19903,-0.41612 -0.38275,-0.51893 -0.18371,-0.10281 -0.27897,-0.276 -0.21169,-0.38486 0.0673,-0.10887 0.0317,-0.19794 -0.079,-0.19794 -0.11072,0 -0.40103,-0.37961 -0.64513,-0.84358 -0.24411,-0.46397 -0.6437,-1.22347 -0.88797,-1.68779 -0.24428,-0.46431 -0.45781,-1.08112 -0.47452,-1.37067 -0.0167,-0.28956 -0.10155,-0.52654 -0.18855,-0.52661 -0.087,-9e-5 -0.15817,-0.23741 -0.15817,-0.5274 0,-0.28997 -0.11072,-0.52723 -0.24605,-0.52723 -0.13532,0 -0.19319,-0.0529 -0.12859,-0.11745 0.0646,-0.0646 -0.10939,-0.74286 -0.38664,-1.50723 -0.27725,-0.76438 -0.50409,-1.70241 -0.50409,-2.08451 0,-0.3821 -0.0856,-0.74761 -0.19015,-0.81225 -0.10458,-0.0646 -0.25873,-0.70844 -0.34255,-1.43069 -0.0838,-0.72224 -0.27133,-1.50536 -0.41667,-1.74026 -0.22404,-0.36209 -0.43244,-1.74141 -0.8549,-5.65806 -0.04,-0.37076 -0.17351,-1.19608 -0.29671,-1.83404 -0.1232,-0.63796 -0.27439,-2.10896 -0.33599,-3.26889 -0.0616,-1.15992 -0.15454,-2.67837 -0.20656,-3.37433 -0.4402,-5.88952 -0.40743,-14.9599 0.0594,-16.44986 0.13098,-0.41799 0.18963,-1.04034 0.34778,-3.69068 0.14029,-2.35095 0.40762,-4.925 0.66068,-6.36141 0.0577,-0.32778 0.31285,-0.99473 0.56688,-1.48211 0.3952,-0.7582 0.46331,-1.23796 0.4717,-3.3227 0.009,-2.11764 0.0623,-2.48486 0.41115,-2.80562 0.22074,-0.20299 0.29192,-0.36907 0.15817,-0.36907 -0.35572,0 -0.29721,-0.56681 0.0732,-0.70895 0.17933,-0.0688 0.31635,-0.38307 0.31635,-0.72555 0,-0.33228 0.0657,-0.66987 0.14603,-0.75019 0.0803,-0.0803 0.17699,-0.35711 0.21483,-0.61511 0.0378,-0.25799 0.19399,-0.56398 0.347,-0.67997 0.153,-0.116 0.23868,-0.32814 0.1904,-0.47145 -0.0483,-0.1433 0.1108,-0.53942 0.35351,-0.88027 0.38464,-0.54018 0.39772,-0.62856 0.10187,-0.68849 -0.29112,-0.059 -0.27295,-0.15304 0.12765,-0.66122 0.25688,-0.32586 0.47943,-0.89524 0.49455,-1.26529 0.0151,-0.37005 0.19362,-0.83894 0.39665,-1.04197 0.20303,-0.20304 0.36973,-0.53524 0.37045,-0.73822 6e-4,-0.20299 0.12647,-0.60891 0.27946,-0.90204 0.39516,-0.75717 0.55631,-1.47054 0.33218,-1.47054 -0.10513,0 -0.19115,-0.15251 -0.19115,-0.33891 0,-0.22501 0.11421,-0.29508 0.33983,-0.2085 0.24264,0.0931 0.30501,0.0397 0.21809,-0.18682 -0.18203,-0.47435 0.64075,-1.14775 1.20132,-0.98323 0.8991,0.26388 1.39302,0.78909 1.52539,1.62204 0.0717,0.45118 0.25554,0.99903 0.40853,1.21744 0.15299,0.21842 0.23688,0.62473 0.18643,0.90293 -0.0505,0.27819 -0.006,0.5058 0.0994,0.5058 0.41032,0 0.61784,2.27417 0.32175,3.52588 -0.0763,0.32262 -0.10866,1.156 -0.0719,1.85196 0.1225,2.31718 0.0423,5.671 -0.18421,7.69769 -0.75786,6.78294 -0.71606,16.81441 0.1024,24.56935 0.18058,1.71098 0.26403,3.25385 0.38217,7.06501 0.16486,5.31821 0.3105,8.03903 0.45721,8.54128 0.0678,0.23198 0.19959,0.9912 0.29294,1.68716 0.20601,1.53598 0.38793,2.3932 0.62656,2.95254 0.42515,0.99652 0.85506,2.6218 0.88182,3.33376 0.0186,0.49598 0.19627,0.92627 0.50024,1.21183 0.49804,0.46789 1.50113,0.69195 1.6948,0.37858 0.0632,-0.10224 0.2179,-0.12224 0.3438,-0.0444 0.13776,0.0851 0.16814,0.0432 0.0763,-0.10545 -0.0839,-0.1358 -0.24096,-0.19232 -0.34894,-0.12558 -0.10797,0.0667 -0.19632,0.0209 -0.19632,-0.10201 0,-0.12284 0.12078,-0.22334 0.26839,-0.22334 0.15368,0 0.38804,-0.51829 0.54835,-1.21265 0.15397,-0.66696 0.38197,-1.33731 0.50668,-1.48967 0.35157,-0.42953 0.9921,-2.3715 1.09118,-3.30821 0.0491,-0.46397 0.14014,-1.12829 0.20236,-1.47627 0.14007,-0.78329 0.17648,-4.27982 0.0468,-4.48972 -0.0523,-0.0845 -0.0127,-0.57988 0.0879,-1.10084 0.10705,-0.55442 0.0953,-2.30275 -0.0282,-4.21609 -0.27788,-4.30281 -0.43257,-8.53663 -0.393,-10.75568 0.0176,-0.98594 0.0293,-2.07732 0.026,-2.4253 -0.0485,-5.12778 0.0537,-8.21527 0.27811,-8.39916 0.1412,-0.11573 0.14176,-0.20407 0.002,-0.26309 -0.12252,-0.0516 -0.18098,-0.72238 -0.13949,-1.60062 0.0512,-1.08544 0.13121,-1.42755 0.28351,-1.21318 0.15479,0.21789 0.16536,0.1846 0.0391,-0.12322 -0.0952,-0.23198 -0.16759,-0.94376 -0.16098,-1.58171 0.0469,-4.51868 0.1267,-6.32297 0.31031,-7.01165 0.11588,-0.43462 0.26156,-1.28875 0.32375,-1.89806 0.15904,-1.55833 0.18771,-1.7162 0.36337,-2.00042 0.3312,-0.53588 0.76857,-2.30987 0.77074,-3.12619 0.001,-0.57364 0.17229,-1.08576 0.51848,-1.55499 0.2839,-0.38482 0.57603,-0.97211 0.64917,-1.30509 0.0731,-0.33299 0.29164,-0.69802 0.48556,-0.81117 0.19392,-0.11316 0.25768,-0.21199 0.14169,-0.21963 -0.116,-0.008 0.0264,-0.14952 0.31634,-0.31528 0.78155,-0.44677 1.95887,-0.38966 2.61554,0.12687 0.83308,0.65531 1.76242,2.65463 1.90947,4.10791 0.0695,0.68668 0.2012,1.84165 0.2927,2.56661 0.0915,0.72495 0.10498,1.31809 0.03,1.31809 -0.075,0 -0.14989,0.6406 -0.16634,1.42355 -0.0164,0.78295 -0.078,2.32512 -0.13672,3.42706 -0.20485,3.84259 -0.26733,12.97367 -0.092,13.4446 0.0972,0.26098 0.10784,0.47458 0.0237,0.47467 -0.0841,9e-5 -0.17186,1.0203 -0.19497,2.26713 -0.0231,1.24683 -0.0981,4.44974 -0.16669,7.11757 -0.11432,4.4476 -0.18413,12.0861 -0.11277,12.3374 0.0165,0.058 0.0633,0.57996 0.10419,1.15992 0.0408,0.57997 0.18191,1.57645 0.31352,2.21441 0.31545,1.52926 0.66046,3.54394 0.73393,4.28587 0.0324,0.32736 0.21992,0.75443 0.41665,0.94903 0.3349,0.33128 0.34881,0.33031 0.21829,-0.0152 -0.084,-0.22245 -0.04,-0.36907 0.11082,-0.36907 0.38518,0 3.38584,-3.23382 3.27781,-3.5325 -0.0524,-0.145 -0.0123,-0.26362 0.0891,-0.26362 0.10147,0 0.25147,-0.49824 0.33333,-1.10721 0.0819,-0.60896 0.24375,-1.22462 0.35973,-1.36813 0.11598,-0.14351 0.1539,-0.40943 0.0842,-0.59092 -0.0829,-0.21617 -0.0424,-0.2779 0.11769,-0.17898 0.16986,0.10497 0.1965,0.028 0.0874,-0.25267 -0.0863,-0.22202 -0.16849,-0.45112 -0.18265,-0.50911 -0.0142,-0.058 0.0842,-0.72232 0.21863,-1.47627 0.1344,-0.75396 0.19319,-2.0826 0.13063,-2.95254 -0.14564,-2.02537 -0.13885,-5.00877 0.012,-5.25278 0.064,-0.10364 0.12466,-1.20911 0.13467,-2.45659 0.01,-1.24748 0.11545,-2.51441 0.23429,-2.8154 0.11885,-0.30099 0.24567,-1.82845 0.28184,-3.39435 0.10747,-4.65376 0.30423,-8.26155 0.51183,-9.38486 0.20869,-1.12924 0.27219,-2.41334 0.30502,-6.16824 0.0152,-1.74577 0.0904,-2.37224 0.28436,-2.37258 0.14499,-2.1e-4 0.26362,-0.14841 0.26362,-0.32924 0,-0.18084 -0.0833,-0.27728 -0.18522,-0.21432 -0.22427,0.1386 -0.50026,-1.09892 -0.31274,-1.40233 0.0731,-0.11822 0.16084,-1.38036 0.19504,-2.80476 0.0579,-2.41072 0.52626,-5.76793 0.94079,-6.74362 0.0986,-0.23199 0.23836,-0.63326 0.31067,-0.89173 0.0723,-0.25847 0.59618,-0.93223 1.16419,-1.49726 0.93898,-0.93405 1.09932,-1.01583 1.76632,-0.90088 0.89849,0.15485 1.82868,1.34453 2.55032,3.26174 1.10731,2.94186 1.2188,4.67477 1.22976,19.11419 0.003,3.65377 -0.0518,7.78205 -0.12125,9.17396 -0.2249,4.50714 -0.16347,18.47094 0.0872,19.8242 0.12892,0.69596 0.26319,1.59754 0.29839,2.00351 0.11138,1.28481 0.34769,2.15816 0.69312,2.56158 0.34319,0.40081 0.78639,0.55065 0.56389,0.19064 -0.154,-0.24917 0.61416,-0.68437 0.84312,-0.47767 0.0919,0.0829 0.10976,0.05 0.0398,-0.0732 -0.07,-0.12318 0.19954,-0.59121 0.59888,-1.04007 0.69341,-0.77942 0.96347,-1.33291 0.51516,-1.05584 -0.30685,0.18965 -0.25818,-0.36449 0.0746,-0.84938 0.15703,-0.2288 0.35176,-0.84306 0.43276,-1.36502 0.081,-0.52197 0.19324,-1.1863 0.24946,-1.47628 0.0562,-0.28998 0.13666,-1.09665 0.17874,-1.79261 0.0421,-0.69596 0.13936,-1.78734 0.21616,-2.4253 0.0768,-0.63796 0.18014,-1.63444 0.22965,-2.2144 0.0495,-0.57997 0.14251,-1.57645 0.20668,-2.21441 0.0642,-0.63796 0.13921,-2.20386 0.16676,-3.47978 0.0276,-1.27592 0.11547,-2.42453 0.19538,-2.55246 0.0799,-0.12792 0.0527,-0.8078 -0.0606,-1.51084 -0.14192,-0.88124 -0.13505,-1.46399 0.0221,-1.87635 0.14768,-0.38744 0.25253,-4.06641 0.2977,-10.44474 0.0383,-5.41565 0.12787,-9.94071 0.19894,-10.0557 0.0711,-0.11499 0.0496,-0.25827 -0.0477,-0.31839 -0.0973,-0.0601 -0.11308,-0.65984 -0.0351,-1.33268 0.18852,-1.62652 0.0585,-4.5162 -0.36815,-8.1829 -0.081,-0.69596 -0.12643,-1.52636 -0.10098,-1.84534 0.0254,-0.31898 0.0689,-0.91212 0.0966,-1.3181 0.0277,-0.40597 0.1138,-0.73813 0.1913,-0.73813 0.0775,0 0.28272,-0.0544 0.45601,-0.12091 0.21023,-0.0807 0.59489,0.25271 1.15584,1.00175 0.92871,1.24012 2.99164,5.13082 2.99368,5.64612 6e-4,0.17993 0.13718,0.58762 0.30326,0.90598 0.16607,0.31836 0.36879,1.03014 0.45048,1.58173 0.0817,0.55158 0.2774,1.37069 0.43489,1.82025 0.15749,0.44956 0.28634,1.1868 0.28634,1.63832 0,0.85308 0.70072,3.7374 1.08025,4.44656 0.11968,0.22363 0.16583,0.54154 0.10254,0.70647 -0.0633,0.16492 -0.0231,0.29986 0.0892,0.29986 0.11235,0 0.20428,0.23263 0.20428,0.51696 0,0.65806 0.56219,2.83198 0.8136,3.14607 0.10501,0.1312 0.24297,0.80796 0.30659,1.50392 0.0636,0.69596 0.28096,2.16695 0.48301,3.26888 0.28737,1.56728 0.37179,3.26629 0.38771,7.80314 0.0112,3.1898 0.0786,5.89454 0.1499,6.01053 0.11585,0.18861 -0.0378,1.60607 -0.3658,3.37433 -0.0645,0.34798 -0.16068,1.39192 -0.21362,2.31986 -0.053,0.92794 -0.14421,2.01932 -0.2028,2.42529 -0.0586,0.40598 -0.14419,1.21266 -0.19023,1.79262 -0.046,0.57996 -0.19195,1.62389 -0.32424,2.31985 -0.13229,0.69596 -0.28683,1.64499 -0.34341,2.10896 -0.0565,0.46397 -0.1865,1.03339 -0.28871,1.26538 -0.10222,0.23198 -0.23558,0.75395 -0.29637,1.15992 -0.4103,2.7405 -0.53742,3.40509 -0.86727,4.53426 -0.20331,0.69595 -0.44383,1.31339 -0.53449,1.37208 -0.0907,0.0587 -0.2582,0.77046 -0.37229,1.58172 -0.13845,0.98436 -0.44261,1.90282 -0.91441,2.76111 -0.95813,1.74305 -2.59018,4.19444 -3.59838,5.4049 -0.48258,0.5794 -0.76596,1.10084 -0.67672,1.24523 0.0923,0.14939 0.0629,0.19241 -0.0738,0.10791 -0.25373,-0.15682 -0.89996,0.72327 -1.94103,2.64348 -0.23125,0.42654 -0.58813,0.83003 -0.79306,0.89666 -0.20494,0.0666 -0.71496,0.44634 -1.13338,0.84381 -0.48996,0.46543 -1.2782,0.88923 -2.2144,1.19059 -0.7995,0.25736 -1.63568,0.55964 -1.85819,0.67175 -0.50831,0.25609 -3.71153,0.54329 -3.57379,0.32042 0.0559,-0.0905 0.006,-0.1645 -0.1112,-0.1645 -0.11707,0 -0.30496,0.16457 -0.41752,0.36571 -0.15382,0.27487 -0.5886,0.39567 -1.75037,0.48632 -0.98215,0.0767 -1.60115,0.0395 -1.69778,-0.10208 -0.16456,-0.241 -0.007,6.241781 0.22209,9.162151 0.0775,0.98594 0.0803,2.9789 0.006,4.42881 -0.16974,3.32569 -0.0395,9.67577 0.20486,9.99054 0.10158,0.13085 0.20411,0.80174 0.22784,1.49087 0.0237,0.68912 0.0906,1.32972 0.14856,1.42354 0.058,0.0938 -0.0188,0.17204 -0.17064,0.17381 -0.17786,0.002 -0.19741,0.0584 -0.0549,0.15817 0.12161,0.0852 0.22558,0.91417 0.23105,1.84211 0.005,0.92794 0.0846,2.0539 0.17595,2.50212 0.0971,0.47651 0.075,1.11148 -0.0531,1.52899 -0.12832,0.41811 -0.13854,0.71405 -0.0246,0.71405 0.10697,0 0.18772,0.26098 0.17943,0.57996 -0.008,0.31898 0.0428,1.43409 0.11359,2.47803 0.0708,1.04393 0.15857,3.51141 0.19512,5.48328 0.0365,1.97188 0.14724,4.297 0.24595,5.16695 0.0987,0.86994 0.14102,2.00878 0.094,2.53075 -0.047,0.52196 -0.0705,2.56238 -0.0522,4.53425 0.0311,3.36393 0.0359,4.47105 0.0277,6.53777 -0.002,0.46397 0.0531,2.07732 0.12208,3.58523 0.069,1.5079 0.17108,3.88048 0.22692,5.27239 0.0558,1.39191 0.16076,3.10016 0.23313,3.79612 0.0724,0.69596 0.14089,1.88225 0.15225,2.6362 0.0114,0.75395 0.0856,1.47026 0.16492,1.59179 0.0793,0.12153 0.0772,0.32951 -0.005,0.46219 -0.19205,0.31076 -0.0952,5.21795 0.17866,9.05159 0.13504,1.8904 0.1401,3.17862 0.0138,3.51081 -0.10973,0.28861 -0.14418,0.58007 -0.0766,0.64769 0.0676,0.0676 0.19996,1.00269 0.29407,2.07792 0.25561,2.92032 0.51435,5.00616 0.72649,5.85654 0.10059,0.40324 0.0798,0.45346 -0.0883,0.21355 -0.1798,-0.25654 -0.21358,-0.23039 -0.18541,0.14356 0.0189,0.25149 0.0859,0.42544 0.14884,0.38657 0.0629,-0.0389 0.10684,0.56084 0.0976,1.33271 -0.009,0.77186 0.0596,1.61692 0.15295,1.8779 0.11656,0.32588 0.0888,0.47553 -0.0887,0.47774 -0.17276,0.002 -0.18421,0.0546 -0.0345,0.15817 0.12312,0.0852 0.23157,0.34476 0.24101,0.57674 0.009,0.23199 0.0886,1.41828 0.176,2.6362 0.0874,1.21792 0.16871,2.47539 0.18078,2.79436 0.0121,0.31899 0.0694,0.58043 0.12739,0.58098 0.058,0 0.1355,1.21057 0.17223,2.68892 0.0367,1.47836 0.10438,3.02007 0.15032,3.42605 0.0459,0.40597 0.13562,3.0158 0.1993,5.79963 0.0637,2.78382 0.22017,5.58346 0.34775,6.22142 0.12759,0.63796 0.28233,1.43947 0.34387,1.78114 0.10381,0.5764 1.13988,2.21546 1.99573,3.15724 0.48383,0.53242 2.14285,3.04592 2.16924,3.28655 0.006,0.058 0.28295,0.50959 0.61464,1.00353 0.33169,0.49393 0.62832,1.11081 0.65919,1.37082 0.0309,0.26001 0.20694,0.75746 0.3913,1.10543 0.18435,0.34798 0.33576,0.74659 0.33648,0.88583 6e-4,0.13923 0.13723,0.32921 0.30337,0.42219 0.16614,0.093 0.3501,0.56752 0.40881,1.05456 0.0587,0.48704 0.20748,1.07376 0.33062,1.30384 0.12313,0.23007 0.22387,0.6502 0.22387,0.9336 0,0.2834 0.14236,0.63342 0.31635,0.77782 0.18881,0.1567 0.31634,0.61772 0.31634,1.14357 0,0.48457 0.10032,0.98136 0.22294,1.10397 0.19091,0.19092 0.55042,3.49195 0.68544,6.29374 0.0223,0.46397 0.12398,0.97282 0.22584,1.13078 0.11672,0.18101 0.0886,0.3469 -0.0761,0.44866 -0.18924,0.11696 -0.21689,0.47382 -0.10029,1.29452 0.22183,1.56145 0.23519,2.7148 0.0315,2.7148 -0.0938,-3e-5 -0.11301,0.0932 -0.0426,0.20714 0.18712,0.30278 0.20196,1.84909 0.0294,3.06172 -0.0825,0.57996 -0.19377,3.33215 -0.24718,6.11598 -0.0534,2.78381 -0.14555,5.4411 -0.20477,5.90507 -0.0593,0.46398 -0.14928,1.59024 -0.2001,2.50281 -0.0508,0.91257 -0.14454,1.71134 -0.20824,1.77502 -0.0637,0.0637 -0.11583,0.37854 -0.11583,0.69965 0,0.32109 -0.10571,0.85096 -0.23493,1.17749 -0.12921,0.32653 -0.26459,1.185 -0.30083,1.9077 -0.0362,0.72272 -0.11639,1.48195 -0.1781,1.68717 -0.0617,0.20524 -0.16232,0.89512 -0.22359,1.53309 -0.0613,0.63795 -0.19789,1.68189 -0.30362,2.31985 -0.10571,0.63795 -0.15345,1.56326 -0.10609,2.05623 0.0473,0.49297 0.006,0.89631 -0.0918,0.89631 -0.0978,0 -0.19472,0.11863 -0.21528,0.26361 -0.3142,2.21698 -0.43964,2.90957 -0.63955,3.53112 -0.13033,0.40521 -0.23696,1.24032 -0.23696,1.85582 0,0.61548 -0.13615,1.38233 -0.30254,1.7041 -0.28391,0.54902 -1.09137,3.35301 -1.26771,4.40221 -0.0438,0.26069 -0.15331,0.87756 -0.24333,1.37083 -0.09,0.49328 -0.14646,0.96623 -0.12542,1.05102 0.021,0.0848 -0.13711,0.46637 -0.35145,0.84797 -0.21434,0.38161 -0.65672,1.45108 -0.98308,2.3766 -0.72343,2.05159 -2.23955,4.95278 -3.22137,6.16431 -0.61674,0.76104 -0.84189,0.89524 -1.49182,0.88916 -0.421,-0.004 -1.10653,-0.17002 -1.52341,-0.36907 z m 2.69344,-3.10357 c 0.16255,-0.34797 0.56807,-1.01128 0.90116,-1.47403 0.33309,-0.46275 0.56601,-0.90544 0.51762,-0.98374 -0.0484,-0.0783 0.007,-0.17422 0.12314,-0.21314 0.11613,-0.0389 0.40367,-0.7825 0.63898,-1.65244 0.2353,-0.86995 0.51188,-1.77153 0.61462,-2.00351 0.31448,-0.71011 0.48071,-1.22894 0.67569,-2.10896 0.10279,-0.46397 0.23889,-1.07789 0.30242,-1.36427 0.0635,-0.28639 0.19819,-0.6203 0.29924,-0.74207 0.10105,-0.12175 0.29601,-0.88393 0.43323,-1.69371 0.13723,-0.8098 0.33363,-1.5625 0.43646,-1.6727 0.10283,-0.11019 0.18696,-0.47232 0.18696,-0.80471 0,-0.33242 0.085,-0.76422 0.18893,-0.95958 0.10391,-0.19537 0.24207,-1.11443 0.30704,-2.04237 0.065,-0.92795 0.25791,-2.16169 0.42876,-2.74165 0.17085,-0.57996 0.36954,-2.00351 0.44153,-3.16343 0.072,-1.15993 0.2249,-2.40664 0.33981,-2.77046 0.1149,-0.36381 0.16448,-0.90653 0.11018,-1.206 -0.0543,-0.2995 -0.0151,-0.85597 0.0871,-1.23659 0.10221,-0.3806 0.23233,-1.214 0.28914,-1.85196 0.17312,-1.94383 0.38729,-3.16343 0.55551,-3.16343 0.088,0 0.16034,-0.21354 0.16084,-0.47452 10e-4,-0.70619 0.24418,-7.6258 0.39037,-11.12475 0.2675,-6.40262 0.1613,-11.84508 -0.25215,-12.92253 -0.0664,-0.17304 -0.15035,-1.20358 -0.18654,-2.29005 -0.0684,-2.05362 -0.24053,-3.36354 -0.5367,-4.08438 -0.0953,-0.23198 -0.33262,-1.14252 -0.52734,-2.02341 -0.19472,-0.8809 -0.48555,-1.82993 -0.64629,-2.10896 -0.57492,-0.99805 -1.21849,-2.40851 -1.17837,-2.58257 0.0657,-0.28513 -0.97595,-2.36559 -1.3327,-2.66167 -0.17946,-0.14893 -0.32628,-0.44898 -0.32628,-0.66675 0,-0.21779 -0.0712,-0.39608 -0.15818,-0.39618 -0.087,-1.3e-4 -0.43346,-0.49837 -0.76993,-1.10721 -0.33648,-0.60886 -1.16559,-1.69058 -1.84249,-2.40387 -1.40369,-1.47914 -1.65415,-2.00374 -1.78615,-3.74125 -0.0519,-0.68311 -0.14485,-1.32371 -0.20655,-1.42355 -0.0617,-0.0999 -0.006,-0.18154 0.12359,-0.18154 0.12969,0 0.166,-0.11291 0.0807,-0.25092 -0.0853,-0.13803 -0.16906,-0.68941 -0.18614,-1.22534 -0.0171,-0.53593 -0.0896,-1.06903 -0.16102,-1.18467 -0.11606,-0.18778 -0.0691,-0.85719 0.0797,-1.13519 0.13599,-0.25413 0.0657,-3.93713 -0.071,-3.72077 -0.0838,0.13255 -0.13959,-0.37588 -0.12406,-1.12983 0.0369,-1.7931 -0.19468,-5.50395 -0.45656,-7.31525 -0.27119,-1.87569 -0.26845,-2.23229 0.0158,-2.05659 0.16834,0.10403 0.1688,0.0253 0.002,-0.28691 -0.17311,-0.32343 -0.16525,-0.45209 0.0317,-0.51838 0.20683,-0.0696 0.2051,-0.15705 -0.008,-0.41553 -0.17778,-0.21545 -0.29789,-1.25464 -0.35133,-3.03957 -0.0447,-1.49169 -0.18623,-3.75612 -0.31461,-5.03204 -0.12838,-1.27592 -0.27504,-2.93672 -0.32591,-3.69067 -0.0509,-0.75395 -0.14231,-1.84534 -0.20321,-2.42531 -0.0609,-0.57996 -0.12454,-1.51061 -0.14144,-2.06812 -0.0221,-0.72799 -0.10677,-0.98445 -0.30058,-0.91009 -0.2027,0.0778 -0.22764,-0.0436 -0.10024,-0.48781 0.18221,-0.63534 0.11514,-6.41187 -0.0781,-6.72451 -0.064,-0.10352 -0.0756,-0.39987 -0.0258,-0.65856 0.0498,-0.25869 -0.005,-2.09921 -0.123,-4.09003 -0.11747,-1.99083 -0.20602,-3.92099 -0.19677,-4.28923 0.009,-0.36826 -0.0821,-0.7307 -0.20305,-0.80544 -0.12093,-0.0747 -0.16184,-0.2298 -0.0909,-0.34457 0.0709,-0.11478 0.1236,-0.93862 0.11705,-1.83077 -0.0261,-3.55496 -0.40792,-18.96749 -0.48946,-19.75911 -0.012,-0.116 0.0381,-0.73286 0.11133,-1.37082 0.0732,-0.63796 0.0494,-1.51632 -0.0529,-1.95191 -0.11226,-0.47808 -0.10821,-0.84005 0.0102,-0.91324 0.10791,-0.0667 0.14358,-0.68458 0.0793,-1.37308 -0.12994,-1.39096 -0.3807,-7.40868 -0.3397,-8.1519 0.0841,-1.52491 0.014,-2.29262 -0.24793,-2.71657 -0.17736,-0.28697 -0.20587,-1.07038 -0.17933,-4.92839 0.006,-0.86995 -0.0401,-2.24605 -0.1025,-3.05799 -0.0624,-0.81195 -0.14635,-2.3984 -0.18663,-3.52545 -0.0403,-1.12705 -0.14326,-2.16246 -0.22883,-2.30092 -0.1964,-0.31777 -0.35445,-2.48314 -0.35594,-4.87658 -6e-4,-1.01494 -0.0888,-1.84534 -0.19587,-1.84534 -0.10708,0 -0.12303,-0.11596 -0.0355,-0.25769 0.0876,-0.14172 0.18442,-1.06702 0.21518,-2.05623 0.0307,-0.9892 0.10481,-2.13071 0.16456,-2.53669 0.0809,-0.54959 0.0598,-0.63039 -0.0825,-0.31634 -0.1569,0.34631 -0.19375,0.35798 -0.20592,0.0652 -0.008,-0.19614 0.0782,-0.4141 0.19185,-0.48435 0.12144,-0.0751 0.15042,-0.58027 0.0703,-1.2251 -0.075,-0.60355 -0.12784,-1.78653 -0.11736,-2.62884 0.0109,-0.87805 -0.0633,-1.48055 -0.17403,-1.41213 -0.10909,0.0674 -0.1999,-0.50487 -0.20875,-1.31562 -0.0397,-3.635081 -0.0313,-3.728011 0.36543,-4.037971 0.34797,-0.27189 0.34951,-0.28859 0.016,-0.17362 -0.45374,0.15638 -0.50043,-0.33159 -0.0662,-0.69196 0.23378,-0.19402 0.40943,-0.19432 0.77011,-0.001 0.40038,0.21428 0.44867,0.20165 0.33741,-0.0883 -0.0714,-0.1861 -0.0487,-0.31576 0.0505,-0.28815 0.0992,0.0276 0.35676,-0.13962 0.57238,-0.3716 0.77958,-0.83878 1.6068,-1.10599 3.82474,-1.23549 1.19203,-0.0696 2.3546,-0.22677 2.58347,-0.34926 0.22887,-0.12249 0.41613,-0.1603 0.41613,-0.084 0,0.0763 0.12736,0.033 0.28303,-0.0962 0.15566,-0.12919 0.34546,-0.17244 0.42178,-0.0961 0.0763,0.0763 0.13878,0.028 0.13878,-0.10727 0,-0.14576 0.33806,-0.24605 0.82937,-0.24605 0.64415,0 0.85927,-0.0942 0.96324,-0.42179 0.0855,-0.26951 0.31909,-0.42179 0.6469,-0.42179 0.28216,0 0.51303,-0.0998 0.51303,-0.22187 0,-0.12202 0.27702,-0.31843 0.61562,-0.43647 0.38913,-0.13565 0.74884,-0.49535 0.97772,-0.97768 0.19916,-0.41969 0.539,-0.95294 0.7552,-1.18501 0.21621,-0.23207 0.3931,-0.53625 0.3931,-0.67595 0,-0.13971 0.13019,-0.30397 0.2893,-0.36503 0.15912,-0.0611 0.48969,-0.52496 0.73461,-1.0309 0.24492,-0.50593 0.77604,-1.24908 1.18027,-1.65144 0.40423,-0.40235 0.73798,-0.88109 0.74166,-1.06386 0.004,-0.18277 0.24641,-0.55749 0.53938,-0.83273 0.67583,-0.63491 1.15448,-1.58865 1.15448,-2.30037 0,-0.30443 0.22445,-0.88107 0.49877,-1.28142 0.38785,-0.56601 0.44855,-0.80832 0.27299,-1.08945 -0.17025,-0.27261 -0.14428,-0.45524 0.10558,-0.74242 0.18227,-0.20947 0.39436,-0.64573 0.47135,-0.96945 0.077,-0.32372 0.21873,-0.5399 0.31502,-0.48039 0.0963,0.0595 0.14631,-0.15014 0.11118,-0.46589 -0.0351,-0.31575 0.0742,-0.85181 0.24295,-1.19127 0.16875,-0.33944 0.25045,-0.79478 0.18154,-1.01187 -0.0689,-0.21708 -0.0192,-0.52251 0.11045,-0.67872 0.12965,-0.15622 0.22115,-0.36519 0.20335,-0.4644 -0.0178,-0.0992 -0.01,-0.27527 0.0175,-0.39127 0.0274,-0.11598 0.0785,-0.4956 0.11364,-0.84358 0.15938,-1.58051 0.35316,-2.79461 0.54436,-3.41074 0.1142,-0.36801 0.24051,-1.14441 0.28067,-1.72534 0.0402,-0.58093 0.13591,-1.15797 0.21275,-1.28231 0.0768,-0.12433 0.077,-0.6443 4.3e-4,-1.15549 -0.0876,-0.58427 -0.0473,-1.07355 0.10854,-1.31748 0.2312,-0.36187 0.23989,-0.36241 0.12896,-0.008 -0.0654,0.20901 -0.0316,0.32605 0.0751,0.2601 0.10672,-0.066 0.1564,-0.52168 0.11039,-1.01271 -0.16477,-1.75844 -0.14614,-2.38428 0.10188,-3.42353 0.27041,-1.13312 0.33751,-5.01959 0.0935,-5.41445 -0.0921,-0.14893 -0.0537,-0.1812 0.10131,-0.0854 0.1827,0.11291 0.21048,-0.0334 0.10396,-0.54738 -0.0799,-0.38581 -0.13251,-2.12501 -0.11681,-3.8649 0.0297,-3.29516 -0.15813,-5.15113 -0.65109,-6.43232 -0.067,-0.17399 -0.16509,-1.0856 -0.2181,-2.02578 -0.053,-0.9402 -0.1941,-2.03158 -0.31356,-2.42531 -0.11946,-0.39372 -0.32573,-1.18809 -0.45839,-1.76527 -0.13265,-0.57717 -0.31861,-1.09914 -0.41324,-1.15992 -0.0946,-0.0608 -0.14775,-0.46049 -0.11806,-0.88824 0.0322,-0.46414 -0.0503,-0.81772 -0.20458,-0.87693 -0.27553,-0.10574 -1.07294,-3.04556 -0.87876,-3.23974 0.0633,-0.0633 -0.0303,-0.39638 -0.20807,-0.74012 -0.17775,-0.34374 -0.26779,-0.76934 -0.20009,-0.94577 0.0886,-0.231 0.0272,-0.28398 -0.21959,-0.18929 -0.29229,0.11216 -0.3225,0.0148 -0.20546,-0.66193 0.0952,-0.55034 0.0738,-0.69858 -0.0696,-0.48384 -0.35344,0.52899 -0.48363,2.7877 -0.2454,4.25765 0.17682,1.09104 0.1632,1.71061 -0.0611,2.78079 -0.21266,1.01448 -0.22677,1.44422 -0.0536,1.6324 0.12925,0.14047 0.14011,0.20314 0.0241,0.13924 -0.13847,-0.0763 -0.22457,2.42996 -0.25071,7.29768 -0.0648,12.06542 -0.28036,17.00629 -0.77701,17.80989 -0.0765,0.12379 -0.0411,0.28563 0.0787,0.35965 0.11977,0.074 0.16854,0.21426 0.10837,0.31161 -0.0602,0.0974 -0.16712,0.87375 -0.23767,1.72532 -0.0705,0.85157 -0.19456,2.13193 -0.27559,2.84525 -0.081,0.71332 -0.0736,1.49627 0.0166,1.73989 0.0935,0.25264 0.0784,0.44294 -0.035,0.44294 -0.10988,0 -0.14031,0.29257 -0.068,0.65404 0.0725,0.36254 0.0355,0.71501 -0.083,0.79085 -0.11757,0.0753 -0.2651,0.68785 -0.32783,1.36133 -0.12746,1.3683 -0.90088,3.08183 -1.84886,4.09617 -0.39326,0.42079 -0.52149,0.68866 -0.35606,0.74381 0.41361,0.13786 -0.85593,1.63633 -1.67702,1.97941 -1.39929,0.58465 -3.19197,-0.32928 -3.57476,-1.82247 -0.0743,-0.28998 -0.21614,-0.63084 -0.3151,-0.75748 -0.19543,-0.25006 -0.3578,-1.25999 -0.38036,-2.36568 -0.008,-0.40862 -0.10164,-0.64383 -0.22513,-0.56751 -0.11599,0.0717 -0.21816,0.0536 -0.22703,-0.0403 -0.009,-0.0938 -0.0479,-0.33663 -0.0868,-0.53953 -0.38693,-2.02101 -0.58803,-20.49464 -0.24163,-22.19693 0.0708,-0.34797 0.18578,-3.28997 0.2555,-6.53776 0.0697,-3.2478 0.13235,-6.09489 0.13917,-6.32687 0.0139,-0.47305 -0.16849,-1.99056 -0.4335,-3.60657 -0.0997,-0.6079 -0.0946,-1.29585 0.0117,-1.58172 0.10345,-0.27824 0.14404,-0.73835 0.0902,-1.02246 -0.0539,-0.28411 -0.0149,-0.7349 0.0866,-1.00176 0.10606,-0.27892 0.10543,-0.48519 -0.001,-0.48519 -0.10226,0 -0.1392,-0.17872 -0.0821,-0.39715 0.0572,-0.21844 -0.0429,-0.68092 -0.22222,-1.02774 -0.17935,-0.34683 -0.26439,-0.69229 -0.18898,-0.76769 0.23387,-0.23387 0.0574,-2.28626 -0.29643,-3.44888 -0.42097,-1.38295 -0.92498,-1.47831 -1.53134,-0.28973 -0.22938,0.44961 -0.36834,0.86617 -0.30882,0.9257 0.0596,0.0595 -0.0513,0.71187 -0.24626,1.44966 -0.23739,0.89831 -0.37724,2.42123 -0.42338,4.61031 -0.0379,1.79789 -0.12391,3.79085 -0.19117,4.42881 -0.0672,0.63796 -0.16571,2.96309 -0.21881,5.16695 -0.0531,2.20385 -0.18955,4.71879 -0.30323,5.58873 -0.11368,0.86995 -0.21207,2.53075 -0.21864,3.69068 -0.0112,1.98341 -0.2012,4.47384 -0.563,7.38135 -0.0866,0.69595 -0.12909,2.83127 -0.0944,4.74515 0.0347,1.91388 0.0683,4.04919 0.0747,4.74515 0.017,1.84158 -0.2919,5.44784 -0.48814,5.69954 -0.0927,0.11893 -0.22418,0.6793 -0.29212,1.24525 -0.21429,1.78513 -1.64703,4.05114 -3.97633,6.28892 -1.12908,1.08471 -1.35601,1.21265 -2.15092,1.21265 -0.67529,0 -1.08553,-0.15631 -1.70853,-0.65098 -1.3428,-1.0662 -1.63965,-1.70847 -1.60372,-3.46981 0.0216,-1.05728 -0.0506,-1.56526 -0.23246,-1.63502 -0.1687,-0.0647 -0.24267,-0.43286 -0.20526,-1.02154 0.0322,-0.50619 -0.0259,-1.11015 -0.12919,-1.34214 -0.55975,-1.25808 -0.92131,-7.50681 -0.45117,-7.79737 0.10967,-0.0678 0.11236,-0.38468 0.006,-0.75415 -0.10052,-0.35049 -0.14247,-1.51177 -0.0932,-2.58063 0.0493,-1.06886 0.14571,-3.12967 0.21434,-4.57958 0.0686,-1.44991 0.16303,-6.90683 0.20979,-12.1265 0.0947,-10.57318 0.15813,-12.58221 0.49049,-15.53704 0.2828,-2.51409 0.0847,-3.77089 -0.72822,-4.61936 -0.32506,-0.33929 -0.47833,-0.61686 -0.34064,-0.61686 0.13769,0 0.25035,-0.0957 0.25035,-0.21268 0,-0.12578 -0.17606,-0.10423 -0.43084,0.0527 -0.24639,0.15178 -0.3918,0.41759 -0.33965,0.62086 0.0502,0.19549 -0.019,0.39774 -0.15377,0.44944 -0.13473,0.0517 -0.26671,0.35667 -0.29328,0.67771 -0.0265,0.32104 -0.14209,0.6967 -0.25671,0.83482 -0.47651,0.57415 -1.24669,3.4464 -1.12508,4.19578 0.0678,0.41752 0.0265,0.87856 -0.0917,1.02454 -0.62595,0.77295 -1.11569,20.81475 -0.69704,28.52542 0.30844,5.68095 0.45635,12.5482 0.27028,12.54872 -0.0831,2.1e-4 -0.17182,1.21024 -0.1972,2.68891 -0.0488,2.84551 -0.32515,4.51095 -0.81597,4.91829 -0.16379,0.13594 -0.29781,0.45864 -0.29781,0.71711 0,0.72191 -0.43779,1.81327 -0.66985,1.66984 -0.12775,-0.0789 -0.16306,0.14839 -0.0922,0.59398 0.12204,0.76791 -0.17566,1.20389 -1.74885,2.56122 -0.63478,0.54767 -0.79429,0.58933 -1.78338,0.46576 -0.86919,-0.1086 -1.26507,-0.30084 -1.98119,-0.96209 -0.49222,-0.4545 -0.89494,-0.93382 -0.89494,-1.06518 0,-0.13135 -0.17871,-0.466 -0.39713,-0.74368 -0.21842,-0.27768 -0.4644,-1.04334 -0.54663,-1.70149 -0.0888,-0.71046 -0.21633,-1.08852 -0.31397,-0.93054 -0.15569,0.25192 -1.00655,-2.19395 -1.02282,-2.94016 -0.004,-0.17399 -0.11484,-0.93237 -0.24679,-1.68529 -0.13194,-0.75293 -0.18704,-1.84432 -0.12245,-2.42531 0.0816,-0.73346 0.0578,-0.92742 -0.0778,-0.63455 -0.22086,0.47704 -0.24852,0.21899 -0.35046,-3.26888 -0.0322,-1.10194 -0.11565,-2.85764 -0.18544,-3.90158 -0.18408,-2.75336 -0.17898,-2.88551 0.11865,-3.06946 0.19633,-0.12134 0.20846,-0.24408 0.0442,-0.44696 -0.12457,-0.15384 -0.21337,-0.73056 -0.19734,-1.28162 0.016,-0.55105 -0.0326,-1.00184 -0.10822,-1.00175 -0.0756,8e-5 -0.19861,-1.11495 -0.27348,-2.47786 -0.0749,-1.36292 -0.18262,-3.0949 -0.23946,-3.84885 -0.45185,-5.99306 -0.49448,-9.17177 -0.21353,-15.92263 0.14733,-3.54031 0.40364,-6.75678 0.54617,-6.85411 0.0849,-0.058 0.0708,-0.76977 -0.0313,-1.58171 -0.10217,-0.81195 -0.13627,-1.68399 -0.0758,-1.93786 0.0605,-0.25388 0.005,-0.52672 -0.12419,-0.60633 -0.16231,-0.10031 -0.16578,-0.18701 -0.0114,-0.28247 0.1561,-0.0965 0.15339,-0.42024 -0.009,-1.08085 -0.12756,-0.5187 -0.26065,-0.97812 -0.29575,-1.02093 -0.0955,-0.1165 -0.7166,0.54576 -0.7166,0.76414 0,0.10406 -0.21678,0.39286 -0.48174,0.64178 -0.30231,0.284 -0.46999,0.6708 -0.45018,1.03851 0.0173,0.32227 -0.0697,0.77575 -0.19353,1.00774 -0.12379,0.23198 -0.25064,0.51669 -0.28187,0.63268 -0.41975,1.55889 -0.62414,2.13369 -0.80344,2.25952 -0.12344,0.0866 -0.19663,0.93351 -0.17236,1.99461 0.0235,1.0287 -0.0545,1.96047 -0.17633,2.10733 -0.12018,0.1448 -0.16134,0.35579 -0.0915,0.46884 0.0699,0.11306 0.0306,0.26518 -0.0873,0.33803 -0.11788,0.0729 -0.21434,0.44445 -0.21434,0.82575 0,0.38131 -0.14826,0.99049 -0.32946,1.35372 -0.42593,0.8538 -0.4637,1.11964 -0.59827,4.21113 -0.0621,1.4258 -0.17497,2.6929 -0.25091,2.81578 -0.37116,0.60054 -0.53796,4.17371 -0.54004,11.56898 -0.002,8.44172 0.0666,10.42358 0.43675,12.54829 0.32177,1.84697 0.66843,5.11318 0.67072,6.31939 10e-4,0.57585 0.0978,1.16244 0.21488,1.30353 0.1171,0.14109 0.26774,0.78784 0.33476,1.43721 0.067,0.64937 0.19905,1.22839 0.2934,1.28669 0.0944,0.0583 0.11762,0.24655 0.0517,0.4183 -0.0659,0.17175 -0.028,0.4297 0.0842,0.57321 0.11223,0.14351 0.31745,0.73545 0.45603,1.31541 0.13859,0.57996 0.43828,1.55971 0.66598,2.17721 0.2277,0.6175 0.36833,1.19661 0.31253,1.2869 -0.0558,0.0903 0.0853,0.53045 0.31349,0.9781 0.22823,0.44766 0.41496,0.93937 0.41496,1.09268 0,0.36387 0.98553,2.3062 1.25451,2.47243 0.11443,0.0707 0.49984,0.73998 0.85648,1.48724 0.40772,0.85432 0.93527,1.57541 1.42117,1.94258 0.42501,0.32116 1.02854,0.8492 1.34118,1.17344 0.37361,0.38747 0.59888,0.49817 0.65726,0.32301 0.0603,-0.18084 0.21761,-0.11612 0.48943,0.20134 0.37586,0.43898 1.7427,0.70341 1.4856,0.28741 -0.1226,-0.19836 0.9091,-0.0591 1.24654,0.16823 0.116,0.0782 0.44816,0.10793 0.73814,0.0662 0.28998,-0.0418 1.07582,-0.08 1.74631,-0.0851 0.99592,-0.007 1.35043,0.091 1.93671,0.53822 0.39471,0.30106 0.83101,0.54737 0.96956,0.54737 0.1758,0 0.21116,0.25492 0.11703,0.84359 -0.10628,0.66462 -0.0687,0.84358 0.17691,0.84358 0.1715,0 0.63064,0.31883 1.02032,0.70852 0.74724,0.74722 0.8296,1.150451 0.83531,4.089351 0.001,0.60897 0.0947,1.10721 0.20779,1.10721 0.1131,0 0.15191,0.14003 0.0862,0.31117 -0.0657,0.17115 0.0181,0.64025 0.18613,1.04243 0.16805,0.40219 0.3433,1.25978 0.38945,1.90575 0.0462,0.64597 0.18423,1.29536 0.30684,1.44309 0.1226,0.14772 0.22291,1.00125 0.22291,1.89672 0,0.89547 0.0486,1.70681 0.10805,1.80297 0.12175,0.19699 0.30292,2.74106 0.3591,5.04247 0.0205,0.84094 0.11889,1.52899 0.21859,1.52899 0.25767,0 0.22497,1.42235 -0.0442,1.92541 -0.15411,0.28797 -0.15724,0.5037 -0.01,0.68128 0.11862,0.14293 0.21231,0.58765 0.20819,0.98827 -0.0198,1.92422 0.23737,5.65509 0.42348,6.1446 0.22113,0.58161 0.0992,1.43791 -0.20477,1.43791 -0.0996,0 -0.077,0.26099 0.0502,0.57997 0.12719,0.31898 0.26269,1.9086 0.30112,3.5325 0.0384,1.6239 0.13936,3.2847 0.22428,3.69067 0.0849,0.40598 0.17345,1.26011 0.19672,1.89807 0.0419,1.14978 0.16452,2.6142 0.40602,4.8506 0.0689,0.63796 0.16465,2.39366 0.2128,3.90157 0.11252,3.52366 0.28828,5.56571 0.5156,5.99046 0.19829,0.37051 0.4016,2.95497 0.54076,6.87418 0.1461,4.11452 0.44491,8.1336 0.66966,9.00693 0.0684,0.26586 0.10155,0.76809 0.0736,1.11606 -0.0592,0.73763 -0.055,1.27137 0.0422,5.37784 0.0398,1.6819 0.17381,3.24779 0.29776,3.47978 0.12395,0.23198 0.23825,0.83049 0.25401,1.33 0.0158,0.49951 0.12403,1.08642 0.2406,1.30423 0.11657,0.21781 0.21195,0.63952 0.21195,0.93713 0,0.29761 0.0831,0.5411 0.18464,0.5411 0.10155,0 0.19355,0.40334 0.20445,0.89631 0.0109,0.49297 0.0671,1.37082 0.12484,1.95079 0.0577,0.57996 0.15286,2.09841 0.21132,3.37433 0.0585,1.27592 0.16474,3.31634 0.23617,4.53426 0.14191,2.41957 0.16595,3.41144 0.10222,4.21791 -0.0468,0.59234 0.16478,2.1423 0.31261,2.29014 0.053,0.053 6e-4,0.21172 -0.11638,0.3527 -0.26522,0.31957 -0.42658,2.02812 -0.17698,1.87385 0.20531,-0.12687 0.24288,0.33454 0.22471,2.75921 -0.0619,8.25417 -0.0586,10.64212 0.0191,14.13002 0.0491,2.20386 0.0254,4.5018 -0.0527,5.10654 -0.10123,0.78403 -0.0679,1.12796 0.11631,1.19865 0.18749,0.0719 0.20788,0.32339 0.0744,0.91748 -0.10113,0.45009 -0.10925,1.09699 -0.0181,1.43755 0.0912,0.34055 0.0833,1.04625 -0.0175,1.56822 -0.10086,0.52197 -0.1258,1.35176 -0.0554,1.84398 0.20881,1.46042 -0.9573,2.86973 -1.52909,1.848 -0.1375,-0.24569 -0.31388,-0.27069 -0.80134,-0.11357 -0.34377,0.11081 -1.14319,0.35591 -1.7765,0.54468 -1.2529,0.37348 -1.7977,0.85409 -2.25907,1.99288 -0.16448,0.40598 -0.38713,0.92794 -0.49478,1.15993 -0.34877,0.75159 -0.86907,2.30095 -1.03236,3.07424 -0.0876,0.4149 -0.214,0.84289 -0.28086,0.95106 -0.0668,0.10819 -0.18091,1.22859 -0.25347,2.48984 -0.0726,1.26122 -0.21146,2.44658 -0.30869,2.63415 -0.0972,0.18755 -0.18348,1.0549 -0.19165,1.92744 -0.008,0.87251 -0.11897,2.05091 -0.2462,2.61865 -0.12723,0.56773 -0.28366,1.98914 -0.34763,3.15873 -0.064,1.16958 -0.14115,2.36376 -0.17153,2.65374 -0.0304,0.28998 0.0318,0.76252 0.13822,1.05009 0.12762,0.34488 0.11778,0.54808 -0.0289,0.59699 -0.13512,0.045 -0.15299,0.21224 -0.0455,0.42618 0.0972,0.19362 0.14764,1.20617 0.11198,2.25011 -0.0357,1.04393 -0.0784,2.89454 -0.0951,4.11246 -0.0191,1.40206 -0.11886,2.27125 -0.27184,2.36935 -0.13289,0.0852 -0.14671,0.15636 -0.0307,0.15809 0.26192,0.004 0.23418,4.91649 -0.0283,5.00384 -0.10045,0.0334 -0.15699,1.17593 -0.12564,2.5389 0.0825,3.58555 0.0451,7.9017 -0.0701,8.08807 -0.0546,0.0883 -0.0117,0.21463 0.0953,0.28077 0.107,0.0661 0.14919,0.29367 0.0937,0.50566 -0.0554,0.21197 0.0577,0.99484 0.25157,1.73968 0.19379,0.74484 0.3779,1.4966 0.40911,1.67059 0.0312,0.17398 0.13259,0.69595 0.22527,1.15992 0.0927,0.46397 0.15013,0.95507 0.12767,1.0913 -0.0225,0.13624 0.0566,0.30793 0.17566,0.38152 0.11906,0.0736 0.21648,0.48967 0.21648,0.92462 0,0.43496 0.13934,0.97504 0.30964,1.20021 0.1703,0.22515 0.31265,0.60179 0.31635,0.83696 0.004,0.23517 0.13489,0.61479 0.29158,0.84358 0.15668,0.2288 0.34381,0.6591 0.41584,0.95622 0.072,0.29714 0.36549,0.81318 0.65214,1.14677 0.28665,0.3336 0.48018,0.67289 0.43007,0.75397 -0.0501,0.0811 0.0491,0.26386 0.22058,0.40613 0.17143,0.14227 0.27122,0.32419 0.22175,0.40422 -0.0495,0.0801 0.23366,0.49877 0.62917,0.9305 0.3955,0.43172 0.72174,0.83 0.72495,0.88504 0.003,0.0551 0.006,0.22791 0.006,0.38417 0,0.15623 0.19932,0.51212 0.44294,0.79085 0.24361,0.27872 0.71398,1.04156 1.04525,1.69514 0.33127,0.65361 0.72709,1.31793 0.87958,1.47627 0.1525,0.15837 0.57893,0.76244 0.94764,1.3424 0.3687,0.57996 1.49322,1.80676 2.49891,2.72623 2.52399,2.30757 3.60297,2.46467 4.45155,0.6481 z m -9.27821,-146.29571 c -0.0673,-0.16824 -0.1173,-0.11827 -0.12742,0.12742 -0.009,0.22231 0.0407,0.34687 0.11077,0.2768 0.0701,-0.0701 0.0776,-0.25198 0.0166,-0.40422 z m 4.21791,-30.15809 c -0.0673,-0.16824 -0.11729,-0.11827 -0.12742,0.12742 -0.009,0.22232 0.0407,0.34688 0.11077,0.2768 0.0701,-0.0701 0.0776,-0.25198 0.0166,-0.40422 z m 7.59224,-67.064831 c -0.0673,-0.16824 -0.11729,-0.11826 -0.12741,0.12742 -0.009,0.22231 0.0407,0.34688 0.11077,0.2768 0.0701,-0.0701 0.0776,-0.25198 0.0166,-0.40422 z m 0,-11.81016 c -0.0673,-0.16824 -0.11729,-0.11827 -0.12741,0.12742 -0.009,0.22231 0.0407,0.34687 0.11077,0.2768 0.0701,-0.0701 0.0776,-0.25198 0.0166,-0.40422 z m -31.25118,-30.75123 c 0.0717,-0.11599 0.0298,-0.2109 -0.093,-0.2109 -0.12284,0 -0.22334,0.0949 -0.22334,0.2109 0,0.11599 0.0419,0.2109 0.093,0.2109 0.0512,0 0.15166,-0.0949 0.22334,-0.2109 z m 39.2266,230.087221 c -0.0717,-0.116 -0.0298,-0.2109 0.093,-0.2109 0.12284,0 0.22335,0.0949 0.22335,0.2109 0,0.11599 -0.0419,0.21089 -0.093,0.21089 -0.0512,0 -0.15166,-0.0949 -0.22335,-0.21089 z"
       inkscape:label="fork" /></g></svg>
