<?xml version="1.0" encoding="UTF-8" standalone="no"?>
<!-- Created with Inkscape (http://www.inkscape.org/) -->

<svg
   width="182.75243mm"
   height="139.3947mm"
   viewBox="0 0 182.75243 139.3947"
   version="1.1"
   id="svg5"
   xml:space="preserve"
   xmlns:inkscape="http://www.inkscape.org/namespaces/inkscape"
   xmlns:sodipodi="http://sodipodi.sourceforge.net/DTD/sodipodi-0.dtd"
   xmlns="http://www.w3.org/2000/svg"
   xmlns:svg="http://www.w3.org/2000/svg"><sodipodi:namedview
     id="namedview7"
     pagecolor="#ffffff"
     bordercolor="#666666"
     borderopacity="1.0"
     inkscape:showpageshadow="2"
     inkscape:pageopacity="0.0"
     inkscape:pagecheckerboard="0"
     inkscape:deskcolor="#d1d1d1"
     inkscape:document-units="mm"
     showgrid="false" /><defs
     id="defs2" /><g
     inkscape:label="Layer 1"
     inkscape:groupmode="layer"
     id="layer1"
     transform="translate(-357.82064,-438.62851)"><path
       id="path1932"
       style="fill:#000000;stroke-width:0.352778"
       d="m 452.40266,577.72493 c -0.39479,-0.16002 -0.93017,-0.54684 -1.18972,-0.85958 -0.25956,-0.31275 -0.94443,-0.56863 -1.52194,-0.56863 -0.57751,0 -1.55026,-0.22416 -2.16167,-0.49814 -0.6114,-0.27398 -1.93499,-0.75963 -2.9413,-1.07924 -1.00631,-0.3196 -1.90659,-0.77012 -2.00062,-1.00116 -0.12126,-0.29795 -0.17907,-0.28582 -0.19882,0.0417 -0.0153,0.25399 -0.19976,0.35555 -0.40987,0.22569 -0.2101,-0.12985 -0.96417,-0.28178 -1.67569,-0.33762 -0.71153,-0.0558 -2.00805,-0.28538 -2.88118,-0.51009 -0.87313,-0.22472 -2.17386,-0.55719 -2.89053,-0.73884 -0.71667,-0.18165 -2.10446,-0.64617 -3.08398,-1.03226 -0.97953,-0.38609 -2.85379,-0.84552 -4.16503,-1.02095 -1.31124,-0.17543 -3.24095,-0.64938 -4.28825,-1.05322 -1.04729,-0.40384 -2.02285,-0.66091 -2.16789,-0.57127 -0.14505,0.0896 -0.34988,-0.0615 -0.45519,-0.33595 -0.13485,-0.35142 -1.1359,-0.57283 -3.38571,-0.74883 -3.50375,-0.27409 -3.79655,-0.43922 -5.82103,-3.28287 -0.5687,-0.79882 -1.10242,-1.38398 -1.18604,-1.30036 -0.0836,0.0836 -0.99272,-0.3224 -2.0202,-0.90228 -1.6207,-0.91466 -2.18792,-1.04599 -4.28202,-0.99138 -1.32762,0.0346 -2.85337,-0.11445 -3.39055,-0.33127 -0.94893,-0.383 -3.23127,-2.52462 -6.73071,-6.31571 -0.94029,-1.01865 -1.86518,-1.85208 -2.05532,-1.85208 -0.19014,0 -0.82197,-0.47625 -1.40405,-1.05834 -1.11177,-1.11177 -1.45348,-1.16891 -4.44364,-0.74305 -1.01865,0.14508 -1.85208,0.1335 -1.85208,-0.0258 0,-0.15924 -0.35719,-0.29029 -0.79375,-0.29122 -1.28068,-0.003 -3.33052,-2.17505 -4.08915,-4.33351 -0.56056,-1.5949 -0.6171,-2.2319 -0.32792,-3.69444 0.32875,-1.66264 0.29279,-1.83083 -0.60737,-2.84111 -0.52624,-0.59061 -1.13899,-1.01015 -1.36167,-0.93231 -0.61965,0.21661 -1.36682,-0.51334 -3.00358,-2.93436 -0.82316,-1.21759 -1.62878,-2.13215 -1.79025,-2.03235 -0.16148,0.0998 -0.48977,-0.0549 -0.72954,-0.34384 -0.23977,-0.2889 -0.29744,-0.5301 -0.12816,-0.53601 0.16927,-0.006 0.0151,-0.18086 -0.34264,-0.3888 -0.51455,-0.2991 -1.49408,-1.97613 -1.82716,-3.12825 -0.0897,-0.31016 -0.88884,-1.91383 -1.36142,-2.73193 -0.25152,-0.43542 -0.5706,-0.67838 -0.70906,-0.53992 -0.13845,0.13845 -0.15522,2.3e-4 -0.0373,-0.30716 0.13813,-0.35996 -0.1622,-0.87584 -0.84374,-1.44932 -0.58201,-0.48973 -0.97748,-0.97115 -0.87881,-1.06981 0.0987,-0.0987 0.1934,-0.67195 0.21051,-1.27396 0.0258,-0.90881 0.17356,-1.09456 0.87045,-1.09456 0.47418,0 0.94212,0.26858 1.0756,0.61736 0.12995,0.33955 0.89312,1.49048 1.69593,2.55764 0.80282,1.06715 1.84245,2.71744 2.31029,3.66732 0.87025,1.76692 4.51685,5.85768 5.22167,5.85768 0.21531,0 0.39148,-0.32066 0.39148,-0.71257 0,-0.39191 0.40272,-1.35051 0.89492,-2.13022 0.8487,-1.34442 0.96259,-1.40544 2.20486,-1.18128 0.72047,0.13001 1.57732,0.37423 1.90411,0.54272 1.06557,0.54939 1.62188,0.328 2.63851,-1.05003 0.97372,-1.31988 1.03509,-1.34599 2.28007,-0.97014 1.42142,0.42911 3.83586,2.39745 3.83586,3.12713 0,0.7047 -0.75023,1.31605 -1.61502,1.31605 -0.4226,0 -0.98616,0.32659 -1.25236,0.72577 l -0.484,0.72576 -1.6757,-0.89223 c -1.5272,-0.81316 -1.67569,-0.83542 -1.67569,-0.25127 0,0.87151 -1.17301,1.86933 -2.27221,1.93287 -0.50411,0.0291 -0.90241,0.26583 -0.90254,0.53633 -1.9e-4,0.36068 -0.11885,0.38573 -0.46527,0.0982 -0.34286,-0.28456 -0.66668,-0.24468 -1.23274,0.15181 l -0.76774,0.53774 0.96817,0.85218 c 0.5663,0.49845 0.76719,0.8568 0.48399,0.86332 -0.79715,0.0183 0.16237,0.93444 2.2012,2.10155 0.99591,0.57011 2.2716,1.51797 2.83487,2.10636 0.56327,0.5884 1.15858,0.98672 1.32291,0.88516 0.16434,-0.10157 0.2988,-0.0165 0.2988,0.18893 0,0.20547 0.21045,0.37359 0.46767,0.37359 0.25722,0 0.84052,0.39688 1.29622,0.88195 0.4557,0.48507 0.99931,0.88194 1.20802,0.88194 0.42421,0 0.46038,-1.61997 0.0565,-2.53198 -0.48148,-1.08732 -0.0892,-2.22212 0.81222,-2.34958 0.46313,-0.0655 0.93938,0.0153 1.05833,0.17949 0.11896,0.1642 0.99783,0.69403 1.95305,1.1774 2.19548,1.11097 2.96261,2.16074 3.35437,4.59028 0.24286,1.50617 0.19184,2.18896 -0.23104,3.09215 -0.29851,0.63752 -0.48226,1.20961 -0.40836,1.27129 0.0739,0.0617 0.88908,0.54771 1.81149,1.08007 0.92241,0.53236 1.97714,1.34934 2.34383,1.81551 0.36669,0.46618 0.8177,0.8476 1.00224,0.8476 0.18454,0 0.63794,0.33465 1.00756,0.74368 1.26591,1.40088 5.00586,2.96762 7.79699,3.26633 0.81428,0.0871 1.62163,0.24566 1.79411,0.35226 0.17249,0.10661 0.77626,0.0555 1.34172,-0.11362 0.56546,-0.1691 0.82967,-0.3211 0.58713,-0.33778 -0.24253,-0.0167 -0.44097,-0.31607 -0.44097,-0.66532 0,-0.34925 -0.14304,-0.78581 -0.31788,-0.97014 -0.5888,-0.62076 -0.71152,-3.11844 -0.19848,-4.0393 0.27025,-0.48507 0.49699,-0.68351 0.50386,-0.44098 0.007,0.24254 0.38509,0.44098 0.84047,0.44098 1.10007,0 2.18387,1.02354 2.24128,2.11666 0.0255,0.48507 0.10688,1.37488 0.1809,1.97736 0.0973,0.7916 -0.006,1.08513 -0.37328,1.05833 -0.27933,-0.0204 -0.56018,0.12167 -0.6241,0.3157 -0.18152,0.55097 2.41133,1.5875 3.97108,1.5875 1.25767,0 1.46834,0.1295 1.98991,1.22324 0.32082,0.67278 1.18366,1.60628 1.91742,2.07446 0.73375,0.46817 1.73098,1.28072 2.21605,1.80568 1.72984,1.87207 4.346,2.76968 8.90782,3.05627 2.27992,0.14324 5.2546,0.53005 6.61038,0.85957 2.64434,0.64271 3.5318,0.41419 3.5318,-0.90944 0,-1.1386 1.17015,-2.14737 2.73425,-2.35716 2.37935,-0.31914 3.35678,1.23513 1.27458,2.02679 -0.61589,0.23416 -0.83383,0.58838 -0.83383,1.35523 0,2.03831 0.91034,3.01464 1.12309,1.2045 0.0886,-0.7536 0.36663,-1.01481 1.34635,-1.26478 0.6791,-0.17326 1.50488,-0.5573 1.83507,-0.85341 0.47571,-0.42662 1.26302,-0.50543 3.79236,-0.37963 3.3663,0.16744 3.31955,0.19051 3.20272,-1.58035 -0.0439,-0.66584 0.13833,-1.03619 0.57998,-1.17852 0.35422,-0.11414 0.98231,-0.36859 1.39575,-0.56544 1.12545,-0.53585 2.13723,-0.0457 2.97214,1.43981 0.74634,1.32793 0.75056,1.32977 2.39246,1.03728 2.10535,-0.37504 2.12115,-0.38026 3.58508,-1.18468 2.14352,-1.17786 2.96058,-1.45963 4.37834,-1.50993 1.91942,-0.0681 4.81508,-1.01284 7.35224,-2.39878 0.53398,-0.29169 1.12747,-0.43355 1.31888,-0.31526 0.20632,0.12752 0.25343,-0.0314 0.11571,-0.39028 -0.16414,-0.42775 -0.10332,-0.52564 0.20732,-0.33366 0.2674,0.16527 0.97374,-0.15754 1.80315,-0.82407 0.74995,-0.60268 1.62157,-1.09577 1.93693,-1.09577 0.31537,0 1.11156,-0.41049 1.76933,-0.91219 0.65777,-0.5017 1.36155,-0.80983 1.56396,-0.68473 0.2027,0.12527 0.37307,-0.0592 0.37924,-0.41073 0.015,-0.85565 0.82168,-1.87291 1.48512,-1.87291 0.29514,0 1.02165,-0.4961 1.61446,-1.10245 0.88463,-0.90482 1.04135,-1.30007 0.87423,-2.20486 -0.11199,-0.60633 -0.221,-1.89616 -0.24224,-2.8663 -0.037,-1.68876 0.004,-1.76879 0.96906,-1.87914 0.58237,-0.0666 0.91903,0.0282 0.79764,0.22461 -0.29054,0.4701 0.72155,1.24651 1.32367,1.01545 0.27067,-0.10387 0.70832,-0.67726 0.97255,-1.27419 0.26423,-0.59694 0.606,-1.08534 0.75949,-1.08534 0.15349,0 0.10915,-0.3175 -0.0985,-0.70555 -0.20768,-0.38806 -0.70929,-0.70556 -1.11468,-0.70556 -0.42145,0 -1.46898,-0.75536 -2.44617,-1.76389 -0.94,-0.97014 -1.84302,-1.76389 -2.00672,-1.76389 -0.16371,0 -0.73919,0.46088 -1.27886,1.02417 -0.85611,0.89359 -1.1198,0.98442 -2.06814,0.71244 -0.59781,-0.17145 -1.57502,-0.34573 -2.17159,-0.38729 -1.48713,-0.10359 -2.94971,-1.65476 -2.81349,-2.98388 0.15411,-1.50351 2.11025,-3.03913 3.49037,-2.74001 0.58337,0.12643 1.14005,0.34058 1.23706,0.47587 0.33764,0.47089 1.38999,0.69051 1.60919,0.33583 0.26508,-0.4289 -0.909,-3.4027 -2.74153,-6.94399 -1.30691,-2.52554 -1.3241,-2.60755 -0.72062,-3.43745 0.34003,-0.4676 0.85636,-0.8587 1.1474,-0.86911 0.68896,-0.0247 -0.93118,-1.33465 -2.0103,-1.62548 -0.42657,-0.11496 -0.90282,-0.55799 -1.05833,-0.98452 -0.47561,-1.30443 -3.78472,-6.16528 -4.21376,-6.18972 -0.49239,-0.028 -0.9479,-1.0813 -0.46765,-1.0813 0.18794,0 0.34171,-0.15339 0.34171,-0.34086 0,-0.18747 -0.88117,0.14275 -1.95817,0.73381 -1.74005,0.95495 -2.22637,1.06168 -4.36609,0.95821 -1.6066,-0.0777 -2.54448,0.0303 -2.81824,0.32453 -0.5733,0.61614 -2.37974,0.55549 -2.62674,-0.0882 -0.11168,-0.29104 -0.45175,-0.52917 -0.75571,-0.52917 -1.04244,0 -2.28696,-1.13698 -2.67983,-2.44828 -0.33508,-1.11838 -0.28873,-1.51623 0.31399,-2.69509 0.38891,-0.76066 1.18531,-1.80801 1.7698,-2.32743 0.58448,-0.51943 1.19612,-1.15489 1.3592,-1.41214 0.47882,-0.75531 4.39468,-3.23766 6.11735,-3.87791 0.87312,-0.32451 2.41595,-0.60233 3.42851,-0.61736 1.48961,-0.0221 1.80203,-0.12893 1.63678,-0.55956 -0.11232,-0.29271 -0.56838,-0.6236 -1.01346,-0.73531 -0.44508,-0.11171 -1.41975,-1.01094 -2.16595,-1.9983 -0.74619,-0.98735 -2.06949,-2.5159 -2.94065,-3.39677 -0.989,-1.00003 -1.54136,-1.85285 -1.47059,-2.27056 0.0623,-0.36793 -0.0414,-0.57334 -0.23053,-0.45646 -0.18912,0.11689 -0.45556,-0.22295 -0.59208,-0.75518 -0.36096,-1.40715 -0.21913,-7.11423 0.19608,-7.89006 0.22786,-0.42576 0.23114,-0.66237 0.009,-0.66237 -0.18991,0 0.11222,-0.50092 0.67141,-1.11315 0.97601,-1.06859 1.05108,-1.09062 1.87553,-0.55042 0.63345,0.41505 0.81532,0.79031 0.69305,1.42993 -0.13344,0.69808 0.0964,1.04536 1.17834,1.78057 1.66522,1.13154 2.18009,0.78116 1.61647,-1.10005 -0.38664,-1.29052 -2.7875,-3.97466 -3.55517,-3.97466 -0.42087,0 -0.10042,-1.1121 0.42125,-1.46189 0.40762,-0.27332 1.67354,0.25873 3.62743,1.52457 1.49181,0.96646 4.21535,4.63194 3.86403,5.20039 -0.10916,0.17662 -0.0784,0.37436 0.0683,0.43944 0.14673,0.0651 0.74303,1.07083 1.32511,2.23499 0.90824,1.81649 1.21,2.13153 2.12777,2.22147 0.78591,0.077 1.30032,-0.14215 1.94028,-0.82663 0.84735,-0.9063 0.86896,-1.06323 0.80098,-5.81777 -0.0838,-5.86162 -0.84864,-10.2136 -2.15324,-12.25199 -1.22938,-1.92086 -2.40515,2.31157 -1.29315,4.65495 0.32971,0.69481 0.70334,2.59915 0.8303,4.23187 0.20737,2.66697 0.15706,3.0611 -0.49514,3.87904 -0.39928,0.50075 -0.85376,0.91045 -1.00995,0.91045 -0.15619,0 -0.2296,-0.87334 -0.16314,-1.94075 0.0665,-1.06742 0.0348,-1.94055 -0.0704,-1.94028 -0.10518,2.6e-4 -0.20576,-0.43608 -0.22352,-0.96966 -0.0342,-1.02967 -0.22156,-2.26528 -0.80942,-5.33982 -0.19983,-1.04513 -0.36333,-3.02349 -0.36333,-4.39637 0,-2.44085 -0.0315,-2.52825 -1.42314,-3.9462 -0.9916,-1.01037 -1.48951,-1.87019 -1.64205,-2.83557 -0.1204,-0.76204 -0.38265,-1.49251 -0.58276,-1.62328 -0.20348,-0.13296 0.18729,-0.56294 0.88655,-0.97551 1.05468,-0.62228 1.22322,-0.88876 1.07681,-1.70252 -0.15826,-0.87959 -2.19122,-3.97451 -3.95555,-6.02181 -0.39042,-0.45305 -0.70986,-1.04316 -0.70986,-1.31136 0,-0.75908 -4.95658,-5.57555 -6.46999,-6.2871 -0.82488,-0.38783 -2.34256,-0.67005 -3.88055,-0.7216 -1.38922,-0.0466 -2.91379,-0.29251 -3.38793,-0.54652 -0.47414,-0.25401 -1.82352,-0.44399 -2.99861,-0.42217 -2.78169,0.0516 -6.25675,-0.59566 -6.79397,-1.26549 -0.25703,-0.32049 -0.74344,-0.45416 -1.23472,-0.33932 -0.44584,0.10421 -1.2075,0.28574 -1.69257,0.4034 -0.48507,0.11767 -2.78694,0.46262 -5.11527,0.76657 -3.66139,0.47797 -4.36441,0.67668 -5.20348,1.47083 -0.53357,0.50501 -0.97014,0.79234 -0.97014,0.63851 0,-0.15384 -0.47408,0.22781 -1.05353,0.84811 -0.85085,0.91084 -0.98419,1.25735 -0.69314,1.80119 0.19821,0.37036 0.51355,0.67339 0.70075,0.67339 0.1872,0 0.34037,0.22826 0.34037,0.50724 0,0.58515 -0.36365,0.64464 -3.63489,0.59463 -1.92877,-0.0295 -2.5985,0.10995 -3.41008,0.70997 -0.92868,0.6866 -1.66754,2.0537 -1.12409,2.07986 0.12736,0.006 0.67367,0.40017 1.21402,0.87563 0.9282,0.81673 0.9543,0.91841 0.47247,1.84093 -0.84296,1.61396 -2.40947,2.88917 -3.39521,2.76385 -1.74533,-0.22188 -2.70463,-0.60842 -2.70463,-1.0898 0,-0.26959 0.13229,-0.4084 0.29398,-0.30847 0.16169,0.0999 0.29398,-0.0658 0.29398,-0.3683 0,-0.30249 0.35537,-0.90535 0.7897,-1.33968 0.68181,-0.68181 0.70947,-0.80515 0.20242,-0.9028 -0.32301,-0.0622 -1.23084,0.29316 -2.01741,0.78969 -0.78657,0.49655 -1.76015,0.90281 -2.16352,0.90281 -0.40336,0 -0.63527,0.15875 -0.51535,0.35277 0.11991,0.19403 -0.0101,0.35278 -0.289,0.35278 -0.55009,0 -3.06239,3.42015 -3.06239,4.16902 0,0.2523 -0.1541,0.36349 -0.34244,0.2471 -0.18834,-0.1164 -0.4419,0.18466 -0.56347,0.66902 -0.21728,0.86574 -2.21365,2.67597 -2.95111,2.67597 -0.20697,0 -0.37632,0.15875 -0.37632,0.35278 0,0.19403 -0.46491,0.35278 -1.03313,0.35278 -0.56823,0 -1.27126,0.23812 -1.5623,0.52916 -0.29104,0.29105 -0.63209,0.52917 -0.75789,0.52917 -0.1258,0 -0.69066,0.46194 -1.25525,1.02653 -0.68519,0.68519 -1.2597,0.96555 -1.72776,0.84315 -0.72161,-0.1887 -3.13854,1.05083 -4.431,2.27246 -0.39224,0.37075 -0.90675,0.60956 -1.14336,0.53069 -0.42595,-0.14199 -5.38445,2.69414 -6.28536,3.59505 -0.25717,0.25717 -0.35607,0.57908 -0.21979,0.71536 0.13629,0.13628 0.089,0.21575 -0.10499,0.1766 -0.76536,-0.15441 -1.23472,0.035 -1.23472,0.49836 0,0.26728 -0.25972,0.70151 -0.57715,0.96496 -0.31743,0.26344 -0.94013,1.03694 -1.38379,1.71888 -0.44365,0.68195 -1.26295,1.75895 -1.82066,2.39334 -0.6394,0.72731 -1.04517,1.61613 -1.09836,2.40587 -0.11001,1.63352 -1.07555,4.02542 -1.62495,4.02542 -0.23709,0 -1.21204,0.39621 -2.16655,0.88046 -0.95452,0.48426 -1.89424,0.88302 -2.08826,0.88613 -0.19403,0.003 -0.95762,0.8769 -1.69686,1.94176 -0.73924,1.06485 -1.4933,1.93609 -1.67569,1.93609 -0.18239,0 -0.33162,0.3163 -0.33162,0.70287 0,0.67596 -0.69135,1.67447 -2.38125,3.4392 -0.43656,0.45589 -0.79375,1.17217 -0.79375,1.59173 0,0.41956 -0.58784,1.36485 -1.30632,2.10064 -0.79272,0.81181 -1.10479,1.33951 -0.79375,1.34218 0.28597,0.002 -0.13935,0.60996 -0.96209,1.3742 -0.81106,0.75339 -1.86851,2.14047 -2.3499,3.08241 -0.96638,1.89091 -3.25669,4.71122 -3.8259,4.71122 -0.44069,0 -0.0333,-1.88587 0.4446,-2.05787 0.17968,-0.0647 0.32669,-0.33697 0.32669,-0.60509 0,-0.26812 0.47625,-1.02991 1.05834,-1.69287 0.58208,-0.66295 1.05833,-1.29552 1.05833,-1.4057 0,-0.18801 0.59364,-1.07642 3.17138,-4.74611 0.58407,-0.83149 1.06195,-1.6517 1.06195,-1.82268 0,-0.17099 0.11907,-0.3638 0.26459,-0.42848 0.40772,-0.18121 2.10666,-2.84646 2.35961,-3.7017 0.12395,-0.41905 0.45733,-0.95442 0.74085,-1.18973 0.68165,-0.56571 0.67151,-1.43749 -0.0137,-1.17457 -0.29104,0.11169 -0.52916,0.4242 -0.52916,0.69449 0,0.33126 -0.42427,0.49142 -1.30176,0.49142 -1.07667,0 -1.52883,0.25091 -2.61493,1.45103 -0.83771,0.92566 -1.47182,1.35298 -1.75136,1.18022 -0.27262,-0.16849 -0.34874,-0.12609 -0.20147,0.11221 0.25752,0.41667 -0.98266,2.40985 -2.62232,4.2145 -0.56825,0.62542 -1.03318,1.30569 -1.03318,1.51171 0,0.66505 -1.12432,2.11366 -1.64048,2.11366 -0.40119,0 -0.42124,0.14905 -0.10062,0.74813 0.2424,0.45293 0.25732,0.65971 0.0378,0.52404 -0.19942,-0.12324 -0.45957,0.0815 -0.57812,0.45504 -0.11855,0.37351 -0.60623,0.9351 -1.08373,1.24797 -0.47751,0.31288 -0.86819,0.81175 -0.86819,1.10862 0,0.29686 -0.39687,1.1238 -0.88194,1.83764 -0.48507,0.71385 -0.88195,1.57855 -0.88195,1.92156 0,0.34302 -0.13361,0.62367 -0.29692,0.62367 -0.16331,0 -0.58284,0.9443 -0.93229,2.09846 -0.49777,1.64401 -0.55272,2.31249 -0.25376,3.0868 0.20988,0.54359 0.48784,1.68213 0.61769,2.53008 0.12984,0.84795 0.61578,2.40029 1.07985,3.44964 0.94526,2.13742 1.03979,2.57771 0.42043,1.95835 -0.23283,-0.23283 -0.70908,-0.42333 -1.05833,-0.42333 -0.34925,0 -0.635,-0.24311 -0.635,-0.54024 0,-0.29713 -0.23045,-0.62867 -0.5121,-0.73675 -0.28166,-0.10808 -0.69932,-0.76377 -0.92813,-1.45707 -0.22881,-0.69331 -0.87939,-1.71352 -1.44573,-2.26714 -0.56635,-0.55362 -0.93307,-1.16295 -0.81495,-1.35408 0.11812,-0.19112 0.059,-0.3475 -0.13147,-0.3475 -0.47746,0 -1.11005,-2.10077 -0.95606,-3.175 0.18322,-1.27818 1.20175,-3.93252 1.75308,-4.56859 0.26062,-0.30068 0.61363,-0.97665 0.78446,-1.50216 0.17084,-0.52552 1.14931,-1.88445 2.17438,-3.01986 1.02507,-1.1354 2.13632,-2.56856 2.46945,-3.18479 1.83174,-3.38845 5.57275,-7.93075 11.42347,-13.87027 3.55757,-3.61157 6.94457,-6.86526 7.52665,-7.23041 1.06614,-0.6688 1.32991,-0.88773 5.42437,-4.50216 1.23716,-1.0921 2.35833,-1.98565 2.4915,-1.98565 0.13317,0 1.02595,-0.97326 1.98396,-2.16281 0.95802,-1.18954 2.20837,-2.5786 2.77858,-3.0868 0.5702,-0.5082 1.60208,-1.53141 2.29305,-2.27381 0.69098,-0.74239 1.88026,-1.93301 2.64285,-2.64583 0.76258,-0.71281 3.38196,-3.23072 5.82083,-5.59536 2.43887,-2.36463 5.09214,-4.77435 5.89615,-5.35494 0.80402,-0.58058 1.68763,-1.37795 1.96358,-1.77192 0.69828,-0.99693 4.05731,-3.68691 4.72658,-3.78514 0.30354,-0.0446 1.13351,-0.46215 1.84439,-0.92801 0.71087,-0.46586 1.80844,-1.07227 2.43903,-1.34759 0.63059,-0.27532 1.14653,-0.63756 1.14653,-0.80498 0,-0.16742 0.22455,-0.21824 0.49899,-0.11292 0.27445,0.10531 1.10177,-0.11583 1.83849,-0.49143 0.73671,-0.3756 1.63278,-0.6829 1.99126,-0.6829 0.35848,0 0.57851,-0.11907 0.48895,-0.26459 -0.0895,-0.14552 0.40883,-0.30665 1.10752,-0.35807 0.69869,-0.0514 1.63013,-0.32923 2.06987,-0.61736 0.43975,-0.28813 1.12821,-0.52387 1.52992,-0.52387 0.4017,0 1.11235,-0.25028 1.57921,-0.55618 1.14435,-0.74981 4.34183,-1.54708 7.7694,-1.93726 1.55222,-0.1767 3.61597,-0.47291 4.58611,-0.65824 0.97014,-0.18533 2.63701,-0.44292 3.70416,-0.57242 1.06716,-0.1295 2.12201,-0.382 2.34412,-0.56112 0.22211,-0.1791 0.53961,-0.28863 0.70556,-0.24338 0.16594,0.0452 1.80984,-0.20377 3.6531,-0.55336 4.29069,-0.81378 12.2967,-0.87102 15.41173,-0.1102 1.2004,0.29318 2.23772,0.47789 2.30515,0.41046 0.0674,-0.0674 0.9506,0.63862 1.96258,1.56899 1.54552,1.42086 1.83999,1.8892 1.83999,2.92644 0,0.80837 0.30445,1.58887 0.88151,2.25987 0.48484,0.56376 0.88171,1.19671 0.88195,1.40657 2.3e-4,0.20986 0.75684,0.87169 1.68134,1.47075 1.31466,0.85187 9.52773,7.77473 12.00373,10.11804 0.34194,0.32362 0.36359,0.67271 0.0869,1.40053 -0.32246,0.84815 -0.20485,1.22002 0.93979,2.97152 0.71961,1.10112 1.99038,2.77348 2.82394,3.71634 1.97067,2.22909 3.63799,5.76326 3.99771,8.47387 0.1576,1.18748 0.52055,3.50843 0.80656,5.15767 0.28602,1.64923 0.47906,3.75185 0.42898,4.67246 -0.10501,1.93052 0.21667,2.31256 1.92595,2.28737 0.6791,-0.01 2.23194,0.10298 3.45075,0.25109 1.98168,0.2408 2.41443,0.17221 4.09211,-0.6486 2.21325,-1.08284 2.74118,-1.12777 3.49279,-0.29724 0.51785,0.57222 0.49459,0.6852 -0.2981,1.44814 -0.93036,0.89544 -1.09691,1.78631 -0.45411,2.4291 0.22311,0.22312 0.44235,0.95319 0.48719,1.62239 0.0712,1.06215 -0.0163,1.20598 -0.68862,1.13218 -0.86944,-0.0954 -3.12908,0.994 -2.78186,1.34121 0.12418,0.12419 -0.19008,0.22579 -0.69836,0.22579 -1.04289,0 -2.65232,0.63889 -3.39119,1.34619 -0.27145,0.25986 -0.78723,0.39568 -1.14617,0.30182 -0.35894,-0.0939 -0.74151,-0.0268 -0.85017,0.14899 -0.10866,0.17582 -0.0432,0.31966 0.14539,0.31966 0.18863,0 0.0632,0.57512 -0.27869,1.27804 -0.34191,0.70293 -0.55559,1.69511 -0.47486,2.20486 0.0807,0.50976 0.1468,1.19405 0.14682,1.52066 2e-5,0.3266 0.22574,0.78116 0.50162,1.01011 0.27587,0.22895 0.43094,0.53058 0.3446,0.67029 -0.0863,0.1397 0.0345,0.27613 0.26846,0.30316 0.90312,0.10435 4.70968,1.06854 5.71712,1.44813 3.25246,1.22546 5.11528,2.13009 5.11528,2.48409 0,0.19107 0.20883,0.26727 0.46407,0.16933 0.25524,-0.0979 1.95421,0.81985 3.77549,2.03954 3.03317,2.03128 7.14181,5.57589 13.55801,11.69679 1.34845,1.28639 2.55127,2.33889 2.67293,2.33889 0.345,0 -0.0515,2.23494 -0.49468,2.78838 -0.21816,0.27242 -0.41285,1.14555 -0.43266,1.94028 -0.0602,2.41728 -0.12196,2.67968 -0.63029,2.67968 -0.27525,0 -0.5859,0.51174 -0.70901,1.16795 -0.1349,0.71906 -0.81681,1.7669 -1.77422,2.72632 -0.85532,0.8571 -1.46547,1.72059 -1.3559,1.91885 0.10957,0.19827 -0.0146,0.16205 -0.27587,-0.0805 -0.2613,-0.24253 -0.8261,-0.44097 -1.25512,-0.44097 -0.45641,0 -1.16114,-0.47567 -1.69865,-1.14653 -0.50524,-0.63059 -1.08124,-1.34496 -1.27999,-1.5875 -0.19875,-0.24253 -0.23605,-0.4434 -0.0829,-0.44637 0.15317,-0.003 0.11975,-0.12533 -0.0743,-0.27191 -0.19403,-0.14658 -0.90841,-0.86826 -1.5875,-1.60373 -0.80854,-0.87566 -1.00587,-1.2498 -0.57169,-1.08394 0.36467,0.13932 -0.95767,-1.36062 -2.93854,-3.33319 -2.12721,-2.11831 -3.77057,-3.48972 -4.01442,-3.3501 -0.22707,0.13001 -0.29891,0.11022 -0.15964,-0.044 0.33507,-0.37102 -2.3113,-2.32786 -4.31016,-3.18712 -0.87312,-0.37533 -1.71445,-0.8854 -1.86961,-1.13347 -0.15516,-0.24808 -0.51235,-0.45105 -0.79375,-0.45105 -0.2814,0 -0.51164,-0.15875 -0.51164,-0.35277 0,-0.19403 -0.32793,-0.35278 -0.72874,-0.35278 -0.40082,0 -1.0201,-0.15593 -1.37619,-0.3465 -0.3561,-0.19058 -1.38964,-0.40833 -2.29675,-0.4839 -1.63587,-0.13627 -1.64705,-0.12986 -1.37201,0.78748 0.15251,0.50867 0.28367,1.79676 0.29146,2.86241 0.0141,1.92504 0.0277,1.94895 2.10081,3.70417 1.14766,0.97164 2.91056,2.42555 3.91758,3.23091 1.00701,0.80536 1.9513,1.75786 2.09842,2.11667 0.39997,0.97551 0.59126,5.76765 0.23022,5.76765 -0.17218,0 -0.38969,0.293 -0.48334,0.65112 -0.12343,0.472 -0.63422,0.71472 -1.85668,0.88228 -1.79616,0.24619 -2.7409,-0.1582 -2.40634,-1.03003 0.10624,-0.27685 0.0571,-0.50349 -0.10917,-0.50362 -0.16628,-1.4e-4 -0.323,-0.35733 -0.34827,-0.79375 -0.12598,-2.17554 -2.43522,-5.15622 -3.31394,-4.27751 -0.17877,0.17878 -0.41679,1.41936 -0.52892,2.75686 -0.11213,1.33749 -0.51333,3.11111 -0.89156,3.94137 -0.37823,0.83026 -0.68769,1.90957 -0.68769,2.39845 0,0.49379 -0.28129,1.03943 -0.63284,1.22757 -0.34806,0.18628 -1.01005,1.14406 -1.47109,2.1284 -0.67978,1.45136 -0.76441,1.93989 -0.44766,2.58414 0.65768,1.33771 0.8606,2.38194 0.46287,2.38194 -0.20481,0 -0.47393,0.635 -0.59803,1.41111 -0.1241,0.77611 -0.36411,1.41111 -0.53334,1.41111 -0.16923,0 -0.30769,0.21672 -0.30769,0.48159 0,1.31764 -2.81702,3.39897 -4.60042,3.39897 -0.34853,0 -0.97726,0.55589 -1.39717,1.23531 -0.44667,0.72273 -1.15392,1.32712 -1.70446,1.45655 -0.51755,0.12169 -1.37757,0.62737 -1.91114,1.12375 -0.53358,0.49638 -0.97014,0.80152 -0.97014,0.67811 0,-0.32494 -2.53768,0.77212 -3.25005,1.40503 -0.33233,0.29525 -0.85651,0.44001 -1.16486,0.32169 -0.30834,-0.11833 -0.46873,-0.0665 -0.35642,0.11527 0.11231,0.18172 -0.47996,0.84613 -1.31615,1.47648 -1.47079,1.10872 -3.43752,3.49396 -3.43752,4.16901 0,0.62961 -2.29839,2.05632 -3.35139,2.08035 -0.58208,0.0133 -1.72379,-0.14693 -2.53713,-0.35603 -2.25449,-0.5796 -6.10593,0.4964 -6.10593,1.70585 0,0.16078 -0.71151,0.23573 -1.58114,0.16657 -1.0648,-0.0847 -2.462,0.17843 -4.27851,0.80573 -1.48355,0.51232 -2.9851,0.88526 -3.33679,0.82876 -0.36239,-0.0582 -1.29808,0.51586 -2.15969,1.32502 -1.81238,1.70209 -3.64614,3.01989 -4.34499,3.12246 -0.27843,0.0409 -0.61666,0.18472 -0.75163,0.31969 -0.29567,0.29567 -0.44715,0.28572 -1.37477,-0.0903 z m 4.5866,-5.14414 c 1.14981,-1.14981 1.71637,-2.26056 0.8937,-1.75213 -0.19403,0.11992 -0.35278,0.0563 -0.35278,-0.1414 0,-0.19769 -0.60922,-0.54197 -1.35383,-0.76506 -1.11326,-0.33354 -1.54412,-0.30722 -2.42472,0.14816 -0.58898,0.30457 -1.17038,0.48073 -1.292,0.39146 -0.12161,-0.0893 -0.15625,-0.071 -0.077,0.0406 0.0793,0.11162 0.0113,0.66621 -0.15111,1.23243 -0.24381,0.85011 -0.16305,1.12208 0.46352,1.56094 1.33388,0.93429 2.90677,0.67239 4.29418,-0.71502 z m -40.72737,-9.87409 c 0.3728,-0.44921 0.35098,-0.50083 -0.1332,-0.31504 -0.31848,0.12222 -0.57906,0.36398 -0.57906,0.53725 0,0.45365 0.20421,0.38994 0.71226,-0.22221 z m -31.24983,-15.79779 c -0.19602,-0.51084 -1.98723,-1.65664 -2.58978,-1.65664 -0.74761,0 -0.37314,0.91631 0.91751,2.24511 1.2335,1.26995 1.31877,1.30277 1.57628,0.60668 0.14972,-0.40475 0.19292,-0.94257 0.096,-1.19515 z M 503.39643,536.8738 c 0.003,-0.33955 0.22959,-1.26136 0.50393,-2.04846 0.27434,-0.78711 0.60969,-2.41121 0.74522,-3.60911 0.13552,-1.19791 0.385,-2.09235 0.5544,-1.98766 0.16939,0.10469 0.30798,0.0477 0.30798,-0.12663 0,-0.17433 -0.41753,-0.50721 -0.92786,-0.73973 -1.27906,-0.58278 -2.27036,0.37537 -1.86647,1.80406 0.30394,1.07516 0.12674,1.29257 -0.90983,1.11633 -1.38868,-0.2361 -4.06672,-0.24926 -4.29488,-0.0211 -0.12784,0.12784 0.0851,0.23243 0.47312,0.23243 0.38805,0 0.7072,0.19844 0.70922,0.44098 0.002,0.24253 0.75053,1.59191 1.66339,2.99861 1.12544,1.73431 1.88134,2.55764 2.34818,2.55764 0.41854,0 0.69048,-0.24205 0.6936,-0.61737 z m -4.29279,-9.08403 c 0.63586,-0.2788 0.75826,-0.53772 0.58366,-1.23472 -0.12151,-0.48507 -0.25009,-1.30384 -0.28574,-1.81948 -0.0403,-0.58352 -0.4312,-1.18297 -1.03513,-1.5875 -1.0323,-0.69147 -1.30995,-2.03243 -0.48628,-2.3485 0.34442,-0.13217 0.43728,-0.60898 0.31863,-1.63614 -0.0996,-0.8622 0.007,-1.65964 0.26267,-1.96789 0.58732,-0.70768 2.18017,-0.65233 3.01124,0.10464 1.50873,1.37421 2.74841,2.19872 3.2891,2.18758 0.45042,-0.009 0.40512,-0.14915 -0.21624,-0.66765 l -0.78603,-0.65592 0.78603,-0.5869 c 0.56164,-0.41936 0.60979,-0.53405 0.16866,-0.40175 -0.44389,0.13312 -0.61736,-0.0131 -0.61736,-0.52041 0,-0.38806 -0.23812,-0.79693 -0.52916,-0.90862 -0.29105,-0.11168 -0.52917,-0.44186 -0.52917,-0.73374 0,-0.41512 -0.26805,-0.4804 -1.23094,-0.29976 -0.76535,0.14358 -1.83748,0.025 -2.83455,-0.31352 -2.28027,-0.77417 -2.77793,-0.72376 -2.46131,0.24931 0.14205,0.43656 0.26028,1.11125 0.26274,1.49931 0.008,1.23116 -1.2289,4.91057 -1.90479,5.66718 -0.35783,0.40056 -0.6506,0.95768 -0.6506,1.23805 0,0.28038 -0.33515,0.71908 -0.74479,0.9749 l -0.7448,0.46514 0.83299,0.57214 c 0.45815,0.31468 1.06799,0.89761 1.35521,1.29542 0.28722,0.3978 1.07833,1.33915 1.75802,2.09188 1.21069,1.34079 1.23974,1.35154 1.42958,0.52917 0.10658,-0.46169 0.55584,-0.99819 0.99836,-1.19222 z m 34.24809,-2.54982 c 0.5962,-0.72331 1.08401,-1.54351 1.08401,-1.82268 0,-0.27918 -0.0943,-0.41326 -0.20962,-0.29797 -0.11528,0.11529 -0.68735,-0.33451 -1.27126,-0.99954 -1.21222,-1.38064 -2.19522,-1.54479 -2.77405,-0.46325 -0.52211,0.97557 -0.11677,3.71162 0.59005,3.98286 0.29403,0.11283 0.43579,0.36501 0.31503,0.56041 -0.12076,0.1954 0.0957,0.35527 0.48113,0.35527 0.38538,0 1.18849,-0.59179 1.78471,-1.3151 z m -5.61877,-2.56545 c 0,-0.19403 -0.14938,-0.35278 -0.33195,-0.35278 -0.18258,0 -0.43007,0.15875 -0.54999,0.35278 -0.11992,0.19402 0.0295,0.35277 0.33196,0.35277 0.30249,0 0.54998,-0.15875 0.54998,-0.35277 z m 0.364,-1.32292 c 0.006,-0.33955 0.2443,-0.92552 0.52917,-1.30215 0.68776,-0.9093 0.66808,-1.02293 -0.39616,-2.2877 -0.88314,-1.04956 -1.79684,-1.16431 -1.41841,-0.17813 0.10177,0.26521 0.0383,0.57288 -0.14107,0.68373 -0.42411,0.26211 -0.35227,2.69012 0.0965,3.26064 0.50762,0.64538 1.31702,0.53804 1.33,-0.17639 z m -39.52233,-5.04791 c 0,-1.09997 0.13535,-1.70105 0.35278,-1.56667 0.19402,0.11991 0.35277,-0.0388 0.35277,-0.35278 0,-0.31395 -0.15875,-0.4727 -0.35277,-0.35278 -0.19403,0.11992 -0.35278,-0.0191 -0.35278,-0.30899 0,-0.28986 -0.18065,-0.97392 -0.40146,-1.52013 -0.2208,-0.54621 -0.41924,-1.38998 -0.44097,-1.87505 -0.0303,-0.67659 -0.2038,-0.85451 -0.74507,-0.76413 -1.11498,0.18617 -2.64676,1.846 -2.63809,2.85861 0.0143,1.66364 1.92575,4.91471 3.1795,5.40768 0.96463,0.37929 1.04609,0.26049 1.04609,-1.52576 z m 37.30176,-0.58306 c 0.0679,-0.20364 -0.30616,-0.47806 -0.83119,-0.60984 -0.70229,-0.17626 -1.13726,-0.0569 -1.64567,0.45149 -1.02889,1.02888 -0.5006,1.51669 1.05813,0.97704 0.71242,-0.24664 1.35085,-0.61506 1.41873,-0.81869 z m -31.63125,0.10613 c -0.2824,-0.34028 -0.29607,-0.5701 -0.0432,-0.72638 0.96945,-0.59915 -0.28403,-3.36198 -1.52531,-3.36198 -0.82247,0 -0.90812,0.42488 -0.31123,1.54403 0.32319,0.606 0.55105,1.23267 0.50636,1.39261 -0.0447,0.15995 0.0704,0.19704 0.25587,0.0824 0.18542,-0.1146 0.43685,-0.047 0.55872,0.15017 0.12187,0.19719 0.034,0.35853 -0.19521,0.35853 -0.31059,0 -0.30489,0.13483 0.0224,0.52917 0.24154,0.29104 0.59792,0.52917 0.79195,0.52917 0.20668,0 0.18169,-0.20614 -0.0603,-0.49776 z m 24.20953,-2.61178 c 1.83035,-1.50916 1.83273,-1.51381 1.13306,-2.21347 -0.56189,-0.5619 -0.96118,-0.65235 -2.01059,-0.45548 -0.7202,0.13511 -1.32474,0.18085 -1.34343,0.10165 -0.0187,-0.0792 -0.2965,0.0739 -0.61736,0.34017 -0.76228,0.63264 -0.75753,2.79562 0.008,3.64153 0.32526,0.35941 0.68245,0.52848 0.79375,0.37571 0.11129,-0.15278 1.02775,-0.95833 2.03656,-1.79011 z m -45.83506,-1.86183 c -0.0806,-0.54914 0.0235,-1.05937 0.23133,-1.13386 0.20782,-0.0745 -0.0749,-0.0645 -0.6282,0.0222 -1.31899,0.20667 -2.33081,1.25382 -2.48416,2.5709 -0.18918,1.62482 0.72067,1.89911 1.99053,0.60007 0.77859,-0.79648 1.00052,-1.30971 0.8905,-2.05931 z m 25.79694,-4.07104 c 0.60708,-0.63345 0.6061,-0.68129 -0.0251,-1.23477 -0.91404,-0.80146 -6.64181,-0.93943 -6.64181,-0.15999 0,0.28476 0.16634,0.62056 0.36966,0.74621 0.20331,0.12565 0.32497,0.49221 0.27036,0.81457 -0.12653,0.74688 0.14805,0.84517 1.60008,0.57277 0.85959,-0.16126 1.49945,-0.0229 2.37835,0.51417 1.15852,0.70797 1.2063,0.71054 1.30966,0.0704 0.059,-0.3654 0.39147,-0.96091 0.73881,-1.32336 z m 11.21083,1.42208 c 0.21542,-0.56137 -0.50652,-1.29336 -0.98435,-0.99805 -0.19897,0.12297 -0.19302,0.80164 0.0129,1.47463 0.10011,0.3271 0.79356,-0.0131 0.97141,-0.47658 z m -31.15555,-1.75299 c -0.51459,-0.78538 -0.59183,-0.80058 -1.39459,-0.27459 -1.41004,0.92389 -0.94787,1.52976 0.95398,1.25063 0.94826,-0.13918 0.96486,-0.17594 0.44061,-0.97604 z m 6.9278,-0.14496 c 0,-0.19034 0.43656,-0.44858 0.97014,-0.57388 0.53357,-0.1253 1.28764,-0.51769 1.67569,-0.87197 0.38806,-0.35428 1.04251,-0.94893 1.45435,-1.32144 0.62451,-0.56488 1.5398,-0.71967 5.51448,-0.93255 3.33048,-0.17838 4.83765,-0.1388 5.00467,0.13144 0.13143,0.21267 1.17652,0.38668 2.32241,0.38668 1.73526,0 2.14773,-0.12014 2.46817,-0.71888 0.70454,-1.31645 -0.19922,-2.89727 -1.77102,-3.09782 -1.50304,-0.19177 -2.69971,-0.85811 -3.39234,-1.88896 -0.36553,-0.54402 -0.88317,-1.07304 -1.15029,-1.1756 -0.56685,-0.21763 -1.53167,0.47392 -1.26444,0.9063 0.28213,0.4565 -1.13818,1.07277 -2.03454,0.88279 -0.4408,-0.0934 -1.51582,-0.41237 -2.38895,-0.70878 -0.87312,-0.29641 -2.02406,-0.6236 -2.55764,-0.7271 -0.77368,-0.15007 -0.97123,-0.38327 -0.97554,-1.15159 -0.008,-1.33981 -0.41942,-1.85272 -1.30245,-1.62181 -0.52302,0.13678 -0.7227,0.42943 -0.65289,0.95688 0.10051,0.75944 1.29461,3.74374 1.9607,4.90019 0.47803,0.82996 0.44796,2.73882 -0.0432,2.73882 -0.27358,0 -0.26023,0.16356 0.0432,0.52917 0.31675,0.38165 0.32562,0.52916 0.0318,0.52916 -0.22404,0 -0.55092,-0.35718 -0.7264,-0.79375 -0.17547,-0.43656 -0.32911,-0.69303 -0.3414,-0.56992 -0.0123,0.12311 -0.69698,-0.39283 -1.52152,-1.14652 -0.82453,-0.7537 -1.74528,-1.37036 -2.04611,-1.37036 -0.30082,0 -0.71091,-0.16396 -0.9113,-0.36434 -0.44538,-0.44539 -1.54065,-0.0765 -1.54065,0.51886 0,0.41914 0.54247,0.74956 2.55764,1.55788 1.12162,0.4499 1.25287,1.22208 0.32014,1.88357 -0.38048,0.26983 -0.73226,1.08267 -0.84838,1.96028 -0.17314,1.30858 -0.11289,1.4993 0.47361,1.4993 0.3696,0 0.67199,-0.15572 0.67199,-0.34605 z m -5.64445,-1.06506 c 0,-0.19403 -0.16812,-0.35278 -0.37359,-0.35278 -0.20548,0 -0.27549,0.15875 -0.15557,0.35278 0.11991,0.19403 0.28803,0.35278 0.3736,0.35278 0.0856,0 0.15556,-0.15875 0.15556,-0.35278 z m 3.66879,-3.93779 c -0.12027,-0.19461 -0.40786,-0.16047 -0.70158,0.0833 -0.67052,0.55649 -0.62745,0.64735 0.20383,0.42997 0.38587,-0.10091 0.60986,-0.33188 0.49775,-0.51327 z m 20.40422,-5.90814 c -0.0508,-0.22501 -0.14595,-0.76079 -0.21155,-1.19062 -0.0656,-0.42983 -0.30188,-0.76563 -0.52508,-0.74623 -0.2232,0.0194 -0.64394,0.0591 -0.93499,0.0882 -0.75211,0.0752 -0.65512,0.75531 0.24425,1.71265 0.77504,0.82499 1.60051,0.90364 1.42737,0.136 z m -21.82934,-2.23671 c -0.28938,-1.85319 -0.83378,-2.35188 -1.85899,-1.70287 -0.41517,0.26282 -0.42267,0.49488 -0.0454,1.40571 0.24853,0.6 0.6801,1.09091 0.95906,1.09091 0.27895,0 0.40907,0.15875 0.28915,0.35278 -0.11991,0.19403 0.0313,0.35278 0.33613,0.35278 0.45349,0 0.51163,-0.27237 0.32004,-1.49931 z m 11.33578,1.15057 c 0.12359,-0.19998 -0.018,-0.25912 -0.33196,-0.13865 -0.61115,0.23453 -0.72297,0.48739 -0.21553,0.48739 0.18258,0 0.42895,-0.15693 0.54749,-0.34874 z m -0.0521,-1.25398 c -0.1149,-0.29941 -0.28456,-0.46872 -0.37703,-0.37625 -0.0925,0.0925 -0.0635,0.33745 0.0644,0.54439 0.34785,0.56284 0.55117,0.4535 0.31263,-0.16814 z m 15.49539,-1.80368 c -0.23884,-0.0966 -0.71509,-0.10252 -1.05833,-0.0131 -0.34324,0.0894 -0.14783,0.16851 0.43426,0.1757 0.58208,0.007 0.86291,-0.066 0.62407,-0.16263 z m -6.34129,-2.24342 c 0.34479,-1.31845 -0.5479,-5.28629 -1.18931,-5.28629 -0.17898,0 -0.32542,-0.15377 -0.32542,-0.34171 0,-0.18794 0.23813,-0.25033 0.52917,-0.13865 0.65802,0.25251 0.70292,-0.43986 0.0535,-0.82503 -0.26161,-0.15516 -0.57648,-0.83774 -0.69971,-1.51684 -0.55466,-3.05662 -1.22259,-5.57172 -1.804,-6.79304 -0.34692,-0.72875 -0.68147,-1.84 -0.74345,-2.46945 -0.062,-0.62944 -0.14162,-1.22382 -0.17698,-1.32084 -0.0354,-0.097 -0.0455,-0.29545 -0.0225,-0.44097 0.023,-0.14552 -0.13396,-0.26458 -0.34875,-0.26458 -0.21478,0 -0.29914,-0.23813 -0.18746,-0.52917 0.11169,-0.29104 0.0513,-0.52917 -0.13422,-0.52917 -0.1855,0 -0.72213,-0.60965 -1.19251,-1.35477 -0.47038,-0.74513 -1.06997,-1.57856 -1.33242,-1.85208 -0.26245,-0.27353 -1.03052,-1.20678 -1.70683,-2.0739 -3.27505,-4.19906 -7.0505,-7.81027 -7.0505,-6.74377 0,1.1821 0.90412,4.24263 1.50425,5.09199 0.61001,0.86336 0.68093,1.36044 0.50334,3.52778 -0.15624,1.90666 -0.082,2.69005 0.30396,3.2076 0.28087,0.37663 0.51068,0.97692 0.51068,1.33398 0,0.35706 0.23699,0.74015 0.52665,0.8513 0.35655,0.13682 0.45815,0.47508 0.31454,1.04726 -0.11667,0.46485 -0.0593,0.84517 0.12751,0.84517 0.18679,0 0.69309,1.19062 1.12509,2.64583 0.432,1.45521 0.94075,2.64583 1.13054,2.64583 0.1898,0 0.27149,0.11907 0.18155,0.26459 -0.0899,0.14552 0.51877,0.21025 1.35269,0.14385 2.10227,-0.16739 3.00254,0.38501 3.00254,1.84236 0,0.70842 0.26973,1.41173 0.68584,1.78831 0.86246,0.78052 1.06151,2.01432 0.40714,2.5237 -0.42799,0.33316 -0.41569,0.50952 0.0855,1.22502 0.32199,0.45971 0.58544,1.08787 0.58544,1.39592 0,0.84911 2.09323,2.8107 2.99932,2.8107 0.50427,0 0.86751,-0.26221 0.98485,-0.71093 z m -117.22584,-2.85593 c 0,-0.17253 -0.15875,-0.3137 -0.35278,-0.3137 -0.19403,0 -0.35278,0.15875 -0.35278,0.35278 0,0.19403 -0.22875,0.35278 -0.50834,0.35278 -0.73719,0 -1.07569,0.73159 -0.507,1.09574 0.47893,0.30667 1.7209,-0.76693 1.7209,-1.4876 z m 22.225,-21.12759 c 0,-0.19402 -0.16812,-0.35277 -0.3736,-0.35277 -0.20548,0 -0.27548,0.15875 -0.15557,0.35277 0.11992,0.19403 0.28804,0.35278 0.3736,0.35278 0.0856,0 0.15557,-0.15875 0.15557,-0.35278 z m 2.46944,-1.42846 c 0,-0.15833 0.328,-0.39198 0.72889,-0.51922 0.40088,-0.12723 1.49291,-0.89199 2.42672,-1.69947 0.93382,-0.80747 2.62988,-2.14011 3.76904,-2.96141 3.12539,-2.25336 5.30636,-4.39404 5.55506,-5.45245 0.52108,-2.21758 -1.45189,-1.67892 -4.50844,1.23088 -1.28842,1.22657 -2.41841,2.15429 -2.51109,2.06161 -0.0927,-0.0927 -0.16851,0.006 -0.16851,0.21929 0,0.21329 -0.31656,0.48827 -0.70347,0.61107 -0.3869,0.1228 -0.90284,0.41301 -1.14653,0.64491 -1.82707,1.73873 -3.59043,2.98069 -4.00575,2.82132 -0.32406,-0.12435 -0.49425,0.0576 -0.49425,0.52844 0,0.39495 -0.2287,0.94679 -0.50821,1.22631 -0.79328,0.79328 -0.32505,1.9382 0.7116,1.74003 0.47022,-0.0899 0.85494,-0.29298 0.85494,-0.45131 z m 73.37778,-8.81342 c 0,-0.39429 -0.23002,-1.26741 -0.51116,-1.94028 -0.28114,-0.67286 -0.41848,-1.22339 -0.3052,-1.22339 0.56191,0 -1.6016,-1.32937 -2.40593,-1.47833 -0.88278,-0.16348 -0.91418,-0.11957 -0.62805,0.87812 0.16566,0.57761 0.54413,1.31864 0.84105,1.64673 0.29691,0.32809 0.53985,0.73255 0.53985,0.8988 0,0.49089 1.494,1.93523 2.00177,1.93523 0.25722,0 0.46767,-0.32259 0.46767,-0.71688 z m -54.68055,-4.00787 c 0,-0.0763 -0.23813,-0.23002 -0.52917,-0.34171 -0.29104,-0.11168 -0.52917,-0.0493 -0.52917,0.13865 0,0.18793 0.23813,0.3417 0.52917,0.3417 0.29104,0 0.52917,-0.0624 0.52917,-0.13864 z m 1.05833,-1.49421 c 0,-0.34635 -0.26818,-0.49342 -0.76612,-0.42015 -0.96841,0.14249 -1.24479,0.88841 -0.39993,1.07936 0.82991,0.18758 1.16605,-0.002 1.16605,-0.65921 z m 49.47489,-3.20807 c -0.24375,-0.087 -0.32605,-0.34311 -0.18289,-0.56907 0.14316,-0.22596 0.28482,-0.85745 0.31482,-1.40331 0.0392,-0.71443 -0.0825,-0.9399 -0.43448,-0.80482 -0.26895,0.1032 -0.48901,0.0153 -0.48901,-0.19534 0,-0.21065 -0.64993,-1.01373 -1.44429,-1.78463 l -1.4443,-1.40164 -3.58278,0.0175 c -1.97054,0.01 -4.16561,0.11922 -4.87794,0.24355 l -1.29514,0.22605 2.17708,1.13595 c 1.19741,0.62477 3.36772,1.81263 4.82293,2.6397 1.45521,0.82706 3.40316,1.62616 4.32878,1.77577 0.92563,0.14961 1.78552,0.37458 1.91088,0.49994 0.12536,0.12536 0.32053,0.12682 0.43372,0.003 0.11318,-0.12358 0.006,-0.29589 -0.23738,-0.38291 z m -42.97297,115.28185 c -1.34064,-0.32077 -3.32692,-1.46818 -3.32692,-1.92185 0,-0.18542 -0.26409,-0.62895 -0.58687,-0.98561 -0.64116,-0.70848 -0.71744,-3.10496 -0.13083,-4.11019 0.18891,-0.3237 0.34829,-0.40863 0.35419,-0.18873 0.006,0.21991 0.32823,0.48286 0.71629,0.58434 0.48576,0.12703 0.70555,0.48119 0.70555,1.13691 0,0.53038 0.47867,1.55676 1.08025,2.31632 1.04329,1.31727 1.13684,1.35664 2.73403,1.15084 1.50954,-0.19451 3.24128,-1.23039 3.24128,-1.93884 0,-0.15651 -0.38182,-0.38039 -0.84849,-0.49752 -1.03859,-0.26067 -2.70251,-1.91044 -1.94703,-1.93048 0.27635,-0.007 1.05809,-0.0883 1.73718,-0.18004 0.87129,-0.11765 1.65008,0.0707 2.64584,0.63979 1.28436,0.73408 1.41886,0.94829 1.49735,2.38491 0.10152,1.85784 -0.5606,2.83181 -2.34891,3.45522 -1.30335,0.45434 -3.81736,0.49301 -5.52291,0.0849 z m 23.01816,-1.01391 c -0.52523,-0.54822 -0.8736,-1.07813 -0.77416,-1.17756 0.0994,-0.0994 -0.17616,-0.37167 -0.61243,-0.60496 -0.68916,-0.36853 -0.77718,-0.65397 -0.67097,-2.176 0.11655,-1.67028 0.16992,-1.75183 1.14653,-1.75183 0.56335,0 1.02428,0.15875 1.02428,0.35278 0,0.19403 0.32309,0.35278 0.71797,0.35278 1.82581,0 3.51688,2.7799 2.46331,4.04938 -0.28724,0.3461 -0.26973,0.51577 0.0672,0.65096 0.3018,0.12109 0.25713,0.19225 -0.13226,0.21069 -0.32338,0.0153 -0.64088,0.16562 -0.70556,0.334 -0.3236,0.84248 -1.60329,0.72067 -2.5239,-0.24024 z m 19.86881,-2.2538 c -0.87313,-0.19165 -1.83105,-0.56512 -2.12872,-0.82993 -1.26502,-1.1254 -0.27465,-3.82639 1.2854,-3.50559 0.46383,0.0954 1.20411,0.24676 1.64508,0.3364 1.24821,0.25374 1.80942,-1.39941 1.5663,-4.6139 -0.18401,-2.43303 -0.15062,-2.60464 0.50674,-2.60464 0.54492,0 3.21883,1.28853 4.14642,1.99812 0.0781,0.0598 -0.26687,0.43032 -0.76667,0.82346 -0.92991,0.73147 -1.10784,1.26344 -1.50775,4.50772 -0.12618,1.02369 -0.42701,2.05884 -0.66851,2.30034 -0.24149,0.2415 -0.62849,0.793 -0.85999,1.22556 -0.45595,0.85195 -0.80771,0.89157 -3.2183,0.36246 z m -11.18933,-3.23554 c -1.63908,-0.5738 -2.47372,-1.49782 -2.01288,-2.22841 0.20228,-0.32067 0.67584,-0.60868 1.05236,-0.64002 0.37651,-0.0313 1.0462,-0.17496 1.48818,-0.31918 0.6105,-0.19919 0.96798,-0.065 1.48757,0.55845 0.88815,1.06565 0.8746,1.42724 -0.0863,2.30308 -0.688,0.62708 -0.94499,0.67052 -1.92891,0.32608 z m -47.0759,-4.86615 c -0.93885,-0.97407 -1.707,-2.0419 -1.707,-2.37295 0,-0.33105 -0.13807,-0.75272 -0.30683,-0.93705 -0.16876,-0.18432 -0.39927,-0.94508 -0.51226,-1.69057 -0.17498,-1.15451 -0.0678,-1.48298 0.72317,-2.21602 0.71607,-0.66363 1.17647,-0.81481 2.01157,-0.66052 0.59563,0.11004 1.99455,0.29576 3.1087,0.41269 2.15199,0.22586 2.53011,0.47675 2.83189,1.87901 0.10439,0.48507 0.34224,1.36128 0.52856,1.94715 0.40573,1.27581 -0.41834,4.27561 -1.29824,4.72592 -0.30809,0.15767 -1.26045,0.37594 -2.11637,0.48503 -1.50301,0.19157 -1.61453,0.13782 -3.26319,-1.57269 z m 3.58467,-1.91308 c 0,-1.63592 -1.61352,-4.00695 -2.73403,-4.01758 -0.68556,-0.006 -0.79204,0.17278 -0.78124,1.31538 0.0162,1.70923 0.692,2.89844 1.96728,3.46157 1.48793,0.65702 1.54799,0.62756 1.54799,-0.75937 z m 17.66511,2.31217 c -1.25045,-0.28589 -3.22494,-2.0946 -4.07477,-3.73265 -0.43663,-0.84161 -0.32759,-1.69056 0.37023,-2.88242 0.0594,-0.10153 1.01221,0.2612 3.32554,1.26605 3.18443,1.38323 4.00135,3.01906 2.38125,4.76831 -0.67413,0.72786 -0.97587,0.81538 -2.00225,0.58071 z m -39.71372,-1.24372 c -1.58179,-0.81685 -2.47557,-1.92943 -3.12801,-3.89375 -0.59202,-1.78243 -0.48518,-3.81859 0.22337,-4.2565 0.52216,-0.32272 1.57154,1.24153 1.80271,2.68717 0.11033,0.68995 0.52246,1.53003 0.91585,1.86686 0.70321,0.60211 0.71525,0.58576 0.71525,-0.97163 0,-1.52026 0.0421,-1.58405 1.04466,-1.58405 0.94356,0 1.09361,0.16479 1.5503,1.70263 0.62722,2.11211 0.40453,3.39839 -0.7449,4.30253 -1.06292,0.8361 -1.04631,0.83508 -2.37923,0.14674 z m 49.41871,-5.77014 c 0.0818,-0.0818 -0.51835,-0.54639 -1.33356,-1.03253 -4.11096,-2.45148 -3.88658,-5.29163 0.43462,-5.50119 0.72291,-0.0351 1.58242,-0.33177 1.91001,-0.65936 1.1301,-1.1301 3.17361,0.85889 3.56518,3.47007 0.18744,1.24991 0.0816,1.79154 -0.54961,2.81287 -0.74176,1.2002 -0.86853,1.25962 -2.47852,1.16184 -0.93322,-0.0567 -1.62988,-0.16995 -1.54812,-0.2517 z m 0.41266,-4.15658 c -0.7875,-0.78749 -1.01669,-0.86029 -1.48496,-0.47167 -0.71986,0.59744 -0.14885,1.3377 1.15649,1.49927 1.33695,0.16549 1.38167,0.0256 0.32847,-1.0276 z m 16.30102,2.27552 c -1.08671,-0.548 -1.54196,-0.98489 -1.47039,-1.41111 0.057,-0.33955 -0.062,-0.61736 -0.26459,-0.61736 -0.20253,0 -0.36824,-0.23813 -0.36824,-0.52917 0,-0.29104 -0.15875,-0.52917 -0.35278,-0.52917 -0.19403,0 -0.35278,-0.27931 -0.35278,-0.62069 0,-1.53536 3.32314,-2.07026 5.29167,-0.85177 0.6791,0.42035 1.37839,0.76487 1.55398,0.76559 0.17559,7e-4 0.0358,0.31451 -0.31059,0.6973 -0.43738,0.4833 -0.56701,1.01024 -0.42418,1.72435 0.14621,0.73109 0.024,1.19277 -0.42274,1.59707 -0.81332,0.73604 -1.00285,0.72123 -2.87936,-0.22504 z m 1.16324,-3.28994 c 0.11553,-0.60439 0.0558,-0.79083 -0.17826,-0.55674 -0.19357,0.19358 -0.57074,0.26801 -0.83814,0.1654 -0.64399,-0.24713 -0.61575,0.0617 0.0682,0.74566 0.72176,0.72176 0.74409,0.71342 0.94821,-0.35432 z M 415.084,536.92507 c -1.2596,-1.17076 -1.34224,-1.37174 -1.26538,-3.07727 0.0558,-1.23796 -0.0497,-1.79633 -0.32808,-1.7365 -0.22567,0.0485 -0.41031,-0.0775 -0.41031,-0.28005 0,-0.20253 0.19844,-0.33185 0.44097,-0.28738 0.24254,0.0445 1.3252,-0.12618 2.40591,-0.37923 1.6896,-0.39562 2.10989,-0.38513 2.99944,0.0749 1.8435,0.95331 2.31957,1.74529 2.05261,3.41473 -0.56928,3.56011 -3.35396,4.63277 -5.89516,2.27082 z m 2.78393,-1.96215 c 0,-0.71502 -0.037,-0.72851 -1.16776,-0.42545 -0.43438,0.11643 -0.70122,0.35498 -0.59298,0.53011 0.10824,0.17513 0.34458,0.22709 0.5252,0.11546 0.18062,-0.11163 0.3284,-0.0613 0.3284,0.11184 0,0.17314 0.2041,0.3148 0.45357,0.3148 0.24946,0 0.45357,-0.29104 0.45357,-0.64676 z m 63.29842,1.73738 c -0.6791,-0.42844 -1.28764,-0.90202 -1.35232,-1.05239 -0.0647,-0.15038 -0.34203,-0.27341 -0.61634,-0.27341 -0.64855,0 -3.35129,-2.44143 -3.27237,-2.95599 0.0334,-0.21747 -0.0298,-0.63353 -0.14032,-0.92457 -1.15779,-3.0487 -1.03708,-5.01454 0.49539,-8.06806 0.6456,-1.28639 1.37405,-2.54866 1.61877,-2.80506 0.24473,-0.25639 0.44496,-0.61358 0.44496,-0.79375 0,-0.18016 0.60515,-0.32757 1.34477,-0.32757 1.08104,0 1.49615,0.20475 2.11667,1.04404 0.42454,0.57423 0.7719,1.29904 0.7719,1.6107 0,1.20497 0.73443,1.92764 2.19663,2.16146 1.44282,0.23072 3.57446,1.90315 2.76823,2.1719 -0.20831,0.0694 -0.38118,0.39083 -0.38415,0.71421 -0.005,0.5093 -0.0521,0.51717 -0.35419,0.0588 -0.49247,-0.74717 -0.18104,3.22315 0.32733,4.17306 0.21477,0.4013 0.74365,0.977 1.17529,1.27933 l 0.78479,0.54969 -0.94851,0.87951 c -0.58856,0.54574 -1.36499,0.87952 -2.04594,0.87952 -0.7972,0 -1.41599,0.33778 -2.26191,1.23472 -0.64047,0.6791 -1.22512,1.23205 -1.29923,1.22878 -0.0741,-0.003 -0.69036,-0.35648 -1.36945,-0.78492 z m 1.34265,-8.19012 c 0.0258,-0.68726 -0.11338,-1.24957 -0.30935,-1.24957 -0.19598,0 -0.31942,0.62553 -0.27431,1.39007 0.0999,1.69233 0.51854,1.59154 0.58366,-0.1405 z m -53.17805,6.75668 c -1.45247,-0.50526 -2.10885,-2.12681 -1.24658,-3.07961 0.28495,-0.31486 0.51809,-0.98717 0.51809,-1.49402 0,-1.33821 0.39325,-1.37408 1.5875,-0.14478 0.58208,0.59916 0.863,0.97019 0.62427,0.8245 -0.27343,-0.16686 -0.21812,0.16554 0.14946,0.89819 0.32093,0.63969 0.80305,1.59964 1.07136,2.13322 0.42256,0.84031 0.41823,0.97014 -0.0324,0.97014 -0.28614,0 -0.73168,0.0706 -0.99008,0.15695 -0.2584,0.0863 -1.01512,-0.0327 -1.68161,-0.26459 z m -27.01044,-2.43264 c -0.38806,-0.20672 -1.62687,-1.3914 -2.75292,-2.63263 -1.95373,-2.15357 -2.04247,-2.33249 -1.94028,-3.91229 0.10411,-1.6095 0.15016,-1.67048 1.65691,-2.19419 2.07943,-0.72274 2.54427,-1.48853 1.54868,-2.55129 -1.11042,-1.18531 -2.02781,-3.93899 -1.24642,-3.74126 0.14552,0.0368 1.1158,-0.3543 2.15617,-0.86915 1.37868,-0.68227 2.52809,-0.95797 4.23904,-1.01676 2.13524,-0.0734 2.51015,0.0258 4.1472,1.09755 1.43823,0.94154 1.76219,1.32721 1.61274,1.91995 -0.22384,0.8878 -0.70835,1.25764 -1.66001,1.26713 -0.38805,0.004 -1.21288,0.48255 -1.83295,1.06374 -0.62007,0.58118 -1.37971,1.0567 -1.68811,1.0567 -0.30839,0 -0.95229,0.25657 -1.43089,0.57016 -0.48136,0.3154 -1.26398,0.49489 -1.75148,0.40171 -0.48471,-0.0927 -0.88129,-0.0164 -0.88129,0.16936 0,0.18581 0.88698,1.34812 1.97106,2.58291 1.67983,1.91335 1.98089,2.46866 2.03761,3.75838 0.0616,1.40108 -0.0388,1.58515 -1.3537,2.48194 -1.55344,1.05946 -1.78659,1.10459 -2.83136,0.54804 z m 0.25381,-4.48329 c -0.22087,-0.58996 -1.12695,-1.41281 -1.57673,-1.43188 -0.48123,-0.0204 -0.27535,0.74669 0.48821,1.819 0.53573,0.75236 0.83147,0.92987 1.02569,0.61561 0.1501,-0.24286 0.17837,-0.69409 0.0628,-1.00273 z m -0.4302,-5.16809 c 0,-0.30249 -0.16134,-0.45027 -0.35853,-0.3284 -0.19719,0.12187 -0.2672,0.36937 -0.15557,0.54999 0.30241,0.48931 0.5141,0.39808 0.5141,-0.22159 z m 2.82222,-4.05694 c 0,-0.18258 -0.23812,-0.33196 -0.52916,-0.33196 -0.54554,0 -0.70087,0.41626 -0.30358,0.81356 0.28185,0.28184 0.83274,-0.0368 0.83274,-0.4816 z m 60.76598,12.09348 c -0.63059,-0.0676 -1.14653,-0.28484 -1.14653,-0.48274 0,-0.19791 -0.19683,-0.29422 -0.43739,-0.21403 -0.45125,0.15042 -1.67928,-1.1578 -1.67928,-1.78894 0,-0.19576 -0.15129,-0.40885 -0.3362,-0.47353 -0.18492,-0.0647 -0.44013,-0.77227 -0.56715,-1.57243 -0.22892,-1.44215 -0.21198,-1.47061 1.94202,-3.26319 1.19513,-0.9946 2.41222,-1.80836 2.70463,-1.80836 0.29242,0 0.43356,-0.15875 0.31365,-0.35278 -0.11992,-0.19402 0.0201,-0.35277 0.31114,-0.35277 0.29104,0 0.62727,0.15875 0.74719,0.35277 0.11992,0.19403 0.50766,0.35278 0.86164,0.35278 0.96572,0 1.20109,1.76816 0.3423,2.57139 -0.80308,0.7511 -0.82168,0.90649 -0.19556,1.63417 0.76402,0.88795 1.27776,2.79637 1.05398,3.91527 -0.25808,1.29042 -1.4599,1.74554 -3.91444,1.48239 z m -28.6632,-0.50297 c 0,-0.15444 -0.21928,-0.2808 -0.48729,-0.2808 -0.26802,0 -0.90302,-0.54504 -1.41111,-1.21119 -1.18183,-1.54945 -1.28881,-4.06827 -0.21826,-5.13881 0.89211,-0.89212 0.98881,-0.88765 4.01426,0.18554 4.14866,1.47161 4.68762,1.84507 4.74178,3.28571 0.0518,1.37713 -0.64452,2.38639 -2.05327,2.97617 -1.0545,0.44148 -4.58611,0.58269 -4.58611,0.18338 z m -63.75996,-6.41526 c -0.62804,-0.40959 -1.14398,-1.04471 -1.14653,-1.41138 -0.002,-0.36666 -0.28243,-0.87755 -0.62198,-1.1353 -0.37703,-0.28621 -0.4457,-0.47301 -0.17639,-0.47987 0.24253,-0.006 0.44097,-0.24436 0.44097,-0.52931 0,-0.8317 0.9149,-0.25598 1.93698,1.21889 0.556,0.80231 0.89142,1.70561 0.82348,2.21768 l -0.11463,0.86399 z m 4.14052,-3.10633 c -1.45238,-1.60031 -1.477,-2.66376 -0.10341,-4.46679 0.81889,-1.07491 3.0431,-2.40228 3.73367,-2.2282 0.15338,0.0387 0.56808,-0.0845 0.92155,-0.27365 0.96521,-0.51656 2.62095,-0.73763 3.13477,-0.41854 0.33537,0.20826 0.36317,0.52294 0.10599,1.19938 -0.21148,0.55624 -0.22731,1.34014 -0.0402,1.99243 0.18616,0.64908 0.16902,1.58027 -0.0432,2.34896 -0.1934,0.70046 -0.26347,1.50335 -0.15569,1.7842 0.26961,0.7026 -0.87741,1.06736 -3.63734,1.15671 -1.25781,0.0407 -2.37567,0.11722 -2.48414,0.17001 -0.10847,0.0528 -0.75284,-0.51624 -1.43193,-1.26451 z m 4.4512,-1.72976 c 0.77382,-0.64221 0.58095,-0.96498 -0.80536,-1.34776 -1.0812,-0.29854 -1.36834,-0.25791 -1.75267,0.248 -0.7985,1.0511 -0.63235,1.29857 0.95295,1.41936 0.61457,0.0468 1.33686,-0.097 1.60508,-0.3196 z m -14.13254,-4.63987 c 0.32361,-1.05277 0.37927,-1.09545 1.0786,-0.82709 0.54308,0.2084 0.52921,0.29607 -0.14642,0.92552 -0.97251,0.90603 -1.2325,0.87858 -0.93218,-0.0984 z m 42.57786,-3.08294 c -0.63059,-0.38448 -1.14652,-0.93951 -1.14652,-1.2334 0,-0.2939 -0.16571,-0.53435 -0.36825,-0.53435 -0.20253,0 -0.33542,-0.19844 -0.29531,-0.44098 0.0401,-0.24253 -0.0218,-0.83784 -0.13768,-1.32291 -0.57887,-2.42396 -0.56422,-3.09096 0.0831,-3.78577 0.57936,-0.62187 0.87787,-0.66827 2.53943,-0.39466 1.03559,0.17054 2.30619,0.27117 2.82357,0.22363 1.5355,-0.14108 2.33481,0.89005 2.36055,3.04518 0.0203,1.69896 -0.10794,2.01421 -1.42614,3.50588 -1.64274,1.85892 -2.59205,2.05967 -4.43274,0.93738 z m 2.02848,-2.82609 c 0,-0.67792 -0.6899,-0.9564 -1.17287,-0.47343 -0.26706,0.26706 0.40067,1.17899 0.86328,1.17899 0.17028,0 0.30959,-0.3175 0.30959,-0.70556 z m 34.71504,-0.94736 c -0.90455,-0.17834 -3.01053,-2.31573 -3.94006,-3.99882 -0.68207,-1.23501 -0.80277,-3.26766 -0.28397,-4.78219 0.52158,-1.52265 3.5027,-2.43653 5.12168,-1.57008 0.35272,0.18877 0.75259,0.94284 0.8886,1.6757 0.26315,1.41789 1.13912,2.67485 1.64586,2.36167 0.16809,-0.10389 0.30842,-0.13984 0.31182,-0.0799 0.004,0.06 0.10382,1.18765 0.22314,2.50597 0.19715,2.17841 0.14273,2.47594 -0.59686,3.2632 -0.78262,0.83305 -1.57109,0.97914 -3.37021,0.62443 z m 1.0919,-3.75634 c 0,-0.51741 -0.15875,-0.9564 -0.35278,-0.97553 -0.19402,-0.0191 -0.60627,-0.17046 -0.91609,-0.33627 -0.3459,-0.18511 -0.72002,-0.14477 -0.96933,0.10453 -0.30615,0.30616 -0.17175,0.65051 0.5465,1.40021 1.12362,1.1728 1.6917,1.10801 1.6917,-0.19294 z m 17.10973,-3.87694 c 0,-0.17286 -0.24637,-0.21975 -0.54749,-0.1042 -0.30112,0.11555 -0.46286,0.0732 -0.35942,-0.0942 0.10344,-0.16738 -0.20582,-0.60011 -0.68723,-0.96164 -0.56205,-0.42208 -0.87531,-1.00613 -0.87531,-1.63193 0,-1.22474 0.13674,-1.21803 1.32789,0.0651 1.31805,1.41985 2.19794,1.4615 3.6649,0.17349 l 1.22836,-1.07851 -0.66944,-1.28996 c -0.66989,-1.29085 -0.59426,-2.01973 0.20956,-2.01973 0.76215,0 3.05818,2.14748 3.05818,2.86032 0,0.8432 -1.02951,2.49081 -1.4096,2.2559 -0.15074,-0.0932 -0.35643,0.14552 -0.45708,0.53041 -0.10065,0.3849 -0.47589,0.79522 -0.83386,0.91182 -0.35797,0.11661 -0.88898,0.30743 -1.18002,0.42406 -0.83197,0.33338 -2.46944,0.30623 -2.46944,-0.0409 z m -54.2174,-12.25117 c -0.61838,-0.18894 -1.45009,-0.77814 -1.84824,-1.30933 -0.39815,-0.53119 -0.8977,-1.17179 -1.11011,-1.42355 -0.28486,-0.33765 -0.23746,-0.68475 0.18068,-1.32292 0.31179,-0.47584 0.68229,-0.87696 0.82333,-0.89138 0.14105,-0.0144 0.60934,-0.0921 1.04065,-0.17272 0.70948,-0.13254 0.76309,-0.041 0.56268,0.9611 -0.24347,1.21735 0.48099,2.06006 1.77103,2.06006 0.82846,0 3.76126,-2.3239 3.76126,-2.98036 0,-0.25503 -0.54481,-0.87923 -1.21069,-1.38712 -0.84623,-0.64545 -1.18473,-1.167 -1.12444,-1.73249 0.15971,-1.498 0.46666,-1.66674 2.02907,-1.1155 0.79174,0.27934 1.58137,0.42023 1.75474,0.31308 0.17337,-0.10714 0.31521,-0.0267 0.31521,0.17879 0,0.20548 0.12214,0.33391 0.27142,0.2854 0.14928,-0.0485 0.67015,0.22931 1.15749,0.61736 1.25758,1.00138 0.90709,2.82479 -0.93033,4.84009 -2.94335,3.22828 -4.64829,3.93362 -7.44375,3.07949 z m -14.2215,-2.39091 c -1.79092,-0.16792 -3.43594,-1.8245 -1.81177,-1.8245 0.77616,0 4.28122,-3.33744 4.28122,-4.07648 0,-0.60385 0.0432,-0.60986 1.20613,-0.16772 0.73275,0.27859 0.87002,0.52358 0.74126,1.32291 -0.30914,1.91911 -0.63571,3.10368 -0.97352,3.53133 -0.61576,0.7795 -2.18382,1.33256 -3.44332,1.21446 z m 70.0264,-6.67432 c -3.29356,-0.13586 -4.33972,-0.40391 -5.29161,-1.3558 -0.85402,-0.85403 -1.15928,-2.21896 -0.61742,-2.76082 0.14552,-0.14552 0.26458,-0.38101 0.26458,-0.52332 0,-0.51979 1.4194,-3.20226 1.69652,-3.20619 0.15697,-0.002 0.20303,-0.13732 0.10237,-0.3002 -0.18163,-0.29388 1.50491,-0.51994 3.44502,-0.46177 1.23042,0.0369 3.21015,1.48581 3.92868,2.8753 0.781,1.51029 0.70571,4.12892 -0.12631,4.393 -0.36031,0.11436 -0.79687,0.48224 -0.97014,0.81752 -0.25396,0.49143 -0.72534,0.59267 -2.43169,0.52228 z m 0.74284,-3.11064 c 0.17526,-0.69831 7e-4,-1.14128 -0.76484,-1.94028 -1.05042,-1.0964 -1.86718,-1.29815 -2.53833,-0.62699 -0.30932,0.30932 -0.54689,0.29343 -0.97939,-0.0655 -1.14305,-0.94865 -1.47645,1.08689 -0.39811,2.43062 0.55253,0.68851 1.6241,1.05899 3.13735,1.0847 1.12713,0.0192 1.34883,-0.10763 1.54332,-0.88254 z m -30.1116,-10.90993 c -0.63059,-0.27408 -1.14652,-0.40192 -1.14652,-0.2841 0,0.11783 -0.37983,-0.2278 -0.84406,-0.76806 -1.00756,-1.17257 -0.98185,-1.63742 0.15807,-2.85755 1.14094,-1.22122 2.52654,-1.91435 3.82687,-1.91435 1.32583,0 2.85634,0.67619 2.85634,1.26195 0,0.24373 0.12995,0.49606 0.28877,0.56074 0.15883,0.0647 0.22214,0.78589 0.14069,1.60271 -0.13381,1.34197 -0.29139,1.55449 -1.63487,2.20486 -1.73796,0.84133 -2.10997,0.86111 -3.64529,0.1938 z m 17.02458,-9.2228 c -0.29272,-0.29271 -0.53221,-0.68899 -0.53221,-0.88061 0,-0.19162 -0.14077,-0.2614 -0.31281,-0.15507 -0.52031,0.32156 -0.99547,-0.58533 -1.25867,-2.40234 -0.23498,-1.62209 -0.18537,-1.77995 0.85921,-2.73403 1.58136,-1.44435 3.87053,-1.43633 5.32551,0.0187 0.96468,0.96468 1.21004,1.74622 1.04381,3.32483 -0.0972,0.92275 -1.7692,2.69953 -2.54037,2.69953 -0.35598,0 -0.64724,0.12497 -0.64724,0.27771 0,0.50187 -1.39364,0.39492 -1.93723,-0.14867 z m 2.12975,-3.44616 c 0.42469,-0.42468 0.41659,-0.52495 -0.057,-0.7067 -0.74067,-0.28422 -1.20845,0.0475 -0.96428,0.68374 0.24685,0.64328 0.3976,0.64667 1.02131,0.023 z m -3.78644,-8.21275 c 0.25466,-0.10191 0.55893,-0.0894 0.67616,0.0278 0.11722,0.11722 -0.0911,0.2006 -0.46303,0.18528 -0.41096,-0.0169 -0.49455,-0.10052 -0.21313,-0.21313 z"
       inkscape:label="strawberry" /></g></svg>
