<?xml version="1.0" encoding="UTF-8" standalone="no"?>
<!-- Created with Inkscape (http://www.inkscape.org/) -->

<svg
   width="178.78581mm"
   height="248.6739mm"
   viewBox="0 0 178.78581 248.6739"
   version="1.1"
   id="svg5"
   xml:space="preserve"
   xmlns:inkscape="http://www.inkscape.org/namespaces/inkscape"
   xmlns:sodipodi="http://sodipodi.sourceforge.net/DTD/sodipodi-0.dtd"
   xmlns="http://www.w3.org/2000/svg"
   xmlns:svg="http://www.w3.org/2000/svg"><sodipodi:namedview
     id="namedview7"
     pagecolor="#ffffff"
     bordercolor="#666666"
     borderopacity="1.0"
     inkscape:showpageshadow="2"
     inkscape:pageopacity="0.0"
     inkscape:pagecheckerboard="0"
     inkscape:deskcolor="#d1d1d1"
     inkscape:document-units="mm"
     showgrid="false" /><defs
     id="defs2" /><g
     inkscape:label="Layer 1"
     inkscape:groupmode="layer"
     id="layer1"
     transform="translate(-249.5632,-82.69871)"><path
       style="fill:#000000;stroke-width:0.352778"
       d="m 375.46183,331.22754 c -3.36985,-0.29954 -5.71151,-0.84056 -7.97193,-1.84186 -2.48831,-1.10224 -2.94052,-1.6416 -2.22857,-2.65805 0.7446,-1.06306 1.89169,-0.97122 4.66648,0.37365 1.91435,0.92783 2.88987,1.16832 5.17521,1.27581 4.95708,0.23315 9.88566,-0.92333 13.12986,-3.08089 1.20325,-0.80022 2.3145,-1.45635 2.46945,-1.45808 0.34912,-0.004 4.13166,-3.22205 5.0679,-4.31174 2.02045,-2.35162 4.72012,-5.93067 5.52656,-7.32679 0.50435,-0.87312 1.19621,-1.905 1.53746,-2.29305 0.72418,-0.82351 2.08453,-4.14202 2.08453,-5.08515 0,-0.35711 0.21796,-0.83019 0.48436,-1.05129 0.2664,-0.22109 0.75138,-1.39147 1.07772,-2.60083 0.71744,-2.65872 1.30536,-4.25185 1.66069,-4.50012 0.14532,-0.10153 0.2912,-0.97465 0.32418,-1.94028 0.033,-0.96562 0.35087,-2.86692 0.70642,-4.22511 0.35555,-1.3582 0.6441,-2.86632 0.64123,-3.35139 -0.0225,-3.79247 0.89018,-14.5403 1.28957,-15.18654 0.12651,-0.2047 0.31242,-2.94366 0.41313,-6.08658 0.10896,-3.40078 0.3328,-5.80819 0.55285,-5.94607 0.20337,-0.12743 0.49389,-1.71493 0.64561,-3.52778 0.15172,-1.81285 0.51912,-5.15981 0.81644,-7.4377 0.29732,-2.27788 0.45899,-4.35425 0.35925,-4.61416 -0.0997,-0.2599 0.14701,-1.88868 0.54832,-3.6195 0.40131,-1.73083 0.80742,-3.86133 0.90246,-4.73445 0.095,-0.87313 0.3964,-2.38125 0.66968,-3.35139 0.46439,-1.64852 0.71156,-3.33097 1.0659,-7.2553 0.08,-0.88596 0.30967,-1.99721 0.51039,-2.46944 0.31744,-0.74685 1.20467,-4.71518 1.65111,-7.38499 0.0811,-0.48507 0.37774,-1.99319 0.65916,-3.35139 0.28142,-1.35819 0.78232,-3.89819 1.11311,-5.64444 0.3308,-1.74625 0.76269,-3.4925 0.95975,-3.88056 0.63881,-1.25789 1.14757,-3.95504 2.29577,-12.17083 0.39318,-2.8134 0.79504,-5.59153 0.89301,-6.17361 0.098,-0.58209 0.21407,-1.85209 0.258,-2.82223 0.0439,-0.97013 0.17019,-1.92263 0.28061,-2.11666 0.11041,-0.19403 0.20318,-0.50936 0.20615,-0.70073 0.01,-0.62112 1.08412,-0.57567 1.8375,0.0777 0.80958,0.70214 0.81005,1.28372 0.004,4.32715 -0.28281,1.06716 -0.39432,1.98674 -0.2478,2.04353 0.14651,0.0568 0.0571,0.85053 -0.19872,1.76389 -0.25582,0.91335 -0.54007,3.40689 -0.63168,5.5412 -0.0916,2.1343 -0.42947,4.91243 -0.75081,6.17361 -0.73239,2.87446 -2.2678,9.76179 -2.43801,10.93611 -0.0703,0.48507 -0.38313,1.59632 -0.69516,2.46944 -0.31202,0.87313 -0.56803,2.06375 -0.5689,2.64584 -0.002,1.06593 -1.26615,6.80259 -1.78857,8.11389 -0.1546,0.38805 -0.38135,1.65805 -0.50389,2.82222 -0.12253,1.16417 -0.37658,2.98979 -0.56456,4.05694 -0.18798,1.06716 -0.43765,2.77665 -0.55483,3.79888 -0.11718,1.02223 -0.35191,1.94441 -0.52161,2.04929 -0.1697,0.10488 -0.30855,0.67327 -0.30855,1.26309 0,0.58982 -0.22821,1.57264 -0.50713,2.18404 -0.3195,0.70038 -0.56348,2.7431 -0.65947,5.52137 -0.0838,2.42535 -0.24977,4.80025 -0.36884,5.27755 -0.11906,0.4773 -0.30824,1.50917 -0.4204,2.29305 -0.11216,0.78388 -0.44396,3.01274 -0.73734,4.95301 -0.29338,1.94028 -0.51091,4.71841 -0.4834,6.17362 0.0275,1.4552 0.0504,3.0427 0.0509,3.52777 3.5e-4,0.48507 -0.27561,2.23132 -0.61354,3.88056 -0.45879,2.23907 -0.62436,4.87513 -0.65365,10.40695 -0.0233,4.40553 -0.22738,8.45116 -0.50344,9.98115 -0.25533,1.41505 -0.3681,2.9558 -0.25062,3.42389 0.13466,0.53654 -0.0482,1.31718 -0.49473,2.11222 -0.38959,0.69363 -0.70834,1.42747 -0.70834,1.63075 0,0.20329 -0.54678,1.50815 -1.21506,2.89969 -0.66828,1.39154 -1.39051,3.31619 -1.60495,4.27699 -0.40807,1.82816 -1.69001,4.4267 -2.18387,4.4267 -0.1583,0 -0.28782,0.40042 -0.28782,0.88982 0,0.55653 -0.5616,1.49909 -1.49931,2.51638 -0.82462,0.89461 -1.41993,1.65464 -1.32291,1.68896 0.79066,0.27973 -9.13845,10.85582 -10.62205,11.31417 -0.46378,0.14329 -1.55761,0.76349 -2.43073,1.37824 -2.30792,1.62496 -5.23457,3.10325 -5.64342,2.85057 -0.19459,-0.12027 -0.3538,-0.0736 -0.3538,0.10376 0,0.17734 -1.07157,0.42725 -2.38125,0.55536 -1.30969,0.12811 -2.77813,0.27494 -3.2632,0.32628 -0.48507,0.0513 -1.99319,-0.005 -3.35139,-0.12615 z M 356.05906,328.702 c -0.58209,-0.20638 -1.50275,-0.68649 -2.04592,-1.06693 -0.54317,-0.38044 -2.0513,-1.27796 -3.35139,-1.9945 -1.30009,-0.71654 -3.63017,-2.24796 -5.17795,-3.40314 -1.54777,-1.15519 -3.55969,-2.57659 -4.47092,-3.15867 -0.91122,-0.58208 -2.37575,-1.66659 -3.2545,-2.41001 -0.87875,-0.74341 -1.81133,-1.38302 -2.07239,-1.42133 -0.8146,-0.11956 -5.54622,-3.2929 -5.29077,-3.54834 0.13328,-0.13329 0.009,-0.1543 -0.27608,-0.0467 -0.29034,0.10956 -1.31489,-0.40917 -2.32873,-1.17905 -0.99568,-0.75608 -2.1863,-1.48951 -2.64584,-1.62984 -0.45953,-0.14032 -1.07393,-0.46344 -1.36533,-0.71803 -0.2914,-0.25458 -0.9264,-0.6323 -1.41111,-0.83937 -0.48471,-0.20707 -1.11942,-0.53572 -1.41046,-0.73032 -0.29105,-0.19461 -0.92605,-0.51377 -1.41112,-0.70924 -0.48506,-0.19547 -1.67569,-0.82971 -2.64583,-1.40941 -0.97014,-0.5797 -2.00201,-1.16405 -2.29305,-1.29856 -0.29105,-0.1345 -1.47375,-0.92892 -2.62823,-1.76538 -1.15448,-0.83645 -2.22324,-1.52082 -2.37503,-1.52082 -0.15179,0 -1.28016,-0.61463 -2.50749,-1.36583 -1.22732,-0.75121 -2.61048,-1.48612 -3.07367,-1.63313 -1.12898,-0.35832 -4.08069,-2.1513 -5.81975,-3.53514 -0.77611,-0.61758 -1.88736,-1.38548 -2.46944,-1.70645 -1.85194,-1.02117 -9.34761,-7.09027 -9.34963,-7.57021 -7.1e-4,-0.13235 -0.48589,-0.55813 -1.07852,-0.94619 -0.59264,-0.38805 -1.84846,-1.73743 -2.79073,-2.99861 -0.94226,-1.26118 -2.14524,-2.68993 -2.67328,-3.175 -0.52804,-0.48507 -2.3843,-2.54882 -4.12502,-4.58611 -1.74072,-2.03729 -4.53709,-5.13528 -6.21416,-6.88442 -7.04119,-7.34379 -10.36047,-11.50412 -9.56882,-11.99339 0.17827,-0.11017 1.89995,1.27445 3.82595,3.07694 1.92601,1.80249 3.95499,3.67693 4.50885,4.16541 0.55386,0.48849 1.49893,1.44099 2.10014,2.11667 0.60122,0.67568 1.48478,1.54601 1.96348,1.93407 0.4787,0.38805 1.71529,1.73743 2.74798,2.99861 3.33544,4.07343 4.27273,5.0055 4.82172,4.79483 0.28756,-0.11035 0.43864,-0.0644 0.33571,0.10215 -0.17263,0.27933 4.99871,6.26859 8.5229,9.87093 0.82796,0.84631 1.50537,1.66124 1.50537,1.81094 0,0.14971 0.27781,0.36823 0.61736,0.48562 0.71626,0.24761 2.06506,1.11803 3.49414,2.25487 5.73445,4.56178 7.16231,5.51344 12.08879,8.0571 2.21619,1.14428 4.66297,2.67582 5.43727,3.40342 0.77431,0.72761 1.67734,1.32292 2.00674,1.32292 0.3294,0 1.15936,0.38034 1.84437,0.84519 0.685,0.46485 1.85809,1.06016 2.60686,1.32292 0.74878,0.26275 1.87515,0.96787 2.50305,1.56694 0.6279,0.59908 1.76334,1.27549 2.52319,1.50315 0.75985,0.22766 2.36536,1.08688 3.56778,1.90939 1.20243,0.82251 2.68638,1.79545 3.29765,2.16209 0.61128,0.36665 1.58766,0.95485 2.16974,1.30711 0.58209,0.35225 1.69334,0.94312 2.46945,1.31302 0.77611,0.36991 2.14984,1.32953 3.05274,2.13249 0.9029,0.80296 1.8213,1.45992 2.04089,1.45992 0.54757,0 2.02753,0.95751 3.79079,2.45259 2.37095,2.01034 3.51919,2.82268 4.67936,3.3105 0.59853,0.25166 0.97977,0.56605 0.84719,0.69863 -0.13259,0.13258 0.0192,0.24106 0.33726,0.24106 1.1734,0 6.95082,3.11353 8.79168,4.73795 0.62019,0.54726 0.50808,1.54165 -0.23085,2.04762 -0.48109,0.32943 -0.8341,0.30291 -2.14239,-0.16094 z m 4.75652,-0.27981 c -0.78517,-0.68098 -0.82613,-0.96534 -0.97824,-6.79097 -0.30016,-11.49667 -0.21442,-15.09772 0.45559,-19.13302 0.25772,-1.55222 0.5724,-4.01285 0.69927,-5.46805 0.12688,-1.45521 0.37245,-3.29048 0.54572,-4.07837 0.17327,-0.78789 0.47754,-3.08977 0.67617,-5.11528 0.19862,-2.02551 0.43116,-4.07962 0.51676,-4.56469 0.54217,-3.07249 0.92818,-15.07256 0.83975,-26.10556 -0.0568,-7.08201 0.0555,-14.38451 0.24957,-16.22778 0.39112,-3.71572 0.42304,-15.27957 0.0678,-24.54779 -0.1799,-4.69312 -0.12916,-6.16627 0.22929,-6.65647 0.40332,-0.55158 0.55716,-0.56974 1.24257,-0.14666 0.72183,0.44556 0.7752,0.71454 0.69081,3.48148 -0.0503,1.64923 0.0112,3.16345 0.13666,3.36493 0.29838,0.47915 0.75365,10.7698 0.72514,16.39063 -0.0123,2.42534 -0.19918,7.38912 -0.41529,11.0306 -0.23984,4.0415 -0.31072,11.32563 -0.18193,18.69723 0.14851,8.50048 0.0814,13.32984 -0.2267,16.30967 -0.24072,2.32833 -0.45269,5.10646 -0.47105,6.17361 -0.0183,1.06715 -0.14378,2.02368 -0.27874,2.12562 -0.24969,0.18859 -0.7046,3.98324 -1.35225,11.27994 -0.19805,2.23132 -0.54161,5.08882 -0.76346,6.35 -0.51561,2.9311 -0.49544,19.55832 0.0254,20.89902 0.40678,1.04718 0.23612,1.85782 -0.59479,2.82529 -0.67211,0.78257 -0.83768,0.77416 -1.83795,-0.0934 z m -28.27634,-39.41132 c -0.90617,-0.072 -1.83842,-0.36092 -2.07166,-0.64196 -0.23325,-0.28104 -0.70271,-0.51099 -1.04325,-0.51099 -0.34054,0 -0.81679,-0.23812 -1.05833,-0.52916 -0.24154,-0.29105 -0.62564,-0.52917 -0.85355,-0.52917 -0.4628,0 -2.63189,-2.24869 -3.25303,-3.37242 -1.60837,-2.90976 -2.10344,-14.99926 -0.85758,-20.94219 0.3833,-1.82837 0.61579,-3.45556 0.51665,-3.61597 -0.0991,-0.1604 -0.0302,-0.29165 0.15316,-0.29165 0.18337,0 0.58328,-0.52657 0.88868,-1.17016 0.3054,-0.64359 1.50615,-1.95327 2.66833,-2.91041 1.16218,-0.95715 2.04346,-1.94694 1.95841,-2.19955 -0.0851,-0.25261 0.004,-0.36133 0.1976,-0.24159 0.43688,0.27001 3.83734,-2.30655 3.85797,-2.92322 0.0111,-0.33115 0.24667,-0.29733 0.89697,0.12876 0.48507,0.31783 0.88194,0.45564 0.88194,0.30624 0,-0.1494 0.3175,0.0157 0.70556,0.36688 0.7008,0.63421 0.97638,1.94028 0.40941,1.94028 -0.37602,0 -1.11497,1.60087 -1.11497,2.41548 0,0.34012 -0.18941,0.80782 -0.42093,1.03934 -0.32605,0.32605 -0.52445,0.17471 -0.88023,-0.67145 -0.25262,-0.60081 -0.39587,-1.19504 -0.31832,-1.32051 0.0775,-0.12548 -0.22556,-0.22814 -0.67357,-0.22814 -0.44801,0 -0.74709,0.10919 -0.66461,0.24264 0.0825,0.13345 -0.26531,0.53032 -0.77285,0.88194 -2.15209,1.49093 -3.0062,2.93236 -1.73754,2.93236 0.29104,0 0.5304,0.11907 0.53192,0.26459 0.001,0.14552 0.37142,0.43535 0.82201,0.64408 0.6447,0.29863 1.07515,0.24226 2.02022,-0.26459 0.66052,-0.35424 1.65628,-0.64408 2.2128,-0.64408 0.55651,0 1.7593,-0.42017 2.67287,-0.93371 1.33958,-0.75301 1.91498,-0.88607 2.97325,-0.68753 1.61345,0.30268 3.20022,2.30189 3.54669,4.46855 0.12841,0.80305 0.45358,1.88572 0.72259,2.40594 0.26902,0.52022 0.58977,1.89261 0.71279,3.04977 0.12301,1.15716 0.43698,3.1358 0.69771,4.39698 0.51659,2.49887 0.27177,7.00837 -0.45411,8.3647 -0.22405,0.41863 -0.40735,1.17782 -0.40735,1.6871 0,0.50928 -0.12507,0.84866 -0.27792,0.75419 -0.15286,-0.0945 -0.50087,0.3319 -0.77336,0.94749 -0.6846,1.54664 -5.32344,6.01644 -7.17334,6.91196 -0.83773,0.40554 -1.98896,0.70873 -2.55829,0.67376 -0.56933,-0.035 -1.77656,-0.12253 -2.68274,-0.19458 z m 4.46981,-3.86888 c 1.20363,-0.6958 4.66195,-4.47369 4.86062,-5.30976 0.16261,-0.68434 0.0473,-0.79375 -0.8367,-0.79375 -0.56392,0 -1.0253,0.12452 -1.0253,0.27671 0,0.1522 -0.48725,0.56454 -1.08276,0.91632 -0.59552,0.35178 -1.0039,0.71846 -0.90751,0.81484 0.39833,0.39834 -3.49074,3.28379 -4.42595,3.28379 -1.80606,0 -4.56157,-4.10451 -5.26023,-7.83546 -0.51801,-2.76623 -0.61814,-7.55205 -0.2125,-10.1562 0.19645,-1.26118 0.37214,-2.71627 0.39043,-3.23352 0.0183,-0.51726 0.39043,-1.25025 0.82699,-1.62888 0.98949,-0.85818 1.01812,-1.88332 0.0691,-2.47596 -0.52567,-0.32829 -0.66168,-0.66636 -0.4954,-1.23139 0.21449,-0.72891 0.17192,-0.71921 -0.66375,0.15132 -0.62151,0.64744 -1.01068,1.61255 -1.28031,3.175 -0.21305,1.23465 -0.62782,3.34163 -0.9217,4.68219 -0.45271,2.06509 -0.46807,2.95415 -0.10057,5.82083 0.23857,1.86091 0.46209,4.17721 0.49673,5.14735 0.0994,2.78484 0.54647,4.47581 1.58547,5.99722 1.26541,1.85295 2.08731,2.55514 3.16247,2.70187 1.87811,0.2563 5.14813,0.0864 5.82083,-0.30252 z m -0.55136,-9.42816 c 0.71642,-0.86323 -0.21993,-4.08369 -1.18733,-4.08369 -0.11087,0 -0.20158,0.78077 -0.20158,1.73504 0,2.64714 0.47482,3.45006 1.38891,2.34865 z m -1.38891,-9.90452 c -0.4616,-0.55619 -2.11667,-0.74009 -2.11667,-0.23519 0,0.53369 0.45663,0.76436 1.5131,0.76436 0.88688,0 0.97709,-0.0791 0.60357,-0.52917 z m 6.59066,-5.66649 c 0.0596,-0.18191 -0.25211,-0.78127 -0.6927,-1.33193 -0.61703,-0.77117 -1.04023,-0.97379 -1.84205,-0.88194 l -1.04097,0.11925 1.34562,1.34202 c 1.26918,1.2658 1.983,1.50669 2.2301,0.7526 z m -91.25733,-13.45124 c -0.87637,-0.13753 -0.88151,-0.16003 -0.81271,-3.56312 0.0381,-1.88359 0.23263,-6.12346 0.43236,-9.42193 0.19972,-3.29847 0.53554,-9.33097 0.74627,-13.40556 0.21072,-4.07458 0.55086,-9.78958 0.75585,-12.7 0.205,-2.91042 0.42471,-8.46667 0.48825,-12.34722 0.0635,-3.88056 0.12415,-7.254 0.1347,-7.49653 0.0279,-0.6406 1.0775,-0.54259 1.0775,0.10061 0,0.29786 0.27782,0.96573 0.61736,1.48414 0.52504,0.8016 0.62226,1.86808 0.65006,7.13134 0.018,3.40382 -0.10143,6.76267 -0.26536,7.4641 -0.16394,0.70143 -0.37386,5.14643 -0.46651,9.87778 -0.2021,10.32184 -0.45385,15.75476 -0.90493,19.52931 -0.1849,1.54713 -0.33617,4.60557 -0.33617,6.79652 0,3.49936 -0.53217,6.89678 -1.05604,6.74182 -0.0983,-0.0291 -0.57556,-0.11514 -1.06063,-0.19126 z m 31.4685,-3.80722 c -0.83393,-0.65605 -1.6304,-1.24319 -1.76993,-1.30476 -1.4641,-0.64608 -4.65135,-7.03576 -4.65135,-9.32486 0,-0.43979 -0.13067,-0.88039 -0.29038,-0.97909 -0.39851,-0.24629 -0.18544,-10.26193 0.23502,-11.04781 0.1861,-0.34783 0.44619,-1.48204 0.57798,-2.52046 0.13179,-1.03843 0.47438,-2.54655 0.76132,-3.35139 0.28694,-0.80485 0.66959,-2.23132 0.85033,-3.16995 0.33592,-1.74441 2.22702,-6.05647 2.99134,-6.82079 0.33086,-0.33087 0.59126,-0.30776 1.18014,0.10471 0.88752,0.62164 0.82451,1.24646 -0.40465,4.01296 -0.47414,1.06715 -1.06175,3.05152 -1.30579,4.40972 -0.24405,1.35819 -0.58408,2.9297 -0.75562,3.49222 -0.32562,1.06775 -0.42617,3.03417 -0.15515,3.03417 0.0862,0 0.72797,-0.5233 1.42611,-1.16288 0.69815,-0.63959 2.05635,-1.46829 3.01824,-1.84155 0.96189,-0.37327 1.74384,-0.76279 1.73767,-0.86559 -0.006,-0.10281 -0.2443,-0.49508 -0.52916,-0.87171 -0.5461,-0.72201 -0.70175,-1.94284 -0.25337,-1.98726 0.14552,-0.0144 0.58372,-0.087 0.97378,-0.16128 1.03038,-0.19622 1.33674,0.11482 2.57493,2.61428 0.61314,1.23772 1.28965,2.46108 1.50335,2.71858 0.2137,0.25749 0.28182,0.64085 0.15137,0.85191 -0.13044,0.21106 0.0236,0.78179 0.34241,1.26829 0.40859,0.62358 0.63274,1.99806 0.75977,4.6588 0.0991,2.07583 0.40697,5.20299 0.68414,6.94924 0.27717,1.74625 0.50458,4.24475 0.50536,5.55222 10e-4,2.57684 -0.0805,2.74228 -2.70476,5.452 -1.43507,1.48182 -1.52666,1.51895 -3.70416,1.50125 -1.98881,-0.0162 -2.39835,-0.14846 -3.74894,-1.21097 z m 5.64655,-3.02772 c 0.37033,-0.498 0.75096,-1.4505 0.84583,-2.11667 0.0949,-0.66617 0.24254,-1.4179 0.32816,-1.67051 0.0856,-0.25261 0.0154,-0.37259 -0.15611,-0.26661 -0.17148,0.10598 -0.4028,-0.0445 -0.51406,-0.33446 -0.11125,-0.28992 -0.37538,-0.52714 -0.58695,-0.52714 -0.21157,0 -0.29073,0.15199 -0.17593,0.33775 0.22999,0.37213 -1.57528,1.42614 -2.44264,1.42614 -0.30067,0 -0.54668,-0.15875 -0.54668,-0.35278 0,-0.19402 -0.24599,-0.35277 -0.54666,-0.35277 -0.6392,0 -3.0736,-2.25937 -2.76592,-2.56705 0.11487,-0.11488 -0.31465,-1.48929 -0.95451,-3.05425 -1.13485,-2.77562 -2.08291,-3.69 -2.08291,-2.00892 0,1.27609 2.31039,8.52135 3.01532,9.4559 0.78136,1.03588 3.63336,2.8355 4.06795,2.5669 0.17879,-0.11049 0.32506,-0.0217 0.32506,0.19724 0,0.70279 1.4943,0.20281 2.19005,-0.73277 z m -1.77865,-7.45242 c 0.3688,-0.42523 0.59588,-0.96772 0.50463,-1.20553 -0.0913,-0.23781 0.0511,-0.51565 0.31627,-0.61742 1.23651,-0.47449 0.91499,-7.50488 -0.41747,-9.12864 -1.18095,-1.43911 -1.52169,-1.16068 -1.50482,1.22959 0.009,1.21268 0.22304,2.99256 0.4766,3.9553 0.4576,1.73745 0.39267,3.01206 -0.15347,3.01206 -0.15651,0 -0.77299,-0.41098 -1.36996,-0.9133 l -1.0854,-0.9133 v 0.89034 c 0,1.2277 0.61014,2.72451 1.4961,3.67029 0.91155,0.97309 0.91144,0.97308 1.73752,0.0206 z m -3.69819,-6.34856 c -0.11261,-0.28142 -0.19621,-0.19783 -0.21313,0.21314 -0.0153,0.37188 0.0681,0.58024 0.18528,0.46302 0.11723,-0.11723 0.12976,-0.4215 0.0278,-0.67616 z m 33.11609,2.92005 c -0.13068,-0.21145 -0.51268,-0.38446 -0.84889,-0.38446 -0.74226,0 -3.29273,-2.57869 -4.0589,-4.10381 -0.30537,-0.60786 -0.64825,-1.63324 -0.76195,-2.27863 -0.1137,-0.64539 -0.37103,-1.37141 -0.57185,-1.61338 -0.20081,-0.24196 -0.25841,-0.6126 -0.12799,-0.82362 0.13042,-0.21103 0.0684,-0.58698 -0.1378,-0.83545 -0.6021,-0.72549 -0.83928,-5.11467 -0.43143,-7.984 0.73069,-5.14061 0.97766,-5.88356 4.29015,-12.90568 0.78033,-1.65421 1.56806,-2.4302 2.76343,-2.72222 0.85026,-0.20772 1.80593,0.40249 1.80593,1.1531 0,0.21574 0.31562,0.82239 0.70137,1.34811 0.38575,0.52572 1.42606,3.09898 2.3118,5.71836 0.88575,2.61937 1.84013,5.26274 2.12086,5.87415 0.28073,0.6114 0.51041,1.28609 0.51041,1.4993 0,0.21321 0.12631,0.38766 0.28068,0.38766 0.37372,0 0.58548,2.01994 0.57325,5.46805 -0.01,2.80531 -0.65708,5.26312 -1.52737,5.80099 -0.23217,0.14349 -0.37407,0.41387 -0.31532,0.60083 0.13375,0.42563 -2.25973,4.35022 -3.12889,5.13045 -0.82664,0.74207 -3.12673,1.18924 -3.44749,0.67025 z m 2.21029,-4.12619 c 0.45031,-0.69495 0.73756,-1.47514 0.63833,-1.73374 -0.29505,-0.76888 -3.13827,-1.84869 -4.38566,-1.66562 -0.6206,0.0911 -1.12837,0.31313 -1.12837,0.49342 0,0.69836 2.87676,4.17799 3.45071,4.17386 0.33343,-0.002 0.97467,-0.57296 1.42499,-1.26792 z m -3.6047,-10.81035 c -0.002,-1.98879 -0.0634,-3.13973 -0.13561,-2.55764 -0.0722,0.58208 -0.27788,1.20914 -0.45698,1.39347 -0.63793,0.65655 -0.20591,4.78014 0.50081,4.78014 0.0528,0 0.0941,-1.62719 0.0918,-3.61597 z m 5.26498,-4.86621 c 0.12519,-0.20256 -0.0242,-0.7526 -0.33196,-1.22231 -0.30777,-0.46971 -0.55958,-1.11292 -0.55958,-1.42936 0,-0.31644 -0.22567,-0.99672 -0.50149,-1.51172 -0.57704,-1.07742 -0.96388,-2.08469 -1.13556,-2.95679 -0.15791,-0.80212 -1.22937,-2.03653 -1.7677,-2.03653 -0.34806,0 -1.36079,2.65064 -1.55004,4.05694 -0.0261,0.19403 0.55639,0.69085 1.29444,1.10403 1.33908,0.74966 2.24158,1.76977 2.376,2.68562 0.17457,1.18948 1.68746,2.10041 2.17589,1.31012 z m 57.14041,7.18336 c -0.38806,-0.0818 -1.02306,-0.28688 -1.41111,-0.45581 -0.81131,-0.35319 -2.55084,-0.81566 -3.40904,-0.90633 -0.32275,-0.0341 -0.97423,-0.36674 -1.44775,-0.7392 -0.67549,-0.53135 -0.79849,-0.84598 -0.57108,-1.46075 0.34429,-0.9307 0.20717,-0.9139 2.07648,-0.25437 0.8249,0.29104 1.94477,0.52917 2.4886,0.52917 0.54383,0 1.21782,0.22904 1.49777,0.50899 0.38502,0.38502 1.27184,0.48303 3.64117,0.40242 3.45798,-0.11766 4.56697,-0.32846 6.65996,-1.266 0.77611,-0.34764 2.83986,-1.23222 4.58611,-1.96571 1.74625,-0.73349 3.58488,-1.63287 4.08586,-1.99862 0.50097,-0.36575 1.13597,-0.71026 1.41111,-0.76559 1.59402,-0.32053 4.84239,-1.89365 6.37185,-3.08576 0.70702,-0.55108 1.38874,-1.00196 1.51493,-1.00196 0.26948,0 7.99303,-6.438 9.34259,-7.78755 1.07705,-1.07705 3.5556,-6.1723 3.5556,-7.30937 0,-0.42794 0.14154,-0.77808 0.31454,-0.77808 0.17299,0 0.4075,-0.3704 0.52112,-0.82312 0.29561,-1.17781 1.98703,-4.11577 2.3695,-4.11577 0.17744,0 0.32262,-0.22591 0.32262,-0.50203 0,-0.50355 1.96291,-2.6777 2.40839,-2.66756 0.59988,0.0137 1.1593,0.66756 1.45594,1.7019 0.187,0.65203 0.19039,1.04617 0.008,0.93346 -0.472,-0.29171 -3.23233,3.43583 -4.11565,5.55777 -0.42485,1.0206 -1.20207,2.96688 -1.72716,4.32508 -1.07667,2.78492 -2.16369,4.30185 -5.03722,7.02934 -2.69059,2.55385 -6.25094,5.49427 -6.65264,5.49427 -0.1803,0 -0.70321,0.39958 -1.16202,0.88796 -0.78027,0.83056 -4.65692,2.99259 -5.36589,2.99259 -0.17599,0 -0.8403,0.39688 -1.47626,0.88195 -0.63596,0.48507 -1.41912,0.88194 -1.74035,0.88194 -0.32124,0 -0.58407,0.17819 -0.58407,0.39598 0,0.27358 -0.16356,0.26023 -0.52916,-0.0432 -0.31011,-0.25737 -0.52917,-0.28968 -0.52917,-0.078 0,0.46903 -1.97462,1.62767 -3.73289,2.19034 -0.76031,0.24331 -1.5332,0.58195 -1.71753,0.75254 -0.18432,0.17059 -0.62587,0.31016 -0.98121,0.31016 -0.35534,0 -0.73026,0.2194 -0.83317,0.48756 -0.14994,0.39075 -2.72633,1.10706 -3.27909,0.91169 -0.0753,-0.0266 -0.26775,0.1636 -0.42762,0.4227 -0.20729,0.33598 -1.28105,0.48324 -3.7436,0.51339 -1.89912,0.0233 -3.77045,-0.0246 -4.1585,-0.10638 z m -20.74346,-10.44144 c -1.2029,-1.21839 -3.4571,-3.70417 -5.00932,-5.52395 -1.55222,-1.81978 -3.69535,-4.29744 -4.7625,-5.50592 -1.86192,-2.1085 -2.73321,-3.21141 -3.88056,-4.91215 -1.70464,-2.52683 -6.36104,-8.69734 -8.56147,-11.34538 -1.2094,-1.45542 -3.79177,-5.01701 -4.66769,-6.43767 -1.20055,-1.94718 -4.20715,-5.33467 -4.73482,-5.33467 -0.19733,0 -0.91292,0.86625 -1.5902,1.92501 -0.93601,1.46323 -1.63654,2.10957 -2.92021,2.69435 -0.92883,0.42314 -2.16921,1.13577 -2.7564,1.58365 -1.81036,1.38082 -3.02487,1.37423 -6.07051,-0.0329 -1.48972,-0.6883 -3.01653,-1.5247 -3.3929,-1.85868 -1.55898,-1.38335 -4.11135,-4.75155 -4.11135,-5.42546 0,-0.39857 -0.45506,-1.30314 -1.01123,-2.01016 -0.55618,-0.70702 -1.13058,-1.68236 -1.27645,-2.16743 -0.14587,-0.48507 -0.46447,-1.12007 -0.708,-1.41111 -0.24352,-0.29104 -0.65237,-1.60889 -0.90854,-2.92854 -0.36856,-1.89869 -0.37789,-2.72791 -0.0447,-3.97381 0.23161,-0.86595 0.42498,-2.4056 0.42973,-3.42147 0.005,-1.01586 0.1803,-2.56139 0.39013,-3.43452 0.20983,-0.87312 0.40439,-1.89876 0.43235,-2.27918 0.028,-0.38043 0.54573,-1.02511 1.15059,-1.43263 l 1.09976,-0.74095 -1.57819,-2.09514 c -0.86799,-1.15234 -2.47414,-3.04103 -3.5692,-4.19709 -2.32667,-2.4563 -9.1151,-8.36517 -11.36504,-9.89251 -3.34975,-2.27393 -5.91573,-4.34266 -8.74281,-7.04857 -2.69582,-2.58027 -5.34288,-5.93362 -5.34288,-6.76847 0,-0.18615 -0.47625,-0.79473 -1.05834,-1.3524 -0.58208,-0.55768 -1.05833,-1.14436 -1.05833,-1.30374 0,-0.35633 -4.41056,-6.88511 -5.33097,-7.89122 -0.36644,-0.40057 -0.66625,-0.8877 -0.66625,-1.08253 0,-0.19483 -1.09249,-1.70474 -2.42776,-3.35537 -1.78525,-2.20687 -2.51973,-3.43232 -2.77525,-4.63039 -0.29427,-1.37974 -0.26014,-1.66746 0.2229,-1.87866 1.16585,-0.50974 1.40067,-0.38599 2.30854,1.21662 1.49391,2.6371 1.70714,2.9485 3.41618,4.98891 0.89461,1.06806 1.88906,2.41818 2.20989,3.00026 0.58632,1.06377 2.10198,3.31379 4.08928,6.07059 0.58856,0.81646 1.07011,1.6499 1.07011,1.85208 0,0.20219 0.15875,0.36761 0.35278,0.36761 0.19402,0 0.35277,0.17559 0.35277,0.39021 0,0.21461 0.47625,0.99152 1.05834,1.72646 0.58208,0.73494 1.05833,1.44891 1.05833,1.58659 0,0.13769 0.67249,1.14943 1.49442,2.24831 1.91542,2.56084 7.96096,7.88621 12.26391,10.803 2.10732,1.42846 5.25023,4.14226 8.46667,7.31068 4.9388,4.86508 9.51853,9.76126 9.52289,10.1809 0.003,0.29864 1.58823,1.73719 1.9142,1.73719 0.15351,0 0.75077,-0.39688 1.32725,-0.88195 0.57647,-0.48507 1.42345,-0.88194 1.88218,-0.88194 0.45874,0 0.93217,-0.15875 1.05209,-0.35278 0.36053,-0.58335 3.22973,-0.3981 4.84126,0.31257 3.02152,1.33247 4.18397,1.8041 4.44668,1.8041 0.51499,0 4.25983,3.7115 4.62731,4.58611 0.20381,0.48507 0.51032,1.12007 0.68113,1.41111 0.4939,0.84154 1.10223,2.9745 1.10223,3.86467 0,2.19786 -1.84686,5.66033 -3.01918,5.66033 -0.53751,0 -0.86137,0.80153 -0.86137,2.13179 0,0.66713 0.5146,1.65619 1.4993,2.8817 0.82462,1.02627 1.92477,2.42151 2.44478,3.10053 0.52,0.67903 1.43244,1.79022 2.02764,2.46932 0.5952,0.67909 1.08255,1.33856 1.083,1.46547 3.5e-4,0.12692 1.03271,1.5193 2.29389,3.09419 1.26118,1.57489 2.29305,2.94794 2.29305,3.05122 0,0.33164 3.74928,5.24161 4.53395,5.93754 0.41674,0.36962 0.75772,0.82285 0.75772,1.00717 0,0.18433 0.44909,0.99316 0.99798,1.79741 0.54888,0.80425 1.43313,2.09727 1.96499,2.87339 0.53186,0.77611 1.70996,2.20971 2.618,3.18579 0.90803,0.97608 2.51593,2.80171 3.5731,4.05695 2.1871,2.59689 6.07412,6.46094 7.75766,7.71184 1.42458,1.05848 1.93359,2.28034 1.34356,3.22514 -0.77806,1.24587 -1.92253,0.8362 -4.25014,-1.52137 z m -38.6996,-37.20798 c 2.25664,-1.58072 3.56984,-3.61204 2.96207,-4.58189 -0.56096,-0.89515 -2.32399,-1.47591 -2.53757,-0.83589 -0.0901,0.27001 -0.73499,1.12314 -1.43308,1.89585 -1.16213,1.28634 -2.6895,4.91005 -2.25337,5.34617 0.22301,0.22302 0.7998,-0.0996 3.26195,-1.82424 z m -7.69232,-2.8219 c -0.0701,-0.73421 -0.58069,-1.95088 -1.14745,-2.73403 -3.08067,-4.25689 -2.84929,-3.6071 -2.82976,-7.94672 0.0153,-3.40522 0.13635,-4.22128 0.86069,-5.80343 0.63683,-1.39104 0.75586,-2.00506 0.48696,-2.51211 -0.57757,-1.0891 -2.10898,-2.6013 -2.4321,-2.4016 -0.16434,0.10156 -0.29879,0.91686 -0.29879,1.81176 0,0.9924 -0.21888,1.86895 -0.5611,2.2471 -0.43192,0.47727 -0.57353,1.49891 -0.61507,4.4375 l -0.054,3.8175 1.71982,3.52778 c 0.9459,1.94027 1.83323,3.60715 1.97186,3.70416 0.13862,0.097 0.35787,0.60894 0.48723,1.13761 0.19248,0.78667 1.56009,1.96302 2.35221,2.02327 0.10214,0.008 0.1289,-0.58119 0.0595,-1.30879 z m 5.92585,-5.11528 c 0.39633,-0.82462 0.91623,-1.77849 1.15534,-2.11971 0.35009,-0.49961 0.33171,-0.80186 -0.0944,-1.55231 -0.76248,-1.34278 -1.14136,-1.21069 -1.67855,0.58521 -0.60611,2.02632 -0.84345,4.58611 -0.42523,4.58611 0.17724,0 0.64653,-0.67468 1.04286,-1.4993 z m -6.17103,-5.90903 c -0.11991,-0.19403 0.0201,-0.35278 0.31114,-0.35278 0.29104,0 0.63885,-0.17747 0.77291,-0.39439 0.44327,-0.71721 0.78929,-2.78061 0.4663,-2.78061 -0.17359,0 -0.31563,-0.30052 -0.31563,-0.66781 0,-0.55104 -0.97066,-1.3488 -1.23641,-1.01619 -0.20633,0.25823 -0.45291,5.16875 -0.2688,5.35286 0.33617,0.33618 0.50956,0.24574 0.27049,-0.14108 z m 10.20089,-0.93184 c 0.1798,-0.46854 0.12622,-0.4994 -0.28073,-0.16167 -0.39024,0.32387 -0.54391,0.31529 -0.68578,-0.0383 -0.11627,-0.2898 -0.19298,-0.23094 -0.21069,0.16166 -0.0352,0.78108 0.88074,0.81087 1.1772,0.0383 z m 4.08661,-4.55225 c 0,-0.47282 -1.88995,-2.01292 -3.08075,-2.51047 -2.53216,-1.058 -2.74008,-0.9988 -2.74008,0.7801 v 1.5868 l 1.41111,-0.19513 c 0.77611,-0.10732 1.88736,-0.0454 2.46944,0.13767 1.25575,0.39488 1.94028,0.46581 1.94028,0.20103 z M 312.491,147.01864 c 0,-0.20648 -0.22416,-0.1722 -0.52917,0.0809 -0.29104,0.24154 -0.52916,0.49412 -0.52916,0.56129 0,0.0672 0.23812,0.0307 0.52916,-0.0809 0.29104,-0.11169 0.52917,-0.36426 0.52917,-0.56129 z m -48.78053,38.47947 c -3.18564,-0.27618 -3.62272,-0.40896 -5.73264,-1.74149 -1.25623,-0.79338 -2.28405,-1.51809 -2.28405,-1.61046 0,-0.58456 0.82742,-1.53214 1.33533,-1.52924 0.33272,0.002 1.41579,0.381 2.40682,0.84245 0.99103,0.46145 2.45864,0.94996 3.26135,1.08558 0.8027,0.13562 1.53317,0.36583 1.62324,0.51158 0.25475,0.41218 4.01497,-0.20706 4.94075,-0.81365 1.57085,-1.02926 3.07839,-4.26417 3.46218,-7.42923 l 0.35131,-2.89715 -1.3493,-2.53661 c -1.97977,-3.72186 -6.27718,-8.03162 -9.68033,-9.70816 -1.45431,-0.71646 -3.27987,-1.38596 -4.0568,-1.48777 -0.77693,-0.10182 -1.94072,-0.26568 -2.58618,-0.36415 l -1.17358,-0.17902 0.84836,-0.84836 c 2.45489,-2.45488 10.14806,0.1282 14.48019,4.86192 2.94835,3.22167 5.76999,7.09194 6.23501,8.55217 0.24715,0.77612 0.60035,1.70554 0.78489,2.06539 0.21458,0.41845 0.21281,0.57845 -0.005,0.44389 -0.20223,-0.12498 -0.39895,0.82664 -0.48462,2.34434 -0.14742,2.61182 -1.57664,6.43637 -2.64366,7.07432 -0.26334,0.15744 -0.38397,0.43969 -0.26808,0.62721 0.23298,0.37697 -1.18896,1.70206 -1.84637,1.72062 -0.22868,0.006 -0.62759,0.22355 -0.88648,0.48244 -0.69739,0.69739 -2.86232,0.86891 -6.73244,0.53338 z m 112.45692,-5.29033 c -5.7937,-0.62763 -8.89859,-1.91531 -10.04725,-4.16686 -0.58935,-1.15522 -0.6325,-1.69145 -0.36531,-4.5398 0.1924,-2.05106 0.49569,-3.42257 0.83102,-3.7579 0.29043,-0.29043 0.6292,-0.98858 0.75283,-1.55146 0.32124,-1.46259 3.27827,-4.55274 4.7645,-4.97899 0.67462,-0.19348 2.43493,-0.45255 3.9118,-0.57571 2.90405,-0.24219 4.78317,0.15908 5.75052,1.22798 0.53791,0.5944 2.56947,5.66955 2.94907,7.36724 0.10497,0.46949 0.33898,0.69233 0.57719,0.54964 0.29618,-0.17743 0.2983,-0.10738 0.008,0.26869 -0.21587,0.27978 -0.49047,1.37817 -0.61023,2.44086 -0.12243,1.08638 -0.52971,2.35412 -0.93043,2.89613 -0.39198,0.53018 -0.71797,1.16883 -0.72443,1.41922 -0.0277,1.07578 -2.47131,3.10109 -3.74152,3.10109 -0.42573,0 -0.82697,0.11907 -0.89165,0.26459 -0.0647,0.14552 -1.07009,0.1614 -2.23426,0.0353 z m -6.54026,-7.38891 c -0.23348,-0.56367 -0.564,-1.02485 -0.73448,-1.02485 -0.55362,0 -0.32721,2.08834 0.30738,2.83513 l 0.61736,0.72652 0.11712,-0.75598 c 0.0644,-0.41579 -0.0739,-1.21716 -0.30738,-1.78082 z m 5.92548,-7.37485 c 0.84042,0 1.8495,-0.86882 1.8495,-1.59244 0,-0.29 -0.27602,-0.43056 -0.68925,-0.35097 -0.78682,0.15152 -3.1913,2.23129 -3.1913,2.76033 0,0.19292 0.29031,0.088 0.64513,-0.23307 0.35483,-0.32112 0.97849,-0.58385 1.38592,-0.58385 z m 45.59394,6.32545 c -2.9824,-2.42977 -9.17222,-6.85798 -9.17222,-6.56183 0,0.0853 -0.58665,-0.38219 -1.30366,-1.03895 -0.71701,-0.65676 -1.45472,-1.19411 -1.63936,-1.19411 -0.18463,0 -0.98705,-0.5239 -1.78314,-1.16423 -0.7961,-0.64032 -2.99526,-2.25258 -4.88703,-3.58279 -1.89177,-1.33022 -3.43959,-2.54758 -3.43959,-2.70526 0,-0.15768 -0.20207,-0.20914 -0.44905,-0.11437 -0.24699,0.0948 -1.23917,-0.33738 -2.20486,-0.96034 -0.96569,-0.62297 -2.78768,-1.6755 -4.04886,-2.33896 -1.26118,-0.66345 -2.4828,-1.35976 -2.71472,-1.54733 -0.92495,-0.74813 -6.526,-3.46103 -6.79825,-3.29277 -0.15998,0.0989 -0.37407,-0.037 -0.47574,-0.30197 -0.10168,-0.26496 -0.62457,-0.59211 -1.16198,-0.72699 -0.53741,-0.13488 -1.40817,-0.55218 -1.93503,-0.92734 -0.52686,-0.37515 -1.0563,-0.6821 -1.17655,-0.6821 -0.26723,0 -3.68646,-2.24075 -4.47594,-2.93325 -0.31359,-0.27506 -1.34546,-0.79153 -2.29306,-1.14772 -0.9476,-0.35617 -2.18793,-0.92482 -2.75631,-1.26364 -0.56837,-0.33882 -1.16369,-0.53553 -1.32292,-0.43712 -0.15923,0.0984 -0.2895,0.036 -0.2895,-0.1386 0,-0.17464 -0.83344,-0.76465 -1.85209,-1.31112 -1.01864,-0.54647 -2.24895,-1.2675 -2.73402,-1.60229 -1.42247,-0.98178 -4.91741,-2.80737 -5.38782,-2.81434 -0.23816,-0.004 -1.14739,-0.49115 -2.02052,-1.08359 -1.8492,-1.25475 -2.88258,-1.2019 -4.77873,0.24436 -0.67017,0.51116 -1.22092,0.79148 -1.22389,0.62293 -0.003,-0.16855 -0.12203,-0.1241 -0.26458,0.0988 -0.42898,0.67072 -4.29216,2.64984 -4.69111,2.40327 -0.20399,-0.12607 -0.77955,-0.27408 -1.27903,-0.32891 -0.62983,-0.0691 -2.08323,-1.32551 -4.74235,-4.09943 -4.08613,-4.26256 -4.51638,-5.14886 -2.98616,-6.1515 0.47285,-0.30982 0.79694,-0.82066 0.73255,-1.15466 -0.0635,-0.32945 -0.12764,-0.8844 -0.14248,-1.23321 -0.0559,-1.31373 -3.75279,-3.8047 -4.34312,-2.92641 -0.17971,0.26738 -0.26084,0.25382 -0.26459,-0.0442 -0.006,-0.50706 -3.10738,-2.81491 -5.12067,-3.81093 -0.77612,-0.38396 -2.60174,-1.56431 -4.05695,-2.62301 -1.45521,-1.0587 -3.59833,-2.31129 -4.7625,-2.78353 -1.16417,-0.47225 -2.62574,-1.24685 -3.24795,-1.72132 -0.63941,-0.4876 -1.31499,-0.74914 -1.55381,-0.60154 -0.26129,0.16149 -0.33011,0.1116 -0.18035,-0.13073 0.15184,-0.24568 -0.91354,-0.93728 -2.8559,-1.85394 -4.60144,-2.17154 -8.7086,-4.22528 -12.27032,-6.13562 -1.74625,-0.9366 -4.20688,-2.09139 -5.46806,-2.56619 -1.26118,-0.47479 -2.4518,-0.99019 -2.64583,-1.14531 -0.19403,-0.15513 -1.70215,-0.74629 -3.35139,-1.31368 -1.64924,-0.5674 -3.57076,-1.41912 -4.27005,-1.89272 -0.69929,-0.47359 -1.96929,-1.3347 -2.82222,-1.91358 -0.85293,-0.57887 -2.58266,-1.86604 -3.84384,-2.86038 -1.26118,-0.99434 -3.06108,-2.09544 -3.99979,-2.44687 -1.94091,-0.72665 -3.16289,-2.12762 -2.32232,-2.66248 0.2757,-0.17543 0.7394,-0.22188 1.03044,-0.10321 0.29105,0.11867 1.20386,0.36798 2.02848,0.55403 0.82461,0.18605 1.4993,0.45227 1.4993,0.59161 0,0.13934 0.57326,0.46063 1.27391,0.71399 1.40648,0.50859 1.90684,0.86715 4.52446,3.24217 0.98249,0.89143 2.2626,1.85776 2.84469,2.14739 0.58208,0.28963 1.93145,1.00381 2.99861,1.58707 1.06715,0.58326 2.33715,1.15182 2.82222,1.26347 1.27435,0.29332 8.27479,3.18621 8.85642,3.65986 0.8588,0.69937 12.66071,6.47835 13.23016,6.47835 0.15228,0 0.86175,0.40531 1.57658,0.90069 0.71484,0.49538 1.62519,0.92521 2.023,0.95518 0.39781,0.0299 0.66156,0.15437 0.5861,0.27646 -0.142,0.22977 0.53085,0.62275 6.18329,3.61141 1.84327,0.9746 4.54202,2.59608 5.99723,3.60329 3.14381,2.17596 4.89053,3.07172 5.38902,2.76364 0.21211,-0.1311 0.2579,-0.0529 0.10956,0.18717 -0.164,0.26535 0.35117,0.6936 1.4448,1.20103 0.93482,0.43375 2.20043,1.14582 2.81246,1.58238 0.61204,0.43657 1.35287,0.79375 1.6463,0.79375 0.29343,0 0.58642,0.11907 0.6511,0.26459 0.0647,0.14552 0.67322,0.54156 1.35231,0.88009 1.63829,0.81669 3.1211,1.6899 4.41114,2.59766 1.95668,1.37687 7.36187,3.76747 8.91381,3.9424 1.16579,0.1314 1.68189,0.397 2.12791,1.09506 0.86247,1.34987 1.31948,1.66379 4.97818,3.41948 1.82673,0.87658 3.73193,1.88617 4.23379,2.24352 0.50186,0.35736 2.4948,1.46761 4.42875,2.46723 1.93395,0.99961 3.75937,2.02292 4.05649,2.27402 0.29712,0.2511 1.64299,0.97854 2.99084,1.61654 1.34785,0.638 2.66887,1.37824 2.93562,1.64499 0.26674,0.26674 0.71177,0.48498 0.98895,0.48498 0.27718,0 0.50397,0.13162 0.50397,0.29247 0,0.30268 2.71355,1.6108 4.19322,2.02143 0.46301,0.12849 1.54673,0.77168 2.40827,1.4293 0.86154,0.65763 1.77459,1.19569 2.029,1.19569 0.25441,0 1.23443,0.52481 2.17784,1.16625 0.9434,0.64144 2.2709,1.387 2.95,1.65682 0.6791,0.2698 1.96666,0.93562 2.86124,1.47958 0.89458,0.54396 1.70879,0.98902 1.80934,0.98902 0.47895,0 4.35093,2.56734 7.59628,5.03677 1.98321,1.50905 5.23354,3.79836 7.22296,5.08736 1.98942,1.289 4.649,3.17014 5.91018,4.18032 1.26118,1.01018 3.18008,2.25238 4.26422,2.76046 2.00057,0.93755 2.79134,1.93436 2.79134,3.51863 0,0.84926 -0.60899,1.65782 -1.21709,1.61595 -0.20373,-0.014 -1.71979,-1.12485 -3.36903,-2.46849 z M 342.65467,130.8737 c -0.11927,-0.19299 -0.5652,-0.53359 -0.99096,-0.75689 -0.76872,-0.40319 -0.76943,-0.40075 -0.10206,0.35088 0.67328,0.75829 1.50069,1.06563 1.09302,0.40601 z m -92.25256,25.47161 c -0.70577,-0.77788 -0.90809,-7.08936 -0.35449,-11.05857 0.82215,-5.89468 1.03658,-8.67462 0.98943,-12.82744 -0.11065,-9.7451 -0.0488,-13.27508 0.30273,-17.28611 0.20407,-2.32834 0.27502,-4.31271 0.15766,-4.40973 -0.11736,-0.097 -0.22397,-0.73201 -0.2369,-1.41111 -0.0129,-0.67909 -0.14167,-2.58409 -0.28606,-4.23333 -0.37771,-4.31397 -0.55827,-20.81389 -0.22777,-20.81389 0.15327,0 0.36169,-0.3175 0.46317,-0.70556 0.10148,-0.38805 0.35254,-0.70555 0.5579,-0.70555 0.9641,0 1.21718,1.74612 1.30572,9.00873 0.0499,4.08983 0.30264,9.33192 0.56172,11.64908 0.25908,2.31716 0.45124,6.27677 0.42702,8.79913 -0.13568,14.13067 -0.4321,25.52912 -0.75686,29.10417 -0.41371,4.55422 -0.39781,4.21545 -0.41912,8.92995 -0.009,1.90404 0.15328,3.77754 0.35975,4.16334 0.20647,0.38579 0.32575,1.03802 0.26506,1.44938 -0.14446,0.97916 -2.31567,1.22186 -3.10896,0.34751 z"
       id="path1807"
       inkscape:label="cheese" /></g></svg>
