<?xml version="1.0" encoding="UTF-8" standalone="no"?>
<!-- Created with Inkscape (http://www.inkscape.org/) -->

<svg
   width="233.64696mm"
   height="203.4295mm"
   viewBox="0 0 233.64696 203.4295"
   version="1.1"
   id="svg5"
   xml:space="preserve"
   xmlns:inkscape="http://www.inkscape.org/namespaces/inkscape"
   xmlns:sodipodi="http://sodipodi.sourceforge.net/DTD/sodipodi-0.dtd"
   xmlns="http://www.w3.org/2000/svg"
   xmlns:svg="http://www.w3.org/2000/svg"><sodipodi:namedview
     id="namedview7"
     pagecolor="#ffffff"
     bordercolor="#666666"
     borderopacity="1.0"
     inkscape:showpageshadow="2"
     inkscape:pageopacity="0.0"
     inkscape:pagecheckerboard="0"
     inkscape:deskcolor="#d1d1d1"
     inkscape:document-units="mm"
     showgrid="false" /><defs
     id="defs2" /><g
     inkscape:label="Layer 1"
     inkscape:groupmode="layer"
     id="layer1"
     transform="translate(-47.246543,-502.06098)"><path
       style="fill:#000000;stroke-width:0.352778"
       d="m 147.89418,705.40279 c -0.17681,-0.17682 -2.81611,-0.34522 -5.86512,-0.37424 -3.04899,-0.029 -5.62445,-0.18353 -5.72322,-0.34335 -0.0988,-0.15982 -1.08073,-0.26226 -2.18212,-0.22766 -2.87392,0.0903 -6.35268,-0.99472 -7.78661,-2.42865 -0.2898,-0.2898 -0.51138,-1.07465 -0.4924,-1.74412 0.0285,-1.00458 -0.15981,-1.33604 -1.07785,-1.89748 -0.61179,-0.37416 -1.30053,-0.60952 -1.53053,-0.52302 -0.23,0.0865 -0.49199,-0.0322 -0.5822,-0.26388 -0.10106,-0.2595 -0.59061,0.0189 -1.27539,0.72537 -0.61126,0.63059 -1.34145,1.16637 -1.62266,1.19063 -0.97706,0.0843 -1.09426,0.1357 -1.70821,0.74965 -0.33955,0.33955 -0.74626,0.61736 -0.9038,0.61736 -0.15754,0 -0.36946,0.3175 -0.47094,0.70556 -0.10148,0.38805 -0.36749,0.70555 -0.59113,0.70555 -0.22365,0 -0.30041,-0.17186 -0.17059,-0.38192 0.12982,-0.21005 -0.23756,-0.137 -0.8164,0.16232 -0.57884,0.29933 -1.14438,0.4523 -1.25675,0.33992 -0.27308,-0.27308 -1.29625,0.7723 -1.29625,1.32439 0,0.24022 -0.10445,0.33232 -0.23212,0.20465 -0.12767,-0.12767 -0.40548,-0.0902 -0.61736,0.0833 -0.77778,0.63693 -5.33242,0.61541 -4.93766,-0.0233 0.16164,-0.26154 0.0961,-0.31113 -0.18307,-0.13858 -0.23914,0.1478 -1.94317,0.30711 -3.78674,0.35403 -2.51548,0.064 -3.476989,-0.0397 -3.85305,-0.41579 -1.149858,-1.14986 0.07274,-2.10457 2.74046,-2.13999 1.10377,-0.0146 2.32765,-0.19833 2.71974,-0.40817 0.43079,-0.23055 1.48632,-0.29062 2.66745,-0.1518 1.22882,0.14442 1.95458,0.0978 1.95458,-0.12547 0,-0.19535 0.54656,-0.44388 1.21459,-0.55229 1.09023,-0.17692 3.20808,-1.37314 3.75961,-2.12353 0.11644,-0.15842 0.46601,-0.32536 0.77683,-0.37098 0.31081,-0.0456 0.85055,-0.33379 1.1994,-0.64038 0.34886,-0.30658 1.03116,-0.67436 1.51623,-0.81727 0.48507,-0.14291 1.14975,-0.49474 1.47708,-0.78184 0.32732,-0.2871 0.76782,-0.41527 0.97888,-0.28483 0.73328,0.45319 0.18526,-0.70184 -0.80274,-1.6919 -0.71147,-0.71296 -1.11504,-0.89307 -1.42489,-0.63593 -0.63871,0.53009 -1.99963,-0.26797 -2.9432,-1.72592 -0.43767,-0.67627 -1.17804,-1.62645 -1.64527,-2.11152 -1.24679,-1.29443 -2.08273,-2.73933 -1.82555,-3.15545 0.13431,-0.21732 0.004,-0.27951 -0.32237,-0.15416 -0.32766,0.12574 -0.55078,0.0179 -0.55568,-0.26862 -0.005,-0.2633 -0.56729,-1.09961 -1.25065,-1.85849 -0.68335,-0.75887 -1.1609,-1.59231 -1.06122,-1.85208 0.0997,-0.25977 -0.0122,-0.47268 -0.24865,-0.47312 -0.23645,-3.5e-4 -0.44627,-0.46608 -0.46628,-1.03474 -0.0306,-0.86933 -1.11386,-4.86564 -1.8231,-6.72557 -0.42258,-1.10819 -0.67622,-11.94384 -0.33031,-14.11111 0.56233,-3.52322 0.72587,-5.52818 1.28052,-15.69861 0.58285,-10.68776 0.7527,-13.01882 0.98964,-13.58194 0.20702,-0.49202 0.90768,-4.20189 1.33254,-7.05556 0.17138,-1.15109 0.51099,-2.11269 1.27707,-3.61597 0.19991,-0.3923 0.18194,-0.61736 -0.0493,-0.61736 -0.20015,0 -0.12156,-0.36986 0.17463,-0.82192 0.2962,-0.45204 0.41892,-0.95375 0.27272,-1.11489 -0.1462,-0.16114 -0.0674,-0.17878 0.17515,-0.0392 0.28009,0.16118 0.45582,0.0209 0.48167,-0.38441 0.0883,-1.38546 0.55671,-2.92271 1.38622,-4.54974 0.35445,-0.69523 0.56445,-1.47255 0.46666,-1.72738 -0.0978,-0.25482 -0.008,-0.56811 0.19904,-0.6962 0.20725,-0.12809 0.37683,-0.55039 0.37683,-0.93845 0,-0.38805 0.15693,-0.60856 0.34874,-0.49002 0.19997,0.12359 0.25911,-0.018 0.13864,-0.33196 -0.11555,-0.30112 -0.0516,-0.54749 0.14218,-0.54749 0.19376,0 0.4447,-0.35719 0.55765,-0.79375 0.11296,-0.43657 1.49878,-2.14313 3.07961,-3.79236 1.58084,-1.64924 2.76386,-2.76049 2.62894,-2.46945 -0.13492,0.29104 -7.1e-4,0.21167 0.29799,-0.17639 0.29881,-0.38805 0.70746,-0.89729 0.9081,-1.13164 0.20065,-0.23434 0.36481,-0.51215 0.36481,-0.61736 0,-0.30492 1.4099,-1.63103 1.42233,-1.3378 0.006,0.14552 0.20461,0.0143 0.44098,-0.29156 0.47438,-0.6139 2.01725,-1.1329 2.01725,-0.67858 0,0.1577 0.3175,0.20369 0.70555,0.10221 0.52866,-0.13824 0.70556,-0.0108 0.70556,0.50822 0,0.77459 -1.10767,2.21179 -1.70466,2.21179 -0.61516,0 -1.14637,1.24119 -0.71559,1.67197 0.25675,0.25675 0.24676,0.59725 -0.0328,1.11967 -0.22098,0.41289 -0.29782,0.91892 -0.17077,1.1245 0.20751,0.33575 0.4152,2.26567 0.48247,4.48315 0.0144,0.47296 0.17949,0.71891 0.3938,0.58646 0.203,-0.12546 0.30118,-0.65898 0.21818,-1.18561 -0.083,-0.52663 0.0848,-1.26679 0.37295,-1.6448 0.50267,-0.65948 0.51372,-0.65339 0.27319,0.15064 -0.17147,0.5732 -0.12727,0.76167 0.13991,0.59654 0.21481,-0.13276 0.39057,-0.44696 0.39057,-0.69821 0,-0.25126 0.4046,-0.89341 0.89911,-1.42699 0.49451,-0.53359 0.83608,-1.15208 0.75905,-1.37444 -0.077,-0.22235 0.27243,-0.68103 0.77658,-1.01931 0.50416,-0.33827 0.79758,-0.61608 0.65206,-0.61736 -0.14552,-10e-4 0.0132,-0.29596 0.35278,-0.65486 1.08138,-1.14299 1.85224,-2.16968 1.62905,-2.16968 -0.11888,0 -0.0227,-0.23305 0.21367,-0.51789 0.2364,-0.28484 0.5534,-0.48328 0.70444,-0.44097 0.15104,0.0423 0.81909,-0.41457 1.48455,-1.01528 1.66221,-1.50047 4.15321,-2.09312 6.11065,-1.45384 2.91458,0.95189 2.16293,2.40502 -1.35746,2.62433 -1.19367,0.0744 -2.23218,0.31245 -2.3078,0.52909 -0.0756,0.21664 -0.7399,0.96235 -1.47619,1.65714 -0.73629,0.69479 -1.68264,1.93794 -2.103,2.76256 -0.42036,0.82461 -0.837,1.4993 -0.92588,1.4993 -0.0889,0 -0.0474,-0.19844 0.0922,-0.44097 0.14501,-0.25198 0.11806,-0.31691 -0.0629,-0.15149 -0.17416,0.15921 -0.31867,0.55609 -0.32115,0.88194 -0.002,0.32586 -0.20014,0.55371 -0.43927,0.50634 -0.23912,-0.0474 -0.536,0.31721 -0.65973,0.81018 -0.12372,0.49297 -0.313,0.80826 -0.42061,0.70064 -0.36128,-0.36127 -1.38322,1.60357 -1.28751,2.47544 0.0568,0.51774 -0.0871,0.86237 -0.36024,0.86237 -0.2502,0 -0.65254,0.23812 -0.89408,0.52916 -0.35272,0.425 -0.34733,0.52917 0.0274,0.52917 0.36285,0 0.37245,0.0941 0.0432,0.42333 -0.23283,0.23284 -0.42333,0.70909 -0.42333,1.05834 0,0.34925 -0.15875,0.635 -0.35278,0.635 -0.19403,0 -0.35278,0.37041 -0.35278,0.82314 0,0.45274 -0.11704,0.94019 -0.26008,1.08323 -0.14305,0.14305 -0.27058,0.44732 -0.28341,0.67616 -0.0508,0.905 -0.60871,2.35635 -0.90589,2.35635 -0.173,0 -0.31454,0.16812 -0.31454,0.3736 0,0.20548 0.15875,0.27549 0.35278,0.15557 0.19403,-0.11992 0.35278,-0.0669 0.35278,0.11783 0,0.18472 -0.21648,0.41892 -0.48106,0.52045 -0.46049,0.17671 -0.64255,1.46241 -0.64629,4.56419 -7e-4,0.72706 -0.1187,1.24954 -0.26184,1.16108 -0.3561,-0.22008 -1.11453,3.19082 -0.85809,3.8591 0.11336,0.29539 0.0343,0.53707 -0.17569,0.53707 -0.26146,0 -0.27612,0.27793 -0.0465,0.8818 0.18439,0.48498 0.24007,1.35771 0.12373,1.9394 -0.12336,0.61682 -0.0335,1.27208 0.21555,1.5722 0.23489,0.28302 0.30722,0.70852 0.16072,0.94555 -0.37681,0.60969 -0.4304,4.89295 -0.0641,5.11937 0.16716,0.10331 0.13236,0.39455 -0.0773,0.64721 -0.20969,0.25267 -0.36481,1.07197 -0.34471,1.82068 0.0201,0.74871 -0.0719,1.83754 -0.2045,2.41963 -0.13257,0.58208 -0.24607,1.49489 -0.25221,2.02847 -0.006,0.53358 -0.1265,0.97014 -0.26745,0.97014 -0.31459,0 -0.67631,2.43177 -0.91437,6.14718 -0.12896,2.01267 -0.37605,3.07234 -0.88212,3.78305 -0.57287,0.80452 -0.62856,1.12634 -0.30087,1.73863 0.22117,0.41326 0.43999,1.64776 0.48628,2.74334 0.0463,1.09558 0.27004,2.33872 0.49722,2.76252 0.22718,0.42381 0.41305,1.39171 0.41305,2.15089 0,0.87396 0.25883,1.67875 0.70556,2.19383 0.81824,0.94344 0.87688,1.2828 0.26458,1.53125 -0.33838,0.1373 -0.32522,0.25971 0.0566,0.52615 0.27365,0.19097 0.52059,0.66005 0.54876,1.04241 0.0658,0.89324 1.08979,2.49489 2.26521,3.54307 0.68918,0.61458 0.75479,0.76887 0.25995,0.61135 -0.6269,-0.19956 -0.63156,-0.16443 -0.0882,0.66485 0.31552,0.48155 0.57367,1.21084 0.57367,1.62065 0,0.40981 0.44344,1.18853 0.98541,1.73051 0.54197,0.54197 0.9354,1.13539 0.8743,1.31871 -0.0611,0.18332 1.04327,1.40686 2.45418,2.71897 3.84707,3.57768 4.06199,3.74117 4.93393,3.7533 0.44349,0.006 1.08028,0.21927 1.41508,0.47355 0.52738,0.40055 0.54376,0.55117 0.12261,1.12714 -0.58008,0.79329 -3.29211,0.96495 -4.01973,0.25442 -0.44655,-0.43606 -1.35673,-0.56893 -3.85536,-0.56283 -1.33943,0.003 -1.43334,-0.30325 -0.39056,-1.27474 0.72477,-0.67523 0.7312,-0.74208 0.15583,-1.6202 -0.33007,-0.50376 -0.8378,-1.00712 -1.12829,-1.1186 -0.29049,-0.11147 -1.14858,-1.17449 -1.90686,-2.36228 -0.75828,-1.18779 -1.55925,-2.3685 -1.77993,-2.6238 -0.22067,-0.2553 -0.31523,-0.55017 -0.21013,-0.65528 0.1051,-0.1051 -0.19638,-0.60897 -0.66997,-1.11971 -0.47358,-0.51074 -0.86106,-1.20806 -0.86106,-1.54959 0,-0.34153 -0.23625,-0.62096 -0.525,-0.62096 -0.3397,0 -0.60464,-0.49804 -0.75064,-1.41111 -0.12411,-0.77612 -0.35691,-1.41112 -0.51735,-1.41112 -0.16044,0 -0.39596,-0.59531 -0.52338,-1.32291 -0.12742,-0.72761 -0.41762,-1.48167 -0.64488,-1.6757 -0.22726,-0.19402 -0.70511,-1.62277 -1.06188,-3.175 -0.35677,-1.55222 -0.78775,-2.99676 -0.95772,-3.21008 -0.4351,-0.54605 0.46271,-13.85896 0.99244,-14.71608 0.11136,-0.18018 0.2553,-1.45755 0.31987,-2.83858 0.0866,-1.85287 0.27366,-2.62523 0.7136,-2.94693 0.53185,-0.38889 0.60272,-1.47463 0.6565,-10.05797 0.0332,-5.29211 0.18685,-10.13796 0.34152,-10.76855 0.19151,-0.78075 0.15461,-1.14653 -0.11565,-1.14653 -0.35062,0 -0.58173,1.03257 -0.42423,1.89536 0.0309,0.16933 -0.18651,0.21473 -0.48315,0.10089 -0.29665,-0.11383 -0.51606,-0.0936 -0.48759,0.0449 0.0796,0.3873 -0.49748,1.63584 -0.87242,1.8875 -0.18397,0.12348 -0.35161,0.87755 -0.37254,1.6757 -0.0209,0.79815 -0.12515,1.45119 -0.23159,1.45119 -0.40183,0 -1.1209,3.20975 -0.90859,4.05567 0.12286,0.48951 0.0686,0.88321 -0.12183,0.88321 -0.18894,0 -0.43876,0.59532 -0.55517,1.32292 -0.1164,0.72761 -0.37344,1.61734 -0.57119,1.97719 -0.27595,0.50215 -0.25533,0.58987 0.0887,0.37728 0.24651,-0.15235 0.0995,0.21273 -0.32673,0.81129 -0.84619,1.18837 -0.9928,1.68483 -0.38697,1.31041 0.27259,-0.16847 0.28677,-0.0435 0.0477,0.42015 -0.18717,0.36296 -0.26417,0.89806 -0.17111,1.1891 0.0967,0.30246 -0.0604,0.23 -0.36669,-0.16912 -0.50592,-0.65923 -0.54885,-0.60001 -0.76736,1.05833 -0.12729,0.96614 -0.40509,2.1535 -0.61731,2.63857 -0.37956,0.86753 -1.3476,5.92887 -1.36778,7.15137 -0.006,0.35779 -0.17388,0.5239 -0.3929,0.38854 -0.25584,-0.15812 -0.31856,0.0985 -0.18932,0.77448 0.13704,0.71691 0.005,1.17456 -0.45544,1.57354 -0.55706,0.48314 -0.59995,0.77952 -0.30364,2.09831 0.25356,1.12852 0.2336,1.60458 -0.0753,1.79549 -0.48492,0.2997 -0.16186,3.60991 0.36987,3.78982 0.18978,0.0642 0.1753,0.53077 -0.0352,1.13468 -0.54277,1.55699 -0.21096,12.12064 0.40399,12.86161 0.28692,0.34572 0.35234,0.68682 0.15849,0.82641 -0.49636,0.35742 -0.40242,2.97125 0.11308,3.14618 0.24374,0.0827 0.35344,0.29558 0.24376,0.47303 -0.10967,0.17746 -0.042,0.32265 0.15042,0.32265 0.1924,0 0.45221,0.3226 0.57736,0.71689 0.12514,0.39429 0.57666,1.06897 1.00337,1.4993 0.42671,0.43033 1.14172,1.37773 1.5889,2.10534 0.44718,0.7276 0.94112,1.32291 1.09763,1.32291 0.15651,0 1.01792,0.72299 1.91425,1.60663 0.89632,0.88365 1.79113,1.50684 1.98845,1.38489 0.19733,-0.12196 0.31516,-0.0878 0.26185,0.0759 -0.0533,0.16371 0.26025,0.75254 0.69681,1.30852 0.43656,0.55598 0.79375,0.90625 0.79375,0.77836 0,-0.12788 0.55612,0.27354 1.23583,0.89206 0.67971,0.61852 1.15373,1.20667 1.05339,1.30701 -0.36255,0.36256 1.74282,2.17163 2.52731,2.17163 1.32751,0 3.36008,1.13317 3.19117,1.77909 -0.17358,0.66378 0.40845,1.5148 1.1658,1.70458 1.05189,0.26359 7.40707,0.3671 7.40771,0.12065 3.5e-4,-0.13911 0.80022,-0.2903 1.77747,-0.33598 0.97725,-0.0457 2.09043,-0.25089 2.47374,-0.45603 0.9066,-0.4852 2.92856,-0.0945 4.04148,0.78091 0.83174,0.65425 1.27383,1.63141 0.53014,1.17178 -0.19647,-0.12142 -0.2611,0.0128 -0.14803,0.30749 0.14645,0.38164 -0.1169,0.56764 -0.97418,0.68808 -0.64619,0.0908 0.0951,0.10852 1.64734,0.0394 1.55222,-0.0691 3.41753,-0.22911 4.14514,-0.35557 0.97222,-0.16899 1.32291,-0.10749 1.32291,0.23199 0,0.35412 0.0969,0.36507 0.415,0.0469 0.31815,-0.31815 0.27698,-0.56751 -0.17639,-1.06847 -0.85445,-0.94417 -0.74767,-2.62117 0.2251,-3.53504 0.44907,-0.42188 1.02168,-0.76705 1.27247,-0.76705 0.26716,0 0.36898,-0.22671 0.24588,-0.54749 -0.11555,-0.30112 -0.0629,-0.45653 0.11697,-0.34536 0.17988,0.11118 0.45587,-0.0178 0.61332,-0.28666 0.38784,-0.66222 2.51788,-1.72232 2.93842,-1.46242 0.19522,0.12066 0.24029,-0.0465 0.10652,-0.39506 -0.18423,-0.48011 -0.0809,-0.56472 0.50315,-0.41199 l 0.73499,0.1922 -0.66155,-1.54333 c -0.63406,-1.4792 -0.80008,-3.77447 -0.24846,-3.43498 0.14552,0.0896 0.26458,-0.0847 0.26458,-0.38714 0,-0.3025 -0.19843,-0.55242 -0.44097,-0.55539 -0.32944,-0.004 -0.3217,-0.081 0.0306,-0.30432 0.39931,-0.25311 0.65217,-1.29854 0.84234,-3.48264 0.0211,-0.24254 0.15267,-0.44098 0.29234,-0.44098 0.13967,0 0.34171,-0.43656 0.44899,-0.97013 0.10728,-0.53358 0.30706,-1.4303 0.44397,-1.99271 0.14148,-0.58125 0.11226,-0.93812 -0.0677,-0.8269 -0.17414,0.10763 -0.31622,-0.45064 -0.31573,-1.2406 3.5e-4,-0.78995 0.16234,-1.49032 0.35968,-1.55637 0.19733,-0.066 0.33248,-0.67954 0.30032,-1.36333 -0.0322,-0.6838 0.13961,-1.44134 0.3817,-1.68344 0.2421,-0.2421 0.64589,-1.07079 0.89731,-1.84154 0.25142,-0.77075 0.79446,-1.80667 1.20675,-2.30204 0.41228,-0.49537 1.06394,-1.88443 1.44813,-3.0868 0.38418,-1.20238 0.80037,-2.18614 0.92486,-2.18614 0.12449,0 0.48043,-0.635 0.79097,-1.41111 0.31053,-0.77611 0.72465,-1.41111 0.92024,-1.41111 0.19561,0 0.35564,-0.54662 0.35564,-1.21472 0,-0.84005 0.23209,-1.37728 0.75248,-1.74177 0.50699,-0.35511 0.6904,-0.76447 0.5622,-1.25473 -0.10466,-0.40022 -0.0279,-0.72767 0.1706,-0.72767 0.1985,0 0.27787,-0.3175 0.17639,-0.70555 -0.10148,-0.38806 -0.0605,-0.70556 0.0911,-0.70556 0.25855,0 0.60784,-1.15009 0.9616,-3.16621 0.0843,-0.48023 0.31218,-1.06469 0.50648,-1.29881 0.43349,-0.52232 1.0654,-4.49065 1.17148,-7.35675 0.0432,-1.16622 0.25758,-2.45503 0.47647,-2.86404 0.2189,-0.409 0.29257,-0.84906 0.16372,-0.97791 -0.12885,-0.12885 -0.26753,-1.30066 -0.30818,-2.60403 -0.0406,-1.30336 -0.15886,-2.92537 -0.26269,-3.60447 -0.45756,-2.99285 -0.67999,-4.26439 -1.31588,-7.52246 -0.37201,-1.90604 -0.67881,-3.89041 -0.68178,-4.40972 -0.004,-0.66319 -0.0956,-0.8019 -0.30838,-0.46605 -0.2268,0.35793 -0.44721,0.18906 -0.87655,-0.67156 -0.7605,-1.52446 -0.72927,-1.6788 0.29987,-1.48207 1.62088,0.30985 4.00895,3.40144 3.73158,4.83091 -0.0356,0.18327 0.0836,0.65952 0.26488,1.05834 1.38635,3.05057 1.78412,4.39518 1.67556,5.664 -0.0664,0.77611 0.039,1.60753 0.23415,1.84759 0.19519,0.24006 0.27831,0.63694 0.1847,0.88194 -0.0936,0.24501 -0.0409,1.39797 0.11706,2.56213 0.51181,3.77133 0.63186,5.82084 0.34094,5.82084 -0.15657,0 -0.34759,1.54781 -0.42449,3.43958 -0.0769,1.89177 -0.26939,3.64761 -0.42779,3.90185 -0.32286,0.51826 -0.58773,4.07999 -0.28057,3.77283 0.10798,-0.10798 0.24825,-0.54943 0.31171,-0.98099 0.0635,-0.43157 0.37553,-1.33783 0.69348,-2.01392 0.75259,-1.6003 1.11225,-2.97552 1.70828,-6.53185 0.13007,-0.77611 0.40067,-1.61088 0.60134,-1.85505 0.28255,-0.34382 0.64102,-6.47333 0.68581,-11.7269 0.0236,-2.7712 -1.42631,-8.37278 -2.50308,-9.67021 -0.25574,-0.30819 -0.3611,-0.56034 -0.23409,-0.56034 0.27494,0 -1.41235,-3.11079 -2.11989,-3.90834 -0.27175,-0.30632 -0.49408,-0.82388 -0.49408,-1.15014 0,-0.32626 -0.55563,-1.3837 -1.23473,-2.34986 -0.67909,-0.96616 -1.22356,-2.03609 -1.20992,-2.37763 0.0214,-0.53515 0.0667,-0.52346 0.32798,0.0846 0.25697,0.59801 0.30696,0.61206 0.32798,0.0922 0.0136,-0.33733 -0.24269,-0.92574 -0.56963,-1.30757 -0.32693,-0.38182 -0.62866,-0.89958 -0.67052,-1.15056 -0.0419,-0.25098 -0.277,-0.93257 -0.52255,-1.51466 -0.24554,-0.58208 -0.47958,-1.17739 -0.5201,-1.32291 -0.0405,-0.14552 -0.1123,-0.38365 -0.15953,-0.52917 -0.0472,-0.14552 -0.0656,-0.38806 -0.0408,-0.53898 0.0248,-0.15092 -0.19164,-0.36523 -0.48093,-0.47624 -0.39875,-0.15301 -0.43921,-0.36397 -0.16725,-0.87213 0.48389,-0.90416 1.9837,-0.87997 2.27463,0.0367 0.12342,0.38884 0.65005,0.93811 1.17031,1.2206 0.52025,0.28249 0.82813,0.51997 0.68418,0.52774 -0.32835,0.0177 0.70879,2.7151 1.4975,3.89468 0.79535,1.18952 1.15532,2.2189 0.67133,1.91977 -0.71712,-0.4432 1.50953,3.35241 2.75788,4.70117 0.23741,0.2565 0.60054,1.09358 0.80696,1.86017 0.34485,1.28065 1.51958,2.80778 2.15988,2.80778 0.14676,0 0.93594,0.71389 1.75375,1.58642 2.1015,2.24214 3.7818,5.79812 4.22929,8.95037 0.20295,1.42961 0.53079,3.01711 0.72853,3.52778 0.60705,1.56768 0.67902,2.18198 0.82667,7.05625 0.0786,2.59416 0.22828,4.80206 0.33266,4.90643 0.10437,0.10438 0.0355,0.37562 -0.15298,0.60276 -0.18851,0.22714 -0.40979,1.27362 -0.49175,2.32551 -0.25086,3.2199 -1.04969,7.73337 -1.3687,7.73337 -0.16597,0 -0.19807,0.16777 -0.0713,0.37283 0.29472,0.47687 -0.12138,2.17991 -0.47867,1.95909 -0.24561,-0.15179 -0.41716,0.51988 -0.48562,1.90141 -0.0144,0.29104 -0.18109,0.72559 -0.37038,0.96565 -0.18929,0.24006 -0.25694,0.66377 -0.15034,0.94157 0.1066,0.2778 -0.11376,0.85973 -0.4897,1.29319 -0.37594,0.43346 -0.68352,1.14125 -0.68352,1.57287 0,0.43163 -0.24916,0.99156 -0.55369,1.2443 -0.31723,0.26328 -0.47513,0.75997 -0.36972,1.16304 0.10953,0.41886 -0.0689,0.92841 -0.44094,1.25937 -0.62331,0.55443 -1.21728,1.6446 -1.26782,2.32694 -0.0397,0.53621 -1.65246,2.74492 -2.40417,3.29259 -0.36053,0.26267 -0.5749,0.68762 -0.47638,0.94435 0.0985,0.25672 -0.0587,0.66418 -0.34947,0.90545 -0.55006,0.45651 -1.69565,2.76745 -1.60063,3.22888 0.03,0.14552 -0.0936,0.26458 -0.27452,0.26458 -0.18095,0 -0.42889,0.31471 -0.55097,0.69936 -0.32321,1.01834 -2.69496,3.40211 -3.60567,3.62393 -1.21899,0.29692 -1.30467,-0.80691 -0.24372,-3.13991 0.51658,-1.13593 1.07863,-2.11857 1.249,-2.18365 0.17037,-0.0651 0.23314,-0.2423 0.1395,-0.39382 -0.0936,-0.15153 0.14348,-0.55945 0.52696,-0.90649 0.38348,-0.34705 0.69724,-0.81481 0.69724,-1.03948 0,-0.22467 0.46875,-0.85758 1.04166,-1.40646 0.57291,-0.54889 1.00947,-1.102 0.97014,-1.22915 -0.1297,-0.41922 1.65887,-3.62631 2.12134,-3.80377 0.24913,-0.0956 0.45297,-0.54434 0.45297,-0.9972 0,-0.45286 0.17258,-0.93005 0.38351,-1.06041 0.21093,-0.13036 0.30517,-0.5366 0.20942,-0.90276 -0.0958,-0.36616 -0.0209,-0.66574 0.16648,-0.66574 0.18731,0 0.25273,-0.14212 0.14538,-0.31582 -0.10735,-0.17369 0.042,-0.40684 0.33196,-0.51809 0.30725,-0.11791 0.52714,-0.64837 0.52714,-1.27169 0,-0.7385 0.17211,-1.0694 0.5562,-1.0694 0.40519,0 0.53915,-0.31127 0.49342,-1.14653 -0.10832,-1.97856 -0.0109,-2.32749 0.71427,-2.55764 0.38806,-0.12317 0.70556,-0.38136 0.70556,-0.57376 0,-0.1924 -0.15875,-0.25171 -0.35278,-0.1318 -0.19403,0.11992 -0.35278,0.0499 -0.35278,-0.15556 0,-0.20548 0.15875,-0.3736 0.35278,-0.3736 0.19403,0 0.35278,-0.46592 0.35278,-1.03537 0,-0.56946 0.17905,-1.48227 0.39791,-2.02847 0.50386,-1.25754 0.96299,-3.36378 1.17773,-5.40283 0.0919,-0.87313 0.29599,-2.30188 0.45341,-3.175 0.15743,-0.87313 0.28123,-2.38125 0.27512,-3.35139 -0.006,-0.97014 0.11463,-1.85676 0.26832,-1.97028 0.15369,-0.11351 0.13246,-0.8605 -0.0472,-1.65997 -0.23136,-1.02973 -0.20997,-1.49287 0.0734,-1.58833 0.28002,-0.0943 0.25386,-0.31169 -0.0873,-0.72493 -0.48317,-0.5853 -1.03681,-2.79406 -1.29564,-5.16899 -0.1465,-1.34427 -1.28667,-4.78077 -1.72677,-5.20456 -0.1505,-0.14492 -0.14431,0.92713 0.0138,2.38234 0.40232,3.7039 0.32547,5.61412 -0.31225,7.76111 -0.20171,0.6791 -0.40677,2.02847 -0.4557,2.99861 -0.0489,0.97014 -0.17834,2.16076 -0.28759,2.64583 -1.37353,6.09834 -1.50878,6.8184 -1.44452,7.69062 0.0314,0.42683 -0.054,0.77605 -0.1899,0.77605 -0.13589,0 -0.42945,0.83344 -0.65235,1.85208 -0.2229,1.01865 -0.4549,2.07249 -0.51557,2.34186 -0.0607,0.26938 -0.36933,0.67919 -0.68594,0.9107 -0.3166,0.2315 -0.72805,0.8218 -0.91434,1.31177 -0.18629,0.48997 -0.94659,1.80813 -1.68956,2.92925 -0.74298,1.12112 -1.50961,2.29217 -1.70364,2.60235 -0.19403,0.31018 -0.79181,1.23377 -1.32841,2.05243 -0.53659,0.81866 -1.07237,1.97222 -1.19062,2.56346 -0.11825,0.59124 -0.34078,1.07499 -0.4945,1.07499 -0.15373,0 -0.557,0.75406 -0.89616,1.67569 -0.33916,0.92164 -0.77245,1.83445 -0.96288,2.02848 -0.22875,0.23308 -0.26175,0.20316 -0.0973,-0.0882 0.13693,-0.24253 0.18132,-0.44097 0.0986,-0.44097 -0.27675,0 -2.02176,2.82215 -1.7484,2.82762 0.14827,0.003 0.11084,0.12204 -0.0832,0.26459 -0.19403,0.14255 -0.73351,1.05293 -1.19884,2.02307 -0.46534,0.97014 -0.98128,2.03954 -1.14653,2.37646 -0.16525,0.33692 -0.30046,0.91279 -0.30046,1.27972 0,0.36693 -0.23813,0.86477 -0.52917,1.10632 -0.29104,0.24154 -0.52917,0.88564 -0.52917,1.43134 0,0.5457 -0.17788,1.43907 -0.3953,1.98528 -0.44703,1.12306 -0.55326,1.77937 -0.82896,5.12148 l -0.19506,2.3645 1.23617,0.2319 c 0.6799,0.12755 1.46524,0.14401 1.7452,0.0366 0.27997,-0.10743 0.55898,-0.053 0.62002,0.12106 0.10937,0.31176 2.89948,0.76869 5.13807,0.84143 0.63059,0.0205 1.14653,0.14371 1.14653,0.27381 0,0.13011 0.51594,0.34827 1.14653,0.4848 0.63059,0.13653 1.78153,0.52145 2.55764,0.85537 3.42055,1.47169 6.05901,1.62584 13.22916,0.77286 3.085,-0.36701 5.83797,-0.32647 9.09571,0.13391 1.6628,0.23499 1.9576,0.17524 2.73403,-0.55418 0.47864,-0.44967 0.87026,-0.71812 0.87026,-0.59657 0,0.12156 0.72637,0.002 1.61415,-0.26477 0.88779,-0.26719 2.15019,-0.39881 2.80534,-0.29249 0.91202,0.148 1.58786,-0.0442 2.88376,-0.82026 0.93092,-0.55745 1.86446,-1.09293 2.07452,-1.18994 0.21007,-0.097 1.04351,-0.74724 1.85209,-1.44495 1.51568,-1.30786 1.86579,-2.08283 0.94097,-2.08283 -0.29104,0 -0.52916,-0.22114 -0.52916,-0.49142 0,-0.75241 -0.91498,-0.9413 -2.74632,-0.56694 -0.91487,0.18701 -2.09735,0.41129 -2.62772,0.49839 -0.53038,0.0871 -1.10448,0.24498 -1.27578,0.35085 -0.53849,0.33281 -1.54574,-1.09449 -1.30582,-1.85041 0.17257,-0.54373 0.63016,-0.73914 2.06027,-0.8798 2.85801,-0.2811 4.14969,-0.62635 3.89362,-1.04069 -0.14109,-0.22828 -0.0156,-0.29067 0.32323,-0.16067 0.65747,0.2523 1.67852,-0.76051 1.67852,-1.66498 0,-0.34916 0.50256,-1.51323 1.11681,-2.58682 0.61425,-1.07359 0.93357,-1.83874 0.7096,-1.70032 -0.26317,0.16265 -0.33473,0.0628 -0.20228,-0.28238 0.11271,-0.29373 0.50454,-0.62915 0.87073,-0.74538 0.36619,-0.11622 0.65023,-0.3207 0.63119,-0.4544 -0.13114,-0.92107 0.12187,-2.20644 0.5116,-2.59914 0.25447,-0.25639 0.69009,-0.9821 0.96807,-1.61269 0.49717,-1.12788 1.03872,-1.52203 1.03872,-0.75601 0,0.21478 0.19844,0.31398 0.44097,0.22044 0.33076,-0.12758 0.41135,0.37 0.32244,1.99072 -0.11653,2.12435 -0.10741,2.14891 0.5404,1.45526 0.36241,-0.38805 1.02902,-1.30897 1.48136,-2.04649 0.45233,-0.73751 1.20931,-1.59443 1.68218,-1.90426 0.47286,-0.30984 0.78334,-0.76246 0.68995,-1.00583 -0.0934,-0.24337 -0.0708,-0.54148 0.0502,-0.66246 0.12098,-0.12099 0.27176,-0.57307 0.33506,-1.00463 0.0633,-0.43157 0.37067,-0.97584 0.68303,-1.2095 0.35388,-0.26471 0.49337,-0.71001 0.37009,-1.18142 -0.10881,-0.41612 -0.103,-0.66174 0.0129,-0.54582 0.3224,0.32239 1.50533,-3.31234 1.50533,-4.62535 0,-0.63804 0.15875,-1.16007 0.35278,-1.16007 0.19402,0 0.35277,-0.29104 0.35277,-0.64676 0,-0.35572 0.11043,-0.75719 0.2454,-0.89216 0.29555,-0.29555 0.40366,-0.89921 0.58107,-3.24447 0.0743,-0.98163 0.29382,-2.09288 0.48793,-2.46945 0.32693,-0.63421 0.65026,-3.13242 1.02459,-7.91661 0.33451,-4.27511 0.29919,-10.84951 -0.0663,-12.34722 -0.21309,-0.87312 -0.35568,-2.8575 -0.31686,-4.40972 0.058,-2.31966 -0.0539,-2.9986 -0.62832,-3.81268 -0.38439,-0.54474 -0.60358,-1.08576 -0.48708,-1.20226 0.1165,-0.11649 0.0635,-0.39047 -0.11769,-0.60884 -0.18123,-0.21837 -0.36827,-1.14579 -0.41564,-2.06093 -0.0474,-0.91515 -0.19672,-1.6639 -0.33189,-1.6639 -0.13517,0 -0.35626,-1.03188 -0.49133,-2.29306 -0.13506,-1.26118 -0.37316,-2.29305 -0.52911,-2.29305 -0.40496,0 -0.79737,-1.41245 -0.72164,-2.59748 0.0415,-0.64954 -0.0723,-0.92538 -0.319,-0.77293 -0.21095,0.13038 -0.38354,0.003 -0.38354,-0.28354 0,-0.28633 -0.15101,-0.57351 -0.33558,-0.63818 -0.18457,-0.0647 -0.41138,-0.7526 -0.50402,-1.52871 -0.0926,-0.77611 -0.19155,-1.41111 -0.2198,-1.41111 -0.0283,0 -0.11923,-0.36564 -0.20219,-0.81253 -0.083,-0.44689 -0.36954,-1.24064 -0.63685,-1.76389 -0.26732,-0.52325 -0.59714,-1.46729 -0.73294,-2.09788 -0.1358,-0.63059 -0.39304,-1.14653 -0.57165,-1.14653 -0.17861,0 -0.32475,-0.2424 -0.32475,-0.53867 0,-0.78967 -4.03602,-5.94855 -5.66023,-7.23494 -0.81727,-0.64729 -1.30722,-0.87396 -1.18163,-0.54666 0.15462,0.40293 0.004,0.55916 -0.5398,0.55916 -0.4149,0 -0.84035,-0.27782 -0.94544,-0.61736 -0.10509,-0.33955 -0.34923,-0.91064 -0.54254,-1.26908 -0.19331,-0.35844 -0.25826,-0.74492 -0.14435,-0.85884 0.11392,-0.11391 -0.52758,-0.90115 -1.42557,-1.74942 -0.89799,-0.84826 -1.71965,-1.45535 -1.82592,-1.34908 -0.39732,0.39732 -1.05999,-0.55986 -0.87565,-1.26481 0.3034,-1.16018 2.79877,-0.72092 4.73476,0.83347 1.45643,1.16935 1.64162,1.22169 3.99613,1.12949 1.86101,-0.0729 2.62108,0.041 3.08681,0.46248 0.33983,0.30754 0.61788,0.46329 0.61788,0.3461 0,-0.21343 1.88872,0.46801 3.50907,1.26605 1.16835,0.57544 3.14413,2.7126 3.40757,3.68592 0.11779,0.43522 0.35599,0.70367 0.52932,0.59654 0.17333,-0.10712 0.31515,0.0695 0.31515,0.39249 0,0.6643 1.57011,2.67412 1.90104,2.43343 0.11859,-0.0862 0.14264,-0.0574 0.0534,0.0642 -0.17263,0.2352 1.70871,3.82926 2.46962,4.7179 0.24921,0.29104 0.92538,1.44287 1.5026,2.55961 0.57721,1.11675 1.54461,2.70425 2.14977,3.52778 0.60516,0.82354 1.6596,2.25894 2.34321,3.18979 0.6836,0.93085 1.14946,1.84366 1.03524,2.02847 -0.11422,0.18481 -0.0687,0.33602 0.10111,0.33602 0.16983,0 0.84996,1.04461 1.51141,2.32135 0.66144,1.27675 1.32561,2.39737 1.47592,2.49027 0.15032,0.0929 0.2733,0.54853 0.2733,1.0125 0,0.46398 0.19844,0.97055 0.44098,1.12571 0.24253,0.15516 0.44097,0.52024 0.44097,0.81128 0,0.30628 0.25766,0.48605 0.61173,0.4268 0.39779,-0.0666 0.54639,0.0679 0.42491,0.38445 -0.10274,0.26775 0.0585,0.69044 0.35841,0.93931 0.29988,0.24888 0.54523,0.82511 0.54523,1.28052 0,0.45541 0.28516,1.34878 0.6337,1.98527 0.34855,0.63649 0.84847,1.82669 1.11094,2.64488 0.26873,0.83765 0.63458,1.39036 0.83736,1.26504 0.21893,-0.13531 0.27055,0.0108 0.13166,0.37277 -0.28903,0.75322 0.11097,3.79389 0.46991,3.57205 0.26366,-0.16295 0.54095,1.02806 0.92523,3.97405 0.10757,0.82462 0.29865,1.4994 0.42463,1.49951 0.12599,1.1e-4 0.27765,2.53212 0.33702,5.6267 0.0848,4.42099 -3.5e-4,5.80036 -0.39832,6.43799 -0.27845,0.44632 -0.52092,1.41462 -0.53884,2.15177 -0.0362,1.48946 -0.29781,2.11932 -0.76132,1.83285 -0.16888,-0.10437 -0.30472,0.0915 -0.30188,0.43522 0.009,1.03094 -0.67685,3.35824 -1.05846,3.59409 -0.19583,0.12103 -0.67042,0.95344 -1.05465,1.84981 -0.38423,0.89636 -0.87307,1.73758 -1.08632,1.86938 -0.21325,0.13179 -0.2964,0.38741 -0.18476,0.56803 0.11163,0.18062 0.0178,0.3284 -0.20838,0.3284 -0.22624,0 -0.31766,0.24413 -0.20316,0.54252 0.11826,0.3082 -0.0169,0.62891 -0.31301,0.74252 -0.28665,0.11 -0.43694,0.33633 -0.33396,0.50295 0.10298,0.16662 -0.0964,0.59137 -0.443,0.94389 -0.34663,0.35252 -0.85944,1.08006 -1.13959,1.61676 -0.28014,0.5367 -1.03139,1.5857 -1.66943,2.3311 -0.63804,0.74541 -1.30846,1.74557 -1.48981,2.22256 -0.37436,0.98464 -2.51008,2.14509 -3.35274,1.82174 -0.30763,-0.11805 -0.4715,-0.35675 -0.36414,-0.53045 0.10735,-0.1737 -0.0126,-0.32144 -0.26661,-0.32831 -0.25592,-0.007 -0.14724,-0.20353 0.24376,-0.44098 0.38805,-0.23566 0.75836,-0.66625 0.82289,-0.95686 0.0645,-0.29062 0.69954,-1.21901 1.41111,-2.0631 1.79349,-2.12746 2.21926,-2.74788 2.30998,-3.36596 0.0432,-0.2943 0.32163,-0.82052 0.61875,-1.16937 0.29712,-0.34886 1.06445,-1.58679 1.70518,-2.75095 0.64073,-1.16417 1.31581,-2.21379 1.50019,-2.3325 0.18437,-0.11871 0.31844,-0.31881 0.29794,-0.44467 -0.0205,-0.12586 0.21055,-0.70809 0.51345,-1.29384 0.3029,-0.58574 0.45307,-1.22301 0.33371,-1.41615 -0.11937,-0.19314 -0.0862,-0.32843 0.0738,-0.30064 0.7891,0.13707 0.99867,-0.1402 1.02482,-1.35595 0.0157,-0.72761 0.27737,-2.19605 0.5816,-3.2632 0.98038,-3.43894 1.15496,-5.02443 1.09405,-9.93608 -0.0391,-3.15333 -0.21627,-5.10569 -0.5122,-5.64444 -0.53981,-0.98274 -0.5138,-0.88931 -1.11318,-3.99865 -0.26182,-1.35819 -0.68047,-2.94569 -0.93035,-3.52777 -1.01403,-2.36214 -3.04891,-6.36449 -3.34492,-6.57899 -0.1738,-0.12593 -0.21846,-0.48312 -0.0993,-0.79375 0.1192,-0.31062 0.0924,-0.56476 -0.0596,-0.56476 -0.152,0 -0.54133,-0.55563 -0.86517,-1.23473 -0.32384,-0.67909 -0.73027,-1.23472 -0.90318,-1.23472 -0.17292,0 -0.40613,-0.4587 -0.51826,-1.01934 -0.25911,-1.29554 -1.97302,-3.36224 -1.98985,-2.39942 -0.007,0.39889 0.14361,0.54254 0.40159,0.3831 0.28439,-0.17577 0.33633,-0.056 0.16702,0.38521 -0.16091,0.41933 -0.009,0.86066 0.43977,1.2789 0.45096,0.42013 0.61619,0.90355 0.48296,1.41302 -0.14741,0.5637 -0.0818,0.69983 0.24103,0.50029 0.34321,-0.21211 0.35858,-0.11537 0.068,0.42762 -0.20656,0.38596 -0.29461,0.78269 -0.19568,0.88162 0.0989,0.0989 0.55143,2.3796 1.00553,5.06814 0.80726,4.77941 0.91216,9.61852 0.33178,15.30586 -0.0891,0.87313 -0.30353,5.55625 -0.47652,10.40695 -0.29326,8.22358 -0.81796,13.16368 -1.44267,13.58297 -0.14538,0.0976 -0.52921,0.83939 -0.85294,1.64847 -0.32372,0.80908 -0.84962,1.57122 -1.16866,1.69364 -0.50063,0.19211 -0.50895,0.26735 -0.0608,0.54946 0.42247,0.26594 0.27266,0.54772 -0.80364,1.51152 -0.7276,0.65155 -1.32291,1.36904 -1.32291,1.59442 0,0.22539 -0.17574,0.40979 -0.39052,0.40979 -0.21479,0 -0.29988,0.23622 -0.18909,0.52494 0.11079,0.28871 0.0347,0.48715 -0.16916,0.44097 -0.20382,-0.0462 -0.78098,0.66263 -1.28257,1.57514 -0.50159,0.9125 -1.06801,1.56266 -1.25871,1.44479 -0.19304,-0.1193 -0.23533,-0.034 -0.0954,0.19237 0.30746,0.49748 -0.62293,1.91886 -1.01601,1.55219 -0.15468,-0.14429 -0.20913,-0.0319 -0.121,0.24987 0.17229,0.55075 -0.28849,1.23858 -2.09212,3.12297 -0.63059,0.65883 -1.14906,1.38044 -1.15216,1.60357 -0.02,1.44338 -4.13868,4.05682 -5.64159,3.57981 -0.33692,-0.10693 -1.12924,0.23189 -1.84424,0.78865 -0.68946,0.53687 -1.54811,1.18048 -1.90813,1.43024 -0.36001,0.24977 -0.41645,0.35706 -0.1254,0.23842 0.29104,-0.11864 0.0926,0.12681 -0.44098,0.54544 -0.53357,0.41863 -0.97013,0.9728 -0.97013,1.23149 0,0.25869 -0.19844,0.54105 -0.44098,0.62747 -0.24253,0.0864 4.08341,0.14346 9.6132,0.12678 10.93009,-0.033 11.12275,-0.003 13.02477,2.03304 1.08503,1.16144 0.68005,1.62358 -0.59601,0.68015 -0.99786,-0.73776 -4.03803,-1.38715 -4.66884,-0.99728 -0.19582,0.12102 -1.4266,0.2871 -2.73506,0.36905 -1.30847,0.082 -2.7759,0.23308 -3.26097,0.33583 -0.87069,0.18443 -8.08778,0.22625 -12.14093,0.0704 -1.634,-0.0629 -2.28094,0.0725 -2.98173,0.62372 -0.54155,0.42598 -0.77041,0.49758 -0.57955,0.18131 0.27291,-0.45223 0.23382,-0.45646 -0.28999,-0.0314 -0.33298,0.27018 -0.52185,0.5748 -0.41972,0.67692 0.10212,0.10213 -0.0925,0.49305 -0.43245,0.86872 -0.33998,0.37566 -0.57958,0.78542 -0.53246,0.91057 0.0471,0.12515 -0.55256,0.22754 -1.33261,0.22754 -1.34088,0 -1.43777,-0.0724 -1.77579,-1.32601 -0.32641,-1.21062 -0.4407,-1.30615 -1.31323,-1.09773 -1.27973,0.30569 -2.26742,0.83238 -2.83396,1.51123 -0.25692,0.30785 -0.36773,0.36311 -0.24626,0.1228 0.14747,-0.29172 0.0322,-0.36452 -0.34689,-0.21906 -0.31227,0.11983 -0.48497,0.43361 -0.38379,0.69729 0.10118,0.26367 -0.001,0.44163 -0.22783,0.39544 -0.22649,-0.0462 -0.41922,0.15417 -0.42828,0.44521 -0.009,0.29104 -0.45304,0.98891 -0.98662,1.55082 -0.53357,0.56191 -0.97014,1.15857 -0.97014,1.32591 0,0.16733 -0.31938,0.10479 -0.70973,-0.13899 -0.39035,-0.24378 -0.64088,-0.62265 -0.55673,-0.84194 0.0842,-0.21929 -0.0284,-0.58017 -0.25023,-0.80194 -0.22177,-0.22177 -0.4078,-0.75705 -0.4134,-1.18951 -0.0101,-0.77565 -0.0723,-0.78544 -4.59629,-0.72318 -2.52236,0.0347 -5.53861,0.15555 -6.70278,0.26852 -1.16417,0.11298 -2.98979,0.20263 -4.05695,0.19922 -2.21623,-0.007 -7.05555,-1.03461 -7.05555,-1.49812 0,-0.17001 -0.1657,-0.20669 -0.36823,-0.0815 -0.20253,0.12517 -0.55972,0.0798 -0.79375,-0.10083 -0.59897,-0.46226 -7.90094,-2.20177 -9.24245,-2.20177 -0.31006,0 -0.97289,0.40914 -1.47296,0.9092 -0.64961,0.64962 -1.01771,0.8007 -1.28924,0.52917 -0.20902,-0.20902 -0.92576,-0.38004 -1.59276,-0.38004 -1.31443,0 -2.67984,1.26106 -4.14363,3.82695 -0.40423,0.70858 -1.09228,1.46838 -1.52901,1.68844 -1.33755,0.674 -1.68469,1.16998 -1.08447,1.54946 0.44708,0.28265 0.43382,0.3335 -0.0882,0.33809 -0.33791,0.003 -0.81265,0.3229 -1.055,0.71095 -0.24234,0.38806 -0.68637,0.70556 -0.98673,0.70556 -0.30036,0 -1.1256,0.29544 -1.83387,0.65654 -0.77493,0.39508 -1.4158,0.52852 -1.60925,0.33507 z m 76.46658,-22.95203 c 0.57012,-0.63059 1.32195,-1.69191 1.67072,-2.35849 0.34878,-0.66657 0.91195,-1.50001 1.2515,-1.85208 0.33955,-0.35207 0.61736,-0.8559 0.61736,-1.11962 0,-0.26373 0.64607,-1.21348 1.43571,-2.11056 0.78964,-0.89708 1.33521,-1.79367 1.21237,-1.99243 -0.12284,-0.19876 0.0182,-0.45408 0.31347,-0.56738 0.29524,-0.1133 0.96179,-0.94562 1.4812,-1.84959 0.51942,-0.90398 1.25193,-1.9836 1.62782,-2.39915 0.37589,-0.41556 0.72123,-0.97118 0.76743,-1.23472 0.0462,-0.26355 0.43095,-1.0348 0.85501,-1.7139 0.42406,-0.67909 0.77405,-1.71097 0.77774,-2.29305 0.005,-0.83418 0.0836,-0.94626 0.36984,-0.52917 0.2879,0.41954 0.34385,0.34645 0.27007,-0.35278 -0.0512,-0.48507 0.048,-1.10875 0.22043,-1.38596 0.17242,-0.27721 0.34255,-2.97596 0.37808,-5.99722 0.0355,-3.02126 0.17227,-5.83213 0.30388,-6.24638 0.13161,-0.41425 0.0923,-1.40736 -0.0873,-2.20693 -0.17965,-0.79957 -0.2076,-1.52732 -0.0621,-1.61724 0.25393,-0.15694 0.81716,-7.01946 0.69561,-8.47543 -0.0324,-0.38806 -0.0325,-1.14212 -2.4e-4,-1.6757 0.22256,-3.68051 0.12001,-5.87704 -0.44062,-9.4368 -0.3514,-2.23132 -0.78742,-4.10987 -0.96891,-4.17454 -0.1815,-0.0647 -0.32999,-0.49187 -0.32999,-0.94932 0,-0.45745 -0.15875,-0.92984 -0.35278,-1.04976 -0.19403,-0.11991 -0.35278,-0.54185 -0.35278,-0.93764 0,-0.7196 -0.36061,-1.66501 -1.96653,-5.15559 -0.47063,-1.02294 -0.85569,-2.10387 -0.85569,-2.40207 0,-0.29819 -0.15875,-0.44406 -0.35278,-0.32414 -0.19403,0.11992 -0.35278,0.0684 -0.35278,-0.11442 0,-0.18285 0.3167,-0.41528 0.70378,-0.5165 1.57244,-0.4112 1.35824,-1.01594 -2.34481,-6.61999 -0.45563,-0.68952 -0.8313,-1.4039 -0.83483,-1.5875 -0.006,-0.3202 -1.71009,-3.04955 -2.45656,-3.93489 -0.19758,-0.23435 -0.35924,-0.56694 -0.35924,-0.73908 0,-0.17215 -0.3175,-0.60032 -0.70556,-0.95151 -0.38805,-0.35119 -0.70555,-0.85204 -0.70555,-1.11301 0,-0.26097 -0.11907,-0.44076 -0.26459,-0.39954 -0.41888,0.11865 -1.63937,-0.6515 -2.90285,-1.83177 -1.12982,-1.05541 -1.18449,-1.0686 -1.90225,-0.45866 -0.53404,0.45382 -0.61923,0.47223 -0.30715,0.0663 0.2375,-0.30889 0.32737,-0.66608 0.1997,-0.79375 -0.33234,-0.33234 -1.87842,-0.28736 -1.87842,0.0547 0,0.52661 1.98491,2.19644 2.28588,1.92302 0.16318,-0.14824 0.2009,-0.10087 0.0838,0.10526 -0.30689,0.54034 0.5895,1.76278 3.9803,5.42803 1.64924,1.78273 2.99861,3.37648 2.99861,3.54168 0,0.1652 0.33799,0.68909 0.75108,1.16419 0.4131,0.4751 0.93501,1.42112 1.15981,2.10227 0.2248,0.68115 0.72401,1.52377 1.10934,1.8725 0.53747,0.48641 0.59599,0.70171 0.2513,0.9246 -0.36245,0.23439 -0.36046,0.34795 0.0103,0.58747 0.56369,0.36416 0.88058,2.02213 0.92096,4.81837 0.0185,1.27711 0.20547,2.22856 0.47153,2.39878 0.24254,0.15516 0.44288,0.63141 0.44522,1.05833 0.002,0.42692 0.42098,1.4906 0.93031,2.36372 0.50933,0.87313 1.21549,2.66404 1.56926,3.9798 0.35376,1.31577 0.7215,2.51899 0.81719,2.67383 0.77408,1.25247 1.33076,15.17487 0.73705,18.43318 -0.0844,0.4633 -0.33801,1.87423 -0.56353,3.13541 -0.22552,1.26118 -0.6278,2.7933 -0.89395,3.40471 -0.26615,0.6114 -0.48391,1.37335 -0.48391,1.69321 0,0.31986 -0.24983,1.06468 -0.55518,1.65516 -0.30535,0.59048 -0.46548,1.16331 -0.35584,1.27294 0.10964,0.10964 0.0225,0.41239 -0.19357,0.67277 -0.2161,0.26039 -0.27842,0.47344 -0.13848,0.47344 0.13993,0 -0.0782,0.56371 -0.48468,1.25269 -0.40651,0.68898 -0.84316,1.91929 -0.97035,2.73403 -0.12718,0.81473 -0.34804,1.56071 -0.49081,1.65772 -0.32933,0.2238 -1.52439,2.91013 -1.45168,3.2632 0.03,0.14552 -0.087,0.26458 -0.25999,0.26458 -0.17296,0 -0.57061,0.59531 -0.88366,1.32292 -0.56347,1.30961 -0.86656,1.84809 -2.06507,3.66891 -0.33954,0.51586 -0.61736,1.16129 -0.61736,1.4343 0,0.27301 -0.30794,0.82692 -0.68431,1.23091 -0.37637,0.40398 -0.61066,0.80817 -0.52064,0.89819 0.09,0.09 -0.0783,0.36448 -0.37402,0.60991 -0.7528,0.62477 -0.68228,1.25485 0.0797,0.71181 0.33955,-0.24199 0.21051,-0.0565 -0.28675,0.41226 -0.49726,0.46873 -1.01942,1.08385 -1.16036,1.36693 -0.42664,0.8569 -1.06741,1.88037 -1.92659,3.07724 -0.4731,0.65905 -0.70409,1.32314 -0.54964,1.58019 0.2099,0.34933 0.14894,0.34826 -0.28738,-0.005 -0.46402,-0.37571 -0.58316,-0.33613 -0.73491,0.24416 -0.24381,0.93235 -0.0215,1.08619 1.56981,1.08619 1.08349,0 1.5664,-0.23128 2.39387,-1.14652 z m -5.10347,-6.61458 c 0.11991,-0.19403 0.0499,-0.35278 -0.15557,-0.35278 -0.20548,0 -0.3736,0.15875 -0.3736,0.35278 0,0.19402 0.07,0.35277 0.15557,0.35277 0.0856,0 0.25368,-0.15875 0.3736,-0.35277 z m 14.98765,-39.25894 c -0.004,-0.27783 -0.11924,-0.24862 -0.32904,0.083 -0.2307,0.36466 -0.35764,0.0607 -0.44202,-1.05833 l -0.11837,-1.56992 -0.16994,1.81778 c -0.15407,1.64795 -0.11227,1.78686 0.44741,1.48689 0.33955,-0.18198 0.61493,-0.52373 0.61196,-0.75944 z m -122.09361,-1.40943 c 0.4089,-0.73351 0.74346,-1.94443 0.74346,-2.69095 0,-0.74651 0.24026,-1.93231 0.5339,-2.6351 0.29365,-0.70279 0.41271,-1.28024 0.26459,-1.28321 -0.14813,-0.003 -0.0782,-0.12688 0.15538,-0.27535 0.23359,-0.14847 0.44918,-0.9001 0.47908,-1.67029 0.0299,-0.77019 0.41794,-2.1941 0.86231,-3.16423 0.44437,-0.97014 0.97956,-2.16077 1.18931,-2.64584 0.6395,-1.47889 2.00616,-3.78881 3.05598,-5.16519 0.54768,-0.71806 0.76856,-1.18725 0.49082,-1.04263 -0.27774,0.14461 -0.18748,0.006 0.20058,-0.30759 0.38805,-0.31378 0.70555,-0.73523 0.70555,-0.93655 0,-0.20131 0.26465,-0.55954 0.58812,-0.79606 0.74168,-0.54234 1.21336,-2.88714 0.70417,-3.50067 -0.20634,-0.24863 -0.43446,-1.23908 -0.50692,-2.20099 -0.0917,-1.21774 -0.28458,-1.74893 -0.63494,-1.74893 -0.27677,0 -0.46352,0.19844 -0.41501,0.44097 0.0485,0.24254 -0.0309,0.42218 -0.17639,0.3992 -0.92334,-0.14579 -1.21647,0.10617 -1.06223,0.91304 0.0916,0.4792 0.0487,0.79845 -0.0953,0.70944 -0.14401,-0.089 -0.47827,0.10427 -0.74279,0.42951 -0.42372,0.52098 -0.40155,0.56152 0.18632,0.34082 0.56464,-0.21199 0.59918,-0.16849 0.22461,0.28284 -0.24346,0.29334 -0.58735,0.44393 -0.76419,0.33463 -0.17685,-0.1093 -0.27793,-0.0567 -0.22462,0.117 0.0533,0.17365 -0.30771,0.70138 -0.80229,1.17275 -0.49458,0.47136 -0.62941,0.64825 -0.29961,0.39307 1.01873,-0.78823 1.01359,0.0558 -0.009,1.42682 -0.66978,0.89829 -1.08501,1.18959 -1.33678,0.93782 -0.25178,-0.25178 -0.33849,0.19077 -0.27916,1.42468 0.0473,0.98445 -0.0521,1.78991 -0.22093,1.78991 -0.16884,0 -0.30699,0.24601 -0.30699,0.54669 0,0.30067 -0.25023,1.03057 -0.55606,1.62199 -0.71247,1.37776 -0.94366,2.28246 -0.99228,3.88307 -0.0215,0.70909 -0.13418,1.23051 -0.25032,1.15872 -0.19654,-0.12148 -0.56293,1.25659 -1.36341,5.12807 -0.21661,1.04765 -0.20441,1.65423 0.0363,1.80299 0.21503,0.13289 0.12728,0.31452 -0.21549,0.44606 -0.48651,0.18668 -0.54968,0.62815 -0.39827,2.78312 0.099,1.40868 0.18712,2.70676 0.19587,2.88462 0.0215,0.43764 0.16815,0.2531 1.03633,-1.30425 z m 1.27263,-13.65941 c 0.11991,-0.19403 0.28803,-0.35278 0.3736,-0.35278 0.0856,0 0.15556,0.15875 0.15556,0.35278 0,0.19403 -0.16811,0.35278 -0.37359,0.35278 -0.20548,0 -0.27549,-0.15875 -0.15557,-0.35278 z m 120.79122,11.20069 c -0.0254,-1.33893 -0.10284,-1.60899 -0.27941,-0.97472 -0.23331,0.83811 -0.10793,2.82681 0.17823,2.82681 0.075,0 0.12052,-0.83344 0.10118,-1.85209 z m -0.31761,-3.68653 c 0,-0.70943 -0.10198,-0.85052 -0.39962,-0.55288 -0.21979,0.2198 -0.30415,0.64842 -0.18747,0.9525 0.32295,0.84158 0.58709,0.66179 0.58709,-0.39962 z m -0.86112,-3.49984 c -0.34838,-1.38806 -0.90277,-0.94665 -0.90277,0.71878 0,0.93109 0.17745,1.61862 0.44097,1.70848 0.51381,0.17521 0.77302,-1.18723 0.4618,-2.42726 z m -95.51336,79.7058 c 0.25466,-0.1019 0.55893,-0.0894 0.67616,0.0278 0.11722,0.11722 -0.0911,0.2006 -0.46302,0.18528 -0.41097,-0.0169 -0.49456,-0.10052 -0.21314,-0.21313 z m -48.617187,-5.7673 c 0,-0.18794 0.238125,-0.34171 0.529167,-0.34171 0.291042,0 0.529167,0.0624 0.529167,0.13865 0,0.0763 -0.238125,0.23002 -0.529167,0.3417 -0.291042,0.11169 -0.529167,0.0493 -0.529167,-0.13864 z m -1.5875,-0.5725 c -0.741274,-0.17053 -3.049414,-1.22872 -3.351388,-1.53647 -0.09701,-0.0989 -0.746337,-0.47851 -1.442943,-0.84362 -0.696605,-0.36512 -1.72848,-1.35227 -2.293055,-2.19367 -0.564575,-0.84139 -1.54244,-1.7789 -2.17303,-2.08335 -0.63059,-0.30444 -1.146528,-0.69721 -1.146528,-0.87282 0,-0.50651 -3.195658,-2.56912 -4.141223,-2.67292 -0.89366,-0.0981 -1.905995,-0.82889 -3.017326,-2.17817 -0.359572,-0.43656 -0.874987,-0.79375 -1.145363,-0.79375 -0.696648,0 -2.984976,-1.13187 -2.984976,-1.47644 0,-0.1581 -0.232781,-0.28744 -0.517293,-0.28744 -0.969285,0 -7.72463,-6.65701 -7.78965,-7.67626 -0.0092,-0.14368 -0.525104,-1.04639 -1.146528,-2.00601 -0.621424,-0.95961 -1.129862,-1.94391 -1.129862,-2.18733 0,-0.24341 -0.277813,-0.60438 -0.617362,-0.80215 -0.339548,-0.19777 -0.47886,-0.36441 -0.309581,-0.3703 0.169278,-0.006 0.110152,-0.24886 -0.131391,-0.5399 -0.241543,-0.29104 -0.340356,-0.52917 -0.219585,-0.52917 0.120772,0 -0.09431,-0.31389 -0.477969,-0.69755 -0.383655,-0.38365 -0.620934,-0.89959 -0.527286,-1.14653 0.09365,-0.24693 -0.227454,-0.91022 -0.713557,-1.47398 -0.486104,-0.56376 -0.895971,-1.11938 -0.910816,-1.23472 -0.01484,-0.11534 -0.07911,-0.44784 -0.142805,-0.73888 -0.0637,-0.29104 -0.202284,-0.97949 -0.30797,-1.52989 -0.105687,-0.55039 -0.338236,-1.18539 -0.516777,-1.41111 -0.17854,-0.22572 -0.517748,-1.04539 -0.753796,-1.8215 -0.236048,-0.77611 -0.645584,-1.89444 -0.91008,-2.48517 -0.443479,-0.99047 -1.306103,-6.81677 -1.251221,-8.45094 0.121903,-3.62981 0.427097,-15.3048 0.525648,-20.10834 0.123289,-6.00927 0.212189,-6.99996 0.669152,-7.45692 0.134967,-0.13496 0.242965,-0.41737 0.239994,-0.62757 -0.003,-0.2102 -0.15929,-0.14405 -0.347376,0.14699 -0.560921,0.86797 -0.40037,0.19728 0.369286,-1.54265 0.397135,-0.89779 0.873385,-1.63235 1.058333,-1.63235 0.184948,0 0.33627,-0.24749 0.33627,-0.54999 0,-0.32672 0.165767,-0.44753 0.408349,-0.29761 0.279755,0.1729 0.345731,0.0129 0.209507,-0.50799 -0.109362,-0.41821 -0.08146,-0.83291 0.062,-0.92158 0.143462,-0.0887 0.189916,-0.64445 0.10323,-1.23507 -0.09917,-0.67568 -0.0042,-1.07387 0.256028,-1.07387 0.227501,0 0.315525,-0.15875 0.195609,-0.35278 -0.119916,-0.19402 -0.04054,-0.35277 0.176389,-0.35277 0.21693,0 0.296305,-0.15875 0.176389,-0.35278 -0.119916,-0.19403 -0.04991,-0.35278 0.155569,-0.35278 0.205478,0 0.373597,-0.61285 0.373597,-1.36188 0,-0.87092 0.317941,-1.8304 0.881945,-2.6615 0.485069,-0.71479 0.881944,-1.51048 0.881944,-1.76819 0,-0.78643 3.080654,-3.38065 4.014552,-3.38065 0.642186,0 0.951821,-0.27684 1.242604,-1.11098 0.213009,-0.61104 0.387289,-1.45332 0.387289,-1.87174 0,-0.41842 0.396875,-1.2987 0.881944,-1.95617 0.485069,-0.65748 0.881944,-1.40149 0.881944,-1.65335 0,-0.59414 1.036955,-1.81094 3.952872,-4.63843 1.300956,-1.2615 2.283774,-2.42567 2.18404,-2.58705 -0.09973,-0.16136 0.0461,-0.29339 0.324072,-0.29339 0.277971,0 1.185242,-0.62144 2.016157,-1.38097 0.830915,-0.75953 1.920899,-1.59297 2.422186,-1.85208 0.501287,-0.25912 1.360008,-0.92377 1.90827,-1.477 0.548263,-0.55324 1.09244,-0.91029 1.209287,-0.79344 0.282169,0.28217 3.852069,-1.73943 5.297466,-2.99991 0.630464,-0.5498 1.368468,-0.91438 1.640011,-0.81018 0.271544,0.1042 0.594233,0.0268 0.717085,-0.17197 0.122854,-0.19878 0.466538,-0.26811 0.763739,-0.15406 0.323197,0.12402 0.752027,-0.0948 1.06704,-0.54457 0.289669,-0.41357 0.773786,-0.75194 1.075817,-0.75194 0.302027,0 1.840836,-0.31141 3.419577,-0.69204 1.57874,-0.38062 3.187936,-0.68618 3.575992,-0.67903 0.388055,0.007 1.340555,-0.15389 2.116666,-0.35787 1.880958,-0.49438 4.628229,-0.48441 5.571145,0.0202 0.41924,0.22437 1.25558,0.51921 1.85854,0.6552 0.99007,0.2233 1.08211,0.17316 0.95007,-0.5176 -0.30265,-1.58322 1.39593,-1.87799 8.46538,-1.46909 2.03595,0.11776 3.08681,0.0523 3.08681,-0.19225 0,-0.20394 0.23812,-0.27943 0.52916,-0.16774 0.29105,0.11168 0.52917,0.0399 0.52917,-0.15947 0,-0.19939 0.15875,-0.26441 0.35278,-0.1445 0.19403,0.11992 0.35278,0.0539 0.35278,-0.14674 0,-0.21829 0.431,-0.27858 1.07321,-0.15014 0.79415,0.15883 1.19216,0.052 1.53065,-0.41094 0.34373,-0.47007 0.61209,-0.53904 1.07954,-0.27744 0.66412,0.37166 1.93084,0.037 3.94479,-1.04207 0.60599,-0.3247 1.18034,-0.51182 1.27633,-0.41583 0.096,0.096 0.0999,-0.21564 0.009,-0.69251 -0.1357,-0.70988 0.0912,-1.02923 1.25166,-1.76181 1.60214,-1.01138 1.996,-1.49887 2.02861,-2.51085 0.0291,-0.90202 1.23621,-3.40869 1.88666,-3.91773 0.27406,-0.21448 0.40006,-0.64596 0.27999,-0.95885 -0.12006,-0.31288 -0.0665,-0.66271 0.11907,-0.77739 0.18556,-0.11468 0.33737,-0.49203 0.33737,-0.83856 0,-0.34654 0.3175,-0.91739 0.70556,-1.26858 0.38805,-0.35119 0.70555,-1.03798 0.70555,-1.52621 0,-0.48822 0.22678,-1.1383 0.50395,-1.44462 0.6427,-0.71028 2.07005,-4.01459 1.61185,-3.73141 -0.19448,0.1202 -0.25257,-0.0253 -0.13373,-0.33499 0.11555,-0.30112 0.39154,-0.54781 0.61332,-0.5482 0.22177,-3.5e-4 0.44532,-0.58782 0.49676,-1.3054 0.0514,-0.71758 0.27302,-1.41562 0.49238,-1.55119 0.21936,-0.13557 0.30525,-0.49038 0.19086,-0.78847 -0.11438,-0.29809 -0.0303,-0.6012 0.18682,-0.67358 0.21713,-0.0724 0.42674,-0.88988 0.46579,-1.81668 0.0391,-0.9268 0.22812,-2.02878 0.42016,-2.44884 1.06739,-2.33487 1.85462,-4.79579 1.85462,-5.79763 0,-0.62684 0.11906,-1.14003 0.26459,-1.14042 0.14552,-3.5e-4 0.30513,-0.56822 0.35469,-1.26184 0.0496,-0.69363 0.33277,-1.50378 0.62934,-1.80036 0.33149,-0.33149 0.45059,-0.81846 0.30916,-1.26408 -0.12654,-0.39867 -0.27461,-1.69163 -0.32906,-2.87324 -0.0544,-1.18161 -0.20459,-2.70401 -0.33366,-3.38311 -0.12906,-0.67909 -0.28017,-2.57946 -0.33578,-4.22302 -0.1187,-3.50818 0.27085,-4.2878 1.68086,-3.36393 0.7276,0.47674 0.87762,0.48385 1.04429,0.0495 0.27246,-0.71001 -0.0275,-4.85026 -0.48228,-6.6557 -0.84785,-3.36623 -1.06891,-4.41679 -1.33296,-6.3348 -0.26601,-1.9322 -0.24437,-2.01513 0.57984,-2.22199 0.87694,-0.2201 2.18212,0.59971 2.18648,1.37336 0.001,0.21246 0.24126,0.84474 0.53347,1.40505 0.29221,0.56031 0.50349,1.19531 0.46952,1.41111 -0.10138,0.64403 0.45967,2.33264 0.77504,2.33264 0.16094,0 0.29054,0.27781 0.28801,0.61736 -0.002,0.33955 0.15023,1.21648 0.33946,1.94874 0.18924,0.73227 0.26181,1.64592 0.16128,2.03035 -0.10053,0.38444 0.001,0.92074 0.22621,1.19178 0.38317,0.46169 0.31333,2.2594 -0.18882,4.86031 -0.12226,0.63323 0.0294,1.15965 0.45748,1.58827 0.47056,0.47113 0.63983,1.17872 0.6384,2.66881 -0.001,1.11524 0.0962,2.02771 0.21608,2.02771 0.21318,0 0.17515,0.40349 -0.25767,2.73403 -0.13643,0.73456 -0.0718,1.14653 0.17988,1.14653 0.21605,0 0.39282,0.23812 0.39282,0.52916 0,0.29104 -0.16812,0.52917 -0.3736,0.52917 -0.20548,0 -0.27119,0.1657 -0.14602,0.36823 0.12517,0.20253 0.0655,0.56357 -0.13268,0.80232 -0.51753,0.62359 -0.0804,3.41556 0.53477,3.41556 0.3713,0 0.40833,0.1622 0.14805,0.64852 -0.19089,0.35669 -0.25085,1.01651 -0.13323,1.46628 0.15723,0.60124 0.0964,0.74517 -0.22969,0.54362 -0.34532,-0.21341 -0.35825,-0.11474 -0.0584,0.44555 0.28018,0.52353 0.27807,0.75536 -0.008,0.85064 -0.52729,0.17577 0.25207,6.15997 0.94028,7.21973 0.37599,0.57899 0.39351,0.80234 0.0713,0.90973 -0.26476,0.0883 -0.0602,0.48224 0.5383,1.03695 0.67127,0.62211 0.9653,1.24467 0.9653,2.04388 0,0.98925 0.0748,1.08719 0.53724,0.7034 0.44457,-0.36895 0.50193,-0.35383 0.33251,0.0877 -0.18788,0.48959 0.46618,1.01315 1.42331,1.13932 0.19402,0.0256 0.31116,0.24352 0.26029,0.48431 -0.0509,0.24079 0.34601,0.84801 0.88194,1.34937 0.53594,0.50136 0.93081,1.063 0.8775,1.24808 -0.0533,0.18508 0.0588,0.24027 0.24908,0.12265 0.19032,-0.11761 0.60938,0.18809 0.93126,0.67934 0.32188,0.49125 0.77743,0.89318 1.01234,0.89318 0.2349,0 0.79535,0.39198 1.24543,0.87107 0.45008,0.47909 0.93801,0.79711 1.08429,0.70671 0.14627,-0.0904 0.72346,0.35105 1.28263,0.98101 0.55917,0.62996 1.69326,1.60828 2.52021,2.17405 0.82694,0.56577 1.62732,1.24986 1.77861,1.52021 0.22677,0.40521 0.44538,0.41394 1.24476,0.0497 0.7909,-0.36036 1.0235,-0.35473 1.26159,0.0305 0.177,0.28639 0.54473,0.37531 0.93412,0.22588 0.35322,-0.13554 0.53486,-0.13908 0.40365,-0.008 -0.13122,0.13122 0.15067,0.74891 0.62642,1.37265 0.47575,0.62374 0.75993,1.23915 0.6315,1.36757 -0.12842,0.12843 -0.0483,0.2335 0.17808,0.2335 0.66569,0 0.47165,0.97625 -0.30171,1.51793 -1.28515,0.90015 -5.66838,-0.35245 -5.92889,-1.69432 -0.0377,-0.19403 -0.27033,-0.35563 -0.51703,-0.35912 -0.2467,-0.004 -1.39586,-0.75882 -2.5537,-1.67851 -1.15783,-0.91968 -2.26684,-1.78995 -2.46446,-1.93393 -0.19762,-0.14398 -1.81156,-1.49208 -3.58654,-2.9958 -1.77498,-1.50372 -3.34424,-2.73403 -3.48724,-2.73403 -0.31897,0 -2.97385,-2.84356 -2.97385,-3.1852 0,-0.13506 -0.47625,-0.84485 -1.05833,-1.5773 -0.58209,-0.73246 -1.05834,-1.61419 -1.05834,-1.95939 0,-0.34521 -0.19844,-0.72026 -0.44097,-0.83344 -0.34977,-0.16322 -0.35051,-0.2481 -0.004,-0.41039 0.31276,-0.14629 0.18758,-0.53213 -0.43929,-1.354 -0.48218,-0.63217 -0.78151,-1.24458 -0.66518,-1.36091 0.11633,-0.11633 -0.0324,-0.70033 -0.33039,-1.29777 -0.29805,-0.59744 -0.36946,-0.97969 -0.15869,-0.84943 0.23349,0.14431 0.2814,0.0721 0.12262,-0.1848 -0.14936,-0.24167 -0.5679,-0.32409 -0.98063,-0.1931 -0.48011,0.15239 -0.63961,0.0984 -0.47865,-0.16204 0.13276,-0.21481 0.0733,-0.39057 -0.13221,-0.39057 -0.49302,0 -0.47491,0.46314 0.0382,0.97622 0.31383,0.31383 0.27417,0.46456 -0.1668,0.63378 -0.31821,0.12211 -0.68025,0.76406 -0.80454,1.42657 -0.12428,0.66251 -0.36673,1.29155 -0.53876,1.39787 -0.45297,0.27995 -0.38468,1.56278 0.0832,1.56278 0.25784,0 0.28069,0.15384 0.0655,0.44098 -0.48573,0.64817 -0.29924,2.74984 0.27635,3.11422 0.27329,0.173 0.33664,0.31699 0.14078,0.31996 -0.50467,0.008 -0.45272,4.32165 0.0541,4.49072 0.22194,0.074 0.32315,0.44196 0.22492,0.8176 -0.23119,0.88407 0.18431,2.5426 0.57629,2.30034 0.44217,-0.27328 0.71431,1.57891 0.36642,2.49392 -0.21611,0.56841 -0.13961,0.91317 0.27791,1.25258 0.49583,0.40305 0.54482,0.38478 0.35163,-0.1311 -0.15497,-0.4138 -0.077,-0.54279 0.25196,-0.41657 0.26204,0.10056 0.54701,0.4527 0.63326,0.78254 0.24374,0.93206 4.09715,1.22473 8.20298,0.62304 1.16417,-0.1706 2.61938,-0.32806 3.2338,-0.3499 0.61442,-0.0218 1.09067,-0.11909 1.05833,-0.2161 -0.067,-0.20111 0.29582,-0.35278 0.84397,-0.35278 0.20548,0 0.27479,0.15987 0.15403,0.35527 -0.12076,0.1954 0.0226,0.44819 0.31853,0.56175 0.96038,0.36854 1.04922,1.53201 0.17487,2.29033 -0.44188,0.38325 -1.01114,0.61711 -1.26501,0.51969 -0.25387,-0.0974 -0.46158,-0.014 -0.46158,0.18541 0,0.19939 -0.15815,0.26478 -0.35145,0.14531 -0.65038,-0.40196 -1.7487,-0.48933 -1.955,-0.15552 -0.11255,0.1821 -0.86995,0.33352 -1.68312,0.33649 -1.09776,0.004 -1.34221,0.0953 -0.94931,0.3545 0.39766,0.26233 0.24425,0.33001 -0.61737,0.27233 -0.63059,-0.0422 -1.14652,-0.18587 -1.14652,-0.31924 0,-0.13337 -0.59532,-0.25321 -1.32292,-0.2663 -4.09575,-0.0737 -6.94022,-0.41611 -7.7242,-0.92979 -1.17496,-0.76987 -1.69665,-2.21491 -1.16096,-3.21584 0.33502,-0.62599 0.2969,-1.00088 -0.19864,-1.95381 -0.33727,-0.64856 -0.67327,-1.57607 -0.74668,-2.06114 -0.43686,-2.88686 -0.60308,-3.49635 -0.99451,-3.64655 -0.25228,-0.0968 -0.6169,0.33719 -0.86899,1.03433 -0.23888,0.66061 -0.59978,1.20111 -0.80201,1.20111 -0.20223,0 -0.27792,0.23393 -0.16821,0.51984 0.11003,0.28672 -0.0708,0.67741 -0.40323,0.87121 -0.33149,0.19327 -0.46421,0.35621 -0.29493,0.36211 0.16928,0.006 0.15148,0.20917 -0.0395,0.4517 -0.33369,0.42365 -0.90879,2.16884 -0.96146,2.91762 -0.0139,0.19799 -0.37959,0.8575 -0.81258,1.46557 -0.98271,1.38009 -1.09234,3.36352 -0.16988,3.07347 0.55882,-0.17571 0.56383,-0.14957 0.0528,0.27565 -0.48182,0.40094 -0.24787,0.46487 1.59667,0.43629 1.18867,-0.0184 2.47869,-0.2034 2.86671,-0.41106 0.4795,-0.25662 0.90882,-0.26379 1.34021,-0.0224 0.34909,0.19536 0.72108,0.26884 0.82664,0.16327 0.10556,-0.10555 0.4327,0.0489 0.72697,0.34312 0.39932,0.39933 0.43341,0.63669 0.13439,0.93571 -0.58978,0.58978 -0.48741,0.97624 0.18976,0.71639 0.44729,-0.17164 0.53549,-0.0834 0.36385,0.36385 -0.14845,0.38686 -0.048,0.59041 0.29153,0.59041 0.28495,0 0.53794,0.15875 0.56219,0.35278 0.0243,0.19403 0.0712,0.55121 0.10423,0.79375 0.0331,0.24253 0.25136,0.40128 0.48507,0.35278 0.23372,-0.0485 0.38525,0.0904 0.33675,0.30868 -0.0485,0.21828 0.13234,0.477 0.40188,0.57493 0.30015,0.10905 0.39462,0.0236 0.24376,-0.22049 -0.13547,-0.2192 -0.0967,-0.39854 0.0861,-0.39854 0.18285,0 0.41548,0.3175 0.51696,0.70555 0.10824,0.41392 0.48119,0.70556 0.90227,0.70556 0.39477,0 0.81587,0.15875 0.93579,0.35278 0.30253,0.48951 1.95362,0.43135 5.46806,-0.19259 2.36789,-0.42038 3.16556,-0.44358 3.79236,-0.11027 0.9947,0.52894 1.02472,1.56553 0.0603,2.08168 -0.4034,0.2159 -1.03836,0.65361 -1.41103,0.97269 -0.43204,0.36993 -1.40829,0.60264 -2.69411,0.6422 -1.14785,0.0353 -2.0745,0.23588 -2.15106,0.46556 -0.0966,0.28967 -0.26335,0.29657 -0.59123,0.0245 -0.2512,-0.20848 -1.32309,-0.42778 -2.38198,-0.48733 -1.7983,-0.10113 -3.75564,-1.00188 -3.78437,-1.74153 -0.006,-0.15697 -0.14674,-0.20156 -0.31254,-0.0991 -0.32754,0.20243 -2.57264,-1.65811 -2.58423,-2.14158 -0.004,-0.16288 -0.14997,-0.25646 -0.32459,-0.20795 -0.17463,0.0485 -0.3175,-0.1593 -0.3175,-0.4618 0,-0.30249 -0.15875,-0.45187 -0.35278,-0.33195 -0.19403,0.11991 -0.35278,0.0731 -0.35278,-0.10406 0,-0.54439 -1.71282,-2.20426 -1.92324,-1.86378 -0.1088,0.17604 0.002,0.40048 0.24535,0.49874 0.2517,0.10148 0.13833,0.20877 -0.26239,0.24832 -1.20517,0.11897 -1.73613,-0.0493 -2.55625,-0.81026 -0.43579,-0.40434 -0.89881,-0.62871 -1.02893,-0.49859 -0.13012,0.13011 -0.0624,0.23657 0.15037,0.23657 0.26029,0 0.28976,0.33887 0.09,1.03527 -0.25156,0.87715 -0.20739,1.00746 0.28921,0.85315 0.45819,-0.14238 0.43666,-0.0603 -0.0987,0.37584 -0.37663,0.30688 -0.49569,0.55796 -0.26458,0.55796 0.673,0 0.4841,0.70268 -0.19716,0.73341 -0.3641,0.0164 -0.43761,0.10046 -0.17921,0.20485 0.32117,0.12973 0.33999,0.36043 0.0705,0.86397 -0.20221,0.37784 -0.49723,0.6069 -0.65559,0.50903 -0.35148,-0.21723 -1.52437,1.01512 -1.23835,1.30114 0.11205,0.11205 -0.13569,0.31147 -0.55055,0.44314 -0.83459,0.26489 -6.1554,5.43851 -6.1693,5.99863 -0.005,0.19403 -0.24687,0.35999 -0.53792,0.36881 -0.29104,0.009 -0.47625,0.24695 -0.41157,0.52917 0.0647,0.28222 -9e-5,0.39545 -0.14393,0.25161 -0.40517,-0.40518 -1.20776,0.43779 -1.21379,1.27485 -0.003,0.45869 -0.10668,0.59138 -0.26585,0.34123 -0.18258,-0.28696 -0.54339,-0.16597 -1.20681,0.40468 -0.52049,0.44772 -0.85065,0.90973 -0.73368,1.0267 0.11697,0.11697 -0.0995,0.21267 -0.48112,0.21267 -0.38159,0 -0.89371,0.19844 -1.13804,0.44098 -0.35637,0.35375 -0.39662,0.30142 -0.20353,-0.26459 0.20841,-0.61092 0.16033,-0.59783 -0.35844,0.0976 -0.32953,0.44172 -0.78562,0.77344 -1.01355,0.73718 -0.22792,-0.0363 -0.89066,0.13441 -1.47274,0.37929 -1.14026,0.4797 -3.55025,1.36688 -3.97366,1.4628 -0.51451,0.11657 -0.99853,0.25822 -3.0819,0.90192 -1.16416,0.3597 -2.39029,0.61705 -2.72472,0.5719 -0.33443,-0.0452 -0.77896,0.23724 -0.98784,0.62754 -0.20888,0.3903 -0.53057,0.61644 -0.71486,0.50254 -0.18429,-0.11389 -0.33508,-0.039 -0.33508,0.16652 0,0.20548 -0.24749,0.3736 -0.54998,0.3736 -0.3025,0 -0.46557,0.13659 -0.36239,0.30353 0.10317,0.16694 -0.48277,0.59913 -1.3021,0.9604 -0.819329,0.36128 -1.572252,0.77031 -1.673161,0.90896 -0.100905,0.13864 -0.894655,0.58927 -1.763889,1.0014 -2.463895,1.16818 -3.870215,2.00304 -3.685419,2.18784 0.229365,0.22936 -1.06836,1.37666 -1.656419,1.46441 -0.665529,0.0993 -3.329658,2.03313 -5.410803,3.92756 -0.970139,0.8831 -2.116423,1.69823 -2.547299,1.81141 -0.430876,0.11318 -1.636628,1.02318 -2.679453,2.02222 -1.042825,0.99904 -2.476228,2.35467 -3.18534,3.0125 -0.709115,0.65785 -1.294578,1.37222 -1.301034,1.58751 -0.01658,0.55262 -1.258926,1.97892 -1.723714,1.97892 -0.782461,0 -2.497882,2.01599 -2.497882,2.93555 0,0.50539 -0.30836,1.7012 -0.685239,2.65736 -0.376883,0.95616 -0.575321,1.84839 -0.440972,1.98273 0.134345,0.13435 0.01337,0.19136 -0.268866,0.12668 -0.282223,-0.0647 -0.520348,0.0676 -0.529167,0.29398 -0.0088,0.22636 -0.135096,0.53064 -0.280617,0.67616 -0.145521,0.14552 -0.264583,1.6575 -0.264583,3.35996 0,1.81476 -0.155904,3.19174 -0.376827,3.32828 -0.207257,0.12809 -0.28412,0.47449 -0.170808,0.76977 0.113312,0.29529 -0.04934,1.55512 -0.361453,2.79962 -0.312109,1.24451 -0.455594,2.53467 -0.318858,2.86702 0.420095,1.02108 0.49838,6.07234 0.09411,6.07234 -0.221632,0 -0.278193,0.43641 -0.143707,1.10884 0.12748,0.63739 0.05287,1.31234 -0.175486,1.5875 -0.265208,0.31955 -0.281369,0.62524 -0.04862,0.91963 0.191748,0.24254 0.425023,0.86564 0.518389,1.38467 0.131956,0.73357 -0.04884,1.10532 -0.811922,1.66949 l -0.981678,0.72578 -0.552616,-2.55143 c -0.424857,-1.96157 -0.519158,-4.01947 -0.407892,-8.90143 0.160627,-7.04766 0.50793,-12.77383 0.823775,-13.58194 0.113753,-0.29104 0.220532,-0.635 0.237289,-0.76435 0.01676,-0.12935 0.149532,-0.35425 0.295053,-0.49977 0.14552,-0.14552 0.264664,-0.59531 0.264759,-0.99954 2.93e-4,-1.20413 1.361384,-4.41647 2.300355,-5.42911 0.480959,-0.51869 0.874469,-1.24746 0.874469,-1.61949 0,-0.948 9.308655,-10.01461 14.463888,-14.08779 3.132822,-2.47526 8.974766,-6.4235 8.678277,-5.86515 -0.150061,0.2826 0.01877,0.16626 0.375137,-0.25853 0.356387,-0.42478 1.67985,-1.35863 2.941031,-2.07522 3.125782,-1.77602 6.648512,-3.66243 6.968472,-3.73158 0.14491,-0.0313 0.8191,-0.30044 1.49819,-0.59803 0.6791,-0.29759 1.3141,-0.55315 1.41112,-0.56791 0.097,-0.0147 0.33513,-0.1248 0.52916,-0.24453 0.19403,-0.11974 0.87941,-0.3307 1.52307,-0.46882 0.64366,-0.13812 1.59616,-0.47331 2.11667,-0.74487 0.5205,-0.27156 1.22419,-0.49472 1.56373,-0.49592 0.33955,-0.001 0.61736,-0.16092 0.61736,-0.35495 0,-0.19403 0.23813,-0.35278 0.52917,-0.35278 0.29104,0 0.52917,-0.12685 0.52917,-0.2819 0,-0.26412 2.08823,-1.169 3.10434,-1.34519 0.65628,-0.1138 1.50287,-0.87558 1.31353,-1.18194 -0.13885,-0.22466 1.35855,-1.77708 1.71408,-1.77708 0.35029,0 2.85219,-2.56962 2.77569,-2.85081 -0.0485,-0.17831 0.0775,-0.32419 0.27995,-0.32419 0.20248,0 1.01018,-0.59531 1.79489,-1.32291 0.78471,-0.72761 1.64734,-1.44787 1.91696,-1.60058 0.605,-0.34269 2.62278,-3.23552 2.62278,-3.76022 0,-0.21063 -0.4853,0.13547 -1.07844,0.76912 l -1.07843,1.15209 0.56634,-1.23472 c 0.4013,-0.87488 0.42269,-1.0564 0.0734,-0.62284 -0.27111,0.33653 -0.5963,0.50851 -0.72263,0.38217 -0.2047,-0.2047 -0.38077,0.695 -0.27148,1.3872 0.0449,0.28421 -0.46761,0.38373 -1.45753,0.28303 -0.35141,-0.0357 -0.61736,0.17472 -0.61736,0.48854 0,0.30324 -0.11906,0.55154 -0.26458,0.55178 -0.23903,3.5e-4 -0.9335,0.53288 -3.10596,2.3815 -0.39858,0.33917 -0.87245,0.63569 -1.05304,0.65892 -0.18059,0.0233 -0.58058,0.49949 -0.88889,1.05834 -0.40356,0.73152 -0.87433,1.04704 -1.68098,1.12663 -0.73305,0.0723 -1.13351,-0.0497 -1.15824,-0.35278 -0.0208,-0.25483 -0.0605,-0.93957 -0.0882,-1.52166 -0.0277,-0.58208 -0.16946,-1.01864 -0.31498,-0.97013 -0.14552,0.0485 -0.59146,0.0882 -0.99096,0.0882 -0.39951,0 -0.62826,0.15875 -0.50835,0.35278 0.11992,0.19403 0.0499,0.35278 -0.15557,0.35278 -0.20547,0 -0.37359,-0.15287 -0.37359,-0.3397 0,-0.18684 -0.99219,-0.34203 -2.20487,-0.34487 -1.21267,-0.003 -2.71643,-0.08 -3.34168,-0.17148 -0.62526,-0.0915 -1.22881,-0.0175 -1.34124,0.16444 -0.11243,0.18191 0.002,0.25201 0.25488,0.15579 0.3291,-0.12537 0.46441,0.23259 0.47732,1.26277 0.01,0.79075 0.20512,1.55336 0.43379,1.69468 0.63227,0.39077 -1.41127,1.46485 -2.32994,1.22461 -0.42224,-0.11041 -0.76771,-0.42037 -0.76771,-0.68878 0,-0.26841 -0.15875,-0.48802 -0.35278,-0.48802 -0.19402,0 -0.36531,-0.35719 -0.38063,-0.79375 -0.0153,-0.43656 -0.11115,-0.58561 -0.21297,-0.33121 -0.15072,0.37657 -0.29307,0.37149 -0.7659,-0.0273 -0.31943,-0.26943 -1.29515,-0.70189 -2.16827,-0.96102 -1.7789,-0.52796 -6.770381,-0.72666 -7.079393,-0.28183 -0.271893,0.3914 -3.89389,0.62402 -3.653232,0.23463 0.305354,-0.49408 -0.66844,-0.33506 -1.417444,0.23145 -0.376632,0.28488 -0.994131,0.51795 -1.372221,0.51795 -0.378086,0 -0.900352,0.27781 -1.160589,0.61736 -0.413664,0.53974 -0.517684,0.55082 -0.827239,0.0882 -0.237638,-0.35515 -0.355858,-0.38415 -0.359484,-0.0882 -0.0028,0.24254 -0.252896,0.44098 -0.555389,0.44098 -0.323254,0 -0.447072,0.16651 -0.300344,0.40392 0.172004,0.27831 -0.03762,0.34902 -0.67406,0.22735 -0.508035,-0.0971 -0.84654,-0.0517 -0.752235,0.10087 0.09431,0.15259 -0.0076,0.38812 -0.226504,0.5234 -0.218885,0.13527 -0.536544,0.0272 -0.705909,-0.24021 -0.247364,-0.39054 -0.308998,-0.37128 -0.313337,0.0979 -0.0065,0.69732 -3.135185,2.86011 -3.77971,2.61278 -0.247809,-0.0951 -0.412779,0.0198 -0.366596,0.25538 0.05472,0.27912 -0.315345,0.3971 -1.062567,0.33874 -0.63059,-0.0493 -1.146528,0.0416 -1.146528,0.20192 0,0.1603 -0.641053,0.71117 -1.424562,1.22414 -0.783513,0.51298 -1.329768,0.77931 -1.213905,0.59184 0.115866,-0.18747 -0.05382,-0.34086 -0.377067,-0.34086 -0.368998,0 -0.514537,0.19074 -0.391064,0.51251 0.118565,0.30897 -0.251718,0.87204 -0.932396,1.41784 -0.620984,0.49793 -1.573392,1.25949 -2.116465,1.69235 -0.543073,0.43287 -1.184776,0.94578 -1.426009,1.1398 -0.241233,0.19403 -0.735524,0.52008 -1.098419,0.72455 -0.362899,0.20448 -0.703753,0.68073 -0.75745,1.05834 -0.0537,0.37761 -0.623203,1.12813 -1.265565,1.66782 -0.642363,0.5397 -1.187775,1.13501 -1.212028,1.32292 -0.02424,0.18791 -0.08274,0.46072 -0.12997,0.60624 -0.04723,0.14552 -0.06898,0.37793 -0.04833,0.51647 0.02064,0.13854 -0.205168,0.15875 -0.501816,0.0449 -0.296647,-0.11383 -0.498542,-0.0684 -0.448648,0.10089 0.04989,0.16933 -0.337817,1.14902 -0.861572,2.17709 -0.523755,1.02808 -0.796209,1.77277 -0.605451,1.65488 0.190757,-0.1179 0.34683,-0.0595 0.34683,0.12984 0,0.18931 -0.171249,0.40129 -0.380549,0.47105 -0.209303,0.0698 -0.435038,0.71311 -0.501632,1.42965 -0.0666,0.71653 -0.249763,1.50612 -0.407039,1.75463 -0.157275,0.24851 -0.306419,0.90512 -0.331427,1.45914 -0.02501,0.55401 -0.239782,1.12739 -0.477267,1.27416 -0.237486,0.14678 -0.438445,0.40787 -0.446577,0.5802 -0.03558,0.75402 -0.398581,1.19528 -0.983287,1.19528 -0.691716,0 -1.058333,-0.67131 -1.058333,-1.93791 0,-1.19057 -1.157037,-0.9029 -1.540802,0.38309 -0.168344,0.56411 -0.474028,1.34315 -0.679296,1.73121 -0.205269,0.38806 -0.416812,1.62073 -0.470096,2.73928 -0.05328,1.11855 -0.211405,2.21903 -0.35138,2.44551 -0.139976,0.22649 -0.302933,0.81944 -0.362129,1.31767 -0.0592,0.49823 -0.276769,1.93775 -0.483497,3.19893 -0.424388,2.58906 -0.200891,4.52861 0.555275,4.81878 0.280336,0.10758 0.509703,0.48541 0.509703,0.83963 0,0.35422 0.28285,0.73382 0.628556,0.84354 0.354823,0.11261 0.661067,0.5923 0.703207,1.10148 0.04106,0.49608 -0.07207,0.81129 -0.251402,0.70046 -0.17933,-0.11083 -0.429038,-0.0349 -0.554909,0.16879 -0.406474,0.65768 -2.768311,0.23234 -3.461474,-0.62338 -0.784341,-0.96828 -1.47327,-1.07614 -0.979403,-0.15334 0.188743,0.35267 0.22609,1.18481 0.08312,1.85208 -0.307032,1.43301 -0.246322,7.30482 0.07889,7.63003 0.399613,0.39961 0.244581,1.21972 -0.180869,0.95678 -0.299356,-0.18501 -0.329419,0.1582 -0.114053,1.3021 0.160849,0.85433 0.304088,2.21386 0.31831,3.02118 0.01422,0.80731 0.144921,1.58783 0.290442,1.73449 0.145521,0.14665 0.262153,0.67674 0.259182,1.17798 -0.0044,0.74436 -0.07515,0.81438 -0.386056,0.38218 -0.314135,-0.4367 -0.342952,-0.41347 -0.164901,0.13291 0.118665,0.36414 0.03164,0.88391 -0.193382,1.15505 -0.225024,0.27114 -0.307138,0.59497 -0.182475,0.71964 0.124663,0.12466 0.22666,0.0414 0.22666,-0.18492 0,-0.22636 0.172257,-0.41157 0.382793,-0.41157 0.265778,0 0.315413,1.2384 0.162373,4.05125 -0.186243,3.42309 -0.142479,4.02134 0.282251,3.85836 0.365176,-0.14013 0.617786,0.28696 0.923521,1.5614 0.231467,0.96487 0.390167,2.04642 0.352665,2.40345 -0.118843,1.13145 0.0022,1.57948 0.365841,1.35471 0.197248,-0.12191 0.352778,0.15025 0.352778,0.6173 0,0.45944 0.224999,1.14305 0.499998,1.51913 0.311217,0.42561 0.378642,0.83001 0.17858,1.07107 -0.210489,0.25363 0.124489,0.79305 0.97062,1.56301 1.049154,0.95471 1.18314,1.21393 0.712748,1.37893 -0.464858,0.16307 -0.267394,0.51057 0.999629,1.75918 1.666244,1.64203 1.828898,2.13981 0.461,1.41081 -0.749945,-0.39967 -0.78047,-0.38639 -0.339796,0.14781 0.266293,0.32281 0.671105,0.58692 0.899584,0.58692 0.823205,0 1.199288,0.75277 0.899067,1.79959 -0.173026,0.6033 -0.15873,1.04072 0.03486,1.06673 0.180483,0.0243 0.474029,0.0639 0.652323,0.0882 0.549743,0.0748 2.901642,3.38064 2.670816,3.75412 -0.119616,0.19355 0.02978,0.44679 0.332014,0.56276 0.302228,0.11598 0.446511,0.37751 0.320632,0.58119 -0.136634,0.22107 -0.0585,0.26502 0.193869,0.10905 0.561182,-0.34683 1.532919,0.48609 1.293869,1.10904 -0.103621,0.27003 -0.03383,0.39543 0.155117,0.27866 0.188937,-0.11677 0.703058,0.11439 1.142488,0.51369 1.322564,1.20176 2.853796,2.29554 3.973968,2.83866 0.582083,0.28223 1.549569,0.87355 2.149965,1.31406 0.600399,0.4405 1.220413,0.80092 1.377812,0.80092 0.157399,0 0.80651,0.39687 1.44247,0.88194 0.635959,0.48507 1.325629,0.88195 1.532604,0.88195 0.206975,0 0.376315,0.15875 0.376315,0.35278 0,0.19402 0.149207,0.31309 0.331572,0.26458 0.705471,-0.18765 4.441532,3.23613 5.581848,5.11528 0.323786,0.53357 0.781078,0.97014 1.016204,0.97014 0.235123,0 0.766869,0.43144 1.181658,0.95875 0.801331,1.01873 2.393886,1.8357 3.806253,1.9526 0.786501,0.0651 2.193576,1.38211 2.193576,2.05319 0,0.1558 -0.277813,0.271 -0.617361,0.25601 -0.339549,-0.015 -1.014236,0.0588 -1.499306,0.16407 -0.485069,0.10524 -1.199444,0.1183 -1.5875,0.029 z M 68.685779,645.43114 c -0.112614,-0.28142 -0.196208,-0.19783 -0.213134,0.21314 -0.01531,0.37188 0.06806,0.58024 0.185285,0.46302 0.117225,-0.11722 0.129756,-0.4215 0.02784,-0.67616 z M 54.461256,614.98201 c 0.111683,-0.29104 0.04929,-0.52917 -0.138646,-0.52917 -0.187938,0 -0.341706,0.23813 -0.341706,0.52917 0,0.29104 0.06239,0.52917 0.138646,0.52917 0.07626,0 0.230023,-0.23813 0.341706,-0.52917 z m 64.077984,-37.21806 c 0,-0.19403 -0.16812,-0.35278 -0.3736,-0.35278 -0.20548,0 -0.27549,0.15875 -0.15557,0.35278 0.11992,0.19403 0.28804,0.35278 0.3736,0.35278 0.0856,0 0.15557,-0.15875 0.15557,-0.35278 z m 25.75277,-35.27778 c 0,-0.19402 -0.07,-0.35277 -0.15557,-0.35277 -0.0856,0 -0.25368,0.15875 -0.37359,0.35277 -0.11992,0.19403 -0.0499,0.35278 0.15556,0.35278 0.20548,0 0.3736,-0.15875 0.3736,-0.35278 z m 72.16574,153.00215 c 0.13248,-0.34791 0.32973,-0.54371 0.43835,-0.43509 0.10862,0.10862 2.3e-4,0.39327 -0.24087,0.63258 -0.34841,0.34581 -0.38893,0.30529 -0.19748,-0.19749 z m 25.59482,-3.19843 c -0.50372,-0.60696 0.79617,-3.75371 1.55062,-3.75371 0.27521,0 1.02184,-0.44113 1.65918,-0.98029 1.17535,-0.99429 2.9114,-2.16788 5.29763,-3.58128 0.72414,-0.42891 1.64909,-1.24677 2.05545,-1.81745 0.40636,-0.57069 0.87749,-0.95192 1.04695,-0.84719 0.16945,0.10472 0.48768,-0.14513 0.70716,-0.55524 0.21948,-0.41011 0.48681,-0.6579 0.59406,-0.55065 0.41074,0.41074 9.19625,-7.88373 12.00686,-11.33577 0.63415,-0.77887 1.14653,-1.81541 1.14653,-2.3194 0,-0.52078 0.41029,-1.32151 0.95753,-1.86875 0.52664,-0.52664 1.00691,-1.28103 1.06724,-1.67642 0.0603,-0.39538 0.28479,-0.82708 0.49878,-0.95934 0.21398,-0.13225 0.27998,-0.41695 0.14666,-0.63267 -0.13332,-0.21572 -0.0743,-0.39222 0.13119,-0.39222 0.20548,0 0.3736,-0.23813 0.3736,-0.52917 0,-0.29104 0.17819,-0.52916 0.39597,-0.52916 0.27094,0 0.25518,-0.16965 -0.0499,-0.53725 -0.37416,-0.45084 -0.34986,-0.5004 0.15112,-0.30815 0.49771,0.19099 0.55831,0.075 0.36443,-0.69748 -0.1814,-0.72276 -0.10317,-0.92657 0.35568,-0.92657 0.32352,0 0.49213,-0.15548 0.37468,-0.34552 -0.21677,-0.35075 0.44053,-3.06591 0.89849,-3.71142 0.13765,-0.19403 0.35983,-0.90841 0.49371,-1.5875 0.13389,-0.6791 0.49484,-1.78789 0.80211,-2.46399 0.71495,-1.57313 1.17587,-3.58926 0.76211,-3.33354 -0.4827,0.29832 -0.37433,-1.17549 0.16511,-2.24569 0.2641,-0.52394 0.58064,-1.84542 0.70342,-2.93663 0.12277,-1.09121 0.44493,-2.41136 0.71591,-2.93366 0.40634,-0.78323 0.41346,-1.11557 0.0406,-1.89654 -0.24864,-0.52079 -0.56115,-2.53306 -0.69446,-4.47172 -0.13332,-1.93864 -0.36712,-3.68489 -0.51955,-3.88055 -0.15244,-0.19566 -0.38299,-1.29778 -0.51234,-2.44917 -0.12936,-1.15139 -0.39574,-2.28689 -0.59198,-2.52333 -0.24715,-0.29781 -0.21676,-0.4822 0.0989,-0.60012 0.33761,-0.1261 0.29382,-0.29514 -0.16899,-0.65229 -0.34358,-0.26515 -0.66108,-0.99742 -0.70556,-1.62728 -0.0445,-0.62986 -0.24742,-1.14552 -0.45099,-1.1459 -0.21787,-3.6e-4 -0.30852,-0.52848 -0.22037,-1.28357 0.11127,-0.9531 0.038,-1.2138 -0.28502,-1.01416 -0.31252,0.19315 -0.37053,0.0662 -0.20626,-0.45133 0.1257,-0.39602 0.0633,-0.82215 -0.13859,-0.94694 -0.20192,-0.1248 -0.36713,-0.60291 -0.36713,-1.06249 0,-1.14438 -3.21656,-7.25913 -4.84049,-9.20188 -0.7288,-0.87187 -1.3269,-1.85794 -1.32911,-2.19125 -0.002,-0.33332 -0.21425,-0.56241 -0.4712,-0.50909 -0.25696,0.0533 -0.36596,-0.0669 -0.24223,-0.26708 0.12373,-0.20021 -0.006,-0.45252 -0.28757,-0.56069 -0.28925,-0.111 -0.43945,-0.47616 -0.34478,-0.83819 0.0992,-0.37945 -0.11196,-0.8385 -0.51699,-1.12374 -0.37661,-0.26523 -1.18662,-1.37281 -1.80003,-2.46129 -0.6134,-1.08848 -1.95847,-2.83473 -2.98903,-3.88055 -3.21298,-3.26057 -8.95051,-8.60288 -9.27258,-8.63385 -0.78949,-0.0759 -2.24766,-0.87659 -2.24766,-1.23417 0,-0.21959 -0.22628,-0.31242 -0.50284,-0.20629 -1.19364,0.45804 -4.78882,-1.47939 -4.78882,-2.58068 0,-0.43587 2.87198,-0.16408 5.64444,0.53417 1.26118,0.31763 2.5743,0.57371 2.91804,0.56907 0.34375,-0.005 0.53281,0.14069 0.42016,0.32298 -0.11266,0.18228 0.0116,0.33143 0.27618,0.33143 0.51014,0 6.61618,5.91767 6.61618,6.41207 0,0.15989 0.28528,0.2907 0.63396,0.2907 0.34868,0 1.25402,0.635 2.01187,1.41111 0.75785,0.77612 1.28205,1.41112 1.16488,1.41112 -0.11716,0 0.46686,0.71976 1.29782,1.59946 0.83096,0.87971 1.60667,2.07864 1.7238,2.6643 0.11714,0.58565 0.71257,1.48521 1.32319,1.99901 0.61062,0.51381 1.28762,1.34186 1.50443,1.84012 0.21682,0.49825 1.70728,2.88737 3.31214,5.30915 1.60485,2.42178 2.88213,4.48261 2.83837,4.57962 -0.0437,0.097 0.17798,0.65264 0.49273,1.23473 0.50055,0.92568 1.47869,4.16839 1.8695,6.1977 0.0725,0.37626 0.25522,0.88196 0.40613,1.12376 0.15091,0.24181 0.32266,0.75026 0.38168,1.12989 0.059,0.37963 0.29417,0.80572 0.52255,0.94687 0.22838,0.14114 0.4432,0.86241 0.47739,1.60281 0.0859,1.86047 0.10737,1.94204 0.45476,1.72734 0.16878,-0.10431 0.405,0.95788 0.52494,2.36043 0.11994,1.40254 0.39392,3.97883 0.60886,5.72508 0.56306,4.57443 0.5354,7.07522 -0.10922,9.87778 -0.31241,1.3582 -0.76525,3.62038 -1.00632,5.02709 -0.24106,1.4067 -0.57159,2.55764 -0.73449,2.55764 -0.16291,0 -0.2962,0.55778 -0.2962,1.2395 0,0.68173 -0.15758,1.51517 -0.35018,1.85209 -0.51301,0.89741 -1.45211,3.62583 -1.66792,4.84591 -0.10296,0.58208 -0.3179,1.22357 -0.47763,1.42553 -0.15974,0.20196 -0.38215,0.88783 -0.49426,1.52416 -0.1121,0.63632 -0.52799,1.50296 -0.92419,1.92585 -0.3962,0.4229 -0.80648,1.19447 -0.91174,1.71461 -0.10526,0.52013 -0.50228,1.27941 -0.88227,1.68728 -0.37998,0.40786 -1.06525,1.5881 -1.52283,2.62275 -0.45757,1.03465 -1.08152,1.97695 -1.38657,2.09401 -0.30504,0.11706 -0.55597,0.49562 -0.55761,0.84126 -0.002,0.34564 -1.17737,1.81864 -2.61272,3.27334 -1.43536,1.45469 -2.5359,2.76438 -2.44564,2.91041 0.0903,0.14604 -0.0868,0.26552 -0.39356,0.26552 -0.30671,0 -1.42992,0.87226 -2.49602,1.93836 -1.06609,1.0661 -2.06098,1.89954 -2.21084,1.85208 -0.14987,-0.0475 -1.15659,0.66779 -2.23715,1.58942 -1.08056,0.92163 -2.22303,1.67569 -2.53882,1.67569 -0.31579,0 -1.3174,0.75407 -2.2258,1.6757 -0.9084,0.92163 -1.52119,1.45273 -1.36177,1.18021 0.19538,-0.33396 0.15711,-0.41342 -0.11741,-0.24376 -0.22401,0.13844 -0.40729,0.48047 -0.40729,0.76006 0,0.27959 -0.23812,0.50835 -0.52916,0.50835 -0.29104,0 -0.52917,0.15377 -0.52917,0.34171 0,0.18793 -0.20742,0.26211 -0.46092,0.16483 -0.52181,-0.20024 -3.10515,2.49803 -2.76086,2.88367 0.12274,0.13749 -0.0769,0.14176 -0.44364,0.009 -0.45762,-0.16505 -0.82357,-0.0167 -1.16653,0.47296 -0.57519,0.8212 -1.60358,0.93138 -2.18249,0.23384 z M 85.025348,686.02263 c 0,-0.19416 -0.300867,-0.30336 -0.668595,-0.24266 -0.574033,0.0948 -3.850319,-2.18487 -6.863016,-4.77528 -0.417266,-0.35878 -1.367568,-1.15253 -2.111781,-1.76389 -2.420726,-1.9886 -3.058216,-2.65737 -3.406652,-3.57382 -0.188573,-0.49599 -0.732927,-1.0501 -1.209682,-1.23136 -0.476751,-0.18125 -1.058926,-0.69435 -1.29372,-1.14019 -0.234795,-0.44586 -1.19143,-1.56807 -2.125857,-2.49381 -2.443272,-2.42055 -3.637128,-4.09937 -5.504723,-7.74084 -0.678818,-1.32357 -1.05113,-5.92183 -0.479478,-5.92183 0.256039,0 0.344347,-0.26267 0.22001,-0.65442 -0.11424,-0.35994 -0.04932,-1.03463 0.144261,-1.49931 0.338431,-0.81238 0.348898,-0.80446 0.27213,0.2059 -0.05323,0.70052 0.08472,1.05331 0.413826,1.05834 0.578195,0.009 1.320849,1.96638 1.566689,4.12957 0.296658,2.61037 1.775834,4.7771 6.935477,10.15925 0.873125,0.91077 2.374886,2.54354 3.337243,3.62837 0.96236,1.08483 1.875172,1.8949 2.028472,1.80015 0.153303,-0.0948 0.278729,0.007 0.278729,0.22653 0,0.51502 0.891717,1.40674 1.406734,1.40674 0.219336,0 0.285524,0.18327 0.14708,0.40728 -0.141376,0.22875 -0.09811,0.31235 0.0987,0.19072 0.192729,-0.11912 1.209445,0.5786 2.259369,1.55049 1.049923,0.97188 3.199581,2.47148 4.777016,3.33245 3.120104,1.70296 3.949428,2.82389 2.297243,3.105 -1.573823,0.26778 -2.519475,0.20646 -2.519475,-0.16338 z M 235.66145,672.66118 c 0,-0.19403 0.16812,-0.35278 0.3736,-0.35278 0.20548,0 0.27549,0.15875 0.15557,0.35278 -0.11991,0.19402 -0.28803,0.35277 -0.3736,0.35277 -0.0856,0 -0.15557,-0.15875 -0.15557,-0.35277 z m -16.22777,-2.13749 c 0,-0.20548 0.15875,-0.27549 0.35278,-0.15557 0.19402,0.11992 0.35277,0.28804 0.35277,0.3736 0,0.0856 -0.15875,0.15557 -0.35277,0.15557 -0.19403,0 -0.35278,-0.16812 -0.35278,-0.3736 z M 113.98098,642.1165 c 0.0169,-0.41097 0.10052,-0.49456 0.21313,-0.21314 0.10191,0.25466 0.0894,0.55894 -0.0278,0.67616 -0.11723,0.11723 -0.20061,-0.0911 -0.18529,-0.46302 z m 11.26103,-23.07755 c 0,-0.19402 0.16812,-0.35277 0.3736,-0.35277 0.20548,0 0.27549,0.15875 0.15557,0.35277 -0.11992,0.19403 -0.28804,0.35278 -0.3736,0.35278 -0.0856,0 -0.15557,-0.15875 -0.15557,-0.35278 z m 95.0842,-35.61342 c -0.12574,-0.20345 -0.11658,-0.56835 0.0204,-0.81088 0.17933,-0.31763 0.13497,-0.33652 -0.1586,-0.0675 -0.37009,0.33911 -1.67488,0.28206 -6.7515,-0.29519 -0.88573,-0.10071 -3.87419,-1.68324 -5.02708,-2.66208 -0.33955,-0.28828 -0.62241,-0.38048 -0.62858,-0.20489 -0.006,0.17559 -0.2443,0.0111 -0.52917,-0.36553 -0.28487,-0.37663 -0.52038,-0.53538 -0.52335,-0.35278 -0.003,0.18261 -0.12203,0.1696 -0.26458,-0.0289 -0.8537,-1.18883 -3.26969,-2.09256 -7.48373,-2.79939 -0.481,-0.0807 -0.9231,-0.29235 -0.98244,-0.47038 -0.0594,-0.17804 -0.49924,-0.2489 -0.97754,-0.15746 -0.67194,0.12845 -0.87087,0.0165 -0.87504,-0.49225 -0.004,-0.4846 -0.0826,-0.53677 -0.29774,-0.19756 -0.35627,0.56174 -3.21258,0.30577 -3.601,-0.3227 -0.14133,-0.22868 -0.59072,-0.32851 -0.99864,-0.22184 -0.40791,0.10667 -0.74166,0.0817 -0.74166,-0.0555 0,-0.13721 -0.71754,-0.59807 -1.59453,-1.02414 -1.3742,-0.66764 -2.7043,-2.25086 -2.25514,-2.6843 0.19293,-0.18617 1.34467,-0.3017 2.43856,-0.24461 0.70454,0.0368 0.7755,0.11481 0.35277,0.388 -0.44198,0.28563 -0.41292,0.35202 0.17639,0.40295 0.38806,0.0335 0.90229,0.0539 1.14274,0.0452 0.24044,-0.009 0.35301,0.12043 0.25015,0.28686 -0.10286,0.16644 0.17666,0.37803 0.62116,0.47021 3.25363,0.67477 6.62901,0.93981 6.62901,0.52053 0,-0.15106 -0.27781,-0.4821 -0.61736,-0.73564 -1.35036,-1.0083 -2.91042,-3.17318 -2.91042,-4.03877 0,-0.68251 0.13831,-0.85434 0.55802,-0.69328 0.30691,0.11777 0.74347,0.21551 0.97014,0.21719 0.22666,0.002 1.00743,0.5673 1.73504,1.25694 0.7276,0.68963 1.32796,1.12482 1.33413,0.96708 0.006,-0.15774 0.20461,-0.0462 0.44097,0.24782 1.02608,1.27646 3.46362,2.87873 4.04187,2.65683 0.32984,-0.12657 0.48691,-0.11733 0.34905,0.0205 -0.56521,0.56521 2.05871,2.46547 4.06453,2.94358 1.11566,0.26594 2.02847,0.61645 2.02847,0.77893 0,0.16248 0.56056,0.91589 1.24568,1.67424 1.06713,1.18118 1.50959,1.40645 3.08681,1.57162 4.06909,0.4261 7.94274,0.71255 9.83703,0.72744 1.09928,0.009 1.94924,0.0979 1.88881,0.1984 -0.0604,0.10048 1.57495,0.22898 3.63418,0.28555 4.01383,0.11027 5.13864,0.55905 4.92927,1.96671 -0.15411,1.03614 -1.59128,1.17414 -9.50814,0.91295 -2.64534,-0.0873 -3.91714,0.006 -4.29012,0.31593 -0.35855,0.29757 -0.60415,0.32025 -0.75876,0.0701 z m -74.09392,-4.25047 c -0.11992,-0.19402 -0.0499,-0.35277 0.15557,-0.35277 0.20548,0 0.3736,0.15875 0.3736,0.35277 0,0.19403 -0.07,0.35278 -0.15557,0.35278 -0.0856,0 -0.25368,-0.15875 -0.3736,-0.35278 z m 1.14653,0.11914 c 0.24253,-0.0979 0.63941,-0.0979 0.88194,0 0.24254,0.0979 0.0441,0.17794 -0.44097,0.17794 -0.48507,0 -0.68351,-0.0801 -0.44097,-0.17794 z m -30.77986,-0.47191 c -0.11992,-0.19403 -0.0593,-0.35278 0.13475,-0.35278 0.19403,0 0.45089,0.15875 0.5708,0.35278 0.11992,0.19402 0.0593,0.35277 -0.13475,0.35277 -0.19402,0 -0.45089,-0.15875 -0.5708,-0.35277 z m 94.89972,-1.75985 c -0.1236,-0.19998 0.018,-0.25912 0.33195,-0.13865 0.61116,0.23452 0.72298,0.48738 0.21554,0.48738 -0.18258,0 -0.42895,-0.15693 -0.54749,-0.34873 z m -84.84556,-0.7096 c 0,-0.19403 0.16812,-0.35278 0.3736,-0.35278 0.20548,0 0.27549,0.15875 0.15557,0.35278 -0.11992,0.19403 -0.28803,0.35278 -0.3736,0.35278 -0.0856,0 -0.15557,-0.15875 -0.15557,-0.35278 z m -0.35277,-1.11713 c 0,-0.16169 0.14938,-0.29398 0.33195,-0.29398 0.18258,0 0.41372,0.13229 0.51365,0.29398 0.0999,0.16169 -0.0494,0.29398 -0.33196,0.29398 -0.2825,0 -0.51364,-0.13229 -0.51364,-0.29398 z m 6.90201,-8.72368 c -0.10735,-0.1737 0.0339,-0.40374 0.31399,-0.5112 0.33965,-0.13034 0.44386,-0.0252 0.31301,0.31581 -0.2274,0.5926 -0.35662,0.63287 -0.627,0.19539 z m 54.97236,-5.25563 c -0.56112,-0.29059 -1.09958,-0.62696 -1.1966,-0.74749 -0.097,-0.12054 -0.91925,-0.41136 -1.8272,-0.64627 -0.90795,-0.23492 -2.40747,-0.90697 -3.33226,-1.49346 -0.9248,-0.58648 -1.88849,-1.06634 -2.14155,-1.06634 -0.25305,0 -0.4601,-0.16812 -0.4601,-0.3736 0,-0.20548 -0.14519,-0.28386 -0.32265,-0.17419 -0.17745,0.10968 -0.37589,0.0794 -0.44097,-0.0674 -0.40226,-0.90697 -5.0045,-3.61817 -6.14179,-3.61817 -0.26311,0 -1.03952,-0.4927 -1.72537,-1.09488 -1.18522,-1.04064 -1.74415,-1.01486 -0.80602,0.0372 0.37514,0.4207 0.34881,0.42478 -0.17639,0.0274 -0.33955,-0.25693 -0.61736,-0.70305 -0.61736,-0.99137 0,-0.3763 -0.23747,-0.46461 -0.84158,-0.31299 -0.54081,0.13573 -1.00324,0.0164 -1.2939,-0.33379 -0.57275,-0.69012 -1.93905,-1.45853 -1.59044,-0.89447 0.53113,0.85938 -0.37128,0.28446 -2.57494,-1.6405 -4.35233,-3.80188 -5.75058,-5.60638 -6.758,-8.7215 -0.24926,-0.77075 -0.66736,-1.61553 -0.92911,-1.87729 -0.26176,-0.26176 -0.47592,-0.78209 -0.47592,-1.15629 0,-0.37419 -0.16812,-0.68035 -0.3736,-0.68035 -0.20548,0 -0.28181,-0.14851 -0.16963,-0.33002 0.11218,-0.18151 -0.13229,-0.92869 -0.54326,-1.66039 -0.41098,-0.73171 -0.80826,-1.81264 -0.88286,-2.40206 -0.0746,-0.58943 -0.29701,-1.12548 -0.49425,-1.19123 -0.19724,-0.0657 -0.35862,-0.325 -0.35862,-0.57612 0,-0.25111 -0.23638,-0.65274 -0.52529,-0.89251 -0.2889,-0.23978 -0.43828,-0.57671 -0.33195,-0.74876 0.10632,-0.17204 0.0724,-0.50845 -0.0754,-0.74757 -0.14779,-0.23912 -0.30001,-0.67569 -0.33828,-0.97014 -0.0383,-0.29445 -0.236,-1.40849 -0.43942,-2.47565 -1.07628,-5.64641 -1.18208,-11.75665 -0.21003,-12.12966 0.24348,-0.0934 0.54966,-0.65686 0.68039,-1.25206 0.29121,-1.32585 0.62307,-1.36141 1.41571,-0.15168 0.4232,0.64589 0.55378,1.34725 0.42692,2.29306 -0.10052,0.74941 -0.0648,1.36257 0.0793,1.36257 0.14413,0 0.28323,0.56343 0.30912,1.25208 0.0259,0.68864 0.14036,1.40302 0.25437,1.5875 0.11401,0.18448 0.007,0.33542 -0.23686,0.33542 -0.34545,0 -0.35007,0.0941 -0.0208,0.42333 0.51627,0.51627 0.55719,1.92175 0.0648,2.22605 -0.19719,0.12188 -0.2656,0.37196 -0.15201,0.55575 0.11358,0.18378 0.33137,0.25699 0.48396,0.16268 0.15259,-0.0943 0.19798,0.2442 0.10086,0.75224 -0.1156,0.60476 -0.0455,0.8427 0.20298,0.68912 0.20875,-0.12901 0.47926,-0.0732 0.60113,0.12396 0.12187,0.19719 0.0352,0.35853 -0.19258,0.35853 -0.27216,0 -0.21379,0.30583 0.17023,0.89191 0.32142,0.49055 0.4844,1.05371 0.36218,1.25147 -0.3504,0.56696 0.55656,3.8184 1.19956,4.30039 0.63053,0.47265 1.00525,1.51227 0.41319,1.14636 -0.19885,-0.12289 -0.36153,-0.0797 -0.36153,0.096 0,0.55077 1.09595,2.54447 1.39871,2.54447 0.28409,0 0.83575,1.5044 0.87861,2.39602 0.012,0.25066 0.25864,0.60542 0.54799,0.78835 0.28934,0.18293 0.38242,0.33503 0.20682,0.338 -0.17559,0.003 -0.0562,0.2961 0.26535,0.65139 0.32154,0.3553 0.48227,0.74834 0.35719,0.87343 -0.12509,0.12508 -0.0266,0.46938 0.21881,0.76511 0.24543,0.29574 0.30775,0.54138 0.13847,0.54588 -0.16928,0.005 0.24784,0.52044 0.92694,1.14653 0.6791,0.62609 1.27977,1.40919 1.33483,1.74022 0.14307,0.86022 2.94635,3.5122 3.49146,3.30302 0.2513,-0.0964 0.41913,0.0102 0.37295,0.2369 -0.0462,0.22674 0.0786,0.41946 0.27729,0.42828 0.19869,0.009 0.83207,0.4526 1.40751,0.98617 0.57544,0.53358 1.22687,0.97014 1.44763,0.97014 0.22076,0 0.60501,0.24535 0.85388,0.54522 0.24887,0.29988 0.64184,0.47257 0.87326,0.38376 0.23142,-0.0888 0.6992,0.16371 1.03949,0.56116 0.46862,0.5473 0.68598,0.61381 0.89591,0.27413 0.20567,-0.33279 0.37786,-0.26034 0.6675,0.28085 0.32169,0.60109 1.30449,1.19068 2.15496,1.29276 0.097,0.0116 1.14965,0.61476 2.3392,1.34026 1.18955,0.7255 2.26754,1.31909 2.39553,1.31909 0.128,0 0.67587,0.32763 1.21749,0.72806 0.54163,0.40044 1.20988,0.76384 1.48502,0.80756 0.49858,0.0792 1.01185,0.37743 4.40854,2.56149 1.31146,0.84326 2.18167,1.14661 3.24703,1.13191 2.35259,-0.0325 3.52037,1.82634 1.60491,2.5546 -1.55709,0.59201 -2.78286,0.60804 -3.85946,0.0505 z m -24.47993,-17.12805 c 0,-0.0669 -0.35719,-0.42413 -0.79375,-0.79375 l -0.79375,-0.67204 0.67204,0.79375 c 0.63155,0.74593 0.91546,0.95435 0.91546,0.67204 z"
       id="path1894"
       inkscape:label="garlic" /></g></svg>
