<?xml version="1.0" encoding="UTF-8" standalone="no"?>
<!DOCTYPE svg PUBLIC "-//W3C//DTD SVG 1.1//EN" "http://www.w3.org/Graphics/SVG/1.1/DTD/svg11.dtd">
<!-- Created with Vectornator (http://vectornator.io/) -->
<svg height="100%" stroke-miterlimit="10" style="fill-rule:nonzero;clip-rule:evenodd;stroke-linecap:round;stroke-linejoin:round;" version="1.1" viewBox="0 0 512 512" width="100%" xml:space="preserve" xmlns="http://www.w3.org/2000/svg" xmlns:vectornator="http://vectornator.io" xmlns:xlink="http://www.w3.org/1999/xlink">
<defs/>
<clipPath id="ArtboardFrame">
<rect height="512" width="512" x="0" y="0"/>
</clipPath>
<g clip-path="url(#ArtboardFrame)" id="Layer-1" vectornator:layerName="Layer 1">
<path d="M0.722279 10.4097C2.21008 54.4192 5.24431 98.4084 5.18569 142.438C5.1675 156.102 0.337128 169.549 0.492207 183.212C0.680212 199.775 5.58415 216.085 6.20951 232.64C8.04029 281.106 5.54007 329.665 7.85453 378.115C9.95623 422.111 15.585 465.913 19.4502 509.813C50.51 511.424 81.533 515.513 112.63 514.646C178.466 512.809 243.846 502.427 309.71 501.716C317.73 501.629 323.698 508.766 330.692 512.291C325.389 507.985 325.389 507.985 320.086 503.678C341.322 502.308 362.503 499.69 383.793 499.568C399.827 499.476 415.707 502.907 431.74 503.038C442.832 503.128 453.79 499.759 464.871 500.229C476.097 500.705 486.958 503.974 498.001 505.847C497.357 502.459 497.357 502.459 496.713 499.072C495.885 501.551 495.885 501.551 495.056 504.029C481.904 499.011 473.603 487.075 462.892 478.582C448.123 466.872 427.86 460.659 408.365 458.092C418.411 455.902 429.438 455.983 438.504 451.524C466.279 437.863 442.615 408.785 438.55 392.16C432.728 368.344 441.268 344.147 450.33 322.263C451.619 326.063 451.619 326.063 452.907 329.864C454.195 322.428 454.195 322.428 455.484 314.992C456.956 329.495 454.234 344.277 450.514 358.451C449.433 357.026 449.433 357.026 448.352 355.6C449.893 386.026 449.893 386.026 451.435 416.451C448.858 404.223 448.858 404.223 446.281 391.995C445.545 392.601 443.861 392.936 444.072 393.813C447.927 409.803 455.117 425.106 458.153 441.237C458.984 445.653 456.373 450.05 455.484 454.457C457.554 453.176 457.554 453.176 459.625 451.895C467.586 464.523 472.801 478.908 483.507 489.777C489.047 495.402 504.659 494.496 504.581 502.005C506.56 502.418 506.56 502.418 508.539 502.831C512.43 474.743 513.402 446.139 510.701 417.938C509.103 401.248 502.161 385.107 501.498 368.365C501.013 356.091 507.545 344.168 507.296 331.888C506.987 316.676 500.793 301.927 499.842 286.736C496.493 233.23 497.317 179.565 494.412 126.038C493.648 111.965 489.389 98.1473 488.844 84.0664C488.388 72.261 492.169 60.4979 491.421 48.7046C490.487 33.9698 486.36 19.5393 483.829 4.95671C442.17 3.31806 400.541-0.824497 358.853 0.0407533C280.315 1.67087 202.099 10.1606 123.581 12.4339C82.6425 13.6192 41.6752 11.0844 0.722279 10.4097ZM65.0966 16.3791C72.6147 19.5762 72.7703 29.7457 77.9807 35.5678C87.842 46.5871 106.259 59.6037 123.029 59.5692C175.811 59.4606 228.71 56.2088 280.997 49.727C288.486 48.7986 295.164 43.3911 299.31 37.716C306.409 28.0013 302.746 11.7529 313.483 5.26654C325.863-2.21255 343.196 2.07256 358.117 2.1889C398.901 2.5069 439.624 5.10818 480.378 6.56782C483.445 21.6462 488.332 36.5161 489.581 51.8028C490.466 62.6444 486.446 73.4465 486.728 84.3142C487.476 113.168 497 142.138 492.664 170.736C491.47 178.609 475.16 177.857 471.451 185.071C468.294 191.21 474.732 198.348 474.994 205.106C476.056 232.488 467.285 254.827 453.643 278.639C484.773 278.984 474.751 264.764 497.817 253.192C497.817 266.246 497.817 266.246 497.817 279.3C491.559 280.291 484.434 279.253 479.043 282.274C472.145 286.141 468.368 293.29 463.03 298.799C461.834 295.824 461.834 295.824 460.637 292.85C461.296 302.726 455.116 312.196 449.962 320.941C448.253 314.662 448.776 302.148 435.836 303.921C406.526 307.936 378.011 315.708 349.098 321.602C349.65 317.801 349.65 317.801 350.203 314.001C342.84 320.528 342.84 320.528 335.478 327.055C329.387 303.132 290.254 324.935 275.751 327.757C264.882 329.873 253.569 331.732 242.529 330.525C223.813 328.48 206.26 320.998 187.679 318.132C176.068 316.341 153.318 317.441 141.987 323.006C127.313 330.214 136.95 335.068 121.28 336.598C112.345 337.47 103.044 334.875 94.3158 336.804C90.9119 337.556 78.0589 345.762 79.6372 352.172C83.3948 367.432 94.3801 381.374 94.96 396.994C95.2045 403.578 85.1193 406.982 81.8919 412.898C74.025 427.32 63.3356 451.117 92.8894 447.847C114.828 445.419 136.001 438.236 158.046 436.776C199.412 434.035 241.099 437.972 282.469 435.289C285.628 435.084 286.15 430.662 287.991 428.348C295.316 437.639 304.967 445.823 315.968 451.482C309.305 458.212 312.881 458.27 306.765 456.439C321.516 470.045 337.744 483.125 347.994 499.733C333.821 499.568 333.821 499.568 319.649 499.402C319.71 493.674 321.866 487.647 319.833 482.217C310.232 456.578 264.552 447.761 240.458 445.864C239.074 445.755 239.315 448.77 237.927 448.838C216.44 449.897 194.821 447.64 173.369 449.169C145.636 451.145 118.361 456.834 90.6807 459.331C84.0792 459.927 77.366 457.553 70.8024 458.422C44.553 461.901 33.5107 480.277 20.7386 498.411C20.0637 493.013 16.5155 487.278 18.714 482.217C25.0111 467.723 36.3835 455.448 45.2183 442.063C46.6908 445.368 46.6908 445.368 48.1632 448.673C48.2553 443.991 46.4099 438.941 48.4393 434.628C53.7882 423.259 64.7082 414.401 69.698 402.901C76.567 387.07 63.1644 378.549 58.8616 364.586C56.5562 357.104 57.0057 349.149 56.0777 341.431C49.375 340.371 42.6188 336.947 35.9694 338.25C27.2089 339.967 20.2938 346.072 12.456 349.982C19.5729 347.077 26.1131 342.514 33.8067 341.266C40.1346 340.239 46.5681 342.698 52.9488 343.414C53.4703 350.12 52.4188 357.078 54.5133 363.532C58.8435 376.876 71.1423 391.671 64.5444 404.244C51.3148 429.454 33.8681 452.701 18.5299 476.93C14.3886 404.636 14.3886 404.636 10.2473 332.343C16.0451 331.131 22.1787 330.832 27.6408 328.707C38.4167 324.515 51.8345 322.188 58.5625 313.546C69.1354 299.966 70.2809 282.123 76.1401 266.411C75.1278 268.063 75.1278 268.063 74.1154 269.716C71.9374 264.662 71.9089 258.332 67.5814 254.555C56.4432 244.833 40.2329 240.583 29.3433 230.636C20.3796 222.449 31.1784 207.589 34.543 196.514C19.9103 200.149 19.9103 200.149 5.27772 203.784C0.777945 171.466 6.7962 138.655 6.7962 106.085C6.7962 74.8894 3.57518 43.7611 1.96467 12.5992C12.6434 14.2967 7.52265 11.9483 15.2169 22.5137C13.1922 17.7217 13.1922 17.7217 11.1676 12.9296C16.2177 13.9142 22.2006 13.0794 26.3179 15.8833C32.6729 20.2113 34.377 28.6927 40.7089 33.0479C59.4179 45.9162 81.8064 54.4517 99.1473 68.7815C83.1882 89.7219 56.4986 94.9703 41.9053 117.693C31.4648 133.95 68.8115 170.004 37.948 175.569C27.2237 177.503 16.1678 177.414 5.27772 178.337C8.65211 178.998 11.9486 180.41 15.4009 180.32C24.7877 180.076 34.2588 179.359 43.3777 177.346C66.602 172.217 36.7509 134.197 44.4821 117.858C54.8301 95.9899 85.1555 89.5476 101.172 67.9553C96.1257 63.0255 92.184 56.9521 86.0332 53.1661C73.0716 45.1879 57.0968 41.5589 44.5281 33.0892C37.6904 28.4814 34.1902 20.8613 29.0212 14.7473C41.0463 15.2912 54.2152 11.7517 65.0966 16.3791ZM309.71 4.66753C301.265 33.369 294.72 48.0582 260.014 50.2744C239.082 51.611 218.083 52.0225 197.158 53.4553C146.292 56.9383 92.5918 65.9099 68.0415 15.904C148.916 13.3858 228.733 4.66753 309.71 4.66753ZM469.288 158.838C480.921 163.867 475.568 163.458 484.841 162.639C484.657 160.326 484.657 160.326 484.473 158.012C483.046 159.499 483.046 159.499 481.62 160.987C478.45 159.424 476.592 156.746 473.521 156.36C473.92 149.998 475.955 143.549 474.718 137.274C472.726 127.171 466.325 118.082 463.996 108.037C460.319 92.1724 460.311 75.7482 456.772 59.8584C453.773 46.391 433.088 39.6532 422.123 35.196C402.113 27.0618 366.25 34.1494 347.35 37.7573C340.684 39.0296 314.661 51.005 309.112 49.4068C305.14 48.263 308.579 41.3738 310.952 38.2943C318.128 28.9838 335.86 18.8803 329.404 5.16326C326.554 10.7929 328.684 16.6783 324.158 21.9353C319.768 27.036 303.182 38.0457 304.51 47.6305C306.014 58.477 339.863 41.8419 348.178 40.1946C387.202 32.4631 411.806 32.3573 445.361 49.2416C462.121 57.6754 458.223 95.6999 461.696 109.555C466.88 130.24 475.121 138.415 469.288 158.838ZM138.72 17.5564C134.326 21.5819 116.334 36.2375 131.726 41.0208C128.843 36.42 126.173 25.3308 133.98 22.6376C140.828 20.2756 147.926 29.2478 155.653 29.6191C167.423 30.1846 178.291 22.6737 190.072 22.3484C207.865 21.8572 194.384 32.1134 219.889 23.0507C230.676 19.218 239.64 12.867 251.777 11.9382C261.245 11.2137 268.833 17.0531 277.546 15.5322C248.89 4.54575 240.22 13.6597 210.595 23.8356C200.66 27.2479 196.652 19.4809 188.093 20.5721C179.331 21.6892 170.638 23.2484 162.003 24.9923C149.585 27.5004 147.402 24.0516 138.72 17.5564ZM461.742 28.1319C462.293 29.6159 464.17 30.4591 464.871 31.8912C467.117 36.4795 469.521 41.1694 470.208 46.1433C471.68 56.7898 467.254 60.5335 472.233 72.0863C473.337 71.8178 473.337 71.8178 474.442 71.5493C474.655 66.5658 470.336 64.1613 470.07 57.5863C469.544 44.5587 472.306 38.0206 464.917 24.4553C463.191 21.2861 459.107 25.699 456.22 25.4054C448.631 24.6337 441.065 23.6592 433.535 22.5137C422.161 20.7834 412.712 14.7224 401.003 14.9125C372.539 15.3749 371.034 24.4747 348.73 11.2772C344.869 21.6753 367.574 21.0837 372.197 20.4895C382.62 19.1498 392.571 16.5798 403.303 17.102C422.828 18.052 441.381 28.1319 461.742 28.1319ZM400.266 41.0208C370.516 41.1513 343.155 57.0965 315.001 65.8071C307.921 67.9978 298.989 67.3499 293.639 72.0553C286.703 78.1568 303.544 103.137 304.924 113.066C307.522 131.762 287.793 143.425 297.792 163.383C302.865 173.508 321.938 167.143 329.174 167.679C366.724 170.46 413.217 178.596 449.594 167.101C468.236 161.21 450.184 126.634 449.594 116.867C447.487 81.9773 445.055 40.8243 400.266 41.0208ZM449.306 130.51C450.492 138.106 459.801 152.843 452.125 161.4C438.352 176.752 383.064 168.24 361.614 167.927C354.338 167.82 347.137 166.589 339.895 165.944C328.195 164.901 316.382 165.414 304.648 164.746C303.53 164.682 302.122 164.574 301.473 163.754C287.119 145.613 309.684 131.837 307.363 114.595C305.38 99.8666 295.813 88.0544 294.801 73.243C310.232 71.4094 322.632 63.9992 337.318 59.6932C357.652 53.7313 378.53 49.3188 398.794 43.1689C451.017 58.9889 443.646 94.2576 449.306 130.51ZM20.3705 116.702C19.7228 110.96 18.7816 103.385 21.4748 97.8641C24.8061 91.0359 35.9569 85.3416 35.0491 76.9197C33.6951 64.3588 8.14307 73.0712 14.1585 55.3969C-2.26993 67.0026 31.7853 71.0877 32.7024 74.8954C35.8494 87.9625 5.97436 102.7 20.3705 116.702ZM113.32 63.8242C116.541 65.1461 116.541 65.1461 119.762 66.4681C98.1255 78.4437 69.8712 95.9363 56.3998 115.669C51.2685 123.185 59.915 135.694 60.4951 140.992C61.3914 149.178 58.7446 157.463 59.5748 165.655C60.1365 171.196 63.1556 185.76 70.2502 190.895C74.4521 193.937 83.6477 192.605 87.4596 191.267C99.4623 187.054 110.382 180.525 122.523 176.643C133.576 173.109 145.11 170.7 156.712 169.125C174.087 166.766 193.03 177.251 210.318 177.924C222.042 178.38 252.162 177.455 267.653 174.454C280.893 171.889 273.599 148.983 274.44 145.134C275.727 139.238 280.798 134.486 282.837 128.764C287.202 116.521 284.147 72.8728 266.732 66.3442C247.471 59.1232 221.451 65.8426 201.668 65.3114C172.226 64.5208 142.705 62.0118 113.32 63.8242ZM280.87 127.866C279.17 133.518 273.493 137.933 272.427 143.708C270.853 152.231 273.824 161.398 270.735 169.579C269.629 172.511 264.662 172.813 261.256 173.297C222.315 178.838 200.82 172.31 162.049 166.77C138.526 163.409 114.711 177.341 94.7299 185.938C88.5461 188.599 71.5524 194.932 67.5354 184.658C62.3193 171.316 63.8817 156.566 62.5198 142.479C61.7404 134.419 56.0326 126.709 57.1821 118.685C58.867 106.922 110.726 72.4173 123.857 66.7986C127.39 65.2869 131.309 64.1445 135.223 64.1547C171.821 64.2498 208.2 65.5105 244.921 64.9809C257.029 64.8063 280.482 70.3659 275.475 84.9752C276.487 83.5706 276.487 83.5706 277.5 82.1661C278.501 97.3149 285.329 113.042 280.87 127.866ZM126.94 69.6077C126.756 69.8831 126.572 70.1585 126.388 70.4339C126.879 70.3237 127.37 70.2136 127.86 70.1034C128.842 69.8831 129.333 69.6628 129.333 69.4424C129.333 69.2221 129.026 69.0569 128.413 68.9467C127.799 68.8366 127.308 69.0569 126.94 69.6077ZM336.582 91.9154C337.767 92.0445 337.767 92.0445 338.952 92.1736C341.413 87.3483 330.72 70.9445 346.521 73.7387C346.245 72.7473 346.245 72.7473 345.969 71.7558C327.688 72.9076 339.473 84.1285 336.582 91.9154ZM357.381 134.548C355.421 120.474 356.368 106.995 375.557 102.615C382.762 100.97 389.886 109.127 395.849 103.152C405.309 93.6724 401.674 99.7103 414.255 91.4196C422.949 85.6904 420.612 76.1609 435.237 80.6789C435.421 79.1917 435.421 79.1917 435.606 77.7046C419.083 76.6599 423.368 84.7098 411.494 90.8826C404.718 94.4053 398.349 98.5458 392.099 102.78C389.105 104.808 380.734 100.258 377.616 100.312C356.74 100.673 351.545 121.205 357.381 134.548ZM225.779 83.488C236.761 85.4222 232.695 83.5326 238.847 87.2886C234.163 95.2317 223.9 103.435 220.212 112.364C217.997 117.723 226.746 117.98 224.675 122.609C223.159 125.998 216.204 134.546 223.387 136.696C223.387 129.621 227.302 127.509 227.712 121.659C228.049 116.851 221.857 116.756 223.525 111.455C225.701 104.535 262.243 78.6739 225.779 83.488ZM97.3068 121.659C98.227 122.816 98.227 122.816 99.1473 123.972C109.878 112.474 137.264 141.486 155.285 127.442C172.158 114.294 144.716 91.854 169.458 86.6276C168.905 85.7601 168.905 85.7601 168.353 84.8926C140.965 89.7224 171.335 115.23 153.548 125.924C140.024 134.055 116.046 119.64 97.3068 121.659ZM276.211 99.5165C276.319 95.0009 276.835 90.4484 276.211 85.9667C274.67 90.81 276.211 94.8114 276.211 99.5165ZM276.211 102.987C276.119 104.556 276.119 104.556 276.027 106.126C277.283 103.625 277.605 104.633 276.211 102.987ZM285.414 119.676C285.291 120.227 285.169 120.778 285.046 121.328C285.107 121.163 285.353 120.502 285.414 120.337C285.537 120.392 286.028 120.612 286.15 120.668C286.089 120.392 286.028 120.117 285.966 119.841C285.844 119.29 285.905 118.85 286.15 118.519C286.273 118.354 286.396 118.189 286.518 118.024C286.396 118.024 286.273 118.024 286.15 118.024C285.905 118.024 285.66 118.574 285.414 119.676ZM231.117 144.297C252.497 126.757 243.701 155.738 256.333 148.759C248.807 147.07 252.682 139.405 245.934 136.407C240.109 133.819 231.288 139.145 231.117 144.297ZM349.834 166.935C350.141 166.99 350.448 167.045 350.755 167.101C351.368 167.211 351.736 167.156 351.859 166.935C351.92 166.825 351.982 166.715 352.043 166.605C352.104 166.715 352.35 167.156 352.411 167.266C352.35 167.101 352.104 166.44 352.043 166.274C351.859 166.329 351.675 166.384 351.491 166.44C351.123 166.55 350.816 166.495 350.571 166.274C350.448 166.164 350.325 166.054 350.203 165.944C350.141 166.109 349.896 166.77 349.834 166.935ZM459.717 277.813C454.294 275.665 463.581 267.712 466.297 262.982C471.541 253.852 474.778 241.18 475.914 231.38C477.121 220.976 477.757 210.477 477.295 200.025C476.715 186.917 472.309 178.105 492.664 175.528C492.129 200.861 493.676 225.86 497.817 250.878C480.088 252.444 474.139 283.525 459.717 277.813ZM181.973 181.477C181.973 181.697 182.832 181.972 184.55 182.303C185.409 182.468 186.268 182.633 187.127 182.799C186.268 182.523 182.832 181.422 181.973 181.146C181.973 181.256 181.973 181.366 181.973 181.477ZM225.135 188.747C220.601 194.494 222.06 186.568 217.681 196.679C219.337 195.026 219.337 195.026 220.994 193.374C216.165 206.22 216.973 199.811 218.049 212.542C216.392 210.89 216.392 210.89 214.736 209.237C220.003 219.502 230.649 230.502 231.301 242.12C231.877 252.371 210.001 293.252 218.785 301.029C227.777 308.99 247.991 316.378 259.646 319.289C266.165 320.917 256.428 304.976 268.665 304.582C306.877 303.352 347.267 305.604 385.542 306.4C382.413 307.061 382.413 307.061 379.284 307.722C385.074 308.751 382.372 308.772 387.382 308.052C387.566 306.978 387.566 306.978 387.75 305.904C393.19 307.939 386.444 306.001 396.815 303.673C402.765 302.338 409.287 303.135 414.991 301.112C451.557 288.145 452.933 255.337 457.094 226.381C458.458 216.891 467.379 190.479 451.803 184.12C440.282 179.417 412.782 185.493 402.694 185.959C367.666 187.577 331.78 183.799 296.872 185.36C277.844 186.211 244.755 196.576 225.135 188.747ZM188.968 183.294C189.459 183.625 190.011 183.79 190.624 183.79C190.931 183.79 191.238 183.79 191.544 183.79C191.544 183.68 191.544 183.57 191.544 183.46C191.544 183.239 190.992 183.074 189.888 182.964C189.336 182.909 188.784 182.854 188.231 182.799C188.477 182.964 188.722 183.129 188.968 183.294ZM219.337 183.129C219.276 183.239 219.215 183.349 219.153 183.46C219.399 183.57 219.644 183.68 219.889 183.79C220.38 184.01 220.932 184.065 221.546 183.955C222.159 183.845 222.466 183.68 222.466 183.46C222.466 183.239 221.975 183.074 220.994 182.964C220.012 182.854 219.46 182.909 219.337 183.129ZM42.5495 205.809C44.6021 210.934 45.9237 217.105 52.2125 219.937C65.7218 226.019 103.207 228.952 88.8401 251.209C90.0825 251.188 90.0825 251.188 91.3249 251.167C93.3733 264.593 67.726 294.39 81.8459 307.391C84.7185 310.036 123.699 291.7 137.477 290.743C150.816 289.816 164.289 292.5 177.28 295.37C185.8 297.252 193.662 301.192 202.22 302.93C208.078 304.119 208.687 298.037 209.95 295.163C210.871 297.477 210.871 297.477 211.791 299.79C213.723 298.881 213.723 298.881 215.656 297.972C204.252 295.535 206.693 278.346 204.659 267.981C202.23 255.609 210.798 249.697 212.389 237.742C214.526 221.685 199.781 203.043 192.281 191.391C185.377 180.666 170.112 182.616 158.046 184.12C131.351 187.449 108.078 200.931 81.4317 204.776C65.9897 207.004 56.3318 195.719 42.5495 205.809ZM233.832 242.368C234.054 228.699 229.333 232.176 223.064 219.689C219.069 211.73 217.554 198.852 226.47 192.424C236.711 185.04 252.745 194.19 265.858 193.498C276.656 192.928 286.936 188.985 297.654 187.673C310.462 186.106 323.472 189.127 336.398 189.16C359.162 189.22 381.949 189.448 404.684 188.417C419.553 187.742 436.412 178.637 449.226 185.442C464.611 193.613 455.71 215.084 454.702 226.051C452.119 254.136 450.92 279.875 419.408 295.535C393.565 308.378 356.226 304.668 329.174 303.549C316.683 303.033 301.755 296.126 291.672 302.764C297.01 302.599 297.01 302.599 302.347 302.434C283.45 303.922 260.99 293.405 259.646 314.992C255.113 312.299 236.465 306.226 233.326 303.095C231.761 303.921 231.761 303.921 230.197 304.747C237.188 303.686 251.544 312.281 258.174 314.662C247.529 312.64 237.307 308.677 227.804 303.921C229.552 303.177 229.552 303.177 231.301 302.434C207.753 295.929 233.574 258.238 233.832 242.368ZM67.6734 206.469C82.5256 208.299 94.6242 205.586 109.639 201.554C124.503 197.561 138.642 191.6 153.444 187.425C157.146 186.381 168.312 183.185 170.562 188.417C170.562 187.095 170.562 187.095 170.562 185.773C171.749 185.833 183.954 185.873 185.839 187.838C191.254 193.485 212.578 227.942 209.996 235.273C208.304 240.079 200.822 251.264 200.563 258.645C200.049 273.299 209.623 285.055 204.797 299.459C176.1 296.574 148.634 281.586 119.026 291.156C106.901 295.075 95.9642 301.706 83.698 305.253C70.1694 283.801 105.644 259.549 93.6716 236.75C83.3529 217.099 50.1483 228.137 45.4369 205.943C52.4226 203.711 60.3274 205.565 67.6734 206.469ZM59.0227 191.556C59.2681 191.887 59.6976 192.052 60.3111 192.052C60.6178 192.052 60.9246 192.052 61.2314 192.052C60.8019 191.887 59.084 191.226 58.6546 191.061C58.7773 191.226 58.9 191.391 59.0227 191.556ZM188.231 191.722C191.443 193.727 190.012 192.333 191.913 196.348C188.661 193.04 189.727 194.676 188.231 191.722ZM65.2807 194.035C63.426 192.31 64.5972 192.952 61.5995 192.383C63.4401 193.209 63.4401 193.209 65.2807 194.035ZM356.829 195.522C352.939 204.004 364.688 210.161 373.026 209.733C383.282 209.207 392.354 203.724 402.567 202.504C420.363 200.378 413.181 212.944 429.071 200.81C433.47 197.451 438.314 196.656 441.127 192.383C431.962 193.297 427.567 201.687 420.145 205.437C418.186 206.426 404.107 200.361 399.53 200.645C383.252 201.655 363.732 217.212 356.829 195.522ZM80.3734 197.505C80.6188 197.836 81.4164 198.001 82.7662 198.001C83.441 198.001 84.1159 198.001 84.7908 198.001C83.9932 197.836 80.8029 197.175 80.0053 197.009C80.128 197.175 80.2507 197.34 80.3734 197.505ZM8.45272 236.874C8.262 227.377 6.7703 217.92 6.72717 208.421C6.71156 204.983 13.7076 205.581 17.1034 203.991C22.3651 201.527 25.961 196.983 32.7024 198.497C29.0353 209.836 18.8183 223.671 28.9752 234.767C44.4015 251.621 82.0797 252.342 68.0415 280.622C69.7901 278.804 69.7901 278.804 71.5386 276.987C69.5485 284.758 63.1098 291.28 59.3908 298.633C58.4705 298.055 58.4705 298.055 57.5502 297.477C55.9426 320.34 34.4639 325.75 10.4313 328.873C10.1136 298.207 9.06916 267.57 8.45272 236.874ZM296.274 208.411C295.241 227.533 265.26 232.049 265.26 245.054C275.07 235.622 285.968 226.636 296.826 218.16C296.672 225.004 295.616 231.88 296.366 238.692C299.212 264.569 362.029 245.661 370.898 246.84C390.62 249.463 403.866 268.393 422.905 267.403C404.875 262.216 392.903 249.953 373.762 245.26C357.017 241.155 343.076 252.471 326.919 251.911C321.885 251.737 308.129 246.296 303.498 244.393C288.605 238.273 309.476 215.184 296.274 208.411ZM130.023 260.38C124.259 247.659 132.11 247.151 132.278 240.138C132.4 235.061 128.214 230.032 129.563 225.101C132.126 215.729 148.821 211.984 156.435 217.045C160.13 207.094 136.946 215.611 134.671 216.714C118.115 224.741 134.036 231.056 128.965 239.27C127.052 242.368 119.503 262.171 130.023 260.38ZM12.8241 250.383C13.2842 251.374 13.2842 251.374 13.7444 252.365C14.5266 251.395 14.5266 251.395 15.3089 250.424C14.0665 250.403 14.0665 250.403 12.8241 250.383ZM11.7197 255.505C15.5904 263.613 25.5202 269.247 27.5487 277.648C29.111 284.117 19.1964 294.253 29.2053 297.477C25.2217 290.528 30.2094 288.016 30.0795 281.489C29.9081 272.871 25.2985 270.058 19.8183 263.726C12.3933 255.147 18.6394 258.611 11.7197 255.505ZM74.6676 262.776C75.0357 263.657 75.3425 264.098 75.5879 264.098C75.7106 264.098 75.8333 264.098 75.956 264.098C75.956 263.767 75.956 263.437 75.956 263.106C75.956 262.445 75.6493 262.005 75.0357 261.784C74.729 261.674 74.4222 261.564 74.1154 261.454C74.2995 261.894 74.4836 262.335 74.6676 262.776ZM93.4415 292.85C100.646 280.309 116.126 287.811 128.781 287.562C148.829 287.168 166.442 280.942 186.391 283.927C186.368 285.125 186.368 285.125 186.345 286.323C189.972 286.016 188.406 286.766 190.44 283.266C174.901 272.21 146.715 284.884 129.149 285.249C122.32 285.39 114.016 283.537 107.062 283.266C99.4695 282.969 91.8035 285.129 93.4415 292.85ZM252.284 292.85C252.1 291.693 252.1 291.693 251.916 290.536C250.811 293.015 250.811 293.015 249.707 295.494C253.127 295.444 255.129 291.551 258.358 290.536C270.337 286.774 283.617 285.886 294.801 291.363C292.868 291.776 292.868 291.776 290.936 292.189C320.452 292.189 343.042 291.877 372.612 286.488C379.935 285.153 385.1 287.538 392.26 288.264C403.655 289.421 413.56 285.684 424.194 282.605C424.056 281.386 424.056 281.386 423.918 280.167C415.979 280.071 410.518 285.047 403.165 285.786C391.892 286.918 381.148 281.959 369.897 284.092C349.614 287.937 331.594 292.727 310.216 291.528C290.966 290.448 269.19 278.279 252.284 292.85ZM503.661 349.9C502.611 356.471 498.793 362.719 498.921 369.357C499.215 384.556 506.879 399.112 507.526 414.303C508.664 441.004 509.965 468.333 506.284 494.776C501.19 493.511 490.078 491.613 485.301 487.835C481.858 485.113 480.616 480.746 478.491 477.095C456.241 438.854 445.915 394.935 454.195 351.346C455.304 345.508 459.707 340.375 460.453 334.491C461.152 328.985 458.751 323.5 458.429 317.967C457.548 302.83 475.646 282.605 492.664 282.605C503.919 302.421 506.976 329.161 503.661 349.9ZM64.1763 284.918C64.4831 284.588 65.7101 283.266 66.0169 282.935C65.8942 282.88 65.4034 282.66 65.2807 282.605C65.0966 282.99 64.3604 284.533 64.1763 284.918ZM274.739 289.545C272.162 289.214 272.162 289.214 269.585 288.884C272.77 289.361 271.053 289.131 274.739 289.545ZM373.578 289.214C373.026 289.325 372.474 289.435 371.921 289.545C372.044 289.655 372.167 289.765 372.29 289.875C372.535 290.096 372.842 290.096 373.21 289.875C373.578 289.655 374.069 289.6 374.682 289.71C375.296 289.82 375.848 289.71 376.339 289.38C376.584 289.214 376.83 289.049 377.075 288.884C376.768 288.884 376.462 288.884 376.155 288.884C375.541 288.884 374.682 288.994 373.578 289.214ZM275.843 290.536C276.334 290.481 278.297 290.261 278.788 290.206C278.297 290.096 276.334 289.655 275.843 289.545C275.843 289.71 275.843 290.371 275.843 290.536ZM282.331 290.991C286.265 291.259 286.265 291.259 290.2 291.528C284.911 290.233 287.537 290.371 282.331 290.991ZM366.584 290.536C366.522 290.647 366.461 290.757 366.4 290.867C366.522 290.922 366.645 290.977 366.768 291.032C367.013 291.142 367.32 291.087 367.688 290.867C368.056 290.647 368.486 290.591 368.976 290.702C369.222 290.757 369.467 290.812 369.713 290.867C369.651 290.757 369.59 290.647 369.529 290.536C369.406 290.316 368.915 290.206 368.056 290.206C367.197 290.206 366.706 290.316 366.584 290.536ZM434.501 292.685C434.01 293.235 433.335 293.676 432.477 294.006C432.047 294.172 431.618 294.337 431.188 294.502C431.924 294.337 432.661 294.172 433.397 294.006C434.869 293.676 435.544 293.235 435.421 292.685C435.36 292.409 435.299 292.134 435.237 291.858C434.992 292.134 434.747 292.409 434.501 292.685ZM426.034 297.146C428.427 296.65 428.427 296.65 430.82 296.155C427.127 295.459 428.696 295.041 426.034 297.146ZM418.672 299.79C422.958 299.79 420.447 300.067 426.034 298.138C421.473 297.882 423.984 297.604 418.672 299.79ZM159.15 299.129C166.212 300.51 162.233 299.808 171.114 301.112C166.5 300.752 163.753 298.927 159.15 299.129ZM277.316 300.12C276.825 300.231 276.334 300.341 275.843 300.451C276.395 300.561 278.604 301.002 279.156 301.112C279.095 301.002 278.849 300.561 278.788 300.451C278.911 300.396 279.402 300.176 279.524 300.12C279.402 300.065 279.279 300.01 279.156 299.955C278.911 299.845 278.297 299.9 277.316 300.12ZM269.033 300.947C271.794 300.699 271.794 300.699 274.555 300.451C270.731 300.451 272.57 300.266 269.033 300.947ZM279.524 301.442C283.304 302.196 286.157 301.898 290.016 302.764C283.089 302.11 288.245 300.116 279.524 301.442ZM176.268 302.599C176.39 302.93 177.004 303.095 178.108 303.095C179.213 303.095 179.887 302.985 180.133 302.764C180.256 302.654 180.378 302.544 180.501 302.434C179.887 302.489 179.274 302.544 178.66 302.599C177.433 302.709 176.697 302.654 176.452 302.434C176.329 302.324 176.206 302.214 176.084 302.103C176.145 302.269 176.206 302.434 176.268 302.599ZM401.371 304.417C406.547 303.994 404.097 304.35 408.733 303.425C405.685 302.985 404.261 303.49 401.371 304.417ZM181.237 304.086C183.216 304.644 183.216 304.644 185.194 305.202C185.425 304.644 185.425 304.644 185.655 304.086C183.446 304.086 183.446 304.086 181.237 304.086ZM392.904 306.069C396.688 306.611 398.438 306.118 402.107 305.078C395.729 305.345 398.793 304.989 392.904 306.069ZM234.614 306.234C235.105 306.565 235.596 306.675 236.087 306.565C236.577 306.455 236.823 306.289 236.823 306.069C236.823 305.959 236.823 305.849 236.823 305.739C236.639 305.849 236.455 305.959 236.271 306.069C235.902 306.289 235.412 306.289 234.798 306.069C234.491 305.959 234.185 305.849 233.878 305.739C234.123 305.904 234.369 306.069 234.614 306.234ZM446.741 314.62C449.806 330.899 436.825 350.189 435.283 367.333C434.492 376.136 435.422 389.294 436.802 397.242C438.495 406.993 443.347 410.268 447.569 420.086C457.037 442.102 434.704 452.256 414.807 454.787C407.217 455.753 384.043 452.587 381.262 452.061C374.297 450.741 367.355 449.026 360.843 446.442C346.811 440.875 332.946 434.837 319.833 427.687C296.981 415.228 336.814 388.542 339.251 372.91C341.194 360.448 339.374 333.959 350.341 323.254C351.334 322.285 352.998 322.069 354.436 321.808C379.84 317.202 403.084 311.378 428.059 307.226C435.936 305.916 445.024 305.498 446.741 314.62ZM263.879 307.226C263.971 308.713 263.971 308.713 264.063 310.2C264.8 308.796 264.8 308.796 265.536 307.391C264.708 307.308 264.708 307.308 263.879 307.226ZM336.214 307.722C347.231 307.722 359.887 307.696 370.081 308.713C358.895 307.387 347.437 306.679 336.214 307.722ZM189.336 307.556C189.09 307.611 188.845 307.667 188.6 307.722C188.784 307.832 188.968 307.942 189.152 308.052C189.52 308.272 190.072 308.272 190.808 308.052C191.176 307.942 191.544 307.832 191.913 307.722C191.606 307.667 191.299 307.611 190.992 307.556C190.379 307.446 189.827 307.446 189.336 307.556ZM375.787 308.878C375.234 309.044 374.682 309.209 374.13 309.374C375.234 309.374 379.652 309.374 380.756 309.374C380.756 309.264 380.756 309.154 380.756 309.044C380.756 308.823 380.204 308.658 379.1 308.548C377.995 308.438 376.891 308.548 375.787 308.878ZM195.226 310.696C197.576 312.572 196.15 311.93 199.643 312.348C196.813 310.655 198.307 311.157 195.226 310.696ZM127.492 313.836C126.756 313.946 126.388 314.221 126.388 314.662C126.388 315.102 126.143 315.488 125.652 315.818C125.406 315.984 125.161 316.149 124.915 316.314C125.59 315.984 126.265 315.653 126.94 315.323C128.29 314.662 128.903 314.221 128.781 314.001C128.658 313.78 128.229 313.725 127.492 313.836ZM261.487 320.61C261.732 320.666 261.977 320.721 262.223 320.776C262.714 320.886 263.082 320.831 263.327 320.61C263.573 320.39 263.45 319.95 262.959 319.289C262.714 318.958 262.468 318.628 262.223 318.297C262.1 318.683 261.609 320.225 261.487 320.61ZM322.594 340.109C318.06 346.787 313.936 353.785 311.09 361.177C307.147 371.422 314.547 383.948 309.158 393.647C304.8 401.49 293.87 405.036 288.727 412.485C284.826 418.136 286.205 425.789 282.872 431.725C282.019 433.245 279.211 432.807 277.316 432.81C255.548 432.838 233.786 431.489 212.021 431.818C185.941 432.214 159.58 432.489 133.98 436.982C121.863 439.109 110.124 442.749 98.043 445.038C92.835 446.024 87.0849 446.11 82.306 443.633C61.5938 432.9 94.0979 408.053 97.4908 397.531C103.777 378.036 60.0458 349.277 97.3068 338.126C97.8589 338.883 97.9626 340.287 98.9633 340.398C106.386 341.22 125.108 340.942 131.726 335.854C143.353 326.916 138.554 323.133 155.837 321.106C184.484 317.747 211.527 326.813 238.893 332.425C263.923 337.559 286.051 324.739 309.342 320.61C339.523 323.741 330.013 329.181 322.594 340.109ZM289.647 321.602C289.525 321.822 289.279 321.877 288.911 321.767C288.727 321.712 288.543 321.657 288.359 321.602C288.482 321.767 288.604 321.932 288.727 322.098C288.973 322.428 289.525 322.483 290.384 322.263C290.813 322.153 291.243 322.043 291.672 321.932C291.365 321.822 291.059 321.712 290.752 321.602C290.138 321.382 289.77 321.382 289.647 321.602ZM293.743 411.783C297.15 405.628 303.954 403.623 309.342 398.729C316.408 392.309 310.752 387.2 311.09 379.85C311.886 362.574 321.459 348.745 332.901 336.639C338.111 331.126 337.773 321.217 347.994 322.593C337.796 339.479 338.844 360.459 333.775 378.858C328.44 398.224 296.663 404.168 312.287 427.026C309.679 420.716 310.214 423.725 310.078 418.103C322.723 446.784 376.739 453.751 406.156 458.546C379.302 459.609 268.363 457.621 293.743 411.783ZM65.2807 330.195C67.4339 331.944 68.7009 332.414 71.5386 332.838C67.0981 330.923 69.1873 331.8 65.2807 330.195ZM102.46 329.203C102.154 329.148 101.847 329.093 101.54 329.038C100.927 328.928 100.497 328.983 100.252 329.203C100.129 329.313 100.006 329.423 99.8836 329.534C100.374 329.534 100.865 329.534 101.356 329.534C102.338 329.534 102.89 329.423 103.013 329.203C103.074 329.093 103.135 328.983 103.197 328.873C103.074 328.817 102.583 328.597 102.46 328.542C102.46 328.652 102.46 329.093 102.46 329.203ZM419.777 330.69C430.643 354.705 408.575 347.305 403.211 360.93C397.058 376.559 414.973 382.133 415.911 393.606C416.626 402.345 411.191 413.031 414.991 421.243C420.032 417.826 417.231 410.051 417.568 404.388C418.538 388.062 404.742 380.503 405.558 364.193C405.877 357.812 416.379 356.589 420.421 351.924C424.34 347.4 430.411 331.528 419.777 330.69ZM451.435 330.855C450.685 335.232 449.703 338.104 452.171 342.092C452.645 338.471 452.004 334.511 451.435 330.855ZM312.103 331.351C311.98 331.682 312.103 332.067 312.471 332.508C312.655 332.728 312.839 332.949 313.023 333.169C312.961 332.949 312.9 332.728 312.839 332.508C312.716 332.067 312.777 331.682 313.023 331.351C313.146 331.186 313.268 331.021 313.391 330.855C313.207 330.855 313.023 330.855 312.839 330.855C312.471 330.855 312.225 331.021 312.103 331.351ZM73.5633 333.334C73.686 333.665 74.4222 333.83 75.772 333.83C76.4468 333.83 77.1217 333.83 77.7966 333.83C77.0604 333.665 74.1154 333.004 73.3792 332.838C73.4406 333.004 73.5019 333.169 73.5633 333.334ZM55.1575 337.3C54.9734 337.465 54.7893 337.63 54.6053 337.796C54.9734 338.016 56.4459 338.897 56.814 339.118C56.7526 338.732 56.6913 338.346 56.6299 337.961C56.5072 337.19 56.3232 336.804 56.0777 336.804C55.8323 336.804 55.5256 336.969 55.1575 337.3ZM366.216 338.787C366.032 338.897 365.847 339.007 365.663 339.118C366.277 339.063 368.731 338.842 369.345 338.787C368.915 338.732 368.486 338.677 368.056 338.622C367.197 338.512 366.584 338.567 366.216 338.787ZM117.921 413.311C126.392 416.691 131.417 414.054 140.33 409.428C166.918 395.63 139.613 378.217 140.376 362.912C140.728 355.871 144.438 341.686 154.963 341.514C186.163 341.002 146.261 400.636 176.659 390.89C149.52 382.35 188.298 355.612 158.368 339.572C145.737 332.803 136.586 359.181 137.8 365.556C139.092 372.348 147.053 381.585 149.303 387.905C155.164 404.369 130.077 411.752 117.921 413.311ZM394.008 417.938C393.249 417.174 393.249 417.174 392.49 416.41C384.882 420.333 361.628 384.869 364.053 374.975C367.654 360.279 373.326 351.083 389.591 344.736C399.611 340.826 394.995 346.408 398.794 340.44C391.806 339.506 381.371 345.786 376.293 349.239C354.705 363.92 361.436 386.608 374.13 403.81C378.2 409.325 384.522 424.546 394.008 417.938ZM449.41 354.32C449.156 350.218 451.963 345.709 450.514 342.588C448.961 346.772 448.645 349.892 449.41 354.32ZM313.759 358.947C313.882 358.947 314.373 358.947 314.495 358.947C314.495 359.167 314.495 359.387 314.495 359.608C314.495 360.048 314.373 360.599 314.127 361.26C313.882 361.921 313.575 362.307 313.207 362.417C313.023 362.472 312.839 362.527 312.655 362.582C312.839 362.307 313.023 362.031 313.207 361.756C313.575 361.205 313.759 360.599 313.759 359.938C313.759 359.608 313.759 359.277 313.759 358.947ZM21.2908 378.61C34.6094 378.095 32.5776 378.325 40.2488 370.844C49.409 391.991 12.518 417.94 28.469 439.254C29.7804 438.428 29.7804 438.428 31.0919 437.602C27.2693 436.201 28.1731 420.539 28.8372 417.773C32.7059 401.655 36.0604 398.24 42.7796 385.427C44.5026 382.141 46.5017 367.023 39.8806 368.365C33.8571 369.587 35.8907 375.113 27.9629 376.628C21.004 377.957 24.8805 374.904 21.2908 378.61ZM191.544 410.172C192.624 401.143 197.863 381.842 213.263 386.005C218.383 387.389 220.332 391.12 226.285 390.714C231.83 390.337 237.191 379.531 240.136 380.098C249.978 381.991 276.024 384.047 278.42 369.853C270.298 373.218 264.162 378.682 255.229 380.015C250.838 380.67 238.236 376.415 235.81 377.867C230.138 381.262 233.986 387.543 225.181 388.277C221.058 388.621 217.74 383.797 214.736 382.742C197.399 376.648 190.092 400.658 191.544 410.172ZM448.49 374.149C448.367 374.094 447.876 373.874 447.753 373.818C447.753 373.984 447.753 374.645 447.753 374.81C447.999 374.7 448.244 374.59 448.49 374.479C448.98 374.259 449.226 373.818 449.226 373.157C449.226 372.496 449.103 372.111 448.858 372.001C448.735 371.946 448.612 371.891 448.49 371.836C448.49 372.221 448.49 373.763 448.49 374.149ZM447.017 377.619C446.772 378.61 446.833 379.161 447.201 379.271C447.385 379.327 447.569 379.382 447.753 379.437C447.692 379.051 447.631 378.666 447.569 378.28C447.447 377.509 447.508 377.013 447.753 376.793C447.876 376.683 447.999 376.572 448.121 376.462C447.999 376.407 447.508 376.187 447.385 376.132C447.263 376.628 447.14 377.123 447.017 377.619ZM445.361 383.898C447.513 380.479 447.847 381.945 445.913 379.437C445.913 382.262 446.057 380.771 445.361 383.898ZM444.992 387.368C445.115 388.029 445.054 388.47 444.808 388.69C444.686 388.8 444.563 388.911 444.44 389.021C444.686 389.021 444.931 389.021 445.177 389.021C445.667 389.021 446.035 388.855 446.281 388.525C446.526 388.194 446.342 387.754 445.729 387.203C445.422 386.928 445.115 386.652 444.808 386.377C444.87 386.707 444.931 387.038 444.992 387.368ZM141.481 387.534C140.744 388.442 140.744 388.442 140.008 389.351C141.021 389.372 141.021 389.372 142.033 389.393C141.757 388.463 141.757 388.463 141.481 387.534ZM71.1705 395.961C71.4159 395.741 71.6613 395.52 71.9067 395.3C72.3976 394.859 72.4589 394.253 72.0908 393.482C71.9067 393.097 71.7227 392.711 71.5386 392.326C71.4773 392.931 71.2319 395.355 71.1705 395.961ZM70.4343 397.448C70.1889 397.558 70.0048 398.054 69.8821 398.935C69.8207 399.376 69.7594 399.817 69.698 400.257C69.8207 400.202 69.9435 400.147 70.0662 400.092C70.3116 399.982 70.4343 399.651 70.4343 399.1C70.4343 398.55 70.6797 398.219 71.1705 398.109C71.4159 398.054 71.6613 397.999 71.9067 397.944C71.7227 397.834 71.5386 397.723 71.3546 397.613C70.9865 397.393 70.6797 397.338 70.4343 397.448ZM309.342 413.146C309.834 410.436 309.227 411.65 311.182 409.511C310.262 411.328 310.262 411.328 309.342 413.146ZM50.9241 423.061C51.1082 423.171 51.8444 423.611 52.0285 423.722C51.7217 423.942 50.4947 424.823 50.1879 425.043C50.3106 424.713 50.8014 423.391 50.9241 423.061ZM127.124 458.257C143.952 456.321 160.407 450.965 177.372 450.987C197.945 451.012 218.256 451.813 238.663 451.813C248.789 451.813 259.203 450.171 269.033 452.35C281.476 455.108 310.552 470.289 314.127 480.895C316.161 486.928 315.354 493.454 315.968 499.733C271.277 499.206 228.941 506.49 184.964 509.028C129.769 512.213 76.6836 510.384 21.1067 507.995C23.1437 491.536 36.6379 476.072 52.0285 467.345C51.8444 468.667 51.8444 468.667 51.6604 469.989C72.6623 456.77 103.603 460.964 127.124 458.257ZM49.0835 451.152C49.2676 451.207 50.0038 451.427 50.1879 451.482C50.1265 451.592 49.8811 452.033 49.8198 452.143C50.0038 452.143 50.7401 452.143 50.9241 452.143C50.8014 452.033 50.3106 451.592 50.1879 451.482C50.3106 451.372 50.8014 450.931 50.9241 450.821C50.6787 450.711 49.6971 450.27 49.4517 450.16C49.3903 450.326 49.1449 450.987 49.0835 451.152ZM299.771 452.969C300.691 453.713 300.691 453.713 301.611 454.457C301.795 453.465 301.795 453.465 301.979 452.474C300.875 452.722 300.875 452.722 299.771 452.969ZM302.9 453.465C303.268 453.906 303.759 454.181 304.372 454.291C304.679 454.346 304.986 454.402 305.292 454.457C304.802 454.181 302.838 453.08 302.347 452.804C302.532 453.024 302.716 453.245 302.9 453.465ZM350.939 459.414C337.927 457.476 343.901 459.032 332.901 455.118C346.611 457.915 359.72 457.955 373.394 461.066C362.166 460.571 362.166 460.571 350.939 460.075C367.493 462.667 384.008 461.73 400.634 463.71C399.346 462.884 399.346 462.884 398.058 462.058C410.865 460.868 405.251 460.331 414.991 462.388C410.574 463.049 410.574 463.049 406.156 463.71C434.231 462.914 466.329 474.581 479.779 499.402C464.176 495.9 449.363 500.559 433.213 500.559C416.557 500.559 400.022 496.711 383.379 497.296C373.651 497.638 363.541 501.855 354.252 499.237C353.161 498.93 314.704 458.673 313.54 456.47C324.947 448.927 338.739 461.848 350.939 459.414ZM454.748 454.787C451.266 457.132 448.032 459.016 443.704 459.744C449.283 460.292 450.775 458.354 454.748 454.787ZM440.575 461.066C440.452 461.287 439.716 461.452 438.366 461.562C437.017 461.672 436.342 461.837 436.342 462.058C436.342 462.168 436.342 462.278 436.342 462.388C437.262 462.278 438.182 462.168 439.103 462.058C440.943 461.837 441.986 461.562 442.232 461.232C442.354 461.066 442.477 460.901 442.6 460.736C442.293 460.736 441.986 460.736 441.679 460.736C441.066 460.736 440.698 460.846 440.575 461.066ZM402.107 463.214C401.616 463.325 401.371 463.49 401.371 463.71C401.371 463.82 401.371 463.93 401.371 464.041C402.107 464.041 402.843 464.041 403.579 464.041C405.052 464.041 405.849 463.93 405.972 463.71C406.034 463.6 406.095 463.49 406.156 463.38C405.604 463.325 405.052 463.27 404.5 463.214C403.395 463.104 402.598 463.104 402.107 463.214ZM463.674 468.213C465.538 467.224 464.735 468.025 464.319 465.032C463.996 466.623 463.996 466.623 463.674 468.213ZM40.6169 500.394C41.3531 501.303 41.3531 501.303 42.0893 502.212C51.3253 495.906 62.1698 500.651 72.2749 496.593C100.649 485.2 138.725 468.005 171.482 470.857C191.723 472.619 211.891 483.364 231.485 482.011C231.209 480.048 231.209 480.048 230.933 478.086C217.522 484.949 192.745 469.671 176.636 469.163C138.139 467.95 104.195 481.953 69.8361 494.982C60.252 498.616 47.4623 491.455 40.6169 500.394ZM492.111 470.65C492.234 471.752 492.541 472.413 493.032 472.633C493.277 472.743 493.522 472.854 493.768 472.964C493.461 472.303 492.234 469.659 491.927 468.998C491.989 469.549 492.05 470.1 492.111 470.65ZM464.135 469.659C464.012 469.879 464.135 470.1 464.503 470.32C464.871 470.54 464.993 470.871 464.871 471.311C464.748 471.752 464.809 472.027 465.055 472.137C465.178 472.193 465.3 472.248 465.423 472.303C465.423 471.972 465.423 471.642 465.423 471.311C465.423 470.65 465.239 470.155 464.871 469.824C464.687 469.659 464.503 469.494 464.319 469.328C464.257 469.439 464.196 469.549 464.135 469.659ZM45.7705 472.964C49.4179 471.773 47.7335 472.762 50.556 469.659C46.8752 471.724 48.4297 470.576 45.7705 472.964ZM382.781 475.773C385.465 479.151 388.278 486.176 392.766 487.298C388.283 479 390.664 482.498 386.071 476.568C398.458 469.296 401.841 477.604 414.301 476.434C406.415 469.204 390.292 466.782 382.781 475.773ZM468.736 476.599C467.632 474.947 467.632 474.947 466.527 473.294C467.497 476.389 466.456 475.507 468.736 476.599ZM163.936 476.103C163.2 476.213 162.831 476.379 162.831 476.599C162.831 476.709 162.831 476.819 162.831 476.93C163.384 476.93 165.592 476.93 166.144 476.93C165.96 476.764 165.776 476.599 165.592 476.434C165.224 476.103 164.672 475.993 163.936 476.103ZM471.129 479.904C474.063 482.818 472.646 481.28 475.362 484.531C473.711 480.974 474.999 482.601 471.129 479.904ZM275.843 479.739C274.603 489.389 286.893 498.383 297.93 494.115C287.475 490.806 279.518 489.872 275.843 479.739ZM475.73 484.696C479.634 489.85 484.556 496.549 492.111 495.932C484.727 494.203 481.362 489.13 475.73 484.696ZM280.997 484.861C280.997 485.302 281.365 485.742 282.101 486.183C282.469 486.403 282.837 486.624 283.205 486.844C283.144 486.569 282.899 485.467 282.837 485.192C282.653 485.247 281.917 485.467 281.733 485.522C281.794 485.302 282.04 484.42 282.101 484.2C281.917 484.2 281.181 484.2 280.997 484.2C280.997 484.42 280.997 484.641 280.997 484.861ZM316.336 485.522C319.61 489.722 317.687 486.505 316.75 496.469C316.247 488.388 316.336 492.039 316.336 485.522Z" fill="#000000" fill-rule="nonzero" opacity="1" stroke="none"/>
</g>
</svg>
