<?xml version="1.0" encoding="UTF-8" standalone="no"?>
<!-- Created with Inkscape (http://www.inkscape.org/) -->

<svg
   width="210mm"
   height="297mm"
   viewBox="0 0 210 297"
   version="1.1"
   id="svg1221"
   xml:space="preserve"
   inkscape:version="1.2.1 (9c6d41e, 2022-07-14)"
   sodipodi:docname="goat man.svg"
   xmlns:inkscape="http://www.inkscape.org/namespaces/inkscape"
   xmlns:sodipodi="http://sodipodi.sourceforge.net/DTD/sodipodi-0.dtd"
   xmlns="http://www.w3.org/2000/svg"
   xmlns:svg="http://www.w3.org/2000/svg"><sodipodi:namedview
     id="namedview1223"
     pagecolor="#ffffff"
     bordercolor="#666666"
     borderopacity="1.0"
     inkscape:showpageshadow="2"
     inkscape:pageopacity="0.0"
     inkscape:pagecheckerboard="0"
     inkscape:deskcolor="#d1d1d1"
     inkscape:document-units="mm"
     showgrid="false"
     inkscape:zoom="0.11436325"
     inkscape:cx="450.31948"
     inkscape:cy="222.97372"
     inkscape:window-width="1637"
     inkscape:window-height="1387"
     inkscape:window-x="4"
     inkscape:window-y="25"
     inkscape:window-maximized="0"
     inkscape:current-layer="layer1" /><defs
     id="defs1218" /><g
     inkscape:label="Layer 1"
     inkscape:groupmode="layer"
     id="layer1"><path
       id="path1402"
       style="fill:#000000;stroke-width:0.352778"
       d="m -49.95175,614.38851 c -20.457206,-0.75994 -41.252469,-5.32032 -59.80818,-15.61599 -16.44678,-6.46484 -9.08544,-26.15906 -4.55383,-43.55042 8.43651,-14.1915 8.37249,-17.37354 10.59092,-32.33152 -8.23919,-28.35107 1.00493,-59.10795 14.497227,-85.44814 13.024934,-15.90177 27.17667,-42.00914 5.352591,-54.4062 -12.79753,-2.9825 -8.095555,-16.69033 -16.871178,-23.67164 -12.50199,-21.84537 -11.68826,-42.86237 -15.07986,-68.25856 -4.76595,-5.28168 3.90331,-8.46783 -1.33194,-17.37285 5.62455,-13.32476 14.18977,-40.39168 4.60019,-48.1265 2.18016,-18.45471 7.37844,-30.16904 11.15071,-48.45201 -0.18491,-12.53252 -2.12557,-24.55444 -1.46578,-37.5 2.967468,-10.27962 -12.18813,-23.26738 -12.79631,-27.79623 8.39592,-11.80672 28.735374,36.05153 21.795037,18.59252 1.527003,8.19968 0.92592,19.99028 -0.0041,32.11389 -0.39955,-6.84109 7.295448,-17.46939 5.096192,11.46526 -1.822134,23.40382 -4.168111,42.37455 -10.736647,63.47481 -7.65785,31.79668 -9.98745,64.82543 -1.23149,96.6863 4.2022,16.76056 13.492595,41.95823 31.36169,42.157 5.939109,15.52849 11.999753,37.69738 -4.384286,52.07582 -9.789401,12.65264 -18.107048,36.41749 -20.835128,46.31746 -3.225301,14.53675 -7.701796,30.42053 0.381033,45.36366 9.748209,6.1383 38.866651,18.70509 46.340183,1.58751 1.095014,-28.0908 -0.1501,-65.67169 28.730575,-81.70435 6.696369,9.75353 -13.440406,17.72858 -10.475282,30.07307 -3.857125,10.53885 -0.949868,3.26591 -6.173854,7.00485 -7.191384,18.74296 6.8243,14.78275 -1.105958,19.48464 -1.750108,11.84429 1.858228,34.00268 -7.049241,45.1474 5.702148,22.19099 10.980803,21.8654 6.001631,45.56041 3.01182,6.03581 11.014152,18.27385 -2.985981,24.11197 -3.625991,-3.2314 -5.625022,4.81699 -9.008982,3.01784 z m -6.500636,-7.87323 c 5.052465,-9.80277 1.183722,1.92801 11.070766,-7.03721 -1.32174,-20.36671 6.370423,-64.2052 -25.560408,-62.2596 -24.541013,-9.97421 -29.308352,7.78238 -2.979561,8.16473 12.329219,5.50152 -18.378699,6.58895 -25.588314,1.17317 7.309497,7.82311 27.896986,7.77866 35.618059,14.22636 -9.59153,4.51769 -66.838156,-10.01816 -24.027519,1.42515 51.464484,19.02314 -33.724377,-7.01612 -6.039853,15.4915 22.645776,1.04534 16.322419,6.30031 14.943279,15.79439 -12.281631,3.7272 -41.276763,-22.06917 -27.203823,-4.64633 5.53566,4.36531 13.909138,13.2173 26.17223,15.21718 7.049253,2.74598 16.321002,4.28679 23.595144,2.45066 z m -0.187078,-3.83783 c -0.449222,-1.33387 1.71717,0.32362 0,0 z m -3.271555,-0.26885 c 2.325142,-0.52208 0.45146,0.58506 0,0 z m 9.253713,-0.81386 c 0.901328,-1.26558 0.901328,1.26558 0,0 z m -6.945312,-0.59376 c 1.546452,-0.50531 0.152846,0.67926 0,0 z m -38.883696,-7.46817 c 1.336639,-4.69418 1.351181,1.7271 0,0 z m -8.851546,-55.79085 c -0.90425,-1.30665 -1.35616,1.26479 0,0 z m 74.224337,-69.76181 c 1.014906,-2.73849 -2.363976,2.5767 0,0 z M -94.930917,215.47946 c -1.382865,-1.11582 -1.382865,1.11582 0,0 z m -0.01235,-25.20043 c 4.847938,-17.25334 -1.181674,-26.35513 0,0 z m 2.693952,-21.00796 c 1.045417,-9.53004 -3.868196,6.07857 0,0 z m -1.976049,-34.22494 c -2.606032,-1.73962 -2.548835,2.09553 0,0 z m -0.636305,-5.18714 c -1.589295,-0.36662 -0.363718,3.32299 0,0 z m 61.888934,463.8064 c 1.042029,-1.98589 0.840905,1.03082 0,0 z m -1.280407,-4.96786 c 1.095781,-1.27939 0.669409,1.77639 0,0 z m 236.713892,-0.25699 c -24.01381,0.92255 -30.69468,-28.64433 -25.39136,-48.06274 9.24937,-18.56445 -3.86027,-27.84365 -9.71285,-44.61599 -2.91221,-30.17126 3.62274,-61.01422 -22.91609,-76.2 -10.53637,-22.95096 -75.132641,2.33763 -57.632006,-17.63687 22.754066,-3.715 47.710676,2.74964 66.616196,11.57269 7.35221,10.54555 26.2816,27.54935 19.24142,2.05201 7.29133,-9.30048 -2.08104,21.75644 0.47092,17.06499 3.88028,7.39195 -1.14347,24.95027 2.45727,35.41727 -0.0549,14.01806 -1.38351,22.9181 8.75215,32.47944 -6.50148,1.23521 -0.12246,18.76404 10.46582,23.09463 11.38516,2.71731 34.57884,8.23669 37.28749,-4.15597 3.7959,-16.97838 7.96887,-44.15259 -10.94186,-55.65824 -2.84851,-16.03197 -14.77668,-34.20255 -14.33655,-52.94112 -5.97456,-11.94883 3.29269,-7.18522 4.98344,-26.36918 14.65202,-21.24294 25.40852,-45.11442 32.57755,-69.54789 13.9753,7.64396 -2.45495,32.11318 -7.87844,44.15198 -12.80656,19.53426 -22.06741,41.38623 -19.09608,64.53364 2.89714,12.62081 5.6875,32.7069 18.34621,36.65763 14.00774,24.48837 -2.56239,54.66741 17.85959,76.62005 11.23988,11.9112 -1.85212,37.93454 21.07847,25.41694 -6.07423,15.54158 -27.06927,23.37389 -43.45781,23.99322 -9.02988,2.58516 -19.46107,2.82528 -28.77348,2.13351 z m 13.93472,-7.65249 c 11.49397,-2.88144 25.51038,-0.23092 35.10139,-7.46608 0.92334,-14.75107 -1.38623,-37.75933 -16.55094,-44.42926 -29.10463,7.45916 -15.86239,9.47242 -5.46495,16.34452 -28.0297,4.72091 18.01444,12.27168 -11.24041,14.67793 -19.83663,-17.04837 12.71583,16.83573 -8.37146,14.72376 -19.01685,-1.48649 -0.58509,8.7428 6.52637,6.14913 z m 6.17361,-16.94053 c 0.90131,-1.26557 0.90136,1.26556 0,0 z m 1.76389,-1.41112 c 1.35619,-1.26476 0.90422,1.30664 0,0 z m -2.27799,-0.68117 c -0.30865,-1.74891 3.05721,1.19878 0,0 z m 7.07016,-8.71732 c 0.69128,-0.79784 0.76651,1.94615 0,0 z m 0.3877,25.9129 c -0.67915,0.15304 0.50549,1.54639 0,0 z m -38.97333,-5.73429 c -2.99819,-15.94629 -11.69335,-27.04259 -2.90333,-0.28498 z m 15.08866,-23.97665 c 4.62455,-8.56943 -27.72669,-4.73662 -2.99862,0.3845 l 2.99862,-0.38467 z m 3.45027,-12.97785 c 1.9462,-6.17086 -25.52719,-0.96302 -4.11759,1.26475 z m 27.70395,-16.8645 c 0.42794,-5.71154 -5.02436,3.48151 0,0 z M -21.553139,581.86 c 0.645777,-3.63994 1.010853,3.138 0,0 z m 1.058333,-1.07915 c 0.901328,-1.26558 0.901328,1.26558 0,0 z m -4.938888,-6.99675 c -3.134229,-1.95616 -0.531282,-1.42644 0,0 z m -2.557604,-1.69682 c -1.142905,-1.20898 2.271728,-1.76929 0,0 z m 195.350658,-4.00643 c 0.87004,-1.2567 0.42667,1.28981 0,0 z m -0.52917,-0.5909 c -9.3209,-6.11188 0.33285,-25.64879 -2.60095,-8.95785 0.78147,0.0745 2.6704,6.47726 2.60095,8.95785 z m -198.437496,-0.46743 c 0.426633,-1.2898 0.870056,1.25667 0,0 z m -95.426384,-7.0267 c -1.10189,-2.56149 2.72723,-0.34845 0,0 z m 1.16032,-1.68526 c -1.35329,-6.27017 13.56347,-13.34402 3.10613,-3.43846 -2.23835,0.0706 -2.29089,2.06785 -3.10613,3.43846 z m 393.1225,-1.98878 c -10.72805,-14.12844 1.66962,-6.44396 0,0 z m -387.75644,-3.0576 c 0.87004,-1.2567 0.42666,1.28981 0,0 z m 283.80973,-4.03613 c 0.66945,-1.77638 1.09574,1.27942 0,0 z m 4.23333,-0.18485 c -4.27068,-2.79758 4.36713,-2.01523 0,0 z m -285.39722,-1.23466 c 0.48451,-2.79674 1.73674,1.10844 0,0 z m 282.43851,-0.60614 c 1.00378,-0.85464 0.27556,1.07143 0,0 z m 4.58456,-1.14289 c 1.48875,-2.46561 1.17957,2.11179 0,0 z m -284.04139,-0.96252 c 2.92368,-7.25759 10.77836,-6.80906 0,0 z m 375.22922,-0.0832 c -1.06569,-1.53685 1.50771,-0.13217 0,0 z M 232.27047,514.1058 c 0.42667,-1.28981 0.87004,1.2567 0,0 z m -0.17639,-2.11667 c 0.87004,-1.2567 0.42666,1.28981 0,0 z m -42.2657,-3.20146 c 1.19136,-1.37361 1.1913,1.37362 0,0 z m 8.94327,-1.71305 c 1.49867,-2.25776 0.78332,1.49083 0,0 z m -11.40376,-0.95836 c 0.60316,-2.82206 1.77376,2.43691 0,0 z m 41.38987,-14.56386 c -0.39641,-1.36186 1.36778,0.22167 0,0 z m -264.328559,-1.04913 c -1.751719,-7.59019 1.511169,4.10241 0,0 z m 2.582333,-2.81746 c -2.034454,-8.48958 2.502321,0.46592 0,0 z m 0.719702,-5.61142 c -0.02118,-2.49776 2.47609,0.56874 0,0 z M 220.80519,478.2989 c 0.87468,-1.85877 0.87464,1.85878 0,0 z m 0.35278,-1.94027 c 0.87002,-1.2567 0.42669,1.28979 0,0 z M -75.528139,445.68777 c 0.669442,-1.77637 1.095752,1.27942 0,0 z M -6.9128611,443.6719 C -26.164497,435.70635 -1.469927,425.15237 9.3855781,423.70452 37.557222,411.43321 66.439428,401.19448 94.422556,388.52616 c -3.834413,10.10375 -24.009165,17.68337 -35.981711,22.68597 -20.144504,9.74235 -43.4394,16.82819 -61.8746117,28.21084 -0.3018372,1.60558 -0.8533455,5.55055 -3.4790944,4.24893 z M 74.356167,404.27131 c 1.428128,-2.06909 -3.904615,1.14823 0,0 z m -92.734306,34.73605 c 2.512285,-3.64776 0.780899,1.61067 0,0 z m -7.71973,-16.57875 c -1.787826,-1.98376 4.632836,0.25815 0,0 z m 251.575819,-0.93208 c -22.07467,-17.80199 9.87678,-12.85739 0,0 z m -60.76442,-3.09929 c 2.66204,-2.80236 3.88791,-0.0859 0,0 z m -3.24115,-0.84071 c 1.54646,-0.50532 0.15283,0.67929 0,0 z m -2.21678,-0.65997 c 4.55065,-3.94524 0.88702,-1.17615 0,0 z m 9.56063,-0.69455 c 1.98636,-4.95447 2.60353,0.57242 0,0 z m -13.09854,-0.52116 c 1.35616,-1.26478 0.90424,1.30665 0,0 z m 24.37092,-1.36377 c -0.82957,-1.75294 1.28983,0.50713 0,0 z m 1.02908,-0.7529 c 0.87004,-1.2567 0.42666,1.28981 0,0 z m 8.99584,-2.11666 c 0.68133,-1.64493 0.68135,1.6449 0,0 z m 4.78518,-2.71883 c 0.38423,-0.88803 0.76051,1.57486 0,0 z m 0.85926,0.22857 c 1.01607,-0.67228 0.82329,1.2117 0,0 z M 75.46075,405.30329 c 1.186287,-3.09653 1.242796,2.79054 0,0 z m 123.60321,0.0567 c 1.06449,-8.2246 6.15268,5.68164 0,0 z m 2.12407,-5.75631 c -3.626,-9.25476 10.81763,3.48561 0,0 z m 5.32801,-2.62273 c -0.48013,-2.41101 2.95801,1.12981 0,0 z m 0.21484,-2.08375 c -0.47317,-3.23511 2.52148,0.71083 0,0 z m 0.0162,-14.54051 c 0.81261,-4.90921 3.29054,2.44364 0,0 z m -262.519693,-1.71747 c 0.870039,-1.2567 0.426652,1.28981 0,0 z m 215.900003,-0.97871 c 0.58412,-4.7981 8.99699,-3.83352 0,0 z m -2.99861,-0.78518 c 1.35618,-1.26476 0.9042,1.30664 0,0 z m 47.43968,-1.77641 c -4.36235,-7.38595 6.27054,1.47595 0,0 z m 1.59643,-3.51525 c 0.87002,-1.2567 0.42666,1.28979 0,0 z m -19.05,-2.82223 c 0.87005,-1.25667 0.42662,1.2898 0,0 z M -19.016097,363.7961 c 1.191302,-1.37362 1.191355,1.37361 0,0 z m 24.4504281,-0.32632 c 0.9042345,-1.30666 1.3561588,1.26479 0,0 z M -113.09897,333.8364 c 0.42666,-1.28979 0.87002,1.2567 0,0 z m 355.56278,-22.69814 c -6.3449,-21.73288 -2.0714,-41.48094 -5.66039,-38.52009 6.1322,-7.77169 -3.68477,-21.89038 -4.70929,-24.26814 -6.09145,-3.61977 -11.69983,-5.11472 -13.40555,-11.88005 -0.8795,-12.95966 -2.75658,-23.58119 -8.08009,-36.96004 -0.80587,-25.64567 -18.73198,-46.04687 -14.81493,-72.16986 -5.41269,-10.8537 -8.38997,-15.28878 -4.58347,-29.163854 2.50007,-3.346124 11.86624,-19.772341 15.69575,-27.600028 -3.65715,-8.689178 19.10876,-16.087713 7.26821,-21.795775 23.99478,1.335314 3.87245,-25.846139 21.27675,-33.640543 7.05865,33.343781 3.14927,10.911376 12.51835,-2.574074 0.69988,26.84067 19.28452,12.738681 26.10556,-5.3229933 -10.85386,-5.0560786 -26.88626,11.2171253 -19.9402,13.5301923 -4.74526,-28.7422562 6.66698,-20.05692413 18.76715,-26.1323316 -0.0418,-25.7596344 9.62637,-0.6498888 18.01823,-17.8270294 3.92263,-4.085706 -8.197,-13.022722 -4.35462,-22.950487 8.84309,-6.845854 17.90967,19.517061 24.20705,-8.756086 -9.13261,0.682425 -20.78392,-15.045837 -25.12617,-26.983619 4.89922,-1.3115 12.53253,9.311965 24.05912,7.234131 8.11374,2.329733 -3.01562,22.068925 7.40834,9.431302 5.37122,-9.079769 11.60652,-20.958652 12.87639,-25.696825 -0.18979,-5.143013 5.73062,-4.237467 9.70146,-13.22927 11.84768,-16.13069 -9.55216,-11.78282 -2.5232,-2.72256 -6.22205,11.022181 -19.66553,-7.46317 -29.57957,-8.55091 -0.9346,-7.17238 -29.70051,-18.678 1.48459,-11.12259 7.78983,-0.69217 20.99628,15.56701 22.15152,9.69606 -1.58935,-10.86575 -17.64,-18.37634 -19.22639,-25.22364 19.25773,4.14967 10.23851,7.66452 15.41605,-10.93611 6.26392,5.96035 18.7882,30.74816 25.26965,21.58316 3.13649,-9.00295 -12.1015,-16.60951 -19.03007,-24.14426 -7.96853,-13.4246 24.45394,12.15069 18.38478,10.44004 7.09146,7.0527 13.66644,-8.21573 11.07886,-14.52721 -4.7668,-10.18165 5.81251,-26.75632 -5.3415,-31.50662 -7.21589,-6.01249 -25.10441,-8.74536 -3.76255,-10.17775 8.6372,16.4181 22.63679,1.45296 12.65182,-8.79722 -26.03069,-7.04453 8.94769,1.77983 12.51888,-8.75347 3.23376,-9.05795 -11.10537,-7.94605 -13.96487,-17.19856 -7.86111,-4.60456 -18.35672,-9.67007 -24.75145,-5.55566 -32.26499,30.95627 -49.05238,74.33066 -70.12079,112.91838 -9.82383,20.28719 -15.54636,45.053006 -20.52571,66.152429 -6.05812,10.451064 -10.22517,40.207887 -30.06428,36.025985 -16.23879,9.148908 -42.34813,12.233022 -57.86537,4.772595 -20.84039,-13.758974 -44.09654,-23.729897 -70.231774,-14.658591 -9.985605,2.146811 -14.220014,5.873507 -25.422975,6.219112 C 62.432204,-40.361173 46.275893,-35.802753 39.574129,-50.644333 25.92235,-65.650246 29.841971,-84.090182 3.3738022,-72.165616 -7.704524,-70.906391 -41.430556,-83.018161 -13.145083,-84.200134 c 30.715144,6.234664 -1.934921,-12.851295 18.5877907,-14.131431 7.6071023,-3.541925 12.2358903,-5.168235 8.0954683,-11.479175 -12.3056845,-13.50208 4.23649,-8.72492 9.292872,-2.14941 10.708605,6.4588 -9.062476,21.45292 -12.633855,25.989003 -10.73395178,-0.459595 -9.0378046,8.055436 3.704166,4.68694 20.408876,-2.282191 10.301667,-23.116663 17.834822,-25.622323 -6.356199,-13.40289 -25.0801335,-17.74553 -31.06398833,-32.47344 -16.65379967,-24.93863 -22.33837567,-63.14538 -6.65518807,-89.4661 12.3058692,-12.30815 11.678497,-41.46077 14.7404311,-5.13292 -13.5679107,6.80113 2.7740063,23.81427 5.8962213,12.71764 6.387099,-13.47393 12.614728,-28.77847 3.428894,-42.79632 -5.996078,-14.9036 -0.806817,-31.28886 13.986757,-38.16618 6.292197,-27.27409 9.758727,-61.83972 38.700781,-76.32414 11.874478,-6.20028 18.09225,-11.15147 11.040886,-22.63003 -10.239985,-14.59712 -29.062608,-25.61659 -22.27199,-47.00764 11.934123,-30.52743 -14.606682,0.0207 -21.119677,8.73125 -12.000691,17.94714 -27.092614,39.27784 -29.2806208,62.20647 -13.6923263,2.7025 -2.8934796,-17.64325 -0.8359069,-24.97564 13.4748987,-24.78609 27.8550377,-50.40176 50.0297097,-66.89075 10.314697,-6.8993 30.107066,2.5836 15.643577,10.45217 -15.132787,15.63381 -4.08831,35.10181 8.028836,47.4316 9.028117,8.6225 16.782984,32.55168 3.345289,39.61541 -2.962131,-13.61044 -17.341267,5.83831 -24.752405,9.96464 -10.558574,12.2494 -15.140808,28.26952 -18.685966,44.12475 8.298938,10.32611 -7.18678,22.6916 -14.938266,29.2863 -10.124819,18.99081 14.019957,39.15243 0.593619,57.53058 -5.132301,19.38049 -11.095069,28.67817 -7.298796,48.33197 7.019775,20.71084 -8.404703,15.42005 -9.899156,-2.37034 -10.20320454,-22.65047 -22.766791,-7.45377 -14.3368312,13.50773 5.4222417,15.2503 9.7278811,22.50554 16.2927022,33.13577 12.702196,11.92846 31.234454,20.91324 27.514139,41.044742 -14.827443,23.203554 -6.541944,12.528001 2.507317,34.573386 0.752755,20.732599 38.211573,11.080738 22.680225,24.949679 26.874779,-8.41916 58.908376,-16.336198 85.428876,-2.660618 3.17321,5.555608 12.25879,13.896082 23.31868,12.613534 31.04067,4.598528 62.92684,-1.785022 66.41514,-38.179201 14.39206,-58.909142 44.2161,-112.237722 76.92987,-162.776502 24.4766,-14.46787 26.46691,-41.53287 39.00205,-63.56897 5.56956,-8.66888 25.6629,-46.86968 19.96193,-21.75637 -10.31744,18.34316 -28.23827,39.36091 -23.52135,60.63442 14.5054,-1.74587 18.17708,19.41818 28.95014,19.34877 8.41029,13.91702 6.60926,-10.03063 7.72023,-7.27147 -4.24156,-5.57341 -17.77015,0.38296 -15.25122,-5.63947 23.24547,4.31436 0.7214,-15.43122 13.05715,-14.37019 8.71231,12.62163 23.57951,25.54348 10.76787,2.64918 -11.23354,-7.50571 -17.94837,-17.41997 0.16379,-9.6278 9.49312,6.57395 13.46392,33.1084 15.71575,11.16178 -3.77997,-13.0285 -14.21446,-19.98378 -26.8376,-24.96673 9.52476,-7.08796 29.15748,9.96949 33.64732,22.22193 7.00077,-2.4021 -6.10061,-15.49318 -10.60104,-20.25428 -12.02198,-5.66522 15.34317,-2.94832 -5.88578,-11.90918 10.57592,-5.38521 26.68183,10.75479 31.46753,15.0489 -2.74809,-15.78998 -21.35707,-21.75364 -33.22003,-30.16203 -12.41388,-2.43721 -34.4034,-6.90853 -9.03339,-10.45547 21.78164,8.05159 44.98069,24.66663 53.51455,44.90694 6.19465,-9.05074 27.49521,-4.70373 10.78368,1.31255 -13.36651,6.9064 -26.70367,16.33908 -38.74023,25.24082 -9.82239,20.27592 -37.98691,15.72842 -30.32121,36.47126 -11.59446,6.43732 -15.1422,23.35378 -17.30969,36.51028 2.41999,41.01702 -27.82043,73.806833 -46.4799,107.886362 -12.48203,21.524314 -23.99875,44.057939 -43.88373,60.9756588 6.92522,21.4691292 -18.30203,41.3741512 -37.44503,46.8064192 -14.68327,7.128773 -22.89419,22.123614 -31.81283,38.487244 -6.41746,11.66125 -4.27196,27.417826 -3.0091,41.437626 1.47489,4.12548 7.32084,16.478 -0.97265,8.02484 -9.79895,-14.59956 3.15036,41.52294 5.95852,24.2213 -3.33219,-5.72946 -6.13883,-17.24747 -4.24487,-16.71264 0.78217,-11.39352 7.29099,10.76681 8.44889,18.01644 5.09424,5.79405 -1.59388,12.43896 -2.14577,6.25859 -2.01087,-9.0552 -3.57641,11.5675 2.99867,4.40972 0.98403,2.86236 3.88871,18.6093 2.31052,26.81863 4.21698,3.57279 0.28617,22.06022 11.81214,30.79925 18.95974,22.84254 17.58472,55.69393 15.30736,83.22881 -1.80459,1.26614 -2.8408,3.96132 -5.5282,3.49387 z m -9.66417,-64.53114 c -4.17049,-14.19757 -12.83867,-8.38671 0,0 z m -10.90697,-7.40335 c 6.60945,-5.09102 -6.30658,-0.12139 0,0 z m 6.96891,-2.87645 c -3.41224,-7.38078 -8.36597,-1.4815 0,0 z m -8.76194,-10.08814 c -0.42667,-1.28981 -0.87004,1.2567 0,0 z m -0.37758,-42.97151 c -1.07719,-1.36824 -0.0414,3.61361 0,0 z m -0.32798,-4.30071 c -2.12299,-1.20818 -0.56877,1.48761 0,0 z m -0.17639,-6.70278 c -0.42664,-1.28981 -0.87004,1.2567 0,0 z m -3.52777,-16.22778 c -0.90136,-1.26556 -0.90131,1.26557 0,0 z m -2.29306,-10.25927 c -2.47979,-3.54464 -2.06984,2.14983 0,0 z m -2.2358,-2.52892 c -0.61745,0.35257 0.57259,1.94268 0,0 z m -0.58642,-18.98262 c -1.09576,-1.27938 -0.66944,1.77636 0,0 z M 272.66353,2.2268808 c -2.1934,-8.2878657 -4.83335,8.4862382 0,0 z m 26.9875,-38.1015878 c -0.42667,-1.289802 -0.87003,1.25669 0,0 z m 35.45416,-60.325 c -0.90133,-1.265581 -0.90132,1.265583 0,0 z M 30.125666,-103.34346 c -1.327429,-2.8416 0.02393,2.71932 0,0 z M 337.7324,-120.92428 c -1.59462,-0.67109 -0.11284,1.72637 0,0 z m 1.54249,-0.61485 c -0.25045,-2.69209 -2.29189,2.67439 0,0 z m -1.24577,-2.28671 c -8.83706,-19.74015 -11.1648,-4.24913 0,0 z m 16.25364,-19.11692 c -2.07901,-1.46199 0.37357,1.73123 0,0 z m -29.87269,-3.41754 c -0.67917,0.15302 0.50547,1.54639 0,0 z M -2.5031389,-196.03582 c -0.9013271,-1.26558 -0.9013271,1.26558 0,0 z m 13.4055559,-5.30994 c -2.1817508,-16.86773 -26.153571,-14.99607 -9.6571156,-4.02851 3.1453832,-0.9752 7.4567654,8.36408 9.6571156,4.02851 z m 370.240273,-31.37895 c -1.26585,-1.34305 -0.43811,1.39076 0,0 z M 25.013528,-253.18582 c -0.870041,-1.2567 -0.426652,1.28981 0,0 z m 403.890232,-17.66379 c -1.62043,0.23723 0.92063,1.06975 0,0 z m -0.66523,-1.38621 c -0.87004,-1.2567 -0.42667,1.28981 0,0 z m -1.76389,-0.70555 c -0.90131,-1.26557 -0.90136,1.26556 0,0 z M 42.439586,294.34794 C 23.427774,295.98869 10.341123,285.47886 -6.8965981,289.60536 -15.895227,283.644 -32.192477,276.38558 -33.93313,275.31238 -53.639065,263.85533 -62.497255,237.32736 -64.121246,214.3244 c -1.045765,-13.10545 -7.482252,-31.23446 -11.768543,-45.7929 -1.482448,-4.43957 -5.291479,-26.63371 -6.439658,-21.54796 -6.304363,-13.12501 -5.079396,-33.36848 -12.731892,-43.42282 -5.353171,11.70297 -25.217631,-3.05824 -37.352221,-3.635501 -6.12921,-20.301048 -48.46994,8.812241 -37.31719,-8.799936 -1.24913,2.963591 -20.02294,-9.125158 -32.90251,-13.12485 -10.48907,0.738805 -19.78049,-2.923505 -6.94859,-12.547849 15.66053,5.266388 9.22004,-2.79258 19.82952,5.318835 13.20741,-1.118901 15.17401,11.887724 39.20049,11.950342 16.86294,-1.328343 32.07623,20.970009 47.48414,9.921381 10.882949,18.669158 6.337489,-5.194631 4.093103,-15.826246 3.065732,-22.112281 3.19891,-45.409925 19.38997,-63.655505 16.536176,-7.9526794 37.161894,-7.5548662 53.392776,-16.5430548 30.5394062,-12.7068152 72.640554,-4.7642275 99.818191,-5.9640616 17.344983,6.5089953 38.38683,2.004549 33.67871,4.1159288 15.28532,0.403238 -2.93182,16.4444056 -9.721815,10.3255935 C 66.069456,-7.6213954 29.526026,-4.7160116 -3.9142147,-3.0546249 -26.928103,0.32432247 -47.692905,15.933897 -70.555489,16.007583 c -14.323675,3.679299 -17.705838,29.583308 -18.986994,44.70139 -0.168803,19.718035 1.902652,38.877569 8.017157,60.267597 9.562622,37.23401 22.787897,73.28539 29.443186,111.45926 5.268277,18.47808 16.517841,34.30741 35.924631,39.7969 10.1149189,13.20452 27.970469,8.06533 37.859441,10.37515 19.655196,6.74691 38.023489,0.91586 48.414376,-5.07298 -19.72772,13.97905 21.187781,-5.60859 26.520986,-11.43187 29.790256,-15.05937 44.345276,-50.74011 51.448586,-83.75481 7.42262,-28.68806 -0.57894,-58.33976 -1.1416,-88.197013 0.80931,-10.100798 -5.17916,-20.857043 -3.04337,-21.57289 C 142.61371,60.073 125.82085,43.689677 126.45096,24.559934 131.01084,15.298123 108.88708,-6.5079179 126.63758,0.97652868 143.55082,12.765362 127.26105,35.309555 142.23419,49.32116 c 22.75689,30.225608 9.83854,71.35467 19.452,105.48055 -2.47203,22.82006 -9.02229,42.88534 -14.7201,64.16378 -9.65347,15.35667 -16.62218,33.69816 -29.52812,46.27436 -25.56537,6.91238 -45.233766,32.35086 -74.998384,29.10809 z m -73.870503,-17.63268 c -1.015413,-4.13765 -0.923299,1.71722 0,0 z M -212.60724,77.054505 c -0.5945,-1.664122 -3.63896,1.624902 0,0 z m -0.98905,-3.403353 c -2.59123,-1.154163 1.17464,2.50456 0,0 z M 72.28575,276.6864 c 2.287697,-5.08509 4.793792,-0.52307 0,0 z m 3.345674,-2.83143 c 3.767899,-3.23866 25.014016,-13.04478 17.414191,-9.2987 -4.924627,3.88906 -11.119789,7.27373 -17.414191,9.2987 z m 159.643056,-5.52185 c 1.34295,-2.91184 1.0484,0.0982 0,0 z m -0.0936,-2.78638 c -1.08161,-2.48747 1.49947,-0.92685 0,0 z M 97.920947,263.39843 c -1.086553,-1.59763 1.552135,0.3017 0,0 z m -214.371307,-0.44954 c 0.6694,-1.77638 1.09577,1.27938 0,0 z m 350.8375,-1.07915 c 0.87005,-1.2567 0.42665,1.28982 0,0 z M 98.679454,260.83991 c 17.327236,-11.45557 4.733596,-0.21198 0,0 z m 134.472966,-1.9896 c 1.09576,-1.27939 0.66943,1.77637 0,0 z m -0.70556,-2.42781 c -1.81067,-8.20412 2.61503,4.78407 0,0 z m -122.02982,-2.29454 c 3.45708,-4.30532 4.42377,-0.59847 0,0 z m 119.65848,-2.53178 c -0.59328,-4.03717 2.48791,1.95352 0,0 z M 114.83527,250.208 c 5.45251,-4.61479 -2.80967,4.45847 0,0 z M -20.798441,246.73815 C -30.82399,233.31823 2.1012812,224.36413 11.96075,216.89029 c 33.519645,-16.25062 73.832891,-16.89278 109.59899,-12.61151 -7.29608,17.08911 -56.137834,-1.97641 -78.378157,9.6242 -19.213408,3.34556 -40.3746503,17.37957 -52.448883,25.38899 -4.83367,-2.05438 -6.359375,9.74314 -11.531141,7.44618 z M 222.80015,245.0246 c 0.41283,-1.14814 2.53147,0.87253 0,0 z m -3.58246,-2.91042 c 0.87004,-1.2567 0.42666,1.28981 0,0 z m -5.686,-20.29795 c -0.30361,-4.25583 2.71785,4.51142 0,0 z m -2.95705,-2.98538 c 0.90423,-1.30666 1.35615,1.26479 0,0 z m -277.438592,-0.67137 c 1.380374,-4.24239 1.998642,0.63752 0,0 z m 278.320532,-0.73974 c 1.35616,-1.26479 0.90425,1.30665 0,0 z m -1.23472,-1.09566 c 3.20097,-4.00578 2.51824,0.008 0,0 z m -5.28457,-1.54164 c -0.66078,-1.79627 1.66005,1.61766 0,0 z m 3.25268,0.0529 c -6.65464,-9.27594 6.81,-0.0116 0,0 z m -8.5676,-2.73749 c -1.16858,-2.86482 2.90265,2.83162 0,0 z m 1.84767,0.35652 c 1.19133,-1.37363 1.19133,1.37363 0,0 z m -3.97704,-3.23836 c -8.99685,-5.89252 7.95618,-0.35176 0,0 z m 6.26431,-0.84786 c -13.84097,-17.46595 6.2805,-3.27466 0,0 z m 6.81733,-0.82621 c 0.87005,-1.2567 0.42665,1.28982 0,0 z m -320.89944,-1.9383 c 1.31463,-4.24573 2.55131,1.49745 0,0 z m 40.441106,0.21604 c 0.582092,-1.64701 1.224358,0.60817 0,0 z M 135.29433,205.5728 c 1.82836,-2.37157 5.14433,2.15743 0,0 z m 58.91657,0.30449 c -4.90741,-7.55588 -8.4622,-13.91809 -7.93401,-23.91002 5.67269,3.18999 14.83247,18.06192 5.66158,10.58161 -0.4179,9.17476 5.70799,16.04365 5.28769,12.47183 l -1.89982,0.48422 -1.11605,0.37236 z m -4.20917,-13.92372 c -0.67918,0.15302 0.50551,1.54639 0,0 z m -0.49494,-1.71072 c -1.53236,-2.50395 -0.13303,3.33833 0,0 z m 18.5984,15.18242 c 0.90136,-1.26556 0.90131,1.26557 0,0 z m -76.55277,-0.35277 c 0.9013,-1.26558 0.90135,1.26557 0,0 z m -0.0871,-0.60971 c -6.49451,-2.62161 9.25888,0.71774 0,0 z M -44.057856,202.4923 c -0.910991,-19.36833 29.847302,-31.47098 47.2647429,-39.04756 28.7020481,-10.73637 57.7582711,-30.27588 89.8221441,-20.86583 23.416599,-5.5275 52.444039,19.14778 15.240049,8.79875 -29.2613,-6.66337 -58.977383,-3.1945 -85.070911,11.47593 -22.35995849,9.48179 -47.613304,17.67687 -61.253123,39.52222 z m 162.977896,-1.67958 c 0.76317,-1.35651 2.6899,0.90692 0,0 z m -12.41485,-2.05718 c 1.86545,-0.60539 1.86145,1.08652 0,0 z m -178.329162,-0.3858 c 1.356158,-1.26479 0.904235,1.30666 0,0 z m 265.465282,-0.35278 c 0.87004,-1.2567 0.42664,1.28981 0,0 z m -4.93889,-0.72637 c 1.01607,-0.67225 0.82328,1.21171 0,0 z m 33.8945,-10.06274 c 0.50925,-0.93959 0.15719,1.52105 0,0 z m -328.11117,-0.39042 c 1.0987,-2.33238 2.01355,-0.53504 0,0 z m 30.366723,-0.66791 c 0.509213,-0.93959 0.157287,1.52101 0,0 z m -31.209223,-3.92935 c 1.83773,-4.21973 2.75926,-0.88222 0,0 z m 294.35901,0.0656 c 1.33234,-3.03147 1.12898,0.17743 0,0 z m -5.03248,-0.54483 c -2.08078,-2.31897 6.30648,0.0143 0,0 z m 4.85069,-2.44118 c 1.67634,-6.92862 3.83504,3.63517 0,0 z m -9.3098,-1.45038 c -3.63206,-5.09652 7.58143,3.79232 0,0 z m 7.46343,0.41787 c -2.75634,-10.7793 4.22022,-7.45212 0,0 z m -263.211624,-3.39556 c 1.081094,-2.57499 1.227266,1.87571 0,0 z m 268.623274,-0.0113 c 0.24085,-1.61986 1.13191,2.10787 0,0 z m 0.14961,-1.49063 c -4.131,-2.92784 4.1101,-0.80733 0,0 z m -5.65517,-4.4904 c 0.70644,-2.85283 1.40119,2.31863 0,0 z m 3.29675,-0.35454 c -0.9776,-2.40951 4.39736,1.63047 0,0 z m -2.74655,-6.06608 c 1.25775,-18.53909 3.68307,7.41192 2.7034,0.26045 -3.71152,-0.0392 -1.45875,8.99994 -2.7034,-0.26045 z m 5.53081,3.7309 c -1.95663,-2.47316 2.29965,0.26209 0,0 z m -272.619116,-8.08002 c -0.760884,-1.25019 0.993737,0.0105 0,0 z m 200.039496,-1.19853 c -2.04689,-2.02157 4.08958,0.42018 0,0 z m -228.6,-0.18912 c 0.42667,-1.28981 0.87004,1.2567 0,0 z m 299.55716,-1.5875 c 0.83878,-1.90491 1.23657,1.86707 0,0 z m 28.21175,0.23844 c -0.37256,-1.60239 1.32876,0.44826 0,0 z m -27.02585,-0.98809 c -9.83866,-1.72614 1.20861,-2.71138 0,0 z m -4.26272,-2.66055 c -0.77218,-5.53856 3.13567,-2.29196 0,0 z m -273.020614,-4.70369 c 0.837322,-1.85103 0.305283,1.86342 0,0 z m 273.644504,-0.71751 c 2.86759,-2.24262 1.36287,-1.16082 0,0 z M -91.780823,145.2467 c 0.581754,-1.56314 3.745624,1.63772 0,0 z m 306.165463,-3.03918 c 1.84448,-0.96356 0.19956,1.36268 0,0 z m -25.09989,-0.8001 c 1.56603,-2.25218 0.6214,1.99269 0,0 z m -256.698294,-4.95018 c 2.397518,-15.76014 32.881629,-17.90282 46.8104,-27.20654 39.514735,-22.247304 87.888983,-27.167423 130.812504,-12.128326 8.74098,-4.273031 30.75687,-2.541593 32.8542,7.835296 -8.15899,14.67267 -19.79528,-11.888726 -26.84855,1.85259 -40.873267,-15.718024 -88.638222,-15.341588 -127.893617,6.19689 -19.100173,5.66978 -36.280445,22.08372 -55.734937,23.45009 z m 255.763184,-0.52917 c 1.37695,-1.28874 1.37695,1.28874 0,0 z m -1.08532,-1.12571 c -0.83566,-4.60195 4.28702,-10.559 0,0 z m 22.20718,-0.39557 c 3.82083,-1.11081 -2.85067,2.75963 0,0 z m 4.80731,-1.30094 c 0.42664,-1.28981 0.87004,1.2567 0,0 z M -88.580917,130.2947 c 1.413925,-0.62621 1.377297,1.15024 0,0 z m 57.15,-1.09022 c 1.01605,-0.67228 0.823309,1.21172 0,0 z M 187.29131,127.835 c 0.66943,-1.77637 1.09576,1.27939 0,0 z m 0.35277,-2.22903 c 0.20006,-2.70625 2.59955,1.3321 0,0 z m 1.76389,-0.81559 c 1.20531,-2.4603 2.53728,1.05416 0,0 z m -1.41111,-3.10014 c 0.83069,-5.24904 1.11516,1.91503 0,0 z m -287.691829,-1.2869 c -0.02658,-1.73445 2.514568,1.12918 0,0 z m 308.711249,-0.65592 c 1.01716,-3.10294 3.47444,0.31835 0,0 z m -305.358308,-4.07468 c 0.912296,-2.1039 0.688902,1.6943 0,0 z m -20.813892,-5.85022 c 0.90131,-1.26557 0.90136,1.26556 0,0 z m 19.931948,0 c 0.881867,-1.66776 1.443992,1.18676 0,0 z m -23.073398,-0.58618 c -0.66657,-4.2571 4.97029,1.79836 0,0 z m -0.7391,-2.60964 c 1.01606,-0.67224 0.82327,1.21168 0,0 z m -1.69334,-0.7553 c -2.93662,-3.9431 3.9831,0.57148 0,0 z m 285.15028,-7.964024 c 2.2216,-1.744434 1.80826,0.507896 0,0 z m -3.70416,-1.137638 c 6.75907,-3.220019 -1.00366,2.106557 0,0 z m -15.69862,-0.705556 c 3.40577,-1.457375 0.69728,1.618581 0,0 z M -78.173972,91.403917 C -82.312888,76.827855 -48.969437,61.081587 -33.900361,53.954404 7.5252011,33.062939 53.837115,23.631925 100.30515,27.12324 c 31.43282,-4.284963 26.74808,17.338587 0.1414,5.896244 -57.331412,-6.226757 -114.593925,13.510072 -161.758137,45.204518 -5.401429,3.11821 -9.476662,15.648256 -16.862385,13.179915 z M 189.05519,89.714182 c 1.37696,-1.288746 1.37696,1.288746 0,0 z m -382.59845,-1.42882 c 0.70781,-1.680635 1.01234,1.142467 0,0 z m 7.06651,-1.040624 c 0.87004,-1.25669 0.42667,1.289804 0,0 z m -6.52639,-1.566686 c 0.66944,-1.77637 1.09576,1.279398 0,0 z M 72.28575,85.30446 c 0.850587,-2.09067 1.475919,1.802638 0,0 z m -5.115278,-0.881944 c 0.358507,-1.50398 1.749507,1.482902 0,0 z m 77.471518,-0.32258 c -0.83744,-4.09566 2.93242,1.671044 0,0 z m -357.75346,-4.969087 c 0.90132,-1.265564 0.90132,1.265564 0,0 z m -5.57249,-3.739445 c -14.96144,-5.248697 4.27739,-1.902842 0,0 z m 422.9086,-3.237618 c 0.73295,-2.614216 3.23802,-0.245369 0,0 z m -421.41881,-1.3208 c 2.65017,-1.499503 -1.52292,1.725482 0,0 z m -9.67564,-0.07602 c -6.92809,-5.477781 8.76896,0.783663 0,0 z m -3.88055,-2.347595 c 4.24674,-3.383681 0.65814,1.646095 0,0 z m 4.93889,-0.02716 c 1.47565,-1.248775 1.26579,1.745236 0,0 z m -7.9375,-0.540244 c 0.52581,-1.894997 3.13655,0.02596 0,0 z m 438.67916,0 c 0.87004,-1.256693 0.42666,1.289799 0,0 z m -425.97916,-0.906533 c -7.45426,-10.234561 -28.26347,-15.673741 -36.84421,-31.549023 -18.3254,-13.039335 -28.74729,-34.41950993 -44.82385,-48.333907 -7.80968,-9.001154 -14.36137,-23.443817 -21.02761,-35.982733 -6.93508,-14.994541 -13.13064,-33.822496 -23.68703,-45.970472 -12.89014,-5.088639 -14.58025,-21.094569 -26.68557,-28.510019 -8.98792,-17.85884 -17.35646,-0.52178 -24.0854,-11.80173 -1.43995,-16.64277 -3.18108,-34.53428 8.35133,-48.12686 1.98792,-9.51984 6.93591,-12.5917 11.22476,-9.99976 -19.18252,-12.85862 -34.94042,-32.42791 -51.17064,-49.26337 -22.86699,5.84911 -39.36315,31.45387 -47.33586,53.45041 -5.17798,5.33209 0.42037,38.67659 3.26042,22.91275 -0.9487,-11.18886 9.19655,-31.78894 4.86969,-7.39627 3.56039,29.05824 2.76937,16.95665 7.31117,-4.93974 7.79209,20.36445 -1.17011,9.56265 11.35083,-3.37255 -4.25153,8.95742 0.33453,38.60399 11.92217,30.85802 -1.70355,-8.66715 4.76507,-35.3492 12.22877,-32.2459 -1.90353,9.59153 -9.35287,25.62662 -2.84648,35.64354 1.18031,-5.74318 8.42038,-35.92837 10.74952,-19.77743 -6.61202,7.60182 0.43842,43.78931 5.33058,23.67129 0.28771,-12.83633 18.25873,-30.64776 8.43419,-6.54343 -1.65924,14.68896 3.11719,34.1205 -15.67022,19.50184 -15.26268,-11.29943 -34.36156,-15.19228 -52.33961,-12.58422 6.18647,-19.00584 -10.11059,-2.78984 -12.15079,-18.72808 -1.91319,-14.34697 -1.53587,-27.22246 6.3032,-37.95352 5.35513,-18.53239 19.86781,-32.69217 34.52682,-45.31889 19.44525,-11.26859 33.2378,22.29606 47.64932,31.28155 9.53774,5.08366 18.77533,18.54963 30.37951,13.63904 6.37758,12.42921 19.48557,23.9971 31.97789,35.04464 10.34548,10.89356 21.36214,22.78232 34.04606,29.77365 0.88639,8.81334 19.30065,10.58975 21.40431,23.6112 20.81651,24.310944 45.37775,47.438741 55.01251,78.967755 5.93371,9.048737 10.60119,19.703771 18.03285,25.6604914 18.06538,-2.2069089 22.48198,5.5748257 36.7954,-13.9644334 24.35545,-12.313882 27.87589,-12.43368 33.82764,-7.616051 12.7152,5.451198 40.925566,-6.269444 22.10439,-5.509683 -20.39076,4.653779 -24.13681,-1.986755 2.13667,-1.544531 13.455452,8.724215 22.478145,-22.462496 34.80756,-8.271226 -16.801632,22.664975 -50.23738,26.80793 -78.1661,25.225163 -18.7044,2.386457 -21.4111,34.619365 -39.13005,23.6112756 -10.23592,7.7102744 -28.20004,-18.2463126 -25.73154,-12.606267 -2.65195,-2.5711026 -3.23896,-1.721687 -11.00824,-10.7369296 -1.35509,-4.439171 9.31161,7.443262 4.24483,-4.815698 -11.2519,-18.180576 -17.85302,-40.724593 -35.35489,-54.65886 -12.87623,-16.874713 -29.48847,-30.749936 -42.31029,-44.855876 -8.18533,-14.14058 -29.97783,-26.66481 -41.56499,-42.26592 -10.79151,-5.58062 -19.28143,-25.31069 -32.22719,-20.87949 -15.00196,6.35967 -21.80456,33.26671 -10.11439,45.48038 9.17433,14.30724 24.12271,6.6091 34.52639,15.06585 -15.6251,15.53462 1.52546,0.63009 11.10201,4.72429 -5.40862,11.73287 -14.35427,14.69771 5.35083,17.23514 13.65983,-7.06875 21.41723,-1.79811 13.94251,16.627265 -11.81386,1.793111 -4.71393,19.903776 4.61672,14.607363 9.89881,1.686405 22.15926,-11.769945 28.05493,-6.851188 -3.42112,12.124277 -23.95042,11.837515 -29.87198,18.491724 12.79304,13.156995 25.52643,-15.556913 37.41703,-13.159707 2.28322,9.041533 -13.86747,13.707842 -19.49486,21.145183 -17.38268,3.716979 -7.42671,15.803382 6.29133,5.451792 23.05467,-14.556235 2.88897,12.350691 -10.8244,13.519425 5.08223,21.3303 26.94672,-6.743829 34.82157,-12.35209 9.51953,6.989457 -12.10467,16.997399 -12.38112,25.21966 -4.91148,7.993432 -11.66873,6.061394 4.39136,19.5082919 3.83914,-4.4662334 10.87474,-17.1017559 18.18828,-15.2067689 10.61211,10.9638373 -7.65534,22.5270599 -6.16659,33.117437 11.34317,10.012207 15.64075,-16.00749138 29.7489,-6.8242031 9.20472,14.1184491 -17.83584,32.1889971 -8.23836,7.0474061 -12.80782,3.649348 -4.07556,24.825569 7.85409,24.518055 8.86371,-24.444913 9.90422,3.78088 22.25121,8.401756 7.14673,-16.889138 17.62982,1.278753 4.97674,11.972784 -5.96884,-1.699754 -3.7017,8.374485 -10.56403,5.530409 z m -6.17361,-14.419121 c 1.2435,-14.833731 -11.33509,-0.753714 0,0 z M -244.33231,11.7503 c -0.42663,-1.289815 -0.87005,1.256696 0,0 z m -27.09926,-8.3314819 c -4.48656,-4.20439439 -8.64567,2.6605015 0,0 z m 49.50065,-16.0101841 c 2.64797,-3.432385 -4.75124,-0.894222 0,0 z m -7.40833,-34.06387 c -0.40792,-1.241269 -0.94209,1.156035 0,0 z M -330.48076,-91.83919 c 5.6618,-4.371825 -7.12222,1.168913 0,0 z m -143.33349,-67.05116 c -2.28838,-0.23907 0.3895,2.23428 0,0 z m -1.76389,-0.80935 c -0.42666,-1.2898 -0.87004,1.2567 0,0 z m 45.50833,-10.07498 c -0.40792,-1.24127 -0.94209,1.15603 0,0 z m 51.50556,-24.49724 c -1.84955,-1.2999 -1.84955,1.2999 0,0 z m 140.94979,258.963264 c 1.49867,-2.257768 0.78332,1.490836 0,0 z m 377.63354,-0.02438 c 0.90133,-1.265575 0.90133,1.265575 0,0 z m -380.47083,-2.116667 c 0.87006,-1.256692 0.42664,1.289809 0,0 z m 448.32263,-1.611206 c -0.69922,-2.276668 1.63136,0.07222 0,0 z m 1.23546,-8.794115 c -0.52264,-3.478788 2.71579,-0.175204 0,0 z M -194.90567,51.40894 c -0.0809,-2.771079 2.00797,2.106251 0,0 z m 409.00809,-0.500309 c 0.87003,-1.256693 0.42664,1.289804 0,0 z m -4.93889,-1.058334 c 0.90132,-1.265561 0.90131,1.265563 0,0 z m -466.19584,-2.469444 c 0.42664,-1.28981 0.87006,1.256695 0,0 z m 475.01528,-0.705556 c 2.17274,-1.335237 2.9771,1.311754 0,0 z M 47.062139,45.969738 c 0.426653,-1.289806 0.87004,1.256692 0,0 z m 69.144441,-4.938889 c 0.43813,-1.39077 1.26585,1.343084 0,0 z M -79.408694,35.054441 c 0.626866,-2.394313 1.090629,1.907075 0,0 z M 223.62742,33.819718 c 0.66943,-1.776372 1.09575,1.279402 0,0 z m 51.85833,-6.723591 c -7.14488,-3.048903 3.69657,0.690531 0,0 z m 2.29306,-1.234723 c 0.87004,-1.25669 0.42664,1.289805 0,0 z M -77.113134,24.101572 c 0.530716,-0.754758 0.907125,1.372423 0,0 z M 263.49131,17.04196 c 1.7948,-2.443725 5.06941,1.045665 0,0 z m 2.38329,-3.614561 c 5.97083,-6.2756591 -0.0888,5.436439 0,0 z m 2.46006,-0.831921 c -1.39695,-0.741366 -0.32964,0.794942 0,0 z m 14.20665,-0.139629 c 1.37695,-1.288753 1.37695,1.288753 0,0 z M 12.137139,-0.59692889 c 0.729216,-1.69489881 2.438141,1.41932437 0,0 z M -219.81425,-1.6552622 c 0.87006,-1.2566948 0.42664,1.28980942 0,0 z M 27.008486,-1.9198456 c 0.485676,-1.0323773 2.969409,0.8172008 0,0 z m 88.517234,-0.4010025 c 0.22211,-2.3572863 2.66964,1.5214104 0,0 z m 1.75684,-3.175e-4 c 4.32365,-2.5764837 0.58561,1.62962176 0,0 z m -337.21538,-0.6858705 c 0.32017,-2.2318958 1.52188,0.9357837 0,0 z m 241.11631,0.3321403 c -0.797359,-1.8871928 2.837124,1.4938827 0,0 z m -236.05885,-1.4498109 c 0.90422,-1.3066398 1.35615,1.2647737 0,0 z m 154.516666,-0.033161 c 1.861429,-1.0865438 1.865446,0.6053929 0,0 z M -217.69758,-4.4774844 c 1.3125,-1.3247493 1.92814,1.2914957 0,0 z m -4.93889,-1.7463559 c -3.87142,-6.2497117 2.11762,0.9203159 0,0 z M 95.055792,-6.5684689 c 1.312718,-1.7716384 6.028048,-0.1416609 0,0 z m -2.185706,-0.54356 c -1.198948,-3.3796571 1.468337,1.2888509 0,0 z m -6.23069,-0.7682794 c -0.285858,-2.1242997 2.729986,0.5001521 0,0 z M 85.514917,-8.35804 c 0.426652,-1.2898046 0.870038,1.2566912 0,0 z m -3.797406,-0.7534275 c 1.008629,-2.7455485 5.531727,1.8792791 0,0 z M 266.31353,-14.666412 c 0.58211,-1.647002 1.22433,0.608176 0,0 z m -2.46945,-2.469445 c 0.58213,-1.647012 1.22434,0.60818 0,0 z m -495.43581,-4.086154 c -5.88764,-9.673021 -3.5142,-6.616694 1.23796,-2.181681 -0.53043,0.378128 0.16616,3.618455 -1.23796,2.181681 z m 517.30804,-2.305473 c 1.05481,-3.365307 1.05482,3.365304 0,0 z m -515.23195,-0.352778 c 0.87006,-1.256695 0.42664,1.28981 0,0 z m 164.570834,-0.508353 c 0.669437,-1.776369 1.095758,1.279397 0,0 z m -166.158334,-0.570794 c 1.01607,-0.672266 0.82329,1.211703 0,0 z m 517.87778,-0.4838 c 2.38208,-1.962665 2.00982,1.693553 0,0 z m -24.34167,-1.964831 c 0.90133,-1.265575 0.90133,1.265575 0,0 z m -325.966664,-0.352778 c 0.901327,-1.265575 0.901327,1.265575 0,0 z M -120.04428,-31.1768 c 1.5464,-0.505353 0.1529,0.679217 0,0 z m -118.11441,-0.464573 c -0.22215,-1.080905 1.77761,0.714898 0,0 z m 112.53611,-1.058334 c 0.94843,-1.505759 4.29571,1.120353 0,0 z m 207.241701,-0.328118 c 4.901054,-0.756159 0.880109,1.033893 0,0 z m -216.605841,-0.40252 c 2.46431,-3.120059 1.39741,1.597533 0,0 z m 220.964658,0.136878 c 1.546415,-0.505357 0.152906,0.67922 0,0 z m -325.393028,-0.381776 c -1.33544,-4.322972 2.59357,-0.138735 0,0 z m 136.1939,-1.846686 c 0.88182,-1.667748 1.44406,1.186775 0,0 z m 258.08477,-0.558553 c 0.50925,-0.939586 0.1572,1.521037 0,0 z m -394.43339,-1.049761 c 1.09576,-1.279398 0.66944,1.77637 0,0 z m 392.80536,-1.587253 c 0.89491,-1.020763 5.20324,0.202278 0,0 z m -398.27341,-7.387766 c 1.26586,-1.343093 0.4381,1.390777 0,0 z m -1.5875,-1.5875 c 1.29958,-3.083731 1.29959,3.083729 0,0 z m 547.33472,-0.529167 c 0.87004,-1.25669 0.42667,1.289804 0,0 z m -387.66062,-0.637364 c -0.96945,-14.880063 0.997818,-27.483108 -11.066415,-38.326201 -3.486705,-12.762171 -2.665965,-24.799536 4.497917,-34.040526 3.495823,-8.19144 6.382303,-19.05953 1.623236,-30.73012 -1.70947,-10.50695 -2.298291,-35.70416 -12.735728,-37.72959 -10.67882,5.9749 -1.95638,28.17895 -15.49337,28.36087 -12.40798,-9.28605 -10.49724,-21.95393 -5.4876,-36.62666 6.5942,-6.50922 -25.28842,-11.83844 -14.99171,-32.41294 0.71486,-21.85133 11.74706,-49.43033 -8.13874,-66.94241 -5.21466,-14.25193 -20.38052,-18.13891 -31.73642,-24.31775 -9.75332,-16.73232 -30.30842,-34.01144 -20.45223,-55.82159 1.01223,-15.27115 -1.32002,-33.65574 -14.08831,-42.68733 -33.00621,-6.38825 21.0809,-10.34609 17.0901,9.69698 6.23434,14.98574 2.85447,29.32303 11.63049,6.62988 12.95013,-5.28959 17.76526,15.40582 28.22222,20.79857 6.27435,5.85777 25.60614,13.97031 5.80619,13.38193 -10.60539,-4.61402 -17.93302,-18.97371 -29.23523,-25.41444 -12.33363,21.06665 4.48834,46.44333 14.29796,63.27349 -13.22769,3.14288 -20.30326,-21.30354 -23.711,-33.10342 -10.47435,-11.57627 1.68205,24.77834 8.79719,30.19299 4.99734,13.16252 20.41876,10.0985 29.07193,20.46655 12.45733,8.63247 22.01833,32.50586 25.80856,40.82858 -1.17765,20.98926 -10.25263,43.66337 -0.49439,63.11777 11.02288,13.88574 6.88396,-26.65211 23.16484,-11.87679 7.310492,23.41637 22.148297,44.60075 20.986496,71.05223 9.367406,17.91494 -2.430222,30.20073 -6.97992,47.5325 -4.876933,13.806143 7.999687,18.504267 12.21737,25.04701 -19.999385,13.13115 8.684019,11.219085 7.448021,23.529185 -3.825052,10.653124 -10.473728,0.142849 -16.051457,6.121232 z m 3.434504,-2.743235 c 3.090594,-4.001483 -3.646041,-0.877986 0,0 z M -119.27258,-177.40495 c -0.46362,-12.78602 24.002356,-24.23302 6.61825,-32.54611 -2.13589,9.90445 -12.43061,24.61087 -6.61825,32.54611 z m 1.43894,-17.42553 c 0.50925,-0.93959 0.1572,1.52104 0,0 z m -57.53061,-150.05674 c -0.66943,-1.77639 -1.09577,1.27939 0,0 z m -24.34167,-8.13471 c -0.90421,-1.30667 -1.35618,1.2648 0,0 z m -1.41111,-20.2639 c -0.82326,-1.21171 -1.01607,0.67225 0,0 z m -46.21389,323.631976 c 1.09063,-1.907077 0.62687,2.394313 0,0 z m 548.92223,0.136102 c 1.96077,-2.399117 3.40237,1.425559 0,0 z m 2.99861,-0.820844 c 0.87004,-1.25669 0.42664,1.289805 0,0 z m -554.39028,-2.822222 c 0.36051,-2.52145 1.32286,2.494351 0,0 z m -0.44606,-1.622001 c -2.2364,-3.897271 2.12758,-1.257321 0,0 z m -2.28797,-3.576814 c -3.0661,-3.177309 3.547,-1.228181 0,0 z m 507.79423,-1.033604 c -0.47477,-2.111301 2.11129,0.474765 0,0 z M -255.98848,-68.7065 c -0.79605,-1.688436 2.4432,0.998173 0,0 z m 183.015687,-2.534179 c -3.680585,-16.518086 47.087518,-26.93501 42.375349,-11.553472 -17.601785,-2.129695 -26.556988,9.675009 -42.375349,11.553472 z m 392.037603,-1.426316 c -0.96189,-2.247357 1.36872,0.494224 0,0 z m -396.145947,-6.506104 c -0.555817,-1.875427 2.710446,0.159508 0,0 z m 399.968367,-0.626815 c -5.62677,1.613164 -10.04318,-10.395583 -18.69101,-10.900698 -9.65307,0.988953 -18.99015,-14.866828 -5.29301,-18.744308 9.4863,-4.14909 34.8353,13.753738 24.56032,18.189732 -8.67961,-11.029832 -33.88684,-12.449142 -10.1236,-4.051386 6.19066,2.833425 11.81563,12.271144 9.5473,15.50666 z m 2.24465,-11.674052 c -1.39692,-0.741371 -0.32965,0.794953 0,0 z m -397.837797,10.599279 c 0.407913,-1.241266 0.942098,1.156035 0,0 z m 1.372588,-6.536867 c -18.060008,0.921103 -13.76815,-37.337686 1.430586,-23.860266 -12.582582,19.072017 14.374533,7.39228 9.807786,19.365098 -1.716105,4.06715 -7.007773,6.41332 -11.238372,4.495168 z m -16.542032,-5.613153 c 0.901329,-1.265571 0.901324,1.265572 0,0 z m 421.437891,-6.536796 c 1.1143,-2.660547 2.66423,-0.08788 0,0 z m -70.60039,-10.396537 c 0.90423,-1.30666 1.35615,1.26479 0,0 z m -361.706337,-6.7909 c 2.150028,-1.97425 0.519835,2.03553 0,0 z m 107.1771692,-4.14521 c 0.9013272,-1.26558 0.9013272,1.26558 0,0 z M -98.43086,-121.4527 c 0.509213,-0.93959 0.157287,1.52101 0,0 z m 108.873007,-0.16715 c 0.256962,-2.20743 1.073579,2.63921 0,0 z m 317.783883,0.0201 c 0.42666,-1.28979 0.87002,1.2567 0,0 z m -426.331947,-1.05833 c 0.901328,-1.26558 0.901328,1.26558 0,0 z m 0.790399,-1.75909 c -0.07308,-2.05563 2.23885,1.71926 0,0 z m 1.523541,-1.27067 c 0.994502,-3.96088 2.060049,3.01902 0,0 z m 42.516672,0.67042 c -22.870614,-12.32288 14.599256,-30.46611 6.468044,-4.07885 -2.603165,1.02446 -4.446122,3.8275 -6.468044,4.07885 z m 56.9249986,-0.96972 c 0.862081,-2.5264 2.2660324,2.40591 0,0 z m -97.1694996,-1.25705 c 1.35616,-1.26479 0.904235,1.30666 0,0 z m 54.504167,-1.1527 c -8.513826,-18.00079 27.618684,0.68193 2.088056,1.24089 z m -56.532427,-0.0375 c 2.045664,-3.39375 0.236192,3.97048 0,0 z m 94.4560382,-3.21948 c -1.1884392,-2.28166 2.01363735,1.45848 0,0 z m -93.4505162,-0.30988 c -0.862373,-4.98424 2.504502,1.44451 0,0 z M -1.533,-133.62241 c -9.432991,-19.39424 3.3324789,1.20663 0,0 z m -92.339583,-3.12593 c 0.669441,-1.77637 1.095751,1.27942 0,0 z m 1.438945,-0.22659 c 0.509219,-0.93956 0.15728,1.52101 0,0 z m -1.086168,-2.61644 c 0.901303,-1.26557 0.901354,1.26556 0,0 z m -312.561114,-0.52917 c 0.87466,-1.85879 0.87466,1.85879 0,0 z m 311.590976,-1.82114 c -1.77763,-3.26821 2.814475,1.30937 0,0 z m 105.201473,-2.61204 c -0.7608883,-1.25018 0.993739,0.0105 0,0 z m -106.348001,-3.35732 c 2.17837,-0.88573 0.167569,1.69962 0,0 z m -0.881945,-3.67478 c 0.426652,-1.28981 0.870041,1.2567 0,0 z m -295.451393,-1.05833 c 0.90133,-1.26558 0.90133,1.26558 0,0 z m 294.758644,-0.0845 c -1.872003,-2.5956 5.235372,1.6141 0,0 z m -0.84515,-4.97099 c 0.03308,-1.37007 2.458808,0.87429 0,0 z m 2.447678,-0.0891 c 0.509224,-0.93956 0.157275,1.52104 0,0 z m 425.802778,-0.35277 c 0.50925,-0.93959 0.15719,1.52105 0,0 z m -429.005612,-2.26367 c 0.250065,-2.45546 0.804969,2.45661 0,0 z m 456.354352,-1.316 c -8.25504,-5.84207 -10.74589,-15.11641 -16.99059,-21.98473 -13.82671,-12.10179 -0.20957,-9.46631 7.6102,-1.03247 0.32836,8.28946 11.08226,10.9026 11.86441,21.32552 l -2.48398,1.69168 z m -357.92935222,-1.859 c 0.90132717,-1.26558 0.90132717,1.26558 0,0 z M -388.44203,-173.81082 c 0.90133,-1.26558 0.90133,1.26558 0,0 z m 388.40833556,-1.43192 c 1.01606899,-0.67228 0.82328107,1.2117 0,0 z m -2.11666666,-4.01532 c 0.6694341,-1.77636 1.0957594,1.27938 0,0 z m -103.5402789,-4.07776 c 0.87004,-1.2567 0.42667,1.28981 0,0 z m 1.05833,0 c 0.42666,-1.28981 0.87004,1.2567 0,0 z m -267.29531,-3.41598 c 1.54644,-0.5053 0.15284,0.67926 0,0 z m 369.7772589,-1.65612 c 2.65540341,-3.8953 0.5738977,1.80562 0,0 z m 362.4791711,0.13321 c 0.42666,-1.28979 0.87002,1.2567 0,0 z M 5.2579722,-188.9544 c -1.8231141,-1.70592 1.397216,0.64628 0,0 z m 19.7555558,-27.21057 c 1.016096,-0.67225 0.823246,1.21171 0,0 z m 0.529166,-1.03751 c 0.901303,-1.26557 0.901354,1.26556 0,0 z m -494.691034,-3.37739 c 1.67638,-1.78361 0.39727,0.9793 0,0 z m 888.56742,-25.53932 c 1.41395,-0.62621 1.37728,1.15026 0,0 z m 17.28611,-0.0109 c 0.90424,-1.30665 1.35616,1.26478 0,0 z m -2.98908,-0.69014 c -3.95244,-1.10454 2.24881,0.12493 0,0 z m -527.993823,-10.62122 c -10.845857,-2.95867 -20.433367,-27.3046 -1.164061,-19.8038 4.042583,3.55334 11.960067,19.9295 1.164061,19.8038 z m 61.901281,-1.22033 c -14.899713,-7.46029 2.289954,-37.91412 13.848892,-18.31157 5.283125,8.49321 -4.055457,22.4185 -13.848892,18.31157 z m 11.417053,-3.05668 c -0.679161,0.15301 0.505452,1.54638 0,0 z m -5.510494,-5.78139 c 2.69878,-10.21399 -6.099781,1.67998 0,0 z m -78.235947,3.81906 c -2.7442,-3.08971 4.02471,2.04423 0,0 z m 65.808891,-1.67569 c -1.165023,-1.10261 2.293888,-5.41925 0,0 z m 390.935459,-29.78905 c 0.66943,-1.77636 1.09575,1.27938 0,0 z m -519.11077,-12.83272 c -0.78719,-2.55098 1.50387,0.16564 0,0 z m 49.34034,-2.72761 c -10.49983,-12.89353 -19.03508,-40.16103 0.83055,-48.14622 13.32159,1.63092 26.291129,22.77736 15.06311,31.35401 -4.91071,-6.87013 -3.62504,-22.22322 -15.63038,-23.37089 -9.47733,11.04113 -2.2956,25.91532 6.83634,34.44268 0.7376,5.70523 -3.56049,3.4582 -7.09962,5.72042 z m 81.371584,-8.89034 c -11.036411,-0.32242 -4.033531,-18.85472 1.372014,-24.41344 8.022352,-9.72945 24.095326,-9.08255 26.4529716,5.0989 4.1191911,19.23719 -13.9510406,24.63844 -7.8990476,2.13606 -4.558367,-14.27057 -20.904315,0.44778 -17.294719,10.97463 -0.41386,1.84998 -0.206749,5.39636 -2.631219,6.20385 z m 67.381755,-17.84439 c -5.197067,-23.76054 27.957953,-38.52854 28.008404,-59.66747 -5.897722,-8.13502 -16.063611,-11.96904 -22.237771,-19.73387 -5.798476,15.34575 -8.968065,31.56701 -10.350675,48.29779 -18.1591696,5.01662 1.308807,-29.91498 -0.36957,-39.47882 4.082154,-10.69896 8.034577,-27.60006 22.016904,-27.00301 2.035093,10.22604 -3.313623,24.55747 14.671855,27.69948 17.037044,17.61272 -9.138347,31.11536 -16.69129,46.1581 -8.497282,4.31106 -6.34543,24.93629 -15.047857,23.7278 z m -161.406519,-31.60277 c -8.77805,-5.64992 7.0017,-20.93849 10.75972,-25.60632 13.35615,-9.97128 22.447375,-36.90042 42.862499,-29.77819 5.774143,12.09048 -0.02817,37.20894 20.322501,14.60879 20.633606,-18.77114 34.492141,4.06927 18.148369,19.84375 -14.431548,16.93676 7.716746,5.78666 17.914162,6.26128 10.257035,-7.53841 16.2264907,2.40225 23.1163987,10.23111 -0.3792463,9.34541 -19.1926137,-7.50293 -15.1195617,-3.81735 -10.407605,1.77855 -17.044276,-0.60822 -27.11136,3.8457 -29.718732,0.6675 -1.94188,-17.98737 -0.58868,-31.07256 -6.787016,-9.68685 -19.379557,13.56421 -29.665719,13.42058 -19.703478,1.8657 -6.740333,-19.0701 -15.31084,-25.76775 -13.602792,3.89535 -23.602369,19.55555 -33.305749,29.7504 -4.15468,5.80273 -6.11271,14.07197 -12.02174,18.08056 z m 94.015274,-5.49798 c -0.870021,-1.2567 -0.426675,1.28979 0,0 z m -108.071074,-5.64718 c -23.11554,-19.57323 -37.3652,-55.30399 -69.86093,-59.82871 -17.24935,15.45789 -21.74899,1.66598 -0.0444,-7.99098 27.41526,2.11419 44.10771,27.61497 59.40195,47.44951 0.10245,5.77996 16.29957,16.64281 10.50336,20.37018 z m -31.9817,-45.66117 c -0.82328,-1.21172 -1.01608,0.67225 0,0 z m 128.05833,30.61565 c 1.150709,-2.28308 1.958875,-0.83222 0,0 z m 5.024896,-4.5889 c -1.31358,-1.20004 2.353462,-0.0493 0,0 z m -40.302674,-3.46979 c 0.342518,-1.96919 1.351643,1.92729 0,0 z m -99.808272,-9.90718 c 0.50924,-0.93953 0.15716,1.52103 0,0 z m 246.21105,-8.61366 c 0.901354,-1.26556 0.901303,1.26557 0,0 z" /></g></svg>
