<?xml version="1.0" encoding="UTF-8" standalone="no"?>
<!-- Created with Inkscape (http://www.inkscape.org/) -->

<svg
   width="210mm"
   height="297mm"
   viewBox="0 0 210 297"
   version="1.1"
   id="svg5"
   xml:space="preserve"
   inkscape:version="1.2.1 (9c6d41e, 2022-07-14)"
   sodipodi:docname="lion man.svg"
   xmlns:inkscape="http://www.inkscape.org/namespaces/inkscape"
   xmlns:sodipodi="http://sodipodi.sourceforge.net/DTD/sodipodi-0.dtd"
   xmlns="http://www.w3.org/2000/svg"
   xmlns:svg="http://www.w3.org/2000/svg"><sodipodi:namedview
     id="namedview7"
     pagecolor="#ffffff"
     bordercolor="#666666"
     borderopacity="1.0"
     inkscape:showpageshadow="2"
     inkscape:pageopacity="0.0"
     inkscape:pagecheckerboard="0"
     inkscape:deskcolor="#d1d1d1"
     inkscape:document-units="mm"
     showgrid="false"
     inkscape:zoom="0.08086703"
     inkscape:cx="30.914948"
     inkscape:cy="-494.63916"
     inkscape:window-width="911"
     inkscape:window-height="686"
     inkscape:window-x="1645"
     inkscape:window-y="722"
     inkscape:window-maximized="0"
     inkscape:current-layer="layer1" /><defs
     id="defs2" /><g
     inkscape:label="Layer 1"
     inkscape:groupmode="layer"
     id="layer1"><path
       id="path306"
       style="fill:#000000;stroke-width:0.352778"
       d="m -80.290624,481.98768 c 8.779071,-1.35758 22.642105,0.90666 27.674711,-2.82783 24.102202,0.11648 -2.349805,-28.18363 -9.578411,-36.84351 -12.611246,-14.55846 -45.532586,-18.84379 -51.965266,3.3044 -8.36548,10.75221 -7.87724,28.31982 7.57526,31.24214 8.466473,5.45633 16.638569,2.35208 26.293706,5.1248 z m -18.1864,-2.48637 c 0.901302,-1.26557 0.901353,1.26556 0,0 z m 140.052777,-8.07463 c 15.60801,-4.81395 36.332174,2.54596 50.59546,-5.99125 20.228597,2.42894 12.349827,-13.21985 -0.148237,-18.54264 -7.705691,-10.95707 -23.52002,-17.32977 -35.759285,-12.41855 -14.624845,6.48486 -28.606554,19.92299 -31.228337,36.32781 6.349866,-1.48573 10.325641,-1.56363 16.540399,0.62463 z m 55.738889,-8.15315 c 0.901328,-1.26558 0.901328,1.26558 0,0 z m -85.372222,7.40833 c 7.775968,-11.74122 13.624045,-26.095 25.929167,-34.9245 23.81575,-15.62294 -17.694928,-9.59316 -27.453661,-6.69785 -5.5919946,4.20053 -6.6163998,1.79891 -19.9387529,8.61289 -7.7645911,6.76824 -4.1260521,19.5625 2.2216886,26.48335 5.831591,2.80661 12.9180726,2.92248 18.9095943,6.87891 l 0.331964,-0.35278 z m -13.5027106,-6.56477 c 1.22236692,-6.52476 1.98995,-18.10964 5.7416,-24.83245 -1.8689436,4.20304 -0.1711421,8.82528 -1.5059033,12.34722 -5.3449944,1.22626 2.5608824,13.21615 -4.2356967,12.48523 z m 2.9193773,-3.95975 c 1.0669144,-2.17175 1.6170392,1.34044 0,0 z m 3.8805555,-21.43962 c -2.9771489,-1.92275 2.9493042,0.48857 0,0 z m 0.4293306,-4.05221 c 1.92371,-4.04285 -0.2278556,6.00823 0,0 z M -34.415402,470.0591 c -1.40235,-10.00165 9.91563,-10.97113 2.87796,-14.23566 -1.127866,-9.43861 6.995487,-2.59451 4.821873,-15.66884 -6.358206,-18.31917 -1.16548,19.29778 -11.512273,22.58977 0.773334,2.24967 -0.08407,8.18801 3.81244,7.31473 z m 3.318933,-1.88831 c -1.224331,-0.60818 -0.58213,1.647 0,0 z m 149.930559,-4.89726 c -0.90133,-1.26558 -0.90133,1.26558 0,0 z m -148.812359,-0.52508 c 4.161982,-1.33 -5.24989,-3.84203 0,0 z m -1.935551,-0.5994 c -0.679161,0.15301 0.505452,1.54638 0,0 z m 4.697907,-5.95189 c -1.095752,-1.27942 -0.669442,1.77637 0,0 z m -1.283547,-1.21391 c 3.544514,-1.87134 -2.668343,-0.075 0,0 z m -14.604294,-4.57066 c 8.565852,-29.79923 6.76366,-60.77587 5.106252,-91.50234 -1.469466,-23.01112 -33.941274,-5.11271 -48.050455,-17.57203 -11.80998,-1.42387 -38.721893,-18.27544 -42.273223,-0.47859 -0.89971,25.70265 -2.92629,54.59987 8.47669,77.10799 7.92459,13.81182 12.61514,4.69393 27.344157,3.79882 7.241008,-1.27365 17.301749,1.17304 25.067754,6.2567 11.65891,1.89347 16.480361,17.67511 24.328825,22.38945 z m 26.118396,-18.18351 c -2.23936,-7.79165 6.974985,-3.6503 13.8640621,-11.87354 7.2221938,-0.13036 19.7723789,-3.52577 21.4137169,-3.6439 17.784973,1.02705 37.311445,-4.54719 53.671223,1.99679 8.956797,-7.24822 10.037712,-25.38915 11.587268,-37.27956 -5.170881,11.98522 -4.426541,12.32819 -8.814047,19.9113 -2.063987,5.00957 -1.10584,16.08684 -4.746725,12.22361 3.477361,-19.05613 14.71863,-37.25291 15.138684,-57.00557 -5.292367,-10.08151 8.183389,-43.96242 -9.686502,-39.31281 -8.771393,3.50955 -15.861038,5.42001 -21.50805,11.29209 -6.908129,5.85952 -7.713735,7.9128 -15.962383,12.24178 -8.407783,-0.52873 -10.397079,4.46665 -18.797622,3.67548 -8.338608,6.32442 -34.990567,-1.8899 -36.878472,11.76632 -3.778287,20.4042 -1.103676,40.2278 -2.518944,60.53691 1.011339,4.83252 1.530758,11.37843 3.237791,15.4711 z m 1.791723,-5.85022 c 0.50922,-0.93956 0.157283,1.52101 0,0 z m -1.268553,-0.86226 c 2.152531,-2.41863 1.08452,0.89425 0,0 z m 66.328219,-12.33752 c 0.426675,-1.28979 0.870023,1.2567 0,0 z m 25.738279,-9.54846 c -0.796068,-1.68843 2.443211,0.99818 0,0 z M 18.29242,346.15131 c 0.901303,-1.26557 0.901354,1.26556 0,0 z m 1.763889,-0.68475 c 0.04123,-1.52633 1.075979,0.32088 0,0 z m 1.411111,-0.3944 c 1.01605,-0.67228 0.823309,1.21172 0,0 z m 62.794444,33.37913 c -0.823247,-1.21171 -1.016097,0.67225 0,0 z m 1.411112,-2.52801 c -1.413925,-0.62621 -1.377297,1.15024 0,0 z m -2.116667,-0.86501 c -1.09576,-1.27938 -0.669435,1.77636 0,0 z M -28.898522,359.14425 c -1.101934,1.46192 0.541533,2.32706 0,0 z m 0.323038,-9.138 c -1.707272,-11.64156 -6.228801,8.37635 0,0 z M 7.17992,346.15131 c -0.5006059,-1.31561 -2.654666,1.13973 0,0 z m 6.173611,-0.50836 c -0.82328,-1.2117 -1.016068,0.67228 0,0 z m 2.116667,-3.36112 c -1.413925,-0.62621 -1.377297,1.15024 0,0 z m 9.081135,-1.51162 c 19.201713,-2.68885 29.990877,-17.64374 5.149673,-3.43835 -1.120488,1.65424 -12.894932,4.61872 -5.149673,3.43835 z m -76.131385,-2.24529 c 23.274501,-0.76228 47.9741384,3.16819 69.664862,-6.82562 17.360386,-5.18559 33.685661,-14.68364 49.596499,-23.65121 14.213554,-13.98845 22.694211,-34.17268 21.766316,-53.808 -6.410718,-5.6096 -7.76012,-14.10759 -7.600418,-22.38879 -2.611338,-4.90419 -0.03495,-14.82339 -4.31238,-16.27941 -2.989992,-9.27026 -1.376905,-19.9384 -4.723357,-22.87894 -1.013486,-10.34284 -8.293587,-17.18945 -9.241508,-25.82986 -7.604079,-2.49892 -1.459963,-10.0649 -16.192429,-8.06778 0.516436,6.25044 4.266901,20.9787 6.579446,30.80985 3.617551,17.24138 5.33734,34.63305 6.316096,52.12457 0.70083,11.80176 2.185401,24.6903 -5.237832,34.65975 -0.193679,9.48909 -9.390657,14.88282 -16.370618,13.127 -1.711082,-0.31706 -23.172947,13.29603 -34.6501154,9.64544 -27.2502666,3.83554 -56.3511106,8.42303 -84.1042686,2.8659 -12.490236,-15.08951 -32.828031,-3.43713 -43.942991,-19.36698 -10.35954,-9.93189 -17.12994,-24.94065 -21.26071,-38.43303 -1.43927,-22.89916 1.77889,-47.00971 11.34642,-67.70782 -10.95474,2.00798 -31.50483,-15.06463 -31.91051,3.44868 -5.30462,13.55813 -10.78112,28.42549 -9.36396,42.35757 -0.74725,29.01111 4.88109,59.31292 18.94307,84.58982 9.04337,11.68796 25.90635,11.69261 38.27017,15.43652 14.86557,1.96475 27.463165,6.47068 40.697932,12.11714 8.055625,1.72911 17.253787,4.77023 25.730286,4.0552 z m 89.113925,-47.38257 c 1.424573,-1.51262 0.889262,1.61433 0,0 z m 3.336325,-0.15759 c 1.284321,-1.82764 1.515696,0.7111 0,0 z M -139.92841,189.87075 c 0.42664,-1.28981 0.87004,1.2567 0,0 z M 64.32992,175.75964 c 0.426652,-1.28981 0.870041,1.2567 0,0 z m -1.411111,-2.82222 c 0.438113,-1.39076 1.265855,1.34305 0,0 z m -3.139652,-4.97403 c -2.36326,-6.52132 4.495183,5.00705 0,0 z m -7.15518,162.436 c -1.510115,-3.21758 -3.557304,1.77782 0,0 z m -96.596835,-35.62205 c 21.920189,-1.36112 43.7116699,-4.47027 65.0875,-8.29134 5.170859,-9.20266 17.799443,-5.96223 23.49814,-16.18188 8.004804,-10.13475 4.637602,-23.14962 5.03202,-34.70797 -1.707406,-11.81334 1.504602,-28.30335 -5.563888,-37.38163 1.421918,-11.56899 -3.968359,-27.99856 -9.495173,-36.29697 -12.025145,1.63993 -58.98258,19.83661 -41.0514713,0.52485 18.0509933,-6.07066 37.5515673,-8.57563 56.1323113,-13.47071 17.261292,-3.23826 37.20376,-0.184 51.889719,-5.403 -1.43772,-5.63344 1.28624,-17.27955 -1.41913,-21.56358 -5.398055,4.55795 -4.939551,8.46918 -6.886647,12.8202 -11.868221,2.80615 16.090707,-21.78492 4.75234,-17.30147 C 104.92781,114.2627 97.231499,99.499114 94.849643,90.119478 88.566111,70.184687 93.163677,48.498871 86.57394,28.525289 85.358045,13.532256 87.96428,-2.0081049 81.679034,-15.925276 74.096268,-2.0194077 33.592912,-17.927599 47.785419,-0.00373972 41.606289,3.2185456 37.526915,10.641878 44.3101,18.588849 49.909007,29.022488 55.051872,40.238626 54.574023,52.063438 59.41572,65.753287 52.591011,77.889737 63.860698,87.672792 63.619586,102.78378 41.894077,106.89784 27.81778,110.10572 c -13.686545,-2.68828 -22.2098728,9.74907 -34.690266,11.04497 0.2275806,9.32913 2.2219527,17.13567 2.5896049,24.25023 -3.5377876,22.89604 -26.9212719,38.16303 -49.7511209,36.18627 -20.598319,4.38715 -43.631815,1.26021 -60.743358,-7.11514 -5.31843,-0.39649 -15.22771,16.1473 -17.42243,26.40052 -2.73723,15.92143 -7.58644,33.06113 -0.58134,48.68555 2.44055,12.47307 12.73523,22.76779 21.38377,30.50304 13.092932,4.29825 29.809349,-2.45674 38.48008,10.79784 -2.918048,6.52054 23.122364,3.55572 28.944422,3.91834 z m 90.899686,-81.93931 c -0.616092,-4.12134 2.003429,1.2422 0,0 z m -1.593744,-2.31849 c 0.05636,-2.37222 1.062393,1.8233 0,0 z m -0.582331,-7.41962 c 0.912131,-1.97999 1.711744,1.90429 0,0 z m -2.808957,-10.02817 c -1.998486,-5.31263 3.861319,3.7782 0,0 z m -2.430287,-7.23117 c -0.541795,-7.17977 3.285157,1.62105 0,0 z m -1.304078,-4.70108 c -0.607201,-5.40493 1.301246,3.43695 0,0 z m -2.342268,-5.62084 c 1.546452,-0.50531 0.152846,0.67926 0,0 z m -1.851448,-6.5652 c 0.760526,-1.57484 0.384201,0.88805 0,0 z m -2.242714,-3.65368 c 0.435263,-3.32477 1.250334,1.75485 0,0 z m 48.788037,-19.87755 c 7.235951,-16.09659 9.618071,-0.0936 4.506992,-3.26467 1.445661,2.43412 -4.588703,3.49654 -4.506992,3.26467 z m 9.373341,-7.20203 c -0.496067,-2.71319 3.409882,1.19294 0,0 z m -94.5705146,-0.91334 c 0.9013272,-1.26558 0.9013272,1.26558 0,0 z M 96.326935,132.70272 c -1.212179,-3.03265 2.679717,1.51567 0,0 z m 0.885508,-5.27364 c 0.657725,-2.44424 0.657699,2.44427 0,0 z m -0.603356,-6.497 c 1.186288,-3.09653 1.242796,2.79054 0,0 z M 3.9904208,119.99729 c -0.8918324,-1.80005 3.4208283,1.27032 0,0 z m 95.4303752,-7.01245 c 2.116304,-2.47569 0.148476,2.47874 0,0 z M 57.355433,70.958251 c 0.988008,-2.218514 0.971683,1.85741 0,0 z m -2.16849,-19.329047 c -0.829517,-1.752929 1.289918,0.50714 0,0 z M 27.288253,280.88742 c -0.426632,-1.2898 -0.870054,1.25667 0,0 z m 62.965436,-33.95486 c -3.70165,-3.67075 -0.300747,4.93244 0,0 z m -1.582102,-1.32292 c -0.901328,-1.26558 -0.901328,1.26558 0,0 z m -0.176389,-1.41111 c -2.137711,-2.57341 0.835945,2.46253 0,0 z m -0.120685,-1.95824 c -0.600429,-6.71041 -2.760017,0.66865 0,0 z m -5.52376,-3.68621 c -0.901353,-1.26556 -0.901302,1.26557 0,0 z m 0,-1.76389 c -0.426675,-1.28979 -0.870021,1.2567 0,0 z m 4.7625,-1.83793 c -2.039826,-5.90116 -0.800409,6.1978 0,0 z m -0.762882,-3.31093 c -0.766092,-18.4397 -6.259904,-10.5933 0,0 z m -5.891106,-20.07637 c -3.862945,-1.71273 2.431428,4.68004 0,0 z m -23.267529,1.1702 c -0.679161,0.15301 0.505452,1.54638 0,0 z m 21.190444,-3.9026 c -0.596652,-2.05838 -1.929161,1.11442 0,0 z m 1.675518,-0.6083 c -2.844955,-5.08997 -0.692076,3.50037 0,0 z m -2.784475,-1.27264 c -0.06326,-3.092 -1.795521,1.42958 0,0 z m 1.549753,-3.2167 c -1.161894,-2.14942 -0.11811,3.014 0,0 z m -1.058334,-6.80861 c -0.56985,-2.77811 -1.948073,1.86694 0,0 z m -1.26051,-4.11696 c -0.642435,-3.07194 -1.566361,2.094 0,0 z m 0.554955,-2.23304 c -0.901303,-1.26557 -0.901354,1.26556 0,0 z m -0.420899,-1.9944 c -2.247034,-10.91273 -10.187861,-18.93989 -10.098296,-30.74539 -13.17446,-2.8323 1.986564,10.20564 2.49361,16.77659 2.36485,3.68134 4.285554,14.81179 7.604686,13.9688 z M -60.6197,173.12936 c 16.75969,-1.07693 39.425208,-4.38905 45.682676,-22.44313 0.198676,-14.46432 3.45223,-32.35045 -15.718473,-33.57699 -6.948381,-2.67049 -25.124018,-5.66685 -20.601901,-4.62919 -17.735588,-2.02175 -35.572008,4.8549 -50.680272,13.11402 -9.2541,5.42979 -13.53185,19.05978 -12.61498,28.86203 2.70014,11.38123 9.10415,8.46994 12.22894,14.55017 13.806015,2.10225 27.623229,5.91252 41.70401,4.12309 z m -56.212,-2.3224 c -2.6735,-1.37969 1.42092,1.78592 0,0 z m -9.04508,-3.53156 c 11.75597,0.77279 -5.54311,-19.6149 2.03616,-28.06575 14.20424,-17.89212 -12.36326,-15.47271 -24.36336,-16.50509 -10.00111,-3.17506 -25.02659,-6.40479 -27.85255,-16.50418 10.49565,-6.896027 16.68708,-19.452993 21.19147,-31.617393 6.85542,-14.083204 6.07189,-32.091067 9.45763,-48.171347 13.78014,-6.532365 15.71669,-14.310421 -4.92767,-14.438915 -10.73701,-2.6746397 -18.93462,-27.408748 -25.26887,-6.5703805 -1.38592,22.8393605 -5.8215,45.0421325 -15.36769,65.9350485 0.57529,12.34307 -11.42355,22.745615 -15.6312,34.446247 -1.55377,7.33806 -12.93644,15.70778 -9.544,22.32025 4.60953,11.18218 12.0084,17.61318 25.81495,21.55017 7.33491,0.69087 22.12517,5.10753 31.35405,11.64167 10.81128,2.22132 21.96688,7.02213 33.10108,5.97967 z m -5.49677,-1.76586 c 0.48463,-6.34559 8.3004,2.16469 0,0 z m -24.95903,-97.699901 c 0.87004,-1.25669 0.42667,1.289804 0,0 z m 4.24042,-14.296037 c 1.66002,-1.617627 -0.66084,1.796274 0,0 z m 47.98653,61.765148 c 14.86461,-5.93422 29.702395,-10.04375 45.570247,-12.73648 19.217992,-0.0357 36.526463,12.61556 55.3676252,6.68205 C 14.970053,108.96229 20.516479,96.5189 12.893403,80.728241 13.083692,65.043045 3.8777395,53.749815 1.0250061,39.069856 -3.2550647,28.270257 -21.866889,14.818004 -19.405489,33.477482 c -10.43373,21.44051 -43.01449,18.086958 -62.667444,17.798662 -18.110727,-3.24079 -39.569437,-15.293972 -50.578977,-22.272061 -8.67454,13.744063 -3.4692,33.177814 -12.52439,48.051297 -0.41538,9.008857 -14.78711,23.4467 -10.47803,26.92482 1.08437,13.91316 42.59798,13.92404 14.88987,3.22625 -7.32622,-8.62241 -3.45632,-13.942916 1.4313,-1.03825 16.7861,12.38584 17.93955,-9.169392 26.03955,-20.896081 8.66457,-11.007262 11.83935,-26.888062 22.954187,-35.27238 10.356965,5.701454 -6.542617,18.581016 -8.490303,27.445511 -4.764284,11.031109 -10.728014,18.789398 -14.840644,29.85317 0.3092,4.67746 3.17779,11.24112 9.56474,7.98033 z m -40.58528,-25.970481 c 1.01607,-0.67227 0.82327,1.211713 0,0 z m -3.175,-1.411111 c 1.01607,-0.67227 0.82327,1.211713 0,0 z m 1.62775,-0.177941 c -3.33716,-2.274562 2.58762,0.412108 0,0 z m 19.89169,26.473153 c -3.84928,-5.03014 -2.10008,3.16878 0,0 z M 33.367285,100.16349 C 47.134903,93.891595 52.082628,82.721972 41.399364,72.605476 34.993121,60.245398 28.520051,46.438859 30.637914,34.236377 36.370657,22.344322 20.993898,-3.594456 32.024398,4.955575 34.57829,-21.694313 18.829899,14.416734 9.6705281,17.627 c -14.8458454,3.700788 2.3568229,16.899185 2.8037369,26.322443 3.52368,8.374411 6.942177,18.967541 10.030671,27.035196 3.12651,8.597767 -0.715109,30.713391 10.862255,29.178851 z m 6.091802,-0.251073 c 18.185106,3.564453 12.886878,-18.801795 10.160179,-8.635396 -3.36429,1.077992 -3.924734,6.000372 -8.401477,5.822814 -1.100152,1.074187 -5.643102,3.808665 -1.758702,2.812582 z m 6.702777,-4.938889 c -0.426652,-1.289805 -0.870038,1.256692 0,0 z M 53.375606,70.016405 C 50.455643,54.652559 53.89459,44.399778 49.689609,37.452441 46.831232,30.080845 46.370415,27.451612 42.857115,21.486066 35.69368,8.8076891 41.080565,40.904082 41.811564,47.046567 c 0.515348,7.479216 6.450686,22.621379 11.564042,22.969838 z m 2.00226,-8.650852 c -0.803035,0.265915 1.180833,1.308846 0,0 z m 0.205846,-2.155684 c -2.855174,-0.879675 -0.166426,1.712402 0,0 z m -0.955181,-3.571063 c -2.119018,-2.12072 0.456945,2.117293 0,0 z M -62.159893,41.606893 c 28.904327,1.90446 28.017946,-13.920408 36.233418,-29.376017 C -9.8707026,20.784031 0.39734495,3.2153173 15.11742,-2.2402803 20.176167,-16.368671 34.17311,-17.939977 45.373635,-23.718609 c 10.165098,9.841272 40.190435,1.517019 25.329992,-13.782163 3.206669,-10.355618 19.660247,-16.912624 25.420496,-27.831344 12.419157,-22.167427 -24.434063,-8.780257 -12.753622,-29.518505 4.218902,-16.257309 19.117979,-25.639829 23.701229,-41.483529 2.9301,-6.661 15.38243,-26.40761 -0.87877,-24.45586 -14.732278,-1.29842 -9.397747,13.60723 -13.75463,-0.66844 4.501385,-13.99627 20.63338,-29.49552 11.77417,-44.78528 -7.434577,6.29161 -22.723598,-2.46197 -13.600571,-12.34321 2.738359,-12.42304 1.624116,-28.23099 -8.747345,-36.34617 -2.766801,-2.03114 -18.195986,3.95749 -18.029612,-7.3472 6.734,-17.06504 -5.107683,-23.23004 -17.154345,-13.66935 -8.299666,2.55546 -13.690498,16.05869 -22.214708,22.0248 -6.04301,11.22351 -15.696192,17.05983 -15.6737764,30.27835 6.1938624,4.90109 12.5771664,0.58925 18.8049254,12.16957 6.396377,8.11988 9.475799,22.87768 10.956538,33.64192 0.609149,12.69785 -7.14797,23.7945 -13.52811,34.36688 -8.946587,1.28635 -17.6975333,7.3051 -8.144369,16.3461 9.320672,16.50639 5.677163,39.751433 -5.767035,53.928114 -14.8410599,16.207662 -36.539641,21.748776 -56.700032,26.50303 -21.501547,3.837101 -39.268925,-0.187174 -60.65238,-1.631918 -15.5458,1.097637 -24.69389,-10.225662 -29.14826,-23.2162 -15.34084,-12.828331 -10.05405,-33.848256 -6.09579,-50.094156 4.64319,-12.49468 19.65674,-20.51616 -0.5999,-28.22222 -11.60342,-6.58645 -15.42574,-20.90882 -15.14066,-32.80834 1.742,-8.70183 7.52434,-18.85999 10.90864,-25.04722 4.46743,-9.76532 24.73465,-13.03745 23.73062,-18.94237 -9.46482,-14.7407 -4.91625,-35.02229 -3.11688,-51.7901 8.53315,-9.32103 2.01696,-21.99916 -7.5657,-24.87212 -6.75109,-6.19624 -13.0108,-5.24282 -20.16672,-8.55486 -8.35124,-6.55968 -15.74617,8.15011 -20.92152,11.20407 -6.54993,4.13955 -10.14689,13.28392 -13.02293,17.75322 -3.7771,18.9776 28.08684,-12.51565 24.30546,12.55395 -3.33598,2.8219 -12.26771,7.85359 -16.95242,8.58368 -5.80411,1.59983 -15.41866,9.77067 0.0552,12.25864 1.69911,8.6892 -10.50335,12.88445 -15.02203,17.59077 -12.59774,4.95976 -26.32478,12.52475 -33.54113,24.74258 -3.05315,10.13128 29.06354,8.08615 10.74656,20.11639 -7.44172,7.6897 -10.42352,18.1328 -12.15052,28.65811 -3.01317,14.13879 6.73657,32.11934 24.81987,25.97486 22.0301,-8.24759 13.27356,10.99843 6.59736,20.54817 -6.32136,15.649284 -9.88196,37.060755 2.3221,51.558121 9.40099,10.081285 39.33342,-0.64514 33.76732,17.373354 -4.16486,16.498578 1.96932,36.266417 16.84653,46.2719696 8.32757,-1.0961499 26.76767,-8.7266138 22.36908,6.9119264 2.34025,21.606211 28.384719,25.995332 46.101245,31.153665 4.370713,3.023846 10.322716,0.02222 14.952932,0.223817 z M -196.89081,-114.84106 c 2.14114,-4.75658 1.11719,1.61747 0,0 z m 305.7186,-31.31121 c -7.76643,-4.2375 6.80462,-0.37584 0,0 z m -6.37776,-3.32698 c 2.23552,-1.8459 -0.0325,-0.0259 0,0 z m -5.840943,-2.84444 c -3.263767,-1.38951 2.960676,0.51909 0,0 z m -325.558187,-8.81945 c 0.30873,-1.5901 0.30873,1.5901 0,0 z M 62.036864,-278.92929 c 0.582132,-1.647 1.224332,0.60818 0,0 z M 51.334398,35.265889 c -0.617455,0.352572 0.572595,1.942684 0,0 z m -2.350311,-6.770158 c -0.823281,-1.211704 -1.016071,0.672266 0,0 z M -131.60631,22.812727 c -1.84078,-1.865547 1.10879,3.311056 0,0 z M -6.2922047,14.669805 C 9.9711835,10.198472 12.290196,-2.4064065 -0.92155111,9.2485278 -0.93774792,9.6630879 -12.424682,16.455869 -6.2922047,14.669805 Z M 1.7118644,7.26507 c -1.51569968,-0.7111003 -1.28431836,1.8276558 0,0 z M 47.064588,-8.9088386 c 1.792188,-1.8940484 -5.782338,1.4032487 0,0 z M -160.56591,-47.195917 c -0.42667,-1.289802 -0.87003,1.25669 0,0 z m 104.069441,-7.577807 c 19.64727,-1.173116 41.101539,-6.896123 55.2925193,-21.28969 1.15493528,4.900697 3.0983181,-4.602628 8.6646103,-10.362128 8.3049754,-15.093228 6.2199574,-36.408128 -7.01244516,-48.259338 -3.64865854,-14.8182 19.56050956,-12.10584 22.61280856,-24.64329 9.046646,-15.05545 4.69696,-34.46111 -4.803213,-48.78296 -7.16018,-15.11962 -14.2224831,1.29337 -29.974187,-3.11439 -11.507578,-2.78787 -16.440509,-19.41227 -13.030094,-28.79083 4.941732,-19.86686 35.14583,-23.0045 37.124746,-41.0713 -11.8718311,-1.00446 -28.081346,-1.56608 -30.193015,-16.76661 9.8743067,-18.61055 0.01004,-25.10574 -19.158621,-18.58002 -9.497985,2.36158 -18.45799,8.63959 -24.933063,16.23568 -7.744797,3.06322 -23.430171,-9.30661 -27.656472,2.42461 -10.047595,16.8115 -6.347204,37.80569 2.381816,54.78678 2.208097,8.88487 6.841036,13.44328 5.019924,23.51161 0.112879,11.50897 -16.046338,10.35596 -23.360315,4.2696 -10.63214,-6.44362 -18.98983,3.99416 -27.60052,7.73666 -5.66671,7.37217 -14.7764,12.45377 -14.09435,23.53779 -3.89749,17.1567 9.08759,28.06132 22.28454,35.31863 18.72145,7.39669 1.22971,16.92939 -4.14661,25.92417 -4.47237,10.68883 -7.18316,22.51649 -5.7346,34.092482 6.49342,12.462978 12.75465,34.073872 30.65106,31.553009 -4.3912,-3.341533 24.666096,3.790965 35.993397,2.566561 l 7.607213,-0.120482 4.06503,-0.176728 z m -54.327781,-6.180526 c 0.87004,-1.256693 0.42666,1.289799 0,0 z m -1.68352,-1.440251 c -2.5006,-2.871812 5.00801,2.134807 0,0 z m -2.35857,-1.71069 c 1.18833,-4.460556 3.05513,2.628411 0,0 z m -1.60235,-1.611559 c 1.23657,-1.867065 0.83878,1.904897 0,0 z m -1.23472,-0.176389 c 0.42664,-1.289806 0.87004,1.256693 0,0 z m -0.35278,-1.058333 c 0.90423,-1.306649 1.35616,1.264782 0,0 z m -2.36834,-0.642232 c -1.42359,-2.173445 2.65527,1.168965 0,0 z m 120.19611667,-8.882768 c 0.8700395,-1.256692 0.4266526,1.289806 0,0 z M -63.968055,-84.529507 c -12.732811,-5.718297 -25.043983,-6.701603 -34.348985,-13.492519 -19.44132,7.318505 -17.18372,-11.317404 -2.62943,-15.319584 8.959702,-15.38945 32.772819,-13.81668 11.420794,-0.96971 -3.330691,13.93378 12.500871,12.99535 22.209938,16.315543 12.251046,4.184798 7.099037,-27.392803 -0.693244,-33.866663 -14.542157,-9.51649 17.584178,-18.08878 25.800015,-13.87216 19.070614,7.37439 -0.03408,12.16185 -4.7625,21.09773 -3.149837,9.66077 -8.708416,14.71079 -1.411112,25.723745 8.2456,8.17499 18.421447,0.891977 25.354986,-5.084565 11.495777,-5.51851 -3.841166,-16.61529 1.879458,-20.38573 6.524152,-1.2434 12.057208,-1.78689 12.9822227,3.3895 11.3000413,0.59556 21.1160153,21.928614 1.490861,14.68272 -7.1315667,13.84793 -21.7949317,20.922464 -36.6119347,21.404929 -11.565926,-10.551118 -9.117621,0.806826 -20.681069,0.376764 z m 46.629919,-23.873353 c -0.342532,-1.96921 -1.351632,1.92732 0,0 z m -35.277777,-24.59898 c 4.354149,-9.48201 -7.60576,2.78275 0,0 z m -35.630556,21.2684 c 0.669442,-1.77637 1.095752,1.27942 0,0 z m 13.052778,-38.45277 c 0.04122,-1.52635 1.075983,0.32086 0,0 z m 34.495846,-0.52356 c -2.215686,-9.60739 -6.320115,-19.82519 3.840092,-27.9539 5.655953,-10.5489 31.7432293,-4.23541 21.817506,7.61909 -5.712907,8.19421 -12.866611,15.34012 -20.860491,19.63657 1.179509,0.75888 -4.461508,1.38773 -4.797107,0.69824 z m 2.803066,-1.12152 c -1.396974,-0.74139 -0.329598,0.79491 0,0 z m 5.924762,-13.32681 c 19.543148,-12.55149 -10.838715,-7.53346 0,0 z m -45.501666,13.21156 c -0.396405,-1.36187 1.367785,0.22168 0,0 z m 6.334936,-0.90082 c -13.303494,-1.4397 -20.575829,-14.30594 -18.558064,-27.40861 13.379881,-11.29267 38.296492,10.18399 26.40737,24.99105 0.432856,2.69022 -5.757967,2.98206 -7.849306,2.41756 z m -2.720022,-16.06917 c -1.982268,-8.73879 -6.648874,1.73567 0,0 z m -72.950811,-18.68494 c 0.90133,-1.26558 0.90133,1.26558 0,0 z m 66.329243,-48.67021 c -0.716349,-8.69936 17.715295,-14.14677 26.21033,-14.01971 10.965557,-5.35547 31.197092,15.09663 12.301502,11.53016 -1.502361,-3.37849 -12.997404,-6.14417 -16.645325,-3.96165 -7.658528,-0.01 -13.411348,5.78889 -21.866507,6.4512 z m 42.67909,-1.76594 c -1.413924,-0.62621 -1.377295,1.15024 0,0 z m -39.224479,1.86461 c 1.546456,-0.5053 0.15284,0.67926 0,0 z m 31.816146,-3.99235 c -0.222172,-1.0809 1.777608,0.7149 0,0 z m 14.111111,-2.49026 c 1.01607,-0.67225 0.823285,1.2117 0,0 z m -25.880342,-0.86113 c 0.83732,-1.85103 0.305284,1.86342 0,0 z m -80.632089,41.0016 c -1.51998,-0.58849 -0.10903,1.19688 0,0 z m 0.92008,-2.0858 c -0.67918,0.15302 0.50551,1.54639 0,0 z m 42.974296,-6.63663 c -1.759762,-1.28062 -0.93584,1.36054 0,0 z m 1.238532,-8.34863 c 2.842792,-13.13847 -7.995878,-25.74462 -9.881368,-39.03902 -8.32436,-24.58353 7.628523,-47.24322 20.058344,-66.88141 6.091155,-18.00366 6.63958,-48.47754 -6.531641,-58.73643 10.957104,22.67898 5.588397,50.57593 -6.636246,69.48599 -5.855287,10.85425 -16.997217,18.06066 -19.830387,31.22789 -7.32339,11.63121 -3.76893,29.32894 -2.74602,43.31398 1.36905,15.66432 17.67133,17.69785 25.567318,20.629 z m 1.58369,-103.12915 c 0.870039,-1.2567 0.426652,1.28981 0,0 z m 2.645833,-5.97641 c 0.669435,-1.77636 1.09576,1.27938 0,0 z m 81.9087912,108.81113 c 10.0398623,-10.06212 11.068751,-28.46404 23.9245418,-37.79982 6.137295,-9.96442 18.06189,-17.63672 17.928873,-30.21503 -0.935938,-18.02476 -9.808784,-33.5504 -11.964324,-52.19124 -5.860998,-6.41415 -0.365834,-51.09095 -7.615415,-28.94582 -4.941078,20.1997 6.450109,40.01949 7.245038,60.25191 2.808451,16.88675 1.883081,37.47462 -14.1968313,47.68925 -5.3042397,5.41684 -10.1406766,8.05417 -17.2190481,11.98626 -10.3919076,7.34286 -6.5017596,22.95362 0.1942747,30.09159 l 1.7027878,-0.8672 z m -111.0617822,0 c -1.54321,-1.9741 0.41913,1.97182 0,0 z m -1.1859,-20.28472 c -0.87004,-1.2567 -0.42664,1.28981 0,0 z m 205.316669,-11.28889 c -0.901328,-1.26558 -0.901328,1.26558 0,0 z m -2.610238,-1.64663 c -1.408169,-3.66743 -0.07382,3.19368 0,0 z M -69.554644,-353.14244 c -0.602116,-1.22877 -0.744321,1.85345 0,0 z m 92.785953,-28.81224 c -3.311538,-2.5221 -0.368246,2.83897 0,0 z m 0.583812,-1.59963 c -1.784438,-2.06896 0.580494,2.42485 0,0 z m -41.10034,859.1927 c 0.651531,-1.48738 0.468516,1.15147 0,0 z m -113.236301,-6.45047 c -1.40935,-2.61761 3.38704,-0.41982 0,0 z m -8.87773,-65.84343 c 0.77469,-1.76862 1.55627,-0.58586 0,0 z m -4.81831,-13.11043 c -2.64149,-9.83211 2.90691,3.59715 0,0 z m 1.29054,-1.06468 c 1.01607,-0.67225 0.82328,1.21171 0,0 z m -2.81143,-18.8528 c 0.28741,-1.97059 1.23625,-0.47961 0,0 z m 0.57718,-3.2338 c -1.08658,-1.59762 1.55212,0.30164 0,0 z m -0.2352,-2.91899 c 0.6934,-4.34771 0.85701,3.80621 0,0 z M 110.13409,90.895417 c -0.69144,-3.254945 6.87138,-1.044002 -2e-5,0 z m -1.17778,-10.885558 c 0.16757,-1.699599 2.17839,0.885727 0,0 z m -0.94943,-2.939803 c 1.9514,-16.206331 4.42864,-1.153434 -0.045,1.446946 z m 3.0661,-3.097883 c 1.26579,-1.745236 1.47565,1.248773 0,0 z m 1.23472,-1.576423 c 0.87004,-1.256693 0.42664,1.289806 0,0 z m -0.52917,-1.153795 c 1.17246,-2.239381 1.63721,0.619607 0,0 z m 0.70556,-4.137872 c 0.80495,-2.456622 0.25007,2.455456 0,0 z m -2.62315,-0.602156 c 0.3842,-0.88804 0.76052,1.574852 0,0 z m 4.06209,-1.720286 c 0.50925,-0.939586 0.1572,1.521037 0,0 z m -3.55561,-2.583215 c -0.0964,-9.198106 3.83827,-0.538166 0,0 z m 1.76389,-1.049937 c 0.42724,-2.975052 1.25973,1.968612 0,0 z m 1.99908,-4.510158 c -1.42576,-1.238188 1.21474,-0.873089 0,0 z m -5.35241,-1.179054 c -0.77715,-8.439648 2.77032,-0.861559 0,0 z m 4.4395,-3.730413 c 0.50924,-0.939588 0.15716,1.521061 0,0 z m -2.83323,-1.18745 c -3.86131,-2.919488 2.17576,-1.737546 0,0 z m 1.4352,-0.28247 c -0.58906,-3.122122 2.37902,-0.382033 0,0 z m 1.1938,0.264584 c 0.87004,-1.25669 0.42667,1.289804 0,0 z m 0.17639,-3.076928 c -4.38068,-2.024271 -0.40865,-1.97126 0,0 z m -5.88013,-0.654579 c 0.57756,-1.227278 0.45217,-0.968693 0,0 z m 2.17597,-2.20666 c -4.41318,-5.296013 6.09764,-1.200127 0,0 z m -0.87486,-3.049129 c -6.51831,-3.804267 2.97537,-3.3734 0,0 z m 0.90724,-0.404178 c 0.86978,-5.618045 3.33142,-1.04832 0,0 z m -1.53356,-4.905657 c -5.68625,-2.502628 3.86384,0.10025 0,0 z m -3.6141,-2.048228 c 0.0831,-14.132096 5.02738,2.356544 2.47079,-2.349712 -1.46331,-1.505701 -0.87862,4.07692 -2.47079,2.349712 z m 3.74773,-4.305794 c -0.92507,-2.582097 1.29969,1.652664 0,0 z m -4.19604,-0.728662 c -1.69323,-1.076708 1.63854,-1.802815 0,0 z m -0.41339,-3.250777 c -3.48812,-6.597569 -0.88647,-12.9163 0.85473,0.118886 l -0.85471,-0.118886 z m 1.92003,-3.59163 c 0.90133,-1.265574 0.90134,1.265572 0,0 z m -4.40799,-5.28888 c -0.83465,-2.048027 1.41834,-0.263622 0,0 z m 2.31916,-0.56134 c 0.50925,-0.939591 0.15719,1.521052 0,0 z m -2.60583,-2.880078 c 0.0939,-5.0443757 3.60687,1.28012 0,0 z m -1.458066,-1.043869 c -0.49466,-2.201524 1.992906,1.53997 0,0 z M 99.91913,11.65105 c -1.882217,-7.4981037 2.38769,1.335365 0,0 z m -2.41427,-1.387792 c -0.01825,-7.8818458 1.175123,-9.77386907 0,0 z M -235.85471,-215.77635 c -0.82959,-1.75292 1.28984,0.50709 0,0 z m 137.024908,-169.38068 c 0.901326,-1.26558 0.901326,1.26558 0,0 z m 14.527283,875.55924 c -16.228361,-0.66311 -31.064881,-8.36813 -44.203801,-15.83979 -1.734,-8.65191 -0.33257,-16.38732 0.83094,-26.31652 10.42505,-11.15878 -2.59003,-15.31697 -2.9589,-29.51057 -3.09436,-2.95378 -2.8098,-11.09443 -6.85781,-13.88821 3.59687,-9.63163 -2.84981,-34.47872 -0.46559,-49.58042 -0.16931,-13.06058 8.09157,-28.30841 -10.97721,-30.98762 -19.91645,-9.01259 -26.27885,-31.88349 -30.33645,-51.32916 -2.55497,-20.68388 -8.68652,-40.19276 -5.29505,-61.12673 -1.36799,-15.29149 16.0003,-34.72968 10.49397,-46.49269 -15.89523,-4.12777 -30.27738,-11.21837 -44.73154,-18.54044 -13.25887,-11.07587 -14.48108,-24.06873 0.041,-35.85334 12.50133,-27.932448 26.84929,-55.232899 30.67636,-86.16597 4.62295,-13.035755 0.57318,-25.55519411 5.53748,-36.369872 15.80211,-1.940458 12.82693,-35.468642 -4.65147,-34.211114 -13.29919,-1.747016 -22.72492,-11.153477 -25.22362,-24.845397 -2.30822,-16.74055 -2.44192,-35.618377 5.81123,-50.639097 -15.91056,-0.29952 -31.67524,-7.86512 -32.27351,-25.92934 -6.71854,-15.96554 8.66417,-31.31184 9.15797,-42.84684 -11.34925,-4.96071 -9.29005,-22.65138 -4.73147,-26.90989 11.01384,-11.07973 26.905,-17.57283 39.44738,-25.48305 -12.57829,-2.64401 -10.9887,-13.61944 3.08106,-20.97858 -6.47895,-11.9003 -4.1149,-27.05832 7.37676,-37.87528 12.39945,-9.57439 24.77535,-23.89723 36.76032,-29.39558 -8.00602,17.30708 23.25637,23.58302 33.83156,26.42374 8.96949,-9.35618 14.492888,-21.05684 20.262846,-32.56448 4.044077,-17.94673 1.347992,-36.56077 -5.835047,-51.65444 -2.729519,-10.30115 -11.149119,-17.46192 -17.451489,-24.75351 -15.45049,-6.39762 2.62513,-11.64193 12.11798,-4.70346 18.694947,8.19908 24.975866,28.71436 33.84448,45.33194 1.409204,15.64233 3.275174,31.67913 -2.442981,46.0375 -7.280902,8.61779 0.989979,22.17935 12.47189,15.16945 12.829564,-9.8195 33.099121,-15.79566 50.785148,-13.98436 13.208858,-5.56731 11.5758284,9.4442 5.3001684,15.1286 -15.7415874,13.95587 21.0300416,30.62083 18.5810726,11.39763 -0.299687,-22.87064 -7.7691535,-45.01931 -8.3385221,-67.75147 2.3392761,-13.29905 9.8432191,-23.35696 17.2196841,-34.53258 4.526729,-5.09564 18.780011,-17.98752 23.810489,-7.90804 -5.632832,7.28244 -11.132812,16.58763 -14.127445,26.40225 -9.162397,32.0342 9.006396,63.68233 14.109811,94.11751 15.015391,-3.24576 35.482621,-1.07688 30.784835,21.92198 15.354222,3.77102 26.78375,16.29449 25.43659,33.02188 -9.140466,18.35922 15.77791,19.35601 14.82732,35.27996 1.30936,10.31817 -16.8045,26.46583 -1.64583,30.53532 10.7066,-1.50013 20.56015,16.00648 6.64626,17.83669 -4.76135,17.69075 -11.85833,33.49768 -23.815219,47.08634 -9.630952,10.983041 5.365809,14.078846 8.260719,23.73196 9.96409,20.665702 -16.443406,27.199424 -19.519587,42.430771 1.812649,13.882088 -11.853777,22.145816 7.101805,17.45735 4.722815,6.925825 -1.660976,24.4246639 2.365803,36.142081 -0.35409,12.81807 3.217029,32.255188 4.454809,47.654562 -2.037062,12.710957 4.67183,21.866093 6.48758,23.691956 -0.34173,8.061571 3.4977,23.23839 3.85331,34.57984 0.73848,8.57596 2.1091,18.27724 1.36092,23.51257 -8.74801,10.01554 -41.016534,2.70472 -30.037757,22.7318 4.892038,14.41627 4.577447,31.32474 9.721533,46.10946 6.786242,20.37504 9.161374,42.80025 4.498057,63.45009 -13.050768,16.60809 -3.209981,35.23155 -2.938206,54.39769 -1.341793,20.58772 3.152427,42.26584 -3.440358,61.86922 -2.941166,15.87867 -12.883887,33.40973 5.886626,42.13899 10.397325,6.77761 19.552935,19.32052 22.458105,30.4018 -22.728294,11.13228 -48.645635,13.42223 -74.215402,13.27647 -18.531608,4.81379 -40.9593593,-0.49188 -56.641189,-6.30699 0.798939,-1.01005 -8.643508,-13.0925 -8.779545,-22.56653 -8.921269,-4.06344 -2.913456,2.63121 -5.205131,5.99689 -3.24306,5.06966 0.421153,8.2108 -5.347901,8.26053 5.318841,3.79116 13.239453,18.0624 -3.504551,20.63087 -14.892782,2.89474 -33.296722,4.48574 -49.70127,3.68567 z" /></g></svg>
