<?xml version="1.0" encoding="UTF-8" standalone="no"?>
<!-- Created with Inkscape (http://www.inkscape.org/) -->

<svg
   width="210mm"
   height="297mm"
   viewBox="0 0 210 297"
   version="1.1"
   id="svg5"
   xml:space="preserve"
   inkscape:version="1.2.1 (9c6d41e, 2022-07-14)"
   sodipodi:docname="stood bird.svg"
   xmlns:inkscape="http://www.inkscape.org/namespaces/inkscape"
   xmlns:sodipodi="http://sodipodi.sourceforge.net/DTD/sodipodi-0.dtd"
   xmlns="http://www.w3.org/2000/svg"
   xmlns:svg="http://www.w3.org/2000/svg"><sodipodi:namedview
     id="namedview7"
     pagecolor="#ffffff"
     bordercolor="#666666"
     borderopacity="1.0"
     inkscape:showpageshadow="2"
     inkscape:pageopacity="0.0"
     inkscape:pagecheckerboard="0"
     inkscape:deskcolor="#d1d1d1"
     inkscape:document-units="mm"
     showgrid="false"
     inkscape:zoom="1.2938725"
     inkscape:cx="313.40028"
     inkscape:cy="529.03204"
     inkscape:window-width="1637"
     inkscape:window-height="1387"
     inkscape:window-x="4"
     inkscape:window-y="25"
     inkscape:window-maximized="0"
     inkscape:current-layer="layer1" /><defs
     id="defs2" /><g
     inkscape:label="Layer 1"
     inkscape:groupmode="layer"
     id="layer1"><path
       id="path410"
       style="fill:#000000;stroke-width:0.0633231"
       d="m 96.145771,239.2552 c -1.73235,-2.1154 -0.74472,-4.1435 -0.0872,-5.88917 0.51098,-1.67794 1.16721,-4.37784 3.36015,-4.64173 1.338069,-0.41906 4.116089,0.17965 5.924729,-0.60525 2.8739,-0.55012 7.04956,3.02353 9.17912,-0.0684 0.0226,-2.22525 1.247,-5.11038 -0.27627,-6.97845 -0.8782,-3.3229 -1.90859,0.11997 -3.86868,1.07007 -1.86523,1.06024 -2.47935,3.03231 -0.0178,4.00061 3.36679,1.70401 -1.32126,3.36873 -2.90885,1.14162 -0.76753,-1.0913 -2.80864,-3.07273 -3.12069,-1.94897 0.63209,-1.32446 -3.32822,-2.92454 -5.382439,-2.73214 -2.62085,-1.07556 -4.61407,0.42272 -5.86409,2.38861 -2.31939,0.17999 -4.62241,5.43274 -3.2544,-0.13452 0.40587,-1.55918 4.23907,-0.99705 2.83885,-2.65209 -0.96398,1.30558 -6.5162,1.09503 -2.74738,-0.8232 2.90475,0.58494 -0.0341,-1.75674 -1.91133,-1.5331 0.0217,-1.48536 3.25846,-0.30619 3.53544,-2.00595 0.93953,-0.68009 3.24942,-1.08881 4.7083,-1.21592 0.86594,0.96083 3.23834,1.17685 4.626569,2.03196 1.94131,0.36224 3.92532,2.62934 4.49259,3.41494 1.73877,1.32686 2.09215,-1.29847 3.19552,-2.29102 2.59542,-2.61747 -2.43481,-3.58354 -1.98176,-5.84144 0.10908,-2.57579 0.56576,-4.25162 -1.24262,-6.57501 -1.62394,-2.33052 -2.16083,-5.734 -5.417689,-6.40468 -1.9568,-0.36915 -4.06739,-1.89727 -6.27907,-1.84899 8.9e-4,-1.90869 2.09651,-0.81899 3.0019,-0.27395 2.81374,0.82574 7.333409,1.78519 8.308969,5.5969 0.0785,0.84428 1.2312,2.05982 1.71717,3.58484 2.01852,1.98102 1.82433,4.48593 2.0886,7.05332 0.51244,1.44182 3.00323,1.91828 2.53777,1.33367 1.53428,0.53737 3.09791,2.92796 5.16387,1.96733 1.54304,-0.19741 3.15819,-0.76027 3.86464,-2.19637 0.59027,-0.78543 2.98463,-1.05141 3.76829,0.89937 -1.4414,0.9832 -3.08715,-1.00823 -4.26998,1.35636 -2.10418,0.85127 -1.01877,3.9564 -1.91928,5.52245 -0.79433,0.83841 -0.17128,4.9023 -1.80056,3.65776 0.32509,2.96657 -4.15291,3.52588 -6.31443,2.39084 -2.64687,-1.26288 -5.38347,-0.0132 -8.34343,-0.0122 -2.507379,0.0371 -3.551089,3.22558 -0.74943,1.0369 0.98526,0.0137 5.94479,0.83241 3.94587,2.32633 -2.30091,-1.29837 -3.23947,0.833 -5.223159,2.14586 -0.91842,1.85723 0.873909,-0.67888 2.173089,-0.79241 2.078,-1.71591 5.4206,0.42423 7.06387,-1.80975 1.86832,-0.89402 4.31593,-1.06969 6.02292,-0.40569 2.30025,0.30742 7.52872,1.79292 2.8178,-1.61474 -1.90686,-0.81861 -0.045,-1.78469 0.0279,-2.93982 1.42314,-0.084 0.88666,2.95625 2.50498,3.64314 0.50451,0.72129 1.28886,1.22004 2.28833,1.47964 2.87588,0.80327 -0.80313,2.47341 -2.26178,1.7981 -3.66884,-0.65198 -7.72466,-2.64144 -11.2432,-0.62495 -1.37261,3.51016 -2.5331,1.02015 -5.13631,1.08487 -3.10311,-0.33626 -3.60146,4.70164 -5.910109,2.13688 -2.10334,-2.57962 -0.98977,0.66726 -1.06433,1.67971 -0.17558,0.0957 -0.36866,0.082 -0.56097,0.11781 z m 0.71239,-3.4987 c 1.77337,-2.43805 -0.7871,-1.31539 -0.17035,0.12664 z M 116.6628,223.19644 c 0.96084,-4.36006 -1.65178,-1.95368 0,0 z m -12.94995,-0.73106 c -0.91545,-1.64084 -4.293559,-4.50037 -6.470059,-3.22386 -3.35065,-0.0899 -2.55133,3.22156 1.12854,2.3931 1.877479,0.30624 3.536989,0.37601 5.341519,0.83076 z m 50.81656,-1.62037 c -0.39414,-1.77878 1.48866,-3.94921 0.55704,-5.70554 -0.90633,-1.82988 -0.24093,-4.3384 -1.74434,-6.23013 -2.98328,-4.57921 -6.68079,-9.53966 -11.59726,-11.93605 -2.05,-0.96112 -5.24305,-2.56987 -7.77952,-2.74623 -1.36596,-1.87509 -5.9358,0.15323 -8.27895,-1.74112 -2.78036,-1.30665 -4.75559,-4.45459 -6.34871,-6.48797 -1.5492,-0.94753 -2.73757,-2.67846 -5.22401,-2.87116 -2.01915,-2.0056 -3.23014,-1.04776 -5.46593,-2.39784 -3.8838,-2.81407 -7.48693,-6.04904 -9.764169,-10.34456 -0.64577,-0.47499 -1.01121,-1.70876 -1.70175,-2.30263 -1.46968,-2.47621 -2.97083,-5.07652 -2.86728,-8.00957 -4.09673,-1.61559 -4.09454,-6.99084 -6.80516,-9.9599 -2.84294,-4.337 -3.86965,-9.51234 -3.23404,-14.60944 0.039,-3.76437 0.69355,-6.53411 1.59327,-10.07605 1.97884,-3.09459 -3.2315,-3.31342 -1.45846,-6.59585 1.14989,-4.34601 1.59692,-9.34417 4.7286,-13.26613 2.67592,-3.12524 5.53659,-6.290493 8.82759,-8.708913 -3.55851,-1.02563 -0.91122,-5.49366 0.78894,-7.22282 3.850879,-2.7711 7.080609,-6.3281 11.611269,-8.02017 3.63223,-2.7513 7.87953,-4.63197 10.61762,-8.2478 1.22911,-0.93428 2.63329,-3.75966 2.75039,-5.77424 0.0906,-4.63396 -2.39423,-8.81741 -5.03008,-12.56011 -1.48271,-1.36266 -3.77826,-2.99492 -5.15892,-4.68461 -0.0348,-0.35432 -1.86739,-1.19273 -2.89346,-1.78194 -1.01171,-0.04 -2.38866,-0.79397 -3.30574,-1.01694 -2.28285,-0.86648 -4.62267,0.96989 -6.66611,1.94513 -2.428059,0.98581 -3.533079,2.55719 -5.857009,3.02367 -1.45604,-0.14811 -2.71459,-2.33247 -3.3477,-0.46274 0.22343,1.03194 -0.74026,2.16015 -0.901,1.4813 0.0704,0.10997 -0.32222,0.47368 -0.53676,1.61742 -0.54799,0.16349 -1.30313,1.25681 -1.85505,2.26312 0.50481,2.14751 -0.3879,3.9 -2.85564,4.6335 -3.58179,2.66016 -6.31552,6.46404 -9.12613,9.90207 -0.40854,1.23024 -1.55422,2.99209 -1.76738,3.898 -0.44636,2.96715 0.4036,5.39912 0.79967,8.09132 1.18906,1.5185 3.23678,3.74876 0.63761,3.4817 -4.1081,5.91592 -7.68516,12.34294 -10.80303,18.924023 -1.15606,2.03894 -2.28958,4.6873 -3.37723,6.97519 -0.82547,2.42834 -2.31589,5.27115 -2.70959,7.47297 1.69674,-2.45078 3.61326,-5.56922 5.3754,-7.74172 2.48929,-3.38765 4.53911,-6.72195 7.80151,-9.71924 2.2642,-2.63846 4.69578,-5.009813 6.36427,-8.049323 -1.69568,-4.3377 3.10712,0.78946 5.27673,0.4112 2.18299,-1.35564 6.24764,1.53196 2.31981,3.41425 -1.78503,2.125423 -4.14786,2.913293 -5.85113,4.939103 -5.02664,5.1598 -10.79338,9.81963 -16.14732,14.72017 -4.04327,3.96169 -7.13705,8.78812 -11.07259,12.75153 -2.08761,-1.34307 2.45636,-3.47475 2.58734,-5.84409 1.56601,-2.78619 2.50537,-5.67118 3.81954,-8.39634 1.77803,-4.31515 3.27154,-8.97776 5.75222,-13.40186 2.68128,-6.422833 6.615,-11.867313 9.88828,-17.989853 -2.65845,-4.81298 -2.73562,-11.16638 0.96942,-15.5178 3.07745,-4.13703 6.87737,-7.65778 10.40305,-11.31068 -1.10336,-2.96007 1.3532,-3.12269 2.95146,-5.16394 1.72918,-1.41737 1.15377,-4.84303 3.57682,-4.90955 1.32413,1.1497 0.80489,1.17718 1.74104,2.24617 1.8436,-0.60863 4.02045,-1.94271 5.22959,-2.64297 1.511859,-0.78945 2.183719,-1.19491 3.508959,-1.72452 1.24453,-0.92036 3.34455,-1.33539 5.33298,0.14418 4.84261,0.8296 8.05126,4.7973 11.56973,7.81531 0.20454,0.41371 1.25644,2.3529 1.9667,3.63994 0.84533,1.56513 2.33469,3.42396 2.45456,5.83282 0.42078,2.25809 1.04895,5.01854 -0.83903,7.02436 -0.45525,3.07735 -5.24825,4.57599 -4.80645,7.37482 1.32009,4.18617 -3.59786,8.15428 -2.14922,12.11283 2.71239,0.20674 4.61771,1.816 3.52162,4.68767 -0.90435,3.41182 -1.16297,7.400123 -0.35539,10.705313 0.86365,4.13236 -3.62574,-4.72139 -1.85177,-6.996063 1.26506,-4.11701 0.79646,-6.48819 -3.09744,-8.15639 -0.68257,-4.44111 3.33458,-7.92061 2.45258,-12.08237 -3.35651,0.462 -5.49271,4.1518 -9.06693,5.00009 -3.66467,2.68974 -7.88065,5.09604 -10.475499,8.89701 -2.6037,5.43023 5.855939,0.5354 7.210299,4.48749 1.38673,3.514833 4.39734,6.391363 4.38402,10.239583 -2.67744,0.5724 -1.0746,-3.02435 -2.73189,-4.33153 -1.53029,-2.55319 -3.01553,-7.974753 -7.139929,-6.124333 -4.30614,2.24021 -7.35372,5.939273 -10.30036,9.600453 -2.38073,3.53259 -3.09395,8.34823 -3.97169,12.4603 -0.48709,2.47808 2.01368,2.38351 1.84075,0.21137 1.17216,-2.47761 2.6467,-0.36858 1.93608,1.17757 -1.244,2.59881 -3.15444,5.23444 -2.50619,8.3906 -1.67077,2.1093 1.3897,5.16648 2.682,6.9698 1.81861,1.32452 2.86126,2.54984 4.56867,3.87712 1.4727,2.0234 3.22995,2.0617 3.36534,4.10578 -1.14313,3.25853 -6.34901,2.90324 -6.67782,6.72646 -2.21254,1.03191 0.82906,3.50058 1.31781,5.12239 1.24045,2.11545 2.07674,3.21197 3.80904,1.41156 1.06138,-2.13443 3.83669,-2.03449 5.427699,-3.53015 0.64739,-1.99307 3.10504,-5.49437 1.19961,-7.22213 -4.889139,-1.65529 -3.613699,-4.8158 0.70847,-1.52213 1.64153,-1.7981 2.20749,0.94414 3.8627,1.84393 1.44515,1.86174 3.78196,1.85226 5.62724,3.51967 2.07653,3.12435 5.09556,3.35658 7.81568,5.34003 1.8273,1.57408 4.89952,3.2118 4.82229,5.71195 1.10729,0.49179 4.22723,1.07415 5.95114,1.38687 2.682,-0.26706 5.87012,-0.78257 8.4742,0.46343 -1.69467,-6.22098 -3.11883,-12.79886 -2.06389,-19.34446 -0.28942,-5.77214 1.74461,-12.0449 -0.87472,-17.37423 -0.84441,-2.69367 -3.53685,-4.20006 -4.80503,-6.6489 -2.54424,-3.14917 -6.18541,-6.15687 -8.43244,-9.08234 0.20859,-3.1589 5.24004,3.71912 6.75177,4.87509 1.81365,2.5138 4.65112,4.4978 5.80893,7.23177 4.17383,4.43632 3.82964,10.81627 3.06144,16.43086 0.16907,6.48959 -1.1567,13.08269 0.9506,19.40351 1.38658,5.77609 3.62653,11.24173 5.8503,16.69734 0.0254,1.78987 2.19815,3.66823 2.28565,5.92697 1.46382,2.53134 3.0806,4.81103 4.38316,7.27621 -1.57291,2.05187 1.18798,3.82576 1.92613,6.03333 3.48108,7.67767 3.74715,16.70961 0.94795,24.63299 -0.0455,0.0931 -0.50002,1.96416 -1.06744,1.60676 z m 1.21994,-9.8319 c 1.10507,-1.41614 -0.12739,-4.19612 0.0914,-6.42838 -0.53226,-3.24403 -1.14999,-5.88882 -2.24531,-8.81838 -1.26031,-2.08352 -2.69874,-4.69997 -3.19085,-6.97496 2.81739,1.1621 -3.27764,-4.44552 -0.79848,-2.54917 -1.10506,-1.63598 -2.7044,-4.43109 -3.17713,-5.86134 -0.64447,-2.16246 -2.00779,-3.4281 -2.26863,-5.4648 -0.89719,-3.39133 -2.93176,-6.38348 -3.59045,-9.85933 -1.79614,-1.36042 -9.1788,-2.38911 -6.33724,0.99736 2.71376,4.42672 3.84221,9.27785 5.84421,13.90905 1.2221,4.04865 2.1201,8.26359 1.67681,12.54331 -0.0206,2.10465 2.03721,3.5765 3.57834,4.96777 3.73936,2.91316 6.60757,6.73222 9.32715,10.62734 0.4692,0.67309 0.67712,2.70493 1.0902,2.91153 z m -14.66719,-16.04055 c -1.98975,-3.06146 0.0241,-7.18306 -1.34908,-10.58068 -1.30509,-5.28367 -3.31885,-9.3685 -5.07127,-14.46303 -1.50329,-1.99566 -2.41241,-5.45733 -5.14172,-5.53607 -3.25423,-3.12392 -3.80429,0.95614 -3.69766,3.69206 -0.15711,3.98631 1.58426,7.53329 3.89551,10.6178 1.03209,2.33279 1.89385,3.35612 1.4328,5.7876 -0.21624,2.4137 -2.22976,4.67678 -1.98218,6.97724 1.79837,1.01763 3.92474,1.07902 5.99984,0.69126 2.53611,-0.71926 0.46086,0.65817 1.8445,1.46761 1.29509,0.2701 2.55722,1.55722 4.06926,1.34621 z m -14.01657,-3.89675 c 0.68016,-1.24626 1.43044,-3.74541 1.90931,-5.56339 1.03571,-2.17988 -0.12441,-5.20861 -1.71242,-7.24367 -2.57732,-4.51587 -3.92149,-9.90942 -2.65472,-15.03036 0.2605,-2.37599 -2.86095,-4.66191 -4.74524,-6.45712 -2.72583,-1.55677 0.3229,1.5097 -0.46658,2.80079 1.7315,2.38675 1.18736,5.56981 -0.91325,7.5971 -3.14165,3.87107 -6.6296,8.90049 -4.22023,14.02579 1.24432,0.70529 2.24765,1.53359 3.45554,1.93446 1.36549,0.48017 0.97327,0.13896 2.12845,1.03792 2.14405,2.67951 3.64931,5.79474 7.09756,7.05654 z m -14.90178,-10.90092 c -1.71775,-5.11496 2.01308,-9.99557 5.02104,-13.91565 0.97577,-1.78941 1.64715,-3.72673 0.60546,-5.45762 -1.59079,-1.51322 0.0326,-4.62622 -2.31517,-5.40178 -1.01492,-1.20652 -5.96295,-7.09573 -4.64502,-3.17719 -0.66836,2.80817 1.95318,4.87995 0.78232,7.46617 -1.52122,2.97004 -5.09171,4.35861 -6.70738,7.40416 -2.9533,1.53012 -0.65752,4.97578 -2.00301,6.22162 -0.0838,1.49548 2.21234,2.46548 3.06748,3.44808 1.85503,1.53702 3.03941,2.85176 5.32176,3.27856 0.14813,0.17054 0.54878,0.0292 0.87252,0.13365 z m -10.83957,-9.3079 c 0.79465,-4.43076 4.92035,-7.36423 7.6919,-10.62296 0.51348,-2.08316 0.3171,-5.73703 1e-5,-8.6146 -0.96868,-1.47929 -2.38495,-2.48212 -3.37052,-4.32496 -1.43628,-1.49582 -0.57539,3.30957 -1.33015,4.48615 -0.44791,2.84204 -4.28943,4.08869 -6.407099,5.7622 -0.61739,2.47318 -2.87693,4.116 -1.24017,6.69493 1.39027,2.32826 2.9077,5.01362 4.695289,6.7756 z M 89.214641,149.5011 c 1.06655,-2.34 3.61343,-4.06742 6.12377,-4.90973 1.54113,-1.93783 -3.44433,-2.86548 -4.19595,-5.49887 -0.31969,-1.40686 -3.91875,-2.6016 -4.67283,-4.81408 -2.05827,-4.21278 -1.02261,6.82535 -0.81672,8.55942 0.78118,2.01388 1.98609,6.04141 3.56173,6.66326 z m -31.84927,-24.71529 c 6.55757,-8.85699 15.99064,-14.96344 23.51808,-22.97102 1.53886,-1.27258 2.52336,-2.817503 4.48162,-3.963873 -1.83796,-1.50675 -7.17808,-2.16859 -8.32696,1.95332 -5.97837,5.458793 -10.77561,11.902973 -15.18084,18.551753 -1.67218,2.03396 -2.60833,3.85689 -4.46996,5.52425 0.0363,0.273 -0.59072,1.44874 -0.0219,0.90557 z m 66.099919,91.09048 c -0.78036,-0.4812 -1.53927,-2.20362 -1.36123,-3.60544 -0.84787,-2.32569 0.85952,-7.49909 3.56599,-6.81432 -1.65772,2.09608 -3.36302,5.66305 -1.80172,8.57543 0.16677,1.01062 -0.37555,1.55631 -0.40304,1.84433 z M 88.436221,204.99848 c -5.04876,-1.13644 -4.21345,-7.5145 -5.76238,-11.35944 -2.06225,-5.08972 0.49403,-12.02994 -3.97022,-16.00715 -4.49227,-1.53646 -4.87109,-6.40226 -5.77835,-10.32736 -2.18395,-5.64905 -1.35208,-12.18114 -2.1587,-18.19068 1.66747,-3.11841 -3.16305,-1.44701 -2.94601,-4.03226 -0.25188,-3.22649 2.94751,-4.94655 2.69587,-7.76077 0.66036,-2.05447 4.07685,-7.20755 1.28093,-7.44928 -3.07377,-2.01878 -0.74076,-6.33083 -0.14169,-9.20427 1.10703,-2.21524 2.16656,-4.48779 3.2518,-6.68691 3.3087,0.004 -2.08348,4.77723 -2.07832,6.94393 -0.68172,2.40505 -1.87137,5.13389 -0.79316,7.47858 3.05307,-1.07552 2.91876,2.10947 1.76567,3.99862 -1.43927,3.64659 -2.07093,7.52536 -4.17207,10.60142 -1.33312,2.81532 1.68955,1.59683 2.75733,3.23922 -0.29808,1.9241 0.75584,3.60529 0.1598,5.64333 -0.47092,4.00473 -0.0942,8.61238 0.73766,12.2771 0.19543,1.6517 1.23753,3.30668 1.37923,5.27434 0.56556,2.42885 0.84685,4.87402 3.31198,6.45652 0.68138,0.91384 1.44601,1.19085 1.91206,1.34118 1.09427,1.00216 1.62441,1.21296 2.37461,2.36782 0.31655,3.89444 0.68613,7.62179 0.96151,11.59069 0.62603,2.82837 1.38249,4.76325 1.80716,7.44546 0.56764,1.69457 0.92375,4.12489 2.1578,4.94727 1.10356,0.47052 5.30065,0.38266 1.24748,1.41268 z m 36.708379,-0.32322 c -2.10263,-3.57709 0.0393,-7.59856 -0.0942,-11.11271 1.6674,-1.37705 1.86578,2.15222 1.43709,3.17819 -2.43087,2.36994 0.92978,6.26022 -0.70392,7.96381 l -0.63933,-0.0293 z M 114.33526,105.7087 c -2.64182,-0.0516 -4.82581,-4.60678 -1.23655,-2.29223 1.03243,0.56013 4.22223,1.791 1.23655,2.29223 z M 87.733301,77.886227 c -3.71136,0.28994 -3.80517,-5.78817 0.10135,-5.30746 4.26512,-0.41025 2.98213,5.60642 -0.10135,5.30746 z m 0.42673,-1.10168 c 1.99125,-1.0149 -0.41628,-2.28577 -1.65715,-1.9776 -0.5574,1.36818 0.75124,1.94033 1.65715,1.9776 z m 3.1041,-1.03919 c -0.76991,-2.64118 2.2867,-5.21261 4.42885,-6.52001 2.28297,-1.08865 5.487549,-1.84943 7.560779,-1.3075 -1.54555,2.31181 -5.964929,0.69976 -8.033399,3.23396 -2.0867,0.83875 -2.01054,4.69155 -3.95623,4.59355 z" /></g></svg>
